<svg xmlns="http://www.w3.org/2000/svg" width="165" viewBox="0 0 165 82.5" height="82.5" version="1.0"><defs><clipPath id="a"><path d="M 0.496094 0 L 164.503906 0 L 164.503906 82.003906 L 0.496094 82.003906 Z M 0.496094 0"/></clipPath><clipPath id="b"><path d="M 0.496094 6.859375 L 55 6.859375 L 55 75.441406 L 0.496094 75.441406 Z M 0.496094 6.859375"/></clipPath><clipPath id="c"><path d="M 61 6.859375 L 80 6.859375 L 80 25 L 61 25 Z M 61 6.859375"/></clipPath><clipPath id="d"><path d="M 61 6.859375 L 98 6.859375 L 98 61 L 61 61 Z M 61 6.859375"/></clipPath><clipPath id="e"><path d="M 155 46 L 164.503906 46 L 164.503906 57 L 155 57 Z M 155 46"/></clipPath></defs><g clip-path="url(#a)" fill="#FFF"><path d="M 0.496094 0 L 164.503906 0 L 164.503906 89.457031 L 0.496094 89.457031 Z M 0.496094 0"/><path d="M 0.496094 0 L 164.503906 0 L 164.503906 82.003906 L 0.496094 82.003906 Z M 0.496094 0"/><path d="M 0.496094 0 L 164.503906 0 L 164.503906 82.003906 L 0.496094 82.003906 Z M 0.496094 0"/></g><g clip-path="url(#b)"><path fill="#000100" d="M 54.203125 6.902344 L 36.296875 6.902344 L 0.496094 42.863281 L 0.496094 57.417969 L 36.296875 57.417969 L 36.296875 75.398438 L 54.203125 75.398438 L 54.203125 42.863281 L 18.398438 42.863281 Z M 54.203125 6.902344"/></g><g clip-path="url(#c)"><path fill="#000100" d="M 61.875 24.882812 L 79.777344 6.902344 L 61.875 6.902344 Z M 61.875 24.882812"/></g><g clip-path="url(#d)"><path fill="#000100" d="M 97.679688 24.882812 L 97.679688 6.902344 L 79.777344 6.902344 L 79.777344 24.882812 L 61.875 42.863281 L 61.875 60.847656 L 79.777344 60.847656 L 79.777344 42.863281 Z M 97.679688 24.882812"/></g><path fill="#000100" d="M 97.679688 42.863281 L 79.777344 60.847656 L 97.679688 60.847656 Z M 97.679688 42.863281"/><path fill="#1D1D1B" d="M 114.976562 42.914062 L 116.386719 42.914062 L 116.386719 60.792969 L 114.976562 60.792969 Z M 114.976562 42.914062"/><path d="M 127.511719 46.65625 C 128.417969 46.65625 129.304688 46.742188 130.011719 47.507812 C 130.503906 48.058594 130.730469 48.699219 130.691406 49.4375 C 130.71875 50.238281 130.460938 50.929688 129.917969 51.511719 C 129.488281 51.90625 128.988281 52.160156 128.417969 52.269531 L 130.851562 56.117188 L 128.300781 56.117188 L 126.027344 52.386719 L 125.585938 56.117188 L 123.394531 56.117188 L 124.554688 46.644531 Z M 126.199219 50.957031 L 126.738281 50.957031 C 127.195312 50.984375 127.621094 50.871094 128.007812 50.617188 C 128.355469 50.332031 128.515625 49.960938 128.488281 49.507812 C 128.519531 49.117188 128.375 48.808594 128.046875 48.589844 C 127.671875 48.398438 127.277344 48.324219 126.859375 48.359375 L 126.535156 48.359375 Z M 126.199219 50.957031"/><path d="M 141.066406 47.675781 C 141.503906 48.125 141.835938 48.640625 142.066406 49.226562 C 142.292969 49.808594 142.398438 50.414062 142.382812 51.042969 C 142.394531 51.75 142.273438 52.4375 142.019531 53.101562 C 141.769531 53.761719 141.40625 54.355469 140.925781 54.878906 C 140.40625 55.382812 139.808594 55.765625 139.128906 56.019531 C 138.449219 56.273438 137.75 56.378906 137.023438 56.339844 C 136.359375 56.378906 135.710938 56.28125 135.085938 56.046875 C 134.460938 55.8125 133.910156 55.457031 133.433594 54.988281 C 132.539062 54.066406 132.101562 52.964844 132.117188 51.679688 C 132.101562 50.964844 132.230469 50.273438 132.5 49.609375 C 132.769531 48.945312 133.164062 48.367188 133.675781 47.867188 C 134.199219 47.378906 134.800781 47.015625 135.46875 46.765625 C 136.140625 46.519531 136.832031 46.40625 137.546875 46.433594 C 139.359375 46.441406 140.445312 47.082031 141.066406 47.675781 Z M 135.214844 49.367188 C 134.636719 49.976562 134.34375 50.699219 134.335938 51.539062 C 134.367188 52.113281 134.546875 52.632812 134.878906 53.097656 C 135.210938 53.566406 135.640625 53.902344 136.171875 54.117188 C 136.703125 54.328125 137.25 54.378906 137.808594 54.269531 C 138.371094 54.160156 138.855469 53.910156 139.269531 53.511719 C 139.875 52.855469 140.167969 52.078125 140.148438 51.183594 C 140.191406 50.410156 139.945312 49.746094 139.414062 49.1875 C 138.867188 48.667969 138.214844 48.425781 137.464844 48.453125 C 136.578125 48.417969 135.828125 48.722656 135.214844 49.367188 Z M 135.214844 49.367188"/><path d="M 143.019531 56.125 L 145.707031 46.65625 L 147.5 46.65625 L 149.113281 52.320312 L 152.183594 46.65625 L 154.035156 46.65625 L 154.378906 56.125 L 152.183594 56.125 L 152.128906 50.472656 L 149.121094 56.125 L 148.300781 56.125 L 146.644531 50.472656 L 145.210938 56.125 Z M 143.019531 56.125"/><g clip-path="url(#e)"><path d="M 161.789062 54.335938 L 158.222656 54.335938 L 157.347656 56.125 L 155 56.125 L 159.976562 46.65625 L 161.980469 46.65625 L 164.515625 56.125 L 162.28125 56.125 Z M 161.390625 52.664062 L 160.625 49.324219 L 159.042969 52.664062 Z M 161.390625 52.664062"/></g><path d="M 126.738281 63.691406 L 125.800781 71.316406 L 128.742188 71.316406 L 128.515625 73.164062 L 123.398438 73.164062 L 124.558594 63.691406 Z M 126.738281 63.691406"/><path d="M 136.757812 66.828125 L 136.363281 70.25 C 136.34375 71.140625 136.039062 71.910156 135.441406 72.566406 C 134.726562 73.171875 133.902344 73.441406 132.96875 73.375 C 132.332031 73.375 131.214844 73.332031 130.507812 72.652344 C 130.042969 72.179688 129.816406 71.613281 129.828125 70.945312 C 129.835938 70.652344 129.859375 70.359375 129.898438 70.066406 L 130.28125 66.839844 L 132.320312 66.839844 L 131.949219 69.996094 C 131.90625 70.390625 131.878906 70.53125 131.878906 70.691406 C 131.867188 70.964844 131.957031 71.195312 132.148438 71.386719 C 132.394531 71.570312 132.671875 71.660156 132.980469 71.65625 C 133.339844 71.664062 133.652344 71.546875 133.914062 71.300781 C 134.179688 70.964844 134.316406 70.585938 134.324219 70.164062 L 134.722656 66.839844 Z M 136.757812 66.828125"/><path d="M 140.527344 66.828125 L 139.753906 73.164062 L 137.71875 73.164062 L 138.492188 66.828125 Z M 139.777344 62.9375 C 139.9375 62.9375 140.089844 62.96875 140.234375 63.027344 C 140.378906 63.089844 140.507812 63.175781 140.621094 63.285156 C 140.734375 63.398438 140.820312 63.527344 140.878906 63.671875 C 140.941406 63.820312 140.972656 63.972656 140.972656 64.128906 C 140.972656 64.289062 140.941406 64.441406 140.882812 64.585938 C 140.820312 64.734375 140.734375 64.863281 140.625 64.976562 C 140.511719 65.085938 140.386719 65.171875 140.238281 65.234375 C 140.09375 65.296875 139.941406 65.324219 139.785156 65.324219 C 139.625 65.328125 139.476562 65.296875 139.328125 65.234375 C 139.183594 65.175781 139.054688 65.089844 138.941406 64.976562 C 138.832031 64.863281 138.746094 64.734375 138.683594 64.589844 C 138.625 64.441406 138.59375 64.289062 138.59375 64.132812 C 138.59375 63.972656 138.621094 63.820312 138.679688 63.675781 C 138.742188 63.527344 138.824219 63.398438 138.9375 63.285156 C 139.046875 63.171875 139.175781 63.085938 139.324219 63.027344 C 139.46875 62.96875 139.621094 62.9375 139.777344 62.9375 Z M 139.777344 62.9375"/><path d="M 145.886719 68.519531 C 145.539062 68.238281 145.144531 68.09375 144.699219 68.078125 C 144.476562 68.066406 144.273438 68.125 144.089844 68.25 C 144 68.335938 143.953125 68.441406 143.949219 68.5625 C 143.949219 68.714844 144.015625 68.828125 144.144531 68.902344 C 144.304688 68.980469 144.46875 69.035156 144.640625 69.074219 L 145.105469 69.203125 C 145.527344 69.296875 145.890625 69.496094 146.199219 69.796875 C 146.53125 70.128906 146.6875 70.53125 146.664062 71.003906 C 146.683594 71.609375 146.484375 72.128906 146.066406 72.566406 C 145.4375 73.144531 144.699219 73.40625 143.847656 73.359375 C 143.277344 73.378906 142.730469 73.273438 142.207031 73.046875 C 141.847656 72.882812 141.523438 72.664062 141.234375 72.394531 L 142.113281 71.015625 C 142.34375 71.234375 142.601562 71.410156 142.886719 71.546875 C 143.167969 71.667969 143.460938 71.734375 143.765625 71.742188 C 143.984375 71.753906 144.191406 71.707031 144.386719 71.601562 C 144.5625 71.519531 144.648438 71.382812 144.640625 71.1875 C 144.652344 71.019531 144.585938 70.886719 144.445312 70.792969 C 144.285156 70.710938 144.121094 70.652344 143.949219 70.605469 L 143.511719 70.464844 C 143.109375 70.363281 142.757812 70.171875 142.449219 69.898438 C 142.148438 69.578125 142.003906 69.199219 142.011719 68.761719 C 142.007812 68.1875 142.203125 67.695312 142.601562 67.285156 C 143.207031 66.785156 143.898438 66.554688 144.679688 66.601562 C 145.441406 66.585938 146.128906 66.800781 146.746094 67.246094 Z M 145.886719 68.519531"/><path d="M 152.019531 68.519531 C 151.671875 68.238281 151.277344 68.089844 150.835938 68.078125 C 150.613281 68.066406 150.410156 68.125 150.222656 68.25 C 150.132812 68.335938 150.085938 68.441406 150.085938 68.5625 C 150.082031 68.714844 150.148438 68.828125 150.28125 68.902344 C 150.441406 68.980469 150.605469 69.035156 150.777344 69.074219 L 151.242188 69.203125 C 151.660156 69.296875 152.023438 69.492188 152.328125 69.796875 C 152.664062 70.128906 152.820312 70.53125 152.796875 71.003906 C 152.816406 71.609375 152.621094 72.128906 152.203125 72.566406 C 151.574219 73.144531 150.832031 73.40625 149.984375 73.359375 C 149.414062 73.378906 148.867188 73.273438 148.34375 73.046875 C 147.984375 72.882812 147.660156 72.667969 147.371094 72.394531 L 148.246094 71.015625 C 148.480469 71.234375 148.738281 71.410156 149.027344 71.546875 C 149.308594 71.667969 149.597656 71.734375 149.90625 71.742188 C 150.125 71.753906 150.328125 71.707031 150.523438 71.601562 C 150.699219 71.519531 150.785156 71.382812 150.777344 71.1875 C 150.789062 71.019531 150.722656 70.886719 150.578125 70.792969 C 150.421875 70.710938 150.257812 70.648438 150.085938 70.605469 L 149.644531 70.464844 C 149.246094 70.363281 148.894531 70.171875 148.585938 69.898438 C 148.285156 69.578125 148.140625 69.199219 148.144531 68.761719 C 148.140625 68.1875 148.339844 67.695312 148.738281 67.285156 C 149.339844 66.78125 150.035156 66.554688 150.816406 66.601562 C 151.578125 66.585938 152.273438 66.796875 152.894531 67.242188 Z M 152.019531 68.519531"/></svg>