<svg xmlns="http://www.w3.org/2000/svg" width="165" viewBox="0 0 165 82.5" height="82.5" version="1.0"><defs><clipPath id="a"><path d="M 0.496094 0 L 164.503906 0 L 164.503906 82.003906 L 0.496094 82.003906 Z M 0.496094 0"/></clipPath><clipPath id="b"><path d="M 82 0.0117188 L 111.941406 0.0117188 L 111.941406 61.101562 L 82 61.101562 Z M 82 0.0117188"/></clipPath><clipPath id="c"><path d="M 53.699219 0.0117188 L 83 0.0117188 L 83 61.101562 L 53.699219 61.101562 Z M 53.699219 0.0117188"/></clipPath><clipPath id="d"><path d="M 50.371094 70 L 59 70 L 59 80 L 50.371094 80 Z M 50.371094 70"/></clipPath><clipPath id="e"><path d="M 108 70 L 114.480469 70 L 114.480469 80 L 108 80 Z M 108 70"/></clipPath></defs><g clip-path="url(#a)" fill="#FFF"><path d="M 0.496094 0 L 164.503906 0 L 164.503906 82.003906 L 0.496094 82.003906 Z M 0.496094 0"/><path d="M 0.496094 0 L 164.503906 0 L 164.503906 82.003906 L 0.496094 82.003906 Z M 0.496094 0"/></g><g clip-path="url(#b)"><path fill="#A6120D" d="M 111.855469 10.136719 L 82.457031 0.0859375 L 82.457031 61.066406 L 107.167969 48.066406 Z M 111.855469 10.136719"/></g><g clip-path="url(#c)"><path fill="#DD1B16" d="M 53.730469 10.425781 L 58.128906 48.234375 L 82.457031 61.066406 L 82.457031 0.0859375 Z M 53.730469 10.425781"/></g><path fill="#333" d="M 90.574219 33.597656 L 82.445312 37.203125 L 73.871094 37.203125 L 69.828125 46.765625 L 62.339844 46.902344 L 82.429688 4.503906 Z M 89.78125 31.78125 L 82.492188 18.097656 L 76.511719 31.550781 L 82.445312 31.550781 Z M 89.78125 31.78125"/><path fill="#1A1A1A" d="M 82.429688 4.503906 L 82.492188 18.097656 L 89.28125 31.566406 L 82.445312 31.566406 L 82.429688 37.203125 L 91.871094 37.21875 L 96.28125 46.902344 L 103.453125 47.023438 Z M 82.429688 4.503906"/><path fill="#FFF" d="M 101.183594 25.585938 C 100.695312 24.589844 100.027344 23.792969 99.203125 23.195312 C 98.382812 22.597656 97.46875 22.277344 96.480469 22.214844 C 95.492188 22.152344 94.515625 22.367188 93.542969 22.84375 L 90.011719 24.589844 L 95.382812 35.65625 L 98.992188 33.878906 C 99.933594 33.40625 100.695312 32.761719 101.242188 31.917969 C 101.792969 31.089844 102.09375 30.15625 102.125 29.144531 C 102.15625 28.132812 101.929688 27.121094 101.441406 26.109375 Z M 99.296875 30.15625 C 99.160156 30.90625 98.703125 31.457031 97.941406 31.839844 L 97.027344 32.300781 L 93.648438 25.34375 L 94.53125 24.898438 C 95.308594 24.515625 96.039062 24.5 96.707031 24.835938 C 97.378906 25.171875 97.972656 25.878906 98.488281 26.953125 L 98.71875 27.425781 C 99.25 28.5 99.433594 29.417969 99.296875 30.15625 Z M 99.296875 30.15625"/><path fill="#FFF" d="M 104.941406 25.113281 L 109.109375 23.058594 L 108.152344 21.082031 L 103.984375 23.132812 L 102.855469 20.804688 L 107.785156 18.367188 L 106.78125 16.3125 L 99.203125 20.039062 L 104.574219 31.105469 L 109.550781 28.652344 L 109.886719 25.953125 L 106.234375 27.75 Z M 104.941406 25.113281"/><g clip-path="url(#d)"><path fill="#111" d="M 53.613281 74.605469 L 53.398438 75.40625 L 55.25 75.40625 L 55.050781 74.605469 C 54.925781 74.167969 54.804688 73.707031 54.691406 73.21875 C 54.574219 72.726562 54.460938 72.257812 54.34375 71.804688 L 54.289062 71.804688 C 54.183594 72.265625 54.074219 72.742188 53.957031 73.230469 C 53.851562 73.710938 53.734375 74.167969 53.613281 74.605469 Z M 50.46875 79.007812 L 53.1875 70.308594 L 55.542969 70.308594 L 58.257812 79.007812 L 56.179688 79.007812 L 55.648438 76.941406 L 53 76.941406 L 52.46875 79.007812 Z M 50.46875 79.007812"/></g><path fill="#111" d="M 59.046875 79.007812 L 59.046875 72.390625 L 60.644531 72.390625 L 60.777344 73.230469 L 60.832031 73.230469 C 61.113281 72.964844 61.425781 72.734375 61.761719 72.539062 C 62.101562 72.332031 62.496094 72.230469 62.949219 72.230469 C 63.667969 72.230469 64.183594 72.464844 64.503906 72.9375 C 64.832031 73.410156 64.996094 74.0625 64.996094 74.898438 L 64.996094 79.007812 L 63.039062 79.007812 L 63.039062 75.152344 C 63.039062 74.671875 62.972656 74.34375 62.839844 74.164062 C 62.714844 73.988281 62.511719 73.898438 62.230469 73.898438 C 61.980469 73.898438 61.765625 73.957031 61.589844 74.070312 C 61.410156 74.179688 61.214844 74.335938 61.003906 74.539062 L 61.003906 79.007812 Z M 59.046875 79.007812"/><path fill="#111" d="M 69.023438 81.824219 C 68.632812 81.824219 68.265625 81.789062 67.929688 81.714844 C 67.601562 81.652344 67.308594 81.554688 67.050781 81.421875 C 66.804688 81.289062 66.609375 81.117188 66.464844 80.902344 C 66.324219 80.6875 66.253906 80.4375 66.253906 80.140625 C 66.253906 79.609375 66.566406 79.164062 67.199219 78.808594 L 67.199219 78.753906 C 67.019531 78.640625 66.875 78.492188 66.757812 78.3125 C 66.644531 78.136719 66.585938 77.910156 66.585938 77.632812 C 66.585938 77.394531 66.65625 77.167969 66.796875 76.953125 C 66.941406 76.730469 67.117188 76.542969 67.332031 76.394531 L 67.332031 76.339844 C 67.101562 76.179688 66.890625 75.953125 66.707031 75.660156 C 66.527344 75.355469 66.4375 75.011719 66.4375 74.617188 C 66.4375 74.21875 66.515625 73.871094 66.664062 73.578125 C 66.816406 73.277344 67.015625 73.027344 67.265625 72.832031 C 67.523438 72.625 67.816406 72.476562 68.144531 72.378906 C 68.472656 72.28125 68.8125 72.230469 69.167969 72.230469 C 69.558594 72.230469 69.898438 72.285156 70.191406 72.390625 L 72.601562 72.390625 L 72.601562 73.816406 L 71.550781 73.816406 C 71.613281 73.914062 71.660156 74.039062 71.699219 74.191406 C 71.742188 74.34375 71.765625 74.507812 71.765625 74.683594 C 71.765625 75.066406 71.699219 75.402344 71.5625 75.6875 C 71.429688 75.960938 71.246094 76.191406 71.003906 76.378906 C 70.773438 76.558594 70.5 76.691406 70.179688 76.78125 C 69.871094 76.867188 69.53125 76.914062 69.167969 76.914062 C 68.910156 76.914062 68.644531 76.867188 68.371094 76.78125 C 68.28125 76.851562 68.21875 76.921875 68.183594 76.992188 C 68.148438 77.066406 68.128906 77.15625 68.128906 77.273438 C 68.128906 77.441406 68.199219 77.566406 68.34375 77.648438 C 68.492188 77.726562 68.753906 77.765625 69.128906 77.765625 L 70.191406 77.765625 C 71.007812 77.765625 71.632812 77.902344 72.058594 78.167969 C 72.492188 78.425781 72.710938 78.851562 72.710938 79.449219 C 72.710938 79.796875 72.621094 80.109375 72.441406 80.394531 C 72.273438 80.6875 72.03125 80.9375 71.710938 81.144531 C 71.390625 81.355469 71.003906 81.519531 70.550781 81.636719 C 70.101562 81.761719 69.589844 81.824219 69.023438 81.824219 Z M 69.167969 75.726562 C 69.425781 75.726562 69.636719 75.636719 69.808594 75.460938 C 69.984375 75.273438 70.074219 74.992188 70.074219 74.617188 C 70.074219 74.273438 69.984375 74.007812 69.808594 73.832031 C 69.636719 73.644531 69.425781 73.550781 69.167969 73.550781 C 68.910156 73.550781 68.691406 73.640625 68.515625 73.816406 C 68.347656 73.996094 68.261719 74.261719 68.261719 74.617188 C 68.261719 74.992188 68.347656 75.273438 68.515625 75.460938 C 68.691406 75.636719 68.910156 75.726562 69.167969 75.726562 Z M 69.328125 80.597656 C 69.773438 80.597656 70.136719 80.515625 70.417969 80.355469 C 70.703125 80.203125 70.84375 80.011719 70.84375 79.78125 C 70.84375 79.578125 70.757812 79.4375 70.578125 79.367188 C 70.410156 79.296875 70.164062 79.261719 69.832031 79.261719 L 69.15625 79.261719 C 68.925781 79.261719 68.738281 79.253906 68.59375 79.234375 C 68.453125 79.226562 68.328125 79.207031 68.222656 79.179688 C 67.984375 79.394531 67.863281 79.613281 67.863281 79.835938 C 67.863281 80.085938 67.996094 80.269531 68.261719 80.394531 C 68.527344 80.527344 68.882812 80.597656 69.328125 80.597656 Z M 69.328125 80.597656"/><path fill="#111" d="M 75.761719 79.167969 C 75.042969 79.167969 74.519531 78.933594 74.1875 78.460938 C 73.871094 77.988281 73.710938 77.335938 73.710938 76.5 L 73.710938 72.390625 L 75.667969 72.390625 L 75.667969 76.246094 C 75.667969 76.726562 75.734375 77.054688 75.867188 77.234375 C 76 77.410156 76.207031 77.5 76.492188 77.5 C 76.742188 77.5 76.949219 77.441406 77.117188 77.328125 C 77.285156 77.210938 77.46875 77.023438 77.664062 76.765625 L 77.664062 72.390625 L 79.621094 72.390625 L 79.621094 79.007812 L 78.023438 79.007812 L 77.878906 78.085938 L 77.835938 78.085938 C 77.554688 78.425781 77.246094 78.691406 76.917969 78.886719 C 76.597656 79.074219 76.210938 79.167969 75.761719 79.167969 Z M 75.761719 79.167969"/><path fill="#111" d="M 83.140625 79.167969 C 82.804688 79.167969 82.519531 79.113281 82.289062 79.007812 C 82.058594 78.902344 81.871094 78.753906 81.730469 78.566406 C 81.597656 78.371094 81.5 78.140625 81.4375 77.875 C 81.375 77.597656 81.34375 77.292969 81.34375 76.953125 L 81.34375 69.65625 L 83.300781 69.65625 L 83.300781 77.035156 C 83.300781 77.238281 83.335938 77.378906 83.40625 77.460938 C 83.488281 77.539062 83.566406 77.582031 83.644531 77.582031 C 83.691406 77.582031 83.726562 77.582031 83.753906 77.582031 C 83.789062 77.582031 83.832031 77.570312 83.886719 77.554688 L 84.125 79.007812 C 84.019531 79.050781 83.882812 79.089844 83.710938 79.113281 C 83.554688 79.152344 83.363281 79.167969 83.140625 79.167969 Z M 83.140625 79.167969"/><path fill="#111" d="M 86.816406 79.167969 C 86.515625 79.167969 86.238281 79.113281 85.992188 79.007812 C 85.75 78.910156 85.546875 78.773438 85.378906 78.59375 C 85.210938 78.40625 85.078125 78.195312 84.980469 77.953125 C 84.890625 77.714844 84.847656 77.453125 84.847656 77.167969 C 84.847656 76.472656 85.140625 75.929688 85.726562 75.539062 C 86.308594 75.148438 87.253906 74.886719 88.558594 74.753906 C 88.542969 74.457031 88.453125 74.226562 88.292969 74.058594 C 88.144531 73.878906 87.886719 73.792969 87.523438 73.792969 C 87.238281 73.792969 86.953125 73.84375 86.671875 73.953125 C 86.394531 74.058594 86.097656 74.203125 85.777344 74.390625 L 85.074219 73.097656 C 85.5 72.839844 85.941406 72.628906 86.402344 72.46875 C 86.875 72.308594 87.371094 72.230469 87.894531 72.230469 C 88.746094 72.230469 89.394531 72.476562 89.839844 72.964844 C 90.289062 73.445312 90.515625 74.195312 90.515625 75.21875 L 90.515625 79.007812 L 88.917969 79.007812 L 88.785156 78.328125 L 88.734375 78.328125 C 88.449219 78.578125 88.152344 78.78125 87.839844 78.941406 C 87.53125 79.09375 87.1875 79.167969 86.816406 79.167969 Z M 87.480469 77.648438 C 87.703125 77.648438 87.894531 77.597656 88.054688 77.5 C 88.214844 77.402344 88.382812 77.265625 88.558594 77.085938 L 88.558594 75.925781 C 87.867188 76.023438 87.390625 76.167969 87.121094 76.351562 C 86.855469 76.539062 86.722656 76.761719 86.722656 77.019531 C 86.722656 77.234375 86.789062 77.394531 86.921875 77.5 C 87.066406 77.597656 87.25 77.648438 87.480469 77.648438 Z M 87.480469 77.648438"/><path fill="#111" d="M 92.171875 79.007812 L 92.171875 72.390625 L 93.769531 72.390625 L 93.902344 73.550781 L 93.957031 73.550781 C 94.195312 73.097656 94.484375 72.765625 94.820312 72.550781 C 95.160156 72.335938 95.496094 72.230469 95.832031 72.230469 C 96.019531 72.230469 96.171875 72.242188 96.285156 72.269531 C 96.410156 72.289062 96.523438 72.320312 96.617188 72.363281 L 96.300781 74.058594 C 96.175781 74.023438 96.058594 73.996094 95.953125 73.976562 C 95.847656 73.960938 95.722656 73.953125 95.582031 73.953125 C 95.332031 73.953125 95.070312 74.039062 94.796875 74.21875 C 94.527344 74.394531 94.308594 74.710938 94.128906 75.164062 L 94.128906 79.007812 Z M 92.171875 79.007812"/><path fill="#111" d="M 97.4375 79.167969 C 97.101562 79.167969 96.816406 79.050781 96.585938 78.820312 C 96.363281 78.582031 96.253906 78.289062 96.253906 77.941406 C 96.253906 77.585938 96.363281 77.292969 96.585938 77.058594 C 96.816406 76.820312 97.101562 76.699219 97.4375 76.699219 C 97.777344 76.699219 98.054688 76.820312 98.277344 77.058594 C 98.507812 77.292969 98.625 77.585938 98.625 77.941406 C 98.625 78.289062 98.507812 78.582031 98.277344 78.820312 C 98.054688 79.050781 97.777344 79.167969 97.4375 79.167969 Z M 97.4375 79.167969"/><path fill="#111" d="M 100.457031 79.007812 L 100.457031 70.308594 L 102.90625 70.308594 C 103.574219 70.308594 104.171875 70.394531 104.703125 70.5625 C 105.238281 70.730469 105.695312 70.992188 106.074219 71.351562 C 106.457031 71.695312 106.75 72.140625 106.953125 72.683594 C 107.160156 73.226562 107.261719 73.871094 107.261719 74.617188 C 107.261719 75.367188 107.160156 76.015625 106.953125 76.566406 C 106.75 77.117188 106.460938 77.574219 106.089844 77.941406 C 105.714844 78.296875 105.269531 78.5625 104.746094 78.742188 C 104.230469 78.917969 103.652344 79.007812 103.015625 79.007812 Z M 102.414062 77.421875 L 102.789062 77.421875 C 103.160156 77.421875 103.496094 77.371094 103.800781 77.273438 C 104.101562 77.175781 104.359375 77.019531 104.570312 76.804688 C 104.785156 76.585938 104.949219 76.296875 105.0625 75.9375 C 105.1875 75.582031 105.25 75.144531 105.25 74.617188 C 105.25 74.101562 105.1875 73.671875 105.0625 73.324219 C 104.949219 72.96875 104.785156 72.6875 104.570312 72.484375 C 104.359375 72.269531 104.101562 72.121094 103.800781 72.03125 C 103.496094 71.941406 103.160156 71.898438 102.789062 71.898438 L 102.414062 71.898438 Z M 102.414062 77.421875"/><g clip-path="url(#e)"><path fill="#111" d="M 108.910156 79.007812 L 108.910156 70.308594 L 114.339844 70.308594 L 114.339844 71.964844 L 110.867188 71.964844 L 110.867188 73.710938 L 113.820312 73.710938 L 113.820312 75.351562 L 110.867188 75.351562 L 110.867188 77.355469 L 114.472656 77.355469 L 114.472656 79.007812 Z M 108.910156 79.007812"/></g></svg>