<svg xmlns="http://www.w3.org/2000/svg" width="165" viewBox="0 0 165 82.5" height="82.5" version="1.0"><defs><clipPath id="a"><path d="M 0.496094 0 L 164.503906 0 L 164.503906 82.003906 L 0.496094 82.003906 Z M 0.496094 0"/></clipPath><clipPath id="b"><path d="M 43.957031 0 L 120.742188 0 L 120.742188 82 L 43.957031 82 Z M 43.957031 0"/></clipPath><clipPath id="c"><path d="M 82.128906 18 L 105 18 L 105 56 L 82.128906 56 Z M 82.128906 18"/></clipPath><clipPath id="d"><path d="M 82.128906 54 L 106 54 L 106 56 L 82.128906 56 Z M 82.128906 54"/></clipPath></defs><g clip-path="url(#a)" fill="#FFF"><path d="M 0.496094 0 L 164.503906 0 L 164.503906 260.917969 L 0.496094 260.917969 Z M 0.496094 0"/><path d="M 0.496094 0 L 164.503906 0 L 164.503906 82.003906 L 0.496094 82.003906 Z M 0.496094 0"/><path d="M 0.496094 0 L 164.503906 0 L 164.503906 82.003906 L 0.496094 82.003906 Z M 0.496094 0"/></g><g clip-path="url(#b)"><path fill="#B3B3B3" d="M 50.007812 64.117188 L 82.269531 81.988281 L 114.699219 63.875 L 120.742188 13.347656 L 82.226562 0.0117188 L 43.957031 13.585938 Z M 50.007812 64.117188"/></g><path fill="#A6120D" d="M 82.140625 77.71875 L 111.292969 61.460938 L 116.925781 16.265625 L 82.140625 4.3125 Z M 82.140625 77.71875"/><path fill="#DD1B16" d="M 82.136719 77.71875 L 82.136719 4.308594 L 48.253906 16.480469 L 53.433594 61.675781 Z M 82.136719 77.71875"/><path fill="#F2F2F2" d="M 83.15625 18.503906 C 83.074219 18.511719 83.03125 18.65625 82.945312 18.703125 L 82.921875 18.667969 C 82.820312 18.777344 82.703125 18.855469 82.570312 18.914062 C 82.507812 18.957031 82.417969 18.972656 82.433594 19.089844 C 82.496094 19.109375 82.527344 19.140625 82.460938 19.207031 C 82.40625 19.234375 82.355469 19.261719 82.289062 19.28125 C 82.273438 19.191406 82.257812 19.101562 82.253906 19.007812 C 82.246094 18.996094 82.234375 18.988281 82.21875 18.980469 L 82.21875 18.953125 C 82.242188 18.9375 82.277344 18.925781 82.277344 18.894531 C 82.277344 18.859375 82.234375 18.847656 82.207031 18.851562 C 82.207031 18.863281 82.199219 18.863281 82.191406 18.863281 L 82.191406 18.851562 C 82.199219 18.84375 82.203125 18.835938 82.203125 18.824219 C 82.203125 18.8125 82.191406 18.800781 82.179688 18.796875 L 82.179688 18.765625 L 82.195312 18.765625 L 82.195312 18.753906 L 82.179688 18.753906 L 82.179688 18.738281 L 82.167969 18.738281 L 82.167969 18.753906 L 82.148438 18.753906 L 82.148438 18.761719 L 82.167969 18.761719 L 82.167969 18.792969 C 82.152344 18.792969 82.140625 18.808594 82.140625 18.824219 C 82.140625 18.832031 82.152344 18.84375 82.15625 18.847656 L 82.15625 18.859375 C 82.148438 18.859375 82.136719 18.859375 82.132812 18.847656 C 82.082031 18.847656 82.074219 18.875 82.074219 18.894531 C 82.074219 18.914062 82.097656 18.9375 82.121094 18.949219 L 82.121094 18.980469 C 82.09375 18.992188 82.070312 19.003906 82.050781 19.023438 C 82.039062 19.050781 82.050781 19.082031 82.0625 19.113281 C 82.0625 19.101562 82.070312 19.09375 82.074219 19.085938 C 82.089844 19.074219 82.113281 19.070312 82.128906 19.097656 C 82.128906 19.171875 82.152344 19.261719 82.09375 19.3125 C 82.019531 19.289062 81.945312 19.265625 81.90625 19.183594 C 82 19.097656 81.90625 19.0625 81.871094 19.011719 C 81.671875 18.847656 81.449219 18.8125 81.277344 18.640625 L 81.265625 18.667969 C 81.214844 18.625 81.128906 18.539062 81.101562 18.554688 C 81.078125 18.574219 81.128906 18.640625 81.15625 18.683594 C 81.082031 18.761719 81.183594 18.78125 81.210938 18.828125 C 81.15625 18.882812 81.222656 18.921875 81.261719 18.964844 C 81.242188 19.007812 81.234375 19.054688 81.335938 19.085938 C 81.296875 19.148438 81.355469 19.171875 81.40625 19.199219 C 81.390625 19.25 81.417969 19.269531 81.457031 19.28125 C 81.46875 19.308594 81.472656 19.355469 81.519531 19.335938 C 81.527344 19.367188 81.542969 19.394531 81.589844 19.378906 C 81.601562 19.441406 81.632812 19.449219 81.6875 19.417969 C 81.695312 19.457031 81.703125 19.480469 81.730469 19.472656 C 81.730469 19.515625 81.671875 19.589844 81.75 19.589844 C 81.757812 19.632812 81.75 19.699219 81.808594 19.65625 C 81.824219 19.683594 81.839844 19.738281 81.882812 19.675781 C 81.898438 19.699219 81.917969 19.746094 81.941406 19.6875 C 81.964844 19.703125 81.957031 19.769531 82.019531 19.703125 C 82.035156 19.703125 82.03125 19.792969 82.03125 19.792969 L 82.054688 19.785156 L 82.054688 19.832031 C 81.949219 19.847656 81.945312 19.910156 81.953125 19.980469 C 81.78125 20.085938 81.667969 20.273438 81.667969 20.488281 C 81.667969 20.804688 81.917969 21.0625 82.226562 21.078125 L 82.226562 21.132812 C 82.171875 21.152344 82.15625 21.15625 82.15625 21.1875 C 82.15625 21.21875 82.179688 21.222656 82.207031 21.242188 L 82.222656 21.300781 L 82.238281 21.480469 C 82.199219 21.507812 82.207031 21.535156 82.246094 21.5625 L 82.265625 22.054688 L 82.132812 22.160156 C 82.085938 22.210938 82.039062 22.265625 81.988281 22.304688 C 81.78125 22.140625 81.648438 22.28125 81.585938 22.375 C 81.523438 22.472656 81.507812 22.933594 81.535156 23.21875 C 81.605469 23.667969 81.632812 24.121094 81.664062 24.574219 C 81.546875 24.65625 81.179688 24.851562 81.0625 24.894531 L 81.0625 24.804688 L 81.136719 24.609375 L 81.128906 24.46875 C 81.054688 24.410156 81.089844 24.398438 81.117188 24.382812 C 81.160156 24.292969 81.105469 24.203125 81.042969 24.113281 L 80.980469 24.070312 C 80.875 24.03125 80.757812 23.933594 80.695312 24.152344 C 80.6875 24.105469 80.628906 24.082031 80.578125 24.058594 C 80.570312 24.113281 80.539062 24.171875 80.617188 24.21875 L 80.605469 24.277344 C 80.515625 24.375 80.535156 24.433594 80.535156 24.496094 C 80.535156 24.582031 80.542969 24.632812 80.542969 24.6875 C 80.519531 24.835938 80.492188 24.984375 80.472656 25.136719 C 79.941406 25.308594 79.015625 25.417969 78.835938 25.335938 L 78.84375 25.304688 L 78.808594 25.292969 C 78.714844 25.023438 78.664062 24.746094 78.511719 24.484375 C 78.5 24.398438 78.433594 24.316406 78.378906 24.230469 C 78.25 24.152344 78.136719 23.996094 77.992188 23.996094 C 77.925781 23.996094 77.851562 24.03125 77.765625 24.128906 L 77.6875 24.167969 C 77.605469 24.136719 77.597656 24.160156 77.574219 24.179688 L 77.523438 24.164062 L 77.523438 24.207031 C 77.59375 24.207031 77.609375 24.253906 77.636719 24.289062 C 77.652344 24.339844 77.648438 24.386719 77.636719 24.429688 C 77.59375 24.476562 77.5625 24.519531 77.566406 24.535156 C 77.578125 24.5625 77.578125 24.59375 77.574219 24.621094 L 77.640625 24.707031 L 77.640625 24.84375 C 77.671875 24.957031 77.695312 25.070312 77.601562 25.144531 C 77.621094 25.1875 77.640625 25.230469 77.667969 25.289062 C 77.691406 25.308594 77.695312 25.34375 77.703125 25.371094 C 77.75 25.433594 77.800781 25.414062 77.851562 25.390625 C 77.851562 25.390625 78.035156 25.449219 78.046875 25.449219 C 78.058594 25.449219 78.035156 25.523438 78.035156 25.523438 L 78.046875 25.523438 L 78.035156 25.613281 C 77.960938 25.691406 77.898438 25.769531 77.871094 25.871094 C 77.816406 25.953125 77.828125 26.007812 77.832031 26.0625 L 77.882812 26.308594 C 77.921875 26.363281 77.914062 26.484375 77.921875 26.546875 C 77.980469 26.746094 77.84375 26.777344 77.738281 26.835938 L 77.710938 27 C 77.761719 27.183594 77.753906 27.398438 77.769531 27.601562 C 77.785156 27.683594 77.796875 27.765625 77.769531 27.859375 C 77.824219 28.058594 78.003906 28.152344 78.066406 28.007812 C 78.132812 27.867188 78.023438 27.777344 77.980469 27.691406 C 77.941406 27.675781 77.945312 27.621094 77.953125 27.582031 C 77.898438 27.285156 77.90625 27.148438 77.972656 27.089844 C 77.984375 27.054688 77.988281 27.019531 77.988281 26.976562 C 78.066406 26.996094 78.113281 26.878906 78.160156 26.875 C 78.203125 26.867188 78.222656 26.917969 78.261719 26.910156 C 78.351562 26.867188 78.457031 26.957031 78.542969 26.878906 C 78.519531 26.839844 78.460938 26.796875 78.476562 26.757812 L 78.636719 26.78125 C 78.660156 26.898438 78.726562 26.980469 78.785156 27.066406 C 78.785156 27.066406 78.808594 27.355469 78.792969 27.367188 C 78.726562 27.433594 78.804688 27.707031 78.804688 27.730469 C 78.832031 27.882812 78.804688 28.039062 78.785156 28.191406 L 78.792969 28.332031 C 78.765625 28.363281 78.734375 28.386719 78.707031 28.40625 C 78.699219 28.453125 78.691406 28.496094 78.679688 28.539062 L 76.945312 28.539062 L 76.945312 28.691406 L 76.414062 28.691406 L 76.414062 29.058594 L 76.042969 29.058594 L 76.042969 29.429688 L 61.449219 29.429688 L 62.3125 30.542969 L 62.3125 32.398438 L 61.941406 32.398438 L 61.941406 32.769531 L 60.457031 32.769531 L 59.714844 33.140625 L 60.457031 33.515625 L 60.457031 33.882812 L 61.941406 34.996094 L 61.941406 37.222656 L 61.199219 37.222656 L 61.941406 38.339844 L 61.941406 55.035156 L 64.910156 55.035156 L 64.910156 53.921875 L 64.539062 53.550781 L 64.539062 37.59375 L 64.910156 37.222656 L 68.25 37.222656 L 68.621094 37.59375 L 68.621094 53.550781 L 68.25 53.921875 L 68.269531 55.035156 L 71.589844 55.035156 L 71.589844 53.921875 L 71.214844 53.550781 L 71.214844 37.59375 L 71.589844 37.222656 L 75.671875 37.222656 L 76.042969 37.59375 L 76.042969 53.550781 L 75.671875 53.921875 L 75.671875 55.035156 L 79.011719 55.035156 L 79.011719 53.921875 L 78.640625 53.550781 L 78.640625 37.59375 L 79.011719 37.222656 L 85.6875 37.222656 L 86.058594 37.59375 L 86.058594 53.550781 L 85.6875 53.921875 L 85.6875 55.035156 L 89.03125 55.035156 L 89.03125 53.921875 L 88.660156 53.550781 L 88.660156 37.59375 L 89.03125 37.222656 L 93.109375 37.222656 L 93.484375 37.59375 L 93.484375 53.550781 L 93.109375 53.921875 L 93.109375 55.035156 L 96.449219 55.035156 L 96.449219 53.921875 L 96.078125 53.550781 L 96.078125 37.59375 L 96.449219 37.222656 L 99.789062 37.222656 L 100.164062 37.59375 L 100.164062 53.550781 L 99.789062 53.921875 L 99.789062 55.035156 L 102.757812 55.035156 L 102.757812 38.339844 L 103.5 37.222656 L 102.757812 37.222656 L 102.757812 34.996094 L 104.242188 33.882812 L 104.242188 33.515625 L 104.988281 33.140625 L 104.242188 32.769531 L 102.757812 32.769531 L 102.757812 32.398438 L 102.386719 32.398438 L 102.386719 30.542969 L 103.234375 29.429688 L 88.660156 29.429688 L 88.660156 29.058594 L 88.285156 29.058594 L 88.285156 28.691406 L 87.574219 28.691406 L 87.574219 28.539062 L 85.207031 28.539062 L 85.199219 26.785156 L 85.246094 26.785156 C 85.253906 26.867188 85.277344 26.945312 85.324219 27.019531 C 85.332031 27.175781 85.351562 27.332031 85.34375 27.492188 L 85.292969 27.617188 L 85.359375 27.78125 C 85.347656 27.824219 85.328125 27.855469 85.304688 27.875 L 85.339844 28.128906 C 85.386719 28.152344 85.441406 28.160156 85.472656 28.222656 L 85.449219 28.386719 C 85.511719 28.5 85.613281 28.53125 85.742188 28.496094 C 85.742188 28.425781 85.734375 28.390625 85.75 28.285156 L 85.703125 28.210938 L 85.710938 28.105469 C 85.761719 28.066406 85.804688 28.023438 85.789062 27.921875 C 85.789062 27.847656 85.765625 27.78125 85.730469 27.714844 C 85.714844 27.652344 85.71875 27.585938 85.71875 27.523438 C 85.777344 27.328125 85.808594 27.152344 85.835938 26.976562 C 85.878906 26.945312 85.921875 26.96875 85.960938 26.984375 C 85.960938 27.144531 86.09375 27.34375 85.929688 27.445312 L 85.875 27.609375 C 85.945312 27.863281 85.886719 28.117188 85.8125 28.367188 C 85.820312 28.433594 85.820312 28.507812 85.859375 28.539062 L 86.269531 28.539062 L 86.257812 28.457031 L 86.148438 28.34375 C 86.148438 28.246094 86.148438 28.148438 86.167969 28.046875 C 86.144531 27.757812 86.191406 27.625 86.230469 27.484375 C 86.390625 27.335938 86.378906 27.289062 86.410156 27.214844 C 86.5 27.15625 86.503906 27.046875 86.519531 26.945312 L 86.679688 26.851562 C 86.734375 26.824219 86.605469 27.015625 86.644531 27.042969 C 86.6875 27.070312 86.707031 26.980469 86.746094 26.964844 C 86.84375 26.976562 86.925781 27.011719 87.003906 27.050781 L 87.003906 27.402344 L 86.914062 27.578125 L 86.914062 27.71875 C 86.695312 27.878906 86.753906 28.09375 86.863281 28.105469 C 86.972656 28.117188 87.039062 28.105469 87.078125 27.871094 L 87.050781 27.777344 C 87.089844 27.742188 87.109375 27.691406 87.128906 27.640625 C 87.148438 27.46875 87.128906 27.292969 87.226562 27.132812 L 87.234375 26.945312 C 87.152344 26.867188 87.125 26.753906 87.089844 26.644531 C 87.113281 26.574219 87.109375 26.421875 87.113281 26.421875 C 87.132812 26.410156 87.167969 26.332031 87.15625 26.222656 C 87.179688 26.179688 87.207031 26.132812 87.15625 26.070312 C 87.167969 25.984375 87.113281 25.90625 87.066406 25.832031 C 87.03125 25.789062 87.023438 25.722656 87.011719 25.65625 L 86.992188 25.5 C 87.039062 25.433594 87.074219 25.371094 87.089844 25.304688 C 87.128906 25.292969 87.164062 25.265625 87.195312 25.1875 C 87.222656 25.160156 87.25 25.128906 87.277344 25.082031 C 87.265625 25.054688 87.234375 25.046875 87.25 24.980469 C 87.257812 24.871094 87.25 24.761719 87.28125 24.664062 L 87.332031 24.566406 C 87.378906 24.511719 87.382812 24.457031 87.3125 24.390625 L 87.320312 24.292969 L 87.359375 24.210938 C 87.40625 24.144531 87.484375 24.09375 87.441406 23.988281 C 87.390625 24.050781 87.339844 24.0625 87.289062 24.085938 C 87.253906 24.050781 87.238281 24 87.15625 24.003906 C 87.1875 23.9375 87.1875 23.914062 87.164062 23.914062 L 87.15625 23.914062 C 87.136719 23.914062 87.105469 23.933594 87.066406 23.953125 C 86.984375 23.964844 86.890625 23.953125 86.828125 24.027344 C 86.738281 24.042969 86.664062 24.089844 86.621094 24.222656 C 86.476562 24.316406 86.429688 24.414062 86.421875 24.515625 C 86.269531 24.710938 86.28125 24.949219 86.246094 25.175781 L 86.21875 25.335938 L 86.191406 25.429688 L 86.171875 25.472656 L 86.171875 25.480469 C 85.789062 25.542969 85.410156 25.523438 85.03125 25.496094 C 84.765625 25.378906 84.496094 25.246094 84.234375 25.152344 L 84.234375 25.140625 L 84.242188 25.140625 C 84.234375 25.082031 84.242188 25.03125 84.261719 24.988281 C 84.289062 24.960938 84.304688 24.921875 84.3125 24.875 C 84.3125 24.832031 84.3125 24.785156 84.328125 24.742188 C 84.292969 24.71875 84.269531 24.679688 84.25 24.632812 C 84.273438 24.558594 84.28125 24.476562 84.28125 24.390625 C 84.304688 24.308594 84.378906 24.234375 84.289062 24.132812 C 84.273438 24.085938 84.257812 24.039062 84.214844 24.003906 C 84.261719 23.882812 84.296875 23.777344 84.121094 23.902344 C 84.054688 23.816406 83.976562 23.789062 83.871094 23.878906 L 83.816406 23.828125 C 83.796875 23.578125 83.753906 22.898438 83.714844 22.675781 C 83.65625 22.355469 83.472656 22.066406 83.207031 22.386719 C 83.261719 22.535156 83.257812 22.675781 83.074219 22.792969 C 83.066406 22.792969 83.0625 22.792969 83.054688 22.792969 C 83.027344 22.792969 83.011719 22.785156 83 22.78125 L 82.988281 22.78125 C 82.988281 22.78125 82.980469 22.78125 82.980469 22.773438 C 82.96875 22.722656 82.925781 22.699219 82.882812 22.6875 C 82.835938 22.65625 82.828125 22.589844 82.808594 22.535156 C 82.835938 22.476562 82.855469 22.421875 82.847656 22.363281 C 82.875 22.355469 82.875 22.335938 82.875 22.316406 C 82.894531 22.296875 82.914062 22.273438 82.917969 22.242188 L 82.960938 22.242188 L 82.945312 22.199219 L 82.976562 22.1875 L 82.960938 22.160156 L 82.980469 22.152344 L 82.980469 22.121094 L 82.953125 22.121094 L 82.992188 22.09375 L 82.96875 22.074219 L 82.992188 22.019531 L 82.957031 22.039062 L 82.941406 21.9375 L 82.929688 21.996094 L 82.855469 21.910156 L 82.84375 21.929688 L 82.804688 21.878906 L 82.804688 21.917969 L 82.777344 21.917969 L 82.777344 21.894531 L 82.683594 21.910156 L 82.691406 21.886719 L 82.617188 21.910156 L 82.617188 21.890625 L 82.53125 21.941406 L 82.539062 21.914062 L 82.433594 21.976562 L 82.425781 21.945312 L 82.378906 22.015625 L 82.339844 22.027344 L 82.328125 21.570312 C 82.355469 21.539062 82.367188 21.507812 82.320312 21.484375 L 82.320312 21.304688 L 82.332031 21.25 C 82.351562 21.226562 82.378906 21.214844 82.378906 21.1875 C 82.378906 21.160156 82.367188 21.152344 82.308594 21.140625 L 82.300781 21.085938 C 82.597656 21.054688 82.832031 20.804688 82.832031 20.496094 C 82.832031 20.214844 82.625 19.984375 82.425781 19.933594 L 82.425781 19.890625 C 82.464844 19.878906 82.488281 19.910156 82.523438 19.921875 C 82.53125 19.914062 82.558594 19.976562 82.558594 19.980469 C 82.558594 19.988281 82.574219 19.9375 82.558594 19.933594 C 82.546875 19.914062 82.523438 19.914062 82.515625 19.878906 C 82.480469 19.867188 82.441406 19.863281 82.402344 19.839844 C 82.402344 19.824219 82.386719 19.796875 82.414062 19.800781 L 82.414062 19.761719 L 82.429688 19.753906 C 82.429688 19.71875 82.417969 19.679688 82.40625 19.640625 C 82.414062 19.628906 82.421875 19.625 82.429688 19.621094 C 82.449219 19.640625 82.46875 19.65625 82.480469 19.621094 C 82.496094 19.648438 82.519531 19.648438 82.542969 19.613281 C 82.566406 19.644531 82.585938 19.652344 82.597656 19.597656 C 82.621094 19.613281 82.640625 19.640625 82.660156 19.574219 C 82.695312 19.582031 82.730469 19.585938 82.722656 19.53125 C 82.757812 19.539062 82.765625 19.519531 82.753906 19.472656 C 82.792969 19.464844 82.777344 19.4375 82.769531 19.40625 C 82.785156 19.398438 82.78125 19.378906 82.78125 19.363281 C 82.820312 19.375 82.816406 19.351562 82.8125 19.332031 C 82.84375 19.339844 82.859375 19.332031 82.855469 19.292969 C 82.902344 19.3125 82.894531 19.273438 82.898438 19.25 C 82.9375 19.25 82.9375 19.226562 82.933594 19.195312 C 82.953125 19.183594 82.964844 19.171875 82.953125 19.144531 C 82.988281 19.121094 83 19.097656 82.980469 19.066406 C 82.992188 19.042969 83.039062 19.039062 82.992188 18.984375 C 83.011719 18.949219 83.078125 18.9375 83.03125 18.878906 C 83.070312 18.839844 83.078125 18.804688 83.054688 18.773438 C 83.082031 18.726562 83.15625 18.660156 83.097656 18.640625 C 83.070312 18.632812 83.128906 18.550781 83.144531 18.507812 L 83.132812 18.507812 Z M 82.136719 18.875 C 82.148438 18.875 82.148438 18.875 82.152344 18.882812 C 82.160156 18.894531 82.160156 18.921875 82.152344 18.933594 C 82.144531 18.941406 82.128906 18.941406 82.125 18.933594 C 82.113281 18.921875 82.113281 18.894531 82.125 18.882812 C 82.125 18.882812 82.132812 18.875 82.136719 18.875 Z M 82.214844 18.875 C 82.222656 18.875 82.222656 18.875 82.226562 18.882812 C 82.238281 18.894531 82.238281 18.921875 82.226562 18.933594 C 82.21875 18.941406 82.203125 18.941406 82.199219 18.933594 C 82.1875 18.921875 82.1875 18.894531 82.199219 18.882812 C 82.199219 18.882812 82.207031 18.875 82.214844 18.875 Z M 82.15625 19.75 C 82.167969 19.792969 82.15625 19.835938 82.15625 19.878906 C 82.148438 19.867188 82.132812 19.859375 82.125 19.832031 L 82.125 19.800781 C 82.136719 19.78125 82.136719 19.753906 82.164062 19.75 Z M 82.0625 19.863281 C 82.074219 19.863281 82.085938 19.863281 82.09375 19.871094 C 82.105469 19.910156 82.105469 19.929688 82.082031 19.9375 C 82.066406 19.90625 82.046875 19.90625 82.023438 19.925781 C 82.015625 19.957031 82 19.96875 81.984375 19.972656 L 81.984375 19.9375 C 82.007812 19.898438 82.03125 19.863281 82.066406 19.863281 Z M 82.296875 20.074219 C 82.339844 20.074219 82.378906 20.089844 82.417969 20.105469 C 82.570312 20.167969 82.679688 20.3125 82.679688 20.488281 C 82.679688 20.707031 82.519531 20.878906 82.308594 20.902344 L 82.308594 20.859375 L 82.429688 20.851562 C 82.394531 20.753906 82.332031 20.6875 82.328125 20.554688 C 82.441406 20.5625 82.535156 20.609375 82.628906 20.65625 L 82.621094 20.3125 C 82.542969 20.363281 82.484375 20.417969 82.324219 20.421875 C 82.3125 20.300781 82.371094 20.203125 82.417969 20.101562 L 82.296875 20.113281 L 82.296875 20.070312 Z M 82.199219 20.074219 C 82.199219 20.089844 82.199219 20.101562 82.199219 20.121094 L 82.054688 20.132812 C 82.128906 20.238281 82.175781 20.339844 82.167969 20.445312 C 82.050781 20.4375 81.976562 20.378906 81.890625 20.335938 L 81.898438 20.664062 C 81.984375 20.617188 82.066406 20.566406 82.179688 20.5625 C 82.199219 20.667969 82.136719 20.765625 82.101562 20.867188 L 82.21875 20.859375 C 82.222656 20.871094 82.21875 20.890625 82.21875 20.898438 C 82.003906 20.882812 81.839844 20.703125 81.839844 20.484375 C 81.839844 20.273438 81.992188 20.097656 82.195312 20.070312 Z M 82.273438 22.363281 L 82.28125 22.632812 C 82.207031 22.632812 82.144531 22.632812 82.078125 22.625 C 82.078125 22.625 82.054688 22.589844 82.046875 22.585938 C 82.035156 22.570312 82.160156 22.363281 82.179688 22.375 C 82.210938 22.375 82.238281 22.367188 82.277344 22.359375 Z M 82.367188 22.390625 L 82.398438 22.390625 C 82.398438 22.4375 82.398438 22.484375 82.40625 22.550781 C 82.398438 22.578125 82.386719 22.59375 82.375 22.613281 L 82.367188 22.386719 Z M 83.261719 24.15625 C 83.296875 24.195312 83.289062 24.238281 83.292969 24.277344 L 83.347656 24.292969 L 83.441406 24.601562 C 83.386719 24.570312 83.328125 24.550781 83.269531 24.527344 L 83.214844 24.261719 C 83.246094 24.246094 83.257812 24.203125 83.261719 24.15625 Z M 82.097656 24.355469 L 82.097656 24.414062 C 82.074219 24.460938 82.046875 24.480469 82.015625 24.496094 L 82.015625 24.398438 Z M 81.664062 24.644531 C 81.664062 24.644531 81.664062 24.652344 81.664062 24.652344 C 81.4375 24.816406 81.25 25.023438 81.085938 25.25 L 81.058594 24.941406 C 81.261719 24.847656 81.457031 24.753906 81.664062 24.644531 Z M 78.039062 25.03125 C 78.046875 25.03125 78.0625 25.183594 78.058594 25.171875 C 78.050781 25.148438 78 25.152344 77.988281 25.179688 C 77.976562 25.171875 77.972656 25.144531 77.96875 25.128906 C 77.984375 25.089844 78.011719 25.0625 78.039062 25.03125 Z M 80.472656 25.167969 C 80.464844 25.234375 80.453125 25.296875 80.449219 25.363281 L 80.425781 25.40625 C 79.980469 25.433594 79.523438 25.4375 79.101562 25.386719 C 79.574219 25.371094 80.03125 25.296875 80.472656 25.167969 Z M 78.035156 25.175781 L 78.035156 25.230469 C 78.007812 25.230469 78.007812 25.214844 78.003906 25.199219 C 78.011719 25.171875 78.019531 25.175781 78.035156 25.175781 Z M 84.25 25.199219 C 84.488281 25.277344 84.714844 25.386719 84.945312 25.488281 C 84.722656 25.449219 84.5 25.410156 84.28125 25.335938 C 84.28125 25.335938 84.28125 25.328125 84.273438 25.324219 C 84.304688 25.292969 84.289062 25.265625 84.289062 25.238281 L 84.257812 25.246094 L 84.246094 25.203125 Z M 77.992188 25.230469 C 78.007812 25.246094 78.015625 25.253906 78.058594 25.246094 C 78.058594 25.316406 78.066406 25.382812 78.050781 25.398438 C 78.019531 25.390625 77.984375 25.382812 77.960938 25.367188 C 78.003906 25.328125 78.007812 25.277344 77.992188 25.230469 Z M 87.046875 25.285156 C 87.035156 25.328125 87.027344 25.371094 86.992188 25.402344 C 86.992188 25.371094 86.980469 25.339844 86.980469 25.316406 C 87.003906 25.300781 87.023438 25.289062 87.046875 25.285156 Z M 78.832031 25.371094 C 79.363281 25.445312 79.847656 25.464844 80.40625 25.4375 L 80.441406 25.445312 L 80.417969 25.539062 C 80.332031 25.628906 80.257812 25.726562 80.203125 25.851562 C 80.121094 25.929688 80.15625 25.996094 80.167969 26.070312 C 80.136719 26.210938 80.140625 26.351562 80.15625 26.492188 L 80.203125 26.644531 C 80.101562 26.597656 79.921875 26.5 79.832031 26.433594 C 79.832031 26.421875 79.832031 26.421875 79.839844 26.417969 C 79.828125 26 79.894531 25.527344 79.210938 25.539062 C 79.09375 25.527344 78.980469 25.511719 78.90625 25.46875 L 78.828125 25.382812 L 78.828125 25.371094 Z M 84.300781 25.371094 C 84.511719 25.445312 84.738281 25.480469 84.953125 25.515625 C 85.125 25.574219 85.339844 25.664062 85.464844 25.6875 C 85.496094 25.699219 85.542969 25.6875 85.59375 25.679688 C 85.519531 25.722656 85.457031 25.777344 85.417969 25.835938 C 85.410156 25.847656 85.433594 25.859375 85.433594 25.859375 L 85.402344 25.933594 C 85.355469 26.050781 85.324219 26.175781 85.300781 26.300781 L 84.765625 26.648438 L 84.710938 26.65625 C 84.710938 26.539062 84.746094 26.410156 84.695312 26.308594 C 84.695312 26.0625 84.703125 25.8125 84.683594 25.570312 L 84.46875 25.5625 L 84.453125 25.648438 C 84.398438 25.53125 84.351562 25.453125 84.300781 25.371094 Z M 86.167969 25.5 L 86.167969 25.507812 C 86.132812 25.523438 86.085938 25.535156 86.035156 25.546875 C 85.980469 25.546875 85.90625 25.558594 85.832031 25.582031 C 85.792969 25.59375 85.746094 25.609375 85.703125 25.628906 C 85.628906 25.65625 85.546875 25.679688 85.480469 25.652344 L 85.078125 25.519531 L 85.066406 25.519531 C 85.433594 25.542969 85.800781 25.570312 86.171875 25.5 Z M 86.152344 25.53125 L 86.132812 25.570312 C 86.121094 25.5625 86.105469 25.554688 86.085938 25.550781 C 86.109375 25.542969 86.132812 25.535156 86.152344 25.527344 Z M 85.289062 26.410156 C 85.277344 26.507812 85.265625 26.605469 85.261719 26.707031 L 84.792969 26.714844 Z M 79.816406 26.5 C 79.960938 26.597656 80.09375 26.65625 80.222656 26.707031 L 80.222656 26.71875 L 79.746094 26.707031 C 79.769531 26.640625 79.792969 26.570312 79.8125 26.5 Z M 85.15625 26.78125 L 85.171875 28.535156 L 84.730469 28.535156 L 84.71875 28.019531 L 84.71875 27.292969 L 84.773438 27.292969 L 84.785156 27.175781 L 84.878906 27.175781 C 84.902344 27.125 84.898438 27.074219 84.878906 27.019531 L 84.785156 27.019531 L 84.769531 26.894531 L 84.71875 26.894531 L 84.71875 26.792969 L 85.152344 26.78125 Z M 79.71875 26.792969 L 79.882812 26.800781 L 79.867188 28.542969 L 79.53125 28.542969 C 79.53125 28.402344 79.5 28.171875 79.539062 28.148438 C 79.617188 28.128906 79.632812 28.078125 79.601562 28 C 79.679688 27.898438 79.746094 27.792969 79.660156 27.648438 C 79.652344 27.503906 79.644531 27.347656 79.636719 27.1875 L 79.667969 27.210938 C 79.683594 27.148438 79.660156 27.09375 79.632812 27.039062 C 79.660156 26.957031 79.6875 26.878906 79.71875 26.796875 Z M 79.929688 26.800781 L 80.246094 26.808594 C 80.28125 27.03125 80.414062 27.222656 80.339844 27.476562 C 80.433594 27.679688 80.46875 27.898438 80.453125 28.125 C 80.484375 28.238281 80.503906 28.34375 80.4375 28.410156 C 80.445312 28.457031 80.457031 28.503906 80.445312 28.542969 L 79.898438 28.542969 L 79.929688 26.804688 Z M 79.265625 26.832031 L 79.265625 26.929688 C 79.21875 26.988281 79.210938 27.035156 79.195312 27.078125 L 79.171875 27.035156 Z M 80.859375 27.285156 L 80.917969 27.285156 C 80.976562 27.460938 80.886719 27.597656 80.972656 27.75 C 80.949219 27.832031 80.972656 27.914062 81.003906 27.996094 C 81.03125 28.089844 81.050781 28.191406 81.148438 28.214844 L 81.148438 28.542969 L 80.824219 28.542969 L 80.773438 28.347656 L 80.792969 28.015625 C 80.8125 27.90625 80.808594 27.828125 80.808594 27.746094 C 80.863281 27.652344 80.875 27.542969 80.824219 27.40625 C 80.804688 27.359375 80.808594 27.320312 80.859375 27.285156 Z M 81.253906 27.3125 C 81.308594 27.320312 81.367188 27.304688 81.425781 27.339844 L 81.445312 27.40625 C 81.394531 27.535156 81.4375 27.671875 81.480469 27.8125 L 81.488281 28.179688 C 81.460938 28.269531 81.433594 28.355469 81.480469 28.460938 C 81.46875 28.503906 81.445312 28.515625 81.425781 28.535156 L 81.4375 28.542969 L 81.21875 28.542969 L 81.21875 28.214844 C 81.273438 28.191406 81.300781 28.144531 81.324219 28.097656 C 81.347656 28.007812 81.351562 27.917969 81.339844 27.835938 C 81.300781 27.664062 81.242188 27.488281 81.25 27.3125 Z M 84.339844 27.324219 L 84.414062 27.324219 L 84.453125 27.363281 L 84.46875 27.425781 L 84.507812 28.539062 L 84.347656 28.539062 L 84.347656 28.390625 C 84.308594 28.390625 84.277344 28.382812 84.28125 28.355469 L 84.304688 27.996094 C 84.363281 27.890625 84.296875 27.847656 84.28125 27.78125 C 84.300781 27.726562 84.308594 27.65625 84.296875 27.570312 C 84.363281 27.519531 84.332031 27.410156 84.339844 27.320312 Z M 83.75 27.339844 C 83.765625 27.453125 83.777344 27.570312 83.832031 27.671875 L 83.863281 27.820312 C 83.832031 27.988281 83.886719 28.019531 83.90625 28.109375 L 83.863281 28.230469 C 83.925781 28.304688 83.960938 28.378906 84.109375 28.285156 L 84.101562 28.347656 C 84.121094 28.375 84.125 28.402344 84.074219 28.429688 L 84.082031 28.542969 L 83.53125 28.542969 L 83.53125 28.496094 C 83.566406 28.394531 83.574219 28.304688 83.546875 28.222656 C 83.535156 28.023438 83.558594 27.832031 83.632812 27.652344 C 83.65625 27.5625 83.589844 27.472656 83.652344 27.355469 Z M 81.671875 27.339844 L 82.515625 27.433594 L 82.523438 28.414062 L 82.453125 28.539062 L 81.648438 28.539062 L 81.65625 28.539062 C 81.628906 28.507812 81.597656 28.476562 81.632812 28.394531 L 81.617188 28.183594 L 81.648438 27.789062 C 81.699219 27.644531 81.734375 27.496094 81.679688 27.339844 Z M 83.285156 27.386719 L 83.292969 27.417969 L 83.226562 27.4375 C 83.160156 27.625 83.171875 27.757812 83.40625 27.726562 L 83.394531 28.214844 C 83.363281 28.292969 83.351562 28.375 83.394531 28.46875 L 83.367188 28.539062 L 82.855469 28.539062 L 82.789062 28.375 L 82.773438 27.550781 L 82.816406 27.515625 L 82.816406 27.4375 L 83.28125 27.386719 Z M 79.277344 27.585938 C 79.304688 27.585938 79.304688 27.621094 79.304688 27.652344 C 79.285156 27.644531 79.273438 27.617188 79.277344 27.585938 Z M 79.019531 27.601562 L 79.039062 27.746094 C 79.105469 27.902344 79.140625 28.082031 79.046875 28.363281 L 79.046875 28.46875 C 79.027344 28.496094 78.988281 28.511719 78.953125 28.527344 L 78.9375 28.394531 L 78.984375 28.007812 L 78.984375 27.675781 L 79.023438 27.601562 Z M 79.453125 28.246094 L 79.46875 28.539062 L 79.316406 28.539062 L 79.316406 28.328125 C 79.371094 28.304688 79.417969 28.292969 79.449219 28.246094 Z M 79.234375 28.445312 L 79.246094 28.539062 L 79.1875 28.539062 C 79.195312 28.503906 79.195312 28.460938 79.234375 28.445312 Z M 79.234375 28.445312" fill-rule="evenodd"/><path fill="#F2F2F2" d="M 59.714844 54.367188 L 105.875 54.367188 L 105.875 55.035156 L 59.714844 55.035156 Z M 59.714844 54.367188"/><g clip-path="url(#c)"><path fill="#B3B3B3" d="M 83.15625 18.503906 C 83.074219 18.511719 83.03125 18.65625 82.945312 18.703125 L 82.921875 18.667969 C 82.820312 18.777344 82.703125 18.855469 82.570312 18.914062 C 82.507812 18.957031 82.417969 18.972656 82.433594 19.089844 C 82.496094 19.109375 82.527344 19.140625 82.460938 19.207031 C 82.40625 19.234375 82.355469 19.261719 82.289062 19.28125 C 82.273438 19.191406 82.257812 19.101562 82.253906 19.007812 C 82.246094 18.996094 82.234375 18.988281 82.21875 18.980469 L 82.21875 18.953125 C 82.242188 18.9375 82.277344 18.925781 82.277344 18.894531 C 82.277344 18.859375 82.234375 18.847656 82.207031 18.851562 C 82.207031 18.863281 82.199219 18.863281 82.191406 18.863281 L 82.191406 18.851562 C 82.199219 18.84375 82.203125 18.835938 82.203125 18.824219 C 82.203125 18.8125 82.191406 18.800781 82.179688 18.796875 L 82.179688 18.765625 L 82.195312 18.765625 L 82.195312 18.753906 L 82.179688 18.753906 L 82.179688 18.738281 L 82.167969 18.738281 L 82.167969 18.753906 L 82.148438 18.753906 L 82.148438 18.761719 L 82.167969 18.761719 L 82.167969 18.792969 C 82.152344 18.792969 82.140625 18.808594 82.140625 18.824219 C 82.140625 18.832031 82.152344 18.84375 82.15625 18.847656 L 82.15625 18.859375 C 82.148438 18.859375 82.136719 18.859375 82.132812 18.847656 C 82.082031 18.847656 82.074219 18.875 82.074219 18.894531 C 82.074219 18.914062 82.097656 18.9375 82.121094 18.949219 L 82.121094 18.980469 C 82.09375 18.992188 82.070312 19.003906 82.050781 19.023438 C 82.039062 19.050781 82.050781 19.082031 82.0625 19.113281 C 82.0625 19.101562 82.070312 19.09375 82.074219 19.085938 C 82.089844 19.074219 82.113281 19.070312 82.128906 19.097656 C 82.128906 19.171875 82.152344 19.261719 82.09375 19.3125 C 82.019531 19.289062 81.945312 19.265625 81.90625 19.183594 C 82 19.097656 81.90625 19.0625 81.871094 19.011719 C 81.671875 18.847656 81.449219 18.8125 81.277344 18.640625 L 81.265625 18.667969 C 81.214844 18.625 81.128906 18.539062 81.101562 18.554688 C 81.078125 18.574219 81.128906 18.640625 81.15625 18.683594 C 81.082031 18.761719 81.183594 18.78125 81.210938 18.828125 C 81.15625 18.882812 81.222656 18.921875 81.261719 18.964844 C 81.242188 19.007812 81.234375 19.054688 81.335938 19.085938 C 81.296875 19.148438 81.355469 19.171875 81.40625 19.199219 C 81.390625 19.25 81.417969 19.269531 81.457031 19.28125 C 81.46875 19.308594 81.472656 19.355469 81.519531 19.335938 C 81.527344 19.367188 81.542969 19.394531 81.589844 19.378906 C 81.601562 19.441406 81.632812 19.449219 81.6875 19.417969 C 81.695312 19.457031 81.703125 19.480469 81.730469 19.472656 C 81.730469 19.515625 81.671875 19.589844 81.75 19.589844 C 81.757812 19.632812 81.75 19.699219 81.808594 19.65625 C 81.824219 19.683594 81.839844 19.738281 81.882812 19.675781 C 81.898438 19.699219 81.917969 19.746094 81.941406 19.6875 C 81.964844 19.703125 81.957031 19.769531 82.019531 19.703125 C 82.035156 19.703125 82.03125 19.792969 82.03125 19.792969 L 82.054688 19.785156 L 82.054688 19.832031 C 81.949219 19.847656 81.945312 19.910156 81.953125 19.980469 C 81.78125 20.085938 81.667969 20.273438 81.667969 20.488281 C 81.667969 20.804688 81.917969 21.0625 82.226562 21.078125 L 82.226562 21.132812 C 82.171875 21.152344 82.15625 21.15625 82.15625 21.1875 C 82.15625 21.21875 82.179688 21.222656 82.207031 21.242188 L 82.222656 21.300781 L 82.238281 21.480469 C 82.199219 21.507812 82.207031 21.535156 82.246094 21.5625 L 82.265625 22.054688 L 82.132812 22.160156 C 82.085938 22.210938 82.039062 22.265625 81.988281 22.304688 C 81.78125 22.140625 81.648438 22.28125 81.585938 22.375 C 81.523438 22.472656 81.507812 22.933594 81.535156 23.21875 C 81.605469 23.667969 81.632812 24.121094 81.664062 24.574219 C 81.546875 24.65625 81.179688 24.851562 81.0625 24.894531 L 81.0625 24.804688 L 81.136719 24.609375 L 81.128906 24.46875 C 81.054688 24.410156 81.089844 24.398438 81.117188 24.382812 C 81.160156 24.292969 81.105469 24.203125 81.042969 24.113281 L 80.980469 24.070312 C 80.875 24.03125 80.757812 23.933594 80.695312 24.152344 C 80.6875 24.105469 80.628906 24.082031 80.578125 24.058594 C 80.570312 24.113281 80.539062 24.171875 80.617188 24.21875 L 80.605469 24.277344 C 80.515625 24.375 80.535156 24.433594 80.535156 24.496094 C 80.535156 24.582031 80.542969 24.632812 80.542969 24.6875 C 80.519531 24.835938 80.492188 24.984375 80.472656 25.136719 C 79.941406 25.308594 79.015625 25.417969 78.835938 25.335938 L 78.84375 25.304688 L 78.808594 25.292969 C 78.714844 25.023438 78.664062 24.746094 78.511719 24.484375 C 78.5 24.398438 78.433594 24.316406 78.378906 24.230469 C 78.25 24.152344 78.136719 23.996094 77.992188 23.996094 C 77.925781 23.996094 77.851562 24.03125 77.765625 24.128906 L 77.6875 24.167969 C 77.605469 24.136719 77.597656 24.160156 77.574219 24.179688 L 77.523438 24.164062 L 77.523438 24.207031 C 77.59375 24.207031 77.609375 24.253906 77.636719 24.289062 C 77.652344 24.339844 77.648438 24.386719 77.636719 24.429688 C 77.59375 24.476562 77.5625 24.519531 77.566406 24.535156 C 77.578125 24.5625 77.578125 24.59375 77.574219 24.621094 L 77.640625 24.707031 L 77.640625 24.84375 C 77.671875 24.957031 77.695312 25.070312 77.601562 25.144531 C 77.621094 25.1875 77.640625 25.230469 77.667969 25.289062 C 77.691406 25.308594 77.695312 25.34375 77.703125 25.371094 C 77.75 25.433594 77.800781 25.414062 77.851562 25.390625 C 77.851562 25.390625 78.035156 25.449219 78.046875 25.449219 C 78.058594 25.449219 78.035156 25.523438 78.035156 25.523438 L 78.046875 25.523438 L 78.035156 25.613281 C 77.960938 25.691406 77.898438 25.769531 77.871094 25.871094 C 77.816406 25.953125 77.828125 26.007812 77.832031 26.0625 L 77.882812 26.308594 C 77.921875 26.363281 77.914062 26.484375 77.921875 26.546875 C 77.980469 26.746094 77.84375 26.777344 77.738281 26.835938 L 77.710938 27 C 77.761719 27.183594 77.753906 27.398438 77.769531 27.601562 C 77.785156 27.683594 77.796875 27.765625 77.769531 27.859375 C 77.824219 28.058594 78.003906 28.152344 78.066406 28.007812 C 78.132812 27.867188 78.023438 27.777344 77.980469 27.691406 C 77.941406 27.675781 77.945312 27.621094 77.953125 27.582031 C 77.898438 27.285156 77.90625 27.148438 77.972656 27.089844 C 77.984375 27.054688 77.988281 27.019531 77.988281 26.976562 C 78.066406 26.996094 78.113281 26.878906 78.160156 26.875 C 78.203125 26.867188 78.222656 26.917969 78.261719 26.910156 C 78.351562 26.867188 78.457031 26.957031 78.542969 26.878906 C 78.519531 26.839844 78.460938 26.796875 78.476562 26.757812 L 78.636719 26.78125 C 78.660156 26.898438 78.726562 26.980469 78.785156 27.066406 C 78.785156 27.066406 78.808594 27.355469 78.792969 27.367188 C 78.726562 27.433594 78.804688 27.707031 78.804688 27.730469 C 78.832031 27.882812 78.804688 28.039062 78.785156 28.191406 L 78.792969 28.332031 C 78.765625 28.363281 78.734375 28.386719 78.707031 28.40625 C 78.699219 28.453125 78.691406 28.496094 78.679688 28.539062 L 76.945312 28.539062 L 76.945312 28.691406 L 76.414062 28.691406 L 76.414062 29.058594 L 76.042969 29.058594 L 76.042969 29.429688 L 61.449219 29.429688 L 62.3125 30.542969 L 62.3125 32.398438 L 61.941406 32.398438 L 61.941406 32.769531 L 60.457031 32.769531 L 59.714844 33.140625 L 60.457031 33.515625 L 60.457031 33.882812 L 61.941406 34.996094 L 61.941406 37.222656 L 61.199219 37.222656 L 61.941406 38.339844 L 61.941406 55.035156 L 64.910156 55.035156 L 64.910156 53.921875 L 64.539062 53.550781 L 64.539062 37.59375 L 64.910156 37.222656 L 68.25 37.222656 L 68.621094 37.59375 L 68.621094 53.550781 L 68.25 53.921875 L 68.269531 55.035156 L 71.589844 55.035156 L 71.589844 53.921875 L 71.214844 53.550781 L 71.214844 37.59375 L 71.589844 37.222656 L 75.671875 37.222656 L 76.042969 37.59375 L 76.042969 53.550781 L 75.671875 53.921875 L 75.671875 55.035156 L 79.011719 55.035156 L 79.011719 53.921875 L 78.640625 53.550781 L 78.640625 37.59375 L 79.011719 37.222656 L 85.6875 37.222656 L 86.058594 37.59375 L 86.058594 53.550781 L 85.6875 53.921875 L 85.6875 55.035156 L 89.03125 55.035156 L 89.03125 53.921875 L 88.660156 53.550781 L 88.660156 37.59375 L 89.03125 37.222656 L 93.109375 37.222656 L 93.484375 37.59375 L 93.484375 53.550781 L 93.109375 53.921875 L 93.109375 55.035156 L 96.449219 55.035156 L 96.449219 53.921875 L 96.078125 53.550781 L 96.078125 37.59375 L 96.449219 37.222656 L 99.789062 37.222656 L 100.164062 37.59375 L 100.164062 53.550781 L 99.789062 53.921875 L 99.789062 55.035156 L 102.757812 55.035156 L 102.757812 38.339844 L 103.5 37.222656 L 102.757812 37.222656 L 102.757812 34.996094 L 104.242188 33.882812 L 104.242188 33.515625 L 104.988281 33.140625 L 104.242188 32.769531 L 102.757812 32.769531 L 102.757812 32.398438 L 102.386719 32.398438 L 102.386719 30.542969 L 103.234375 29.429688 L 88.660156 29.429688 L 88.660156 29.058594 L 88.285156 29.058594 L 88.285156 28.691406 L 87.574219 28.691406 L 87.574219 28.539062 L 85.207031 28.539062 L 85.199219 26.785156 L 85.246094 26.785156 C 85.253906 26.867188 85.277344 26.945312 85.324219 27.019531 C 85.332031 27.175781 85.351562 27.332031 85.34375 27.492188 L 85.292969 27.617188 L 85.359375 27.78125 C 85.347656 27.824219 85.328125 27.855469 85.304688 27.875 L 85.339844 28.128906 C 85.386719 28.152344 85.441406 28.160156 85.472656 28.222656 L 85.449219 28.386719 C 85.511719 28.5 85.613281 28.53125 85.742188 28.496094 C 85.742188 28.425781 85.734375 28.390625 85.75 28.285156 L 85.703125 28.210938 L 85.710938 28.105469 C 85.761719 28.066406 85.804688 28.023438 85.789062 27.921875 C 85.789062 27.847656 85.765625 27.78125 85.730469 27.714844 C 85.714844 27.652344 85.71875 27.585938 85.71875 27.523438 C 85.777344 27.328125 85.808594 27.152344 85.835938 26.976562 C 85.878906 26.945312 85.921875 26.96875 85.960938 26.984375 C 85.960938 27.144531 86.09375 27.34375 85.929688 27.445312 L 85.875 27.609375 C 85.945312 27.863281 85.886719 28.117188 85.8125 28.367188 C 85.820312 28.433594 85.820312 28.507812 85.859375 28.539062 L 86.269531 28.539062 L 86.257812 28.457031 L 86.148438 28.34375 C 86.148438 28.246094 86.148438 28.148438 86.167969 28.046875 C 86.144531 27.757812 86.191406 27.625 86.230469 27.484375 C 86.390625 27.335938 86.378906 27.289062 86.410156 27.214844 C 86.5 27.15625 86.503906 27.046875 86.519531 26.945312 L 86.679688 26.851562 C 86.734375 26.824219 86.605469 27.015625 86.644531 27.042969 C 86.6875 27.070312 86.707031 26.980469 86.746094 26.964844 C 86.84375 26.976562 86.925781 27.011719 87.003906 27.050781 L 87.003906 27.402344 L 86.914062 27.578125 L 86.914062 27.71875 C 86.695312 27.878906 86.753906 28.09375 86.863281 28.105469 C 86.972656 28.117188 87.039062 28.105469 87.078125 27.871094 L 87.050781 27.777344 C 87.089844 27.742188 87.109375 27.691406 87.128906 27.640625 C 87.148438 27.46875 87.128906 27.292969 87.226562 27.132812 L 87.234375 26.945312 C 87.152344 26.867188 87.125 26.753906 87.089844 26.644531 C 87.113281 26.574219 87.109375 26.421875 87.113281 26.421875 C 87.132812 26.410156 87.167969 26.332031 87.15625 26.222656 C 87.179688 26.179688 87.207031 26.132812 87.15625 26.070312 C 87.167969 25.984375 87.113281 25.90625 87.066406 25.832031 C 87.03125 25.789062 87.023438 25.722656 87.011719 25.65625 L 86.992188 25.5 C 87.039062 25.433594 87.074219 25.371094 87.089844 25.304688 C 87.128906 25.292969 87.164062 25.265625 87.195312 25.1875 C 87.222656 25.160156 87.25 25.128906 87.277344 25.082031 C 87.265625 25.054688 87.234375 25.046875 87.25 24.980469 C 87.257812 24.871094 87.25 24.761719 87.28125 24.664062 L 87.332031 24.566406 C 87.378906 24.511719 87.382812 24.457031 87.3125 24.390625 L 87.320312 24.292969 L 87.359375 24.210938 C 87.40625 24.144531 87.484375 24.09375 87.441406 23.988281 C 87.390625 24.050781 87.339844 24.0625 87.289062 24.085938 C 87.253906 24.050781 87.238281 24 87.15625 24.003906 C 87.1875 23.9375 87.1875 23.914062 87.164062 23.914062 L 87.15625 23.914062 C 87.136719 23.914062 87.105469 23.933594 87.066406 23.953125 C 86.984375 23.964844 86.890625 23.953125 86.828125 24.027344 C 86.738281 24.042969 86.664062 24.089844 86.621094 24.222656 C 86.476562 24.316406 86.429688 24.414062 86.421875 24.515625 C 86.269531 24.710938 86.28125 24.949219 86.246094 25.175781 L 86.21875 25.335938 L 86.191406 25.429688 L 86.171875 25.472656 L 86.171875 25.480469 C 85.789062 25.542969 85.410156 25.523438 85.03125 25.496094 C 84.765625 25.378906 84.496094 25.246094 84.234375 25.152344 L 84.234375 25.140625 L 84.242188 25.140625 C 84.234375 25.082031 84.242188 25.03125 84.261719 24.988281 C 84.289062 24.960938 84.304688 24.921875 84.3125 24.875 C 84.3125 24.832031 84.3125 24.785156 84.328125 24.742188 C 84.292969 24.71875 84.269531 24.679688 84.25 24.632812 C 84.273438 24.558594 84.28125 24.476562 84.28125 24.390625 C 84.304688 24.308594 84.378906 24.234375 84.289062 24.132812 C 84.273438 24.085938 84.257812 24.039062 84.214844 24.003906 C 84.261719 23.882812 84.296875 23.777344 84.121094 23.902344 C 84.054688 23.816406 83.976562 23.789062 83.871094 23.878906 L 83.816406 23.828125 C 83.796875 23.578125 83.753906 22.898438 83.714844 22.675781 C 83.65625 22.355469 83.472656 22.066406 83.207031 22.386719 C 83.261719 22.535156 83.257812 22.675781 83.074219 22.792969 C 83.066406 22.792969 83.0625 22.792969 83.054688 22.792969 C 83.027344 22.792969 83.011719 22.785156 83 22.78125 L 82.988281 22.78125 C 82.988281 22.78125 82.980469 22.78125 82.980469 22.773438 C 82.96875 22.722656 82.925781 22.699219 82.882812 22.6875 C 82.835938 22.65625 82.828125 22.589844 82.808594 22.535156 C 82.835938 22.476562 82.855469 22.421875 82.847656 22.363281 C 82.875 22.355469 82.875 22.335938 82.875 22.316406 C 82.894531 22.296875 82.914062 22.273438 82.917969 22.242188 L 82.960938 22.242188 L 82.945312 22.199219 L 82.976562 22.1875 L 82.960938 22.160156 L 82.980469 22.152344 L 82.980469 22.121094 L 82.953125 22.121094 L 82.992188 22.09375 L 82.96875 22.074219 L 82.992188 22.019531 L 82.957031 22.039062 L 82.941406 21.9375 L 82.929688 21.996094 L 82.855469 21.910156 L 82.84375 21.929688 L 82.804688 21.878906 L 82.804688 21.917969 L 82.777344 21.917969 L 82.777344 21.894531 L 82.683594 21.910156 L 82.691406 21.886719 L 82.617188 21.910156 L 82.617188 21.890625 L 82.53125 21.941406 L 82.539062 21.914062 L 82.433594 21.976562 L 82.425781 21.945312 L 82.378906 22.015625 L 82.339844 22.027344 L 82.328125 21.570312 C 82.355469 21.539062 82.367188 21.507812 82.320312 21.484375 L 82.320312 21.304688 L 82.332031 21.25 C 82.351562 21.226562 82.378906 21.214844 82.378906 21.1875 C 82.378906 21.160156 82.367188 21.152344 82.308594 21.140625 L 82.300781 21.085938 C 82.597656 21.054688 82.832031 20.804688 82.832031 20.496094 C 82.832031 20.214844 82.625 19.984375 82.425781 19.933594 L 82.425781 19.890625 C 82.464844 19.878906 82.488281 19.910156 82.523438 19.921875 C 82.53125 19.914062 82.558594 19.976562 82.558594 19.980469 C 82.558594 19.988281 82.574219 19.9375 82.558594 19.933594 C 82.546875 19.914062 82.523438 19.914062 82.515625 19.878906 C 82.480469 19.867188 82.441406 19.863281 82.402344 19.839844 C 82.402344 19.824219 82.386719 19.796875 82.414062 19.800781 L 82.414062 19.761719 L 82.429688 19.753906 C 82.429688 19.71875 82.417969 19.679688 82.40625 19.640625 C 82.414062 19.628906 82.421875 19.625 82.429688 19.621094 C 82.449219 19.640625 82.46875 19.65625 82.480469 19.621094 C 82.496094 19.648438 82.519531 19.648438 82.542969 19.613281 C 82.566406 19.644531 82.585938 19.652344 82.597656 19.597656 C 82.621094 19.613281 82.640625 19.640625 82.660156 19.574219 C 82.695312 19.582031 82.730469 19.585938 82.722656 19.53125 C 82.757812 19.539062 82.765625 19.519531 82.753906 19.472656 C 82.792969 19.464844 82.777344 19.4375 82.769531 19.40625 C 82.785156 19.398438 82.78125 19.378906 82.78125 19.363281 C 82.820312 19.375 82.816406 19.351562 82.8125 19.332031 C 82.84375 19.339844 82.859375 19.332031 82.855469 19.292969 C 82.902344 19.3125 82.894531 19.273438 82.898438 19.25 C 82.9375 19.25 82.9375 19.226562 82.933594 19.195312 C 82.953125 19.183594 82.964844 19.171875 82.953125 19.144531 C 82.988281 19.121094 83 19.097656 82.980469 19.066406 C 82.992188 19.042969 83.039062 19.039062 82.992188 18.984375 C 83.011719 18.949219 83.078125 18.9375 83.03125 18.878906 C 83.070312 18.839844 83.078125 18.804688 83.054688 18.773438 C 83.082031 18.726562 83.15625 18.660156 83.097656 18.640625 C 83.070312 18.632812 83.128906 18.550781 83.144531 18.507812 L 83.132812 18.507812 Z M 82.136719 18.875 C 82.148438 18.875 82.148438 18.875 82.152344 18.882812 C 82.160156 18.894531 82.160156 18.921875 82.152344 18.933594 C 82.144531 18.941406 82.128906 18.941406 82.125 18.933594 C 82.113281 18.921875 82.113281 18.894531 82.125 18.882812 C 82.125 18.882812 82.132812 18.875 82.136719 18.875 Z M 82.214844 18.875 C 82.222656 18.875 82.222656 18.875 82.226562 18.882812 C 82.238281 18.894531 82.238281 18.921875 82.226562 18.933594 C 82.21875 18.941406 82.203125 18.941406 82.199219 18.933594 C 82.1875 18.921875 82.1875 18.894531 82.199219 18.882812 C 82.199219 18.882812 82.207031 18.875 82.214844 18.875 Z M 82.15625 19.75 C 82.167969 19.792969 82.15625 19.835938 82.15625 19.878906 C 82.148438 19.867188 82.132812 19.859375 82.125 19.832031 L 82.125 19.800781 C 82.136719 19.78125 82.136719 19.753906 82.164062 19.75 Z M 82.0625 19.863281 C 82.074219 19.863281 82.085938 19.863281 82.09375 19.871094 C 82.105469 19.910156 82.105469 19.929688 82.082031 19.9375 C 82.066406 19.90625 82.046875 19.90625 82.023438 19.925781 C 82.015625 19.957031 82 19.96875 81.984375 19.972656 L 81.984375 19.9375 C 82.007812 19.898438 82.03125 19.863281 82.066406 19.863281 Z M 82.296875 20.074219 C 82.339844 20.074219 82.378906 20.089844 82.417969 20.105469 C 82.570312 20.167969 82.679688 20.3125 82.679688 20.488281 C 82.679688 20.707031 82.519531 20.878906 82.308594 20.902344 L 82.308594 20.859375 L 82.429688 20.851562 C 82.394531 20.753906 82.332031 20.6875 82.328125 20.554688 C 82.441406 20.5625 82.535156 20.609375 82.628906 20.65625 L 82.621094 20.3125 C 82.542969 20.363281 82.484375 20.417969 82.324219 20.421875 C 82.3125 20.300781 82.371094 20.203125 82.417969 20.101562 L 82.296875 20.113281 L 82.296875 20.070312 Z M 82.199219 20.074219 C 82.199219 20.089844 82.199219 20.101562 82.199219 20.121094 L 82.054688 20.132812 C 82.128906 20.238281 82.175781 20.339844 82.167969 20.445312 C 82.050781 20.4375 81.976562 20.378906 81.890625 20.335938 L 81.898438 20.664062 C 81.984375 20.617188 82.066406 20.566406 82.179688 20.5625 C 82.199219 20.667969 82.136719 20.765625 82.101562 20.867188 L 82.21875 20.859375 C 82.222656 20.871094 82.21875 20.890625 82.21875 20.898438 C 82.003906 20.882812 81.839844 20.703125 81.839844 20.484375 C 81.839844 20.273438 81.992188 20.097656 82.195312 20.070312 Z M 82.273438 22.363281 L 82.28125 22.632812 C 82.207031 22.632812 82.144531 22.632812 82.078125 22.625 C 82.078125 22.625 82.054688 22.589844 82.046875 22.585938 C 82.035156 22.570312 82.160156 22.363281 82.179688 22.375 C 82.210938 22.375 82.238281 22.367188 82.277344 22.359375 Z M 82.367188 22.390625 L 82.398438 22.390625 C 82.398438 22.4375 82.398438 22.484375 82.40625 22.550781 C 82.398438 22.578125 82.386719 22.59375 82.375 22.613281 L 82.367188 22.386719 Z M 83.261719 24.15625 C 83.296875 24.195312 83.289062 24.238281 83.292969 24.277344 L 83.347656 24.292969 L 83.441406 24.601562 C 83.386719 24.570312 83.328125 24.550781 83.269531 24.527344 L 83.214844 24.261719 C 83.246094 24.246094 83.257812 24.203125 83.261719 24.15625 Z M 82.097656 24.355469 L 82.097656 24.414062 C 82.074219 24.460938 82.046875 24.480469 82.015625 24.496094 L 82.015625 24.398438 Z M 81.664062 24.644531 C 81.664062 24.644531 81.664062 24.652344 81.664062 24.652344 C 81.4375 24.816406 81.25 25.023438 81.085938 25.25 L 81.058594 24.941406 C 81.261719 24.847656 81.457031 24.753906 81.664062 24.644531 Z M 78.039062 25.03125 C 78.046875 25.03125 78.0625 25.183594 78.058594 25.171875 C 78.050781 25.148438 78 25.152344 77.988281 25.179688 C 77.976562 25.171875 77.972656 25.144531 77.96875 25.128906 C 77.984375 25.089844 78.011719 25.0625 78.039062 25.03125 Z M 80.472656 25.167969 C 80.464844 25.234375 80.453125 25.296875 80.449219 25.363281 L 80.425781 25.40625 C 79.980469 25.433594 79.523438 25.4375 79.101562 25.386719 C 79.574219 25.371094 80.03125 25.296875 80.472656 25.167969 Z M 78.035156 25.175781 L 78.035156 25.230469 C 78.007812 25.230469 78.007812 25.214844 78.003906 25.199219 C 78.011719 25.171875 78.019531 25.175781 78.035156 25.175781 Z M 84.25 25.199219 C 84.488281 25.277344 84.714844 25.386719 84.945312 25.488281 C 84.722656 25.449219 84.5 25.410156 84.28125 25.335938 C 84.28125 25.335938 84.28125 25.328125 84.273438 25.324219 C 84.304688 25.292969 84.289062 25.265625 84.289062 25.238281 L 84.257812 25.246094 L 84.246094 25.203125 Z M 77.992188 25.230469 C 78.007812 25.246094 78.015625 25.253906 78.058594 25.246094 C 78.058594 25.316406 78.066406 25.382812 78.050781 25.398438 C 78.019531 25.390625 77.984375 25.382812 77.960938 25.367188 C 78.003906 25.328125 78.007812 25.277344 77.992188 25.230469 Z M 87.046875 25.285156 C 87.035156 25.328125 87.027344 25.371094 86.992188 25.402344 C 86.992188 25.371094 86.980469 25.339844 86.980469 25.316406 C 87.003906 25.300781 87.023438 25.289062 87.046875 25.285156 Z M 78.832031 25.371094 C 79.363281 25.445312 79.847656 25.464844 80.40625 25.4375 L 80.441406 25.445312 L 80.417969 25.539062 C 80.332031 25.628906 80.257812 25.726562 80.203125 25.851562 C 80.121094 25.929688 80.15625 25.996094 80.167969 26.070312 C 80.136719 26.210938 80.140625 26.351562 80.15625 26.492188 L 80.203125 26.644531 C 80.101562 26.597656 79.921875 26.5 79.832031 26.433594 C 79.832031 26.421875 79.832031 26.421875 79.839844 26.417969 C 79.828125 26 79.894531 25.527344 79.210938 25.539062 C 79.09375 25.527344 78.980469 25.511719 78.90625 25.46875 L 78.828125 25.382812 L 78.828125 25.371094 Z M 84.300781 25.371094 C 84.511719 25.445312 84.738281 25.480469 84.953125 25.515625 C 85.125 25.574219 85.339844 25.664062 85.464844 25.6875 C 85.496094 25.699219 85.542969 25.6875 85.59375 25.679688 C 85.519531 25.722656 85.457031 25.777344 85.417969 25.835938 C 85.410156 25.847656 85.433594 25.859375 85.433594 25.859375 L 85.402344 25.933594 C 85.355469 26.050781 85.324219 26.175781 85.300781 26.300781 L 84.765625 26.648438 L 84.710938 26.65625 C 84.710938 26.539062 84.746094 26.410156 84.695312 26.308594 C 84.695312 26.0625 84.703125 25.8125 84.683594 25.570312 L 84.46875 25.5625 L 84.453125 25.648438 C 84.398438 25.53125 84.351562 25.453125 84.300781 25.371094 Z M 86.167969 25.5 L 86.167969 25.507812 C 86.132812 25.523438 86.085938 25.535156 86.035156 25.546875 C 85.980469 25.546875 85.90625 25.558594 85.832031 25.582031 C 85.792969 25.59375 85.746094 25.609375 85.703125 25.628906 C 85.628906 25.65625 85.546875 25.679688 85.480469 25.652344 L 85.078125 25.519531 L 85.066406 25.519531 C 85.433594 25.542969 85.800781 25.570312 86.171875 25.5 Z M 86.152344 25.53125 L 86.132812 25.570312 C 86.121094 25.5625 86.105469 25.554688 86.085938 25.550781 C 86.109375 25.542969 86.132812 25.535156 86.152344 25.527344 Z M 85.289062 26.410156 C 85.277344 26.507812 85.265625 26.605469 85.261719 26.707031 L 84.792969 26.714844 Z M 79.816406 26.5 C 79.960938 26.597656 80.09375 26.65625 80.222656 26.707031 L 80.222656 26.71875 L 79.746094 26.707031 C 79.769531 26.640625 79.792969 26.570312 79.8125 26.5 Z M 85.15625 26.78125 L 85.171875 28.535156 L 84.730469 28.535156 L 84.71875 28.019531 L 84.71875 27.292969 L 84.773438 27.292969 L 84.785156 27.175781 L 84.878906 27.175781 C 84.902344 27.125 84.898438 27.074219 84.878906 27.019531 L 84.785156 27.019531 L 84.769531 26.894531 L 84.71875 26.894531 L 84.71875 26.792969 L 85.152344 26.78125 Z M 79.71875 26.792969 L 79.882812 26.800781 L 79.867188 28.542969 L 79.53125 28.542969 C 79.53125 28.402344 79.5 28.171875 79.539062 28.148438 C 79.617188 28.128906 79.632812 28.078125 79.601562 28 C 79.679688 27.898438 79.746094 27.792969 79.660156 27.648438 C 79.652344 27.503906 79.644531 27.347656 79.636719 27.1875 L 79.667969 27.210938 C 79.683594 27.148438 79.660156 27.09375 79.632812 27.039062 C 79.660156 26.957031 79.6875 26.878906 79.71875 26.796875 Z M 79.929688 26.800781 L 80.246094 26.808594 C 80.28125 27.03125 80.414062 27.222656 80.339844 27.476562 C 80.433594 27.679688 80.46875 27.898438 80.453125 28.125 C 80.484375 28.238281 80.503906 28.34375 80.4375 28.410156 C 80.445312 28.457031 80.457031 28.503906 80.445312 28.542969 L 79.898438 28.542969 L 79.929688 26.804688 Z M 79.265625 26.832031 L 79.265625 26.929688 C 79.21875 26.988281 79.210938 27.035156 79.195312 27.078125 L 79.171875 27.035156 Z M 80.859375 27.285156 L 80.917969 27.285156 C 80.976562 27.460938 80.886719 27.597656 80.972656 27.75 C 80.949219 27.832031 80.972656 27.914062 81.003906 27.996094 C 81.03125 28.089844 81.050781 28.191406 81.148438 28.214844 L 81.148438 28.542969 L 80.824219 28.542969 L 80.773438 28.347656 L 80.792969 28.015625 C 80.8125 27.90625 80.808594 27.828125 80.808594 27.746094 C 80.863281 27.652344 80.875 27.542969 80.824219 27.40625 C 80.804688 27.359375 80.808594 27.320312 80.859375 27.285156 Z M 81.253906 27.3125 C 81.308594 27.320312 81.367188 27.304688 81.425781 27.339844 L 81.445312 27.40625 C 81.394531 27.535156 81.4375 27.671875 81.480469 27.8125 L 81.488281 28.179688 C 81.460938 28.269531 81.433594 28.355469 81.480469 28.460938 C 81.46875 28.503906 81.445312 28.515625 81.425781 28.535156 L 81.4375 28.542969 L 81.21875 28.542969 L 81.21875 28.214844 C 81.273438 28.191406 81.300781 28.144531 81.324219 28.097656 C 81.347656 28.007812 81.351562 27.917969 81.339844 27.835938 C 81.300781 27.664062 81.242188 27.488281 81.25 27.3125 Z M 84.339844 27.324219 L 84.414062 27.324219 L 84.453125 27.363281 L 84.46875 27.425781 L 84.507812 28.539062 L 84.347656 28.539062 L 84.347656 28.390625 C 84.308594 28.390625 84.277344 28.382812 84.28125 28.355469 L 84.304688 27.996094 C 84.363281 27.890625 84.296875 27.847656 84.28125 27.78125 C 84.300781 27.726562 84.308594 27.65625 84.296875 27.570312 C 84.363281 27.519531 84.332031 27.410156 84.339844 27.320312 Z M 83.75 27.339844 C 83.765625 27.453125 83.777344 27.570312 83.832031 27.671875 L 83.863281 27.820312 C 83.832031 27.988281 83.886719 28.019531 83.90625 28.109375 L 83.863281 28.230469 C 83.925781 28.304688 83.960938 28.378906 84.109375 28.285156 L 84.101562 28.347656 C 84.121094 28.375 84.125 28.402344 84.074219 28.429688 L 84.082031 28.542969 L 83.53125 28.542969 L 83.53125 28.496094 C 83.566406 28.394531 83.574219 28.304688 83.546875 28.222656 C 83.535156 28.023438 83.558594 27.832031 83.632812 27.652344 C 83.65625 27.5625 83.589844 27.472656 83.652344 27.355469 Z M 81.671875 27.339844 L 82.515625 27.433594 L 82.523438 28.414062 L 82.453125 28.539062 L 81.648438 28.539062 L 81.65625 28.539062 C 81.628906 28.507812 81.597656 28.476562 81.632812 28.394531 L 81.617188 28.183594 L 81.648438 27.789062 C 81.699219 27.644531 81.734375 27.496094 81.679688 27.339844 Z M 83.285156 27.386719 L 83.292969 27.417969 L 83.226562 27.4375 C 83.160156 27.625 83.171875 27.757812 83.40625 27.726562 L 83.394531 28.214844 C 83.363281 28.292969 83.351562 28.375 83.394531 28.46875 L 83.367188 28.539062 L 82.855469 28.539062 L 82.789062 28.375 L 82.773438 27.550781 L 82.816406 27.515625 L 82.816406 27.4375 L 83.28125 27.386719 Z M 79.277344 27.585938 C 79.304688 27.585938 79.304688 27.621094 79.304688 27.652344 C 79.285156 27.644531 79.273438 27.617188 79.277344 27.585938 Z M 79.019531 27.601562 L 79.039062 27.746094 C 79.105469 27.902344 79.140625 28.082031 79.046875 28.363281 L 79.046875 28.46875 C 79.027344 28.496094 78.988281 28.511719 78.953125 28.527344 L 78.9375 28.394531 L 78.984375 28.007812 L 78.984375 27.675781 L 79.023438 27.601562 Z M 79.453125 28.246094 L 79.46875 28.539062 L 79.316406 28.539062 L 79.316406 28.328125 C 79.371094 28.304688 79.417969 28.292969 79.449219 28.246094 Z M 79.234375 28.445312 L 79.246094 28.539062 L 79.1875 28.539062 C 79.195312 28.503906 79.195312 28.460938 79.234375 28.445312 Z M 79.234375 28.445312" fill-rule="evenodd"/></g><g clip-path="url(#d)"><path fill="#B3B3B3" d="M 59.714844 54.367188 L 105.875 54.367188 L 105.875 55.035156 L 59.714844 55.035156 Z M 59.714844 54.367188"/></g><path transform="matrix(.22192 0 0 .22276 43.959 .013)" fill="none" d="M 94.445296 242.018188 L 94.445296 245.946138 L 92.051425 245.946138 L 92.051425 239.615826 Z M 94.445296 242.018188" stroke="#B78989" stroke-width=".1"/><path transform="matrix(.22192 0 0 .22276 43.959 .013)" fill="none" d="M 94.445296 242.018188 L 94.445296 245.946138 L 92.051425 245.946138 L 92.051425 239.615826 Z M 94.445296 242.018188" stroke="#B78989" stroke-width=".1"/><path transform="matrix(.22192 0 0 .22276 43.959 .013)" fill="#B3B3B3" d="M 266.451965 242.018188 L 266.451965 245.946138 L 264.058094 245.946138 L 264.058094 239.615826 Z M 266.451965 242.018188" stroke="#B3B3B3" stroke-width=".1"/><path transform="matrix(.22192 0 0 .22276 43.959 .013)" fill="#F2F2F2" d="M 79.043552 242.018188 L 79.043552 245.946138 L 81.455025 245.946138 L 81.455025 239.615826 Z M 79.043552 242.018188" stroke="#F2F2F2" stroke-width=".1"/><path transform="matrix(.22192 0 0 .22276 43.959 .013)" fill="#F2F2F2" d="M 94.445296 242.018188 L 94.445296 245.946138 L 92.051425 245.946138 L 92.051425 239.615826 Z M 94.445296 242.018188" stroke="#F2F2F2" stroke-width=".1"/></svg>