<svg xmlns="http://www.w3.org/2000/svg" xmlns:xlink="http://www.w3.org/1999/xlink" width="220" zoomAndPan="magnify" viewBox="0 0 165 82.499998" height="110" preserveAspectRatio="xMidYMid meet" version="1.0"><defs><clipPath id="id1"><path d="M 0.496094 0 L 164.503906 0 L 164.503906 82.003906 L 0.496094 82.003906 Z M 0.496094 0 " clip-rule="nonzero"/></clipPath><clipPath id="id2"><path d="M 44.035156 4 L 120.820312 4 L 120.820312 44 L 44.035156 44 Z M 44.035156 4 " clip-rule="nonzero"/></clipPath></defs><g clip-path="url(#id1)"><path fill="#ffffff" d="M 0.496094 0 L 164.503906 0 L 164.503906 89.457031 L 0.496094 89.457031 Z M 0.496094 0 " fill-opacity="1" fill-rule="nonzero"/><path fill="#ffffff" d="M 0.496094 0 L 164.503906 0 L 164.503906 82.003906 L 0.496094 82.003906 Z M 0.496094 0 " fill-opacity="1" fill-rule="nonzero"/><path fill="#ffffff" d="M 0.496094 0 L 164.503906 0 L 164.503906 82.003906 L 0.496094 82.003906 Z M 0.496094 0 " fill-opacity="1" fill-rule="nonzero"/><path fill="#ffffff" d="M 0.496094 0 L 164.503906 0 L 164.503906 82.003906 L 0.496094 82.003906 Z M 0.496094 0 " fill-opacity="1" fill-rule="nonzero"/></g><path fill="#248bcc" d="M 101.242188 23.371094 C 101.242188 22.210938 102.394531 20.828125 103.628906 20.828125 C 103.753906 20.828125 103.882812 20.824219 104.003906 20.820312 L 104.59375 15.679688 L 102.195312 10.5 C 102.113281 10.324219 102.050781 10.144531 102.007812 9.953125 C 101.964844 9.757812 101.945312 9.5625 101.945312 9.363281 C 101.945312 8.792969 102.121094 8.289062 102.46875 7.84375 L 102.46875 7.859375 C 102.527344 7.78125 102.589844 7.707031 102.660156 7.636719 L 82.464844 0.464844 L 62.277344 7.746094 C 62.308594 7.78125 62.339844 7.820312 62.371094 7.859375 L 62.371094 7.839844 C 62.71875 8.289062 62.894531 8.796875 62.894531 9.363281 C 62.894531 9.5625 62.871094 9.761719 62.832031 9.957031 C 62.789062 10.144531 62.726562 10.328125 62.640625 10.5 L 60.238281 15.703125 L 60.8125 20.820312 C 60.941406 20.820312 61.074219 20.828125 61.210938 20.828125 C 62.445312 20.828125 63.597656 22.210938 63.597656 23.371094 C 63.597656 24.660156 62.386719 25.941406 61.390625 25.960938 L 62.828125 38.734375 L 82.464844 49.339844 L 101.949219 38.734375 L 103.414062 25.960938 C 102.425781 25.914062 101.242188 24.648438 101.242188 23.371094 Z M 90.574219 36.96875 L 87.988281 30.511719 L 77.097656 30.511719 L 74.515625 36.96875 L 69.726562 36.96875 L 82.542969 8.125 L 95.359375 36.96875 Z M 90.574219 36.96875 " fill-opacity="1" fill-rule="nonzero"/><path fill="#248bcc" d="M 78.792969 26.535156 L 86.292969 26.535156 L 82.542969 17.496094 Z M 78.792969 26.535156 " fill-opacity="1" fill-rule="nonzero"/><path fill="#136faa" d="M 93.542969 32.878906 L 95.359375 36.96875 L 90.574219 36.96875 L 87.988281 30.511719 L 77.097656 30.511719 L 74.515625 36.96875 L 69.726562 36.96875 L 76.78125 21.082031 L 62.425781 10.96875 L 60.113281 15.972656 L 60.65625 20.820312 C 60.835938 20.816406 61.019531 20.828125 61.210938 20.828125 C 62.445312 20.828125 63.597656 22.210938 63.597656 23.371094 C 63.597656 24.671875 62.367188 25.960938 61.367188 25.960938 C 61.324219 25.96875 61.28125 25.96875 61.238281 25.96875 L 62.675781 38.734375 L 82.3125 49.339844 L 101.796875 38.734375 L 101.800781 38.691406 Z M 93.542969 32.878906 " fill-opacity="1" fill-rule="nonzero"/><path fill="#136faa" d="M 84.535156 26.535156 L 80.089844 23.40625 L 78.792969 26.535156 Z M 84.535156 26.535156 " fill-opacity="1" fill-rule="nonzero"/><g clip-path="url(#id2)"><path fill="#231f20" d="M 63.597656 23.371094 C 63.597656 24.671875 62.367188 25.960938 61.367188 25.960938 C 61.265625 25.96875 61.160156 25.96875 61.058594 25.960938 C 60.46875 25.960938 60.003906 25.835938 59.574219 25.488281 L 56.628906 23.265625 L 54.277344 28.355469 C 54.417969 28.316406 54.5625 28.289062 54.707031 28.277344 C 54.972656 28.265625 55.628906 28.257812 56.089844 28.691406 C 56.40625 28.992188 56.75 29.515625 57.003906 30.195312 L 60.144531 39.183594 C 60.179688 39.171875 60.210938 39.167969 60.25 39.160156 C 61.671875 38.902344 62.753906 40.058594 62.753906 41.425781 C 62.753906 42.789062 61.484375 43.902344 60.25 43.902344 C 59.5625 43.902344 58.980469 43.660156 58.496094 43.167969 C 58.242188 42.945312 58.019531 42.6875 57.832031 42.40625 L 53.398438 36.125 L 51.046875 39.859375 C 51.476562 40.191406 51.742188 40.691406 51.769531 41.371094 C 51.820312 42.820312 50.585938 43.855469 49.296875 43.875 C 47.855469 43.878906 46.460938 42.539062 46.828125 40.976562 C 46.859375 40.855469 48.988281 32.835938 49.574219 30.648438 L 48.636719 29.4375 L 48.320312 30.542969 C 48.082031 31.359375 47.878906 32.210938 47.65625 32.539062 C 47.375 32.992188 46.96875 33.21875 46.4375 33.214844 C 46.246094 33.214844 46.058594 33.179688 45.882812 33.105469 C 45.707031 33.03125 45.550781 32.925781 45.414062 32.792969 C 45.277344 32.65625 45.171875 32.5 45.101562 32.320312 C 45.027344 32.144531 44.992188 31.957031 44.992188 31.765625 C 44.992188 31.578125 45.027344 31.394531 45.101562 31.222656 C 45.175781 31.046875 45.28125 30.894531 45.417969 30.765625 C 45.554688 30.632812 45.710938 30.535156 45.886719 30.46875 C 46.066406 30.402344 46.246094 30.375 46.4375 30.382812 C 46.574219 30.390625 46.710938 30.410156 46.84375 30.449219 L 47.519531 27.976562 L 47.175781 27.527344 C 46.132812 26.167969 45.511719 25.382812 45.039062 24.480469 C 44.441406 23.328125 44.3125 22.121094 44.648438 20.863281 C 45.171875 18.917969 46.703125 18.460938 47.617188 18.507812 C 48.988281 18.574219 49.816406 19.332031 50.167969 20.203125 C 50.539062 21.140625 50.472656 22.105469 50.304688 22.800781 L 49.109375 27.582031 C 49.480469 28.0625 49.789062 28.566406 50.011719 28.839844 L 52.277344 19.988281 L 47.214844 16.246094 C 44.308594 14.109375 44.332031 10.671875 45.285156 8.8125 C 46.183594 7.035156 47.464844 6.136719 48.578125 5.730469 C 48.824219 5.632812 49.078125 5.550781 49.335938 5.492188 C 49.34375 5.335938 49.347656 5.230469 49.351562 5.183594 C 49.371094 4.953125 49.644531 4.847656 49.875 4.796875 C 50.394531 4.6875 50.539062 4.902344 50.539062 4.980469 L 50.554688 5.289062 C 51.796875 5.152344 54.441406 5.167969 54.441406 5.167969 L 54.433594 5.894531 L 54.433594 7.707031 L 53.382812 7.832031 C 53.210938 7.855469 53.132812 7.957031 53.148438 8.128906 C 53.152344 8.320312 53.253906 8.4375 53.445312 8.472656 C 53.523438 8.5 53.601562 8.515625 53.683594 8.511719 L 53.699219 8.511719 L 56.9375 8.152344 L 56.539062 9.390625 C 55.277344 9.535156 54.285156 9.621094 53.554688 9.660156 L 53.460938 9.660156 C 53.257812 9.660156 53.066406 9.625 52.878906 9.550781 C 52.695312 9.476562 52.53125 9.367188 52.386719 9.226562 C 52.242188 9.089844 52.128906 8.925781 52.050781 8.742188 C 51.96875 8.558594 51.925781 8.367188 51.921875 8.167969 C 51.917969 7.964844 51.949219 7.773438 52.019531 7.585938 C 52.089844 7.394531 52.195312 7.230469 52.332031 7.082031 C 52.46875 6.9375 52.628906 6.820312 52.808594 6.738281 C 52.992188 6.652344 53.183594 6.605469 53.382812 6.597656 L 53.382812 6.296875 C 52.941406 6.308594 52.414062 6.332031 51.828125 6.382812 C 51.761719 6.664062 51.625 6.90625 51.425781 7.113281 C 51.199219 7.351562 50.945312 7.558594 50.667969 7.738281 L 50.683594 8.117188 C 50.664062 8.5 50.671875 8.882812 50.703125 9.265625 C 50.761719 9.792969 51.070312 10.1875 52.210938 10.226562 C 53.292969 10.261719 54.628906 10.050781 54.628906 10.050781 L 54.550781 10.855469 C 54.996094 11.097656 55.429688 11.457031 55.988281 11.957031 C 56.402344 12.347656 56.753906 12.789062 57.042969 13.277344 L 58.410156 10.640625 C 58.101562 10.230469 57.949219 9.769531 57.949219 9.257812 C 57.949219 7.957031 59.140625 6.902344 60.390625 6.902344 C 61.230469 6.902344 61.9375 7.277344 62.371094 7.859375 L 62.371094 7.839844 C 62.71875 8.285156 62.894531 8.792969 62.894531 9.363281 C 62.894531 9.5625 62.875 9.761719 62.832031 9.957031 C 62.789062 10.144531 62.726562 10.328125 62.640625 10.5 L 58.378906 19.71875 L 60.015625 20.953125 C 60.375 20.773438 60.78125 20.828125 61.210938 20.828125 C 62.445312 20.828125 63.597656 22.210938 63.597656 23.371094 Z M 62.230469 23.550781 C 62.25 22.953125 61.875 22.371094 61.089844 22.382812 L 61.074219 22.386719 C 60.761719 22.390625 60.496094 22.5 60.265625 22.710938 L 59.207031 21.925781 L 58.753906 21.589844 L 54.277344 18.277344 L 54.613281 16.855469 L 56.933594 18.617188 C 57.257812 17.136719 57.066406 15.730469 56.355469 14.394531 C 56.027344 13.800781 55.171875 12.464844 53.582031 11.648438 C 53.3125 11.511719 53.039062 11.394531 52.757812 11.292969 C 52.277344 11.3125 51.769531 11.320312 51.347656 11.3125 C 50.121094 11.285156 49.671875 10.53125 49.558594 10.050781 C 49.417969 9.386719 49.339844 8.71875 49.320312 8.039062 C 49.304688 7.707031 49.304688 7.273438 49.304688 6.832031 C 47.675781 7.34375 46.183594 9.027344 46.035156 10.902344 C 45.859375 13.195312 47.109375 14.578125 48.019531 15.257812 L 57.59375 22.382812 L 58.65625 23.167969 L 60.382812 24.457031 C 60.582031 24.59375 60.804688 24.660156 61.050781 24.65625 C 61.136719 24.65625 61.222656 24.644531 61.304688 24.621094 C 61.785156 24.480469 62.214844 23.984375 62.230469 23.550781 Z M 61.367188 10.011719 C 61.445312 9.851562 61.488281 9.679688 61.488281 9.496094 C 61.488281 9.355469 61.464844 9.21875 61.410156 9.085938 C 61.359375 8.957031 61.28125 8.839844 61.183594 8.738281 C 61.085938 8.636719 60.96875 8.558594 60.839844 8.503906 C 60.710938 8.449219 60.574219 8.421875 60.433594 8.421875 C 59.882812 8.421875 59.382812 8.953125 59.382812 9.496094 C 59.382812 9.902344 59.554688 10.210938 59.902344 10.417969 L 57.734375 14.640625 C 57.90625 15.0625 58.035156 15.5 58.117188 15.949219 C 58.183594 16.347656 58.226562 16.617188 58.25 16.800781 Z M 61.234375 41.386719 C 61.234375 41.25 61.207031 41.117188 61.15625 40.988281 C 61.101562 40.859375 61.027344 40.75 60.929688 40.652344 C 60.835938 40.554688 60.722656 40.476562 60.59375 40.425781 C 60.46875 40.371094 60.335938 40.34375 60.199219 40.34375 C 59.820312 40.34375 59.527344 40.480469 59.347656 40.707031 L 59.277344 40.816406 L 58.929688 39.832031 L 58.890625 39.71875 C 57.96875 37.105469 55.726562 30.695312 55.625 30.433594 C 55.496094 30.109375 55.199219 29.5625 54.53125 29.421875 C 54.109375 29.332031 53.875 29.414062 53.761719 29.480469 L 53.074219 30.960938 C 54.078125 30.960938 54.914062 31.796875 54.914062 33.046875 C 54.914062 33.578125 54.613281 34.203125 54.214844 34.847656 L 58.070312 40.304688 L 58.242188 40.550781 L 58.847656 41.394531 C 58.847656 41.394531 59.289062 41.988281 59.472656 42.144531 C 59.675781 42.335938 59.917969 42.433594 60.195312 42.433594 C 60.335938 42.433594 60.464844 42.40625 60.59375 42.351562 C 60.722656 42.300781 60.832031 42.222656 60.929688 42.125 C 61.027344 42.027344 61.101562 41.914062 61.15625 41.785156 C 61.207031 41.660156 61.234375 41.523438 61.234375 41.386719 Z M 51.457031 31.53125 L 55.605469 22.488281 L 53.535156 20.941406 L 48.265625 41.046875 C 48.242188 41.15625 48.230469 41.261719 48.234375 41.371094 C 48.234375 41.949219 48.671875 42.394531 49.324219 42.394531 C 49.964844 42.394531 50.328125 41.804688 50.328125 41.371094 C 50.328125 40.792969 49.886719 40.289062 49.265625 40.304688 L 49.203125 40.304688 L 49.792969 39.382812 L 49.964844 39.109375 L 51.640625 36.480469 L 51.988281 35.9375 L 53.078125 34.226562 C 53.191406 34.035156 53.289062 33.835938 53.363281 33.628906 L 53.363281 33.609375 C 53.378906 33.570312 53.390625 33.527344 53.394531 33.484375 C 53.398438 33.460938 53.40625 33.433594 53.414062 33.410156 C 53.449219 33.199219 53.4375 32.992188 53.382812 32.789062 C 53.328125 32.585938 53.230469 32.402344 53.09375 32.242188 C 52.957031 32.078125 52.796875 31.953125 52.605469 31.863281 C 52.414062 31.773438 52.210938 31.726562 52 31.726562 C 51.742188 31.726562 51.5 31.789062 51.277344 31.921875 Z M 48.910156 22.691406 C 49.25 21.375 48.808594 20.085938 47.683594 19.976562 C 46.78125 19.894531 46.0625 20.84375 46.0625 21.683594 C 46.0625 23.375 47.035156 24.738281 47.410156 25.289062 C 47.503906 25.425781 47.738281 25.730469 48.023438 26.113281 Z M 103.628906 20.828125 C 104.054688 20.828125 104.460938 20.777344 104.824219 20.957031 L 106.457031 19.722656 L 102.195312 10.5 C 102.113281 10.328125 102.050781 10.144531 102.007812 9.957031 C 101.964844 9.761719 101.945312 9.5625 101.945312 9.363281 C 101.945312 8.796875 102.121094 8.289062 102.46875 7.84375 L 102.46875 7.859375 C 102.902344 7.28125 103.609375 6.902344 104.449219 6.902344 C 105.699219 6.902344 106.890625 7.960938 106.890625 9.261719 C 106.890625 9.773438 106.738281 10.234375 106.429688 10.644531 L 107.796875 13.28125 C 108.085938 12.792969 108.4375 12.351562 108.851562 11.960938 C 109.410156 11.460938 109.847656 11.101562 110.285156 10.855469 L 110.210938 10.054688 C 110.210938 10.054688 111.546875 10.265625 112.628906 10.230469 C 113.765625 10.1875 114.078125 9.792969 114.136719 9.269531 C 114.167969 8.886719 114.175781 8.503906 114.15625 8.121094 L 114.171875 7.742188 C 113.894531 7.5625 113.640625 7.355469 113.414062 7.117188 C 113.210938 6.90625 113.078125 6.664062 113.007812 6.382812 C 112.421875 6.328125 111.894531 6.304688 111.453125 6.296875 L 111.453125 6.597656 C 111.65625 6.605469 111.84375 6.652344 112.027344 6.738281 C 112.210938 6.820312 112.367188 6.9375 112.503906 7.082031 C 112.640625 7.230469 112.746094 7.398438 112.816406 7.585938 C 112.886719 7.773438 112.921875 7.964844 112.914062 8.167969 C 112.910156 8.367188 112.867188 8.558594 112.789062 8.742188 C 112.707031 8.925781 112.59375 9.089844 112.453125 9.230469 C 112.308594 9.367188 112.144531 9.476562 111.957031 9.550781 C 111.769531 9.625 111.578125 9.664062 111.378906 9.660156 L 111.28125 9.660156 C 110.550781 9.621094 109.558594 9.535156 108.296875 9.390625 L 107.90625 8.15625 L 111.140625 8.515625 L 111.15625 8.515625 C 111.238281 8.515625 111.316406 8.503906 111.394531 8.472656 C 111.585938 8.4375 111.6875 8.324219 111.691406 8.128906 C 111.707031 7.957031 111.628906 7.859375 111.457031 7.832031 L 110.40625 7.710938 L 110.40625 5.894531 L 110.398438 5.167969 C 110.398438 5.167969 113.042969 5.152344 114.289062 5.289062 L 114.300781 4.980469 C 114.300781 4.90625 114.445312 4.6875 114.964844 4.800781 C 115.195312 4.847656 115.46875 4.953125 115.488281 5.183594 C 115.492188 5.230469 115.496094 5.34375 115.503906 5.492188 C 115.761719 5.554688 116.015625 5.632812 116.261719 5.730469 C 117.375 6.140625 118.65625 7.039062 119.558594 8.8125 C 120.511719 10.671875 120.535156 14.109375 117.632812 16.25 L 112.566406 19.988281 L 114.835938 28.839844 C 115.054688 28.566406 115.367188 28.0625 115.738281 27.582031 L 114.53125 22.800781 C 114.363281 22.109375 114.296875 21.140625 114.667969 20.203125 C 115.019531 19.332031 115.847656 18.574219 117.222656 18.507812 C 118.132812 18.460938 119.664062 18.917969 120.1875 20.863281 C 120.523438 22.121094 120.390625 23.324219 119.792969 24.480469 C 119.324219 25.382812 118.703125 26.167969 117.660156 27.527344 L 117.316406 27.976562 L 117.996094 30.449219 C 118.128906 30.410156 118.265625 30.390625 118.402344 30.382812 C 118.59375 30.375 118.773438 30.402344 118.953125 30.46875 C 119.128906 30.535156 119.285156 30.636719 119.421875 30.765625 C 119.558594 30.898438 119.664062 31.050781 119.738281 31.222656 C 119.8125 31.398438 119.847656 31.578125 119.847656 31.769531 C 119.847656 31.960938 119.8125 32.144531 119.738281 32.320312 C 119.667969 32.5 119.5625 32.65625 119.425781 32.792969 C 119.292969 32.929688 119.132812 33.03125 118.957031 33.105469 C 118.78125 33.179688 118.59375 33.214844 118.402344 33.214844 C 117.871094 33.21875 117.464844 32.992188 117.183594 32.539062 C 116.960938 32.210938 116.757812 31.363281 116.519531 30.542969 L 116.203125 29.4375 L 115.265625 30.652344 C 115.847656 32.839844 117.976562 40.859375 118.007812 40.980469 C 118.375 42.542969 116.980469 43.882812 115.539062 43.878906 C 114.253906 43.859375 113.019531 42.824219 113.070312 41.375 C 113.09375 40.695312 113.363281 40.195312 113.792969 39.863281 L 111.4375 36.132812 L 107.003906 42.410156 C 106.816406 42.695312 106.597656 42.949219 106.339844 43.175781 C 105.859375 43.664062 105.273438 43.910156 104.585938 43.910156 C 103.351562 43.910156 102.085938 42.804688 102.085938 41.429688 C 102.085938 40.058594 103.164062 38.90625 104.589844 39.160156 C 104.625 39.171875 104.660156 39.175781 104.695312 39.1875 L 107.832031 30.203125 C 108.085938 29.523438 108.429688 29 108.746094 28.699219 C 109.203125 28.265625 109.863281 28.273438 110.128906 28.285156 C 110.273438 28.296875 110.417969 28.324219 110.558594 28.363281 L 108.207031 23.273438 L 105.261719 25.496094 C 104.832031 25.84375 104.367188 25.96875 103.777344 25.96875 C 103.675781 25.976562 103.574219 25.976562 103.472656 25.96875 C 102.472656 25.96875 101.246094 24.679688 101.246094 23.378906 C 101.242188 22.210938 102.390625 20.828125 103.628906 20.828125 Z M 103.53125 24.621094 C 103.617188 24.644531 103.699219 24.660156 103.789062 24.660156 C 104.03125 24.664062 104.253906 24.597656 104.457031 24.460938 L 106.179688 23.171875 L 107.242188 22.382812 L 116.816406 15.257812 C 117.726562 14.578125 118.976562 13.195312 118.800781 10.902344 C 118.652344 9.027344 117.160156 7.34375 115.535156 6.832031 C 115.535156 7.273438 115.535156 7.707031 115.519531 8.039062 C 115.5 8.71875 115.421875 9.386719 115.28125 10.050781 C 115.164062 10.535156 114.714844 11.285156 113.488281 11.3125 C 113.066406 11.320312 112.5625 11.3125 112.078125 11.292969 C 111.796875 11.394531 111.523438 11.511719 111.253906 11.648438 C 109.667969 12.464844 108.808594 13.800781 108.480469 14.394531 C 107.773438 15.730469 107.582031 17.136719 107.902344 18.617188 L 110.222656 16.855469 L 110.558594 18.277344 L 106.085938 21.589844 L 105.632812 21.925781 L 104.574219 22.710938 C 104.34375 22.5 104.074219 22.390625 103.765625 22.386719 L 103.75 22.382812 C 102.960938 22.371094 102.589844 22.953125 102.609375 23.550781 C 102.621094 23.984375 103.050781 24.480469 103.53125 24.621094 Z M 106.589844 16.804688 C 106.609375 16.621094 106.652344 16.351562 106.722656 15.949219 C 106.804688 15.503906 106.929688 15.066406 107.105469 14.644531 L 104.933594 10.421875 C 105.28125 10.214844 105.457031 9.90625 105.457031 9.5 C 105.457031 8.960938 104.953125 8.425781 104.40625 8.425781 C 104.261719 8.425781 104.128906 8.453125 103.996094 8.507812 C 103.867188 8.5625 103.753906 8.640625 103.65625 8.742188 C 103.554688 8.84375 103.480469 8.960938 103.425781 9.089844 C 103.375 9.222656 103.347656 9.359375 103.347656 9.5 C 103.351562 9.683594 103.390625 9.855469 103.472656 10.015625 Z M 104.636719 42.433594 C 104.914062 42.433594 105.15625 42.335938 105.359375 42.144531 C 105.542969 41.992188 105.984375 41.394531 105.984375 41.394531 L 106.589844 40.550781 L 106.761719 40.304688 L 110.617188 34.847656 C 110.21875 34.203125 109.917969 33.578125 109.917969 33.046875 C 109.917969 31.796875 110.753906 30.960938 111.757812 30.960938 L 111.078125 29.480469 C 110.96875 29.414062 110.734375 29.332031 110.3125 29.421875 C 109.644531 29.5625 109.34375 30.109375 109.21875 30.433594 C 109.117188 30.695312 106.871094 37.101562 105.953125 39.71875 L 105.914062 39.832031 L 105.554688 40.816406 L 105.488281 40.707031 C 105.304688 40.480469 105.015625 40.34375 104.636719 40.34375 C 104.5 40.34375 104.367188 40.371094 104.238281 40.425781 C 104.109375 40.476562 103.996094 40.554688 103.898438 40.652344 C 103.800781 40.75 103.726562 40.863281 103.671875 40.988281 C 103.621094 41.117188 103.59375 41.25 103.59375 41.390625 C 103.59375 41.527344 103.621094 41.660156 103.671875 41.789062 C 103.726562 41.917969 103.800781 42.03125 103.898438 42.128906 C 103.996094 42.226562 104.109375 42.300781 104.238281 42.355469 C 104.367188 42.40625 104.5 42.433594 104.636719 42.433594 Z M 113.554688 31.925781 C 113.445312 31.863281 113.328125 31.816406 113.207031 31.78125 C 113.085938 31.75 112.964844 31.734375 112.835938 31.734375 C 112.710938 31.734375 112.585938 31.75 112.464844 31.78125 C 112.34375 31.8125 112.226562 31.863281 112.121094 31.925781 C 112.011719 31.988281 111.910156 32.0625 111.820312 32.152344 C 111.730469 32.242188 111.65625 32.339844 111.59375 32.449219 C 111.53125 32.558594 111.480469 32.671875 111.449219 32.796875 C 111.414062 32.917969 111.398438 33.039062 111.398438 33.167969 C 111.398438 33.25 111.402344 33.332031 111.417969 33.414062 C 111.425781 33.441406 111.433594 33.464844 111.4375 33.492188 C 111.445312 33.535156 111.457031 33.574219 111.46875 33.613281 L 111.46875 33.632812 C 111.546875 33.84375 111.640625 34.042969 111.757812 34.230469 L 112.84375 35.941406 L 113.191406 36.484375 L 114.867188 39.117188 L 115.039062 39.390625 L 115.628906 40.3125 L 115.566406 40.3125 C 114.949219 40.292969 114.507812 40.800781 114.507812 41.378906 C 114.507812 41.808594 114.867188 42.402344 115.507812 42.402344 C 116.164062 42.402344 116.597656 41.957031 116.597656 41.378906 C 116.601562 41.269531 116.589844 41.160156 116.566406 41.054688 L 111.304688 20.941406 L 109.230469 22.488281 L 113.378906 31.53125 Z M 116.8125 26.117188 C 117.101562 25.734375 117.335938 25.429688 117.429688 25.289062 C 117.804688 24.742188 118.777344 23.375 118.777344 21.6875 C 118.777344 20.847656 118.058594 19.898438 117.15625 19.980469 C 116.027344 20.085938 115.585938 21.378906 115.929688 22.695312 Z M 116.8125 26.117188 " fill-opacity="1" fill-rule="nonzero"/></g><path fill="#1d1f21" d="M 50.066406 66.296875 L 52.632812 52.042969 C 52.644531 51.984375 52.675781 51.957031 52.738281 51.960938 L 55.742188 51.960938 C 55.800781 51.957031 55.835938 51.984375 55.84375 52.042969 L 58.308594 66.296875 C 58.324219 66.367188 58.296875 66.402344 58.226562 66.402344 L 55.925781 66.402344 C 55.871094 66.402344 55.835938 66.367188 55.820312 66.296875 L 55.589844 64.78125 L 52.78125 64.78125 L 52.550781 66.296875 C 52.535156 66.367188 52.5 66.402344 52.445312 66.402344 L 50.144531 66.402344 C 50.09375 66.402344 50.066406 66.367188 50.066406 66.296875 Z M 53.191406 62.5625 L 55.179688 62.5625 L 54.332031 56.730469 L 54.207031 55.964844 L 54.125 56.730469 Z M 59.800781 66.402344 C 59.6875 66.402344 59.632812 66.351562 59.632812 66.257812 L 59.613281 52.125 C 59.605469 52.078125 59.621094 52.035156 59.65625 52 C 59.691406 51.96875 59.730469 51.953125 59.78125 51.960938 L 61.644531 51.960938 L 65.144531 60.136719 L 65.039062 52.125 C 65.039062 52.015625 65.101562 51.960938 65.226562 51.960938 L 67.277344 51.960938 C 67.359375 51.960938 67.402344 52.015625 67.402344 52.125 L 67.421875 66.277344 C 67.421875 66.359375 67.386719 66.402344 67.320312 66.402344 L 65.496094 66.402344 L 61.914062 58.765625 L 62.058594 66.234375 C 62.058594 66.347656 61.996094 66.402344 61.871094 66.402344 Z M 73.011719 66.609375 C 72.285156 66.617188 71.605469 66.429688 70.984375 66.046875 C 70.371094 65.671875 69.882812 65.171875 69.527344 64.542969 C 69.152344 63.894531 68.96875 63.191406 68.976562 62.4375 L 68.976562 55.859375 C 68.972656 55.125 69.152344 54.4375 69.523438 53.796875 C 69.886719 53.171875 70.375 52.667969 70.996094 52.292969 C 71.613281 51.914062 72.289062 51.726562 73.011719 51.734375 C 73.75 51.722656 74.4375 51.90625 75.074219 52.285156 C 75.703125 52.65625 76.199219 53.164062 76.554688 53.804688 C 76.914062 54.445312 77.085938 55.128906 77.074219 55.863281 L 77.074219 56.816406 C 77.074219 56.871094 77.039062 56.902344 76.96875 56.902344 L 74.648438 56.902344 C 74.589844 56.90625 74.5625 56.878906 74.566406 56.816406 L 74.566406 56.027344 C 74.566406 55.5 74.417969 55.066406 74.121094 54.71875 C 73.835938 54.367188 73.464844 54.195312 73.011719 54.203125 C 72.613281 54.203125 72.257812 54.367188 71.945312 54.699219 C 71.632812 55.023438 71.476562 55.410156 71.480469 55.863281 L 71.480469 62.4375 C 71.472656 62.890625 71.625 63.28125 71.9375 63.609375 C 72.222656 63.9375 72.578125 64.097656 73.011719 64.097656 C 73.453125 64.109375 73.820312 63.949219 74.117188 63.621094 C 74.429688 63.289062 74.578125 62.894531 74.5625 62.4375 L 74.5625 61.421875 L 73.113281 61.421875 C 73.03125 61.433594 73 61.398438 73.011719 61.316406 L 73.011719 58.992188 C 73 58.914062 73.03125 58.878906 73.113281 58.890625 L 76.988281 58.890625 C 77.042969 58.890625 77.070312 58.925781 77.070312 58.992188 L 77.070312 62.4375 C 77.078125 63.191406 76.898438 63.890625 76.519531 64.542969 C 76.164062 65.171875 75.679688 65.671875 75.0625 66.046875 C 74.433594 66.433594 73.75 66.621094 73.011719 66.609375 Z M 82.480469 66.609375 C 81.746094 66.613281 81.070312 66.421875 80.449219 66.039062 C 79.824219 65.660156 79.332031 65.148438 78.96875 64.511719 C 78.59375 63.863281 78.414062 63.167969 78.417969 62.417969 L 78.460938 52.042969 C 78.457031 51.984375 78.484375 51.953125 78.542969 51.960938 L 80.863281 51.960938 C 80.921875 51.953125 80.949219 51.984375 80.945312 52.042969 L 80.945312 62.417969 C 80.933594 62.875 81.082031 63.273438 81.390625 63.609375 C 81.679688 63.941406 82.042969 64.101562 82.480469 64.097656 C 82.921875 64.105469 83.292969 63.941406 83.585938 63.609375 C 83.894531 63.269531 84.042969 62.871094 84.03125 62.414062 L 84.03125 52.039062 C 84.027344 51.980469 84.054688 51.953125 84.113281 51.957031 L 86.433594 51.957031 C 86.496094 51.953125 86.523438 51.980469 86.515625 52.039062 L 86.558594 62.414062 C 86.566406 63.15625 86.390625 63.851562 86.027344 64.5 C 85.667969 65.148438 85.171875 65.664062 84.539062 66.046875 C 83.90625 66.429688 83.21875 66.617188 82.480469 66.609375 Z M 88.277344 66.402344 C 88.222656 66.402344 88.195312 66.367188 88.195312 66.296875 L 88.21875 52.0625 C 88.207031 51.984375 88.242188 51.949219 88.324219 51.960938 L 90.625 51.960938 C 90.707031 51.949219 90.738281 51.984375 90.726562 52.0625 L 90.707031 63.847656 L 94.96875 63.847656 C 95.050781 63.835938 95.085938 63.871094 95.074219 63.953125 L 95.074219 66.296875 C 95.085938 66.378906 95.050781 66.414062 94.96875 66.402344 Z M 95.714844 66.296875 L 98.28125 52.042969 C 98.289062 51.984375 98.324219 51.953125 98.386719 51.960938 L 101.386719 51.960938 C 101.449219 51.957031 101.484375 51.984375 101.492188 52.042969 L 103.957031 66.296875 C 103.96875 66.367188 103.941406 66.402344 103.875 66.402344 L 101.574219 66.402344 C 101.515625 66.402344 101.480469 66.367188 101.46875 66.296875 L 101.238281 64.78125 L 98.425781 64.78125 L 98.195312 66.296875 C 98.183594 66.367188 98.148438 66.402344 98.09375 66.402344 L 95.792969 66.402344 C 95.738281 66.402344 95.714844 66.367188 95.714844 66.296875 Z M 98.839844 62.5625 L 100.828125 62.5625 L 99.980469 56.730469 L 99.855469 55.964844 L 99.773438 56.730469 Z M 105.34375 66.402344 C 105.289062 66.402344 105.261719 66.367188 105.261719 66.296875 L 105.300781 52.042969 C 105.296875 51.984375 105.324219 51.953125 105.386719 51.960938 L 109.570312 51.960938 C 110.304688 51.953125 110.992188 52.136719 111.628906 52.511719 C 112.257812 52.871094 112.757812 53.363281 113.132812 53.984375 C 113.433594 54.511719 113.613281 55.074219 113.671875 55.679688 C 113.730469 56.285156 113.660156 56.875 113.460938 57.449219 C 113.332031 57.820312 113.152344 58.164062 112.925781 58.484375 C 112.765625 58.71875 112.578125 58.929688 112.367188 59.117188 C 113.128906 59.945312 113.5 60.921875 113.484375 62.042969 L 113.503906 66.296875 C 113.519531 66.378906 113.484375 66.414062 113.402344 66.402344 L 111.058594 66.402344 C 111.003906 66.402344 110.976562 66.378906 110.976562 66.339844 L 110.976562 62.042969 C 110.984375 61.539062 110.804688 61.105469 110.449219 60.746094 C 110.097656 60.371094 109.667969 60.1875 109.15625 60.199219 L 107.789062 60.199219 L 107.765625 66.296875 C 107.765625 66.367188 107.738281 66.402344 107.683594 66.402344 Z M 107.789062 57.707031 L 109.570312 57.707031 C 110.015625 57.707031 110.394531 57.546875 110.707031 57.230469 C 110.867188 57.082031 110.988281 56.90625 111.074219 56.707031 C 111.160156 56.507812 111.207031 56.296875 111.207031 56.078125 C 111.207031 55.863281 111.164062 55.652344 111.082031 55.453125 C 110.996094 55.25 110.875 55.074219 110.71875 54.925781 C 110.402344 54.601562 110.019531 54.441406 109.566406 54.449219 L 107.789062 54.449219 Z M 107.789062 57.707031 " fill-opacity="1" fill-rule="nonzero"/><path fill="#136faa" d="M 62.5 81.464844 C 62.445312 81.46875 62.421875 81.441406 62.425781 81.386719 L 62.441406 79.628906 L 66.386719 72.074219 L 62.644531 72.074219 C 62.597656 72.082031 62.574219 72.0625 62.582031 72.011719 L 62.582031 70.3125 C 62.582031 70.261719 62.601562 70.234375 62.644531 70.234375 L 68.476562 70.234375 C 68.535156 70.226562 68.5625 70.253906 68.554688 70.3125 L 68.554688 72.054688 L 64.625 79.574219 L 68.507812 79.574219 C 68.550781 79.574219 68.574219 79.601562 68.574219 79.652344 L 68.589844 81.378906 C 68.59375 81.4375 68.566406 81.464844 68.507812 81.457031 Z M 72.570312 81.625 C 72.003906 81.628906 71.476562 81.480469 70.992188 81.183594 C 70.507812 80.886719 70.121094 80.492188 69.839844 79.996094 C 69.550781 79.492188 69.410156 78.949219 69.414062 78.367188 L 69.445312 70.296875 C 69.441406 70.246094 69.460938 70.222656 69.511719 70.230469 L 71.3125 70.230469 C 71.363281 70.222656 71.382812 70.246094 71.378906 70.296875 L 71.378906 78.367188 C 71.367188 78.722656 71.484375 79.03125 71.722656 79.292969 C 71.945312 79.550781 72.226562 79.675781 72.566406 79.671875 C 72.914062 79.679688 73.199219 79.554688 73.429688 79.292969 C 73.667969 79.03125 73.785156 78.722656 73.773438 78.367188 L 73.773438 70.296875 C 73.769531 70.246094 73.789062 70.222656 73.839844 70.230469 L 75.644531 70.230469 C 75.695312 70.222656 75.714844 70.246094 75.707031 70.296875 L 75.742188 78.367188 C 75.746094 78.941406 75.609375 79.480469 75.328125 79.984375 C 75.046875 80.488281 74.660156 80.890625 74.167969 81.191406 C 73.679688 81.488281 73.144531 81.632812 72.570312 81.625 Z M 77.078125 81.464844 C 77.035156 81.464844 77.015625 81.4375 77.015625 81.386719 L 77.046875 70.300781 C 77.039062 70.25 77.0625 70.226562 77.113281 70.234375 L 80.367188 70.234375 C 80.941406 70.230469 81.472656 70.375 81.96875 70.664062 C 82.457031 70.945312 82.847656 71.328125 83.136719 71.808594 C 83.628906 72.667969 83.714844 73.566406 83.394531 74.503906 C 83.292969 74.792969 83.152344 75.0625 82.976562 75.3125 C 82.851562 75.492188 82.703125 75.65625 82.539062 75.804688 C 83.132812 76.445312 83.421875 77.203125 83.410156 78.078125 L 83.425781 81.386719 C 83.429688 81.445312 83.402344 81.472656 83.34375 81.464844 L 81.527344 81.464844 C 81.480469 81.464844 81.460938 81.449219 81.460938 81.414062 L 81.460938 78.074219 C 81.464844 77.679688 81.328125 77.34375 81.050781 77.066406 C 80.777344 76.773438 80.441406 76.632812 80.042969 76.640625 L 78.980469 76.640625 L 78.964844 81.382812 C 78.964844 81.433594 78.941406 81.460938 78.898438 81.460938 Z M 78.980469 74.703125 L 80.367188 74.703125 C 80.714844 74.699219 81.007812 74.578125 81.253906 74.332031 C 81.375 74.214844 81.46875 74.078125 81.535156 73.921875 C 81.605469 73.765625 81.636719 73.605469 81.636719 73.4375 C 81.640625 73.265625 81.605469 73.105469 81.542969 72.949219 C 81.476562 72.792969 81.382812 72.65625 81.261719 72.539062 C 81.015625 72.289062 80.71875 72.164062 80.367188 72.164062 L 78.980469 72.164062 Z M 84.859375 81.464844 C 84.800781 81.472656 84.773438 81.445312 84.78125 81.386719 L 84.796875 70.300781 C 84.789062 70.25 84.808594 70.226562 84.859375 70.234375 L 86.664062 70.234375 C 86.714844 70.226562 86.734375 70.25 86.730469 70.300781 L 86.746094 81.386719 C 86.746094 81.4375 86.722656 81.464844 86.679688 81.464844 Z M 91.125 81.625 C 90.550781 81.632812 90.015625 81.484375 89.523438 81.183594 C 89.042969 80.886719 88.664062 80.488281 88.386719 79.996094 C 88.101562 79.480469 87.960938 78.925781 87.96875 78.332031 L 87.984375 73.296875 C 87.980469 72.722656 88.117188 72.179688 88.394531 71.675781 C 88.667969 71.183594 89.046875 70.792969 89.523438 70.496094 C 90.015625 70.203125 90.546875 70.054688 91.121094 70.054688 C 91.695312 70.054688 92.226562 70.199219 92.722656 70.488281 C 93.207031 70.789062 93.589844 71.1875 93.863281 71.6875 C 94.140625 72.191406 94.273438 72.726562 94.269531 73.296875 L 94.269531 74.039062 C 94.273438 74.089844 94.253906 74.113281 94.203125 74.105469 L 92.398438 74.105469 C 92.347656 74.113281 92.328125 74.089844 92.335938 74.039062 L 92.335938 73.296875 C 92.339844 72.945312 92.226562 72.636719 91.988281 72.375 C 91.761719 72.113281 91.472656 71.984375 91.125 71.992188 C 90.738281 71.992188 90.445312 72.125 90.242188 72.386719 C 90.03125 72.65625 89.929688 72.957031 89.933594 73.296875 L 89.933594 78.335938 C 89.933594 78.730469 90.050781 79.054688 90.28125 79.300781 C 90.503906 79.554688 90.785156 79.679688 91.125 79.671875 C 91.480469 79.679688 91.765625 79.539062 91.984375 79.261719 C 92.21875 78.996094 92.332031 78.6875 92.332031 78.335938 L 92.332031 77.589844 C 92.324219 77.542969 92.347656 77.519531 92.398438 77.527344 L 94.21875 77.527344 C 94.265625 77.519531 94.289062 77.542969 94.28125 77.589844 L 94.28125 78.335938 C 94.289062 78.925781 94.148438 79.480469 93.855469 79.996094 C 93.578125 80.488281 93.199219 80.882812 92.71875 81.183594 C 92.230469 81.484375 91.699219 81.632812 91.125 81.625 Z M 95.523438 81.464844 C 95.480469 81.464844 95.460938 81.4375 95.460938 81.386719 L 95.476562 70.300781 C 95.476562 70.257812 95.5 70.234375 95.550781 70.234375 L 97.347656 70.234375 C 97.398438 70.234375 97.425781 70.257812 97.425781 70.300781 L 97.410156 74.691406 L 99.824219 74.691406 L 99.824219 70.296875 C 99.816406 70.246094 99.839844 70.222656 99.890625 70.230469 L 101.679688 70.230469 C 101.730469 70.230469 101.753906 70.253906 101.753906 70.296875 L 101.785156 81.382812 C 101.792969 81.4375 101.765625 81.464844 101.710938 81.460938 L 99.90625 81.460938 C 99.847656 81.46875 99.820312 81.441406 99.824219 81.382812 L 99.824219 76.640625 L 97.410156 76.640625 L 97.410156 81.386719 C 97.410156 81.4375 97.386719 81.464844 97.34375 81.464844 Z M 95.523438 81.464844 " fill-opacity="1" fill-rule="nonzero"/></svg>