<?xml version="1.0" encoding="UTF-8"?>
<svg xmlns="http://www.w3.org/2000/svg" xmlns:xlink="http://www.w3.org/1999/xlink" width="165pt" height="82.499998pt" viewBox="0 0 165 82.499998" version="1.2">
<defs>
<clipPath id="clip1">
  <path d="M 0.496094 0 L 164.503906 0 L 164.503906 82.003906 L 0.496094 82.003906 Z M 0.496094 0 "/>
</clipPath>
<clipPath id="clip2">
  <path d="M 8.699219 23.09375 L 74 23.09375 L 74 45 L 8.699219 45 Z M 8.699219 23.09375 "/>
</clipPath>
<clipPath id="clip3">
  <path d="M 123 37 L 156.300781 37 L 156.300781 58.839844 L 123 58.839844 Z M 123 37 "/>
</clipPath>
</defs>
<g id="surface1">
<g clip-path="url(#clip1)" clip-rule="nonzero">
<path style=" stroke:none;fill-rule:nonzero;fill:rgb(100%,100%,100%);fill-opacity:1;" d="M 0.496094 0 L 164.503906 0 L 164.503906 529.292969 L 0.496094 529.292969 Z M 0.496094 0 "/>
<path style=" stroke:none;fill-rule:nonzero;fill:rgb(100%,100%,100%);fill-opacity:1;" d="M 0.496094 0 L 164.503906 0 L 164.503906 82.003906 L 0.496094 82.003906 Z M 0.496094 0 "/>
<path style=" stroke:none;fill-rule:nonzero;fill:rgb(100%,100%,100%);fill-opacity:1;" d="M 0.496094 0 L 164.503906 0 L 164.503906 82.003906 L 0.496094 82.003906 Z M 0.496094 0 "/>
</g>
<g clip-path="url(#clip2)" clip-rule="nonzero">
<path style=" stroke:none;fill-rule:evenodd;fill:rgb(98.81897%,10.198975%,43.919373%);fill-opacity:1;" d="M 8.699219 23.09375 L 73.359375 23.09375 L 73.359375 44.601562 L 8.699219 44.601562 Z M 8.699219 23.09375 "/>
</g>
<path style=" stroke:none;fill-rule:evenodd;fill:rgb(15.689087%,16.079712%,13.729858%);fill-opacity:1;" d="M 18.371094 33.398438 C 19.441406 33.117188 20.132812 32.515625 20.132812 31.472656 C 20.132812 30.109375 18.949219 29.25 17.460938 29.25 L 13.355469 29.25 L 13.355469 37.84375 L 17.722656 37.84375 C 19.234375 37.84375 20.328125 36.886719 20.328125 35.472656 C 20.328125 34.269531 19.542969 33.632812 18.371094 33.398438 Z M 15.726562 31.140625 L 16.8125 31.140625 C 17.476562 31.140625 17.792969 31.398438 17.792969 31.863281 C 17.792969 32.355469 17.425781 32.589844 16.738281 32.589844 L 15.726562 32.589844 Z M 16.8125 35.941406 L 15.726562 35.941406 L 15.726562 34.367188 L 16.945312 34.367188 C 17.648438 34.367188 17.992188 34.613281 17.992188 35.117188 C 17.992188 35.65625 17.585938 35.941406 16.8125 35.941406 Z M 24.804688 31.398438 C 22.824219 31.398438 21.335938 32.6875 21.335938 34.675781 C 21.335938 36.703125 22.824219 38.003906 24.804688 38.003906 C 26.785156 38.003906 28.261719 36.703125 28.261719 34.675781 C 28.261719 32.6875 26.785156 31.398438 24.804688 31.398438 Z M 24.792969 33.191406 C 25.582031 33.191406 26.085938 33.769531 26.085938 34.675781 C 26.085938 35.609375 25.582031 36.210938 24.792969 36.210938 C 24.019531 36.210938 23.515625 35.609375 23.515625 34.675781 C 23.515625 33.769531 24.019531 33.191406 24.792969 33.191406 Z M 33.992188 36.050781 L 33.992188 29.25 L 29.8125 29.25 L 29.8125 31.042969 L 31.851562 31.042969 L 31.851562 36.050781 L 29.417969 36.050781 L 29.417969 37.84375 L 36.539062 37.84375 L 36.539062 36.050781 Z M 41.042969 31.398438 C 39.0625 31.398438 37.574219 32.6875 37.574219 34.675781 C 37.574219 36.703125 39.0625 38.003906 41.042969 38.003906 C 43.019531 38.003906 44.496094 36.703125 44.496094 34.675781 C 44.496094 32.6875 43.019531 31.398438 41.042969 31.398438 Z M 41.027344 33.191406 C 41.816406 33.191406 42.320312 33.769531 42.320312 34.675781 C 42.320312 35.609375 41.816406 36.210938 41.027344 36.210938 C 40.253906 36.210938 39.75 35.609375 39.75 34.675781 C 39.75 33.769531 40.253906 33.191406 41.027344 33.191406 Z M 50.328125 31.558594 L 50.328125 32.195312 L 50.316406 32.195312 C 50.042969 31.804688 49.429688 31.398438 48.480469 31.398438 C 46.847656 31.398438 45.714844 32.601562 45.714844 34.492188 C 45.714844 36.382812 46.835938 37.597656 48.480469 37.597656 C 49.417969 37.597656 50.058594 37.191406 50.316406 36.800781 L 50.328125 36.800781 L 50.328125 37.890625 C 50.339844 38.433594 49.824219 38.800781 49.183594 38.800781 C 48.59375 38.800781 48.113281 38.492188 47.992188 37.953125 L 45.8125 37.953125 C 45.972656 39.671875 47.449219 40.46875 49.144531 40.46875 C 51.140625 40.46875 52.480469 39.367188 52.480469 37.71875 L 52.480469 31.558594 Z M 49.132812 35.804688 C 48.382812 35.804688 47.890625 35.289062 47.890625 34.492188 C 47.890625 33.707031 48.382812 33.191406 49.132812 33.191406 C 49.882812 33.191406 50.363281 33.65625 50.363281 34.394531 L 50.363281 34.46875 C 50.351562 35.277344 49.871094 35.804688 49.132812 35.804688 Z M 58.25 31.398438 C 57.289062 31.398438 56.601562 31.730469 56.207031 32.492188 L 56.207031 31.558594 L 54.054688 31.558594 L 54.054688 37.84375 L 56.207031 37.84375 L 56.207031 34.726562 C 56.207031 33.71875 56.761719 33.3125 57.410156 33.3125 C 57.964844 33.3125 58.371094 33.753906 58.371094 34.515625 L 58.371094 37.84375 L 60.523438 37.84375 L 60.523438 33.890625 C 60.523438 32.429688 59.6875 31.398438 58.25 31.398438 Z M 64.804688 38.003906 C 65.554688 38.003906 66.195312 37.71875 66.527344 37.117188 L 66.550781 37.117188 L 66.550781 37.84375 L 68.703125 37.84375 L 68.703125 31.558594 L 66.550781 31.558594 L 66.550781 32.195312 L 66.539062 32.195312 C 66.179688 31.582031 65.46875 31.398438 64.839844 31.398438 C 63.15625 31.398438 61.875 32.699219 61.875 34.675781 C 61.875 36.664062 63.179688 38.003906 64.804688 38.003906 Z M 65.320312 33.191406 C 66.09375 33.191406 66.625 33.753906 66.625 34.628906 L 66.625 34.699219 C 66.625 35.621094 66.09375 36.210938 65.320312 36.210938 C 64.546875 36.210938 64.054688 35.621094 64.054688 34.6875 C 64.054688 33.78125 64.519531 33.191406 65.320312 33.191406 Z M 65.320312 33.191406 "/>
<path style=" stroke:none;fill-rule:evenodd;fill:rgb(64.309692%,89.408875%,0%);fill-opacity:1;" d="M 73.359375 30.167969 L 123.792969 30.167969 L 123.792969 51.679688 L 73.359375 51.679688 Z M 73.359375 30.167969 "/>
<path style=" stroke:none;fill-rule:evenodd;fill:rgb(15.689087%,16.079712%,13.729858%);fill-opacity:1;" d="M 86.652344 38.570312 L 86.652344 36.546875 L 79.644531 36.546875 L 79.644531 45.140625 L 82.015625 45.140625 L 82.015625 42.179688 L 86.371094 42.179688 L 86.371094 40.15625 L 82.015625 40.15625 L 82.015625 38.570312 Z M 91.390625 42.609375 C 91.390625 41.320312 91.550781 40.671875 94.511719 40.878906 L 94.511719 38.695312 C 92.753906 38.695312 91.84375 39.160156 91.390625 39.972656 L 91.390625 38.855469 L 87.996094 38.855469 L 87.996094 40.644531 L 89.238281 40.644531 L 89.238281 43.347656 L 87.996094 43.347656 L 87.996094 45.140625 L 93.824219 45.140625 L 93.824219 43.347656 L 91.390625 43.347656 Z M 99.285156 38.695312 C 97.304688 38.695312 95.816406 39.984375 95.816406 41.972656 C 95.816406 43.996094 97.304688 45.300781 99.285156 45.300781 C 101.265625 45.300781 102.742188 43.996094 102.742188 41.972656 C 102.742188 39.984375 101.265625 38.695312 99.285156 38.695312 Z M 99.273438 40.488281 C 100.0625 40.488281 100.566406 41.0625 100.566406 41.972656 C 100.566406 42.90625 100.0625 43.507812 99.273438 43.507812 C 98.5 43.507812 97.996094 42.90625 97.996094 41.972656 C 97.996094 41.0625 98.5 40.488281 99.273438 40.488281 Z M 108.375 38.695312 C 107.414062 38.695312 106.726562 39.027344 106.332031 39.785156 L 106.332031 38.855469 L 104.179688 38.855469 L 104.179688 45.140625 L 106.332031 45.140625 L 106.332031 42.019531 C 106.332031 41.015625 106.886719 40.609375 107.539062 40.609375 C 108.09375 40.609375 108.5 41.050781 108.5 41.8125 L 108.5 45.140625 L 110.652344 45.140625 L 110.652344 41.1875 C 110.652344 39.726562 109.8125 38.695312 108.375 38.695312 Z M 119.136719 40.644531 L 119.136719 38.855469 L 115.679688 38.855469 L 115.679688 36.953125 L 113.527344 36.953125 L 113.527344 37.46875 C 113.527344 38.4375 113.308594 38.855469 112.507812 38.855469 L 111.734375 38.855469 L 111.734375 40.644531 L 113.527344 40.644531 L 113.527344 42.746094 C 113.527344 44.167969 114.84375 45.300781 116.777344 45.300781 C 117.355469 45.300781 117.710938 45.261719 118.730469 44.929688 L 118.730469 43.039062 C 117.6875 43.53125 117.355469 43.53125 117.046875 43.53125 C 116.160156 43.53125 115.679688 43.222656 115.679688 42.574219 L 115.679688 40.644531 Z M 119.136719 40.644531 "/>
<g clip-path="url(#clip3)" clip-rule="nonzero">
<path style=" stroke:none;fill-rule:evenodd;fill:rgb(38.42926%,84.709167%,94.509888%);fill-opacity:1;" d="M 123.792969 37.242188 L 156.121094 37.242188 L 156.121094 58.753906 L 123.792969 58.753906 Z M 123.792969 37.242188 "/>
</g>
<path style=" stroke:none;fill-rule:evenodd;fill:rgb(15.689087%,16.079712%,13.729858%);fill-opacity:1;" d="M 135.15625 45.867188 L 135.15625 43.84375 L 128.640625 43.84375 L 128.640625 52.433594 L 135.15625 52.433594 L 135.15625 50.410156 L 131.011719 50.410156 L 131.011719 49.144531 L 134.738281 49.144531 L 134.738281 47.121094 L 131.011719 47.121094 L 131.011719 45.867188 Z M 141.011719 45.992188 C 140.054688 45.992188 139.363281 46.320312 138.972656 47.082031 L 138.972656 46.148438 L 136.820312 46.148438 L 136.820312 52.433594 L 138.972656 52.433594 L 138.972656 49.316406 C 138.972656 48.3125 139.523438 47.90625 140.175781 47.90625 C 140.730469 47.90625 141.136719 48.347656 141.136719 49.109375 L 141.136719 52.433594 L 143.289062 52.433594 L 143.289062 48.484375 C 143.289062 47.023438 142.453125 45.992188 141.011719 45.992188 Z M 147.445312 52.59375 C 148.195312 52.59375 148.835938 52.3125 149.289062 51.710938 L 149.316406 51.710938 L 149.316406 52.433594 L 151.46875 52.433594 L 151.46875 43.84375 L 149.316406 43.84375 L 149.316406 46.789062 L 149.300781 46.789062 C 148.824219 46.175781 148.109375 45.992188 147.480469 45.992188 C 145.796875 45.992188 144.640625 47.292969 144.640625 49.269531 C 144.640625 51.257812 145.820312 52.59375 147.445312 52.59375 Z M 148.085938 47.78125 C 148.859375 47.78125 149.386719 48.347656 149.386719 49.21875 L 149.386719 49.292969 C 149.386719 50.214844 148.859375 50.800781 148.085938 50.800781 C 147.308594 50.800781 146.816406 50.214844 146.816406 49.28125 C 146.816406 48.371094 147.285156 47.78125 148.085938 47.78125 Z M 148.085938 47.78125 "/>
</g>
</svg>
