<?xml version="1.0" encoding="UTF-8"?>
<svg xmlns="http://www.w3.org/2000/svg" xmlns:xlink="http://www.w3.org/1999/xlink" width="165pt" height="82.499998pt" viewBox="0 0 165 82.499998" version="1.2">
<defs>
<clipPath id="clip1">
  <path d="M 0.496094 0 L 164.503906 0 L 164.503906 82.003906 L 0.496094 82.003906 Z M 0.496094 0 "/>
</clipPath>
<clipPath id="clip2">
  <path d="M 94 40 L 118 40 L 118 73.804688 L 94 73.804688 Z M 94 40 "/>
</clipPath>
<clipPath id="clip3">
  <path d="M 71 41 L 92 41 L 92 73.804688 L 71 73.804688 Z M 71 41 "/>
</clipPath>
<clipPath id="clip4">
  <path d="M 46.632812 8.199219 L 70 8.199219 L 70 73.804688 L 46.632812 73.804688 Z M 46.632812 8.199219 "/>
</clipPath>
</defs>
<g id="surface1">
<g clip-path="url(#clip1)" clip-rule="nonzero">
<path style=" stroke:none;fill-rule:nonzero;fill:rgb(100%,100%,100%);fill-opacity:1;" d="M 0.496094 0 L 164.503906 0 L 164.503906 82.003906 L 0.496094 82.003906 Z M 0.496094 0 "/>
<path style=" stroke:none;fill-rule:nonzero;fill:rgb(100%,100%,100%);fill-opacity:1;" d="M 0.496094 0 L 164.503906 0 L 164.503906 82.003906 L 0.496094 82.003906 Z M 0.496094 0 "/>
</g>
<g clip-path="url(#clip2)" clip-rule="nonzero">
<path style=" stroke:none;fill-rule:evenodd;fill:rgb(18.03894%,18.03894%,17.248535%);fill-opacity:1;" d="M 94.902344 66.949219 L 100.25 63.839844 C 100.765625 64.492188 101.207031 65.148438 101.746094 65.707031 C 103.773438 67.820312 106.242188 68.296875 108.976562 67.492188 C 110.105469 67.164062 110.964844 66.4375 111.222656 65.214844 C 111.445312 64.179688 111.261719 63.199219 110.472656 62.453125 C 110.007812 62.011719 109.472656 61.609375 108.898438 61.328125 C 107.445312 60.613281 105.957031 59.972656 104.476562 59.3125 C 102.789062 58.554688 101.160156 57.695312 99.777344 56.433594 C 97.960938 54.777344 97.0625 52.695312 96.910156 50.253906 C 96.800781 48.453125 97.070312 46.738281 97.960938 45.152344 C 99.070312 43.183594 100.738281 41.882812 102.871094 41.214844 C 105.761719 40.316406 108.648438 40.371094 111.457031 41.5625 C 113.507812 42.429688 114.910156 44.023438 116.015625 45.96875 C 114.289062 47.082031 112.585938 48.183594 110.863281 49.292969 C 110.636719 48.957031 110.4375 48.632812 110.21875 48.328125 C 109.609375 47.484375 108.855469 46.84375 107.820312 46.597656 C 107.039062 46.414062 106.25 46.386719 105.46875 46.617188 C 103.003906 47.339844 102.976562 50.253906 104.242188 51.402344 C 104.796875 51.90625 105.453125 52.332031 106.125 52.664062 C 107.417969 53.304688 108.757812 53.839844 110.066406 54.4375 C 111.832031 55.242188 113.542969 56.140625 115.007812 57.441406 C 116.902344 59.121094 117.808594 61.257812 117.929688 63.761719 C 118.011719 65.421875 117.8125 67.035156 117.078125 68.546875 C 116.058594 70.644531 114.378906 72 112.25 72.835938 C 110.285156 73.613281 108.230469 73.839844 106.132812 73.742188 C 104.089844 73.648438 102.128906 73.230469 100.285156 72.316406 C 98.019531 71.195312 96.285156 69.515625 95.070312 67.292969 C 95.019531 67.195312 94.972656 67.09375 94.902344 66.949219 Z M 94.902344 66.949219 "/>
</g>
<g clip-path="url(#clip3)" clip-rule="nonzero">
<path style=" stroke:none;fill-rule:evenodd;fill:rgb(18.03894%,18.03894%,17.248535%);fill-opacity:1;" d="M 84.691406 41.03125 L 91.335938 41.03125 C 91.335938 41.167969 91.335938 56.160156 91.332031 63.527344 C 91.332031 65.050781 91.1875 66.554688 90.679688 68 C 89.816406 70.472656 88.179688 72.214844 85.710938 73.0625 C 82.742188 74.082031 79.753906 74.066406 76.824219 72.90625 C 74.34375 71.921875 72.648438 70.089844 71.488281 67.667969 C 73.292969 66.570312 75.085938 65.480469 76.878906 64.390625 C 77.226562 64.945312 77.539062 65.476562 77.886719 65.980469 C 78.515625 66.882812 79.308594 67.574219 80.4375 67.738281 C 81.183594 67.847656 81.933594 67.828125 82.660156 67.601562 C 83.875 67.21875 84.378906 66.269531 84.5625 65.105469 C 84.652344 64.519531 84.683594 63.921875 84.6875 63.328125 C 84.695312 56.0625 84.691406 48.796875 84.691406 41.535156 C 84.691406 41.378906 84.691406 41.222656 84.691406 41.03125 Z M 84.691406 41.03125 "/>
</g>
<g clip-path="url(#clip4)" clip-rule="nonzero">
<path style=" stroke:none;fill-rule:evenodd;fill:rgb(18.03894%,18.03894%,17.248535%);fill-opacity:1;" d="M 53.335938 40.785156 L 46.722656 41.429688 L 49.84375 73.789062 L 56.519531 73.789062 Z M 69.695312 8.554688 L 63.0625 8.199219 L 59.585938 73.789062 L 66.238281 73.789062 Z M 69.695312 8.554688 "/>
</g>
</g>
</svg>
