<?xml version="1.0" encoding="UTF-8"?>
<svg xmlns="http://www.w3.org/2000/svg" xmlns:xlink="http://www.w3.org/1999/xlink" width="165pt" height="82.499998pt" viewBox="0 0 165 82.499998" version="1.2">
<defs>
<clipPath id="clip1">
  <path d="M 0.496094 0 L 164.503906 0 L 164.503906 82.003906 L 0.496094 82.003906 Z M 0.496094 0 "/>
</clipPath>
</defs>
<g id="surface1">
<g clip-path="url(#clip1)" clip-rule="nonzero">
<path style=" stroke:none;fill-rule:nonzero;fill:rgb(100%,100%,100%);fill-opacity:1;" d="M 0.496094 0 L 164.503906 0 L 164.503906 89.457031 L 0.496094 89.457031 Z M 0.496094 0 "/>
<path style=" stroke:none;fill-rule:nonzero;fill:rgb(100%,100%,100%);fill-opacity:1;" d="M 0.496094 0 L 164.503906 0 L 164.503906 82.003906 L 0.496094 82.003906 Z M 0.496094 0 "/>
<path style=" stroke:none;fill-rule:nonzero;fill:rgb(100%,100%,100%);fill-opacity:1;" d="M 0.496094 0 L 164.503906 0 L 164.503906 82.003906 L 0.496094 82.003906 Z M 0.496094 0 "/>
</g>
<path style=" stroke:none;fill-rule:evenodd;fill:rgb(92.939758%,24.308777%,26.669312%);fill-opacity:1;" d="M 12.488281 35.308594 C 13.519531 35.308594 14.363281 35.652344 15.027344 36.339844 C 15.6875 37.027344 16.019531 37.871094 16.019531 38.867188 C 16.019531 39.34375 15.925781 39.773438 15.742188 40.167969 C 15.558594 40.558594 15.300781 40.902344 14.972656 41.199219 C 14.640625 41.496094 14.261719 41.726562 13.832031 41.894531 C 13.402344 42.058594 12.953125 42.140625 12.488281 42.140625 C 11.507812 42.140625 10.675781 41.832031 9.988281 41.21875 C 9.300781 40.601562 8.957031 39.816406 8.957031 38.867188 C 8.957031 37.871094 9.289062 37.027344 9.949219 36.339844 C 10.613281 35.652344 11.457031 35.308594 12.488281 35.308594 Z M 12.488281 46.984375 C 13.519531 46.984375 14.363281 47.328125 15.027344 48.015625 C 15.6875 48.707031 16.019531 49.546875 16.019531 50.542969 C 16.019531 51.019531 15.925781 51.453125 15.742188 51.84375 C 15.558594 52.234375 15.300781 52.578125 14.972656 52.875 C 14.640625 53.171875 14.261719 53.402344 13.832031 53.570312 C 13.402344 53.734375 12.953125 53.820312 12.488281 53.820312 C 11.507812 53.820312 10.675781 53.511719 9.988281 52.894531 C 9.300781 52.277344 8.957031 51.492188 8.957031 50.542969 C 8.957031 49.546875 9.289062 48.707031 9.949219 48.015625 C 10.613281 47.328125 11.457031 46.984375 12.488281 46.984375 Z M 43.136719 48.480469 L 42.730469 49.742188 C 41.582031 51.375 40.292969 52.554688 38.863281 53.289062 C 37.433594 54.019531 35.691406 54.386719 33.636719 54.386719 C 32.070312 54.386719 30.554688 54.128906 29.089844 53.613281 C 27.621094 53.097656 26.320312 52.371094 25.183594 51.433594 C 24.042969 50.496094 23.128906 49.375 22.429688 48.066406 C 21.734375 46.757812 21.386719 45.308594 21.386719 43.726562 C 21.386719 42.09375 21.699219 40.632812 22.320312 39.347656 C 22.945312 38.066406 23.792969 36.972656 24.871094 36.070312 C 25.945312 35.171875 27.199219 34.488281 28.628906 34.019531 C 30.058594 33.550781 31.570312 33.316406 33.160156 33.316406 C 34.1875 33.316406 35.109375 33.375 35.929688 33.496094 C 36.746094 33.617188 37.511719 33.820312 38.222656 34.109375 C 38.929688 34.398438 39.609375 34.789062 40.257812 35.28125 C 40.90625 35.773438 41.558594 36.378906 42.21875 37.097656 C 42.535156 37.554688 42.695312 38.023438 42.695312 38.503906 C 42.695312 39.175781 42.433594 39.738281 41.90625 40.195312 C 41.382812 40.652344 40.777344 40.878906 40.089844 40.878906 C 39.457031 40.878906 38.808594 40.605469 38.148438 40.050781 C 37.855469 39.8125 37.554688 39.558594 37.25 39.296875 C 36.941406 39.03125 36.605469 38.785156 36.242188 38.558594 C 35.875 38.328125 35.476562 38.144531 35.046875 38 C 34.621094 37.855469 34.136719 37.78125 33.597656 37.78125 C 32.792969 37.78125 32.113281 37.949219 31.5625 38.285156 C 31.015625 38.625 30.566406 39.0625 30.226562 39.601562 C 29.882812 40.140625 29.636719 40.761719 29.492188 41.457031 C 29.34375 42.152344 29.273438 42.859375 29.273438 43.582031 C 29.273438 44.324219 29.351562 45.058594 29.511719 45.777344 C 29.667969 46.5 29.933594 47.140625 30.296875 47.707031 C 30.664062 48.269531 31.136719 48.726562 31.710938 49.074219 C 32.285156 49.421875 32.976562 49.597656 33.78125 49.597656 C 34.46875 49.597656 35.011719 49.558594 35.414062 49.488281 C 35.820312 49.417969 36.179688 49.285156 36.496094 49.09375 C 36.816406 48.898438 37.125 48.640625 37.433594 48.316406 C 37.738281 47.992188 38.136719 47.589844 38.625 47.113281 C 39.1875 46.488281 39.835938 46.175781 40.570312 46.175781 C 41.277344 46.175781 41.882812 46.390625 42.382812 46.824219 C 42.886719 47.253906 43.136719 47.808594 43.136719 48.480469 Z M 57.402344 54.378906 C 55.820312 54.429688 54.3125 54.1875 52.875 53.652344 C 51.441406 53.121094 50.164062 52.371094 49.046875 51.402344 C 47.925781 50.433594 47.039062 49.28125 46.382812 47.9375 C 45.726562 46.59375 45.394531 45.136719 45.394531 43.5625 C 45.394531 41.941406 45.726562 40.464844 46.382812 39.132812 C 47.039062 37.804688 47.921875 36.667969 49.027344 35.722656 C 50.132812 34.777344 51.410156 34.046875 52.859375 33.527344 C 54.304688 33.007812 55.820312 32.746094 57.402344 32.746094 C 58.980469 32.746094 60.496094 33.007812 61.945312 33.527344 C 63.390625 34.046875 64.667969 34.777344 65.777344 35.722656 C 66.882812 36.667969 67.765625 37.804688 68.421875 39.132812 C 69.078125 40.464844 69.40625 41.941406 69.40625 43.5625 C 69.40625 45.136719 69.078125 46.59375 68.421875 47.9375 C 67.765625 49.28125 66.875 50.433594 65.757812 51.402344 C 64.636719 52.371094 63.355469 53.121094 61.90625 53.652344 C 60.460938 54.1875 58.957031 54.429688 57.402344 54.378906 Z M 57.398438 36.449219 C 56.121094 36.449219 55.117188 37.023438 54.390625 38.175781 C 53.667969 39.328125 53.304688 41.027344 53.304688 43.28125 C 53.304688 45.535156 53.667969 47.238281 54.390625 48.390625 C 55.117188 49.539062 56.121094 50.117188 57.398438 50.117188 C 58.679688 50.117188 59.679688 49.539062 60.40625 48.390625 C 61.132812 47.238281 61.496094 45.535156 61.496094 43.28125 C 61.496094 41.875 61.371094 40.730469 61.125 39.847656 C 60.878906 38.964844 60.566406 38.265625 60.1875 37.757812 C 59.804688 37.25 59.367188 36.902344 58.875 36.722656 C 58.382812 36.539062 57.890625 36.449219 57.398438 36.449219 Z M 87.054688 34.351562 L 87.054688 24.074219 L 95.113281 24.074219 L 95.113281 51.640625 C 95.113281 52.34375 94.847656 52.953125 94.324219 53.476562 C 93.800781 53.996094 93.183594 54.398438 92.476562 54.398438 L 81.414062 54.398438 C 79.632812 54.398438 78.117188 54.050781 76.871094 53.636719 C 75.628906 53.226562 74.621094 52.609375 73.851562 51.785156 C 73.082031 50.960938 72.527344 49.941406 72.183594 48.71875 C 71.84375 47.496094 71.671875 46.070312 71.671875 44.449219 C 71.625 42.464844 71.910156 40.804688 72.53125 39.472656 C 73.15625 38.140625 74.035156 37.082031 75.171875 36.296875 C 76.304688 35.507812 77.648438 34.96875 79.199219 34.679688 C 80.75 34.390625 82.441406 34.28125 84.269531 34.351562 Z M 80.175781 43.996094 L 80.140625 43.996094 C 80.1875 44.78125 80.273438 45.5625 80.394531 46.339844 C 80.515625 47.117188 80.726562 47.800781 81.027344 48.398438 C 81.328125 48.996094 81.769531 49.476562 82.351562 49.847656 C 82.929688 50.21875 83.691406 50.402344 84.632812 50.402344 L 87.203125 50.402344 L 87.203125 37.875 L 84.195312 37.875 C 83.277344 37.875 82.554688 38.054688 82.023438 38.410156 C 81.492188 38.769531 81.09375 39.242188 80.828125 39.824219 C 80.5625 40.410156 80.394531 41.066406 80.320312 41.792969 C 80.25 42.523438 80.199219 43.253906 80.175781 43.996094 Z M 106.40625 37.742188 L 106.40625 54.390625 L 98.5 54.390625 L 98.5 37.742188 C 98.5 37.210938 98.609375 36.703125 98.824219 36.21875 C 99.039062 35.738281 99.328125 35.316406 99.6875 34.953125 C 100.046875 34.589844 100.464844 34.300781 100.945312 34.082031 C 101.425781 33.867188 101.925781 33.757812 102.453125 33.757812 C 102.957031 33.757812 103.449219 33.867188 103.925781 34.082031 C 104.40625 34.300781 104.835938 34.589844 105.222656 34.953125 C 105.605469 35.316406 105.902344 35.738281 106.121094 36.21875 C 106.335938 36.703125 106.429688 37.210938 106.40625 37.742188 Z M 106.128906 27.632812 C 106.128906 28.109375 106.035156 28.539062 105.851562 28.933594 C 105.667969 29.324219 105.410156 29.667969 105.078125 29.964844 C 104.75 30.261719 104.367188 30.492188 103.9375 30.660156 C 103.511719 30.824219 103.0625 30.90625 102.597656 30.90625 C 101.617188 30.90625 100.78125 30.597656 100.097656 29.980469 C 99.410156 29.367188 99.066406 28.582031 99.066406 27.632812 C 99.066406 26.636719 99.398438 25.792969 100.058594 25.105469 C 100.722656 24.417969 101.566406 24.074219 102.597656 24.074219 C 103.625 24.074219 104.472656 24.417969 105.132812 25.105469 C 105.796875 25.792969 106.128906 26.636719 106.128906 27.632812 Z M 131.832031 48.480469 L 131.429688 49.742188 C 130.28125 51.375 128.992188 52.554688 127.5625 53.289062 C 126.128906 54.019531 124.386719 54.386719 122.332031 54.386719 C 120.769531 54.386719 119.253906 54.128906 117.785156 53.613281 C 116.320312 53.097656 115.015625 52.371094 113.878906 51.433594 C 112.742188 50.496094 111.824219 49.375 111.128906 48.066406 C 110.433594 46.757812 110.082031 45.308594 110.082031 43.726562 C 110.082031 42.09375 110.394531 40.632812 111.019531 39.347656 C 111.640625 38.066406 112.492188 36.972656 113.566406 36.070312 C 114.644531 35.171875 115.898438 34.488281 117.328125 34.019531 C 118.757812 33.550781 120.269531 33.316406 121.855469 33.316406 C 122.882812 33.316406 123.808594 33.375 124.625 33.496094 C 125.445312 33.617188 126.210938 33.820312 126.917969 34.109375 C 127.628906 34.398438 128.304688 34.789062 128.953125 35.28125 C 129.601562 35.773438 130.257812 36.378906 130.917969 37.097656 C 131.234375 37.554688 131.394531 38.023438 131.394531 38.503906 C 131.394531 39.175781 131.128906 39.738281 130.605469 40.195312 C 130.078125 40.652344 129.472656 40.878906 128.789062 40.878906 C 128.152344 40.878906 127.503906 40.605469 126.84375 40.050781 C 126.550781 39.8125 126.253906 39.558594 125.945312 39.296875 C 125.640625 39.03125 125.304688 38.785156 124.9375 38.558594 C 124.570312 38.328125 124.175781 38.144531 123.746094 38 C 123.316406 37.855469 122.835938 37.78125 122.296875 37.78125 C 121.492188 37.78125 120.8125 37.949219 120.261719 38.285156 C 119.710938 38.625 119.265625 39.0625 118.921875 39.601562 C 118.582031 40.140625 118.335938 40.761719 118.1875 41.457031 C 118.042969 42.152344 117.96875 42.859375 117.96875 43.582031 C 117.96875 44.324219 118.046875 45.058594 118.207031 45.777344 C 118.367188 46.5 118.628906 47.140625 118.996094 47.707031 C 119.363281 48.269531 119.832031 48.726562 120.410156 49.074219 C 120.984375 49.421875 121.671875 49.597656 122.480469 49.597656 C 123.164062 49.597656 123.710938 49.558594 124.113281 49.488281 C 124.515625 49.417969 124.878906 49.285156 125.195312 49.09375 C 125.511719 48.898438 125.824219 48.640625 126.128906 48.316406 C 126.4375 47.992188 126.832031 47.589844 127.320312 47.113281 C 127.882812 46.488281 128.53125 46.175781 129.265625 46.175781 C 129.976562 46.175781 130.582031 46.390625 131.082031 46.824219 C 131.582031 47.253906 131.832031 47.808594 131.832031 48.480469 Z M 150.074219 33.890625 C 151.875 33.890625 152.398438 33.84375 153.394531 34.136719 C 154.394531 34.429688 154.746094 35.359375 154.902344 36.015625 C 155.058594 36.675781 154.964844 39.179688 154.964844 39.804688 L 154.964844 51.191406 C 154.964844 51.816406 155.003906 52.074219 154.964844 52.386719 C 154.925781 52.699219 154.914062 53.082031 154.546875 53.527344 C 154.183594 53.976562 153.679688 54.386719 152.605469 54.386719 C 151.535156 54.386719 151.304688 54.125 150.921875 53.9375 C 150.53125 53.753906 149.980469 53.09375 149.898438 52.386719 C 148.894531 53.828125 145.589844 54.386719 143.246094 54.386719 C 140.902344 54.386719 138.214844 53.988281 136.328125 52.152344 C 134.441406 50.316406 133.242188 49.035156 133.242188 44.105469 C 133.242188 39.171875 135.101562 37.625 136.328125 36.367188 C 137.554688 35.105469 140.144531 34.148438 142.046875 34.015625 C 143.863281 33.890625 144.699219 33.890625 150.074219 33.890625 Z M 140.871094 44.1875 C 140.917969 44.988281 140.96875 45.78125 141.089844 46.566406 C 141.210938 47.355469 141.421875 48.050781 141.726562 48.652344 C 142.03125 49.257812 142.472656 49.75 143.054688 50.125 C 143.636719 50.5 144.402344 50.6875 145.347656 50.6875 L 147.933594 50.6875 L 147.933594 37.875 L 144.910156 37.875 C 143.988281 37.875 143.261719 38.164062 142.726562 38.527344 C 142.191406 38.890625 141.792969 39.367188 141.527344 39.960938 C 141.257812 40.554688 141.089844 41.21875 141.015625 41.957031 C 140.941406 42.695312 140.894531 43.4375 140.871094 44.1875 Z M 140.871094 44.1875 "/>
</g>
</svg>
