<?xml version="1.0" encoding="UTF-8"?>
<svg xmlns="http://www.w3.org/2000/svg" xmlns:xlink="http://www.w3.org/1999/xlink" width="165pt" height="82.499998pt" viewBox="0 0 165 82.499998" version="1.2">
<defs>
<clipPath id="clip1">
  <path d="M 0.496094 0 L 164.503906 0 L 164.503906 82.003906 L 0.496094 82.003906 Z M 0.496094 0 "/>
</clipPath>
<clipPath id="clip2">
  <path d="M 41.5 6 L 123.5 6 L 123.5 76 L 41.5 76 Z M 41.5 6 "/>
</clipPath>
</defs>
<g id="surface1">
<g clip-path="url(#clip1)" clip-rule="nonzero">
<path style=" stroke:none;fill-rule:nonzero;fill:rgb(100%,100%,100%);fill-opacity:1;" d="M 0.496094 0 L 164.503906 0 L 164.503906 89.457031 L 0.496094 89.457031 Z M 0.496094 0 "/>
<path style=" stroke:none;fill-rule:nonzero;fill:rgb(100%,100%,100%);fill-opacity:1;" d="M 0.496094 0 L 164.503906 0 L 164.503906 82.003906 L 0.496094 82.003906 Z M 0.496094 0 "/>
<path style=" stroke:none;fill-rule:nonzero;fill:rgb(100%,100%,100%);fill-opacity:1;" d="M 0.496094 0 L 164.503906 0 L 164.503906 82.003906 L 0.496094 82.003906 Z M 0.496094 0 "/>
</g>
<g clip-path="url(#clip2)" clip-rule="nonzero">
<path style=" stroke:none;fill-rule:nonzero;fill:rgb(29.019165%,33.329773%,40.779114%);fill-opacity:1;" d="M 111.238281 12.640625 C 119.058594 18.742188 123.664062 29.894531 123.496094 40.769531 C 123.273438 51.699219 118.226562 62.40625 110.40625 68.566406 C 102.53125 74.667969 91.828125 76.222656 82.289062 75.113281 C 72.691406 73.945312 64.261719 70.117188 56.609375 63.960938 C 48.898438 57.855469 41.964844 49.421875 41.519531 40.546875 C 41.078125 31.667969 47.125 22.292969 54.777344 16.246094 C 62.429688 10.144531 71.804688 7.3125 82.011719 6.425781 C 92.214844 5.539062 103.363281 6.59375 111.238281 12.640625 Z M 111.238281 12.640625 "/>
</g>
<path style=" stroke:none;fill-rule:nonzero;fill:rgb(100%,100%,100%);fill-opacity:1;" d="M 63.679688 49.050781 C 63.574219 49.050781 63.433594 49 63.257812 48.894531 L 53.679688 42.386719 C 53.417969 42.210938 53.226562 42.035156 53.105469 41.859375 C 52.980469 41.6875 52.917969 41.476562 52.917969 41.230469 L 52.917969 40.390625 C 52.917969 40.148438 52.972656 39.945312 53.078125 39.789062 C 53.199219 39.628906 53.402344 39.457031 53.679688 39.261719 L 63.257812 32.753906 C 63.433594 32.648438 63.574219 32.597656 63.679688 32.597656 C 63.835938 32.597656 63.96875 32.648438 64.074219 32.753906 C 64.175781 32.84375 64.230469 32.972656 64.230469 33.148438 L 64.230469 36.113281 C 64.230469 36.375 64.160156 36.585938 64.019531 36.742188 C 63.898438 36.882812 63.722656 37.023438 63.496094 37.164062 L 57.90625 40.8125 L 63.496094 44.484375 C 63.738281 44.660156 63.921875 44.816406 64.046875 44.957031 C 64.167969 45.078125 64.230469 45.261719 64.230469 45.507812 L 64.230469 48.5 C 64.230469 48.65625 64.175781 48.789062 64.074219 48.894531 C 63.96875 49 63.835938 49.050781 63.679688 49.050781 Z M 68.207031 50.023438 C 68.03125 50.023438 67.875 49.960938 67.734375 49.839844 C 67.613281 49.699219 67.550781 49.539062 67.550781 49.367188 L 67.550781 32.335938 C 67.550781 32.144531 67.613281 31.984375 67.734375 31.863281 C 67.855469 31.722656 68.015625 31.652344 68.207031 31.652344 L 75.109375 31.652344 C 77.695312 31.652344 79.707031 32.273438 81.144531 33.515625 C 82.578125 34.742188 83.332031 36.507812 83.398438 38.816406 C 83.417969 39.324219 83.425781 39.996094 83.425781 40.835938 C 83.425781 41.675781 83.417969 42.34375 83.398438 42.832031 C 83.226562 47.625 80.503906 50.023438 75.238281 50.023438 Z M 75.109375 46.085938 C 76.210938 46.085938 77.023438 45.824219 77.546875 45.296875 C 78.074219 44.773438 78.351562 43.933594 78.386719 42.78125 C 78.421875 42.273438 78.441406 41.617188 78.441406 40.8125 C 78.441406 40.007812 78.421875 39.359375 78.386719 38.871094 C 78.351562 37.75 78.046875 36.925781 77.46875 36.402344 C 76.910156 35.859375 76.078125 35.589844 74.976562 35.589844 L 72.484375 35.589844 L 72.484375 46.085938 Z M 85.0625 52.226562 C 84.925781 52.226562 84.792969 52.164062 84.671875 52.042969 C 84.566406 51.9375 84.511719 51.816406 84.511719 51.675781 C 84.511719 51.585938 84.53125 51.5 84.566406 51.414062 L 93.433594 30.050781 C 93.628906 29.613281 93.949219 29.394531 94.40625 29.394531 L 96.898438 29.394531 C 97.054688 29.394531 97.1875 29.457031 97.292969 29.582031 C 97.398438 29.683594 97.449219 29.808594 97.449219 29.949219 C 97.449219 30.035156 97.433594 30.121094 97.398438 30.210938 L 88.476562 51.570312 C 88.300781 52.007812 87.976562 52.226562 87.503906 52.226562 Z M 100.15625 49.050781 C 99.996094 49.050781 99.867188 49 99.761719 48.894531 C 99.65625 48.789062 99.601562 48.65625 99.601562 48.5 L 99.601562 45.507812 C 99.601562 45.261719 99.664062 45.078125 99.785156 44.957031 C 99.910156 44.816406 100.09375 44.660156 100.339844 44.484375 L 105.925781 40.8125 L 100.339844 37.164062 C 100.109375 37.023438 99.925781 36.882812 99.785156 36.742188 C 99.664062 36.585938 99.601562 36.375 99.601562 36.113281 L 99.601562 33.148438 C 99.601562 32.972656 99.65625 32.84375 99.761719 32.753906 C 99.867188 32.648438 99.996094 32.597656 100.15625 32.597656 C 100.257812 32.597656 100.398438 32.648438 100.574219 32.753906 L 110.152344 39.261719 C 110.433594 39.457031 110.625 39.628906 110.730469 39.789062 C 110.851562 39.945312 110.914062 40.148438 110.914062 40.390625 L 110.914062 41.230469 C 110.914062 41.476562 110.851562 41.6875 110.730469 41.859375 C 110.605469 42.035156 110.414062 42.210938 110.152344 42.386719 L 100.574219 48.894531 C 100.398438 49 100.257812 49.050781 100.15625 49.050781 Z M 100.15625 49.050781 "/>
</g>
</svg>
