<svg xmlns="http://www.w3.org/2000/svg" width="165" viewBox="0 0 165 82.5" height="82.5" version="1.0"><defs><clipPath id="a"><path d="M 0.496094 0 L 164.503906 0 L 164.503906 82.003906 L 0.496094 82.003906 Z M 0.496094 0"/></clipPath><clipPath id="b"><path d="M 0.496094 18.933594 L 71 18.933594 L 71 62.917969 L 0.496094 62.917969 Z M 0.496094 18.933594"/></clipPath><clipPath id="c"><path d="M 32 31 L 164.503906 31 L 164.503906 62.917969 L 32 62.917969 Z M 32 31"/></clipPath></defs><g clip-path="url(#a)" fill="#FFF"><path d="M 0.496094 0 L 164.503906 0 L 164.503906 82.003906 L 0.496094 82.003906 Z M 0.496094 0"/><path d="M 0.496094 0 L 164.503906 0 L 164.503906 82.003906 L 0.496094 82.003906 Z M 0.496094 0"/></g><g clip-path="url(#b)"><path fill="#35495E" d="M 70.636719 55.277344 L 70.636719 62.089844 C 68.886719 62.636719 67.09375 62.90625 65.257812 62.898438 C 61.964844 62.898438 59.539062 62.125 57.96875 60.582031 C 56.734375 59.363281 55.984375 57.652344 55.722656 55.445312 C 56.664062 54.160156 57.378906 52.765625 57.875 51.253906 C 58.371094 49.742188 58.617188 48.195312 58.621094 46.605469 C 58.609375 45.34375 58.449219 44.101562 58.132812 42.878906 C 57.816406 41.660156 57.359375 40.492188 56.757812 39.382812 C 56.15625 38.273438 55.429688 37.253906 54.574219 36.320312 C 53.722656 35.390625 52.769531 34.574219 51.714844 33.875 L 51.714844 31.773438 L 55.625 31.773438 L 55.625 24.175781 L 65.179688 24.175781 L 65.179688 31.773438 L 70.222656 31.773438 L 70.222656 38.382812 L 65.171875 38.382812 L 65.171875 52.367188 C 65.171875 53.515625 65.378906 54.316406 65.792969 54.769531 C 66.199219 55.222656 67.03125 55.449219 68.257812 55.449219 C 69.054688 55.460938 69.847656 55.402344 70.636719 55.277344 Z M 28.929688 36.648438 C 28.324219 37.332031 27.785156 38.0625 27.3125 38.839844 C 26.839844 39.621094 26.441406 40.433594 26.117188 41.285156 C 25.792969 42.136719 25.550781 43.007812 25.386719 43.90625 C 25.222656 44.800781 25.140625 45.703125 25.140625 46.613281 C 25.140625 47.523438 25.222656 48.425781 25.386719 49.320312 C 25.550781 50.21875 25.792969 51.089844 26.117188 51.941406 C 26.441406 52.792969 26.839844 53.609375 27.3125 54.386719 C 27.785156 55.164062 28.324219 55.894531 28.929688 56.578125 L 28.929688 62.339844 L 20.339844 62.339844 L 19.855469 59.0625 C 17.890625 61.625 15.394531 62.90625 12.375 62.90625 C 8.726562 62.90625 5.835938 61.511719 3.703125 58.722656 C 1.566406 55.933594 0.5 51.972656 0.496094 46.832031 C 0.496094 41.988281 1.546875 38.175781 3.644531 35.390625 C 5.742188 32.605469 8.671875 31.210938 12.429688 31.207031 C 13.765625 31.195312 15.039062 31.46875 16.25 32.03125 C 17.460938 32.597656 18.488281 33.394531 19.335938 34.425781 L 19.335938 18.949219 L 28.929688 18.949219 Z M 19.34375 41.265625 C 18.480469 39.457031 16.988281 38.550781 14.875 38.550781 C 11.921875 38.550781 10.320312 40.925781 10.078125 45.671875 L 10.050781 47.417969 C 10.050781 52.84375 11.636719 55.558594 14.808594 55.558594 C 16.929688 55.558594 18.4375 54.671875 19.34375 52.902344 Z M 19.34375 41.265625"/></g><g clip-path="url(#c)"><path fill="#42B883" d="M 86.226562 51.011719 L 91.070312 31.773438 L 101.132812 31.773438 L 91.128906 62.339844 L 81.382812 62.339844 L 71.378906 31.773438 L 81.464844 31.773438 Z M 122.25 59.03125 C 120.226562 61.609375 117.496094 62.898438 114.058594 62.902344 C 110.695312 62.902344 108.144531 61.929688 106.40625 59.992188 C 104.667969 58.050781 103.808594 55.246094 103.824219 51.578125 L 103.824219 31.773438 L 113.378906 31.773438 L 113.378906 51.632812 C 113.378906 54.25 114.652344 55.558594 117.203125 55.5625 C 119.394531 55.5625 120.953125 54.78125 121.878906 53.21875 L 121.878906 31.757812 L 131.484375 31.757812 L 131.484375 62.324219 L 122.53125 62.324219 Z M 151.589844 62.90625 C 146.886719 62.90625 143.082031 61.511719 140.167969 58.722656 C 137.257812 55.933594 135.804688 52.292969 135.808594 47.792969 L 135.808594 46.980469 C 135.75 44.09375 136.324219 41.332031 137.535156 38.707031 C 138.664062 36.335938 140.363281 34.488281 142.640625 33.167969 C 144.863281 31.851562 147.507812 31.195312 150.570312 31.191406 C 154.882812 31.191406 158.285156 32.527344 160.773438 35.203125 C 163.265625 37.878906 164.511719 41.589844 164.515625 46.335938 L 164.515625 50.035156 L 145.5 50.035156 C 145.761719 51.648438 146.507812 53 147.738281 54.082031 C 148.890625 55.0625 150.378906 55.554688 152.203125 55.554688 C 155.226562 55.554688 157.585938 54.496094 159.289062 52.386719 L 163.652344 57.527344 C 162.320312 59.292969 160.628906 60.601562 158.582031 61.457031 C 156.355469 62.433594 154.023438 62.917969 151.589844 62.90625 Z M 150.515625 38.550781 C 147.710938 38.550781 146.039062 40.398438 145.5 44.089844 L 155.136719 44.089844 L 155.136719 43.355469 C 155.171875 41.832031 154.789062 40.652344 153.972656 39.824219 C 153.15625 38.992188 151.996094 38.550781 150.503906 38.550781 Z M 41.878906 37.9375 C 46.976562 37.9375 51.105469 41.820312 51.105469 46.613281 C 51.105469 51.40625 46.976562 55.292969 41.878906 55.292969 C 36.78125 55.292969 32.648438 51.40625 32.648438 46.613281 C 32.648438 41.820312 36.78125 37.9375 41.878906 37.9375 Z M 41.878906 37.9375"/></g></svg>