<?xml version="1.0" encoding="UTF-8"?><svg xmlns="http://www.w3.org/2000/svg" xmlns:xlink="http://www.w3.org/1999/xlink" contentScriptType="text/ecmascript" width="165" zoomAndPan="magnify" contentStyleType="text/css" viewBox="0 0 165 82.499998" height="82.499998" preserveAspectRatio="xMidYMid meet" version="1.0"><defs><clipPath id="clip-0"><path d="M 0.496094 0 L 164.503906 0 L 164.503906 82.003906 L 0.496094 82.003906 Z M 0.496094 0 " clip-rule="nonzero"/></clipPath><clipPath id="clip-1"><path d="M 0.496094 43 L 4 43 L 4 47 L 0.496094 47 Z M 0.496094 43 " clip-rule="nonzero"/></clipPath><clipPath id="clip-2"><path d="M 6 31.011719 L 101 31.011719 L 101 47 L 6 47 Z M 6 31.011719 " clip-rule="nonzero"/></clipPath><clipPath id="clip-3"><path d="M 104 31.011719 L 164.503906 31.011719 L 164.503906 51.140625 L 104 51.140625 Z M 104 31.011719 " clip-rule="nonzero"/></clipPath></defs><g clip-path="url(#clip-0)"><path fill="rgb(100%, 100%, 100%)" d="M 0.496094 0 L 164.503906 0 L 164.503906 89.457031 L 0.496094 89.457031 Z M 0.496094 0 " fill-opacity="1" fill-rule="nonzero"/><path fill="rgb(100%, 100%, 100%)" d="M 0.496094 0 L 164.503906 0 L 164.503906 82.003906 L 0.496094 82.003906 Z M 0.496094 0 " fill-opacity="1" fill-rule="nonzero"/><path fill="rgb(100%, 100%, 100%)" d="M 0.496094 0 L 164.503906 0 L 164.503906 82.003906 L 0.496094 82.003906 Z M 0.496094 0 " fill-opacity="1" fill-rule="nonzero"/></g><g clip-path="url(#clip-1)"><path fill="rgb(26.669312%, 68.629456%, 42.749023%)" d="M 0.496094 45.15625 C 0.496094 44.925781 0.535156 44.707031 0.609375 44.503906 C 0.765625 44.074219 1.054688 43.777344 1.480469 43.621094 C 1.695312 43.535156 1.9375 43.492188 2.214844 43.492188 C 2.492188 43.492188 2.738281 43.535156 2.949219 43.621094 C 3.164062 43.707031 3.34375 43.824219 3.492188 43.972656 C 3.640625 44.121094 3.753906 44.300781 3.828125 44.503906 C 3.902344 44.707031 3.941406 44.925781 3.941406 45.160156 C 3.941406 45.390625 3.902344 45.605469 3.828125 45.800781 C 3.753906 45.992188 3.640625 46.164062 3.492188 46.308594 C 3.335938 46.460938 3.152344 46.574219 2.949219 46.652344 C 2.710938 46.738281 2.464844 46.777344 2.214844 46.773438 C 1.9375 46.773438 1.691406 46.734375 1.476562 46.652344 C 1.058594 46.5 0.769531 46.214844 0.609375 45.796875 C 0.53125 45.589844 0.496094 45.378906 0.496094 45.15625 " fill-opacity="1" fill-rule="evenodd"/></g><g clip-path="url(#clip-2)"><path fill="rgb(0%, 0%, 0%)" d="M 8.363281 41.367188 C 8.363281 41.847656 8.40625 42.300781 8.5 42.722656 C 8.582031 43.121094 8.726562 43.492188 8.9375 43.835938 C 9.140625 44.152344 9.394531 44.402344 9.710938 44.585938 C 10.023438 44.765625 10.394531 44.859375 10.828125 44.859375 C 11.367188 44.859375 11.808594 44.742188 12.152344 44.507812 C 12.496094 44.269531 12.769531 43.957031 12.972656 43.558594 L 12.972656 38.894531 C 12.769531 38.503906 12.492188 38.195312 12.144531 37.964844 C 11.800781 37.730469 11.367188 37.617188 10.847656 37.617188 C 10.410156 37.617188 10.03125 37.707031 9.71875 37.894531 C 9.40625 38.078125 9.152344 38.332031 8.949219 38.65625 C 8.738281 39.007812 8.589844 39.386719 8.503906 39.789062 C 8.410156 40.21875 8.363281 40.675781 8.363281 41.15625 Z M 6.003906 41.15625 C 6.003906 40.34375 6.101562 39.601562 6.300781 38.925781 C 6.496094 38.25 6.78125 37.671875 7.148438 37.1875 C 7.515625 36.707031 7.964844 36.332031 8.484375 36.066406 C 9.007812 35.804688 9.597656 35.671875 10.246094 35.671875 C 10.832031 35.671875 11.347656 35.773438 11.796875 35.972656 C 12.246094 36.175781 12.636719 36.464844 12.972656 36.84375 L 12.972656 31.367188 L 15.339844 31.367188 L 15.339844 46.605469 L 13.199219 46.605469 L 13.078125 45.511719 C 12.75 45.925781 12.347656 46.246094 11.871094 46.46875 C 11.398438 46.691406 10.851562 46.800781 10.226562 46.800781 C 9.613281 46.8125 9.027344 46.675781 8.480469 46.390625 C 7.953125 46.113281 7.511719 45.734375 7.152344 45.253906 C 6.769531 44.734375 6.484375 44.160156 6.304688 43.535156 C 6.097656 42.824219 5.996094 42.101562 6.003906 41.367188 Z M 25.78125 35.671875 C 26.15625 35.671875 26.53125 35.699219 26.902344 35.75 C 27.074219 35.777344 27.234375 35.804688 27.378906 35.835938 C 27.523438 35.863281 27.644531 35.898438 27.746094 35.9375 L 27.410156 38.269531 C 26.707031 38.105469 25.992188 38.023438 25.269531 38.023438 C 24.480469 38.023438 23.84375 38.1875 23.359375 38.519531 C 22.875 38.851562 22.519531 39.308594 22.289062 39.898438 L 22.289062 46.605469 L 19.929688 46.605469 L 19.929688 35.871094 L 22.140625 35.871094 L 22.25 37.546875 C 22.667969 36.976562 23.179688 36.519531 23.792969 36.171875 C 24.410156 35.828125 25.074219 35.664062 25.78125 35.671875 M 32.503906 41.347656 C 32.503906 41.835938 32.550781 42.292969 32.65625 42.726562 C 32.757812 43.15625 32.914062 43.535156 33.128906 43.859375 C 33.34375 44.1875 33.613281 44.445312 33.941406 44.636719 C 34.273438 44.824219 34.664062 44.917969 35.117188 44.917969 C 35.558594 44.917969 35.941406 44.824219 36.265625 44.636719 C 36.59375 44.445312 36.863281 44.1875 37.078125 43.859375 C 37.289062 43.535156 37.449219 43.15625 37.550781 42.726562 C 37.652344 42.292969 37.703125 41.835938 37.703125 41.347656 L 37.703125 41.136719 C 37.707031 40.679688 37.65625 40.226562 37.550781 39.777344 C 37.460938 39.375 37.300781 38.996094 37.078125 38.648438 C 36.867188 38.324219 36.597656 38.066406 36.265625 37.875 C 35.941406 37.683594 35.550781 37.585938 35.097656 37.585938 C 34.652344 37.585938 34.261719 37.683594 33.933594 37.875 C 33.605469 38.066406 33.335938 38.324219 33.125 38.648438 C 32.914062 38.972656 32.757812 39.347656 32.65625 39.777344 C 32.554688 40.207031 32.503906 40.660156 32.503906 41.136719 Z M 30.144531 41.136719 C 30.144531 40.363281 30.257812 39.644531 30.484375 38.976562 C 30.695312 38.332031 31.023438 37.753906 31.460938 37.238281 C 31.894531 36.738281 32.414062 36.355469 33.015625 36.085938 C 33.628906 35.8125 34.320312 35.671875 35.097656 35.671875 C 35.882812 35.671875 36.578125 35.8125 37.195312 36.085938 C 37.8125 36.367188 38.328125 36.75 38.753906 37.238281 C 39.179688 37.726562 39.503906 38.308594 39.726562 38.976562 C 39.949219 39.644531 40.0625 40.363281 40.0625 41.136719 L 40.0625 41.347656 C 40.070312 42.089844 39.957031 42.8125 39.726562 43.519531 C 39.519531 44.160156 39.195312 44.738281 38.753906 45.25 C 38.320312 45.746094 37.800781 46.128906 37.199219 46.394531 C 36.589844 46.675781 35.894531 46.8125 35.117188 46.8125 C 34.335938 46.8125 33.636719 46.675781 33.019531 46.394531 C 32.417969 46.128906 31.898438 45.746094 31.460938 45.25 C 31.019531 44.738281 30.695312 44.160156 30.484375 43.519531 C 30.25 42.8125 30.136719 42.089844 30.144531 41.347656 Z M 46.339844 33.09375 C 46.339844 32.722656 46.457031 32.414062 46.695312 32.175781 C 46.929688 31.933594 47.261719 31.8125 47.691406 31.8125 C 48.125 31.8125 48.460938 31.933594 48.703125 32.175781 C 48.945312 32.414062 49.0625 32.722656 49.0625 33.09375 C 49.0625 33.460938 48.945312 33.769531 48.703125 34.007812 C 48.460938 34.25 48.125 34.371094 47.691406 34.371094 C 47.261719 34.371094 46.929688 34.25 46.695312 34.007812 C 46.457031 33.769531 46.339844 33.460938 46.339844 33.09375 Z M 43.21875 35.871094 L 48.914062 35.871094 L 48.914062 44.640625 L 52.082031 44.640625 L 52.082031 46.601562 L 43.21875 46.601562 L 43.21875 44.640625 L 46.535156 44.640625 L 46.535156 37.84375 L 43.21875 37.84375 Z M 56.878906 41.367188 C 56.878906 41.847656 56.925781 42.300781 57.019531 42.722656 C 57.109375 43.148438 57.257812 43.519531 57.457031 43.835938 C 57.65625 44.152344 57.914062 44.402344 58.226562 44.585938 C 58.539062 44.765625 58.914062 44.859375 59.347656 44.859375 C 59.886719 44.859375 60.328125 44.742188 60.667969 44.507812 C 61.011719 44.269531 61.285156 43.957031 61.488281 43.558594 L 61.488281 38.894531 C 61.285156 38.503906 61.011719 38.195312 60.664062 37.964844 C 60.320312 37.730469 59.886719 37.617188 59.367188 37.617188 C 58.925781 37.617188 58.550781 37.707031 58.238281 37.894531 C 57.925781 38.078125 57.667969 38.332031 57.464844 38.65625 C 57.253906 39.007812 57.105469 39.386719 57.023438 39.789062 C 56.925781 40.21875 56.878906 40.675781 56.878906 41.15625 Z M 54.519531 41.15625 C 54.519531 40.34375 54.621094 39.601562 54.816406 38.925781 C 55.015625 38.25 55.296875 37.671875 55.664062 37.1875 C 56.035156 36.707031 56.480469 36.332031 57.003906 36.066406 C 57.527344 35.804688 58.113281 35.671875 58.765625 35.671875 C 59.351562 35.671875 59.867188 35.773438 60.316406 35.972656 C 60.761719 36.175781 61.152344 36.464844 61.488281 36.84375 L 61.488281 31.367188 L 63.855469 31.367188 L 63.855469 46.605469 L 61.714844 46.605469 L 61.597656 45.511719 C 61.269531 45.925781 60.867188 46.246094 60.390625 46.46875 C 59.917969 46.691406 59.371094 46.800781 58.746094 46.800781 C 58.128906 46.8125 57.546875 46.675781 57 46.390625 C 56.472656 46.113281 56.027344 45.734375 55.671875 45.253906 C 55.285156 44.734375 55.003906 44.160156 54.824219 43.535156 C 54.617188 42.824219 54.515625 42.101562 54.523438 41.367188 L 54.523438 41.15625 Z M 71.632812 44.917969 C 71.925781 44.917969 72.203125 44.871094 72.480469 44.777344 C 72.742188 44.691406 72.984375 44.5625 73.203125 44.390625 C 73.414062 44.226562 73.578125 44.03125 73.703125 43.804688 C 73.824219 43.578125 73.882812 43.332031 73.875 43.070312 L 76.105469 43.070312 C 76.109375 43.585938 75.996094 44.074219 75.753906 44.523438 C 75.507812 44.988281 75.183594 45.382812 74.777344 45.710938 C 74.347656 46.058594 73.871094 46.328125 73.351562 46.515625 C 72.804688 46.714844 72.238281 46.816406 71.652344 46.8125 C 70.832031 46.8125 70.109375 46.671875 69.492188 46.386719 C 68.886719 46.117188 68.371094 45.726562 67.941406 45.21875 C 67.515625 44.710938 67.207031 44.140625 67.011719 43.503906 C 66.796875 42.828125 66.695312 42.132812 66.699219 41.425781 L 66.699219 41.070312 C 66.699219 40.332031 66.800781 39.640625 67.011719 38.984375 C 67.207031 38.347656 67.515625 37.777344 67.941406 37.269531 C 68.375 36.765625 68.890625 36.375 69.492188 36.105469 C 70.109375 35.816406 70.828125 35.671875 71.644531 35.671875 C 72.289062 35.671875 72.886719 35.769531 73.433594 35.96875 C 73.984375 36.167969 74.457031 36.445312 74.855469 36.800781 C 75.265625 37.171875 75.582031 37.609375 75.800781 38.117188 C 76.019531 38.625 76.121094 39.15625 76.105469 39.710938 L 73.875 39.710938 C 73.890625 39.113281 73.683594 38.613281 73.253906 38.210938 C 73.039062 38.015625 72.800781 37.863281 72.53125 37.753906 C 72.242188 37.640625 71.9375 37.582031 71.625 37.585938 C 71.132812 37.585938 70.71875 37.6875 70.390625 37.890625 C 70.0625 38.089844 69.800781 38.351562 69.601562 38.683594 C 69.402344 39.011719 69.261719 39.382812 69.183594 39.796875 C 69.097656 40.21875 69.058594 40.640625 69.058594 41.070312 L 69.058594 41.425781 C 69.058594 41.863281 69.097656 42.289062 69.183594 42.707031 C 69.265625 43.121094 69.402344 43.496094 69.601562 43.820312 C 69.796875 44.148438 70.0625 44.414062 70.390625 44.617188 C 70.71875 44.816406 71.132812 44.917969 71.632812 44.917969 M 81.019531 41.347656 C 81.019531 41.835938 81.070312 42.292969 81.171875 42.726562 C 81.273438 43.15625 81.433594 43.535156 81.644531 43.859375 C 81.859375 44.1875 82.132812 44.445312 82.460938 44.636719 C 82.789062 44.824219 83.179688 44.917969 83.632812 44.917969 C 84.074219 44.917969 84.460938 44.824219 84.785156 44.636719 C 85.109375 44.445312 85.378906 44.1875 85.59375 43.859375 C 85.808594 43.535156 85.964844 43.15625 86.066406 42.726562 C 86.167969 42.292969 86.21875 41.835938 86.21875 41.347656 L 86.21875 41.136719 C 86.222656 40.679688 86.171875 40.226562 86.066406 39.777344 C 85.976562 39.375 85.820312 38.996094 85.59375 38.648438 C 85.382812 38.324219 85.113281 38.066406 84.785156 37.875 C 84.460938 37.683594 84.070312 37.585938 83.617188 37.585938 C 83.167969 37.585938 82.78125 37.683594 82.449219 37.875 C 82.121094 38.066406 81.851562 38.324219 81.640625 38.648438 C 81.429688 38.972656 81.273438 39.347656 81.171875 39.777344 C 81.070312 40.207031 81.019531 40.660156 81.019531 41.136719 Z M 78.660156 41.136719 C 78.660156 40.363281 78.773438 39.644531 79 38.976562 C 79.214844 38.332031 79.539062 37.753906 79.976562 37.238281 C 80.414062 36.738281 80.929688 36.355469 81.53125 36.085938 C 82.144531 35.8125 82.839844 35.671875 83.617188 35.671875 C 84.398438 35.671875 85.097656 35.8125 85.710938 36.085938 C 86.328125 36.367188 86.847656 36.75 87.273438 37.238281 C 87.695312 37.726562 88.019531 38.308594 88.246094 38.976562 C 88.46875 39.644531 88.578125 40.363281 88.578125 41.136719 L 88.578125 41.347656 C 88.585938 42.089844 88.472656 42.8125 88.246094 43.519531 C 88.035156 44.160156 87.710938 44.738281 87.273438 45.25 C 86.835938 45.746094 86.320312 46.128906 85.71875 46.394531 C 85.105469 46.675781 84.410156 46.8125 83.636719 46.8125 C 82.851562 46.8125 82.152344 46.675781 81.539062 46.394531 C 80.933594 46.128906 80.414062 45.746094 79.976562 45.25 C 79.539062 44.738281 79.210938 44.160156 79 43.519531 C 78.765625 42.8125 78.652344 42.089844 78.660156 41.347656 Z M 93.355469 35.871094 L 93.503906 37.359375 C 93.890625 36.820312 94.359375 36.40625 94.910156 36.113281 C 95.484375 35.808594 96.09375 35.664062 96.742188 35.671875 C 97.289062 35.671875 97.785156 35.75 98.238281 35.910156 C 98.6875 36.070312 99.074219 36.316406 99.402344 36.652344 C 99.726562 36.992188 99.980469 37.425781 100.160156 37.964844 C 100.34375 38.5 100.433594 39.144531 100.433594 39.898438 L 100.433594 46.605469 L 98.074219 46.605469 L 98.074219 39.9375 C 98.074219 39.496094 98.023438 39.125 97.921875 38.824219 C 97.835938 38.550781 97.6875 38.3125 97.484375 38.113281 C 97.289062 37.925781 97.0625 37.800781 96.800781 37.730469 C 96.5 37.648438 96.195312 37.613281 95.882812 37.617188 C 95.363281 37.617188 94.910156 37.730469 94.527344 37.964844 C 94.140625 38.195312 93.832031 38.507812 93.59375 38.90625 L 93.59375 46.605469 L 91.222656 46.605469 L 91.222656 35.871094 Z M 93.355469 35.871094 " fill-opacity="1" fill-rule="evenodd"/></g><g clip-path="url(#clip-3)"><path fill="rgb(32.159424%, 69.799805%, 43.139648%)" d="M 107.941406 32.855469 C 107.941406 32.480469 108.0625 32.167969 108.304688 31.925781 C 108.546875 31.679688 108.882812 31.554688 109.316406 31.554688 C 109.761719 31.554688 110.101562 31.679688 110.347656 31.925781 C 110.589844 32.167969 110.714844 32.480469 110.714844 32.855469 C 110.714844 33.234375 110.589844 33.546875 110.347656 33.792969 C 110.101562 34.035156 109.761719 34.160156 109.316406 34.160156 C 108.882812 34.160156 108.546875 34.035156 108.304688 33.792969 C 108.0625 33.546875 107.941406 33.234375 107.941406 32.855469 Z M 104.769531 35.683594 L 110.5625 35.683594 L 110.5625 44.605469 L 113.785156 44.605469 L 113.785156 46.601562 L 104.769531 46.601562 L 104.769531 44.605469 L 108.144531 44.605469 L 108.144531 37.691406 L 104.769531 37.691406 Z M 121.394531 33.039062 L 121.394531 35.683594 L 125.503906 35.683594 L 125.503906 37.480469 L 121.394531 37.480469 L 121.394531 42.71875 C 121.394531 43.128906 121.445312 43.46875 121.542969 43.734375 C 121.640625 44.007812 121.773438 44.222656 121.949219 44.382812 C 122.121094 44.542969 122.324219 44.65625 122.558594 44.71875 C 122.792969 44.785156 123.050781 44.816406 123.332031 44.816406 C 123.539062 44.816406 123.757812 44.804688 123.980469 44.78125 C 124.207031 44.757812 124.421875 44.730469 124.632812 44.699219 C 124.980469 44.652344 125.324219 44.582031 125.664062 44.492188 L 125.933594 46.160156 C 125.734375 46.273438 125.523438 46.363281 125.304688 46.4375 C 125.046875 46.523438 124.777344 46.59375 124.507812 46.644531 C 123.90625 46.753906 123.300781 46.808594 122.691406 46.816406 C 122.179688 46.820312 121.683594 46.746094 121.199219 46.585938 C 120.757812 46.441406 120.367188 46.207031 120.035156 45.878906 C 119.710938 45.5625 119.457031 45.152344 119.273438 44.648438 C 119.089844 44.148438 118.996094 43.546875 118.996094 42.847656 L 118.996094 37.480469 L 116.347656 37.480469 L 116.347656 35.683594 L 118.996094 35.683594 L 118.996094 33.039062 Z M 132.960938 44.855469 C 133.53125 44.855469 134.0625 44.71875 134.5625 44.4375 C 134.78125 44.3125 134.96875 44.171875 135.125 44.007812 C 135.28125 43.847656 135.40625 43.683594 135.5 43.515625 L 135.5 41.464844 L 133.976562 41.464844 C 132.996094 41.464844 132.277344 41.625 131.8125 41.941406 C 131.347656 42.257812 131.113281 42.707031 131.113281 43.292969 C 131.113281 43.515625 131.148438 43.722656 131.226562 43.914062 C 131.296875 44.105469 131.410156 44.269531 131.5625 44.40625 C 131.710938 44.546875 131.902344 44.65625 132.132812 44.738281 C 132.363281 44.816406 132.640625 44.855469 132.960938 44.855469 Z M 135.851562 46.601562 C 135.78125 46.449219 135.722656 46.292969 135.6875 46.128906 C 135.640625 45.933594 135.601562 45.738281 135.570312 45.542969 C 135.207031 45.921875 134.78125 46.21875 134.300781 46.429688 C 133.730469 46.683594 133.132812 46.808594 132.511719 46.804688 C 131.933594 46.804688 131.414062 46.722656 130.949219 46.558594 C 130.507812 46.40625 130.109375 46.179688 129.753906 45.871094 C 129.421875 45.582031 129.167969 45.238281 128.984375 44.835938 C 128.800781 44.425781 128.710938 43.996094 128.714844 43.542969 C 128.714844 42.375 129.148438 41.480469 130.015625 40.859375 C 130.882812 40.242188 132.125 39.933594 133.746094 39.933594 L 135.5 39.933594 L 135.5 39.214844 C 135.5 38.636719 135.308594 38.175781 134.917969 37.835938 C 134.53125 37.496094 133.980469 37.328125 133.273438 37.328125 C 132.953125 37.328125 132.671875 37.367188 132.429688 37.445312 C 132.207031 37.511719 132.007812 37.617188 131.828125 37.761719 C 131.667969 37.890625 131.546875 38.050781 131.464844 38.234375 C 131.386719 38.417969 131.34375 38.613281 131.34375 38.820312 L 128.945312 38.820312 C 128.945312 38.398438 129.046875 37.988281 129.242188 37.585938 C 129.441406 37.183594 129.730469 36.828125 130.109375 36.515625 C 130.53125 36.179688 131 35.929688 131.511719 35.765625 C 132.0625 35.574219 132.695312 35.480469 133.402344 35.480469 C 134.046875 35.480469 134.640625 35.5625 135.191406 35.71875 C 135.738281 35.875 136.214844 36.113281 136.617188 36.425781 C 137.019531 36.738281 137.332031 37.128906 137.558594 37.597656 C 137.785156 38.0625 137.902344 38.609375 137.902344 39.234375 L 137.902344 44.101562 C 137.902344 44.578125 137.9375 45.011719 138.007812 45.40625 C 138.078125 45.800781 138.179688 46.140625 138.3125 46.429688 L 138.3125 46.601562 Z M 141.707031 31.101562 L 147.578125 31.101562 L 147.578125 44.605469 L 150.890625 44.605469 L 150.890625 46.601562 L 141.707031 46.601562 L 141.707031 44.605469 L 145.160156 44.605469 L 145.160156 33.109375 L 141.707031 33.109375 Z M 157.910156 42.234375 L 158.320312 43.542969 L 161.371094 35.683594 L 164.035156 35.683594 L 158.535156 48.257812 C 158.410156 48.535156 158.253906 48.832031 158.0625 49.152344 C 157.859375 49.480469 157.621094 49.777344 157.34375 50.042969 C 157.039062 50.332031 156.703125 50.5625 156.324219 50.734375 C 155.929688 50.921875 155.464844 51.011719 154.9375 51.011719 C 154.71875 51.011719 154.496094 50.996094 154.269531 50.957031 C 154.070312 50.925781 153.871094 50.882812 153.671875 50.832031 L 154.015625 48.953125 C 154.164062 48.957031 154.308594 48.960938 154.457031 48.972656 C 154.601562 48.984375 154.746094 48.992188 154.886719 48.992188 C 155.121094 48.992188 155.332031 48.925781 155.515625 48.789062 C 155.699219 48.648438 155.863281 48.492188 156.003906 48.3125 C 156.144531 48.132812 156.257812 47.960938 156.347656 47.789062 C 156.4375 47.617188 156.503906 47.5 156.542969 47.441406 L 157.257812 46.089844 L 152.640625 35.683594 L 155.289062 35.683594 Z M 157.910156 42.234375 " fill-opacity="1" fill-rule="evenodd"/></g></svg>