<svg xmlns="http://www.w3.org/2000/svg" xmlns:xlink="http://www.w3.org/1999/xlink" width="165" viewBox="0 0 165 82.5" height="82.5" version="1.0"><defs><g id="d"><path d="M 6.765625 5.6875 C 6.191406 5.6875 5.6875 5.59375 5.25 5.40625 C 4.820312 5.226562 4.460938 4.96875 4.171875 4.625 C 3.878906 4.28125 3.65625 3.867188 3.5 3.390625 C 3.351562 2.910156 3.28125 2.367188 3.28125 1.765625 L 3.28125 -3.0625 C 3.28125 -3.625 3.21875 -4.097656 3.09375 -4.484375 C 2.96875 -4.878906 2.78125 -5.203125 2.53125 -5.453125 C 2.289062 -5.703125 1.992188 -5.890625 1.640625 -6.015625 C 1.296875 -6.140625 0.898438 -6.210938 0.453125 -6.234375 L 0.453125 -7.921875 C 0.898438 -7.941406 1.296875 -8.015625 1.640625 -8.140625 C 1.992188 -8.265625 2.289062 -8.453125 2.53125 -8.703125 C 2.78125 -8.953125 2.96875 -9.269531 3.09375 -9.65625 C 3.21875 -10.050781 3.28125 -10.523438 3.28125 -11.078125 L 3.28125 -15.921875 C 3.28125 -17.171875 3.570312 -18.132812 4.15625 -18.8125 C 4.75 -19.5 5.617188 -19.84375 6.765625 -19.84375 L 8.546875 -19.84375 L 8.546875 -18.109375 L 7.71875 -18.109375 C 6.914062 -18.109375 6.34375 -17.867188 6 -17.390625 C 5.664062 -16.921875 5.5 -16.203125 5.5 -15.234375 L 5.5 -10.484375 C 5.5 -10.035156 5.429688 -9.625 5.296875 -9.25 C 5.171875 -8.875 4.992188 -8.539062 4.765625 -8.25 C 4.535156 -7.96875 4.265625 -7.726562 3.953125 -7.53125 C 3.640625 -7.34375 3.300781 -7.203125 2.9375 -7.109375 L 2.9375 -7.078125 C 3.320312 -6.992188 3.671875 -6.851562 3.984375 -6.65625 C 4.296875 -6.457031 4.5625 -6.210938 4.78125 -5.921875 C 5.007812 -5.640625 5.1875 -5.3125 5.3125 -4.9375 C 5.4375 -4.5625 5.5 -4.144531 5.5 -3.6875 L 5.5 1.078125 C 5.5 2.023438 5.664062 2.738281 6 3.21875 C 6.34375 3.707031 6.914062 3.953125 7.71875 3.953125 L 8.546875 3.953125 L 8.546875 5.6875 Z M 6.765625 5.6875"/></g><g id="f"><path d="M 1.234375 3.953125 C 2.035156 3.953125 2.609375 3.707031 2.953125 3.21875 C 3.304688 2.738281 3.484375 2.023438 3.484375 1.078125 L 3.484375 -3.6875 C 3.484375 -4.144531 3.546875 -4.5625 3.671875 -4.9375 C 3.796875 -5.3125 3.96875 -5.640625 4.1875 -5.921875 C 4.414062 -6.210938 4.6875 -6.457031 5 -6.65625 C 5.3125 -6.851562 5.65625 -6.992188 6.03125 -7.078125 L 6.03125 -7.109375 C 5.664062 -7.203125 5.328125 -7.34375 5.015625 -7.53125 C 4.703125 -7.726562 4.429688 -7.96875 4.203125 -8.25 C 3.984375 -8.539062 3.804688 -8.875 3.671875 -9.25 C 3.546875 -9.625 3.484375 -10.035156 3.484375 -10.484375 L 3.484375 -15.234375 C 3.484375 -16.203125 3.304688 -16.921875 2.953125 -17.390625 C 2.609375 -17.867188 2.035156 -18.109375 1.234375 -18.109375 L 0.453125 -18.109375 L 0.453125 -19.84375 L 2.1875 -19.84375 C 3.34375 -19.84375 4.210938 -19.5 4.796875 -18.8125 C 5.378906 -18.132812 5.671875 -17.171875 5.671875 -15.921875 L 5.671875 -11.078125 C 5.671875 -10.523438 5.734375 -10.050781 5.859375 -9.65625 C 5.992188 -9.269531 6.179688 -8.953125 6.421875 -8.703125 C 6.660156 -8.453125 6.957031 -8.265625 7.3125 -8.140625 C 7.675781 -8.015625 8.085938 -7.941406 8.546875 -7.921875 L 8.546875 -6.234375 C 8.085938 -6.210938 7.675781 -6.140625 7.3125 -6.015625 C 6.957031 -5.890625 6.660156 -5.703125 6.421875 -5.453125 C 6.179688 -5.203125 5.992188 -4.878906 5.859375 -4.484375 C 5.734375 -4.097656 5.671875 -3.625 5.671875 -3.0625 L 5.671875 1.765625 C 5.671875 2.367188 5.597656 2.910156 5.453125 3.390625 C 5.304688 3.867188 5.085938 4.28125 4.796875 4.625 C 4.503906 4.96875 4.140625 5.226562 3.703125 5.40625 C 3.265625 5.59375 2.757812 5.6875 2.1875 5.6875 L 0.453125 5.6875 L 0.453125 3.953125 Z M 1.234375 3.953125"/></g><g id="g"><path d="M 2.15625 -8.3125 L 0.609375 -8.3125 L 0.609375 -8.796875 L 2.15625 -9.171875 L 2.15625 -9.8125 C 2.15625 -10.5 2.222656 -11.101562 2.359375 -11.625 C 2.503906 -12.144531 2.703125 -12.582031 2.953125 -12.9375 C 3.210938 -13.289062 3.53125 -13.554688 3.90625 -13.734375 C 4.28125 -13.910156 4.703125 -14 5.171875 -14 C 5.460938 -14 5.71875 -13.976562 5.9375 -13.9375 C 6.164062 -13.90625 6.367188 -13.867188 6.546875 -13.828125 L 6.546875 -11.828125 L 6.078125 -11.828125 L 5.640625 -13.03125 C 5.535156 -13.09375 5.421875 -13.140625 5.296875 -13.171875 C 5.179688 -13.210938 5.035156 -13.234375 4.859375 -13.234375 C 4.628906 -13.234375 4.441406 -13.179688 4.296875 -13.078125 C 4.160156 -12.972656 4.050781 -12.816406 3.96875 -12.609375 C 3.882812 -12.398438 3.828125 -12.132812 3.796875 -11.8125 C 3.765625 -11.488281 3.75 -11.097656 3.75 -10.640625 L 3.75 -9.125 L 6.15625 -9.125 L 6.15625 -8.3125 L 3.75 -8.3125 L 3.75 -0.75 L 5.703125 -0.4375 L 5.703125 0 L 0.828125 0 L 0.828125 -0.4375 L 2.15625 -0.75 Z M 2.15625 -8.3125"/></g><g id="h"><path d="M 3.640625 -12.109375 C 3.640625 -11.960938 3.609375 -11.828125 3.546875 -11.703125 C 3.492188 -11.578125 3.421875 -11.46875 3.328125 -11.375 C 3.234375 -11.28125 3.117188 -11.203125 2.984375 -11.140625 C 2.859375 -11.085938 2.726562 -11.0625 2.59375 -11.0625 C 2.445312 -11.0625 2.3125 -11.085938 2.1875 -11.140625 C 2.0625 -11.203125 1.953125 -11.28125 1.859375 -11.375 C 1.765625 -11.46875 1.691406 -11.578125 1.640625 -11.703125 C 1.585938 -11.828125 1.5625 -11.960938 1.5625 -12.109375 C 1.5625 -12.253906 1.585938 -12.390625 1.640625 -12.515625 C 1.691406 -12.648438 1.765625 -12.765625 1.859375 -12.859375 C 1.953125 -12.953125 2.0625 -13.023438 2.1875 -13.078125 C 2.3125 -13.140625 2.445312 -13.171875 2.59375 -13.171875 C 2.726562 -13.171875 2.859375 -13.140625 2.984375 -13.078125 C 3.117188 -13.023438 3.234375 -12.953125 3.328125 -12.859375 C 3.421875 -12.765625 3.492188 -12.648438 3.546875 -12.515625 C 3.609375 -12.390625 3.640625 -12.253906 3.640625 -12.109375 Z M 3.546875 -0.6875 L 5.09375 -0.4375 L 5.09375 0 L 0.40625 0 L 0.40625 -0.4375 L 1.953125 -0.6875 L 1.953125 -8.453125 L 0.671875 -8.6875 L 0.671875 -9.125 L 3.546875 -9.125 Z M 3.546875 -0.6875"/></g><g id="i"><path d="M 6.375 -9.375 L 6.375 -6.90625 L 5.953125 -6.90625 L 5.40625 -7.96875 C 5.226562 -7.96875 5.035156 -7.953125 4.828125 -7.921875 C 4.617188 -7.898438 4.410156 -7.867188 4.203125 -7.828125 C 4.003906 -7.785156 3.8125 -7.734375 3.625 -7.671875 C 3.4375 -7.617188 3.269531 -7.5625 3.125 -7.5 L 3.125 -0.6875 L 4.671875 -0.4375 L 4.671875 0 L 0.390625 0 L 0.390625 -0.4375 L 1.53125 -0.6875 L 1.53125 -8.453125 L 0.390625 -8.6875 L 0.390625 -9.125 L 3.015625 -9.125 L 3.109375 -8 C 3.253906 -8.113281 3.453125 -8.25 3.703125 -8.40625 C 3.960938 -8.570312 4.238281 -8.722656 4.53125 -8.859375 C 4.832031 -9.003906 5.132812 -9.125 5.4375 -9.21875 C 5.738281 -9.320312 6.003906 -9.375 6.234375 -9.375 Z M 6.375 -9.375"/></g><g id="j"><path d="M 2.5 -4.59375 L 2.5 -4.421875 C 2.5 -3.941406 2.53125 -3.484375 2.59375 -3.046875 C 2.664062 -2.617188 2.800781 -2.238281 3 -1.90625 C 3.195312 -1.570312 3.476562 -1.304688 3.84375 -1.109375 C 4.207031 -0.910156 4.6875 -0.8125 5.28125 -0.8125 C 5.476562 -0.8125 5.679688 -0.816406 5.890625 -0.828125 C 6.097656 -0.847656 6.304688 -0.867188 6.515625 -0.890625 C 6.734375 -0.921875 6.941406 -0.953125 7.140625 -0.984375 C 7.335938 -1.023438 7.519531 -1.0625 7.6875 -1.09375 L 7.6875 -0.546875 C 7.539062 -0.453125 7.363281 -0.359375 7.15625 -0.265625 C 6.945312 -0.179688 6.71875 -0.101562 6.46875 -0.03125 C 6.21875 0.03125 5.953125 0.0820312 5.671875 0.125 C 5.390625 0.164062 5.101562 0.1875 4.8125 0.1875 C 4.0625 0.1875 3.429688 0.0859375 2.921875 -0.109375 C 2.410156 -0.316406 1.992188 -0.625 1.671875 -1.03125 C 1.347656 -1.445312 1.113281 -1.953125 0.96875 -2.546875 C 0.832031 -3.148438 0.765625 -3.84375 0.765625 -4.625 C 0.765625 -6.21875 1.09375 -7.40625 1.75 -8.1875 C 2.414062 -8.976562 3.359375 -9.375 4.578125 -9.375 C 5.054688 -9.375 5.503906 -9.304688 5.921875 -9.171875 C 6.347656 -9.046875 6.71875 -8.832031 7.03125 -8.53125 C 7.34375 -8.226562 7.585938 -7.816406 7.765625 -7.296875 C 7.953125 -6.785156 8.046875 -6.148438 8.046875 -5.390625 L 8.046875 -4.59375 Z M 4.578125 -8.59375 C 4.222656 -8.59375 3.914062 -8.515625 3.65625 -8.359375 C 3.394531 -8.210938 3.175781 -8 3 -7.71875 C 2.832031 -7.4375 2.707031 -7.097656 2.625 -6.703125 C 2.550781 -6.304688 2.515625 -5.863281 2.515625 -5.375 L 6.375 -5.375 C 6.375 -5.863281 6.34375 -6.304688 6.28125 -6.703125 C 6.226562 -7.097656 6.132812 -7.4375 6 -7.71875 C 5.863281 -8 5.679688 -8.210938 5.453125 -8.359375 C 5.222656 -8.515625 4.929688 -8.59375 4.578125 -8.59375 Z M 4.578125 -8.59375"/></g><g id="k"><path d="M 3.109375 -8.390625 C 3.285156 -8.492188 3.5 -8.601562 3.75 -8.71875 C 4 -8.832031 4.253906 -8.9375 4.515625 -9.03125 C 4.785156 -9.132812 5.054688 -9.21875 5.328125 -9.28125 C 5.597656 -9.34375 5.847656 -9.375 6.078125 -9.375 C 6.421875 -9.375 6.734375 -9.320312 7.015625 -9.21875 C 7.304688 -9.125 7.554688 -8.96875 7.765625 -8.75 C 7.972656 -8.539062 8.132812 -8.265625 8.25 -7.921875 C 8.375 -7.578125 8.4375 -7.164062 8.4375 -6.6875 L 8.4375 -0.6875 L 9.53125 -0.4375 L 9.53125 0 L 5.640625 0 L 5.640625 -0.4375 L 6.84375 -0.6875 L 6.84375 -6.5 C 6.84375 -7.039062 6.710938 -7.460938 6.453125 -7.765625 C 6.191406 -8.078125 5.789062 -8.234375 5.25 -8.234375 C 5.070312 -8.234375 4.882812 -8.222656 4.6875 -8.203125 C 4.488281 -8.179688 4.289062 -8.15625 4.09375 -8.125 C 3.90625 -8.101562 3.722656 -8.078125 3.546875 -8.046875 C 3.378906 -8.015625 3.238281 -7.984375 3.125 -7.953125 L 3.125 -0.6875 L 4.34375 -0.4375 L 4.34375 0 L 0.453125 0 L 0.453125 -0.4375 L 1.53125 -0.6875 L 1.53125 -8.453125 L 0.453125 -8.6875 L 0.453125 -9.125 L 3.015625 -9.125 Z M 3.109375 -8.390625"/></g><g id="l"><path d="M 0.53125 0 L 0.53125 -0.4375 L 5.484375 -8.359375 L 3.359375 -8.359375 C 3.179688 -8.359375 3.003906 -8.347656 2.828125 -8.328125 C 2.648438 -8.304688 2.484375 -8.28125 2.328125 -8.25 C 2.171875 -8.226562 2.03125 -8.195312 1.90625 -8.15625 C 1.789062 -8.113281 1.695312 -8.066406 1.625 -8.015625 L 1.328125 -6.703125 L 0.890625 -6.703125 L 0.890625 -9.125 L 7.546875 -9.125 L 7.546875 -8.65625 L 2.59375 -0.78125 L 5.234375 -0.78125 C 5.398438 -0.78125 5.582031 -0.789062 5.78125 -0.8125 C 5.976562 -0.832031 6.164062 -0.863281 6.34375 -0.90625 C 6.53125 -0.945312 6.703125 -0.992188 6.859375 -1.046875 C 7.015625 -1.097656 7.140625 -1.160156 7.234375 -1.234375 L 7.71875 -3.140625 L 8.171875 -3.140625 L 7.9375 0 Z M 0.53125 0"/></g><g id="m"><path d="M 2.453125 0.28125 C 2.234375 0.28125 2.023438 0.238281 1.828125 0.15625 C 1.640625 0.0703125 1.472656 -0.0390625 1.328125 -0.1875 C 1.179688 -0.332031 1.066406 -0.5 0.984375 -0.6875 C 0.898438 -0.882812 0.859375 -1.097656 0.859375 -1.328125 C 0.859375 -1.546875 0.898438 -1.753906 0.984375 -1.953125 C 1.066406 -2.148438 1.179688 -2.320312 1.328125 -2.46875 C 1.472656 -2.613281 1.640625 -2.726562 1.828125 -2.8125 C 2.023438 -2.894531 2.234375 -2.9375 2.453125 -2.9375 C 2.671875 -2.9375 2.878906 -2.894531 3.078125 -2.8125 C 3.273438 -2.726562 3.441406 -2.613281 3.578125 -2.46875 C 3.722656 -2.320312 3.835938 -2.148438 3.921875 -1.953125 C 4.003906 -1.753906 4.046875 -1.546875 4.046875 -1.328125 C 4.046875 -1.097656 4.003906 -0.882812 3.921875 -0.6875 C 3.835938 -0.5 3.722656 -0.332031 3.578125 -0.1875 C 3.441406 -0.0390625 3.273438 0.0703125 3.078125 0.15625 C 2.878906 0.238281 2.671875 0.28125 2.453125 0.28125 Z M 2.453125 0.28125"/></g><g id="n"><path d="M 7.03125 -0.515625 C 6.882812 -0.421875 6.738281 -0.328125 6.59375 -0.234375 C 6.445312 -0.148438 6.285156 -0.078125 6.109375 -0.015625 C 5.941406 0.046875 5.742188 0.09375 5.515625 0.125 C 5.296875 0.164062 5.039062 0.1875 4.75 0.1875 C 3.414062 0.1875 2.421875 -0.195312 1.765625 -0.96875 C 1.117188 -1.738281 0.796875 -2.925781 0.796875 -4.53125 C 0.796875 -5.269531 0.875 -5.9375 1.03125 -6.53125 C 1.195312 -7.132812 1.445312 -7.644531 1.78125 -8.0625 C 2.113281 -8.476562 2.535156 -8.800781 3.046875 -9.03125 C 3.566406 -9.257812 4.179688 -9.375 4.890625 -9.375 C 5.585938 -9.375 6.289062 -9.285156 7 -9.109375 C 6.988281 -9.179688 6.976562 -9.28125 6.96875 -9.40625 C 6.96875 -9.539062 6.960938 -9.679688 6.953125 -9.828125 C 6.953125 -9.972656 6.953125 -10.113281 6.953125 -10.25 C 6.953125 -10.394531 6.953125 -10.515625 6.953125 -10.609375 L 6.953125 -12.921875 L 6.03125 -13.15625 L 6.03125 -13.796875 L 9.71875 -13.796875 L 9.71875 -0.875 L 10.71875 -0.640625 L 10.71875 0 L 7.234375 0 Z M 3.609375 -4.609375 C 3.609375 -3.898438 3.65625 -3.304688 3.75 -2.828125 C 3.84375 -2.359375 3.972656 -1.976562 4.140625 -1.6875 C 4.304688 -1.394531 4.492188 -1.1875 4.703125 -1.0625 C 4.910156 -0.945312 5.128906 -0.890625 5.359375 -0.890625 C 5.679688 -0.890625 5.960938 -0.925781 6.203125 -1 C 6.453125 -1.070312 6.703125 -1.171875 6.953125 -1.296875 L 6.953125 -8.171875 C 6.691406 -8.242188 6.441406 -8.296875 6.203125 -8.328125 C 5.972656 -8.359375 5.71875 -8.375 5.4375 -8.375 C 4.851562 -8.375 4.398438 -8.054688 4.078125 -7.421875 C 3.765625 -6.785156 3.609375 -5.847656 3.609375 -4.609375 Z M 3.609375 -4.609375"/></g><g id="o"><path d="M 4.734375 -9.359375 C 5.265625 -9.359375 5.742188 -9.289062 6.171875 -9.15625 C 6.609375 -9.03125 6.972656 -8.804688 7.265625 -8.484375 C 7.566406 -8.171875 7.800781 -7.753906 7.96875 -7.234375 C 8.132812 -6.710938 8.21875 -6.0625 8.21875 -5.28125 L 8.21875 -4.484375 L 3.484375 -4.484375 L 3.484375 -4.328125 C 3.484375 -3.898438 3.5 -3.484375 3.53125 -3.078125 C 3.570312 -2.679688 3.671875 -2.328125 3.828125 -2.015625 C 3.984375 -1.710938 4.222656 -1.46875 4.546875 -1.28125 C 4.867188 -1.101562 5.316406 -1.015625 5.890625 -1.015625 C 6.265625 -1.015625 6.628906 -1.039062 6.984375 -1.09375 C 7.347656 -1.15625 7.691406 -1.222656 8.015625 -1.296875 L 8.015625 -0.546875 C 7.867188 -0.460938 7.679688 -0.375 7.453125 -0.28125 C 7.234375 -0.1875 6.988281 -0.101562 6.71875 -0.03125 C 6.457031 0.03125 6.175781 0.0820312 5.875 0.125 C 5.582031 0.164062 5.296875 0.1875 5.015625 0.1875 C 4.234375 0.1875 3.566406 0.0820312 3.015625 -0.125 C 2.472656 -0.332031 2.023438 -0.640625 1.671875 -1.046875 C 1.328125 -1.453125 1.070312 -1.953125 0.90625 -2.546875 C 0.75 -3.148438 0.671875 -3.835938 0.671875 -4.609375 C 0.671875 -6.203125 1.007812 -7.390625 1.6875 -8.171875 C 2.363281 -8.960938 3.378906 -9.359375 4.734375 -9.359375 Z M 4.640625 -8.375 C 4.410156 -8.375 4.21875 -8.304688 4.0625 -8.171875 C 3.914062 -8.035156 3.800781 -7.84375 3.71875 -7.59375 C 3.632812 -7.34375 3.578125 -7.039062 3.546875 -6.6875 C 3.515625 -6.332031 3.5 -5.9375 3.5 -5.5 L 5.578125 -5.5 C 5.578125 -5.9375 5.566406 -6.332031 5.546875 -6.6875 C 5.535156 -7.039062 5.5 -7.34375 5.4375 -7.59375 C 5.382812 -7.84375 5.289062 -8.035156 5.15625 -8.171875 C 5.03125 -8.304688 4.859375 -8.375 4.640625 -8.375 Z M 4.640625 -8.375"/></g><g id="p"><path d="M 9.171875 -8.296875 L 5.5625 0.1875 L 4.40625 0.1875 L 0.640625 -8.25 L 0 -8.484375 L 0 -9.125 L 4.609375 -9.125 L 4.609375 -8.484375 L 3.546875 -8.234375 L 5.859375 -3.03125 L 7.9375 -8.25 L 6.875 -8.484375 L 6.875 -9.125 L 9.828125 -9.125 L 9.828125 -8.484375 Z M 9.171875 -8.296875"/></g><g id="q"><path d="M 1.96875 -4.0625 L 1.328125 -3.984375 L 1.328125 -0.265625 L 2.140625 -0.265625 C 2.398438 -0.265625 2.613281 -0.269531 2.78125 -0.28125 C 2.945312 -0.300781 3.0625 -0.316406 3.125 -0.328125 L 3.3125 -1.21875 L 3.515625 -1.21875 L 3.46875 0 L 0.1875 0 L 0.1875 -0.171875 L 0.71875 -0.25 L 0.71875 -3.984375 L 0.1875 -4.0625 L 0.1875 -4.234375 L 1.96875 -4.234375 Z M 1.96875 -4.0625"/></g><g id="r"><path d="M 1.453125 -3.03125 C 1.585938 -3.03125 1.710938 -3.015625 1.828125 -2.984375 C 1.941406 -2.960938 2.039062 -2.921875 2.125 -2.859375 C 2.207031 -2.804688 2.269531 -2.726562 2.3125 -2.625 C 2.363281 -2.519531 2.390625 -2.390625 2.390625 -2.234375 L 2.390625 -0.21875 L 2.75 -0.140625 L 2.75 0 L 1.9375 0 L 1.890625 -0.296875 C 1.859375 -0.265625 1.8125 -0.226562 1.75 -0.1875 C 1.695312 -0.144531 1.632812 -0.101562 1.5625 -0.0625 C 1.488281 -0.03125 1.398438 -0.00390625 1.296875 0.015625 C 1.203125 0.046875 1.097656 0.0625 0.984375 0.0625 C 0.835938 0.0625 0.710938 0.0390625 0.609375 0 C 0.515625 -0.0390625 0.4375 -0.101562 0.375 -0.1875 C 0.320312 -0.269531 0.28125 -0.363281 0.25 -0.46875 C 0.226562 -0.570312 0.21875 -0.691406 0.21875 -0.828125 C 0.21875 -0.953125 0.234375 -1.0625 0.265625 -1.15625 C 0.296875 -1.25 0.335938 -1.328125 0.390625 -1.390625 C 0.453125 -1.460938 0.519531 -1.519531 0.59375 -1.5625 C 0.675781 -1.601562 0.757812 -1.632812 0.84375 -1.65625 C 0.9375 -1.675781 1.03125 -1.691406 1.125 -1.703125 C 1.226562 -1.710938 1.328125 -1.71875 1.421875 -1.71875 L 1.859375 -1.734375 L 1.859375 -2.203125 C 1.859375 -2.285156 1.851562 -2.363281 1.84375 -2.4375 C 1.832031 -2.507812 1.804688 -2.570312 1.765625 -2.625 C 1.734375 -2.675781 1.6875 -2.71875 1.625 -2.75 C 1.570312 -2.78125 1.5 -2.796875 1.40625 -2.796875 C 1.3125 -2.796875 1.210938 -2.78125 1.109375 -2.75 C 1.003906 -2.726562 0.914062 -2.691406 0.84375 -2.640625 L 0.734375 -2.28125 L 0.5625 -2.28125 L 0.5625 -2.921875 C 0.695312 -2.953125 0.835938 -2.976562 0.984375 -3 C 1.128906 -3.019531 1.285156 -3.03125 1.453125 -3.03125 Z M 1.859375 -1.515625 L 1.453125 -1.5 C 1.328125 -1.5 1.21875 -1.488281 1.125 -1.46875 C 1.039062 -1.445312 0.96875 -1.410156 0.90625 -1.359375 C 0.851562 -1.304688 0.8125 -1.238281 0.78125 -1.15625 C 0.757812 -1.070312 0.75 -0.96875 0.75 -0.84375 C 0.75 -0.46875 0.894531 -0.28125 1.1875 -0.28125 C 1.332031 -0.28125 1.453125 -0.296875 1.546875 -0.328125 C 1.648438 -0.359375 1.753906 -0.398438 1.859375 -0.453125 Z M 1.859375 -1.515625"/></g><g id="t"><path d="M 2.640625 -0.1875 C 2.585938 -0.144531 2.519531 -0.109375 2.4375 -0.078125 C 2.363281 -0.046875 2.285156 -0.0195312 2.203125 0 C 2.117188 0.0195312 2.03125 0.0351562 1.9375 0.046875 C 1.84375 0.0546875 1.753906 0.0625 1.671875 0.0625 C 1.410156 0.0625 1.191406 0.0234375 1.015625 -0.046875 C 0.835938 -0.117188 0.691406 -0.21875 0.578125 -0.34375 C 0.460938 -0.476562 0.378906 -0.644531 0.328125 -0.84375 C 0.273438 -1.039062 0.25 -1.257812 0.25 -1.5 C 0.25 -1.769531 0.28125 -2.003906 0.34375 -2.203125 C 0.414062 -2.398438 0.515625 -2.5625 0.640625 -2.6875 C 0.765625 -2.8125 0.910156 -2.898438 1.078125 -2.953125 C 1.253906 -3.015625 1.441406 -3.046875 1.640625 -3.046875 C 1.816406 -3.046875 1.984375 -3.035156 2.140625 -3.015625 C 2.296875 -2.992188 2.4375 -2.972656 2.5625 -2.953125 L 2.5625 -2.125 L 2.390625 -2.125 L 2.265625 -2.640625 C 2.179688 -2.691406 2.082031 -2.726562 1.96875 -2.75 C 1.863281 -2.78125 1.753906 -2.796875 1.640625 -2.796875 C 1.503906 -2.796875 1.382812 -2.769531 1.28125 -2.71875 C 1.175781 -2.664062 1.085938 -2.585938 1.015625 -2.484375 C 0.953125 -2.378906 0.898438 -2.242188 0.859375 -2.078125 C 0.828125 -1.921875 0.8125 -1.726562 0.8125 -1.5 C 0.8125 -1.3125 0.828125 -1.140625 0.859375 -0.984375 C 0.890625 -0.835938 0.941406 -0.707031 1.015625 -0.59375 C 1.097656 -0.488281 1.203125 -0.40625 1.328125 -0.34375 C 1.460938 -0.289062 1.632812 -0.265625 1.84375 -0.265625 C 1.914062 -0.265625 1.988281 -0.265625 2.0625 -0.265625 C 2.132812 -0.273438 2.207031 -0.285156 2.28125 -0.296875 C 2.351562 -0.304688 2.414062 -0.316406 2.46875 -0.328125 C 2.53125 -0.335938 2.585938 -0.351562 2.640625 -0.375 Z M 2.640625 -0.1875"/></g><g id="u"><path d="M 2.953125 -1.5 C 2.953125 -1 2.835938 -0.613281 2.609375 -0.34375 C 2.390625 -0.0703125 2.046875 0.0625 1.578125 0.0625 C 1.140625 0.0625 0.804688 -0.0664062 0.578125 -0.328125 C 0.359375 -0.597656 0.25 -0.988281 0.25 -1.5 C 0.25 -2 0.359375 -2.378906 0.578125 -2.640625 C 0.804688 -2.910156 1.148438 -3.046875 1.609375 -3.046875 C 2.046875 -3.046875 2.378906 -2.914062 2.609375 -2.65625 C 2.835938 -2.394531 2.953125 -2.007812 2.953125 -1.5 Z M 2.390625 -1.5 C 2.390625 -1.707031 2.375 -1.890625 2.34375 -2.046875 C 2.320312 -2.210938 2.28125 -2.347656 2.21875 -2.453125 C 2.15625 -2.566406 2.070312 -2.648438 1.96875 -2.703125 C 1.863281 -2.765625 1.734375 -2.796875 1.578125 -2.796875 C 1.421875 -2.796875 1.289062 -2.765625 1.1875 -2.703125 C 1.09375 -2.648438 1.015625 -2.566406 0.953125 -2.453125 C 0.898438 -2.347656 0.863281 -2.210938 0.84375 -2.046875 C 0.820312 -1.890625 0.8125 -1.707031 0.8125 -1.5 C 0.8125 -1.289062 0.820312 -1.101562 0.84375 -0.9375 C 0.863281 -0.78125 0.898438 -0.644531 0.953125 -0.53125 C 1.015625 -0.414062 1.09375 -0.328125 1.1875 -0.265625 C 1.289062 -0.210938 1.421875 -0.1875 1.578125 -0.1875 C 1.734375 -0.1875 1.863281 -0.210938 1.96875 -0.265625 C 2.070312 -0.328125 2.15625 -0.414062 2.21875 -0.53125 C 2.28125 -0.644531 2.320312 -0.78125 2.34375 -0.9375 C 2.375 -1.101562 2.390625 -1.289062 2.390625 -1.5 Z M 2.390625 -1.5"/></g><g id="v"><path d="M 1.015625 -2.734375 C 1.078125 -2.765625 1.144531 -2.796875 1.21875 -2.828125 C 1.300781 -2.867188 1.382812 -2.90625 1.46875 -2.9375 C 1.550781 -2.96875 1.632812 -2.992188 1.71875 -3.015625 C 1.8125 -3.035156 1.894531 -3.046875 1.96875 -3.046875 C 2.113281 -3.046875 2.25 -3.019531 2.375 -2.96875 C 2.5 -2.914062 2.585938 -2.828125 2.640625 -2.703125 C 2.710938 -2.742188 2.796875 -2.785156 2.890625 -2.828125 C 2.984375 -2.867188 3.078125 -2.90625 3.171875 -2.9375 C 3.273438 -2.96875 3.375 -2.992188 3.46875 -3.015625 C 3.570312 -3.035156 3.664062 -3.046875 3.75 -3.046875 C 3.851562 -3.046875 3.953125 -3.03125 4.046875 -3 C 4.140625 -2.96875 4.21875 -2.914062 4.28125 -2.84375 C 4.351562 -2.78125 4.40625 -2.691406 4.4375 -2.578125 C 4.476562 -2.460938 4.5 -2.328125 4.5 -2.171875 L 4.5 -0.21875 L 4.875 -0.140625 L 4.875 0 L 3.53125 0 L 3.53125 -0.140625 L 3.96875 -0.21875 L 3.96875 -2.109375 C 3.96875 -2.285156 3.925781 -2.421875 3.84375 -2.515625 C 3.769531 -2.609375 3.644531 -2.65625 3.46875 -2.65625 C 3.414062 -2.65625 3.351562 -2.648438 3.28125 -2.640625 C 3.21875 -2.640625 3.148438 -2.632812 3.078125 -2.625 C 3.003906 -2.613281 2.929688 -2.597656 2.859375 -2.578125 C 2.796875 -2.566406 2.742188 -2.554688 2.703125 -2.546875 C 2.734375 -2.429688 2.75 -2.304688 2.75 -2.171875 L 2.75 -0.21875 L 3.203125 -0.140625 L 3.203125 0 L 1.796875 0 L 1.796875 -0.140625 L 2.234375 -0.21875 L 2.234375 -2.109375 C 2.234375 -2.285156 2.1875 -2.421875 2.09375 -2.515625 C 2.007812 -2.609375 1.878906 -2.65625 1.703125 -2.65625 C 1.648438 -2.65625 1.585938 -2.648438 1.515625 -2.640625 C 1.453125 -2.640625 1.390625 -2.632812 1.328125 -2.625 C 1.273438 -2.613281 1.21875 -2.601562 1.15625 -2.59375 C 1.101562 -2.582031 1.0625 -2.570312 1.03125 -2.5625 L 1.03125 -0.21875 L 1.46875 -0.140625 L 1.46875 0 L 0.140625 0 L 0.140625 -0.140625 L 0.5 -0.21875 L 0.5 -2.75 L 0.140625 -2.828125 L 0.140625 -2.96875 L 1 -2.96875 Z M 1.015625 -2.734375"/></g><g id="w"><path d="M 0.984375 -0.84375 C 0.984375 -0.664062 1.019531 -0.53125 1.09375 -0.4375 C 1.164062 -0.34375 1.289062 -0.296875 1.46875 -0.296875 C 1.59375 -0.296875 1.71875 -0.300781 1.84375 -0.3125 C 1.96875 -0.332031 2.085938 -0.363281 2.203125 -0.40625 L 2.203125 -2.75 L 1.75 -2.828125 L 1.75 -2.96875 L 2.71875 -2.96875 L 2.71875 -0.21875 L 3.09375 -0.140625 L 3.09375 0 L 2.234375 0 L 2.203125 -0.234375 C 2.140625 -0.203125 2.066406 -0.164062 1.984375 -0.125 C 1.898438 -0.09375 1.8125 -0.0625 1.71875 -0.03125 C 1.632812 -0.0078125 1.546875 0.0078125 1.453125 0.03125 C 1.359375 0.0507812 1.273438 0.0625 1.203125 0.0625 C 1.097656 0.0625 1 0.046875 0.90625 0.015625 C 0.8125 -0.015625 0.726562 -0.0625 0.65625 -0.125 C 0.59375 -0.195312 0.539062 -0.289062 0.5 -0.40625 C 0.46875 -0.519531 0.453125 -0.65625 0.453125 -0.8125 L 0.453125 -2.75 L 0.078125 -2.828125 L 0.078125 -2.96875 L 0.984375 -2.96875 Z M 0.984375 -0.84375"/></g><g id="x"><path d="M 1.015625 -2.734375 C 1.066406 -2.765625 1.132812 -2.796875 1.21875 -2.828125 C 1.300781 -2.867188 1.382812 -2.90625 1.46875 -2.9375 C 1.550781 -2.96875 1.632812 -2.992188 1.71875 -3.015625 C 1.8125 -3.035156 1.894531 -3.046875 1.96875 -3.046875 C 2.082031 -3.046875 2.1875 -3.03125 2.28125 -3 C 2.375 -2.96875 2.453125 -2.914062 2.515625 -2.84375 C 2.585938 -2.78125 2.644531 -2.691406 2.6875 -2.578125 C 2.726562 -2.460938 2.75 -2.328125 2.75 -2.171875 L 2.75 -0.21875 L 3.09375 -0.140625 L 3.09375 0 L 1.828125 0 L 1.828125 -0.140625 L 2.21875 -0.21875 L 2.21875 -2.109375 C 2.21875 -2.285156 2.175781 -2.421875 2.09375 -2.515625 C 2.007812 -2.617188 1.878906 -2.671875 1.703125 -2.671875 C 1.648438 -2.671875 1.585938 -2.664062 1.515625 -2.65625 C 1.453125 -2.65625 1.390625 -2.648438 1.328125 -2.640625 C 1.265625 -2.640625 1.207031 -2.628906 1.15625 -2.609375 C 1.101562 -2.597656 1.054688 -2.59375 1.015625 -2.59375 L 1.015625 -0.21875 L 1.40625 -0.140625 L 1.40625 0 L 0.140625 0 L 0.140625 -0.140625 L 0.5 -0.21875 L 0.5 -2.75 L 0.140625 -2.828125 L 0.140625 -2.96875 L 0.984375 -2.96875 Z M 1.015625 -2.734375"/></g><g id="y"><path d="M 1.1875 -3.9375 C 1.1875 -3.894531 1.175781 -3.851562 1.15625 -3.8125 C 1.132812 -3.769531 1.109375 -3.734375 1.078125 -3.703125 C 1.046875 -3.671875 1.007812 -3.644531 0.96875 -3.625 C 0.925781 -3.601562 0.882812 -3.59375 0.84375 -3.59375 C 0.800781 -3.59375 0.757812 -3.601562 0.71875 -3.625 C 0.675781 -3.644531 0.640625 -3.671875 0.609375 -3.703125 C 0.578125 -3.734375 0.550781 -3.769531 0.53125 -3.8125 C 0.507812 -3.851562 0.5 -3.894531 0.5 -3.9375 C 0.5 -3.988281 0.507812 -4.035156 0.53125 -4.078125 C 0.550781 -4.117188 0.578125 -4.15625 0.609375 -4.1875 C 0.640625 -4.21875 0.675781 -4.238281 0.71875 -4.25 C 0.757812 -4.269531 0.800781 -4.28125 0.84375 -4.28125 C 0.882812 -4.28125 0.925781 -4.269531 0.96875 -4.25 C 1.007812 -4.238281 1.046875 -4.21875 1.078125 -4.1875 C 1.109375 -4.15625 1.132812 -4.117188 1.15625 -4.078125 C 1.175781 -4.035156 1.1875 -3.988281 1.1875 -3.9375 Z M 1.15625 -0.21875 L 1.65625 -0.140625 L 1.65625 0 L 0.140625 0 L 0.140625 -0.140625 L 0.640625 -0.21875 L 0.640625 -2.75 L 0.21875 -2.828125 L 0.21875 -2.96875 L 1.15625 -2.96875 Z M 1.15625 -0.21875"/></g><g id="z"><path d="M 1.046875 0.0625 C 0.847656 0.0625 0.695312 0.00390625 0.59375 -0.109375 C 0.5 -0.234375 0.453125 -0.40625 0.453125 -0.625 L 0.453125 -2.703125 L 0.0625 -2.703125 L 0.0625 -2.84375 L 0.453125 -2.96875 L 0.765625 -3.640625 L 0.96875 -3.640625 L 0.96875 -2.96875 L 1.640625 -2.96875 L 1.640625 -2.703125 L 0.96875 -2.703125 L 0.96875 -0.671875 C 0.96875 -0.535156 0.992188 -0.429688 1.046875 -0.359375 C 1.109375 -0.296875 1.191406 -0.265625 1.296875 -0.265625 C 1.367188 -0.265625 1.441406 -0.269531 1.515625 -0.28125 C 1.597656 -0.289062 1.671875 -0.300781 1.734375 -0.3125 L 1.734375 -0.109375 C 1.703125 -0.0859375 1.660156 -0.0664062 1.609375 -0.046875 C 1.554688 -0.0234375 1.5 -0.0078125 1.4375 0 C 1.382812 0.0195312 1.320312 0.0351562 1.25 0.046875 C 1.175781 0.0546875 1.109375 0.0625 1.046875 0.0625 Z M 1.046875 0.0625"/></g><g id="B"><path d="M 2.859375 -2.765625 L 1.71875 0.1875 C 1.65625 0.351562 1.585938 0.507812 1.515625 0.65625 C 1.441406 0.8125 1.363281 0.941406 1.28125 1.046875 C 1.195312 1.148438 1.101562 1.234375 1 1.296875 C 0.894531 1.359375 0.769531 1.390625 0.625 1.390625 C 0.570312 1.390625 0.523438 1.390625 0.484375 1.390625 C 0.441406 1.390625 0.398438 1.382812 0.359375 1.375 C 0.328125 1.375 0.289062 1.367188 0.25 1.359375 C 0.21875 1.359375 0.179688 1.351562 0.140625 1.34375 L 0.140625 0.703125 L 0.28125 0.703125 L 0.390625 1 C 0.453125 1.050781 0.539062 1.078125 0.65625 1.078125 C 0.75 1.078125 0.832031 1.054688 0.90625 1.015625 C 0.976562 0.972656 1.039062 0.914062 1.09375 0.84375 C 1.15625 0.769531 1.210938 0.679688 1.265625 0.578125 C 1.316406 0.484375 1.363281 0.378906 1.40625 0.265625 L 1.5 0.03125 L 0.375 -2.75 L 0.078125 -2.828125 L 0.078125 -2.96875 L 1.4375 -2.96875 L 1.4375 -2.828125 L 0.984375 -2.734375 L 1.765625 -0.671875 L 2.53125 -2.75 L 2.078125 -2.828125 L 2.078125 -2.96875 L 3.171875 -2.96875 L 3.171875 -2.828125 Z M 2.859375 -2.765625"/></g><g id="C"><path d="M 2.25 -0.21875 C 2.164062 -0.144531 2.050781 -0.078125 1.90625 -0.015625 C 1.769531 0.0351562 1.613281 0.0625 1.4375 0.0625 C 0.632812 0.0625 0.234375 -0.441406 0.234375 -1.453125 C 0.234375 -1.703125 0.257812 -1.925781 0.3125 -2.125 C 0.363281 -2.320312 0.441406 -2.488281 0.546875 -2.625 C 0.660156 -2.757812 0.800781 -2.863281 0.96875 -2.9375 C 1.132812 -3.007812 1.335938 -3.046875 1.578125 -3.046875 C 1.679688 -3.046875 1.789062 -3.039062 1.90625 -3.03125 C 2.03125 -3.019531 2.144531 -3 2.25 -2.96875 C 2.25 -3 2.25 -3.035156 2.25 -3.078125 C 2.25 -3.117188 2.242188 -3.164062 2.234375 -3.21875 C 2.234375 -3.269531 2.234375 -3.320312 2.234375 -3.375 C 2.234375 -3.425781 2.234375 -3.46875 2.234375 -3.5 L 2.234375 -4.265625 L 1.75 -4.34375 L 1.75 -4.484375 L 2.75 -4.484375 L 2.75 -0.21875 L 3.125 -0.140625 L 3.125 0 L 2.296875 0 Z M 0.796875 -1.453125 C 0.796875 -1.234375 0.8125 -1.046875 0.84375 -0.890625 C 0.882812 -0.742188 0.941406 -0.625 1.015625 -0.53125 C 1.085938 -0.4375 1.171875 -0.367188 1.265625 -0.328125 C 1.367188 -0.285156 1.484375 -0.265625 1.609375 -0.265625 C 1.734375 -0.265625 1.847656 -0.273438 1.953125 -0.296875 C 2.066406 -0.328125 2.160156 -0.359375 2.234375 -0.390625 L 2.234375 -2.734375 C 2.148438 -2.753906 2.050781 -2.765625 1.9375 -2.765625 C 1.820312 -2.773438 1.710938 -2.78125 1.609375 -2.78125 C 1.328125 -2.78125 1.117188 -2.664062 0.984375 -2.4375 C 0.859375 -2.21875 0.796875 -1.890625 0.796875 -1.453125 Z M 0.796875 -1.453125"/></g><g id="D"><path d="M 0.8125 -1.5 L 0.8125 -1.4375 C 0.8125 -1.28125 0.820312 -1.128906 0.84375 -0.984375 C 0.863281 -0.847656 0.90625 -0.722656 0.96875 -0.609375 C 1.039062 -0.503906 1.132812 -0.421875 1.25 -0.359375 C 1.363281 -0.296875 1.519531 -0.265625 1.71875 -0.265625 C 1.78125 -0.265625 1.84375 -0.265625 1.90625 -0.265625 C 1.976562 -0.273438 2.046875 -0.285156 2.109375 -0.296875 C 2.179688 -0.304688 2.25 -0.316406 2.3125 -0.328125 C 2.382812 -0.335938 2.445312 -0.347656 2.5 -0.359375 L 2.5 -0.1875 C 2.445312 -0.144531 2.382812 -0.109375 2.3125 -0.078125 C 2.25 -0.0546875 2.175781 -0.0351562 2.09375 -0.015625 C 2.019531 0.00390625 1.9375 0.0195312 1.84375 0.03125 C 1.75 0.0507812 1.65625 0.0625 1.5625 0.0625 C 1.320312 0.0625 1.117188 0.03125 0.953125 -0.03125 C 0.785156 -0.101562 0.648438 -0.203125 0.546875 -0.328125 C 0.441406 -0.460938 0.363281 -0.628906 0.3125 -0.828125 C 0.269531 -1.023438 0.25 -1.25 0.25 -1.5 C 0.25 -2.019531 0.351562 -2.40625 0.5625 -2.65625 C 0.78125 -2.914062 1.085938 -3.046875 1.484375 -3.046875 C 1.640625 -3.046875 1.785156 -3.023438 1.921875 -2.984375 C 2.054688 -2.941406 2.175781 -2.867188 2.28125 -2.765625 C 2.382812 -2.671875 2.460938 -2.539062 2.515625 -2.375 C 2.578125 -2.207031 2.609375 -2 2.609375 -1.75 L 2.609375 -1.5 Z M 1.484375 -2.796875 C 1.367188 -2.796875 1.269531 -2.769531 1.1875 -2.71875 C 1.101562 -2.664062 1.03125 -2.59375 0.96875 -2.5 C 0.914062 -2.414062 0.875 -2.304688 0.84375 -2.171875 C 0.820312 -2.046875 0.8125 -1.90625 0.8125 -1.75 L 2.078125 -1.75 C 2.078125 -1.90625 2.066406 -2.046875 2.046875 -2.171875 C 2.023438 -2.304688 1.992188 -2.414062 1.953125 -2.5 C 1.910156 -2.59375 1.847656 -2.664062 1.765625 -2.71875 C 1.691406 -2.769531 1.597656 -2.796875 1.484375 -2.796875 Z M 1.484375 -2.796875"/></g><g id="F"><path d="M 2.71875 -2.03125 C 2.71875 -1.6875 2.613281 -1.425781 2.40625 -1.25 C 2.207031 -1.082031 1.921875 -1 1.546875 -1 C 1.453125 -1 1.363281 -1 1.28125 -1 C 1.195312 -1.007812 1.125 -1.023438 1.0625 -1.046875 L 0.875 -0.625 C 0.875 -0.59375 0.910156 -0.5625 0.984375 -0.53125 C 1.066406 -0.5 1.160156 -0.484375 1.265625 -0.484375 L 2.140625 -0.484375 C 2.453125 -0.484375 2.6875 -0.410156 2.84375 -0.265625 C 3 -0.128906 3.078125 0.0546875 3.078125 0.296875 C 3.078125 0.441406 3.046875 0.578125 2.984375 0.703125 C 2.929688 0.835938 2.84375 0.953125 2.71875 1.046875 C 2.59375 1.148438 2.429688 1.234375 2.234375 1.296875 C 2.035156 1.359375 1.789062 1.390625 1.5 1.390625 C 1.28125 1.390625 1.09375 1.367188 0.9375 1.328125 C 0.78125 1.296875 0.648438 1.25 0.546875 1.1875 C 0.453125 1.125 0.382812 1.046875 0.34375 0.953125 C 0.300781 0.867188 0.28125 0.773438 0.28125 0.671875 C 0.28125 0.609375 0.289062 0.546875 0.3125 0.484375 C 0.34375 0.421875 0.378906 0.359375 0.421875 0.296875 C 0.472656 0.242188 0.53125 0.1875 0.59375 0.125 C 0.65625 0.0703125 0.722656 0.0195312 0.796875 -0.03125 C 0.765625 -0.0390625 0.722656 -0.0625 0.671875 -0.09375 C 0.617188 -0.125 0.570312 -0.160156 0.53125 -0.203125 C 0.488281 -0.242188 0.453125 -0.289062 0.421875 -0.34375 C 0.390625 -0.40625 0.375 -0.472656 0.375 -0.546875 L 0.875 -1.109375 C 0.539062 -1.265625 0.375 -1.570312 0.375 -2.03125 C 0.375 -2.195312 0.398438 -2.34375 0.453125 -2.46875 C 0.515625 -2.59375 0.59375 -2.695312 0.6875 -2.78125 C 0.789062 -2.875 0.914062 -2.941406 1.0625 -2.984375 C 1.207031 -3.023438 1.375 -3.046875 1.5625 -3.046875 C 1.625 -3.046875 1.679688 -3.039062 1.734375 -3.03125 C 1.796875 -3.03125 1.851562 -3.023438 1.90625 -3.015625 C 1.96875 -3.003906 2.015625 -2.992188 2.046875 -2.984375 C 2.085938 -2.984375 2.117188 -2.976562 2.140625 -2.96875 L 2.828125 -3.3125 L 2.9375 -3.1875 L 2.5 -2.734375 C 2.570312 -2.648438 2.625 -2.546875 2.65625 -2.421875 C 2.695312 -2.304688 2.71875 -2.175781 2.71875 -2.03125 Z M 2.59375 0.40625 C 2.59375 0.28125 2.554688 0.179688 2.484375 0.109375 C 2.410156 0.046875 2.296875 0.015625 2.140625 0.015625 L 1.015625 0.015625 C 0.972656 0.0546875 0.929688 0.0976562 0.890625 0.140625 C 0.859375 0.191406 0.828125 0.242188 0.796875 0.296875 C 0.773438 0.359375 0.753906 0.414062 0.734375 0.46875 C 0.722656 0.53125 0.71875 0.585938 0.71875 0.640625 C 0.71875 0.710938 0.726562 0.78125 0.75 0.84375 C 0.769531 0.90625 0.8125 0.957031 0.875 1 C 0.9375 1.039062 1.015625 1.070312 1.109375 1.09375 C 1.210938 1.125 1.34375 1.140625 1.5 1.140625 C 1.6875 1.140625 1.847656 1.117188 1.984375 1.078125 C 2.117188 1.046875 2.226562 0.992188 2.3125 0.921875 C 2.40625 0.859375 2.472656 0.78125 2.515625 0.6875 C 2.566406 0.601562 2.59375 0.507812 2.59375 0.40625 Z M 1.546875 -1.234375 C 1.773438 -1.234375 1.9375 -1.296875 2.03125 -1.421875 C 2.125 -1.554688 2.171875 -1.757812 2.171875 -2.03125 C 2.171875 -2.164062 2.160156 -2.28125 2.140625 -2.375 C 2.117188 -2.476562 2.082031 -2.5625 2.03125 -2.625 C 1.976562 -2.6875 1.910156 -2.734375 1.828125 -2.765625 C 1.753906 -2.796875 1.660156 -2.8125 1.546875 -2.8125 C 1.429688 -2.8125 1.332031 -2.796875 1.25 -2.765625 C 1.175781 -2.734375 1.113281 -2.6875 1.0625 -2.625 C 1.007812 -2.5625 0.972656 -2.476562 0.953125 -2.375 C 0.929688 -2.28125 0.921875 -2.164062 0.921875 -2.03125 C 0.921875 -1.894531 0.929688 -1.773438 0.953125 -1.671875 C 0.972656 -1.578125 1.007812 -1.492188 1.0625 -1.421875 C 1.113281 -1.359375 1.175781 -1.3125 1.25 -1.28125 C 1.332031 -1.25 1.429688 -1.234375 1.546875 -1.234375 Z M 1.546875 -1.234375"/></g><g id="G"><path d="M 1.140625 -0.21875 L 1.640625 -0.140625 L 1.640625 0 L 0.125 0 L 0.125 -0.140625 L 0.625 -0.21875 L 0.625 -4.265625 L 0.125 -4.34375 L 0.125 -4.484375 L 1.140625 -4.484375 Z M 1.140625 -0.21875"/></g><g id="H"><path d="M 2.25 -0.828125 C 2.25 -0.703125 2.226562 -0.582031 2.1875 -0.46875 C 2.15625 -0.351562 2.09375 -0.253906 2 -0.171875 C 1.914062 -0.0976562 1.800781 -0.0390625 1.65625 0 C 1.519531 0.0390625 1.351562 0.0625 1.15625 0.0625 C 1.0625 0.0625 0.96875 0.0546875 0.875 0.046875 C 0.78125 0.0351562 0.691406 0.0195312 0.609375 0 C 0.523438 -0.0078125 0.453125 -0.0195312 0.390625 -0.03125 C 0.335938 -0.0507812 0.296875 -0.0664062 0.265625 -0.078125 L 0.265625 -0.8125 L 0.40625 -0.8125 L 0.5625 -0.40625 C 0.625 -0.34375 0.707031 -0.289062 0.8125 -0.25 C 0.914062 -0.207031 1.035156 -0.1875 1.171875 -0.1875 C 1.359375 -0.1875 1.503906 -0.226562 1.609375 -0.3125 C 1.722656 -0.394531 1.78125 -0.523438 1.78125 -0.703125 C 1.78125 -0.816406 1.753906 -0.90625 1.703125 -0.96875 C 1.660156 -1.039062 1.601562 -1.097656 1.53125 -1.140625 C 1.46875 -1.191406 1.390625 -1.226562 1.296875 -1.25 C 1.203125 -1.28125 1.109375 -1.3125 1.015625 -1.34375 C 0.921875 -1.382812 0.828125 -1.421875 0.734375 -1.453125 C 0.648438 -1.492188 0.570312 -1.546875 0.5 -1.609375 C 0.425781 -1.671875 0.367188 -1.75 0.328125 -1.84375 C 0.285156 -1.945312 0.265625 -2.066406 0.265625 -2.203125 C 0.265625 -2.335938 0.285156 -2.457031 0.328125 -2.5625 C 0.378906 -2.664062 0.445312 -2.753906 0.53125 -2.828125 C 0.625 -2.898438 0.726562 -2.953125 0.84375 -2.984375 C 0.96875 -3.023438 1.097656 -3.046875 1.234375 -3.046875 C 1.378906 -3.046875 1.519531 -3.035156 1.65625 -3.015625 C 1.789062 -2.992188 1.921875 -2.972656 2.046875 -2.953125 L 2.046875 -2.296875 L 1.890625 -2.296875 L 1.765625 -2.640625 C 1.710938 -2.691406 1.640625 -2.726562 1.546875 -2.75 C 1.453125 -2.78125 1.351562 -2.796875 1.25 -2.796875 C 1.082031 -2.796875 0.953125 -2.753906 0.859375 -2.671875 C 0.773438 -2.585938 0.734375 -2.472656 0.734375 -2.328125 C 0.734375 -2.234375 0.753906 -2.15625 0.796875 -2.09375 C 0.835938 -2.03125 0.894531 -1.972656 0.96875 -1.921875 C 1.039062 -1.878906 1.117188 -1.84375 1.203125 -1.8125 C 1.296875 -1.78125 1.390625 -1.75 1.484375 -1.71875 C 1.585938 -1.6875 1.679688 -1.648438 1.765625 -1.609375 C 1.859375 -1.566406 1.941406 -1.507812 2.015625 -1.4375 C 2.085938 -1.375 2.144531 -1.289062 2.1875 -1.1875 C 2.226562 -1.09375 2.25 -0.972656 2.25 -0.828125 Z M 2.25 -0.828125"/></g><g id="I"><path d="M 2.921875 -2.765625 L 1.734375 0.0625 L 1.5 0.0625 L 0.296875 -2.75 L 0 -2.828125 L 0 -2.96875 L 1.359375 -2.96875 L 1.359375 -2.828125 L 0.90625 -2.734375 L 1.75 -0.6875 L 2.578125 -2.75 L 2.109375 -2.828125 L 2.109375 -2.96875 L 3.203125 -2.96875 L 3.203125 -2.828125 Z M 2.921875 -2.765625"/></g><g id="K"><path d="M 0.46875 -2.75 L 0.140625 -2.828125 L 0.140625 -2.96875 L 0.96875 -2.96875 L 0.96875 -2.796875 C 1.007812 -2.835938 1.0625 -2.867188 1.125 -2.890625 C 1.1875 -2.921875 1.25 -2.945312 1.3125 -2.96875 C 1.382812 -3 1.457031 -3.019531 1.53125 -3.03125 C 1.613281 -3.039062 1.691406 -3.046875 1.765625 -3.046875 C 1.953125 -3.046875 2.117188 -3.015625 2.265625 -2.953125 C 2.410156 -2.890625 2.53125 -2.789062 2.625 -2.65625 C 2.726562 -2.53125 2.804688 -2.367188 2.859375 -2.171875 C 2.921875 -1.984375 2.953125 -1.765625 2.953125 -1.515625 C 2.953125 -1.273438 2.921875 -1.054688 2.859375 -0.859375 C 2.804688 -0.671875 2.722656 -0.503906 2.609375 -0.359375 C 2.503906 -0.222656 2.367188 -0.117188 2.203125 -0.046875 C 2.046875 0.0234375 1.859375 0.0625 1.640625 0.0625 C 1.535156 0.0625 1.421875 0.0546875 1.296875 0.046875 C 1.179688 0.0351562 1.070312 0.0195312 0.96875 0 C 0.96875 0.0195312 0.96875 0.046875 0.96875 0.078125 C 0.976562 0.109375 0.984375 0.140625 0.984375 0.171875 C 0.984375 0.210938 0.984375 0.25 0.984375 0.28125 C 0.984375 0.3125 0.984375 0.332031 0.984375 0.34375 L 0.984375 1.15625 L 1.5 1.234375 L 1.5 1.375 L 0.109375 1.375 L 0.109375 1.234375 L 0.46875 1.15625 Z M 2.390625 -1.515625 C 2.390625 -1.734375 2.367188 -1.914062 2.328125 -2.0625 C 2.296875 -2.21875 2.242188 -2.34375 2.171875 -2.4375 C 2.109375 -2.53125 2.023438 -2.597656 1.921875 -2.640625 C 1.828125 -2.691406 1.71875 -2.71875 1.59375 -2.71875 C 1.5 -2.71875 1.394531 -2.707031 1.28125 -2.6875 C 1.164062 -2.664062 1.066406 -2.640625 0.984375 -2.609375 L 0.984375 -0.234375 C 1.078125 -0.222656 1.175781 -0.210938 1.28125 -0.203125 C 1.382812 -0.191406 1.488281 -0.1875 1.59375 -0.1875 C 1.875 -0.1875 2.078125 -0.300781 2.203125 -0.53125 C 2.328125 -0.757812 2.390625 -1.085938 2.390625 -1.515625 Z M 2.390625 -1.515625"/></g><g id="M"><path d="M 2.078125 -3.046875 L 2.078125 -2.25 L 1.9375 -2.25 L 1.75 -2.59375 C 1.695312 -2.59375 1.632812 -2.585938 1.5625 -2.578125 C 1.5 -2.566406 1.429688 -2.554688 1.359375 -2.546875 C 1.296875 -2.535156 1.234375 -2.519531 1.171875 -2.5 C 1.109375 -2.476562 1.054688 -2.457031 1.015625 -2.4375 L 1.015625 -0.21875 L 1.515625 -0.140625 L 1.515625 0 L 0.125 0 L 0.125 -0.140625 L 0.5 -0.21875 L 0.5 -2.75 L 0.125 -2.828125 L 0.125 -2.96875 L 0.984375 -2.96875 L 1.015625 -2.59375 C 1.054688 -2.632812 1.117188 -2.679688 1.203125 -2.734375 C 1.285156 -2.785156 1.375 -2.832031 1.46875 -2.875 C 1.570312 -2.925781 1.671875 -2.96875 1.765625 -3 C 1.859375 -3.03125 1.945312 -3.046875 2.03125 -3.046875 Z M 2.078125 -3.046875"/></g><g id="N"><path d="M 1.328125 -1.90625 L 1.328125 -0.25 L 2.015625 -0.171875 L 2.015625 0 L 0.21875 0 L 0.21875 -0.171875 L 0.71875 -0.25 L 0.71875 -3.984375 L 0.1875 -4.0625 L 0.1875 -4.234375 L 3.328125 -4.234375 L 3.328125 -3.21875 L 3.125 -3.21875 L 3.015625 -3.90625 C 2.953125 -3.914062 2.875 -3.921875 2.78125 -3.921875 C 2.6875 -3.929688 2.585938 -3.9375 2.484375 -3.9375 C 2.390625 -3.945312 2.296875 -3.953125 2.203125 -3.953125 C 2.117188 -3.953125 2.050781 -3.953125 2 -3.953125 L 1.328125 -3.953125 L 1.328125 -2.1875 L 2.5625 -2.1875 L 2.65625 -2.6875 L 2.84375 -2.6875 L 2.84375 -1.390625 L 2.65625 -1.390625 L 2.5625 -1.90625 Z M 1.328125 -1.90625"/></g><g id="O"><path d="M 0.171875 0 L 0.171875 -0.140625 L 1.78125 -2.71875 L 1.09375 -2.71875 C 1.03125 -2.71875 0.96875 -2.710938 0.90625 -2.703125 C 0.851562 -2.703125 0.800781 -2.695312 0.75 -2.6875 C 0.707031 -2.675781 0.664062 -2.660156 0.625 -2.640625 C 0.582031 -2.628906 0.550781 -2.617188 0.53125 -2.609375 L 0.4375 -2.171875 L 0.28125 -2.171875 L 0.28125 -2.96875 L 2.453125 -2.96875 L 2.453125 -2.8125 L 0.84375 -0.25 L 1.703125 -0.25 C 1.753906 -0.25 1.8125 -0.253906 1.875 -0.265625 C 1.9375 -0.273438 2 -0.285156 2.0625 -0.296875 C 2.125 -0.304688 2.179688 -0.316406 2.234375 -0.328125 C 2.285156 -0.347656 2.328125 -0.375 2.359375 -0.40625 L 2.515625 -1.015625 L 2.65625 -1.015625 L 2.578125 0 Z M 0.171875 0"/></g><clipPath id="a"><path d="M 0.496094 0 L 164.503906 0 L 164.503906 82.003906 L 0.496094 82.003906 Z M 0.496094 0"/></clipPath><clipPath id="b"><path d="M 18 28.113281 L 21 28.113281 L 21 31 L 18 31 Z M 18 28.113281"/></clipPath><clipPath id="c"><path d="M 0.496094 28.113281 L 9 28.113281 L 9 54 L 0.496094 54 Z M 0.496094 28.113281"/></clipPath><clipPath id="e"><path d="M 30 28.113281 L 39 28.113281 L 39 54 L 30 54 Z M 30 28.113281"/></clipPath><clipPath id="A"><path d="M 79 49 L 83 49 L 83 54.203125 L 79 54.203125 Z M 79 49"/></clipPath><clipPath id="E"><path d="M 90 49 L 94 49 L 94 54.203125 L 90 54.203125 Z M 90 49"/></clipPath><clipPath id="J"><path d="M 111 49 L 115 49 L 115 54.203125 L 111 54.203125 Z M 111 49"/></clipPath><clipPath id="L"><path d="M 114 49 L 118 49 L 118 54.203125 L 114 54.203125 Z M 114 49"/></clipPath></defs><g clip-path="url(#a)" fill="#FFF"><path d="M 0.496094 0 L 164.503906 0 L 164.503906 89.457031 L 0.496094 89.457031 Z M 0.496094 0"/><path d="M 0.496094 0 L 164.503906 0 L 164.503906 82.003906 L 0.496094 82.003906 Z M 0.496094 0"/><path d="M 0.496094 0 L 164.503906 0 L 164.503906 82.003906 L 0.496094 82.003906 Z M 0.496094 0"/></g><path fill="#B5B5B5" d="M 10.355469 48.949219 L 10.355469 52.558594 C 10.355469 52.832031 10.578125 53.054688 10.855469 53.054688 L 28.289062 53.054688 C 28.566406 53.054688 28.789062 52.832031 28.789062 52.558594 L 28.789062 48.949219 Z M 12.714844 49.734375 C 12.878906 49.734375 13.039062 49.765625 13.191406 49.832031 C 13.347656 49.894531 13.480469 49.988281 13.601562 50.105469 C 13.71875 50.226562 13.808594 50.363281 13.871094 50.515625 C 13.933594 50.671875 13.96875 50.835938 13.96875 51.003906 C 13.96875 51.171875 13.933594 51.332031 13.871094 51.488281 C 13.808594 51.644531 13.71875 51.78125 13.601562 51.898438 C 13.480469 52.019531 13.347656 52.109375 13.191406 52.175781 C 13.039062 52.238281 12.878906 52.273438 12.714844 52.273438 C 12.546875 52.273438 12.386719 52.238281 12.234375 52.175781 C 12.078125 52.109375 11.945312 52.019531 11.828125 51.898438 C 11.710938 51.78125 11.617188 51.644531 11.554688 51.488281 C 11.492188 51.332031 11.460938 51.171875 11.460938 51.003906 C 11.460938 50.835938 11.492188 50.671875 11.554688 50.515625 C 11.617188 50.363281 11.710938 50.226562 11.828125 50.105469 C 11.945312 49.988281 12.078125 49.894531 12.234375 49.832031 C 12.386719 49.765625 12.546875 49.734375 12.714844 49.734375 Z M 19.570312 49.734375 C 19.738281 49.734375 19.898438 49.765625 20.050781 49.832031 C 20.203125 49.894531 20.339844 49.988281 20.457031 50.105469 C 20.574219 50.226562 20.664062 50.363281 20.730469 50.515625 C 20.792969 50.671875 20.824219 50.835938 20.824219 51.003906 C 20.824219 51.171875 20.792969 51.332031 20.730469 51.488281 C 20.664062 51.644531 20.574219 51.78125 20.457031 51.898438 C 20.339844 52.019531 20.203125 52.109375 20.050781 52.175781 C 19.898438 52.238281 19.738281 52.273438 19.570312 52.273438 C 19.40625 52.273438 19.246094 52.238281 19.089844 52.175781 C 18.9375 52.109375 18.800781 52.019531 18.683594 51.898438 C 18.566406 51.78125 18.476562 51.644531 18.414062 51.488281 C 18.347656 51.332031 18.316406 51.171875 18.316406 51.003906 C 18.316406 50.835938 18.347656 50.671875 18.414062 50.515625 C 18.476562 50.363281 18.566406 50.226562 18.683594 50.105469 C 18.800781 49.988281 18.9375 49.894531 19.089844 49.832031 C 19.246094 49.765625 19.40625 49.734375 19.570312 49.734375 Z M 26.429688 49.734375 C 26.59375 49.734375 26.753906 49.765625 26.910156 49.832031 C 27.0625 49.894531 27.199219 49.988281 27.316406 50.105469 C 27.433594 50.226562 27.523438 50.363281 27.585938 50.515625 C 27.652344 50.671875 27.683594 50.835938 27.683594 51.003906 C 27.683594 51.171875 27.652344 51.332031 27.585938 51.488281 C 27.523438 51.644531 27.433594 51.78125 27.316406 51.898438 C 27.199219 52.019531 27.0625 52.109375 26.910156 52.175781 C 26.753906 52.238281 26.59375 52.273438 26.429688 52.273438 C 26.261719 52.273438 26.101562 52.238281 25.949219 52.175781 C 25.796875 52.109375 25.660156 52.019531 25.542969 51.898438 C 25.425781 51.78125 25.335938 51.644531 25.269531 51.488281 C 25.207031 51.332031 25.175781 51.171875 25.175781 51.003906 C 25.175781 50.835938 25.207031 50.671875 25.269531 50.515625 C 25.335938 50.363281 25.425781 50.226562 25.542969 50.105469 C 25.660156 49.988281 25.796875 49.894531 25.949219 49.832031 C 26.101562 49.765625 26.261719 49.734375 26.429688 49.734375 Z M 26.429688 49.734375" fill-rule="evenodd"/><path fill="#666" d="M 24.070312 47.457031 L 28.789062 47.457031 L 28.789062 48.578125 L 24.070312 48.578125 Z M 24.070312 47.457031"/><path fill="#666" d="M 15.441406 47.457031 L 23.699219 47.457031 L 23.699219 48.578125 L 15.441406 48.578125 Z M 15.441406 47.457031"/><path fill="#666" d="M 10.355469 47.457031 L 15.074219 47.457031 L 15.074219 48.578125 L 10.351562 48.578125 Z M 10.355469 47.457031"/><path fill="#AE3F25" d="M 21.21875 35.960938 C 22.128906 36.324219 22.992188 36.835938 23.808594 37.5 C 24.621094 38.164062 25.359375 38.957031 26.023438 39.875 C 26.6875 40.796875 27.253906 41.8125 27.722656 42.933594 C 28.191406 44.050781 28.546875 45.226562 28.789062 46.46875 L 28.789062 47.085938 L 24.0625 47.085938 C 23.960938 44.988281 23.628906 42.984375 23.074219 41.074219 C 22.515625 39.160156 21.769531 37.457031 20.828125 35.960938 Z M 21.21875 35.960938"/><path fill="#AE3F25" d="M 17.925781 35.960938 C 17.011719 36.324219 16.148438 36.835938 15.335938 37.5 C 14.519531 38.164062 13.78125 38.957031 13.117188 39.875 C 12.453125 40.796875 11.890625 41.8125 11.421875 42.933594 C 10.953125 44.050781 10.597656 45.226562 10.351562 46.46875 L 10.351562 47.085938 L 15.078125 47.085938 C 15.183594 44.988281 15.511719 42.984375 16.070312 41.074219 C 16.625 39.160156 17.375 37.457031 18.316406 35.960938 Z M 17.925781 35.960938"/><path fill="#AE3F25" d="M 18.679688 35.960938 C 17.738281 37.460938 16.992188 39.164062 16.4375 41.074219 C 15.886719 42.988281 15.558594 44.988281 15.457031 47.085938 L 23.6875 47.085938 C 23.585938 44.988281 23.257812 42.988281 22.703125 41.074219 C 22.152344 39.164062 21.402344 37.460938 20.464844 35.960938 Z M 18.679688 35.960938"/><path fill="#B5B5B5" d="M 19.570312 30.550781 L 18.539062 32.957031 L 18.539062 33.484375 C 18.539062 33.515625 18.539062 33.542969 18.539062 33.574219 C 18.539062 33.890625 18.480469 34.175781 18.363281 34.425781 C 18.25 34.679688 18.097656 34.84375 17.910156 34.925781 L 17.910156 35.589844 L 21.230469 35.589844 L 21.230469 34.925781 C 21.042969 34.84375 20.894531 34.679688 20.777344 34.425781 C 20.660156 34.175781 20.601562 33.890625 20.601562 33.574219 C 20.601562 33.542969 20.601562 33.515625 20.601562 33.484375 L 20.601562 32.957031 Z M 19.570312 30.550781"/><g clip-path="url(#b)"><path fill="#E6BC33" d="M 20.234375 29.507812 C 20.234375 29.691406 20.171875 29.851562 20.039062 29.980469 C 19.910156 30.113281 19.753906 30.179688 19.570312 30.179688 C 19.386719 30.179688 19.230469 30.113281 19.101562 29.980469 C 18.972656 29.851562 18.90625 29.691406 18.90625 29.507812 C 18.90625 29.320312 18.972656 29.164062 19.101562 29.03125 C 19.230469 28.898438 19.386719 28.835938 19.570312 28.835938 C 19.753906 28.835938 19.910156 28.898438 20.039062 29.03125 C 20.171875 29.164062 20.234375 29.320312 20.234375 29.507812 Z M 20.234375 29.507812"/></g><g clip-path="url(#c)"><g fill="#222"><use x="-.256" y="48.047" xmlns:xlink="http://www.w3.org/1999/xlink" xlink:href="#d" xlink:type="simple" xlink:actuate="onLoad" xlink:show="embed"/></g></g><g clip-path="url(#e)"><g fill="#222"><use x="30.381" y="48.047" xmlns:xlink="http://www.w3.org/1999/xlink" xlink:href="#f" xlink:type="simple" xlink:actuate="onLoad" xlink:show="embed"/></g></g><g><use x="45.747" y="43.55" xmlns:xlink="http://www.w3.org/1999/xlink" xlink:href="#g" xlink:type="simple" xlink:actuate="onLoad" xlink:show="embed"/></g><g><use x="52.29" y="43.55" xmlns:xlink="http://www.w3.org/1999/xlink" xlink:href="#h" xlink:type="simple" xlink:actuate="onLoad" xlink:show="embed"/></g><g><use x="57.75" y="43.55" xmlns:xlink="http://www.w3.org/1999/xlink" xlink:href="#i" xlink:type="simple" xlink:actuate="onLoad" xlink:show="embed"/></g><g><use x="64.294" y="43.55" xmlns:xlink="http://www.w3.org/1999/xlink" xlink:href="#j" xlink:type="simple" xlink:actuate="onLoad" xlink:show="embed"/></g><g><use x="73.015" y="43.55" xmlns:xlink="http://www.w3.org/1999/xlink" xlink:href="#k" xlink:type="simple" xlink:actuate="onLoad" xlink:show="embed"/></g><g><use x="82.841" y="43.55" xmlns:xlink="http://www.w3.org/1999/xlink" xlink:href="#l" xlink:type="simple" xlink:actuate="onLoad" xlink:show="embed"/></g><g><use x="91.562" y="43.55" xmlns:xlink="http://www.w3.org/1999/xlink" xlink:href="#j" xlink:type="simple" xlink:actuate="onLoad" xlink:show="embed"/></g><g><use x="100.284" y="43.55" xmlns:xlink="http://www.w3.org/1999/xlink" xlink:href="#m" xlink:type="simple" xlink:actuate="onLoad" xlink:show="embed"/></g><g><use x="105.197" y="43.55" xmlns:xlink="http://www.w3.org/1999/xlink" xlink:href="#n" xlink:type="simple" xlink:actuate="onLoad" xlink:show="embed"/></g><g><use x="116.125" y="43.55" xmlns:xlink="http://www.w3.org/1999/xlink" xlink:href="#o" xlink:type="simple" xlink:actuate="onLoad" xlink:show="embed"/></g><g><use x="124.847" y="43.55" xmlns:xlink="http://www.w3.org/1999/xlink" xlink:href="#p" xlink:type="simple" xlink:actuate="onLoad" xlink:show="embed"/></g><g><use x="45.542" y="52.792" xmlns:xlink="http://www.w3.org/1999/xlink" xlink:href="#q" xlink:type="simple" xlink:actuate="onLoad" xlink:show="embed"/></g><g><use x="49.441" y="52.792" xmlns:xlink="http://www.w3.org/1999/xlink" xlink:href="#r" xlink:type="simple" xlink:actuate="onLoad" xlink:show="embed"/></g><g><use x="52.275" y="52.792" xmlns:xlink="http://www.w3.org/1999/xlink" xlink:href="#s" xlink:type="simple" xlink:actuate="onLoad" xlink:show="embed"/></g><g><use x="53.87" y="52.792" xmlns:xlink="http://www.w3.org/1999/xlink" xlink:href="#t" xlink:type="simple" xlink:actuate="onLoad" xlink:show="embed"/></g><g><use x="56.704" y="52.792" xmlns:xlink="http://www.w3.org/1999/xlink" xlink:href="#u" xlink:type="simple" xlink:actuate="onLoad" xlink:show="embed"/></g><g><use x="59.895" y="52.792" xmlns:xlink="http://www.w3.org/1999/xlink" xlink:href="#v" xlink:type="simple" xlink:actuate="onLoad" xlink:show="embed"/></g><g><use x="64.86" y="52.792" xmlns:xlink="http://www.w3.org/1999/xlink" xlink:href="#v" xlink:type="simple" xlink:actuate="onLoad" xlink:show="embed"/></g><g><use x="69.825" y="52.792" xmlns:xlink="http://www.w3.org/1999/xlink" xlink:href="#w" xlink:type="simple" xlink:actuate="onLoad" xlink:show="embed"/></g><g><use x="73.017" y="52.792" xmlns:xlink="http://www.w3.org/1999/xlink" xlink:href="#x" xlink:type="simple" xlink:actuate="onLoad" xlink:show="embed"/></g><g><use x="76.208" y="52.792" xmlns:xlink="http://www.w3.org/1999/xlink" xlink:href="#y" xlink:type="simple" xlink:actuate="onLoad" xlink:show="embed"/></g><g><use x="77.982" y="52.792" xmlns:xlink="http://www.w3.org/1999/xlink" xlink:href="#z" xlink:type="simple" xlink:actuate="onLoad" xlink:show="embed"/></g><g clip-path="url(#A)"><g><use x="79.755" y="52.792" xmlns:xlink="http://www.w3.org/1999/xlink" xlink:href="#B" xlink:type="simple" xlink:actuate="onLoad" xlink:show="embed"/></g></g><g><use x="82.947" y="52.792" xmlns:xlink="http://www.w3.org/1999/xlink" xlink:href="#s" xlink:type="simple" xlink:actuate="onLoad" xlink:show="embed"/></g><g><use x="84.543" y="52.792" xmlns:xlink="http://www.w3.org/1999/xlink" xlink:href="#C" xlink:type="simple" xlink:actuate="onLoad" xlink:show="embed"/></g><g><use x="87.734" y="52.792" xmlns:xlink="http://www.w3.org/1999/xlink" xlink:href="#D" xlink:type="simple" xlink:actuate="onLoad" xlink:show="embed"/></g><g clip-path="url(#E)"><g><use x="90.567" y="52.792" xmlns:xlink="http://www.w3.org/1999/xlink" xlink:href="#F" xlink:type="simple" xlink:actuate="onLoad" xlink:show="embed"/></g></g><g><use x="93.759" y="52.792" xmlns:xlink="http://www.w3.org/1999/xlink" xlink:href="#G" xlink:type="simple" xlink:actuate="onLoad" xlink:show="embed"/></g><g><use x="95.532" y="52.792" xmlns:xlink="http://www.w3.org/1999/xlink" xlink:href="#y" xlink:type="simple" xlink:actuate="onLoad" xlink:show="embed"/></g><g><use x="97.306" y="52.792" xmlns:xlink="http://www.w3.org/1999/xlink" xlink:href="#s" xlink:type="simple" xlink:actuate="onLoad" xlink:show="embed"/></g><g><use x="98.902" y="52.792" xmlns:xlink="http://www.w3.org/1999/xlink" xlink:href="#H" xlink:type="simple" xlink:actuate="onLoad" xlink:show="embed"/></g><g><use x="101.386" y="52.792" xmlns:xlink="http://www.w3.org/1999/xlink" xlink:href="#I" xlink:type="simple" xlink:actuate="onLoad" xlink:show="embed"/></g><g><use x="104.577" y="52.792" xmlns:xlink="http://www.w3.org/1999/xlink" xlink:href="#y" xlink:type="simple" xlink:actuate="onLoad" xlink:show="embed"/></g><g><use x="106.351" y="52.792" xmlns:xlink="http://www.w3.org/1999/xlink" xlink:href="#G" xlink:type="simple" xlink:actuate="onLoad" xlink:show="embed"/></g><g><use x="108.124" y="52.792" xmlns:xlink="http://www.w3.org/1999/xlink" xlink:href="#w" xlink:type="simple" xlink:actuate="onLoad" xlink:show="embed"/></g><g clip-path="url(#J)"><g><use x="111.316" y="52.792" xmlns:xlink="http://www.w3.org/1999/xlink" xlink:href="#K" xlink:type="simple" xlink:actuate="onLoad" xlink:show="embed"/></g></g><g clip-path="url(#L)"><g><use x="114.508" y="52.792" xmlns:xlink="http://www.w3.org/1999/xlink" xlink:href="#K" xlink:type="simple" xlink:actuate="onLoad" xlink:show="embed"/></g></g><g><use x="117.699" y="52.792" xmlns:xlink="http://www.w3.org/1999/xlink" xlink:href="#r" xlink:type="simple" xlink:actuate="onLoad" xlink:show="embed"/></g><g><use x="120.532" y="52.792" xmlns:xlink="http://www.w3.org/1999/xlink" xlink:href="#z" xlink:type="simple" xlink:actuate="onLoad" xlink:show="embed"/></g><g><use x="122.306" y="52.792" xmlns:xlink="http://www.w3.org/1999/xlink" xlink:href="#u" xlink:type="simple" xlink:actuate="onLoad" xlink:show="embed"/></g><g><use x="125.497" y="52.792" xmlns:xlink="http://www.w3.org/1999/xlink" xlink:href="#M" xlink:type="simple" xlink:actuate="onLoad" xlink:show="embed"/></g><g><use x="127.623" y="52.792" xmlns:xlink="http://www.w3.org/1999/xlink" xlink:href="#y" xlink:type="simple" xlink:actuate="onLoad" xlink:show="embed"/></g><g><use x="129.396" y="52.792" xmlns:xlink="http://www.w3.org/1999/xlink" xlink:href="#s" xlink:type="simple" xlink:actuate="onLoad" xlink:show="embed"/></g><g><use x="130.992" y="52.792" xmlns:xlink="http://www.w3.org/1999/xlink" xlink:href="#r" xlink:type="simple" xlink:actuate="onLoad" xlink:show="embed"/></g><g><use x="133.825" y="52.792" xmlns:xlink="http://www.w3.org/1999/xlink" xlink:href="#s" xlink:type="simple" xlink:actuate="onLoad" xlink:show="embed"/></g><g><use x="135.421" y="52.792" xmlns:xlink="http://www.w3.org/1999/xlink" xlink:href="#N" xlink:type="simple" xlink:actuate="onLoad" xlink:show="embed"/></g><g><use x="138.971" y="52.792" xmlns:xlink="http://www.w3.org/1999/xlink" xlink:href="#y" xlink:type="simple" xlink:actuate="onLoad" xlink:show="embed"/></g><g><use x="140.745" y="52.792" xmlns:xlink="http://www.w3.org/1999/xlink" xlink:href="#M" xlink:type="simple" xlink:actuate="onLoad" xlink:show="embed"/></g><g><use x="142.87" y="52.792" xmlns:xlink="http://www.w3.org/1999/xlink" xlink:href="#D" xlink:type="simple" xlink:actuate="onLoad" xlink:show="embed"/></g><g><use x="145.703" y="52.792" xmlns:xlink="http://www.w3.org/1999/xlink" xlink:href="#x" xlink:type="simple" xlink:actuate="onLoad" xlink:show="embed"/></g><g><use x="148.895" y="52.792" xmlns:xlink="http://www.w3.org/1999/xlink" xlink:href="#O" xlink:type="simple" xlink:actuate="onLoad" xlink:show="embed"/></g><g><use x="151.728" y="52.792" xmlns:xlink="http://www.w3.org/1999/xlink" xlink:href="#D" xlink:type="simple" xlink:actuate="onLoad" xlink:show="embed"/></g></svg>