<svg xmlns="http://www.w3.org/2000/svg" width="165" viewBox="0 0 165 82.5" height="82.5" version="1.0"><defs><clipPath id="a"><path d="M 0.496094 0 L 164.503906 0 L 164.503906 82.003906 L 0.496094 82.003906 Z M 0.496094 0"/></clipPath><clipPath id="b"><path d="M 0.496094 49 L 12 49 L 12 74 L 0.496094 74 Z M 0.496094 49"/></clipPath><clipPath id="c"><path d="M 60 57 L 76 57 L 76 80.214844 L 60 80.214844 Z M 60 57"/></clipPath><clipPath id="d"><path d="M 151 57 L 164.503906 57 L 164.503906 74 L 151 74 Z M 151 57"/></clipPath><clipPath id="e"><path d="M 62 1.9375 L 69 1.9375 L 69 8 L 62 8 Z M 62 1.9375"/></clipPath><clipPath id="f"><path d="M 96 1.9375 L 103 1.9375 L 103 8 L 96 8 Z M 96 1.9375"/></clipPath></defs><g clip-path="url(#a)" fill="#FFF"><path d="M 0.496094 0 L 164.503906 0 L 164.503906 89.457031 L 0.496094 89.457031 Z M 0.496094 0"/><path d="M 0.496094 0 L 164.503906 0 L 164.503906 82.003906 L 0.496094 82.003906 Z M 0.496094 0"/><path d="M 0.496094 0 L 164.503906 0 L 164.503906 82.003906 L 0.496094 82.003906 Z M 0.496094 0"/></g><g clip-path="url(#b)"><path fill="#60C9E2" d="M 5.496094 73.46875 C 4.839844 73.46875 3.710938 73.164062 3.710938 71.160156 L 3.710938 61.214844 C 3.382812 61.214844 3.054688 61.253906 2.785156 61.253906 C 1.652344 61.25 0.496094 61.03125 0.496094 59.394531 C 0.496094 58.152344 1.1875 57.566406 2.667969 57.566406 C 3.027344 57.566406 3.375 57.566406 3.738281 57.621094 L 3.738281 56.253906 C 3.738281 52.308594 5.648438 49.9375 8.855469 49.9375 C 10.074219 49.9375 11.320312 50.148438 11.320312 51.730469 C 11.320312 53.222656 9.773438 53.222656 8.941406 53.222656 C 7.714844 53.222656 7.304688 54.578125 7.304688 55.851562 L 7.304688 57.554688 C 7.710938 57.507812 8.117188 57.492188 8.527344 57.5 C 9.535156 57.5 10.875 57.691406 10.875 59.328125 C 10.875 61.214844 9.175781 61.214844 8.25 61.214844 C 7.980469 61.214844 7.632812 61.214844 7.300781 61.214844 L 7.300781 71.148438 C 7.304688 73.066406 6.578125 73.46875 5.496094 73.46875 Z M 5.496094 73.46875"/></g><path fill="#60C9E2" d="M 19.769531 73.679688 C 13.609375 73.679688 12.902344 66.84375 12.902344 61.703125 C 12.902344 59.222656 12.902344 57.273438 14.6875 57.273438 C 15.34375 57.273438 16.398438 57.554688 16.53125 59.433594 C 16.574219 60.027344 16.574219 60.75 16.574219 61.617188 C 16.574219 65.191406 16.574219 70.082031 19.769531 70.082031 C 22.964844 70.082031 22.960938 65.191406 22.964844 61.617188 C 22.964844 60.761719 22.964844 60.019531 23.011719 59.429688 C 23.144531 57.546875 24.226562 57.273438 24.855469 57.273438 C 26.640625 57.273438 26.640625 59.242188 26.640625 61.703125 C 26.640625 66.84375 25.929688 73.679688 19.769531 73.679688 Z M 19.769531 73.679688"/><path fill="#60C9E2" d="M 35.507812 73.46875 C 30.785156 73.46875 29.800781 73.46875 29.800781 72.0625 C 29.800781 70.253906 31.960938 67.507812 33.246094 65.871094 L 33.703125 65.277344 C 34.789062 63.839844 35.980469 62.503906 37.28125 61.261719 C 36.519531 61.261719 35.667969 61.261719 34.886719 61.261719 C 31.449219 61.261719 30.15625 61.261719 30.15625 59.46875 C 30.15625 58.390625 30.8125 57.902344 32.332031 57.792969 C 32.820312 57.75 33.109375 57.710938 33.332031 57.6875 C 33.835938 57.621094 34.34375 57.59375 34.851562 57.605469 C 36.277344 57.605469 37.679688 57.652344 39.6875 57.757812 C 41.242188 57.816406 42.140625 58.414062 42.140625 59.460938 C 42.140625 61 39.65625 63.917969 36.769531 67.300781 C 36.058594 68.128906 35.332031 68.984375 34.65625 69.8125 L 35.484375 69.8125 C 37.242188 69.8125 38.554688 69.871094 40.496094 69.964844 C 42.4375 70.054688 42.796875 70.621094 42.796875 71.667969 C 42.796875 72.710938 42.09375 73.222656 40.527344 73.308594 C 38.960938 73.394531 37.347656 73.46875 35.507812 73.46875 Z M 35.507812 73.46875"/><path fill="#60C9E2" d="M 50.800781 73.46875 C 46.078125 73.46875 45.09375 73.46875 45.09375 72.0625 C 45.09375 70.253906 47.25 67.507812 48.539062 65.871094 L 48.996094 65.277344 C 50.078125 63.839844 51.269531 62.503906 52.570312 61.261719 C 51.8125 61.261719 50.953125 61.261719 50.175781 61.261719 C 46.738281 61.261719 45.449219 61.261719 45.449219 59.46875 C 45.449219 58.390625 46.105469 57.902344 47.625 57.792969 C 48.109375 57.75 48.398438 57.710938 48.621094 57.6875 C 49.128906 57.621094 49.636719 57.59375 50.144531 57.605469 C 51.570312 57.605469 52.972656 57.652344 54.980469 57.757812 C 56.535156 57.816406 57.433594 58.414062 57.433594 59.460938 C 57.433594 61 54.945312 63.917969 52.058594 67.300781 C 51.351562 68.128906 50.625 68.984375 49.949219 69.8125 L 50.773438 69.8125 C 52.53125 69.8125 53.84375 69.871094 55.785156 69.964844 C 57.730469 70.054688 58.089844 70.621094 58.089844 71.667969 C 58.089844 72.710938 57.386719 73.222656 55.820312 73.308594 C 54.25 73.394531 52.636719 73.46875 50.800781 73.46875 Z M 50.800781 73.46875"/><g clip-path="url(#c)"><path fill="#60C9E2" d="M 63.765625 80.171875 C 63.574219 80.179688 63.390625 80.152344 63.210938 80.09375 C 63.03125 80.03125 62.867188 79.941406 62.722656 79.820312 C 62.578125 79.699219 62.457031 79.554688 62.367188 79.386719 C 62.273438 79.222656 62.214844 79.046875 62.191406 78.855469 C 62.191406 77.859375 63.296875 75.570312 64.367188 73.375 C 64.664062 72.765625 64.953125 72.179688 65.195312 71.652344 L 65.332031 71.351562 C 63.210938 67.144531 60.082031 60.125 60.082031 58.863281 C 60.089844 58.679688 60.132812 58.507812 60.207031 58.339844 C 60.285156 58.175781 60.390625 58.03125 60.523438 57.910156 C 60.65625 57.785156 60.808594 57.691406 60.980469 57.628906 C 61.148438 57.566406 61.324219 57.539062 61.507812 57.546875 C 61.886719 57.53125 62.238281 57.621094 62.566406 57.8125 C 62.894531 58.003906 63.140625 58.273438 63.3125 58.613281 C 64.046875 59.980469 64.800781 61.773438 65.59375 63.675781 C 66.140625 64.988281 66.691406 66.304688 67.265625 67.53125 C 68.5 65.246094 70.128906 62.3125 72.109375 58.816406 C 72.671875 57.835938 73.320312 57.363281 74.078125 57.363281 C 74.242188 57.371094 74.394531 57.410156 74.546875 57.480469 C 74.695312 57.546875 74.824219 57.644531 74.9375 57.761719 C 75.050781 57.882812 75.136719 58.019531 75.195312 58.171875 C 75.253906 58.324219 75.285156 58.480469 75.285156 58.644531 C 75.285156 60.710938 71.191406 68.355469 66.992188 76.003906 C 66.425781 77.03125 65.929688 77.9375 65.546875 78.632812 C 65.074219 79.566406 64.578125 80.171875 63.765625 80.171875 Z M 63.765625 80.171875"/></g><path fill="#4C4C4C" d="M 85.609375 73.554688 C 78.136719 73.554688 78.136719 66.5 78.136719 60.835938 C 78.09375 58.25 78.214844 55.667969 78.492188 53.097656 C 78.648438 52.09375 79.023438 50.765625 80.460938 50.765625 C 82.183594 50.765625 82.183594 52.53125 82.183594 53.820312 C 82.183594 55.621094 82.101562 57.765625 81.9375 60 C 82.597656 59.316406 83.371094 58.792969 84.25 58.433594 C 85.128906 58.074219 86.042969 57.902344 86.992188 57.921875 C 90.929688 57.921875 93.621094 60.992188 93.621094 65.558594 C 93.652344 70.488281 90.554688 73.554688 85.609375 73.554688 Z M 86.195312 61.484375 C 84.277344 61.484375 82.257812 62.65625 82.257812 65.941406 C 82.257812 68.625 83.609375 70.160156 85.957031 70.160156 C 86.921875 70.160156 90.0625 69.847656 90.0625 65.789062 C 90.039062 63.082031 88.59375 61.484375 86.1875 61.484375 Z M 86.195312 61.484375"/><path fill="#4C4C4C" d="M 98.992188 73.492188 C 97.582031 73.492188 97.347656 72.777344 97.183594 71.265625 C 97.03125 69.867188 97.003906 67.980469 97.003906 65.1875 C 96.945312 63.316406 97.007812 61.453125 97.183594 59.59375 C 97.351562 58.277344 97.6875 57.398438 98.757812 57.398438 C 99.824219 57.398438 100.652344 57.652344 100.660156 59.527344 C 101.128906 58.949219 101.699219 58.496094 102.363281 58.160156 C 103.027344 57.824219 103.734375 57.640625 104.476562 57.605469 C 106.261719 57.605469 106.523438 58.710938 106.523438 59.375 C 106.523438 61.148438 104.863281 61.453125 103.402344 61.722656 C 102.371094 61.917969 101.183594 62.492188 100.808594 63.339844 C 100.808594 63.957031 100.808594 64.234375 100.84375 64.449219 C 100.875 64.667969 100.84375 64.917969 100.84375 65.558594 C 100.84375 67.261719 100.777344 68.675781 100.703125 70.304688 L 100.664062 71.207031 C 100.59375 73.21875 99.820312 73.492188 98.992188 73.492188 Z M 98.992188 73.492188"/><path fill="#4C4C4C" d="M 115.210938 73.597656 C 113.574219 73.597656 108.234375 73.046875 108.234375 65.960938 C 108.234375 60.839844 110.984375 57.527344 115.242188 57.527344 C 116.082031 57.488281 116.894531 57.625 117.675781 57.941406 C 118.457031 58.253906 119.136719 58.71875 119.714844 59.328125 C 119.71875 59.113281 119.761719 58.902344 119.851562 58.707031 C 119.9375 58.507812 120.0625 58.332031 120.21875 58.1875 C 120.378906 58.039062 120.5625 57.925781 120.765625 57.855469 C 120.96875 57.78125 121.179688 57.75 121.394531 57.765625 C 122.378906 57.765625 122.890625 58.480469 122.976562 59.953125 C 123.101562 62.183594 123.152344 63.6875 123.152344 65.316406 C 123.152344 67.484375 123.152344 69.136719 122.976562 71.179688 C 122.871094 72.835938 122.464844 73.453125 121.488281 73.453125 C 121.269531 73.46875 121.058594 73.4375 120.851562 73.367188 C 120.648438 73.292969 120.464844 73.183594 120.304688 73.039062 C 120.140625 72.890625 120.015625 72.71875 119.925781 72.519531 C 119.832031 72.324219 119.78125 72.113281 119.773438 71.898438 C 119.160156 72.476562 118.457031 72.914062 117.664062 73.210938 C 116.871094 73.503906 116.054688 73.636719 115.210938 73.597656 Z M 115.386719 61.03125 C 112.429688 61.03125 111.804688 63.535156 111.804688 65.632812 C 111.804688 68.722656 113.117188 70.351562 115.648438 70.351562 C 119.199219 70.351562 119.585938 67.066406 119.585938 65.660156 C 119.578125 61.5 116.613281 61.042969 115.386719 61.042969 Z M 115.386719 61.03125"/><path fill="#4C4C4C" d="M 129.175781 73.460938 C 128.144531 73.460938 127.652344 72.765625 127.570312 71.214844 C 127.484375 69.660156 127.425781 67.710938 127.425781 65.644531 C 127.425781 59.847656 127.425781 57.449219 129.183594 57.449219 C 130.230469 57.449219 130.738281 58.105469 130.824219 59.636719 C 130.941406 61.714844 131 63.667969 131 65.613281 C 131 67.25 130.941406 68.628906 130.867188 70.214844 L 130.828125 71.160156 C 130.722656 73.113281 130.191406 73.460938 129.175781 73.460938 Z M 129.117188 56.320312 C 128.839844 56.3125 128.574219 56.253906 128.320312 56.144531 C 128.070312 56.03125 127.847656 55.875 127.65625 55.675781 C 127.460938 55.476562 127.316406 55.246094 127.214844 54.988281 C 127.117188 54.730469 127.066406 54.464844 127.074219 54.1875 C 127.078125 53.910156 127.136719 53.644531 127.25 53.390625 C 127.359375 53.136719 127.515625 52.914062 127.714844 52.71875 C 127.914062 52.527344 128.144531 52.382812 128.402344 52.28125 C 128.660156 52.179688 128.925781 52.132812 129.203125 52.136719 C 129.480469 52.144531 129.746094 52.203125 130 52.3125 C 130.253906 52.421875 130.476562 52.578125 130.667969 52.777344 C 130.859375 52.976562 131.007812 53.207031 131.105469 53.464844 C 131.207031 53.722656 131.257812 53.992188 131.25 54.269531 C 131.246094 54.546875 131.1875 54.8125 131.078125 55.066406 C 130.964844 55.320312 130.8125 55.542969 130.613281 55.734375 C 130.410156 55.925781 130.183594 56.074219 129.925781 56.175781 C 129.667969 56.277344 129.402344 56.324219 129.125 56.320312 Z M 129.117188 56.320312"/><path fill="#4C4C4C" d="M 137.257812 73.347656 C 136.097656 73.347656 135.777344 72.976562 135.617188 71.4375 C 135.472656 70.035156 135.382812 66.472656 135.382812 63.976562 C 135.347656 62.585938 135.417969 61.195312 135.59375 59.816406 C 135.820312 58.183594 136.207031 57.660156 137.167969 57.660156 C 137.378906 57.648438 137.585938 57.675781 137.789062 57.742188 C 137.988281 57.8125 138.171875 57.914062 138.335938 58.050781 C 138.496094 58.1875 138.628906 58.351562 138.730469 58.539062 C 138.832031 58.726562 138.894531 58.925781 138.917969 59.136719 C 140.261719 58.019531 141.808594 57.433594 143.554688 57.378906 C 144.003906 57.367188 144.445312 57.417969 144.878906 57.539062 C 145.308594 57.65625 145.71875 57.835938 146.097656 58.070312 C 146.476562 58.308594 146.816406 58.597656 147.113281 58.933594 C 147.410156 59.269531 147.652344 59.644531 147.839844 60.050781 C 148.398438 61.285156 148.710938 62.578125 148.777344 63.929688 C 148.871094 65.246094 148.894531 66.277344 148.894531 68.53125 C 148.894531 71.101562 148.894531 73.324219 147.054688 73.324219 C 146.828125 73.347656 146.605469 73.328125 146.390625 73.257812 C 146.175781 73.183594 145.984375 73.070312 145.820312 72.917969 C 145.652344 72.761719 145.527344 72.578125 145.441406 72.367188 C 145.355469 72.160156 145.316406 71.941406 145.328125 71.710938 C 145.328125 71.527344 145.328125 67.65625 145.242188 66.140625 C 145.207031 64.777344 144.988281 63.445312 144.585938 62.140625 C 144.523438 61.929688 144.425781 61.734375 144.289062 61.554688 C 144.15625 61.378906 143.996094 61.230469 143.8125 61.109375 C 143.625 60.988281 143.421875 60.902344 143.207031 60.855469 C 142.992188 60.808594 142.773438 60.796875 142.550781 60.828125 C 141.230469 60.863281 140.046875 61.285156 138.996094 62.089844 C 138.996094 66.617188 138.925781 69.726562 138.792969 71.332031 C 138.664062 72.933594 138.464844 73.347656 137.257812 73.347656 Z M 137.257812 73.347656"/><g clip-path="url(#d)"><path fill="#4C4C4C" d="M 157.734375 73.84375 C 156.363281 73.84375 151.894531 73.625 151.894531 70.871094 C 151.871094 70.679688 151.890625 70.492188 151.945312 70.3125 C 152 70.128906 152.089844 69.964844 152.214844 69.816406 C 152.339844 69.671875 152.488281 69.558594 152.660156 69.476562 C 152.832031 69.390625 153.015625 69.347656 153.207031 69.339844 C 153.632812 69.378906 154.023438 69.519531 154.378906 69.761719 C 155.390625 70.367188 156.484375 70.65625 157.660156 70.628906 C 158.65625 70.628906 160.980469 70.476562 160.980469 69.050781 C 160.980469 67.914062 159.457031 67.5 157.699219 67.011719 L 157.609375 67.011719 C 155.34375 66.355469 152.523438 65.566406 152.523438 62.410156 C 152.523438 59.433594 155.03125 57.355469 158.625 57.355469 C 160.75 57.355469 164.34375 57.957031 164.34375 60.210938 C 164.359375 60.394531 164.335938 60.574219 164.273438 60.75 C 164.210938 60.925781 164.113281 61.082031 163.988281 61.214844 C 163.859375 61.351562 163.707031 61.453125 163.535156 61.523438 C 163.363281 61.59375 163.1875 61.628906 163 61.625 C 162.453125 61.585938 161.917969 61.480469 161.394531 61.3125 C 160.445312 61.019531 159.472656 60.859375 158.480469 60.828125 C 157.746094 60.828125 156.035156 60.953125 156.035156 62.082031 C 156.035156 63.042969 157.347656 63.398438 159.3125 63.902344 C 161.136719 64.34375 164.523438 65.164062 164.523438 68.773438 C 164.503906 71.957031 161.972656 73.84375 157.734375 73.84375 Z M 157.734375 73.84375"/></g><path fill="#A5ECF2" d="M 98.902344 21.132812 C 98.902344 21.09375 98.902344 21.054688 98.902344 21.023438 C 98.902344 20.988281 98.867188 20.746094 98.839844 20.613281 C 98.816406 20.484375 98.839844 20.535156 98.839844 20.496094 C 98.839844 20.457031 98.78125 20.238281 98.742188 20.113281 L 98.742188 20.035156 C 98.695312 19.898438 98.652344 19.761719 98.59375 19.628906 C 98.328125 19.007812 97.953125 18.457031 97.476562 17.980469 C 97.476562 17.878906 97.523438 17.769531 97.550781 17.664062 C 97.574219 17.558594 97.621094 17.386719 97.640625 17.242188 C 97.644531 16.964844 97.628906 16.6875 97.589844 16.414062 C 97.585938 16.195312 97.570312 15.976562 97.542969 15.757812 C 97.542969 15.699219 97.542969 15.640625 97.542969 15.574219 C 97.515625 15.410156 97.484375 15.25 97.445312 15.09375 C 97.445312 15.039062 97.445312 14.988281 97.40625 14.933594 C 97.347656 14.730469 97.277344 14.53125 97.195312 14.335938 C 97.109375 14.144531 97.011719 13.960938 96.90625 13.777344 L 96.839844 13.671875 C 96.742188 13.515625 96.640625 13.359375 96.527344 13.214844 L 96.453125 13.128906 C 96.179688 12.785156 95.871094 12.480469 95.523438 12.214844 L 95.46875 12.175781 C 95.296875 12.046875 95.117188 11.925781 94.933594 11.820312 C 94.890625 11.460938 94.820312 11.109375 94.714844 10.761719 C 94.613281 10.417969 94.476562 10.082031 94.3125 9.761719 C 94.148438 9.441406 93.953125 9.136719 93.734375 8.851562 C 93.515625 8.566406 93.269531 8.304688 93 8.0625 C 92.730469 7.820312 92.445312 7.605469 92.136719 7.417969 C 91.828125 7.230469 91.507812 7.074219 91.167969 6.945312 C 90.832031 6.816406 90.488281 6.71875 90.132812 6.652344 C 89.777344 6.585938 89.421875 6.554688 89.058594 6.554688 L 88.726562 6.554688 C 88.527344 6.328125 88.304688 6.128906 88.058594 5.953125 C 87.8125 5.777344 87.546875 5.632812 87.269531 5.519531 C 86.988281 5.40625 86.703125 5.324219 86.402344 5.277344 C 86.105469 5.226562 85.808594 5.214844 85.507812 5.234375 C 85.207031 5.257812 84.910156 5.3125 84.621094 5.398438 C 84.335938 5.488281 84.058594 5.609375 83.800781 5.761719 C 83.539062 5.914062 83.296875 6.09375 83.078125 6.300781 C 82.859375 6.507812 82.667969 6.738281 82.5 6.988281 C 82.332031 6.738281 82.140625 6.507812 81.921875 6.300781 C 81.703125 6.09375 81.460938 5.914062 81.199219 5.761719 C 80.941406 5.609375 80.664062 5.488281 80.378906 5.398438 C 80.089844 5.3125 79.792969 5.257812 79.492188 5.234375 C 79.191406 5.214844 78.894531 5.226562 78.597656 5.277344 C 78.296875 5.324219 78.011719 5.40625 77.730469 5.519531 C 77.453125 5.632812 77.1875 5.777344 76.941406 5.953125 C 76.695312 6.128906 76.472656 6.328125 76.273438 6.554688 L 75.941406 6.554688 C 75.578125 6.554688 75.222656 6.585938 74.867188 6.652344 C 74.515625 6.71875 74.167969 6.816406 73.832031 6.941406 C 73.496094 7.070312 73.171875 7.230469 72.867188 7.417969 C 72.558594 7.605469 72.269531 7.820312 72 8.058594 C 71.734375 8.300781 71.488281 8.5625 71.269531 8.847656 C 71.046875 9.132812 70.855469 9.4375 70.6875 9.757812 C 70.523438 10.078125 70.390625 10.410156 70.285156 10.757812 C 70.179688 11.101562 70.109375 11.453125 70.066406 11.8125 C 69.882812 11.921875 69.703125 12.039062 69.53125 12.167969 L 69.476562 12.207031 C 69.128906 12.476562 68.820312 12.78125 68.546875 13.128906 L 68.5 13.1875 C 68.386719 13.335938 68.28125 13.488281 68.1875 13.648438 L 68.121094 13.753906 C 68.011719 13.933594 67.917969 14.117188 67.832031 14.3125 C 67.75 14.507812 67.679688 14.707031 67.621094 14.910156 C 67.621094 14.960938 67.621094 15.015625 67.582031 15.066406 C 67.542969 15.226562 67.511719 15.382812 67.484375 15.546875 C 67.484375 15.605469 67.484375 15.664062 67.484375 15.730469 C 67.453125 15.949219 67.4375 16.167969 67.4375 16.386719 C 67.4375 16.648438 67.457031 16.90625 67.496094 17.164062 C 67.496094 17.308594 67.554688 17.445312 67.589844 17.585938 C 67.621094 17.722656 67.628906 17.792969 67.660156 17.898438 C 67.183594 18.378906 66.8125 18.929688 66.546875 19.550781 C 66.488281 19.679688 66.441406 19.820312 66.394531 19.957031 L 66.394531 20.035156 C 66.355469 20.160156 66.324219 20.292969 66.296875 20.417969 C 66.269531 20.542969 66.296875 20.496094 66.296875 20.535156 C 66.296875 20.574219 66.25 20.804688 66.238281 20.941406 C 66.222656 21.082031 66.238281 21.023438 66.238281 21.054688 C 66.226562 21.234375 66.226562 21.414062 66.238281 21.59375 C 66.238281 21.8125 66.253906 22.03125 66.28125 22.25 C 66.28125 22.308594 66.28125 22.375 66.28125 22.433594 C 66.308594 22.597656 66.34375 22.753906 66.382812 22.910156 C 66.382812 22.960938 66.382812 23.019531 66.421875 23.074219 C 66.476562 23.269531 66.546875 23.460938 66.625 23.652344 L 66.675781 23.769531 C 66.742188 23.917969 66.816406 24.066406 66.898438 24.210938 L 67 24.375 C 67.085938 24.515625 67.175781 24.648438 67.273438 24.773438 L 67.242188 24.960938 L 67.378906 25.125 C 67.519531 25.285156 67.570312 25.472656 67.53125 25.683594 C 67.53125 25.746094 67.53125 25.8125 67.53125 25.878906 C 67.53125 25.945312 67.488281 26.117188 67.484375 26.234375 C 67.449219 26.464844 67.421875 26.699219 67.410156 26.929688 C 67.410156 27.167969 67.410156 27.398438 67.445312 27.628906 C 67.445312 27.707031 67.445312 27.777344 67.445312 27.859375 C 67.445312 27.9375 67.484375 28.160156 67.511719 28.3125 C 67.535156 28.460938 67.550781 28.488281 67.570312 28.574219 C 67.589844 28.660156 67.632812 28.835938 67.667969 28.96875 C 67.699219 29.101562 67.726562 29.152344 67.757812 29.246094 C 67.792969 29.335938 67.84375 29.480469 67.890625 29.601562 L 68.066406 29.875 C 68.113281 29.988281 68.164062 30.09375 68.226562 30.199219 L 68.371094 30.472656 C 68.421875 30.574219 68.488281 30.664062 68.546875 30.761719 C 68.605469 30.863281 68.65625 30.945312 68.722656 31.039062 L 68.90625 31.28125 C 68.980469 31.375 69.050781 31.472656 69.125 31.566406 L 69.183594 31.628906 C 69.402344 31.886719 69.640625 32.128906 69.898438 32.355469 L 70.003906 32.445312 C 70.121094 32.542969 70.238281 32.636719 70.363281 32.726562 L 70.480469 32.847656 C 70.605469 32.933594 70.730469 33.011719 70.855469 33.089844 L 71.019531 33.1875 L 71.417969 33.40625 L 71.589844 33.503906 L 72.003906 33.667969 L 72.160156 33.726562 C 72.3125 33.78125 72.46875 33.832031 72.625 33.878906 L 72.757812 33.910156 C 72.929688 33.957031 73.097656 34.003906 73.277344 34.035156 C 73.367188 34.207031 73.46875 34.371094 73.578125 34.53125 L 73.667969 34.648438 C 73.753906 34.765625 73.839844 34.878906 73.9375 34.984375 L 74.050781 35.109375 C 74.148438 35.214844 74.25 35.316406 74.359375 35.417969 L 74.46875 35.476562 C 74.609375 35.597656 74.753906 35.710938 74.902344 35.816406 C 75.242188 36.054688 75.601562 36.246094 75.984375 36.394531 C 76.171875 36.46875 76.359375 36.53125 76.550781 36.582031 L 76.589844 36.582031 C 76.789062 36.632812 76.988281 36.671875 77.191406 36.699219 C 77.269531 36.804688 77.351562 36.910156 77.441406 37.007812 L 77.640625 37.199219 C 77.71875 37.269531 77.796875 37.328125 77.875 37.394531 L 78.125 37.566406 C 78.234375 37.632812 78.347656 37.695312 78.464844 37.75 L 78.621094 37.824219 C 78.785156 37.890625 78.957031 37.941406 79.128906 37.980469 L 79.253906 37.980469 C 79.648438 38.0625 80.042969 38.0625 80.441406 37.980469 L 80.636719 37.933594 C 80.757812 37.902344 80.878906 37.867188 80.996094 37.824219 L 81.226562 37.722656 L 81.496094 37.578125 C 81.582031 37.535156 81.660156 37.480469 81.738281 37.429688 L 81.84375 37.34375 C 82.085938 37.1875 82.304688 37.003906 82.5 36.789062 C 82.671875 37.019531 82.871094 37.21875 83.097656 37.394531 L 83.203125 37.480469 C 83.28125 37.539062 83.367188 37.585938 83.445312 37.632812 L 83.714844 37.777344 L 83.941406 37.875 C 84.0625 37.917969 84.179688 37.957031 84.304688 37.988281 L 84.5 38.03125 C 84.898438 38.113281 85.292969 38.113281 85.6875 38.03125 L 85.8125 38.03125 C 85.984375 37.992188 86.152344 37.941406 86.316406 37.875 L 86.476562 37.800781 C 86.59375 37.75 86.707031 37.6875 86.816406 37.617188 L 87.09375 37.449219 C 87.171875 37.386719 87.257812 37.324219 87.328125 37.25 L 87.523438 37.058594 C 87.613281 36.960938 87.699219 36.859375 87.773438 36.75 C 87.976562 36.722656 88.179688 36.683594 88.378906 36.632812 L 88.417969 36.632812 C 88.609375 36.582031 88.796875 36.519531 88.980469 36.449219 C 89.363281 36.296875 89.726562 36.105469 90.0625 35.871094 C 90.214844 35.765625 90.359375 35.648438 90.496094 35.527344 L 90.59375 35.4375 C 90.699219 35.339844 90.804688 35.238281 90.902344 35.128906 L 91.015625 35.003906 C 91.105469 34.898438 91.199219 34.777344 91.285156 34.667969 L 91.375 34.550781 C 91.488281 34.382812 91.589844 34.207031 91.683594 34.03125 C 91.863281 33.996094 92.03125 33.949219 92.203125 33.90625 L 92.332031 33.871094 C 92.492188 33.824219 92.648438 33.773438 92.800781 33.722656 L 92.957031 33.660156 L 93.382812 33.476562 L 93.546875 33.398438 L 93.949219 33.183594 L 94.113281 33.082031 C 94.234375 33.003906 94.367188 32.925781 94.484375 32.839844 L 94.636719 32.726562 C 94.761719 32.636719 94.878906 32.542969 94.996094 32.445312 L 95.101562 32.355469 C 95.359375 32.128906 95.597656 31.886719 95.816406 31.628906 L 95.875 31.566406 C 95.953125 31.472656 96.019531 31.375 96.09375 31.28125 L 96.277344 31.039062 C 96.335938 30.945312 96.394531 30.855469 96.453125 30.761719 C 96.511719 30.671875 96.570312 30.574219 96.628906 30.472656 L 96.800781 30.21875 C 96.855469 30.113281 96.90625 30.007812 96.957031 29.894531 L 97.078125 29.621094 C 97.121094 29.5 97.167969 29.382812 97.207031 29.265625 C 97.246094 29.144531 97.265625 29.082031 97.300781 28.988281 C 97.332031 28.894531 97.371094 28.726562 97.398438 28.59375 C 97.425781 28.460938 97.445312 28.417969 97.457031 28.332031 C 97.46875 28.246094 97.511719 28.027344 97.523438 27.878906 C 97.535156 27.726562 97.523438 27.726562 97.523438 27.648438 C 97.523438 27.417969 97.554688 27.179688 97.554688 26.949219 C 97.554688 26.710938 97.542969 26.46875 97.515625 26.226562 C 97.515625 26.109375 97.515625 25.992188 97.46875 25.871094 C 97.425781 25.753906 97.46875 25.742188 97.46875 25.675781 C 97.429688 25.464844 97.480469 25.277344 97.621094 25.117188 L 97.757812 24.953125 L 97.832031 24.855469 C 97.933594 24.722656 98.023438 24.589844 98.105469 24.453125 L 98.207031 24.289062 C 98.289062 24.148438 98.363281 24 98.429688 23.847656 L 98.480469 23.730469 C 98.558594 23.542969 98.628906 23.347656 98.683594 23.152344 C 98.683594 23.097656 98.683594 23.046875 98.722656 22.988281 C 98.761719 22.832031 98.796875 22.675781 98.820312 22.515625 C 98.820312 22.453125 98.820312 22.390625 98.820312 22.328125 C 98.851562 22.113281 98.867188 21.894531 98.867188 21.671875 C 98.886719 21.492188 98.898438 21.3125 98.902344 21.132812 Z M 98.902344 21.132812"/><path fill="#D2F6F9" d="M 98.902344 21.132812 C 98.902344 21.09375 98.902344 21.054688 98.902344 21.023438 C 98.902344 20.988281 98.867188 20.746094 98.839844 20.613281 C 98.816406 20.484375 98.839844 20.535156 98.839844 20.496094 C 98.839844 20.457031 98.78125 20.238281 98.742188 20.113281 L 98.742188 20.035156 C 98.695312 19.898438 98.652344 19.761719 98.59375 19.628906 C 98.328125 19.007812 97.953125 18.457031 97.476562 17.980469 C 97.476562 17.878906 97.523438 17.769531 97.550781 17.664062 C 97.574219 17.558594 97.621094 17.386719 97.640625 17.242188 C 97.644531 16.964844 97.628906 16.6875 97.589844 16.414062 C 97.585938 16.195312 97.570312 15.976562 97.542969 15.757812 C 97.542969 15.699219 97.542969 15.640625 97.542969 15.574219 C 97.515625 15.410156 97.484375 15.25 97.445312 15.09375 C 97.445312 15.039062 97.445312 14.988281 97.40625 14.933594 C 97.347656 14.730469 97.277344 14.53125 97.195312 14.335938 C 97.109375 14.144531 97.011719 13.960938 96.90625 13.777344 L 96.839844 13.671875 C 96.742188 13.515625 96.640625 13.359375 96.527344 13.214844 L 96.453125 13.128906 C 96.179688 12.785156 95.871094 12.480469 95.523438 12.214844 L 95.46875 12.175781 C 95.296875 12.046875 95.117188 11.925781 94.933594 11.820312 C 94.890625 11.460938 94.820312 11.109375 94.714844 10.761719 C 94.613281 10.417969 94.476562 10.082031 94.3125 9.761719 C 94.148438 9.441406 93.953125 9.136719 93.734375 8.851562 C 93.515625 8.566406 93.269531 8.304688 93 8.0625 C 92.730469 7.820312 92.445312 7.605469 92.136719 7.417969 C 91.828125 7.230469 91.507812 7.074219 91.167969 6.945312 C 90.832031 6.816406 90.488281 6.71875 90.132812 6.652344 C 89.777344 6.585938 89.421875 6.554688 89.058594 6.554688 L 88.726562 6.554688 C 88.527344 6.328125 88.304688 6.128906 88.058594 5.953125 C 87.8125 5.777344 87.546875 5.632812 87.269531 5.519531 C 86.988281 5.40625 86.703125 5.324219 86.402344 5.277344 C 86.105469 5.226562 85.808594 5.214844 85.507812 5.234375 C 85.207031 5.257812 84.910156 5.3125 84.621094 5.398438 C 84.335938 5.488281 84.058594 5.609375 83.800781 5.761719 C 83.539062 5.914062 83.296875 6.09375 83.078125 6.300781 C 82.859375 6.507812 82.667969 6.738281 82.5 6.988281 L 82.5 36.789062 C 82.671875 37.019531 82.871094 37.21875 83.097656 37.394531 L 83.203125 37.480469 C 83.28125 37.539062 83.367188 37.585938 83.445312 37.632812 L 83.714844 37.777344 L 83.941406 37.875 C 84.0625 37.917969 84.179688 37.957031 84.304688 37.988281 L 84.5 38.03125 C 84.898438 38.113281 85.292969 38.113281 85.6875 38.03125 L 85.8125 38.03125 C 85.984375 37.992188 86.152344 37.941406 86.316406 37.875 L 86.476562 37.800781 C 86.59375 37.75 86.707031 37.6875 86.816406 37.617188 L 87.09375 37.449219 C 87.171875 37.386719 87.257812 37.324219 87.328125 37.25 L 87.523438 37.058594 C 87.613281 36.960938 87.699219 36.859375 87.773438 36.75 C 87.976562 36.722656 88.179688 36.683594 88.378906 36.632812 L 88.417969 36.632812 C 88.609375 36.582031 88.796875 36.519531 88.980469 36.449219 C 89.363281 36.296875 89.726562 36.105469 90.0625 35.871094 C 90.214844 35.765625 90.359375 35.648438 90.496094 35.527344 L 90.59375 35.4375 C 90.699219 35.339844 90.804688 35.238281 90.902344 35.128906 L 91.015625 35.003906 C 91.105469 34.898438 91.199219 34.777344 91.285156 34.667969 L 91.375 34.550781 C 91.488281 34.382812 91.589844 34.207031 91.683594 34.03125 C 91.863281 33.996094 92.03125 33.949219 92.203125 33.90625 L 92.332031 33.871094 C 92.492188 33.824219 92.648438 33.773438 92.800781 33.722656 L 92.957031 33.660156 L 93.382812 33.476562 L 93.546875 33.398438 L 93.949219 33.183594 L 94.113281 33.082031 C 94.234375 33.003906 94.367188 32.925781 94.484375 32.839844 L 94.636719 32.726562 C 94.761719 32.636719 94.878906 32.542969 94.996094 32.445312 L 95.101562 32.355469 C 95.359375 32.128906 95.597656 31.886719 95.816406 31.628906 L 95.875 31.566406 C 95.953125 31.472656 96.019531 31.375 96.09375 31.28125 L 96.277344 31.039062 C 96.335938 30.945312 96.394531 30.855469 96.453125 30.761719 C 96.511719 30.671875 96.570312 30.574219 96.628906 30.472656 L 96.800781 30.21875 C 96.855469 30.113281 96.90625 30.007812 96.957031 29.894531 L 97.078125 29.621094 C 97.121094 29.5 97.167969 29.382812 97.207031 29.265625 C 97.246094 29.144531 97.265625 29.082031 97.300781 28.988281 C 97.332031 28.894531 97.371094 28.726562 97.398438 28.59375 C 97.425781 28.460938 97.445312 28.417969 97.457031 28.332031 C 97.46875 28.246094 97.511719 28.027344 97.523438 27.878906 C 97.535156 27.726562 97.523438 27.726562 97.523438 27.648438 C 97.523438 27.417969 97.554688 27.179688 97.554688 26.949219 C 97.554688 26.710938 97.542969 26.46875 97.515625 26.226562 C 97.515625 26.109375 97.515625 25.992188 97.46875 25.871094 C 97.425781 25.753906 97.46875 25.742188 97.46875 25.675781 C 97.429688 25.464844 97.480469 25.277344 97.621094 25.117188 L 97.757812 24.953125 L 97.832031 24.855469 C 97.933594 24.722656 98.023438 24.589844 98.105469 24.453125 L 98.207031 24.289062 C 98.289062 24.148438 98.363281 24 98.429688 23.847656 L 98.480469 23.730469 C 98.558594 23.542969 98.628906 23.347656 98.683594 23.152344 C 98.683594 23.097656 98.683594 23.046875 98.722656 22.988281 C 98.761719 22.832031 98.796875 22.675781 98.820312 22.515625 C 98.820312 22.453125 98.820312 22.390625 98.820312 22.328125 C 98.851562 22.113281 98.867188 21.894531 98.867188 21.671875 C 98.886719 21.492188 98.898438 21.3125 98.902344 21.132812 Z M 98.902344 21.132812"/><path fill="#4C4C4C" d="M 76.675781 25.828125 L 76.746094 25.722656 C 76.839844 25.574219 76.921875 25.421875 76.988281 25.261719 C 76.988281 25.203125 77.035156 25.144531 77.054688 25.085938 C 77.097656 24.96875 77.132812 24.855469 77.160156 24.734375 C 77.1875 24.617188 77.210938 24.496094 77.226562 24.375 C 77.226562 24.300781 77.226562 24.230469 77.226562 24.152344 C 77.246094 23.929688 77.246094 23.710938 77.226562 23.492188 C 77.125 22.777344 76.820312 22.160156 76.3125 21.644531 C 76.113281 21.472656 75.953125 21.261719 75.84375 21.019531 C 75.730469 20.777344 75.675781 20.519531 75.675781 20.253906 C 75.675781 19.984375 75.730469 19.730469 75.84375 19.488281 C 75.953125 19.242188 76.113281 19.035156 76.3125 18.859375 C 76.457031 18.734375 76.535156 18.578125 76.542969 18.386719 C 76.550781 18.195312 76.484375 18.03125 76.351562 17.894531 C 76.214844 17.761719 76.050781 17.695312 75.863281 17.703125 C 75.671875 17.710938 75.511719 17.789062 75.390625 17.933594 C 75.390625 17.933594 75.125 18.226562 75.015625 18.394531 L 74.941406 18.496094 C 74.847656 18.644531 74.769531 18.796875 74.699219 18.957031 C 74.699219 19.015625 74.652344 19.078125 74.632812 19.136719 C 74.59375 19.25 74.558594 19.367188 74.53125 19.484375 C 74.5 19.601562 74.480469 19.722656 74.464844 19.84375 C 74.464844 19.917969 74.464844 19.988281 74.464844 20.070312 C 74.441406 20.289062 74.441406 20.507812 74.464844 20.726562 C 74.566406 21.441406 74.867188 22.058594 75.375 22.574219 C 75.558594 22.757812 75.703125 22.972656 75.800781 23.210938 C 75.902344 23.453125 75.949219 23.707031 75.949219 23.964844 C 75.949219 24.226562 75.902344 24.480469 75.800781 24.71875 C 75.703125 24.960938 75.558594 25.175781 75.375 25.359375 C 75.277344 25.492188 75.238281 25.640625 75.25 25.800781 C 75.261719 25.964844 75.328125 26.105469 75.441406 26.21875 C 75.558594 26.332031 75.699219 26.394531 75.863281 26.40625 C 76.023438 26.417969 76.171875 26.371094 76.300781 26.273438 C 76.4375 26.136719 76.5625 25.988281 76.675781 25.828125 Z M 76.675781 25.828125"/><path fill="#4C4C4C" d="M 90 18.386719 L 90.070312 18.492188 C 90.164062 18.636719 90.246094 18.792969 90.3125 18.953125 C 90.3125 19.011719 90.359375 19.070312 90.378906 19.128906 C 90.421875 19.242188 90.457031 19.359375 90.484375 19.476562 C 90.511719 19.597656 90.535156 19.71875 90.550781 19.839844 C 90.550781 19.910156 90.550781 19.984375 90.550781 20.0625 C 90.570312 20.28125 90.570312 20.5 90.550781 20.71875 C 90.449219 21.4375 90.144531 22.050781 89.636719 22.566406 C 89.433594 22.742188 89.277344 22.949219 89.167969 23.195312 C 89.054688 23.4375 89 23.691406 89 23.960938 C 89 24.226562 89.054688 24.484375 89.167969 24.726562 C 89.277344 24.96875 89.433594 25.179688 89.636719 25.355469 C 89.765625 25.484375 89.824219 25.640625 89.824219 25.820312 C 89.820312 26 89.757812 26.15625 89.625 26.28125 C 89.496094 26.410156 89.34375 26.472656 89.160156 26.46875 C 88.980469 26.46875 88.828125 26.402344 88.699219 26.273438 C 88.699219 26.273438 88.4375 25.976562 88.324219 25.8125 L 88.253906 25.707031 C 88.160156 25.5625 88.078125 25.40625 88.011719 25.25 C 88.011719 25.1875 87.964844 25.128906 87.945312 25.070312 C 87.902344 24.957031 87.867188 24.839844 87.839844 24.722656 C 87.8125 24.601562 87.789062 24.484375 87.773438 24.359375 C 87.773438 24.289062 87.773438 24.214844 87.773438 24.136719 C 87.753906 23.917969 87.753906 23.699219 87.773438 23.480469 C 87.875 22.765625 88.179688 22.148438 88.6875 21.632812 C 88.871094 21.449219 89.011719 21.234375 89.113281 20.992188 C 89.210938 20.753906 89.261719 20.5 89.261719 20.238281 C 89.261719 19.976562 89.210938 19.726562 89.113281 19.484375 C 89.011719 19.246094 88.871094 19.03125 88.6875 18.847656 C 88.542969 18.722656 88.464844 18.5625 88.457031 18.371094 C 88.449219 18.179688 88.515625 18.019531 88.648438 17.882812 C 88.785156 17.746094 88.949219 17.683594 89.136719 17.691406 C 89.328125 17.699219 89.488281 17.773438 89.609375 17.917969 C 89.753906 18.0625 89.882812 18.21875 90 18.386719 Z M 90 18.386719"/><path fill="#4C4C4C" d="M 98.902344 21.132812 C 98.902344 21.09375 98.902344 21.054688 98.902344 21.023438 C 98.902344 20.988281 98.867188 20.746094 98.839844 20.613281 C 98.816406 20.484375 98.839844 20.535156 98.839844 20.496094 C 98.839844 20.457031 98.78125 20.238281 98.742188 20.113281 L 98.742188 20.035156 C 98.695312 19.898438 98.652344 19.761719 98.59375 19.628906 C 98.328125 19.007812 97.953125 18.457031 97.476562 17.980469 C 97.476562 17.878906 97.523438 17.769531 97.550781 17.664062 C 97.574219 17.558594 97.621094 17.386719 97.640625 17.242188 C 97.644531 16.964844 97.628906 16.6875 97.589844 16.414062 C 97.585938 16.195312 97.570312 15.976562 97.542969 15.757812 C 97.542969 15.699219 97.542969 15.640625 97.542969 15.574219 C 97.515625 15.410156 97.484375 15.25 97.445312 15.09375 C 97.445312 15.039062 97.445312 14.988281 97.40625 14.933594 C 97.347656 14.730469 97.277344 14.53125 97.195312 14.335938 C 97.109375 14.144531 97.011719 13.960938 96.90625 13.777344 L 96.839844 13.671875 C 96.742188 13.515625 96.640625 13.359375 96.527344 13.214844 L 96.453125 13.128906 C 96.179688 12.785156 95.871094 12.480469 95.523438 12.214844 L 95.46875 12.175781 C 95.296875 12.046875 95.117188 11.925781 94.933594 11.820312 C 94.890625 11.460938 94.820312 11.109375 94.714844 10.761719 C 94.613281 10.417969 94.476562 10.082031 94.3125 9.761719 C 94.148438 9.441406 93.953125 9.136719 93.734375 8.851562 C 93.515625 8.566406 93.269531 8.304688 93 8.0625 C 92.730469 7.820312 92.445312 7.605469 92.136719 7.417969 C 91.828125 7.230469 91.507812 7.074219 91.167969 6.945312 C 90.832031 6.816406 90.488281 6.71875 90.132812 6.652344 C 89.777344 6.585938 89.421875 6.554688 89.058594 6.554688 L 88.726562 6.554688 C 88.527344 6.328125 88.304688 6.128906 88.058594 5.953125 C 87.8125 5.777344 87.546875 5.632812 87.269531 5.519531 C 86.988281 5.40625 86.703125 5.324219 86.402344 5.277344 C 86.105469 5.226562 85.808594 5.214844 85.507812 5.234375 C 85.207031 5.257812 84.910156 5.3125 84.621094 5.398438 C 84.335938 5.488281 84.058594 5.609375 83.800781 5.761719 C 83.539062 5.914062 83.296875 6.09375 83.078125 6.300781 C 82.859375 6.507812 82.667969 6.738281 82.5 6.988281 C 82.332031 6.738281 82.140625 6.507812 81.921875 6.300781 C 81.703125 6.09375 81.460938 5.914062 81.199219 5.761719 C 80.941406 5.609375 80.664062 5.488281 80.378906 5.398438 C 80.089844 5.3125 79.792969 5.257812 79.492188 5.234375 C 79.191406 5.214844 78.894531 5.226562 78.597656 5.277344 C 78.296875 5.324219 78.011719 5.40625 77.730469 5.519531 C 77.453125 5.632812 77.1875 5.777344 76.941406 5.953125 C 76.695312 6.128906 76.472656 6.328125 76.273438 6.554688 L 75.941406 6.554688 C 75.578125 6.554688 75.222656 6.585938 74.867188 6.652344 C 74.515625 6.71875 74.167969 6.816406 73.832031 6.941406 C 73.496094 7.070312 73.171875 7.230469 72.867188 7.417969 C 72.558594 7.605469 72.269531 7.820312 72 8.058594 C 71.734375 8.300781 71.488281 8.5625 71.269531 8.847656 C 71.046875 9.132812 70.855469 9.4375 70.6875 9.757812 C 70.523438 10.078125 70.390625 10.410156 70.285156 10.757812 C 70.179688 11.101562 70.109375 11.453125 70.066406 11.8125 C 69.882812 11.921875 69.703125 12.039062 69.53125 12.167969 L 69.476562 12.207031 C 69.128906 12.476562 68.820312 12.78125 68.546875 13.128906 L 68.5 13.1875 C 68.386719 13.335938 68.28125 13.488281 68.1875 13.648438 L 68.121094 13.753906 C 68.011719 13.933594 67.917969 14.117188 67.832031 14.3125 C 67.75 14.507812 67.679688 14.707031 67.621094 14.910156 C 67.621094 14.960938 67.621094 15.015625 67.582031 15.066406 C 67.542969 15.226562 67.511719 15.382812 67.484375 15.546875 C 67.484375 15.605469 67.484375 15.664062 67.484375 15.730469 C 67.453125 15.949219 67.4375 16.167969 67.4375 16.386719 C 67.4375 16.648438 67.457031 16.90625 67.496094 17.164062 C 67.496094 17.308594 67.554688 17.445312 67.589844 17.585938 C 67.621094 17.722656 67.628906 17.792969 67.660156 17.898438 C 67.183594 18.378906 66.8125 18.929688 66.546875 19.550781 C 66.488281 19.679688 66.441406 19.820312 66.394531 19.957031 L 66.394531 20.035156 C 66.355469 20.160156 66.324219 20.292969 66.296875 20.417969 C 66.269531 20.542969 66.296875 20.496094 66.296875 20.535156 C 66.296875 20.574219 66.25 20.804688 66.238281 20.941406 C 66.222656 21.082031 66.238281 21.023438 66.238281 21.054688 C 66.226562 21.234375 66.226562 21.414062 66.238281 21.59375 C 66.238281 21.8125 66.253906 22.03125 66.28125 22.25 C 66.28125 22.308594 66.28125 22.375 66.28125 22.433594 C 66.308594 22.597656 66.34375 22.753906 66.382812 22.910156 C 66.382812 22.960938 66.382812 23.019531 66.421875 23.074219 C 66.476562 23.269531 66.546875 23.460938 66.625 23.652344 L 66.675781 23.769531 C 66.742188 23.917969 66.816406 24.066406 66.898438 24.210938 L 67 24.375 C 67.085938 24.515625 67.175781 24.648438 67.273438 24.773438 L 67.242188 24.960938 L 67.378906 25.125 C 67.519531 25.285156 67.570312 25.472656 67.53125 25.683594 C 67.53125 25.746094 67.53125 25.8125 67.53125 25.878906 C 67.53125 25.945312 67.488281 26.117188 67.484375 26.234375 C 67.449219 26.464844 67.421875 26.699219 67.410156 26.929688 C 67.410156 27.167969 67.410156 27.398438 67.445312 27.628906 C 67.445312 27.707031 67.445312 27.777344 67.445312 27.859375 C 67.445312 27.9375 67.484375 28.160156 67.511719 28.3125 C 67.535156 28.460938 67.550781 28.488281 67.570312 28.574219 C 67.589844 28.660156 67.632812 28.835938 67.667969 28.96875 C 67.699219 29.101562 67.726562 29.152344 67.757812 29.246094 C 67.792969 29.335938 67.84375 29.480469 67.890625 29.601562 L 68.066406 29.875 C 68.113281 29.988281 68.164062 30.09375 68.226562 30.199219 L 68.371094 30.472656 C 68.421875 30.574219 68.488281 30.664062 68.546875 30.761719 C 68.605469 30.863281 68.65625 30.945312 68.722656 31.039062 L 68.90625 31.28125 C 68.980469 31.375 69.050781 31.472656 69.125 31.566406 L 69.183594 31.628906 C 69.402344 31.886719 69.640625 32.128906 69.898438 32.355469 L 70.003906 32.445312 C 70.121094 32.542969 70.238281 32.636719 70.363281 32.726562 L 70.480469 32.847656 C 70.605469 32.933594 70.730469 33.011719 70.855469 33.089844 L 71.019531 33.1875 L 71.417969 33.40625 L 71.589844 33.503906 L 72.003906 33.667969 L 72.160156 33.726562 C 72.3125 33.78125 72.46875 33.832031 72.625 33.878906 L 72.757812 33.910156 C 72.929688 33.957031 73.097656 34.003906 73.277344 34.035156 C 73.367188 34.207031 73.46875 34.371094 73.578125 34.53125 L 73.667969 34.648438 C 73.753906 34.765625 73.839844 34.878906 73.9375 34.984375 L 74.050781 35.109375 C 74.148438 35.214844 74.25 35.316406 74.359375 35.417969 L 74.46875 35.476562 C 74.609375 35.597656 74.753906 35.710938 74.902344 35.816406 C 75.242188 36.054688 75.601562 36.246094 75.984375 36.394531 C 76.171875 36.46875 76.359375 36.53125 76.550781 36.582031 L 76.589844 36.582031 C 76.789062 36.632812 76.988281 36.671875 77.191406 36.699219 C 77.269531 36.804688 77.351562 36.910156 77.441406 37.007812 L 77.640625 37.199219 C 77.71875 37.269531 77.796875 37.328125 77.875 37.394531 L 78.125 37.566406 C 78.234375 37.632812 78.347656 37.695312 78.464844 37.75 L 78.621094 37.824219 C 78.785156 37.890625 78.957031 37.941406 79.128906 37.980469 L 79.253906 37.980469 C 79.648438 38.0625 80.042969 38.0625 80.441406 37.980469 L 80.636719 37.933594 C 80.757812 37.902344 80.878906 37.867188 80.996094 37.824219 L 81.226562 37.722656 L 81.496094 37.578125 C 81.582031 37.535156 81.660156 37.480469 81.738281 37.429688 L 81.84375 37.34375 C 82.085938 37.1875 82.304688 37.003906 82.5 36.789062 C 82.671875 37.019531 82.871094 37.21875 83.097656 37.394531 L 83.203125 37.480469 C 83.28125 37.539062 83.367188 37.585938 83.445312 37.632812 L 83.714844 37.777344 L 83.941406 37.875 C 84.0625 37.917969 84.179688 37.957031 84.304688 37.988281 L 84.5 38.03125 C 84.898438 38.113281 85.292969 38.113281 85.6875 38.03125 L 85.8125 38.03125 C 85.984375 37.992188 86.152344 37.941406 86.316406 37.875 L 86.476562 37.800781 C 86.59375 37.75 86.707031 37.6875 86.816406 37.617188 L 87.09375 37.449219 C 87.171875 37.386719 87.257812 37.324219 87.328125 37.25 L 87.523438 37.058594 C 87.613281 36.960938 87.699219 36.859375 87.773438 36.75 C 87.976562 36.722656 88.179688 36.683594 88.378906 36.632812 L 88.417969 36.632812 C 88.609375 36.582031 88.796875 36.519531 88.980469 36.449219 C 89.363281 36.296875 89.726562 36.105469 90.0625 35.871094 C 90.214844 35.765625 90.359375 35.648438 90.496094 35.527344 L 90.59375 35.4375 C 90.699219 35.339844 90.804688 35.238281 90.902344 35.128906 L 91.015625 35.003906 C 91.105469 34.898438 91.199219 34.777344 91.285156 34.667969 L 91.375 34.550781 C 91.488281 34.382812 91.589844 34.207031 91.683594 34.03125 C 91.863281 33.996094 92.03125 33.949219 92.203125 33.90625 L 92.332031 33.871094 C 92.492188 33.824219 92.648438 33.773438 92.800781 33.722656 L 92.957031 33.660156 L 93.382812 33.476562 L 93.546875 33.398438 L 93.949219 33.183594 L 94.113281 33.082031 C 94.234375 33.003906 94.367188 32.925781 94.484375 32.839844 L 94.636719 32.726562 C 94.761719 32.636719 94.878906 32.542969 94.996094 32.445312 L 95.101562 32.355469 C 95.359375 32.128906 95.597656 31.886719 95.816406 31.628906 L 95.875 31.566406 C 95.953125 31.472656 96.019531 31.375 96.09375 31.28125 L 96.277344 31.039062 C 96.335938 30.945312 96.394531 30.855469 96.453125 30.761719 C 96.511719 30.671875 96.570312 30.574219 96.628906 30.472656 L 96.800781 30.21875 C 96.855469 30.113281 96.90625 30.007812 96.957031 29.894531 L 97.078125 29.621094 C 97.121094 29.5 97.167969 29.382812 97.207031 29.265625 C 97.246094 29.144531 97.265625 29.082031 97.300781 28.988281 C 97.332031 28.894531 97.371094 28.726562 97.398438 28.59375 C 97.425781 28.460938 97.445312 28.417969 97.457031 28.332031 C 97.46875 28.246094 97.511719 28.027344 97.523438 27.878906 C 97.535156 27.726562 97.523438 27.726562 97.523438 27.648438 C 97.523438 27.417969 97.554688 27.179688 97.554688 26.949219 C 97.554688 26.710938 97.542969 26.46875 97.515625 26.226562 C 97.515625 26.109375 97.515625 25.992188 97.46875 25.871094 C 97.425781 25.753906 97.46875 25.742188 97.46875 25.675781 C 97.429688 25.464844 97.480469 25.277344 97.621094 25.117188 L 97.757812 24.953125 L 97.832031 24.855469 C 97.933594 24.722656 98.023438 24.589844 98.105469 24.453125 L 98.207031 24.289062 C 98.289062 24.148438 98.363281 24 98.429688 23.847656 L 98.480469 23.730469 C 98.558594 23.542969 98.628906 23.347656 98.683594 23.152344 C 98.683594 23.097656 98.683594 23.046875 98.722656 22.988281 C 98.761719 22.832031 98.796875 22.675781 98.820312 22.515625 C 98.820312 22.453125 98.820312 22.390625 98.820312 22.328125 C 98.851562 22.113281 98.867188 21.894531 98.867188 21.671875 C 98.886719 21.492188 98.898438 21.3125 98.902344 21.132812 Z M 81.84375 35.023438 C 81.820312 35.253906 81.761719 35.472656 81.660156 35.679688 L 81.660156 35.738281 C 81.609375 35.839844 81.550781 35.933594 81.484375 36.019531 L 81.429688 36.082031 C 81.378906 36.144531 81.324219 36.203125 81.265625 36.257812 L 81.167969 36.34375 L 81.011719 36.46875 L 80.917969 36.527344 L 80.851562 36.558594 L 80.714844 36.625 L 80.617188 36.664062 L 80.453125 36.71875 L 80.289062 36.71875 C 80.039062 36.769531 79.789062 36.769531 79.542969 36.71875 C 79.394531 36.6875 79.25 36.636719 79.113281 36.574219 L 78.964844 36.496094 C 78.875 36.445312 78.789062 36.386719 78.707031 36.324219 L 78.5625 36.246094 C 78.484375 36.167969 78.414062 36.089844 78.347656 36 L 78.261719 35.890625 C 78.175781 35.757812 78.105469 35.617188 78.050781 35.46875 C 77.976562 35.257812 77.9375 35.039062 77.933594 34.8125 C 77.933594 34.757812 77.933594 34.707031 77.933594 34.652344 C 77.941406 34.507812 77.90625 34.375 77.828125 34.253906 C 77.746094 34.132812 77.636719 34.046875 77.5 33.996094 C 77.40625 33.964844 77.308594 33.953125 77.210938 33.964844 C 77.113281 33.976562 77.019531 34.011719 76.933594 34.0625 C 76.851562 34.117188 76.78125 34.1875 76.730469 34.273438 C 76.675781 34.355469 76.644531 34.449219 76.636719 34.550781 C 76.636719 34.640625 76.636719 34.738281 76.636719 34.832031 C 76.640625 34.980469 76.65625 35.125 76.679688 35.273438 L 76.636719 35.273438 C 76.503906 35.222656 76.375 35.167969 76.25 35.109375 C 75.753906 34.882812 75.324219 34.566406 74.960938 34.160156 C 74.789062 33.96875 74.640625 33.761719 74.507812 33.535156 C 74.507812 33.535156 74.507812 33.484375 74.46875 33.457031 C 74.203125 32.988281 74.039062 32.480469 73.984375 31.941406 C 73.929688 31.402344 73.984375 30.871094 74.148438 30.355469 C 74.695312 30.707031 75.292969 30.878906 75.941406 30.875 C 76.121094 30.875 76.277344 30.8125 76.402344 30.683594 C 76.53125 30.554688 76.597656 30.398438 76.597656 30.21875 C 76.597656 30.035156 76.53125 29.882812 76.402344 29.753906 C 76.277344 29.625 76.121094 29.558594 75.941406 29.558594 C 75.679688 29.558594 75.425781 29.511719 75.1875 29.410156 C 74.945312 29.308594 74.734375 29.167969 74.546875 28.984375 C 74.363281 28.796875 74.222656 28.585938 74.121094 28.34375 C 74.023438 28.101562 73.972656 27.851562 73.972656 27.589844 C 73.972656 27.40625 73.90625 27.25 73.78125 27.125 C 73.652344 26.996094 73.496094 26.929688 73.316406 26.929688 C 73.132812 26.929688 72.980469 26.996094 72.851562 27.125 C 72.722656 27.25 72.660156 27.40625 72.660156 27.589844 C 72.664062 28.210938 72.828125 28.785156 73.160156 29.308594 C 72.828125 30.015625 72.660156 30.753906 72.660156 31.53125 C 72.660156 31.867188 72.695312 32.203125 72.757812 32.53125 C 72.347656 32.398438 71.957031 32.21875 71.582031 32 L 71.523438 31.964844 C 71.398438 31.886719 71.277344 31.804688 71.15625 31.722656 L 71.058594 31.652344 L 70.738281 31.386719 L 70.703125 31.386719 C 70.546875 31.246094 70.394531 31.097656 70.253906 30.941406 L 70.054688 30.703125 L 69.898438 30.492188 L 69.71875 30.21875 L 69.660156 30.132812 L 69.554688 29.960938 C 69.503906 29.871094 69.445312 29.777344 69.398438 29.683594 C 69.351562 29.59375 69.328125 29.535156 69.289062 29.453125 C 69.25 29.375 69.207031 29.296875 69.175781 29.210938 L 69.175781 29.171875 C 69.144531 29.085938 69.109375 29 69.085938 28.917969 C 69.058594 28.832031 69.03125 28.769531 69.011719 28.699219 L 68.972656 28.566406 C 68.972656 28.496094 68.933594 28.417969 68.914062 28.34375 L 68.875 28.1875 L 68.875 28.027344 C 68.875 27.929688 68.875 27.824219 68.828125 27.726562 L 68.828125 27.640625 C 68.828125 27.589844 68.828125 27.535156 68.828125 27.488281 C 68.828125 27.304688 68.828125 27.121094 68.828125 26.9375 C 68.828125 26.71875 68.84375 26.5 68.867188 26.28125 C 68.867188 26.28125 68.867188 26.28125 68.867188 26.242188 C 68.90625 25.929688 68.96875 25.628906 69.050781 25.328125 C 69.320312 24.371094 69.796875 23.53125 70.488281 22.816406 C 70.597656 22.703125 70.65625 22.570312 70.667969 22.414062 C 70.679688 22.257812 70.640625 22.117188 70.554688 21.988281 C 70.496094 21.910156 70.425781 21.84375 70.34375 21.796875 C 70.257812 21.75 70.167969 21.722656 70.070312 21.714844 C 69.972656 21.707031 69.878906 21.71875 69.789062 21.753906 C 69.699219 21.789062 69.617188 21.839844 69.550781 21.910156 C 68.992188 22.492188 68.539062 23.148438 68.199219 23.882812 L 68.125 23.769531 C 68.0625 23.671875 68 23.566406 67.949219 23.453125 L 67.863281 23.269531 C 67.816406 23.164062 67.777344 23.058594 67.738281 22.953125 L 67.699219 22.828125 L 67.699219 22.765625 C 67.667969 22.644531 67.640625 22.527344 67.613281 22.402344 C 67.589844 22.277344 67.613281 22.316406 67.613281 22.269531 L 67.613281 22.226562 C 67.550781 21.835938 67.550781 21.449219 67.613281 21.0625 L 67.613281 20.96875 C 67.652344 20.773438 67.699219 20.585938 67.765625 20.398438 L 67.765625 20.339844 C 67.90625 19.945312 68.105469 19.582031 68.363281 19.253906 C 68.402344 19.207031 68.449219 19.160156 68.488281 19.117188 C 68.589844 18.992188 68.699219 18.871094 68.816406 18.761719 L 68.964844 18.648438 C 69.648438 18.050781 70.441406 17.742188 71.347656 17.730469 C 71.527344 17.730469 71.683594 17.664062 71.8125 17.535156 C 71.941406 17.40625 72.003906 17.253906 72.003906 17.070312 C 72.003906 16.890625 71.941406 16.734375 71.8125 16.605469 C 71.683594 16.476562 71.527344 16.414062 71.347656 16.414062 C 70.4375 16.410156 69.585938 16.628906 68.789062 17.070312 C 68.789062 17 68.789062 16.921875 68.789062 16.847656 C 68.78125 16.710938 68.78125 16.570312 68.789062 16.433594 C 68.78125 16.292969 68.78125 16.148438 68.789062 16.007812 C 68.789062 15.960938 68.789062 15.921875 68.789062 15.875 C 68.789062 15.828125 68.789062 15.683594 68.835938 15.59375 C 68.882812 15.5 68.835938 15.5 68.875 15.449219 C 68.875 15.363281 68.921875 15.269531 68.945312 15.183594 L 69 15.046875 C 69 14.960938 69.066406 14.875 69.105469 14.796875 L 69.164062 14.679688 C 69.207031 14.597656 69.253906 14.511719 69.300781 14.429688 L 69.351562 14.34375 C 69.40625 14.257812 69.464844 14.171875 69.523438 14.09375 L 69.582031 14.015625 C 69.65625 13.921875 69.726562 13.84375 69.804688 13.757812 L 69.84375 13.710938 C 70.164062 13.382812 70.53125 13.113281 70.949219 12.910156 C 71.484375 12.632812 72.054688 12.484375 72.660156 12.46875 C 73.019531 12.472656 73.371094 12.527344 73.714844 12.628906 C 73.472656 12.957031 73.265625 13.3125 73.097656 13.6875 C 73.019531 13.871094 73.023438 14.050781 73.109375 14.230469 C 73.195312 14.410156 73.332031 14.527344 73.527344 14.582031 C 73.683594 14.621094 73.832031 14.605469 73.976562 14.535156 C 74.125 14.464844 74.230469 14.355469 74.292969 14.207031 C 74.460938 13.835938 74.679688 13.496094 74.949219 13.195312 C 74.949219 13.152344 75.34375 12.804688 75.480469 12.6875 C 75.929688 12.328125 76.433594 12.078125 76.988281 11.9375 C 77.144531 11.894531 77.265625 11.808594 77.355469 11.675781 C 77.445312 11.546875 77.484375 11.402344 77.46875 11.242188 C 77.445312 11.042969 77.355469 10.886719 77.191406 10.773438 C 77.027344 10.660156 76.847656 10.628906 76.65625 10.675781 C 75.960938 10.855469 75.328125 11.167969 74.757812 11.609375 C 74.089844 11.308594 73.390625 11.160156 72.660156 11.15625 C 72.269531 11.15625 71.886719 11.199219 71.503906 11.289062 C 71.6875 10.601562 72.011719 9.988281 72.476562 9.453125 C 72.773438 9.113281 73.109375 8.820312 73.492188 8.578125 L 73.550781 8.546875 C 73.925781 8.320312 74.324219 8.148438 74.746094 8.035156 L 74.84375 8.035156 C 75.203125 7.933594 75.566406 7.878906 75.941406 7.871094 C 76.101562 7.859375 76.261719 7.859375 76.425781 7.871094 C 76.582031 7.886719 76.738281 7.910156 76.890625 7.941406 C 77.222656 7.3125 77.726562 6.886719 78.398438 6.667969 L 78.5625 6.640625 L 78.746094 6.601562 C 78.902344 6.570312 79.0625 6.554688 79.21875 6.554688 C 79.753906 6.554688 80.246094 6.703125 80.6875 7 C 80.972656 7.191406 81.207031 7.429688 81.398438 7.710938 C 81.695312 8.15625 81.84375 8.648438 81.84375 9.183594 L 81.84375 16.761719 C 81.261719 16.324219 80.605469 16.105469 79.875 16.105469 C 79.695312 16.105469 79.539062 16.167969 79.410156 16.296875 C 79.285156 16.425781 79.21875 16.582031 79.21875 16.761719 C 79.21875 16.945312 79.285156 17.097656 79.410156 17.226562 C 79.539062 17.355469 79.695312 17.421875 79.875 17.421875 C 80.136719 17.421875 80.386719 17.46875 80.628906 17.570312 C 80.871094 17.671875 81.082031 17.8125 81.265625 17.996094 C 81.453125 18.183594 81.59375 18.394531 81.695312 18.636719 C 81.792969 18.878906 81.84375 19.128906 81.84375 19.390625 L 81.84375 28.59375 C 81.261719 28.15625 80.605469 27.9375 79.875 27.9375 C 79.695312 27.9375 79.539062 28 79.410156 28.128906 C 79.285156 28.257812 79.21875 28.414062 79.21875 28.59375 C 79.21875 28.777344 79.285156 28.929688 79.410156 29.058594 C 79.539062 29.1875 79.695312 29.25 79.875 29.25 C 80.136719 29.25 80.386719 29.300781 80.628906 29.402344 C 80.871094 29.5 81.082031 29.644531 81.265625 29.828125 C 81.453125 30.015625 81.59375 30.226562 81.695312 30.46875 C 81.792969 30.710938 81.84375 30.960938 81.84375 31.222656 L 81.84375 34.820312 C 81.847656 34.886719 81.847656 34.953125 81.84375 35.023438 Z M 97.589844 22.226562 L 97.589844 22.269531 C 97.589844 22.316406 97.589844 22.355469 97.589844 22.402344 C 97.589844 22.449219 97.535156 22.644531 97.503906 22.765625 L 97.503906 22.828125 L 97.464844 22.953125 C 97.425781 23.058594 97.386719 23.164062 97.339844 23.269531 L 97.253906 23.453125 C 97.203125 23.558594 97.136719 23.664062 97.078125 23.769531 L 97.003906 23.882812 C 96.664062 23.148438 96.214844 22.492188 95.652344 21.910156 C 95.585938 21.839844 95.503906 21.789062 95.414062 21.753906 C 95.324219 21.71875 95.230469 21.707031 95.132812 21.714844 C 95.035156 21.722656 94.945312 21.75 94.859375 21.796875 C 94.777344 21.84375 94.707031 21.910156 94.648438 21.988281 C 94.5625 22.117188 94.523438 22.257812 94.535156 22.414062 C 94.546875 22.570312 94.609375 22.703125 94.714844 22.816406 C 95.40625 23.53125 95.882812 24.371094 96.152344 25.328125 C 96.238281 25.628906 96.296875 25.929688 96.335938 26.242188 C 96.335938 26.242188 96.335938 26.242188 96.335938 26.28125 C 96.359375 26.5 96.375 26.71875 96.375 26.9375 C 96.375 27.121094 96.375 27.304688 96.375 27.488281 C 96.375 27.542969 96.375 27.59375 96.375 27.640625 L 96.375 27.726562 C 96.375 27.824219 96.375 27.929688 96.328125 28.027344 L 96.328125 28.1875 L 96.289062 28.34375 C 96.289062 28.417969 96.25 28.496094 96.230469 28.566406 L 96.191406 28.699219 C 96.191406 28.769531 96.140625 28.84375 96.117188 28.917969 C 96.097656 28.988281 96.058594 29.085938 96.027344 29.171875 L 96.027344 29.210938 C 95.996094 29.296875 95.953125 29.375 95.914062 29.453125 C 95.875 29.535156 95.84375 29.613281 95.804688 29.683594 C 95.765625 29.757812 95.699219 29.871094 95.648438 29.960938 L 95.542969 30.132812 L 95.484375 30.21875 L 95.324219 30.441406 L 95.167969 30.652344 L 94.972656 30.886719 C 94.828125 31.046875 94.675781 31.195312 94.519531 31.335938 L 94.484375 31.335938 L 94.164062 31.597656 L 94.066406 31.671875 C 93.949219 31.757812 93.824219 31.839844 93.699219 31.914062 L 93.640625 31.945312 C 93.269531 32.167969 92.875 32.34375 92.464844 32.480469 C 92.453125 32.160156 92.410156 31.84375 92.339844 31.53125 C 92.339844 30.753906 92.171875 30.015625 91.839844 29.308594 C 92.171875 28.785156 92.335938 28.210938 92.339844 27.589844 C 92.339844 27.40625 92.277344 27.25 92.148438 27.125 C 92.019531 26.996094 91.867188 26.929688 91.683594 26.929688 C 91.503906 26.929688 91.347656 26.996094 91.21875 27.125 C 91.09375 27.25 91.027344 27.40625 91.027344 27.589844 C 91.027344 27.851562 90.976562 28.101562 90.878906 28.34375 C 90.777344 28.585938 90.636719 28.796875 90.453125 28.984375 C 90.265625 29.167969 90.054688 29.308594 89.8125 29.410156 C 89.570312 29.511719 89.320312 29.558594 89.058594 29.558594 C 88.878906 29.558594 88.722656 29.625 88.597656 29.753906 C 88.46875 29.882812 88.402344 30.035156 88.402344 30.21875 C 88.402344 30.398438 88.46875 30.554688 88.597656 30.683594 C 88.722656 30.8125 88.878906 30.875 89.058594 30.875 C 89.707031 30.875 90.300781 30.695312 90.84375 30.34375 C 91.011719 30.859375 91.070312 31.386719 91.011719 31.929688 C 90.957031 32.46875 90.792969 32.972656 90.523438 33.445312 C 90.523438 33.445312 90.523438 33.496094 90.484375 33.523438 C 90.351562 33.746094 90.203125 33.953125 90.03125 34.148438 C 89.691406 34.53125 89.292969 34.835938 88.835938 35.0625 C 88.710938 35.125 88.582031 35.179688 88.449219 35.226562 L 88.402344 35.226562 C 88.414062 35.089844 88.414062 34.953125 88.402344 34.820312 C 88.402344 34.71875 88.402344 34.628906 88.402344 34.535156 C 88.394531 34.4375 88.363281 34.34375 88.308594 34.257812 C 88.257812 34.175781 88.1875 34.105469 88.105469 34.050781 C 88.019531 33.996094 87.929688 33.964844 87.828125 33.953125 C 87.730469 33.941406 87.632812 33.953125 87.539062 33.984375 C 87.402344 34.03125 87.292969 34.117188 87.210938 34.242188 C 87.132812 34.363281 87.097656 34.496094 87.105469 34.640625 C 87.105469 34.695312 87.105469 34.746094 87.105469 34.800781 C 87.101562 35.023438 87.0625 35.242188 86.988281 35.457031 C 86.933594 35.605469 86.863281 35.746094 86.777344 35.875 L 86.691406 35.988281 C 86.625 36.074219 86.554688 36.15625 86.476562 36.230469 L 86.351562 36.335938 C 86.269531 36.402344 86.183594 36.457031 86.09375 36.507812 L 85.945312 36.585938 C 85.808594 36.652344 85.664062 36.699219 85.519531 36.730469 C 85.269531 36.78125 85.019531 36.78125 84.769531 36.730469 L 84.605469 36.730469 L 84.441406 36.679688 L 84.34375 36.640625 L 84.207031 36.574219 L 84.140625 36.539062 L 84.046875 36.480469 L 83.890625 36.355469 L 83.8125 36.25 C 83.753906 36.195312 83.699219 36.136719 83.648438 36.074219 L 83.59375 36.015625 C 83.527344 35.925781 83.46875 35.832031 83.417969 35.730469 L 83.417969 35.671875 C 83.320312 35.464844 83.257812 35.246094 83.234375 35.015625 C 83.230469 34.949219 83.230469 34.878906 83.234375 34.8125 L 83.234375 24.960938 C 83.234375 24.699219 83.285156 24.445312 83.382812 24.203125 C 83.484375 23.964844 83.625 23.75 83.8125 23.566406 C 83.996094 23.378906 84.207031 23.238281 84.449219 23.136719 C 84.691406 23.039062 84.941406 22.988281 85.203125 22.988281 C 85.382812 22.988281 85.539062 22.921875 85.667969 22.792969 C 85.792969 22.667969 85.859375 22.511719 85.859375 22.328125 C 85.859375 22.148438 85.792969 21.992188 85.667969 21.863281 C 85.539062 21.738281 85.382812 21.671875 85.203125 21.671875 C 84.472656 21.671875 83.816406 21.890625 83.234375 22.328125 L 83.234375 13.785156 C 83.234375 13.523438 83.285156 13.273438 83.382812 13.03125 C 83.484375 12.789062 83.625 12.574219 83.8125 12.390625 C 83.996094 12.207031 84.207031 12.0625 84.449219 11.964844 C 84.691406 11.863281 84.941406 11.8125 85.203125 11.8125 C 85.382812 11.8125 85.539062 11.75 85.667969 11.621094 C 85.792969 11.492188 85.859375 11.335938 85.859375 11.15625 C 85.859375 10.972656 85.792969 10.820312 85.667969 10.691406 C 85.539062 10.5625 85.382812 10.5 85.203125 10.5 C 84.472656 10.5 83.816406 10.71875 83.234375 11.15625 L 83.234375 9.183594 C 83.234375 8.648438 83.382812 8.15625 83.679688 7.710938 C 83.871094 7.429688 84.105469 7.191406 84.390625 7 C 84.808594 6.71875 85.273438 6.570312 85.78125 6.554688 C 85.929688 6.558594 86.074219 6.574219 86.21875 6.601562 L 86.4375 6.640625 L 86.621094 6.699219 C 87.296875 6.921875 87.796875 7.34375 88.128906 7.976562 C 88.28125 7.941406 88.4375 7.917969 88.59375 7.902344 C 88.757812 7.894531 88.917969 7.894531 89.078125 7.902344 C 89.449219 7.902344 89.816406 7.949219 90.175781 8.039062 L 90.273438 8.039062 C 90.695312 8.15625 91.09375 8.324219 91.46875 8.554688 L 91.527344 8.585938 C 91.910156 8.828125 92.246094 9.117188 92.542969 9.460938 C 93.007812 9.996094 93.332031 10.609375 93.515625 11.292969 C 93.128906 11.203125 92.738281 11.15625 92.339844 11.15625 C 91.621094 11.15625 90.929688 11.300781 90.265625 11.589844 C 89.710938 11.152344 89.089844 10.839844 88.402344 10.65625 C 88.210938 10.605469 88.03125 10.640625 87.867188 10.753906 C 87.707031 10.867188 87.613281 11.023438 87.589844 11.222656 C 87.574219 11.378906 87.613281 11.527344 87.703125 11.65625 C 87.792969 11.789062 87.914062 11.875 88.070312 11.917969 C 88.625 12.058594 89.128906 12.308594 89.578125 12.667969 C 89.714844 12.785156 90.078125 13.132812 90.109375 13.175781 C 90.378906 13.476562 90.597656 13.816406 90.765625 14.1875 C 90.832031 14.335938 90.933594 14.445312 91.082031 14.515625 C 91.226562 14.585938 91.375 14.601562 91.535156 14.5625 C 91.726562 14.507812 91.863281 14.390625 91.949219 14.210938 C 92.035156 14.03125 92.039062 13.851562 91.960938 13.667969 C 91.792969 13.289062 91.589844 12.9375 91.34375 12.609375 C 92.136719 12.375 92.921875 12.398438 93.699219 12.679688 C 93.839844 12.730469 93.980469 12.792969 94.117188 12.859375 C 94.53125 13.0625 94.898438 13.328125 95.21875 13.660156 L 95.257812 13.707031 C 95.339844 13.792969 95.410156 13.878906 95.484375 13.960938 L 95.542969 14.042969 C 95.601562 14.121094 95.660156 14.207031 95.710938 14.292969 L 95.765625 14.375 C 95.8125 14.460938 95.859375 14.542969 95.902344 14.625 L 95.960938 14.746094 C 96 14.832031 96.035156 14.910156 96.066406 14.996094 L 96.117188 15.132812 C 96.117188 15.21875 96.171875 15.304688 96.191406 15.394531 C 96.191406 15.441406 96.191406 15.488281 96.230469 15.539062 C 96.269531 15.59375 96.261719 15.730469 96.277344 15.824219 C 96.289062 15.914062 96.277344 15.90625 96.277344 15.953125 C 96.285156 16.097656 96.285156 16.238281 96.277344 16.382812 C 96.285156 16.519531 96.285156 16.65625 96.277344 16.796875 C 96.277344 16.867188 96.277344 16.945312 96.277344 17.019531 L 96.277344 17.070312 C 95.480469 16.628906 94.628906 16.410156 93.71875 16.414062 C 93.535156 16.414062 93.382812 16.476562 93.253906 16.605469 C 93.125 16.734375 93.0625 16.890625 93.0625 17.070312 C 93.0625 17.253906 93.125 17.40625 93.253906 17.535156 C 93.382812 17.664062 93.535156 17.730469 93.71875 17.730469 C 94.664062 17.710938 95.492188 18.015625 96.203125 18.636719 L 96.277344 18.753906 C 96.394531 18.867188 96.503906 18.984375 96.605469 19.109375 C 96.644531 19.15625 96.691406 19.195312 96.730469 19.246094 C 96.984375 19.578125 97.183594 19.9375 97.324219 20.332031 L 97.324219 20.390625 C 97.390625 20.578125 97.441406 20.769531 97.476562 20.960938 L 97.476562 21.054688 C 97.566406 21.441406 97.589844 21.832031 97.550781 22.226562 Z M 97.589844 22.226562"/><g clip-path="url(#e)"><path fill="#60C9E2" d="M 67.203125 7.871094 C 67.035156 7.878906 66.886719 7.832031 66.753906 7.726562 C 64.867188 5.898438 64.917969 5.8125 63.054688 3.925781 C 62.925781 3.8125 62.859375 3.671875 62.859375 3.5 C 62.859375 3.332031 62.925781 3.1875 63.054688 3.078125 C 63.519531 2.617188 63.46875 2.566406 63.929688 2.097656 C 64.070312 1.988281 64.226562 1.941406 64.40625 1.960938 C 64.578125 1.953125 64.726562 2.011719 64.847656 2.136719 C 66.710938 4.042969 66.753906 4.023438 68.59375 5.898438 C 68.734375 6.023438 68.808594 6.179688 68.816406 6.371094 C 68.808594 6.558594 68.734375 6.71875 68.597656 6.851562 C 68.289062 7.140625 67.988281 7.402344 67.699219 7.710938 C 67.566406 7.839844 67.40625 7.898438 67.222656 7.890625 Z M 67.203125 7.871094"/></g><g clip-path="url(#f)"><path fill="#60C9E2" d="M 97.785156 7.871094 C 97.601562 7.878906 97.441406 7.820312 97.304688 7.691406 C 97.019531 7.382812 96.695312 7.121094 96.386719 6.832031 C 96.257812 6.691406 96.195312 6.527344 96.199219 6.339844 C 96.207031 6.164062 96.269531 6.019531 96.394531 5.898438 C 98.257812 4.03125 98.277344 4.058594 100.140625 2.195312 C 100.253906 2.046875 100.40625 1.964844 100.59375 1.953125 C 100.765625 1.957031 100.910156 2.027344 101.027344 2.15625 L 101.949219 3.085938 C 102.078125 3.199219 102.144531 3.34375 102.144531 3.515625 C 102.144531 3.6875 102.078125 3.832031 101.949219 3.945312 C 100.089844 5.792969 100.109375 5.8125 98.246094 7.660156 C 98.117188 7.773438 97.96875 7.816406 97.796875 7.796875 C 97.796875 7.796875 97.792969 7.871094 97.785156 7.871094 Z M 97.785156 7.871094"/></g><path fill="#60C9E2" d="M 62.066406 17.492188 C 62.011719 17.488281 61.957031 17.476562 61.90625 17.460938 C 59.367188 16.800781 59.347656 16.835938 56.808594 16.144531 C 56.636719 16.089844 56.507812 15.980469 56.421875 15.816406 C 56.355469 15.652344 56.355469 15.492188 56.421875 15.328125 C 56.59375 14.671875 56.554688 14.671875 56.71875 14.046875 C 56.753906 13.898438 56.832031 13.773438 56.957031 13.679688 C 57.078125 13.582031 57.21875 13.539062 57.375 13.542969 C 57.433594 13.550781 57.488281 13.566406 57.542969 13.589844 C 60.082031 14.246094 60.070312 14.3125 62.609375 14.996094 C 62.78125 15.03125 62.90625 15.128906 62.988281 15.285156 C 63.105469 15.429688 63.152344 15.597656 63.132812 15.785156 C 63.007812 16.191406 62.851562 16.585938 62.753906 17 C 62.703125 17.171875 62.601562 17.304688 62.445312 17.394531 C 62.328125 17.472656 62.203125 17.503906 62.066406 17.492188 Z M 62.066406 17.492188"/><path fill="#60C9E2" d="M 102.933594 17.511719 C 102.8125 17.542969 102.691406 17.542969 102.566406 17.511719 C 102.425781 17.382812 102.347656 17.222656 102.332031 17.03125 C 102.234375 16.617188 102.121094 16.203125 102.003906 15.804688 C 101.933594 15.628906 101.933594 15.453125 102.003906 15.277344 C 102.101562 15.105469 102.246094 14.988281 102.4375 14.929688 C 104.976562 14.273438 104.988281 14.273438 107.527344 13.613281 C 107.585938 13.605469 107.640625 13.605469 107.699219 13.613281 C 107.84375 13.613281 107.972656 13.65625 108.085938 13.742188 C 108.199219 13.832031 108.273438 13.945312 108.308594 14.085938 C 108.480469 14.746094 108.4375 14.746094 108.609375 15.371094 C 108.667969 15.53125 108.652344 15.6875 108.570312 15.835938 C 108.488281 15.992188 108.367188 16.097656 108.195312 16.144531 C 105.65625 16.800781 105.675781 16.902344 103.136719 17.585938 C 103.066406 17.570312 103 17.542969 102.933594 17.511719 Z M 102.933594 17.511719"/><path fill="#60C9E2" d="M 57.320312 29.769531 C 56.992188 29.765625 56.773438 29.609375 56.664062 29.296875 C 56.496094 28.640625 56.519531 28.640625 56.351562 28.023438 C 56.335938 27.84375 56.371094 27.679688 56.460938 27.527344 C 56.546875 27.371094 56.675781 27.261719 56.835938 27.1875 C 59.375 26.53125 59.382812 26.53125 61.921875 25.871094 C 61.972656 25.839844 62.03125 25.8125 62.089844 25.792969 C 62.222656 25.796875 62.34375 25.828125 62.457031 25.890625 C 62.621094 26.007812 62.71875 26.160156 62.761719 26.351562 C 62.859375 26.765625 62.996094 27.167969 63.113281 27.574219 C 63.128906 27.765625 63.078125 27.933594 62.957031 28.082031 C 62.894531 28.261719 62.777344 28.390625 62.609375 28.476562 C 60.070312 29.132812 60.050781 29.09375 57.519531 29.789062 C 57.453125 29.792969 57.386719 29.789062 57.320312 29.769531 Z M 57.320312 29.769531"/><path fill="#60C9E2" d="M 100.59375 41.390625 C 100.417969 41.382812 100.269531 41.316406 100.148438 41.1875 C 98.285156 39.320312 98.269531 39.335938 96.414062 37.46875 C 96.269531 37.34375 96.199219 37.191406 96.199219 37 C 96.199219 36.8125 96.269531 36.65625 96.414062 36.535156 C 96.722656 36.246094 96.992188 35.949219 97.28125 35.640625 C 97.425781 35.511719 97.59375 35.457031 97.785156 35.476562 C 97.960938 35.460938 98.121094 35.507812 98.257812 35.621094 L 101.984375 39.328125 C 102.113281 39.464844 102.175781 39.625 102.175781 39.8125 C 102.175781 40 102.113281 40.164062 101.984375 40.300781 C 101.519531 40.761719 101.445312 40.6875 100.980469 41.148438 C 100.882812 41.28125 100.753906 41.363281 100.59375 41.390625 Z M 100.59375 41.390625"/><path fill="#60C9E2" d="M 107.679688 29.824219 C 107.617188 29.832031 107.554688 29.832031 107.496094 29.824219 C 104.957031 29.164062 104.980469 29.046875 102.441406 28.363281 C 102.273438 28.320312 102.152344 28.21875 102.074219 28.0625 C 101.960938 27.917969 101.914062 27.753906 101.9375 27.570312 C 102.0625 27.160156 102.148438 26.753906 102.246094 26.332031 C 102.316406 26.15625 102.441406 26.03125 102.613281 25.957031 C 102.707031 25.878906 102.816406 25.832031 102.933594 25.8125 C 102.996094 25.804688 103.054688 25.804688 103.113281 25.8125 C 105.652344 26.472656 105.644531 26.535156 108.183594 27.21875 C 108.359375 27.261719 108.492188 27.355469 108.589844 27.507812 C 108.695312 27.664062 108.730469 27.835938 108.703125 28.023438 C 108.53125 28.679688 108.492188 28.679688 108.320312 29.285156 C 108.28125 29.433594 108.203125 29.558594 108.085938 29.65625 C 107.96875 29.753906 107.832031 29.8125 107.679688 29.824219 Z M 107.679688 29.824219"/><path fill="#60C9E2" d="M 64.40625 41.390625 C 64.226562 41.398438 64.066406 41.339844 63.933594 41.214844 C 63.476562 40.734375 63.441406 40.765625 62.976562 40.308594 C 62.847656 40.164062 62.785156 40 62.785156 39.808594 C 62.785156 39.617188 62.847656 39.449219 62.976562 39.308594 L 66.695312 35.605469 C 66.839844 35.492188 67.003906 35.445312 67.1875 35.460938 C 67.382812 35.453125 67.550781 35.511719 67.695312 35.640625 C 67.980469 35.949219 68.230469 36.296875 68.539062 36.574219 C 68.660156 36.699219 68.714844 36.851562 68.695312 37.027344 C 68.722656 37.203125 68.675781 37.359375 68.558594 37.492188 L 64.871094 41.195312 C 64.746094 41.324219 64.589844 41.390625 64.40625 41.390625 Z M 64.40625 41.390625"/></svg>