<?xml version="1.0" encoding="UTF-8"?>
<svg xmlns="http://www.w3.org/2000/svg" xmlns:xlink="http://www.w3.org/1999/xlink" width="165pt" height="82.499998pt" viewBox="0 0 165 82.499998" version="1.2">
<defs>
<clipPath id="clip1">
  <path d="M 0.496094 0 L 164.503906 0 L 164.503906 82.003906 L 0.496094 82.003906 Z M 0.496094 0 "/>
</clipPath>
</defs>
<g id="surface1">
<g clip-path="url(#clip1)" clip-rule="nonzero">
<path style=" stroke:none;fill-rule:nonzero;fill:rgb(100%,100%,100%);fill-opacity:1;" d="M 0.496094 0 L 164.503906 0 L 164.503906 82.003906 L 0.496094 82.003906 Z M 0.496094 0 "/>
<path style=" stroke:none;fill-rule:nonzero;fill:rgb(100%,100%,100%);fill-opacity:1;" d="M 0.496094 0 L 164.503906 0 L 164.503906 82.003906 L 0.496094 82.003906 Z M 0.496094 0 "/>
</g>
<path style=" stroke:none;fill-rule:nonzero;fill:rgb(23.139954%,25.489807%,26.269531%);fill-opacity:1;" d="M 24.472656 42.949219 C 24.097656 43.136719 23.632812 43.230469 23.082031 43.230469 C 22.566406 43.230469 22.09375 43.140625 21.667969 42.960938 C 21.242188 42.78125 20.917969 42.503906 20.695312 42.128906 C 20.46875 41.75 20.359375 41.304688 20.359375 40.78125 C 20.359375 40.285156 20.46875 39.820312 20.695312 39.386719 C 20.921875 38.949219 21.234375 38.617188 21.644531 38.382812 C 22.050781 38.152344 22.503906 38.035156 22.996094 38.035156 C 23.429688 38.035156 23.824219 38.128906 24.183594 38.3125 C 24.539062 38.496094 24.808594 38.742188 24.988281 39.050781 C 25.167969 39.359375 25.257812 39.691406 25.257812 40.046875 C 25.257812 40.351562 25.1875 40.644531 25.050781 40.929688 C 24.910156 41.21875 24.71875 41.445312 24.476562 41.613281 C 24.296875 41.746094 24.148438 41.808594 24.039062 41.808594 C 23.976562 41.808594 23.925781 41.789062 23.882812 41.746094 C 23.835938 41.707031 23.816406 41.65625 23.816406 41.597656 C 23.816406 41.566406 23.847656 41.402344 23.910156 41.105469 L 24.367188 38.964844 L 23.800781 38.964844 L 23.691406 39.460938 C 23.574219 39.261719 23.429688 39.117188 23.261719 39.019531 C 23.09375 38.921875 22.921875 38.875 22.738281 38.875 C 22.496094 38.875 22.25 38.957031 21.992188 39.128906 C 21.738281 39.296875 21.523438 39.554688 21.351562 39.890625 C 21.179688 40.230469 21.09375 40.570312 21.09375 40.90625 C 21.09375 41.179688 21.148438 41.433594 21.261719 41.664062 C 21.371094 41.890625 21.515625 42.0625 21.691406 42.171875 C 21.871094 42.285156 22.050781 42.339844 22.242188 42.339844 C 22.410156 42.339844 22.582031 42.289062 22.75 42.195312 C 22.921875 42.097656 23.074219 41.96875 23.210938 41.808594 C 23.226562 41.9375 23.246094 42.03125 23.273438 42.082031 C 23.3125 42.167969 23.378906 42.230469 23.46875 42.273438 C 23.558594 42.320312 23.675781 42.34375 23.824219 42.34375 C 24.277344 42.34375 24.699219 42.128906 25.082031 41.699219 C 25.511719 41.21875 25.726562 40.671875 25.726562 40.054688 C 25.726562 39.625 25.625 39.226562 25.421875 38.859375 C 25.179688 38.429688 24.851562 38.109375 24.433594 37.894531 C 24.019531 37.675781 23.550781 37.570312 23.027344 37.570312 C 22.351562 37.570312 21.777344 37.722656 21.300781 38.027344 C 20.828125 38.335938 20.464844 38.777344 20.207031 39.351562 C 19.996094 39.820312 19.890625 40.316406 19.890625 40.835938 C 19.890625 41.300781 19.976562 41.734375 20.15625 42.136719 C 20.296875 42.453125 20.507812 42.730469 20.785156 42.976562 C 21.0625 43.21875 21.402344 43.398438 21.796875 43.523438 C 22.191406 43.644531 22.625 43.703125 23.09375 43.703125 C 23.601562 43.703125 24.035156 43.636719 24.394531 43.5 C 24.757812 43.367188 25.066406 43.183594 25.328125 42.949219 C 25.589844 42.71875 25.773438 42.492188 25.882812 42.269531 L 25.308594 42.269531 C 25.125 42.535156 24.84375 42.761719 24.472656 42.949219 Z M 23.398438 40.910156 C 23.324219 41.125 23.226562 41.300781 23.105469 41.441406 C 22.988281 41.582031 22.863281 41.6875 22.730469 41.757812 C 22.601562 41.832031 22.476562 41.867188 22.359375 41.867188 C 22.179688 41.867188 22.023438 41.785156 21.886719 41.625 C 21.75 41.460938 21.679688 41.234375 21.679688 40.945312 C 21.679688 40.761719 21.714844 40.5625 21.78125 40.34375 C 21.851562 40.125 21.9375 39.9375 22.050781 39.785156 C 22.164062 39.632812 22.277344 39.519531 22.398438 39.453125 C 22.515625 39.382812 22.644531 39.347656 22.777344 39.347656 C 22.984375 39.347656 23.15625 39.425781 23.300781 39.585938 C 23.441406 39.746094 23.511719 39.972656 23.511719 40.257812 C 23.511719 40.476562 23.476562 40.691406 23.398438 40.910156 Z M 23.398438 40.910156 "/>
<path style=" stroke:none;fill-rule:nonzero;fill:rgb(23.139954%,25.489807%,26.269531%);fill-opacity:1;" d="M 36.09375 42.726562 L 27.867188 42.726562 C 27.632812 42.726562 27.4375 42.917969 27.4375 43.152344 C 27.4375 43.390625 27.632812 43.582031 27.867188 43.582031 L 36.09375 43.582031 C 36.332031 43.582031 36.523438 43.390625 36.523438 43.152344 C 36.523438 42.917969 36.332031 42.726562 36.09375 42.726562 Z M 36.09375 42.726562 "/>
<path style=" stroke:none;fill-rule:nonzero;fill:rgb(23.139954%,25.489807%,26.269531%);fill-opacity:1;" d="M 37.53125 35.136719 L 19.160156 35.136719 C 18.1875 35.136719 17.398438 35.925781 17.398438 36.902344 L 17.398438 44.890625 C 17.398438 45.863281 18.1875 46.652344 19.160156 46.652344 L 37.53125 46.652344 C 38.507812 46.652344 39.292969 45.863281 39.292969 44.890625 L 39.292969 36.902344 C 39.292969 35.925781 38.507812 35.136719 37.53125 35.136719 Z M 38.4375 44.890625 C 38.433594 45.390625 38.03125 45.796875 37.53125 45.796875 L 19.160156 45.796875 C 18.660156 45.796875 18.257812 45.390625 18.257812 44.890625 L 18.257812 36.902344 C 18.257812 36.402344 18.660156 35.996094 19.160156 35.996094 L 37.53125 35.996094 C 38.03125 35.996094 38.433594 36.402344 38.4375 36.902344 Z M 38.4375 44.890625 "/>
<path style=" stroke:none;fill-rule:nonzero;fill:rgb(23.139954%,25.489807%,26.269531%);fill-opacity:1;" d="M 28.203125 22.191406 C 17.886719 22.191406 9.523438 30.566406 9.523438 40.894531 C 9.523438 51.226562 17.886719 59.601562 28.203125 59.601562 C 38.519531 59.601562 46.882812 51.226562 46.882812 40.894531 C 46.882812 30.566406 38.519531 22.191406 28.203125 22.191406 Z M 28.203125 58.746094 C 18.359375 58.726562 10.398438 50.753906 10.378906 40.894531 C 10.398438 31.039062 18.359375 23.066406 28.203125 23.046875 C 38.046875 23.066406 46.007812 31.039062 46.027344 40.894531 C 46.007812 50.753906 38.046875 58.726562 28.203125 58.746094 Z M 28.203125 58.746094 "/>
<path style=" stroke:none;fill-rule:nonzero;fill:rgb(23.139954%,25.489807%,26.269531%);fill-opacity:1;" d="M 36.09375 38.15625 L 27.867188 38.15625 C 27.632812 38.15625 27.4375 38.347656 27.4375 38.585938 C 27.4375 38.824219 27.632812 39.015625 27.867188 39.015625 L 36.09375 39.015625 C 36.332031 39.015625 36.523438 38.824219 36.523438 38.585938 C 36.523438 38.347656 36.332031 38.15625 36.09375 38.15625 Z M 36.09375 38.15625 "/>
<path style=" stroke:none;fill-rule:nonzero;fill:rgb(23.139954%,25.489807%,26.269531%);fill-opacity:1;" d="M 36.09375 40.421875 L 27.867188 40.421875 C 27.632812 40.421875 27.4375 40.613281 27.4375 40.851562 C 27.4375 41.089844 27.632812 41.28125 27.867188 41.28125 L 36.09375 41.28125 C 36.332031 41.28125 36.523438 41.085938 36.523438 40.851562 C 36.523438 40.613281 36.332031 40.421875 36.09375 40.421875 Z M 36.09375 40.421875 "/>
<path style=" stroke:none;fill-rule:nonzero;fill:rgb(23.139954%,25.489807%,26.269531%);fill-opacity:1;" d="M 87.824219 29.863281 L 87.824219 37.484375 L 86.660156 37.484375 L 86.660156 38.820312 L 90.523438 38.820312 L 90.523438 37.484375 L 89.359375 37.484375 L 89.359375 29.3125 L 90.523438 29.3125 L 90.523438 27.976562 L 87.125 27.976562 L 83.980469 35.867188 L 80.832031 27.976562 L 77.4375 27.976562 L 77.4375 29.3125 L 78.601562 29.3125 L 78.601562 37.484375 L 77.4375 37.484375 L 77.4375 38.820312 L 81.300781 38.820312 L 81.300781 37.484375 L 80.132812 37.484375 L 80.132812 29.863281 L 83.246094 37.484375 L 84.714844 37.484375 Z M 87.824219 29.863281 "/>
<path style=" stroke:none;fill-rule:nonzero;fill:rgb(23.139954%,25.489807%,26.269531%);fill-opacity:1;" d="M 72.992188 38.820312 L 76.523438 38.820312 L 76.523438 37.484375 L 75.621094 37.484375 L 72.808594 29.3125 L 73.523438 29.3125 L 73.523438 27.976562 L 69.078125 27.976562 L 69.078125 29.3125 L 69.777344 29.3125 L 66.964844 37.484375 L 66.082031 37.484375 L 66.082031 38.820312 L 69.613281 38.820312 L 69.613281 37.484375 L 68.496094 37.484375 L 69.210938 35.417969 L 73.375 35.417969 L 74.089844 37.484375 L 72.992188 37.484375 Z M 69.664062 34.082031 L 71.292969 29.363281 L 72.925781 34.082031 Z M 69.664062 34.082031 "/>
<path style=" stroke:none;fill-rule:nonzero;fill:rgb(23.139954%,25.489807%,26.269531%);fill-opacity:1;" d="M 73.925781 45.976562 L 75.089844 45.976562 L 75.089844 54.148438 L 73.925781 54.148438 L 73.925781 55.484375 L 81.847656 55.484375 L 81.847656 52.214844 L 80.515625 52.214844 L 80.515625 54.148438 L 76.621094 54.148438 L 76.621094 50.730469 L 80.515625 50.730469 L 80.515625 49.394531 L 76.621094 49.394531 L 76.621094 45.976562 L 80.515625 45.976562 L 80.515625 47.910156 L 81.847656 47.910156 L 81.847656 44.640625 L 73.925781 44.640625 Z M 73.925781 45.976562 "/>
<path style=" stroke:none;fill-rule:nonzero;fill:rgb(23.139954%,25.489807%,26.269531%);fill-opacity:1;" d="M 121.855469 35.550781 L 120.523438 35.550781 L 120.523438 37.484375 L 116.628906 37.484375 L 116.628906 34.066406 L 120.523438 34.066406 L 120.523438 32.730469 L 116.628906 32.730469 L 116.628906 29.3125 L 120.523438 29.3125 L 120.523438 31.246094 L 121.855469 31.246094 L 121.855469 27.976562 L 113.929688 27.976562 L 113.929688 29.3125 L 115.097656 29.3125 L 115.097656 37.484375 L 113.929688 37.484375 L 113.929688 38.820312 L 121.855469 38.820312 Z M 121.855469 35.550781 "/>
<path style=" stroke:none;fill-rule:nonzero;fill:rgb(23.139954%,25.489807%,26.269531%);fill-opacity:1;" d="M 63.269531 38.820312 L 65 36.984375 L 65 32.398438 L 61.371094 32.398438 L 61.371094 33.730469 L 63.667969 33.730469 L 63.667969 36.300781 L 62.605469 37.386719 L 59.558594 37.386719 L 58.707031 36.5 L 58.707031 28.628906 L 59.574219 27.742188 L 62.621094 27.742188 L 63.667969 28.828125 L 63.667969 30.246094 L 65 30.246094 L 65 28.144531 L 63.269531 26.308594 L 58.90625 26.308594 L 57.175781 28.144531 L 57.175781 36.984375 L 58.90625 38.820312 Z M 63.269531 38.820312 "/>
<path style=" stroke:none;fill-rule:nonzero;fill:rgb(23.139954%,25.489807%,26.269531%);fill-opacity:1;" d="M 69.0625 44.308594 L 70.277344 44.308594 L 67.863281 53.648438 L 65.449219 44.308594 L 66.183594 44.308594 L 66.183594 42.972656 L 62.585938 42.972656 L 62.585938 44.308594 L 63.304688 44.308594 L 60.890625 53.648438 L 58.476562 44.308594 L 59.707031 44.308594 L 59.707031 42.972656 L 56.179688 42.972656 L 56.179688 44.308594 L 56.945312 44.308594 L 59.839844 55.484375 L 61.886719 55.484375 L 64.386719 45.824219 L 66.882812 55.484375 L 68.929688 55.484375 L 71.8125 44.308594 L 72.59375 44.308594 L 72.59375 42.972656 L 69.0625 42.972656 Z M 69.0625 44.308594 "/>
<path style=" stroke:none;fill-rule:nonzero;fill:rgb(23.139954%,25.489807%,26.269531%);fill-opacity:1;" d="M 111.601562 36.984375 L 111.601562 29.8125 L 109.867188 27.976562 L 102.777344 27.976562 L 102.777344 29.3125 L 103.941406 29.3125 L 103.941406 37.484375 L 102.777344 37.484375 L 102.777344 38.820312 L 109.867188 38.820312 Z M 105.472656 37.386719 L 105.472656 29.410156 L 109.21875 29.410156 L 110.070312 30.296875 L 110.070312 36.5 L 109.203125 37.386719 Z M 105.472656 37.386719 "/>
<path style=" stroke:none;fill-rule:nonzero;fill:rgb(23.139954%,25.489807%,26.269531%);fill-opacity:1;" d="M 84.179688 45.976562 L 85.34375 45.976562 L 85.34375 54.148438 L 84.179688 54.148438 L 84.179688 55.484375 L 92.105469 55.484375 L 92.105469 52.214844 L 90.773438 52.214844 L 90.773438 54.148438 L 86.875 54.148438 L 86.875 50.730469 L 90.773438 50.730469 L 90.773438 49.394531 L 86.875 49.394531 L 86.875 45.976562 L 90.773438 45.976562 L 90.773438 47.910156 L 92.105469 47.910156 L 92.105469 44.640625 L 84.179688 44.640625 Z M 84.179688 45.976562 "/>
<path style=" stroke:none;fill-rule:nonzero;fill:rgb(23.139954%,25.489807%,26.269531%);fill-opacity:1;" d="M 134.125 36.816406 L 135.789062 36.816406 L 135.789062 38.820312 L 134.125 38.820312 Z M 134.125 36.816406 "/>
<path style=" stroke:none;fill-rule:nonzero;fill:rgb(23.139954%,25.489807%,26.269531%);fill-opacity:1;" d="M 153.085938 32.765625 L 149.625 32.765625 L 148.808594 31.929688 L 148.808594 30.296875 L 149.675781 29.410156 L 152.222656 29.410156 L 153.222656 30.445312 L 153.222656 31.914062 L 154.601562 31.914062 L 154.601562 29.8125 L 152.871094 27.976562 L 149.007812 27.976562 L 147.277344 29.8125 L 147.277344 32.414062 L 148.976562 34.199219 L 152.4375 34.199219 L 153.238281 35.015625 L 153.238281 36.5 L 152.386719 37.386719 L 149.507812 37.386719 L 148.492188 36.351562 L 148.492188 34.882812 L 147.109375 34.882812 L 147.109375 36.984375 L 148.84375 38.820312 L 153.039062 38.820312 L 154.769531 36.984375 L 154.769531 34.53125 Z M 153.085938 32.765625 "/>
<path style=" stroke:none;fill-rule:nonzero;fill:rgb(23.139954%,25.489807%,26.269531%);fill-opacity:1;" d="M 134.292969 27.976562 L 130.761719 27.976562 L 130.761719 29.3125 L 131.84375 29.3125 L 128.898438 37.5 L 125.964844 29.3125 L 127.050781 29.3125 L 127.050781 27.976562 L 123.519531 27.976562 L 123.519531 29.3125 L 124.433594 29.3125 L 127.847656 38.820312 L 129.960938 38.820312 L 133.375 29.3125 L 134.292969 29.3125 Z M 134.292969 27.976562 "/>
<path style=" stroke:none;fill-rule:nonzero;fill:rgb(23.139954%,25.489807%,26.269531%);fill-opacity:1;" d="M 141.914062 29.3125 L 143.082031 29.3125 L 143.082031 36.5 L 142.214844 37.386719 L 140.335938 37.386719 L 139.285156 36.300781 L 139.285156 34.050781 L 137.953125 34.050781 L 137.953125 36.984375 L 139.683594 38.820312 L 142.882812 38.820312 L 144.613281 36.984375 L 144.613281 29.3125 L 145.613281 29.3125 L 145.613281 27.976562 L 141.914062 27.976562 Z M 141.914062 29.3125 "/>
<path style=" stroke:none;fill-rule:nonzero;fill:rgb(23.139954%,25.489807%,26.269531%);fill-opacity:1;" d="M 99.929688 49.945312 L 102.777344 45.976562 L 103.742188 45.976562 L 103.742188 44.640625 L 100.210938 44.640625 L 100.210938 45.976562 L 101.0625 45.976562 L 98.597656 49.394531 L 97.132812 49.394531 L 97.132812 45.976562 L 98.296875 45.976562 L 98.296875 44.640625 L 94.433594 44.640625 L 94.433594 45.976562 L 95.601562 45.976562 L 95.601562 54.148438 L 94.433594 54.148438 L 94.433594 55.484375 L 98.296875 55.484375 L 98.296875 54.148438 L 97.132812 54.148438 L 97.132812 50.730469 L 98.78125 50.730469 L 101.226562 54.148438 L 100.378906 54.148438 L 100.378906 55.484375 L 103.90625 55.484375 L 103.90625 54.148438 L 102.941406 54.148438 Z M 99.929688 49.945312 "/>
<path style=" stroke:none;fill-rule:nonzero;fill:rgb(23.139954%,25.489807%,26.269531%);fill-opacity:1;" d="M 118.742188 45.976562 L 119.742188 45.976562 L 117.542969 50.59375 L 115.363281 45.976562 L 116.359375 45.976562 L 116.359375 44.640625 L 112.832031 44.640625 L 112.832031 45.976562 L 113.898438 45.976562 L 116.792969 52.078125 L 116.792969 54.148438 L 115.296875 54.148438 L 115.296875 55.484375 L 119.824219 55.484375 L 119.824219 54.148438 L 118.324219 54.148438 L 118.324219 52.046875 L 121.207031 45.976562 L 122.269531 45.976562 L 122.269531 44.640625 L 118.742188 44.640625 Z M 118.742188 45.976562 "/>
<path style=" stroke:none;fill-rule:nonzero;fill:rgb(23.139954%,25.489807%,26.269531%);fill-opacity:1;" d="M 100.445312 35.550781 L 99.113281 35.550781 L 99.113281 37.484375 L 95.21875 37.484375 L 95.21875 34.066406 L 99.113281 34.066406 L 99.113281 32.730469 L 95.21875 32.730469 L 95.21875 29.3125 L 99.113281 29.3125 L 99.113281 31.246094 L 100.445312 31.246094 L 100.445312 27.976562 L 92.519531 27.976562 L 92.519531 29.3125 L 93.6875 29.3125 L 93.6875 37.484375 L 92.519531 37.484375 L 92.519531 38.820312 L 100.445312 38.820312 Z M 100.445312 35.550781 "/>
<path style=" stroke:none;fill-rule:nonzero;fill:rgb(23.139954%,25.489807%,26.269531%);fill-opacity:1;" d="M 111.898438 54.148438 L 108.269531 54.148438 L 108.269531 45.976562 L 109.601562 45.976562 L 109.601562 44.640625 L 105.574219 44.640625 L 105.574219 45.976562 L 106.738281 45.976562 L 106.738281 54.148438 L 105.574219 54.148438 L 105.574219 55.484375 L 113.164062 55.484375 L 113.164062 52.214844 L 111.898438 52.214844 Z M 111.898438 54.148438 "/>
</g>
</svg>
