<svg xmlns="http://www.w3.org/2000/svg" xmlns:xlink="http://www.w3.org/1999/xlink" viewBox="0 0 623.62 255.12"><defs><style>.cls-1{fill:none;}.cls-2{fill:#fff;}.cls-3{fill:#e43729;}.cls-4{fill:#fabe00;}.cls-5{fill:#00964d;}.cls-6{fill:#597dbe;}.cls-7{fill:#6d6f75;}.cls-8{clip-path:url(#clip-path);}.cls-9{clip-path:url(#clip-path-8);}</style><clipPath id="clip-path"><rect class="cls-1" x="79.33" y="176.53" width="274.19" height="70.12"/></clipPath><clipPath id="clip-path-8"><rect class="cls-1" x="154.47" y="-113.22" width="286.54" height="405.24"/></clipPath></defs><g id="BG"><rect class="cls-2" width="623.62" height="255.12"/></g><g id="Logo"><polygon class="cls-3" points="158.15 136.67 263.55 34.82 368.94 136.67 158.15 136.67"/><polygon class="cls-4" points="236.2 139.26 335.12 14.76 434.05 139.26 236.2 139.26"/><polygon class="cls-5" points="292.69 139.3 387.54 23.65 482.39 139.3 292.69 139.3"/><polygon class="cls-6" points="115.69 139.26 204.42 14.76 293.13 139.26 115.69 139.26"/><polygon class="cls-7" points="384.02 232.5 378.68 232.5 378.68 196.06 367.08 196.06 367.08 190.95 395.63 190.95 395.63 196.06 384.02 196.06 384.02 232.5"/><path class="cls-7" d="M402.13,232.5h-5.34V204.07h5.11v4.64h.23a7.28,7.28,0,0,1,3.33-3.83,9.54,9.54,0,0,1,4.91-1.51,10.06,10.06,0,0,1,4,.7l-2,5a8.05,8.05,0,0,0-2.84-.41,7,7,0,0,0-5.14,2.3,8.22,8.22,0,0,0-2.23,6Z"/><path class="cls-7" d="M429,233.43a13.73,13.73,0,0,1-10.48-4.29,15.21,15.21,0,0,1-4-10.85,15.62,15.62,0,0,1,3.92-10.68,12.7,12.7,0,0,1,10-4.47,13.09,13.09,0,0,1,10.12,4.12q3.81,4.13,3.8,11l-.06,1H419.83a9.62,9.62,0,0,0,2.87,6.79,8.69,8.69,0,0,0,6.18,2.5q5.75,0,7.78-4.88l4.75,2a12.69,12.69,0,0,1-4.58,5.54A13.32,13.32,0,0,1,429,233.43Zm7.66-18.57a7.57,7.57,0,0,0-2.24-4.64q-2.06-2.21-6.12-2.2a7.66,7.66,0,0,0-5.14,1.85,9.47,9.47,0,0,0-3,5Z"/><path class="cls-7" d="M452.32,204.07v4h.24a9.41,9.41,0,0,1,3.65-3.46,10.62,10.62,0,0,1,5.34-1.42q5.28,0,8.07,3.25a13,13,0,0,1,2.78,8.7V232.5h-5.34V215.91q0-7.89-7-7.89a6.55,6.55,0,0,0-5.39,2.63,9.59,9.59,0,0,0-2.09,6.13V232.5h-5.34V204.07Z"/><path class="cls-7" d="M489.52,233q-4.47,0-6.82-2.38a9.2,9.2,0,0,1-2.35-6.73V208.94h-5v-4.87h5v-8.71h5.34v8.71h7v4.87h-7v14.51c0,3.1,1.28,4.64,3.83,4.64a5.71,5.71,0,0,0,2.44-.46l1.86,4.58A10.71,10.71,0,0,1,489.52,233Z"/><path class="cls-7" d="M500,207.46a14.93,14.93,0,0,1,21,0,16.28,16.28,0,0,1,0,21.65,14.93,14.93,0,0,1-21,0,16.28,16.28,0,0,1,0-21.65Zm4,18.28a9,9,0,0,0,13.06,0,11.45,11.45,0,0,0,0-14.91,9,9,0,0,0-13.06,0,11.48,11.48,0,0,0,0,14.91Z"/><g class="cls-8"><path class="cls-3" d="M107.72,211.7l19.19-11.08a9.45,9.45,0,1,0-9.45-16.36L84.31,203.41Z"/></g><g class="cls-8"><path class="cls-6" d="M122.18,240.18a9.44,9.44,0,0,0,4.74-17.62L93.75,203.41a9.44,9.44,0,1,0-9.44,16.36l33.16,19.14a9.39,9.39,0,0,0,4.71,1.27"/></g><g class="cls-8"><path class="cls-4" d="M155.17,240.18a9.37,9.37,0,0,0,4.71-1.27l33.17-19.14-23.12-8.46-19.49,11.25a9.44,9.44,0,0,0,4.73,17.62"/></g><g class="cls-8"><path class="cls-5" d="M188.32,221a9.44,9.44,0,0,0,4.73-17.62l-33.16-19.15a9.45,9.45,0,0,0-9.45,16.36l33.16,19.15a9.39,9.39,0,0,0,4.72,1.26"/></g><g class="cls-8"><path class="cls-7" d="M235.27,230.56a21.17,21.17,0,0,1-7.86-7.86,22.49,22.49,0,0,1,0-22.13,21.41,21.41,0,0,1,18.69-10.72,22.88,22.88,0,0,1,8.65,1.64,17.32,17.32,0,0,1,6.67,4.6l-3.55,3.55a12.92,12.92,0,0,0-5.07-3.76,16.88,16.88,0,0,0-6.64-1.3,16.61,16.61,0,0,0-8.24,2.12,16.21,16.21,0,0,0-6.11,6,18.52,18.52,0,0,0,0,17.88,16.14,16.14,0,0,0,6.14,6,18.06,18.06,0,0,0,15.23.82,15.82,15.82,0,0,0,4.86-3.47,12.78,12.78,0,0,0,2.45-3.93,17.24,17.24,0,0,0,1.16-5.1H246.22v-4.6h20a16.8,16.8,0,0,1,.29,3,23.51,23.51,0,0,1-1.22,7.49,16.4,16.4,0,0,1-3.9,6.37q-5.78,6.24-15.32,6.23a21.33,21.33,0,0,1-10.83-2.86"/></g><g class="cls-8"><path class="cls-7" d="M272.72,190.79H285.3a22.76,22.76,0,0,1,11.18,2.64,18.31,18.31,0,0,1,7.33,7.37,24.12,24.12,0,0,1,0,21.67,18.22,18.22,0,0,1-7.33,7.36,22.68,22.68,0,0,1-11.18,2.65H272.72Zm12.58,37q7.4,0,11.73-4.25t4.34-11.88q0-7.63-4.34-11.88t-11.73-4.25h-7.69v32.26Z"/></g><g class="cls-8"><path class="cls-7" d="M321.23,230.56a21.1,21.1,0,0,1-7.86-7.86,22.42,22.42,0,0,1,0-22.13,21.41,21.41,0,0,1,18.69-10.72,22.91,22.91,0,0,1,8.65,1.64,17.21,17.21,0,0,1,6.66,4.6l-3.55,3.55a13,13,0,0,0-5.06-3.76,16.88,16.88,0,0,0-6.64-1.3,16.61,16.61,0,0,0-8.24,2.12,16.31,16.31,0,0,0-6.12,6,18.52,18.52,0,0,0,0,17.88,16.17,16.17,0,0,0,6.15,6,18,18,0,0,0,15.22.82,15.75,15.75,0,0,0,4.87-3.47,12.76,12.76,0,0,0,2.44-3.93,17.56,17.56,0,0,0,1.17-5.1H332.17v-4.6h20a17.76,17.76,0,0,1,.29,3,23.24,23.24,0,0,1-1.23,7.49,16.4,16.4,0,0,1-3.9,6.37q-5.76,6.24-15.32,6.23a21.27,21.27,0,0,1-10.82-2.86"/></g><path class="cls-2" d="M379.85,73.16V71.4a5.21,5.21,0,0,0,1.91-3.84c0-3.13-3.38-5.75-7.9-6.4A7.58,7.58,0,0,1,372,57.61a7.83,7.83,0,0,1-1.78,3.46c-4.89.46-8.66,3.19-8.66,6.49a5.21,5.21,0,0,0,1.91,3.84v1.76h-1.6V94.27h-87V79.83h0l-11.28-6.67-11.28,6.67h0v20.45l-4.64,1.43h0v11.84h-3.81v-5.47h-.31l-2.4,2.56-2.4-2.56h-.3v5.47h-3.74v-5.47h-.31l-2.4,2.56-2.4-2.56h-.3v5.47h-3.34V75.27l2.1-2.11V58.86h0L222.68,63l-5.24-4.08L212.22,63,207,58.86h-.11v14.3l2.1,2.1v64.22H381.69V73.16h-1.84Zm-105,27.13h0v0Z"/><g class="cls-9"><path class="cls-4" d="M268.17,115.16a4.64,4.64,0,1,1-4.64-4.64,4.64,4.64,0,0,1,4.64,4.64"/></g><g class="cls-9"><path class="cls-5" d="M343.9,123.25a3.36,3.36,0,1,1-3.36-3.38,3.37,3.37,0,0,1,3.36,3.38"/></g><g class="cls-9"><path class="cls-3" d="M268.14,87.46a4.64,4.64,0,1,1-4.64-4.64,4.64,4.64,0,0,1,4.64,4.64"/></g><g class="cls-9"><path class="cls-6" d="M223.57,92.88a6.14,6.14,0,1,1-6.14-6.14,6.13,6.13,0,0,1,6.14,6.14"/></g></g></svg>
