<svg xmlns="http://www.w3.org/2000/svg" xmlns:xlink="http://www.w3.org/1999/xlink" width="165" viewBox="0 0 165 82.5" height="82.5" version="1.0"><defs><g id="b"><path d="M 7.21875 -7.90625 C 7.21875 -8.351562 7.164062 -8.738281 7.0625 -9.0625 C 6.96875 -9.382812 6.804688 -9.648438 6.578125 -9.859375 C 6.359375 -10.066406 6.066406 -10.21875 5.703125 -10.3125 C 5.347656 -10.414062 4.910156 -10.46875 4.390625 -10.46875 L 3.5625 -10.46875 L 3.5625 -5.15625 L 4.4375 -5.15625 C 4.96875 -5.15625 5.410156 -5.21875 5.765625 -5.34375 C 6.117188 -5.46875 6.398438 -5.644531 6.609375 -5.875 C 6.828125 -6.113281 6.984375 -6.398438 7.078125 -6.734375 C 7.171875 -7.078125 7.21875 -7.46875 7.21875 -7.90625 Z M 3.5625 -4.40625 L 3.5625 -0.671875 L 5.359375 -0.4375 L 5.359375 0 L 0.609375 0 L 0.609375 -0.4375 L 1.9375 -0.671875 L 1.9375 -10.5625 L 0.5 -10.78125 L 0.5 -11.21875 L 4.75 -11.21875 C 5.539062 -11.21875 6.203125 -11.132812 6.734375 -10.96875 C 7.265625 -10.800781 7.6875 -10.566406 8 -10.265625 C 8.320312 -9.960938 8.550781 -9.609375 8.6875 -9.203125 C 8.820312 -8.804688 8.890625 -8.378906 8.890625 -7.921875 C 8.890625 -7.460938 8.820312 -7.019531 8.6875 -6.59375 C 8.550781 -6.164062 8.328125 -5.789062 8.015625 -5.46875 C 7.710938 -5.144531 7.300781 -4.882812 6.78125 -4.6875 C 6.257812 -4.5 5.609375 -4.40625 4.828125 -4.40625 Z M 3.5625 -4.40625"/></g><g id="c"><path d="M 2.1875 -3.953125 L 2.1875 -3.8125 C 2.1875 -3.40625 2.210938 -3.015625 2.265625 -2.640625 C 2.328125 -2.265625 2.445312 -1.929688 2.625 -1.640625 C 2.800781 -1.359375 3.046875 -1.128906 3.359375 -0.953125 C 3.679688 -0.785156 4.101562 -0.703125 4.625 -0.703125 C 4.800781 -0.703125 4.976562 -0.707031 5.15625 -0.71875 C 5.34375 -0.738281 5.53125 -0.757812 5.71875 -0.78125 C 5.90625 -0.800781 6.082031 -0.820312 6.25 -0.84375 C 6.425781 -0.875 6.585938 -0.910156 6.734375 -0.953125 L 6.734375 -0.484375 C 6.609375 -0.390625 6.453125 -0.304688 6.265625 -0.234375 C 6.085938 -0.160156 5.890625 -0.09375 5.671875 -0.03125 C 5.453125 0.03125 5.21875 0.078125 4.96875 0.109375 C 4.71875 0.148438 4.46875 0.171875 4.21875 0.171875 C 3.5625 0.171875 3.007812 0.0820312 2.5625 -0.09375 C 2.113281 -0.28125 1.75 -0.546875 1.46875 -0.890625 C 1.1875 -1.242188 0.984375 -1.679688 0.859375 -2.203125 C 0.734375 -2.722656 0.671875 -3.320312 0.671875 -4 C 0.671875 -5.363281 0.957031 -6.382812 1.53125 -7.0625 C 2.113281 -7.738281 2.941406 -8.078125 4.015625 -8.078125 C 4.429688 -8.078125 4.820312 -8.019531 5.1875 -7.90625 C 5.5625 -7.789062 5.882812 -7.601562 6.15625 -7.34375 C 6.425781 -7.082031 6.640625 -6.726562 6.796875 -6.28125 C 6.960938 -5.84375 7.046875 -5.296875 7.046875 -4.640625 L 7.046875 -3.953125 Z M 4.015625 -7.40625 C 3.703125 -7.40625 3.429688 -7.335938 3.203125 -7.203125 C 2.972656 -7.078125 2.78125 -6.894531 2.625 -6.65625 C 2.476562 -6.414062 2.367188 -6.125 2.296875 -5.78125 C 2.234375 -5.4375 2.203125 -5.050781 2.203125 -4.625 L 5.578125 -4.625 C 5.578125 -5.050781 5.550781 -5.4375 5.5 -5.78125 C 5.457031 -6.125 5.375 -6.414062 5.25 -6.65625 C 5.132812 -6.894531 4.972656 -7.078125 4.765625 -7.203125 C 4.566406 -7.335938 4.316406 -7.40625 4.015625 -7.40625 Z M 4.015625 -7.40625"/></g><g id="d"><path d="M 6.078125 -2.203125 C 6.078125 -1.859375 6.019531 -1.535156 5.90625 -1.234375 C 5.800781 -0.941406 5.628906 -0.691406 5.390625 -0.484375 C 5.160156 -0.273438 4.859375 -0.113281 4.484375 0 C 4.109375 0.113281 3.660156 0.171875 3.140625 0.171875 C 2.867188 0.171875 2.601562 0.15625 2.34375 0.125 C 2.09375 0.09375 1.859375 0.0546875 1.640625 0.015625 C 1.421875 -0.0234375 1.226562 -0.0664062 1.0625 -0.109375 C 0.90625 -0.160156 0.789062 -0.195312 0.71875 -0.21875 L 0.71875 -2.15625 L 1.09375 -2.15625 L 1.515625 -1.0625 C 1.691406 -0.90625 1.914062 -0.769531 2.1875 -0.65625 C 2.457031 -0.550781 2.78125 -0.5 3.15625 -0.5 C 3.675781 -0.5 4.078125 -0.609375 4.359375 -0.828125 C 4.640625 -1.054688 4.78125 -1.410156 4.78125 -1.890625 C 4.78125 -2.160156 4.722656 -2.382812 4.609375 -2.5625 C 4.492188 -2.75 4.335938 -2.90625 4.140625 -3.03125 C 3.953125 -3.15625 3.734375 -3.253906 3.484375 -3.328125 C 3.242188 -3.410156 2.992188 -3.492188 2.734375 -3.578125 C 2.484375 -3.660156 2.234375 -3.753906 1.984375 -3.859375 C 1.742188 -3.972656 1.53125 -4.113281 1.34375 -4.28125 C 1.15625 -4.445312 1 -4.65625 0.875 -4.90625 C 0.757812 -5.15625 0.703125 -5.46875 0.703125 -5.84375 C 0.703125 -6.195312 0.765625 -6.515625 0.890625 -6.796875 C 1.023438 -7.078125 1.207031 -7.3125 1.4375 -7.5 C 1.675781 -7.6875 1.953125 -7.828125 2.265625 -7.921875 C 2.585938 -8.023438 2.945312 -8.078125 3.34375 -8.078125 C 3.71875 -8.078125 4.085938 -8.050781 4.453125 -8 C 4.816406 -7.945312 5.164062 -7.882812 5.5 -7.8125 L 5.5 -6.09375 L 5.109375 -6.09375 L 4.765625 -7.015625 C 4.617188 -7.140625 4.414062 -7.234375 4.15625 -7.296875 C 3.90625 -7.367188 3.640625 -7.40625 3.359375 -7.40625 C 2.898438 -7.40625 2.550781 -7.289062 2.3125 -7.0625 C 2.070312 -6.84375 1.953125 -6.546875 1.953125 -6.171875 C 1.953125 -5.910156 2.007812 -5.695312 2.125 -5.53125 C 2.25 -5.375 2.40625 -5.238281 2.59375 -5.125 C 2.789062 -5.007812 3.007812 -4.90625 3.25 -4.8125 C 3.5 -4.726562 3.753906 -4.640625 4.015625 -4.546875 C 4.273438 -4.460938 4.523438 -4.363281 4.765625 -4.25 C 5.015625 -4.132812 5.234375 -3.988281 5.421875 -3.8125 C 5.617188 -3.632812 5.773438 -3.414062 5.890625 -3.15625 C 6.015625 -2.90625 6.078125 -2.585938 6.078125 -2.203125 Z M 6.078125 -2.203125"/></g><g id="e"><path d="M 7.109375 -0.484375 C 6.960938 -0.367188 6.785156 -0.269531 6.578125 -0.1875 C 6.378906 -0.113281 6.164062 -0.0507812 5.9375 0 C 5.707031 0.0507812 5.46875 0.09375 5.21875 0.125 C 4.96875 0.15625 4.726562 0.171875 4.5 0.171875 C 3.8125 0.171875 3.222656 0.078125 2.734375 -0.109375 C 2.253906 -0.296875 1.859375 -0.566406 1.546875 -0.921875 C 1.242188 -1.285156 1.019531 -1.722656 0.875 -2.234375 C 0.726562 -2.753906 0.65625 -3.34375 0.65625 -4 C 0.65625 -4.707031 0.75 -5.316406 0.9375 -5.828125 C 1.125 -6.347656 1.382812 -6.773438 1.71875 -7.109375 C 2.0625 -7.441406 2.460938 -7.6875 2.921875 -7.84375 C 3.378906 -8 3.882812 -8.078125 4.4375 -8.078125 C 4.894531 -8.078125 5.332031 -8.050781 5.75 -8 C 6.175781 -7.945312 6.566406 -7.882812 6.921875 -7.8125 L 6.921875 -5.625 L 6.453125 -5.625 L 6.09375 -7.015625 C 5.882812 -7.128906 5.632812 -7.222656 5.34375 -7.296875 C 5.050781 -7.367188 4.742188 -7.40625 4.421875 -7.40625 C 4.054688 -7.40625 3.734375 -7.335938 3.453125 -7.203125 C 3.179688 -7.078125 2.945312 -6.875 2.75 -6.59375 C 2.5625 -6.3125 2.414062 -5.957031 2.3125 -5.53125 C 2.21875 -5.101562 2.171875 -4.59375 2.171875 -4 C 2.171875 -3.488281 2.210938 -3.03125 2.296875 -2.625 C 2.378906 -2.226562 2.523438 -1.882812 2.734375 -1.59375 C 2.953125 -1.3125 3.238281 -1.09375 3.59375 -0.9375 C 3.957031 -0.78125 4.421875 -0.703125 4.984375 -0.703125 C 5.171875 -0.703125 5.363281 -0.707031 5.5625 -0.71875 C 5.757812 -0.738281 5.953125 -0.757812 6.140625 -0.78125 C 6.328125 -0.800781 6.503906 -0.828125 6.671875 -0.859375 C 6.835938 -0.898438 6.984375 -0.941406 7.109375 -0.984375 Z M 7.109375 -0.484375"/></g><g id="f"><path d="M 3.90625 -8.046875 C 4.269531 -8.046875 4.601562 -8.007812 4.90625 -7.9375 C 5.21875 -7.875 5.484375 -7.757812 5.703125 -7.59375 C 5.929688 -7.4375 6.109375 -7.21875 6.234375 -6.9375 C 6.359375 -6.664062 6.421875 -6.320312 6.421875 -5.90625 L 6.421875 -0.578125 L 7.40625 -0.375 L 7.40625 0 L 5.234375 0 L 5.078125 -0.78125 C 4.992188 -0.695312 4.878906 -0.597656 4.734375 -0.484375 C 4.585938 -0.378906 4.414062 -0.273438 4.21875 -0.171875 C 4.019531 -0.078125 3.785156 0 3.515625 0.0625 C 3.253906 0.132812 2.957031 0.171875 2.625 0.171875 C 2.25 0.171875 1.929688 0.113281 1.671875 0 C 1.410156 -0.125 1.203125 -0.289062 1.046875 -0.5 C 0.890625 -0.707031 0.773438 -0.953125 0.703125 -1.234375 C 0.640625 -1.523438 0.609375 -1.835938 0.609375 -2.171875 C 0.609375 -2.515625 0.648438 -2.8125 0.734375 -3.0625 C 0.816406 -3.320312 0.929688 -3.535156 1.078125 -3.703125 C 1.234375 -3.878906 1.410156 -4.019531 1.609375 -4.125 C 1.816406 -4.238281 2.039062 -4.328125 2.28125 -4.390625 C 2.519531 -4.453125 2.769531 -4.492188 3.03125 -4.515625 C 3.300781 -4.535156 3.570312 -4.550781 3.84375 -4.5625 L 5.03125 -4.59375 L 5.03125 -5.828125 C 5.03125 -6.054688 5.007812 -6.265625 4.96875 -6.453125 C 4.925781 -6.648438 4.859375 -6.816406 4.765625 -6.953125 C 4.671875 -7.097656 4.546875 -7.207031 4.390625 -7.28125 C 4.234375 -7.363281 4.039062 -7.40625 3.8125 -7.40625 C 3.539062 -7.40625 3.265625 -7.367188 2.984375 -7.296875 C 2.710938 -7.222656 2.472656 -7.128906 2.265625 -7.015625 L 1.984375 -6.03125 L 1.515625 -6.03125 L 1.515625 -7.75 C 1.878906 -7.832031 2.253906 -7.898438 2.640625 -7.953125 C 3.035156 -8.015625 3.457031 -8.046875 3.90625 -8.046875 Z M 5.03125 -4.015625 L 3.921875 -3.96875 C 3.597656 -3.957031 3.3125 -3.925781 3.0625 -3.875 C 2.820312 -3.820312 2.625 -3.734375 2.46875 -3.609375 C 2.3125 -3.484375 2.191406 -3.304688 2.109375 -3.078125 C 2.035156 -2.859375 2 -2.570312 2 -2.21875 C 2 -1.238281 2.398438 -0.75 3.203125 -0.75 C 3.585938 -0.75 3.914062 -0.789062 4.1875 -0.875 C 4.46875 -0.96875 4.75 -1.082031 5.03125 -1.21875 Z M 5.03125 -4.015625"/></g><g id="g"><path d="M 5.578125 -8.078125 L 5.578125 -5.953125 L 5.21875 -5.953125 L 4.734375 -6.875 C 4.578125 -6.875 4.40625 -6.859375 4.21875 -6.828125 C 4.039062 -6.804688 3.863281 -6.78125 3.6875 -6.75 C 3.507812 -6.71875 3.335938 -6.675781 3.171875 -6.625 C 3.003906 -6.570312 2.859375 -6.519531 2.734375 -6.46875 L 2.734375 -0.578125 L 4.09375 -0.375 L 4.09375 0 L 0.34375 0 L 0.34375 -0.375 L 1.34375 -0.578125 L 1.34375 -7.28125 L 0.34375 -7.484375 L 0.34375 -7.875 L 2.640625 -7.875 L 2.71875 -6.890625 C 2.851562 -6.992188 3.03125 -7.113281 3.25 -7.25 C 3.476562 -7.382812 3.722656 -7.515625 3.984375 -7.640625 C 4.242188 -7.765625 4.503906 -7.867188 4.765625 -7.953125 C 5.023438 -8.035156 5.253906 -8.078125 5.453125 -8.078125 Z M 5.578125 -8.078125"/></g><clipPath id="a"><path d="M 0.496094 0 L 164.503906 0 L 164.503906 82.003906 L 0.496094 82.003906 Z M 0.496094 0"/></clipPath></defs><g clip-path="url(#a)" fill="#FFF"><path d="M 0.496094 0 L 164.503906 0 L 164.503906 89.457031 L 0.496094 89.457031 Z M 0.496094 0"/><path d="M 0.496094 0 L 164.503906 0 L 164.503906 82.003906 L 0.496094 82.003906 Z M 0.496094 0"/><path d="M 0.496094 0 L 164.503906 0 L 164.503906 82.003906 L 0.496094 82.003906 Z M 0.496094 0"/></g><path fill="#676C72" d="M 116.675781 35.859375 L 117.015625 35.761719 C 117.128906 35.726562 117.242188 35.695312 117.355469 35.664062 C 117.414062 35.652344 117.46875 35.632812 117.527344 35.621094 L 117.703125 35.585938 L 117.726562 35.582031 L 117.75 35.582031 C 117.765625 35.582031 117.78125 35.578125 117.796875 35.578125 C 117.828125 35.578125 117.859375 35.578125 117.886719 35.582031 C 117.949219 35.585938 118.007812 35.589844 118.066406 35.59375 C 118.183594 35.601562 118.300781 35.609375 118.417969 35.617188 C 118.476562 35.617188 118.535156 35.621094 118.59375 35.621094 C 118.652344 35.625 118.707031 35.621094 118.765625 35.621094 C 118.824219 35.617188 118.882812 35.617188 118.9375 35.609375 C 118.96875 35.605469 118.996094 35.601562 119.023438 35.597656 L 119.109375 35.582031 C 119.136719 35.582031 119.164062 35.570312 119.191406 35.5625 C 119.21875 35.558594 119.242188 35.550781 119.269531 35.539062 C 119.292969 35.527344 119.320312 35.523438 119.34375 35.507812 L 119.414062 35.46875 L 119.429688 35.460938 L 119.445312 35.460938 C 119.484375 35.457031 119.519531 35.453125 119.554688 35.449219 C 119.59375 35.441406 119.628906 35.4375 119.667969 35.429688 C 119.742188 35.417969 119.8125 35.40625 119.886719 35.386719 C 120.035156 35.355469 120.179688 35.316406 120.324219 35.273438 C 120.359375 35.265625 120.394531 35.25 120.433594 35.242188 C 120.46875 35.230469 120.503906 35.21875 120.539062 35.207031 C 120.609375 35.179688 120.679688 35.15625 120.75 35.125 C 120.78125 35.113281 120.816406 35.097656 120.851562 35.082031 C 120.882812 35.066406 120.917969 35.054688 120.949219 35.035156 C 120.984375 35.019531 121.015625 35.003906 121.042969 34.984375 C 121.074219 34.964844 121.101562 34.945312 121.128906 34.925781 L 121.148438 34.910156 L 121.167969 34.90625 L 121.664062 34.8125 C 121.707031 34.804688 121.746094 34.796875 121.785156 34.785156 L 121.902344 34.757812 C 121.921875 34.75 121.945312 34.746094 121.960938 34.738281 L 122.019531 34.71875 L 122.132812 34.679688 L 122.167969 34.667969 L 122.203125 34.675781 L 122.308594 34.707031 C 122.34375 34.71875 122.378906 34.730469 122.414062 34.738281 C 122.488281 34.753906 122.558594 34.769531 122.632812 34.785156 L 122.859375 34.832031 C 122.933594 34.847656 123.007812 34.863281 123.082031 34.882812 C 123.15625 34.898438 123.234375 34.914062 123.308594 34.9375 L 123.421875 34.96875 C 123.457031 34.980469 123.496094 34.988281 123.53125 35.003906 L 123.644531 35.042969 C 123.679688 35.058594 123.71875 35.070312 123.753906 35.085938 L 123.972656 35.191406 L 123.917969 35.175781 C 123.980469 35.171875 124.042969 35.167969 124.109375 35.152344 C 124.171875 35.140625 124.238281 35.121094 124.304688 35.101562 C 124.371094 35.078125 124.433594 35.058594 124.5 35.03125 C 124.5625 35.007812 124.628906 34.980469 124.691406 34.953125 C 124.949219 34.839844 125.199219 34.707031 125.449219 34.574219 C 125.695312 34.433594 125.941406 34.289062 126.179688 34.140625 C 126.300781 34.0625 126.417969 33.988281 126.535156 33.910156 C 126.59375 33.871094 126.652344 33.828125 126.710938 33.789062 C 126.765625 33.75 126.828125 33.707031 126.871094 33.667969 L 126.890625 33.652344 L 126.910156 33.644531 C 127.019531 33.613281 127.125 33.578125 127.238281 33.550781 L 127.40625 33.515625 C 127.464844 33.503906 127.519531 33.496094 127.574219 33.488281 L 127.75 33.453125 L 127.757812 33.453125 C 127.757812 33.453125 127.765625 33.449219 127.753906 33.453125 L 127.765625 33.453125 C 127.777344 33.449219 127.792969 33.441406 127.800781 33.4375 C 127.808594 33.433594 127.8125 33.433594 127.820312 33.429688 C 127.828125 33.425781 127.835938 33.417969 127.84375 33.414062 C 127.902344 33.371094 127.945312 33.253906 128.042969 33.160156 C 128.089844 33.113281 128.148438 33.074219 128.207031 33.050781 C 128.238281 33.035156 128.269531 33.027344 128.296875 33.019531 L 128.332031 33.007812 L 128.351562 33.007812 L 128.390625 33 C 128.535156 32.992188 128.644531 33.023438 128.757812 33.058594 C 128.980469 33.128906 129.179688 33.230469 129.378906 33.328125 C 129.480469 33.378906 129.578125 33.429688 129.675781 33.464844 L 129.710938 33.480469 L 129.746094 33.488281 L 129.753906 33.492188 L 129.757812 33.492188 C 129.746094 33.492188 129.753906 33.492188 129.753906 33.492188 L 129.757812 33.492188 L 129.78125 33.496094 C 129.792969 33.496094 129.808594 33.5 129.816406 33.496094 L 129.847656 33.496094 C 129.859375 33.492188 129.875 33.492188 129.886719 33.488281 L 129.96875 33.480469 C 130.082031 33.464844 130.199219 33.457031 130.316406 33.464844 C 130.375 33.46875 130.433594 33.472656 130.488281 33.488281 C 130.546875 33.5 130.601562 33.515625 130.65625 33.535156 L 130.699219 33.550781 L 130.738281 33.566406 L 130.816406 33.601562 C 130.871094 33.625 130.917969 33.65625 130.96875 33.683594 C 130.992188 33.699219 131.015625 33.714844 131.039062 33.730469 L 131.109375 33.777344 C 131.132812 33.796875 131.15625 33.808594 131.179688 33.828125 L 131.246094 33.882812 C 131.289062 33.917969 131.332031 33.953125 131.375 33.992188 L 131.496094 34.109375 C 131.574219 34.1875 131.648438 34.273438 131.722656 34.355469 L 131.699219 34.339844 C 131.71875 34.34375 131.734375 34.347656 131.746094 34.34375 C 131.753906 34.339844 131.765625 34.332031 131.777344 34.316406 C 131.789062 34.300781 131.804688 34.277344 131.832031 34.257812 C 131.855469 34.234375 131.890625 34.222656 131.917969 34.222656 L 131.945312 34.222656 C 131.949219 34.226562 131.953125 34.226562 131.960938 34.226562 C 131.976562 34.230469 131.996094 34.238281 132.007812 34.242188 C 132.035156 34.253906 132.054688 34.273438 132.074219 34.289062 C 132.109375 34.320312 132.140625 34.355469 132.175781 34.382812 C 132.191406 34.398438 132.207031 34.410156 132.226562 34.417969 C 132.242188 34.429688 132.257812 34.4375 132.277344 34.4375 C 132.285156 34.441406 132.292969 34.441406 132.300781 34.4375 L 132.3125 34.4375 L 132.332031 34.433594 C 132.355469 34.429688 132.375 34.425781 132.398438 34.421875 C 132.421875 34.414062 132.445312 34.410156 132.46875 34.40625 C 132.492188 34.402344 132.519531 34.398438 132.546875 34.398438 L 132.585938 34.402344 C 132.601562 34.40625 132.613281 34.410156 132.625 34.414062 C 132.652344 34.421875 132.671875 34.433594 132.695312 34.445312 L 132.703125 34.445312 L 132.707031 34.453125 C 132.746094 34.5 132.765625 34.574219 132.785156 34.582031 C 132.785156 34.582031 132.789062 34.582031 132.792969 34.585938 L 132.796875 34.585938 C 132.789062 34.585938 132.792969 34.585938 132.792969 34.585938 L 132.796875 34.585938 L 132.808594 34.589844 C 132.824219 34.59375 132.828125 34.589844 132.839844 34.589844 C 132.863281 34.589844 132.890625 34.589844 132.921875 34.589844 C 132.976562 34.585938 133.039062 34.597656 133.089844 34.617188 L 133.113281 34.625 L 133.117188 34.628906 C 133.121094 34.628906 133.117188 34.628906 133.121094 34.628906 L 133.125 34.632812 L 133.132812 34.636719 L 133.167969 34.65625 C 133.195312 34.675781 133.222656 34.695312 133.238281 34.71875 C 133.257812 34.742188 133.273438 34.765625 133.289062 34.785156 C 133.296875 34.792969 133.304688 34.804688 133.3125 34.808594 L 133.320312 34.816406 C 133.324219 34.816406 133.328125 34.820312 133.332031 34.820312 L 133.339844 34.824219 C 133.335938 34.824219 133.339844 34.824219 133.339844 34.824219 L 133.34375 34.824219 L 133.363281 34.828125 C 133.378906 34.832031 133.386719 34.828125 133.398438 34.832031 C 133.421875 34.832031 133.453125 34.828125 133.480469 34.832031 C 133.539062 34.835938 133.597656 34.851562 133.648438 34.878906 L 133.6875 34.898438 L 133.722656 34.921875 L 133.761719 34.945312 C 133.765625 34.945312 133.761719 34.945312 133.769531 34.953125 L 133.777344 34.957031 L 133.792969 34.972656 C 133.8125 34.984375 133.835938 35.015625 133.855469 35.035156 C 133.871094 35.058594 133.886719 35.082031 133.902344 35.105469 C 133.933594 35.148438 133.960938 35.195312 133.988281 35.242188 C 134.039062 35.335938 134.09375 35.425781 134.15625 35.511719 C 134.21875 35.59375 134.289062 35.667969 134.371094 35.734375 C 134.453125 35.796875 134.542969 35.839844 134.640625 35.890625 C 134.832031 35.992188 135.019531 36.09375 135.210938 36.191406 C 135.402344 36.289062 135.59375 36.386719 135.785156 36.472656 C 135.882812 36.519531 135.980469 36.5625 136.078125 36.597656 L 136.152344 36.621094 C 136.175781 36.625 136.199219 36.632812 136.222656 36.632812 L 136.261719 36.640625 L 136.296875 36.640625 C 136.320312 36.640625 136.347656 36.640625 136.371094 36.640625 C 136.472656 36.632812 136.574219 36.613281 136.679688 36.589844 L 136.835938 36.558594 C 136.863281 36.550781 136.894531 36.546875 136.921875 36.542969 C 136.9375 36.542969 136.953125 36.539062 136.972656 36.539062 C 136.980469 36.539062 136.988281 36.539062 137 36.539062 C 137.011719 36.542969 137.023438 36.542969 137.035156 36.546875 L 137.039062 36.546875 L 137.042969 36.550781 C 137.054688 36.558594 137.0625 36.5625 137.074219 36.570312 L 137.09375 36.585938 L 137.125 36.613281 C 137.144531 36.632812 137.167969 36.648438 137.1875 36.660156 C 137.207031 36.671875 137.226562 36.679688 137.242188 36.683594 C 137.246094 36.683594 137.25 36.683594 137.25 36.683594 C 137.25 36.6875 137.261719 36.6875 137.246094 36.6875 L 137.25 36.683594 L 137.261719 36.683594 C 137.277344 36.683594 137.292969 36.679688 137.300781 36.675781 L 137.328125 36.667969 L 137.371094 36.652344 L 137.453125 36.625 C 137.484375 36.617188 137.511719 36.609375 137.542969 36.601562 C 137.574219 36.597656 137.605469 36.589844 137.636719 36.585938 C 137.667969 36.585938 137.699219 36.582031 137.734375 36.582031 L 137.832031 36.585938 C 137.835938 36.585938 137.828125 36.585938 137.84375 36.589844 L 137.859375 36.589844 L 137.878906 36.597656 L 137.921875 36.605469 C 137.949219 36.609375 137.984375 36.625 138.015625 36.636719 C 138.136719 36.683594 138.234375 36.75 138.328125 36.792969 C 138.351562 36.800781 138.375 36.808594 138.398438 36.816406 L 138.46875 36.828125 L 138.558594 36.839844 L 138.648438 36.859375 C 138.765625 36.882812 138.871094 36.90625 138.980469 36.914062 C 139.007812 36.917969 139.035156 36.917969 139.0625 36.917969 C 139.089844 36.917969 139.117188 36.921875 139.144531 36.917969 L 139.226562 36.917969 L 139.234375 36.914062 L 139.238281 36.914062 C 139.246094 36.914062 139.234375 36.917969 139.238281 36.914062 L 139.261719 36.914062 L 139.304688 36.90625 C 139.328125 36.898438 139.351562 36.894531 139.375 36.886719 C 139.398438 36.878906 139.425781 36.871094 139.449219 36.863281 C 139.503906 36.84375 139.554688 36.824219 139.605469 36.800781 C 139.8125 36.710938 140.015625 36.605469 140.21875 36.5 C 140.320312 36.445312 140.421875 36.390625 140.53125 36.335938 L 140.570312 36.316406 L 140.597656 36.304688 L 140.613281 36.296875 C 140.617188 36.296875 140.609375 36.296875 140.625 36.292969 L 140.632812 36.292969 L 140.675781 36.285156 C 140.691406 36.28125 140.710938 36.277344 140.726562 36.277344 C 140.796875 36.269531 140.851562 36.265625 140.902344 36.261719 C 140.949219 36.253906 140.992188 36.242188 141.023438 36.222656 L 141.035156 36.21875 L 141.039062 36.214844 C 141.023438 36.226562 141.035156 36.21875 141.035156 36.21875 L 141.042969 36.210938 L 141.058594 36.199219 L 141.070312 36.1875 C 141.078125 36.175781 141.082031 36.171875 141.089844 36.160156 L 141.117188 36.132812 C 141.1875 36.046875 141.257812 35.957031 141.328125 35.863281 L 141.539062 35.589844 C 141.574219 35.542969 141.613281 35.496094 141.652344 35.453125 C 141.691406 35.40625 141.726562 35.359375 141.78125 35.3125 C 141.785156 35.304688 141.789062 35.300781 141.800781 35.292969 L 141.828125 35.273438 L 141.84375 35.265625 C 141.847656 35.261719 141.851562 35.261719 141.851562 35.257812 L 141.871094 35.246094 L 141.945312 35.203125 C 142 35.175781 142.054688 35.144531 142.117188 35.121094 C 142.183594 35.097656 142.257812 35.078125 142.339844 35.082031 C 142.359375 35.082031 142.378906 35.085938 142.402344 35.089844 C 142.410156 35.09375 142.421875 35.097656 142.433594 35.101562 L 142.445312 35.105469 L 142.453125 35.105469 L 142.46875 35.113281 C 142.496094 35.128906 142.515625 35.132812 142.5625 35.164062 L 142.589844 35.1875 L 142.628906 35.226562 L 142.644531 35.246094 L 142.667969 35.269531 C 142.675781 35.277344 142.679688 35.277344 142.683594 35.28125 C 142.6875 35.285156 142.691406 35.285156 142.699219 35.289062 C 142.699219 35.289062 142.699219 35.292969 142.707031 35.292969 L 142.71875 35.292969 C 142.726562 35.292969 142.738281 35.296875 142.742188 35.296875 L 142.785156 35.296875 C 142.808594 35.300781 142.824219 35.292969 142.8125 35.296875 C 142.800781 35.304688 142.792969 35.3125 142.792969 35.3125 L 142.816406 35.277344 C 142.820312 35.273438 142.828125 35.261719 142.832031 35.253906 L 142.839844 35.242188 L 142.847656 35.234375 C 142.839844 35.246094 142.847656 35.234375 142.84375 35.238281 L 142.859375 35.21875 L 142.867188 35.203125 L 142.890625 35.167969 C 142.902344 35.152344 142.914062 35.140625 142.925781 35.128906 C 142.945312 35.113281 142.964844 35.101562 142.984375 35.09375 C 143.003906 35.089844 143.019531 35.085938 143.035156 35.082031 L 143.074219 35.082031 L 143.109375 35.085938 L 143.136719 35.089844 L 143.164062 35.097656 L 143.167969 35.097656 C 143.171875 35.097656 143.167969 35.097656 143.179688 35.101562 L 143.191406 35.101562 C 143.199219 35.105469 143.203125 35.105469 143.214844 35.109375 L 143.242188 35.121094 C 143.28125 35.136719 143.316406 35.15625 143.347656 35.175781 L 143.375 35.195312 C 143.375 35.199219 143.371094 35.195312 143.363281 35.191406 C 143.355469 35.191406 143.339844 35.1875 143.332031 35.191406 C 143.328125 35.191406 143.320312 35.191406 143.316406 35.191406 C 143.316406 35.191406 143.3125 35.195312 143.3125 35.195312 C 143.296875 35.207031 143.308594 35.195312 143.308594 35.199219 L 143.316406 35.191406 C 143.320312 35.1875 143.316406 35.191406 143.316406 35.191406 C 143.3125 35.191406 143.3125 35.195312 143.3125 35.195312 C 143.304688 35.203125 143.304688 35.199219 143.304688 35.203125 C 143.304688 35.203125 143.308594 35.199219 143.3125 35.183594 C 143.316406 35.171875 143.324219 35.140625 143.351562 35.109375 C 143.375 35.078125 143.414062 35.054688 143.445312 35.042969 C 143.457031 35.039062 143.472656 35.035156 143.484375 35.03125 L 143.519531 35.027344 L 143.558594 35.027344 C 143.597656 35.03125 143.570312 35.027344 143.582031 35.027344 L 143.59375 35.03125 C 143.601562 35.03125 143.601562 35.03125 143.621094 35.039062 C 143.640625 35.042969 143.65625 35.046875 143.671875 35.054688 C 143.71875 35.082031 143.742188 35.105469 143.769531 35.128906 C 143.796875 35.152344 143.820312 35.175781 143.839844 35.199219 C 143.882812 35.246094 143.917969 35.292969 143.957031 35.335938 C 143.992188 35.378906 144.027344 35.421875 144.0625 35.460938 C 144.070312 35.46875 144.078125 35.476562 144.085938 35.484375 C 144.097656 35.492188 144.105469 35.5 144.113281 35.507812 C 144.121094 35.511719 144.128906 35.519531 144.132812 35.523438 C 144.136719 35.523438 144.140625 35.527344 144.140625 35.527344 C 144.144531 35.53125 144.144531 35.527344 144.144531 35.527344 C 144.144531 35.527344 144.144531 35.53125 144.148438 35.53125 C 144.148438 35.53125 144.140625 35.527344 144.152344 35.53125 L 144.15625 35.535156 L 144.179688 35.539062 L 144.21875 35.550781 L 144.304688 35.574219 C 144.359375 35.589844 144.417969 35.609375 144.472656 35.628906 C 144.589844 35.667969 144.695312 35.707031 144.804688 35.742188 L 145.132812 35.859375 L 145.144531 35.863281 L 145.160156 35.867188 L 145.179688 35.878906 L 145.21875 35.894531 C 145.230469 35.898438 145.25 35.910156 145.265625 35.917969 L 145.316406 35.945312 C 145.378906 35.988281 145.4375 36.035156 145.476562 36.097656 C 145.519531 36.152344 145.550781 36.214844 145.578125 36.265625 C 145.601562 36.320312 145.625 36.355469 145.636719 36.359375 C 145.648438 36.367188 145.667969 36.378906 145.710938 36.375 L 145.71875 36.375 C 145.722656 36.375 145.71875 36.375 145.71875 36.375 L 145.726562 36.375 L 145.746094 36.371094 C 145.761719 36.371094 145.777344 36.367188 145.789062 36.367188 C 145.808594 36.363281 145.832031 36.359375 145.855469 36.355469 C 145.875 36.347656 145.894531 36.34375 145.910156 36.335938 C 145.921875 36.328125 145.925781 36.324219 145.960938 36.296875 C 145.980469 36.285156 146.011719 36.265625 146.046875 36.257812 C 146.0625 36.253906 146.078125 36.253906 146.089844 36.25 C 146.105469 36.25 146.117188 36.25 146.128906 36.25 C 146.140625 36.25 146.148438 36.253906 146.160156 36.253906 L 146.179688 36.253906 L 146.222656 36.261719 C 146.25 36.261719 146.261719 36.261719 146.285156 36.257812 C 146.308594 36.257812 146.332031 36.253906 146.359375 36.25 C 146.386719 36.246094 146.414062 36.242188 146.449219 36.234375 C 146.464844 36.234375 146.480469 36.230469 146.5 36.230469 L 146.527344 36.230469 L 146.542969 36.226562 C 146.570312 36.230469 146.554688 36.230469 146.5625 36.230469 L 146.578125 36.230469 C 146.585938 36.230469 146.597656 36.234375 146.609375 36.238281 C 146.632812 36.242188 146.648438 36.253906 146.664062 36.261719 C 146.679688 36.269531 146.695312 36.28125 146.707031 36.292969 C 146.714844 36.304688 146.726562 36.316406 146.734375 36.324219 C 146.761719 36.367188 146.773438 36.394531 146.785156 36.414062 C 146.796875 36.433594 146.804688 36.441406 146.808594 36.445312 C 146.816406 36.449219 146.8125 36.449219 146.847656 36.460938 C 146.902344 36.480469 146.957031 36.503906 147.011719 36.523438 L 147.09375 36.558594 L 147.179688 36.597656 C 147.234375 36.625 147.289062 36.648438 147.339844 36.683594 L 147.417969 36.730469 L 147.457031 36.757812 L 147.476562 36.769531 L 147.484375 36.773438 C 147.480469 36.769531 147.492188 36.777344 147.492188 36.777344 L 147.5 36.785156 C 147.546875 36.824219 147.589844 36.855469 147.640625 36.902344 C 147.664062 36.925781 147.6875 36.945312 147.707031 36.96875 L 147.769531 37.035156 C 147.851562 37.125 147.925781 37.21875 148 37.308594 L 148.105469 37.445312 C 148.121094 37.46875 148.136719 37.484375 148.15625 37.507812 C 148.160156 37.515625 148.171875 37.527344 148.183594 37.535156 L 148.210938 37.566406 C 148.367188 37.730469 148.53125 37.890625 148.695312 38.046875 C 148.863281 38.203125 149.035156 38.351562 149.214844 38.480469 C 149.257812 38.511719 149.304688 38.542969 149.347656 38.5625 C 149.371094 38.578125 149.386719 38.578125 149.402344 38.585938 L 149.40625 38.585938 C 149.40625 38.589844 149.40625 38.585938 149.410156 38.589844 L 149.421875 38.589844 L 149.441406 38.59375 L 149.484375 38.605469 L 149.824219 38.675781 L 151.179688 38.964844 L 151.859375 39.105469 C 152.085938 39.152344 152.308594 39.195312 152.535156 39.234375 C 152.648438 39.25 152.761719 39.269531 152.875 39.277344 C 152.929688 39.285156 152.984375 39.285156 153.039062 39.285156 L 153.089844 39.289062 L 153.175781 39.296875 C 153.191406 39.296875 153.207031 39.300781 153.21875 39.304688 C 153.347656 39.324219 153.453125 39.351562 153.570312 39.378906 C 153.683594 39.410156 153.792969 39.4375 153.90625 39.46875 C 154.351562 39.589844 154.792969 39.730469 155.234375 39.871094 C 155.675781 40.011719 156.117188 40.152344 156.550781 40.320312 L 156.539062 40.34375 C 156.324219 40.265625 156.097656 40.203125 155.878906 40.136719 C 155.65625 40.074219 155.433594 40.007812 155.210938 39.949219 C 154.765625 39.824219 154.320312 39.703125 153.875 39.59375 C 153.761719 39.5625 153.648438 39.539062 153.539062 39.511719 C 153.425781 39.488281 153.308594 39.464844 153.207031 39.449219 C 153.195312 39.449219 153.179688 39.445312 153.167969 39.441406 L 153.125 39.441406 L 153.082031 39.4375 L 153.074219 39.4375 C 153.074219 39.4375 153.085938 39.4375 153.078125 39.4375 L 153.042969 39.4375 C 152.980469 39.4375 152.921875 39.4375 152.863281 39.433594 C 152.742188 39.425781 152.628906 39.410156 152.511719 39.394531 C 152.28125 39.363281 152.050781 39.324219 151.824219 39.285156 L 151.484375 39.222656 L 151.140625 39.15625 L 149.78125 38.890625 L 149.4375 38.824219 L 149.398438 38.816406 L 149.375 38.8125 L 149.363281 38.8125 C 149.363281 38.8125 149.359375 38.808594 149.355469 38.808594 L 149.351562 38.808594 C 149.3125 38.796875 149.273438 38.785156 149.246094 38.765625 C 149.183594 38.738281 149.132812 38.703125 149.082031 38.671875 C 148.882812 38.535156 148.707031 38.382812 148.53125 38.226562 C 148.359375 38.066406 148.191406 37.910156 148.023438 37.742188 L 147.992188 37.707031 C 147.984375 37.695312 147.976562 37.691406 147.964844 37.675781 C 147.941406 37.652344 147.921875 37.625 147.902344 37.601562 L 147.796875 37.46875 C 147.726562 37.378906 147.652344 37.289062 147.578125 37.210938 L 147.523438 37.148438 C 147.503906 37.132812 147.484375 37.117188 147.46875 37.097656 C 147.433594 37.0625 147.382812 37.027344 147.339844 36.992188 L 147.332031 36.984375 C 147.328125 36.984375 147.339844 36.992188 147.332031 36.984375 L 147.328125 36.984375 L 147.3125 36.972656 L 147.277344 36.953125 L 147.207031 36.910156 C 147.164062 36.878906 147.113281 36.859375 147.0625 36.835938 L 146.992188 36.800781 L 146.914062 36.769531 C 146.859375 36.75 146.808594 36.730469 146.753906 36.710938 C 146.734375 36.703125 146.675781 36.683594 146.636719 36.648438 C 146.597656 36.617188 146.570312 36.578125 146.554688 36.546875 C 146.535156 36.515625 146.523438 36.492188 146.519531 36.484375 C 146.515625 36.484375 146.515625 36.484375 146.519531 36.484375 C 146.519531 36.488281 146.523438 36.488281 146.523438 36.492188 C 146.527344 36.492188 146.53125 36.496094 146.539062 36.496094 C 146.542969 36.5 146.550781 36.5 146.550781 36.5 L 146.542969 36.496094 L 146.535156 36.496094 C 146.539062 36.496094 146.519531 36.496094 146.542969 36.496094 L 146.535156 36.496094 L 146.519531 36.5 C 146.511719 36.5 146.5 36.5 146.488281 36.503906 C 146.464844 36.507812 146.4375 36.511719 146.40625 36.515625 C 146.375 36.523438 146.339844 36.527344 146.304688 36.53125 C 146.273438 36.535156 146.226562 36.53125 146.195312 36.53125 L 146.117188 36.519531 C 146.117188 36.523438 146.113281 36.519531 146.113281 36.519531 C 146.113281 36.523438 146.109375 36.519531 146.113281 36.519531 C 146.117188 36.519531 146.125 36.515625 146.121094 36.519531 C 146.109375 36.527344 146.066406 36.558594 146.03125 36.578125 C 145.992188 36.597656 145.957031 36.605469 145.921875 36.617188 C 145.886719 36.625 145.851562 36.632812 145.820312 36.636719 C 145.800781 36.636719 145.789062 36.640625 145.773438 36.640625 L 145.75 36.644531 L 145.746094 36.644531 C 145.746094 36.644531 145.734375 36.644531 145.738281 36.644531 L 145.664062 36.644531 C 145.644531 36.644531 145.621094 36.636719 145.601562 36.632812 C 145.558594 36.625 145.507812 36.605469 145.46875 36.574219 C 145.449219 36.558594 145.433594 36.542969 145.417969 36.523438 C 145.402344 36.507812 145.394531 36.492188 145.382812 36.472656 C 145.371094 36.457031 145.363281 36.441406 145.355469 36.425781 L 145.332031 36.386719 C 145.308594 36.332031 145.285156 36.292969 145.261719 36.257812 C 145.238281 36.222656 145.203125 36.195312 145.171875 36.171875 C 145.160156 36.167969 145.152344 36.164062 145.144531 36.15625 C 145.136719 36.152344 145.132812 36.148438 145.117188 36.140625 L 145.074219 36.125 L 145.054688 36.117188 C 145.058594 36.117188 145.042969 36.113281 145.058594 36.117188 L 145.054688 36.117188 L 145.042969 36.113281 L 144.714844 35.996094 C 144.609375 35.960938 144.496094 35.917969 144.390625 35.882812 C 144.339844 35.867188 144.289062 35.847656 144.234375 35.832031 L 144.148438 35.804688 L 144.109375 35.792969 L 144.085938 35.789062 L 144.082031 35.789062 C 144.089844 35.789062 144.078125 35.785156 144.078125 35.785156 L 144.058594 35.777344 C 144.046875 35.773438 144.03125 35.769531 144.023438 35.761719 L 143.992188 35.746094 C 143.972656 35.734375 143.960938 35.722656 143.945312 35.710938 C 143.929688 35.699219 143.917969 35.6875 143.90625 35.675781 C 143.890625 35.664062 143.878906 35.652344 143.871094 35.640625 C 143.824219 35.59375 143.789062 35.546875 143.75 35.5 C 143.714844 35.457031 143.679688 35.410156 143.644531 35.371094 C 143.628906 35.351562 143.609375 35.335938 143.59375 35.320312 C 143.578125 35.304688 143.558594 35.289062 143.554688 35.289062 C 143.558594 35.289062 143.5625 35.289062 143.566406 35.289062 C 143.566406 35.289062 143.5625 35.285156 143.5625 35.285156 L 143.550781 35.285156 L 143.542969 35.28125 C 143.550781 35.285156 143.519531 35.28125 143.558594 35.285156 L 143.539062 35.285156 C 143.539062 35.285156 143.535156 35.285156 143.53125 35.285156 C 143.535156 35.285156 143.546875 35.277344 143.554688 35.269531 C 143.558594 35.257812 143.558594 35.257812 143.554688 35.269531 C 143.550781 35.28125 143.542969 35.304688 143.527344 35.332031 C 143.519531 35.34375 143.511719 35.355469 143.496094 35.375 L 143.484375 35.382812 C 143.480469 35.386719 143.476562 35.390625 143.476562 35.390625 L 143.464844 35.398438 C 143.460938 35.402344 143.472656 35.394531 143.453125 35.410156 L 143.445312 35.414062 C 143.4375 35.417969 143.433594 35.421875 143.425781 35.425781 C 143.417969 35.429688 143.40625 35.429688 143.398438 35.433594 C 143.390625 35.4375 143.375 35.441406 143.367188 35.441406 C 143.339844 35.445312 143.3125 35.445312 143.289062 35.4375 C 143.265625 35.429688 143.25 35.417969 143.238281 35.414062 C 143.21875 35.398438 143.207031 35.390625 143.199219 35.382812 C 143.179688 35.371094 143.167969 35.363281 143.148438 35.355469 L 143.140625 35.351562 C 143.136719 35.351562 143.125 35.347656 143.121094 35.347656 L 143.109375 35.34375 C 143.117188 35.34375 143.109375 35.34375 143.109375 35.34375 L 143.105469 35.34375 L 143.074219 35.335938 C 143.070312 35.335938 143.066406 35.335938 143.0625 35.335938 L 143.058594 35.335938 L 143.058594 35.332031 L 143.0625 35.335938 C 143.0625 35.335938 143.066406 35.332031 143.070312 35.332031 C 143.078125 35.328125 143.085938 35.324219 143.089844 35.320312 C 143.09375 35.316406 143.097656 35.316406 143.097656 35.3125 L 143.074219 35.347656 C 143.070312 35.355469 143.0625 35.363281 143.058594 35.367188 L 143.046875 35.386719 L 143.039062 35.398438 L 143.035156 35.402344 C 143.03125 35.40625 143.03125 35.40625 143.027344 35.414062 L 143.003906 35.453125 C 143 35.457031 142.996094 35.464844 142.988281 35.472656 C 142.984375 35.476562 142.976562 35.484375 142.96875 35.492188 C 142.957031 35.503906 142.9375 35.515625 142.921875 35.523438 C 142.855469 35.550781 142.8125 35.546875 142.777344 35.546875 L 142.734375 35.542969 C 142.710938 35.542969 142.691406 35.539062 142.671875 35.535156 L 142.640625 35.53125 C 142.632812 35.527344 142.621094 35.523438 142.609375 35.519531 C 142.585938 35.511719 142.566406 35.503906 142.546875 35.488281 C 142.527344 35.472656 142.507812 35.457031 142.496094 35.445312 L 142.472656 35.421875 L 142.460938 35.40625 L 142.425781 35.371094 C 142.421875 35.367188 142.421875 35.367188 142.417969 35.367188 C 142.421875 35.359375 142.386719 35.34375 142.359375 35.332031 C 142.363281 35.335938 142.347656 35.328125 142.367188 35.335938 L 142.363281 35.335938 L 142.359375 35.332031 C 142.355469 35.332031 142.351562 35.328125 142.347656 35.328125 C 142.339844 35.328125 142.332031 35.324219 142.324219 35.324219 C 142.289062 35.324219 142.25 35.332031 142.203125 35.347656 C 142.160156 35.363281 142.113281 35.386719 142.066406 35.414062 L 141.988281 35.457031 L 141.96875 35.46875 C 141.96875 35.46875 141.964844 35.472656 141.960938 35.472656 L 141.957031 35.476562 C 141.957031 35.476562 141.953125 35.480469 141.953125 35.480469 C 141.949219 35.480469 141.945312 35.488281 141.941406 35.492188 C 141.90625 35.519531 141.867188 35.5625 141.832031 35.605469 C 141.796875 35.648438 141.761719 35.691406 141.726562 35.734375 L 141.511719 36.007812 C 141.441406 36.097656 141.371094 36.1875 141.292969 36.28125 L 141.261719 36.316406 C 141.253906 36.324219 141.238281 36.339844 141.226562 36.355469 L 141.207031 36.375 L 141.1875 36.386719 L 141.179688 36.394531 C 141.175781 36.398438 141.183594 36.390625 141.167969 36.402344 L 141.164062 36.40625 L 141.136719 36.421875 C 141.101562 36.445312 141.066406 36.453125 141.03125 36.464844 C 140.996094 36.472656 140.960938 36.480469 140.929688 36.484375 C 140.863281 36.492188 140.804688 36.492188 140.757812 36.496094 C 140.746094 36.496094 140.738281 36.496094 140.722656 36.5 L 140.683594 36.507812 L 140.675781 36.511719 C 140.6875 36.507812 140.679688 36.511719 140.679688 36.507812 L 140.671875 36.511719 L 140.660156 36.515625 L 140.625 36.535156 C 140.527344 36.582031 140.421875 36.636719 140.320312 36.6875 C 140.113281 36.792969 139.902344 36.898438 139.683594 36.988281 C 139.628906 37.011719 139.574219 37.03125 139.515625 37.050781 C 139.488281 37.058594 139.460938 37.070312 139.429688 37.078125 C 139.394531 37.085938 139.359375 37.09375 139.332031 37.101562 L 139.289062 37.105469 L 139.265625 37.109375 C 139.265625 37.109375 139.25 37.113281 139.253906 37.109375 L 139.25 37.113281 L 139.144531 37.113281 C 139.113281 37.117188 139.082031 37.113281 139.054688 37.113281 C 139.023438 37.109375 138.992188 37.109375 138.960938 37.105469 C 138.839844 37.09375 138.71875 37.0625 138.609375 37.039062 L 138.53125 37.023438 L 138.449219 37.007812 C 138.414062 37.003906 138.382812 36.996094 138.347656 36.988281 C 138.320312 36.976562 138.285156 36.964844 138.257812 36.953125 C 138.140625 36.898438 138.046875 36.832031 137.953125 36.792969 L 137.921875 36.777344 C 137.910156 36.773438 137.898438 36.769531 137.886719 36.765625 L 137.84375 36.757812 L 137.820312 36.75 L 137.8125 36.75 L 137.804688 36.746094 C 137.816406 36.75 137.804688 36.75 137.808594 36.75 L 137.730469 36.742188 C 137.707031 36.742188 137.679688 36.746094 137.65625 36.746094 C 137.628906 36.746094 137.601562 36.753906 137.578125 36.757812 C 137.550781 36.761719 137.523438 36.769531 137.5 36.777344 L 137.417969 36.800781 L 137.375 36.8125 C 137.359375 36.816406 137.339844 36.824219 137.320312 36.828125 C 137.300781 36.832031 137.289062 36.832031 137.273438 36.835938 L 137.257812 36.835938 C 137.238281 36.835938 137.246094 36.835938 137.242188 36.835938 L 137.210938 36.828125 C 137.167969 36.820312 137.136719 36.800781 137.105469 36.785156 C 137.078125 36.765625 137.054688 36.742188 137.03125 36.722656 L 137 36.695312 L 136.984375 36.683594 C 136.980469 36.683594 136.980469 36.679688 136.976562 36.679688 L 136.988281 36.683594 C 136.984375 36.683594 136.984375 36.683594 136.984375 36.683594 C 136.980469 36.679688 136.972656 36.679688 136.96875 36.679688 C 136.960938 36.679688 136.949219 36.683594 136.9375 36.683594 C 136.914062 36.683594 136.890625 36.6875 136.863281 36.695312 L 136.707031 36.722656 C 136.601562 36.746094 136.492188 36.761719 136.378906 36.769531 C 136.347656 36.769531 136.320312 36.769531 136.289062 36.765625 L 136.246094 36.765625 L 136.203125 36.757812 C 136.171875 36.753906 136.144531 36.746094 136.117188 36.738281 L 136.039062 36.710938 C 135.933594 36.671875 135.835938 36.625 135.738281 36.578125 C 135.347656 36.390625 134.976562 36.175781 134.597656 35.972656 C 134.550781 35.945312 134.503906 35.925781 134.453125 35.894531 C 134.429688 35.882812 134.40625 35.867188 134.382812 35.851562 L 134.316406 35.804688 C 134.226562 35.734375 134.152344 35.652344 134.085938 35.5625 C 134.019531 35.472656 133.964844 35.378906 133.914062 35.285156 C 133.886719 35.238281 133.859375 35.191406 133.832031 35.148438 C 133.820312 35.125 133.804688 35.105469 133.789062 35.085938 C 133.78125 35.078125 133.773438 35.070312 133.765625 35.058594 L 133.753906 35.046875 L 133.738281 35.035156 C 133.664062 34.972656 133.570312 34.917969 133.476562 34.910156 C 133.449219 34.910156 133.425781 34.910156 133.398438 34.910156 C 133.382812 34.910156 133.363281 34.910156 133.351562 34.90625 L 133.332031 34.902344 L 133.320312 34.902344 L 133.316406 34.898438 L 133.304688 34.894531 L 133.28125 34.882812 C 133.273438 34.878906 133.265625 34.871094 133.257812 34.867188 C 133.246094 34.855469 133.238281 34.84375 133.226562 34.832031 C 133.210938 34.808594 133.195312 34.785156 133.179688 34.769531 C 133.164062 34.75 133.148438 34.738281 133.132812 34.722656 L 133.097656 34.703125 L 133.085938 34.699219 L 133.085938 34.695312 C 133.089844 34.699219 133.085938 34.695312 133.085938 34.699219 L 133.082031 34.695312 L 133.066406 34.691406 C 133.019531 34.671875 132.972656 34.664062 132.921875 34.664062 C 132.894531 34.664062 132.867188 34.667969 132.839844 34.667969 C 132.824219 34.667969 132.804688 34.667969 132.792969 34.664062 L 132.78125 34.664062 L 132.777344 34.660156 L 132.765625 34.660156 C 132.757812 34.65625 132.75 34.652344 132.742188 34.644531 C 132.722656 34.632812 132.710938 34.617188 132.703125 34.605469 C 132.691406 34.589844 132.6875 34.574219 132.683594 34.5625 C 132.671875 34.539062 132.660156 34.523438 132.644531 34.503906 L 132.660156 34.515625 C 132.640625 34.507812 132.621094 34.496094 132.601562 34.488281 C 132.589844 34.488281 132.582031 34.484375 132.570312 34.480469 L 132.542969 34.480469 C 132.523438 34.480469 132.503906 34.480469 132.480469 34.484375 C 132.460938 34.488281 132.4375 34.492188 132.414062 34.5 C 132.390625 34.503906 132.371094 34.507812 132.347656 34.515625 L 132.328125 34.515625 L 132.324219 34.519531 L 132.308594 34.519531 C 132.292969 34.523438 132.277344 34.519531 132.265625 34.519531 C 132.234375 34.515625 132.207031 34.503906 132.183594 34.488281 C 132.160156 34.476562 132.140625 34.460938 132.121094 34.445312 C 132.085938 34.414062 132.050781 34.378906 132.019531 34.351562 C 132.003906 34.339844 131.988281 34.324219 131.96875 34.316406 C 131.960938 34.3125 131.957031 34.3125 131.949219 34.308594 C 131.945312 34.308594 131.941406 34.308594 131.933594 34.308594 L 131.925781 34.308594 C 131.929688 34.308594 131.921875 34.308594 131.929688 34.308594 L 131.925781 34.308594 C 131.90625 34.308594 131.894531 34.3125 131.882812 34.324219 C 131.871094 34.332031 131.863281 34.347656 131.847656 34.367188 C 131.832031 34.386719 131.808594 34.417969 131.773438 34.425781 C 131.738281 34.4375 131.707031 34.433594 131.679688 34.429688 L 131.667969 34.425781 L 131.65625 34.414062 C 131.582031 34.335938 131.507812 34.25 131.429688 34.175781 L 131.308594 34.0625 C 131.269531 34.027344 131.222656 33.996094 131.183594 33.960938 L 131.117188 33.910156 C 131.097656 33.890625 131.074219 33.878906 131.050781 33.863281 L 130.984375 33.816406 C 130.960938 33.800781 130.9375 33.789062 130.914062 33.777344 C 130.867188 33.75 130.820312 33.722656 130.769531 33.703125 L 130.695312 33.671875 L 130.660156 33.65625 L 130.621094 33.644531 C 130.570312 33.628906 130.519531 33.613281 130.464844 33.605469 C 130.414062 33.59375 130.359375 33.59375 130.308594 33.585938 C 130.203125 33.582031 130.097656 33.59375 129.988281 33.613281 L 129.90625 33.625 C 129.890625 33.625 129.878906 33.628906 129.863281 33.628906 L 129.8125 33.632812 C 129.792969 33.636719 129.78125 33.632812 129.765625 33.632812 L 129.738281 33.632812 L 129.730469 33.628906 L 129.726562 33.628906 L 129.714844 33.625 L 129.667969 33.613281 L 129.628906 33.601562 C 129.515625 33.558594 129.417969 33.511719 129.3125 33.464844 C 129.113281 33.375 128.914062 33.277344 128.707031 33.21875 C 128.609375 33.1875 128.5 33.167969 128.417969 33.175781 L 128.375 33.183594 L 128.359375 33.183594 C 128.355469 33.1875 128.371094 33.183594 128.363281 33.183594 L 128.347656 33.1875 C 128.324219 33.195312 128.300781 33.203125 128.28125 33.214844 C 128.238281 33.234375 128.203125 33.257812 128.175781 33.289062 C 128.144531 33.320312 128.117188 33.359375 128.089844 33.410156 C 128.058594 33.453125 128.023438 33.511719 127.96875 33.5625 C 127.953125 33.574219 127.9375 33.582031 127.921875 33.59375 C 127.90625 33.605469 127.886719 33.613281 127.867188 33.625 C 127.851562 33.628906 127.839844 33.632812 127.824219 33.636719 L 127.808594 33.644531 L 127.796875 33.644531 L 127.777344 33.652344 C 127.722656 33.664062 127.664062 33.675781 127.609375 33.6875 C 127.554688 33.695312 127.5 33.707031 127.445312 33.71875 L 127.289062 33.753906 C 127.183594 33.78125 127.082031 33.816406 126.980469 33.847656 L 127.015625 33.828125 C 126.953125 33.882812 126.898438 33.921875 126.835938 33.964844 C 126.777344 34.007812 126.71875 34.050781 126.660156 34.089844 C 126.542969 34.171875 126.421875 34.253906 126.300781 34.328125 C 126.058594 34.484375 125.8125 34.628906 125.558594 34.769531 C 125.433594 34.839844 125.304688 34.910156 125.175781 34.972656 C 125.046875 35.039062 124.914062 35.101562 124.78125 35.15625 C 124.714844 35.1875 124.648438 35.214844 124.578125 35.238281 C 124.511719 35.265625 124.441406 35.289062 124.371094 35.3125 C 124.296875 35.332031 124.226562 35.351562 124.152344 35.367188 C 124.078125 35.382812 124 35.390625 123.917969 35.394531 L 123.894531 35.394531 L 123.863281 35.378906 L 123.667969 35.285156 C 123.636719 35.269531 123.601562 35.257812 123.566406 35.246094 L 123.464844 35.207031 C 123.429688 35.195312 123.394531 35.183594 123.359375 35.175781 L 123.25 35.140625 C 123.179688 35.121094 123.105469 35.105469 123.035156 35.085938 C 122.960938 35.066406 122.886719 35.050781 122.8125 35.035156 L 122.589844 34.984375 C 122.515625 34.96875 122.441406 34.949219 122.363281 34.929688 C 122.328125 34.921875 122.289062 34.910156 122.25 34.898438 L 122.136719 34.863281 L 122.207031 34.863281 L 122.082031 34.902344 L 122.019531 34.925781 C 122 34.933594 121.976562 34.9375 121.957031 34.941406 L 121.828125 34.972656 C 121.785156 34.984375 121.742188 34.988281 121.699219 35 C 121.53125 35.027344 121.367188 35.054688 121.199219 35.082031 L 121.238281 35.066406 C 121.207031 35.089844 121.171875 35.117188 121.132812 35.132812 C 121.097656 35.15625 121.0625 35.171875 121.027344 35.191406 C 120.992188 35.207031 120.953125 35.222656 120.917969 35.238281 C 120.882812 35.253906 120.847656 35.269531 120.808594 35.28125 C 120.738281 35.308594 120.664062 35.335938 120.589844 35.359375 C 120.554688 35.371094 120.515625 35.382812 120.480469 35.390625 C 120.441406 35.402344 120.40625 35.414062 120.367188 35.425781 C 120.21875 35.464844 120.070312 35.5 119.917969 35.53125 C 119.839844 35.542969 119.765625 35.558594 119.6875 35.570312 C 119.648438 35.574219 119.609375 35.578125 119.570312 35.582031 C 119.535156 35.589844 119.492188 35.589844 119.453125 35.59375 L 119.488281 35.582031 L 119.402344 35.628906 C 119.371094 35.640625 119.339844 35.648438 119.3125 35.660156 C 119.28125 35.671875 119.25 35.679688 119.222656 35.6875 C 119.191406 35.695312 119.160156 35.703125 119.132812 35.707031 L 119.039062 35.71875 C 119.007812 35.722656 118.980469 35.726562 118.949219 35.726562 C 118.886719 35.734375 118.828125 35.730469 118.769531 35.734375 C 118.707031 35.734375 118.648438 35.734375 118.589844 35.730469 C 118.527344 35.726562 118.46875 35.722656 118.410156 35.714844 C 118.292969 35.707031 118.175781 35.691406 118.058594 35.679688 C 118 35.671875 117.941406 35.667969 117.882812 35.660156 C 117.851562 35.660156 117.824219 35.65625 117.796875 35.65625 C 117.785156 35.65625 117.769531 35.65625 117.753906 35.65625 L 117.734375 35.65625 L 117.710938 35.660156 L 117.539062 35.6875 C 117.484375 35.695312 117.425781 35.710938 117.367188 35.722656 C 117.253906 35.75 117.140625 35.773438 117.023438 35.804688 L 116.679688 35.882812 Z M 116.675781 35.859375"/><path fill="#676C72" d="M 50.972656 55.078125 C 50.015625 54.53125 49.257812 53.773438 48.695312 52.8125 C 48.136719 51.851562 47.855469 50.789062 47.855469 49.625 C 47.855469 48.464844 48.136719 47.402344 48.695312 46.441406 C 49.257812 45.480469 50.015625 44.722656 50.972656 44.175781 C 51.925781 43.628906 52.96875 43.355469 54.105469 43.355469 C 54.992188 43.355469 55.824219 43.511719 56.605469 43.824219 C 57.386719 44.136719 58.03125 44.578125 58.535156 45.148438 L 57.507812 46.171875 C 57.125 45.703125 56.636719 45.339844 56.042969 45.089844 C 55.445312 44.839844 54.804688 44.710938 54.121094 44.710938 C 53.265625 44.710938 52.472656 44.917969 51.738281 45.324219 C 51 45.734375 50.410156 46.308594 49.96875 47.050781 C 49.523438 47.796875 49.304688 48.652344 49.304688 49.625 C 49.304688 50.597656 49.523438 51.457031 49.96875 52.199219 C 50.410156 52.945312 51.003906 53.519531 51.746094 53.929688 C 52.488281 54.335938 53.277344 54.539062 54.121094 54.539062 C 54.929688 54.539062 55.605469 54.414062 56.152344 54.164062 C 56.695312 53.910156 57.164062 53.578125 57.558594 53.164062 C 57.851562 52.851562 58.085938 52.476562 58.265625 52.03125 C 58.445312 51.589844 58.558594 51.101562 58.601562 50.566406 L 54.136719 50.566406 L 54.136719 49.242188 L 59.933594 49.242188 C 59.988281 49.554688 60.015625 49.84375 60.015625 50.113281 C 60.015625 50.851562 59.898438 51.570312 59.664062 52.269531 C 59.429688 52.96875 59.050781 53.578125 58.535156 54.105469 C 57.421875 55.300781 55.945312 55.898438 54.105469 55.898438 C 52.96875 55.898438 51.925781 55.625 50.972656 55.078125"/><path fill="#676C72" d="M 61.804688 43.621094 L 65.441406 43.621094 C 66.675781 43.621094 67.753906 43.878906 68.675781 44.386719 C 69.597656 44.894531 70.304688 45.601562 70.796875 46.507812 C 71.292969 47.414062 71.539062 48.453125 71.539062 49.625 C 71.539062 50.800781 71.292969 51.839844 70.796875 52.746094 C 70.304688 53.652344 69.597656 54.359375 68.675781 54.867188 C 67.753906 55.375 66.675781 55.628906 65.441406 55.628906 L 61.804688 55.628906 Z M 65.441406 54.273438 C 66.867188 54.273438 68 53.863281 68.835938 53.046875 C 69.671875 52.230469 70.089844 51.089844 70.089844 49.625 C 70.089844 48.164062 69.671875 47.023438 68.835938 46.207031 C 68 45.390625 66.867188 44.980469 65.441406 44.980469 L 63.21875 44.980469 L 63.21875 54.273438 Z M 65.441406 54.273438"/><path fill="#676C72" d="M 75.835938 55.078125 C 74.882812 54.53125 74.121094 53.773438 73.5625 52.8125 C 73 51.851562 72.71875 50.789062 72.71875 49.625 C 72.71875 48.464844 73 47.402344 73.5625 46.441406 C 74.121094 45.480469 74.882812 44.722656 75.835938 44.175781 C 76.789062 43.628906 77.835938 43.355469 78.96875 43.355469 C 79.855469 43.355469 80.691406 43.511719 81.472656 43.824219 C 82.25 44.136719 82.894531 44.578125 83.398438 45.148438 L 82.371094 46.171875 C 81.988281 45.703125 81.5 45.339844 80.90625 45.089844 C 80.3125 44.839844 79.671875 44.710938 78.984375 44.710938 C 78.132812 44.710938 77.335938 44.917969 76.601562 45.324219 C 75.867188 45.734375 75.277344 46.308594 74.832031 47.050781 C 74.390625 47.796875 74.167969 48.652344 74.167969 49.625 C 74.167969 50.597656 74.390625 51.457031 74.832031 52.199219 C 75.277344 52.945312 75.871094 53.519531 76.609375 53.929688 C 77.351562 54.335938 78.144531 54.539062 78.984375 54.539062 C 79.792969 54.539062 80.472656 54.414062 81.015625 54.164062 C 81.558594 53.910156 82.03125 53.578125 82.421875 53.164062 C 82.714844 52.851562 82.949219 52.476562 83.128906 52.03125 C 83.308594 51.589844 83.421875 51.101562 83.46875 50.566406 L 79.003906 50.566406 L 79.003906 49.242188 L 84.796875 49.242188 C 84.855469 49.554688 84.882812 49.84375 84.882812 50.113281 C 84.882812 50.851562 84.765625 51.570312 84.527344 52.269531 C 84.292969 52.96875 83.917969 53.578125 83.398438 54.105469 C 82.289062 55.300781 80.8125 55.898438 78.96875 55.898438 C 77.835938 55.898438 76.789062 55.625 75.835938 55.078125"/><path fill="#EA4335" d="M 14.074219 49.644531 L 19.625 46.453125 C 20.929688 45.703125 21.378906 44.039062 20.625 42.738281 C 19.871094 41.4375 18.199219 40.992188 16.894531 41.746094 L 7.300781 47.257812 Z M 14.074219 49.644531"/><path fill="#4285F4" d="M 18.257812 57.847656 C 19.199219 57.847656 20.117188 57.359375 20.625 56.488281 C 21.378906 55.1875 20.929688 53.523438 19.625 52.773438 L 10.03125 47.257812 C 8.726562 46.507812 7.054688 46.953125 6.300781 48.253906 C 5.546875 49.554688 5.992188 51.21875 7.300781 51.96875 L 16.894531 57.484375 C 17.324219 57.730469 17.792969 57.847656 18.257812 57.847656"/><path fill="#FBBC04" d="M 27.800781 57.847656 C 28.261719 57.847656 28.734375 57.730469 29.164062 57.484375 L 38.757812 51.96875 L 32.070312 49.53125 L 26.429688 52.773438 C 25.125 53.523438 24.675781 55.1875 25.429688 56.488281 C 25.9375 57.359375 26.855469 57.847656 27.800781 57.847656"/><path fill="#0F9D58" d="M 37.386719 52.332031 C 38.332031 52.332031 39.25 51.847656 39.757812 50.972656 C 40.511719 49.671875 40.0625 48.007812 38.757812 47.257812 L 29.164062 41.746094 C 27.855469 40.992188 26.1875 41.4375 25.429688 42.738281 C 24.675781 44.039062 25.125 45.703125 26.429688 46.453125 L 36.023438 51.96875 C 36.453125 52.214844 36.925781 52.332031 37.386719 52.332031"/><g fill="#676C72"><use x="93.785" y="55.642" xmlns:xlink="http://www.w3.org/1999/xlink" xlink:href="#b" xlink:type="simple" xlink:actuate="onLoad" xlink:show="embed"/></g><g fill="#676C72"><use x="102.894" y="55.642" xmlns:xlink="http://www.w3.org/1999/xlink" xlink:href="#c" xlink:type="simple" xlink:actuate="onLoad" xlink:show="embed"/></g><g fill="#676C72"><use x="112.21" y="55.642" xmlns:xlink="http://www.w3.org/1999/xlink" xlink:href="#d" xlink:type="simple" xlink:actuate="onLoad" xlink:show="embed"/></g><g fill="#676C72"><use x="120.13" y="55.642" xmlns:xlink="http://www.w3.org/1999/xlink" xlink:href="#e" xlink:type="simple" xlink:actuate="onLoad" xlink:show="embed"/></g><g fill="#676C72"><use x="129.033" y="55.642" xmlns:xlink="http://www.w3.org/1999/xlink" xlink:href="#f" xlink:type="simple" xlink:actuate="onLoad" xlink:show="embed"/></g><g fill="#676C72"><use x="137.815" y="55.642" xmlns:xlink="http://www.w3.org/1999/xlink" xlink:href="#g" xlink:type="simple" xlink:actuate="onLoad" xlink:show="embed"/></g><g fill="#676C72"><use x="143.721" y="55.642" xmlns:xlink="http://www.w3.org/1999/xlink" xlink:href="#f" xlink:type="simple" xlink:actuate="onLoad" xlink:show="embed"/></g><path fill="#0F9D58" d="M 151.1875 43.359375 C 151.1875 43.359375 151.1875 43.34375 151.183594 43.308594 C 151.179688 43.273438 151.179688 43.222656 151.167969 43.160156 C 151.152344 43.035156 151.113281 42.847656 151.011719 42.628906 C 150.914062 42.410156 150.753906 42.164062 150.527344 41.914062 C 150.300781 41.667969 150.011719 41.417969 149.664062 41.1875 C 149.496094 41.066406 149.308594 40.953125 149.113281 40.84375 C 148.917969 40.734375 148.710938 40.628906 148.496094 40.527344 C 148.0625 40.320312 147.597656 40.128906 147.101562 39.957031 C 146.609375 39.785156 146.09375 39.628906 145.5625 39.484375 C 145.03125 39.34375 144.488281 39.214844 143.941406 39.105469 C 143.394531 38.996094 142.84375 38.898438 142.296875 38.824219 C 141.753906 38.746094 141.214844 38.679688 140.695312 38.617188 C 140.175781 38.554688 139.671875 38.496094 139.195312 38.441406 C 138.957031 38.414062 138.726562 38.390625 138.5 38.367188 C 138.273438 38.339844 138.058594 38.320312 137.847656 38.300781 C 137.429688 38.261719 137.046875 38.222656 136.703125 38.191406 C 136.363281 38.160156 136.066406 38.132812 135.820312 38.113281 C 135.574219 38.089844 135.382812 38.070312 135.25 38.058594 C 135.121094 38.046875 135.050781 38.039062 135.050781 38.039062 L 135.050781 37.988281 C 135.050781 37.988281 135.121094 37.980469 135.25 37.96875 C 135.382812 37.957031 135.578125 37.941406 135.824219 37.925781 C 135.949219 37.921875 136.085938 37.914062 136.234375 37.90625 C 136.382812 37.902344 136.542969 37.898438 136.714844 37.890625 C 136.886719 37.886719 137.070312 37.886719 137.261719 37.882812 C 137.457031 37.882812 137.660156 37.882812 137.871094 37.890625 C 138.082031 37.894531 138.304688 37.898438 138.53125 37.90625 C 138.761719 37.917969 138.996094 37.929688 139.238281 37.945312 C 139.726562 37.972656 140.234375 38.023438 140.761719 38.085938 C 141.289062 38.15625 141.832031 38.242188 142.378906 38.347656 C 142.925781 38.453125 143.480469 38.570312 144.03125 38.703125 C 144.582031 38.832031 145.128906 38.976562 145.664062 39.140625 C 146.195312 39.300781 146.714844 39.480469 147.210938 39.675781 C 147.457031 39.773438 147.699219 39.875 147.929688 39.980469 C 148.164062 40.085938 148.390625 40.195312 148.605469 40.308594 C 148.820312 40.421875 149.027344 40.542969 149.222656 40.664062 C 149.417969 40.785156 149.601562 40.910156 149.773438 41.035156 C 150.117188 41.292969 150.40625 41.558594 150.628906 41.828125 C 150.851562 42.09375 151.007812 42.359375 151.097656 42.59375 C 151.1875 42.828125 151.21875 43.023438 151.230469 43.15625 C 151.238281 43.222656 151.238281 43.273438 151.238281 43.308594 C 151.238281 43.339844 151.238281 43.359375 151.238281 43.359375 Z M 151.1875 43.359375"/><path fill="#0F9D58" d="M 104.597656 43.359375 C 104.597656 43.359375 104.601562 43.328125 104.605469 43.269531 C 104.605469 43.253906 104.605469 43.238281 104.605469 43.21875 C 104.609375 43.199219 104.613281 43.179688 104.617188 43.15625 C 104.625 43.132812 104.628906 43.109375 104.632812 43.085938 C 104.636719 43.058594 104.648438 43.035156 104.65625 43.003906 C 104.691406 42.890625 104.761719 42.761719 104.855469 42.621094 C 104.953125 42.484375 105.085938 42.339844 105.25 42.195312 C 105.410156 42.050781 105.605469 41.910156 105.828125 41.773438 C 105.9375 41.703125 106.054688 41.636719 106.179688 41.566406 C 106.300781 41.5 106.429688 41.429688 106.566406 41.367188 C 106.835938 41.234375 107.128906 41.105469 107.441406 40.980469 C 107.757812 40.855469 108.089844 40.734375 108.441406 40.617188 C 108.789062 40.5 109.15625 40.386719 109.539062 40.277344 C 109.921875 40.167969 110.320312 40.0625 110.730469 39.960938 C 111.550781 39.753906 112.425781 39.566406 113.332031 39.394531 C 115.144531 39.046875 117.089844 38.757812 119.042969 38.523438 C 120.019531 38.40625 121 38.300781 121.960938 38.207031 C 122.925781 38.109375 123.875 38.03125 124.796875 37.972656 C 125.714844 37.914062 126.605469 37.871094 127.453125 37.847656 C 127.875 37.835938 128.285156 37.828125 128.683594 37.816406 C 129.078125 37.8125 129.464844 37.808594 129.832031 37.804688 C 130.570312 37.796875 131.246094 37.804688 131.84375 37.8125 C 132.445312 37.820312 132.964844 37.835938 133.394531 37.851562 C 133.824219 37.867188 134.164062 37.878906 134.394531 37.894531 C 134.625 37.90625 134.746094 37.910156 134.746094 37.910156 L 134.746094 37.964844 C 134.746094 37.964844 134.625 37.96875 134.394531 37.984375 C 134.164062 37.996094 133.828125 38.011719 133.398438 38.035156 C 132.539062 38.078125 131.316406 38.140625 129.84375 38.214844 C 129.476562 38.234375 129.09375 38.257812 128.699219 38.277344 C 128.304688 38.300781 127.894531 38.324219 127.472656 38.347656 C 126.632812 38.398438 125.746094 38.449219 124.828125 38.507812 C 123.914062 38.5625 122.964844 38.621094 122.003906 38.6875 C 121.039062 38.753906 120.0625 38.835938 119.089844 38.933594 C 117.140625 39.128906 115.195312 39.378906 113.382812 39.6875 C 112.480469 39.84375 111.609375 40.011719 110.789062 40.195312 C 110.378906 40.289062 109.980469 40.382812 109.597656 40.484375 C 109.214844 40.582031 108.847656 40.6875 108.496094 40.792969 C 108.144531 40.898438 107.8125 41.011719 107.5 41.128906 C 107.1875 41.242188 106.894531 41.363281 106.625 41.484375 C 106.488281 41.546875 106.359375 41.613281 106.234375 41.671875 C 106.113281 41.738281 105.996094 41.800781 105.886719 41.867188 C 105.664062 42 105.46875 42.128906 105.308594 42.265625 C 105.148438 42.402344 105.011719 42.535156 104.914062 42.667969 C 104.820312 42.796875 104.75 42.917969 104.714844 43.027344 C 104.707031 43.050781 104.695312 43.074219 104.691406 43.101562 C 104.683594 43.125 104.679688 43.144531 104.675781 43.164062 C 104.671875 43.1875 104.667969 43.203125 104.664062 43.222656 C 104.660156 43.242188 104.660156 43.257812 104.660156 43.273438 C 104.652344 43.332031 104.652344 43.359375 104.652344 43.359375 Z M 104.597656 43.359375"/><path fill="#FBBC04" d="M 104.59375 43.355469 C 104.59375 43.355469 104.597656 43.328125 104.601562 43.269531 C 104.601562 43.238281 104.613281 43.203125 104.621094 43.15625 C 104.628906 43.109375 104.652344 43.0625 104.671875 43.007812 C 104.726562 42.902344 104.800781 42.777344 104.917969 42.65625 C 105.035156 42.535156 105.183594 42.410156 105.359375 42.285156 C 105.539062 42.167969 105.742188 42.046875 105.972656 41.929688 C 106.203125 41.8125 106.460938 41.703125 106.738281 41.589844 C 107.289062 41.371094 107.929688 41.164062 108.632812 40.96875 C 108.988281 40.867188 109.355469 40.773438 109.738281 40.679688 C 110.121094 40.589844 110.519531 40.5 110.929688 40.414062 C 111.339844 40.328125 111.761719 40.246094 112.195312 40.167969 C 112.625 40.085938 113.070312 40.011719 113.519531 39.9375 C 115.324219 39.648438 117.257812 39.402344 119.195312 39.203125 C 120.160156 39.101562 121.132812 39.011719 122.085938 38.929688 C 123.042969 38.84375 123.984375 38.777344 124.894531 38.726562 C 125.804688 38.679688 126.6875 38.644531 127.523438 38.632812 C 127.941406 38.625 128.347656 38.617188 128.742188 38.609375 C 129.136719 38.609375 129.515625 38.609375 129.882812 38.609375 C 130.246094 38.605469 130.597656 38.613281 130.929688 38.617188 C 131.261719 38.621094 131.578125 38.621094 131.875 38.632812 C 132.171875 38.640625 132.449219 38.648438 132.703125 38.65625 C 132.960938 38.664062 133.195312 38.675781 133.410156 38.683594 C 133.835938 38.703125 134.167969 38.71875 134.398438 38.734375 C 134.625 38.746094 134.746094 38.753906 134.746094 38.753906 L 134.746094 38.8125 C 134.746094 38.8125 134.625 38.820312 134.398438 38.835938 C 134.285156 38.84375 134.144531 38.851562 133.976562 38.863281 C 133.8125 38.871094 133.625 38.882812 133.410156 38.894531 C 132.984375 38.917969 132.46875 38.945312 131.878906 38.976562 C 131.289062 39.007812 130.621094 39.042969 129.894531 39.078125 C 128.441406 39.15625 126.742188 39.246094 124.925781 39.339844 C 124.019531 39.386719 123.078125 39.433594 122.125 39.480469 C 121.171875 39.53125 120.203125 39.597656 119.238281 39.671875 C 117.304688 39.828125 115.371094 40.027344 113.570312 40.277344 C 112.671875 40.402344 111.804688 40.542969 110.984375 40.6875 C 110.574219 40.761719 110.175781 40.839844 109.792969 40.917969 C 109.410156 41 109.039062 41.082031 108.6875 41.171875 C 107.984375 41.34375 107.34375 41.53125 106.792969 41.734375 C 106.515625 41.835938 106.261719 41.9375 106.03125 42.042969 C 105.800781 42.152344 105.59375 42.261719 105.417969 42.375 C 105.242188 42.488281 105.09375 42.601562 104.980469 42.714844 C 104.863281 42.828125 104.789062 42.941406 104.738281 43.039062 C 104.71875 43.089844 104.691406 43.132812 104.6875 43.171875 C 104.675781 43.210938 104.664062 43.242188 104.664062 43.273438 C 104.65625 43.332031 104.65625 43.363281 104.65625 43.363281 Z M 104.59375 43.355469"/><path fill="#FBBC04" d="M 151.1875 43.359375 C 151.1875 43.359375 151.1875 43.34375 151.183594 43.308594 C 151.183594 43.292969 151.183594 43.273438 151.179688 43.25 C 151.179688 43.222656 151.171875 43.195312 151.167969 43.167969 C 151.148438 43.042969 151.097656 42.859375 150.984375 42.65625 C 150.925781 42.554688 150.851562 42.445312 150.761719 42.335938 C 150.667969 42.226562 150.5625 42.117188 150.441406 42.003906 C 150.191406 41.785156 149.886719 41.570312 149.527344 41.371094 C 149.171875 41.171875 148.769531 40.980469 148.332031 40.808594 C 147.898438 40.636719 147.425781 40.472656 146.933594 40.328125 C 146.441406 40.179688 145.929688 40.050781 145.402344 39.929688 C 144.875 39.808594 144.335938 39.703125 143.796875 39.609375 C 143.257812 39.519531 142.714844 39.441406 142.175781 39.375 C 141.640625 39.3125 141.109375 39.257812 140.597656 39.203125 C 140.085938 39.152344 139.59375 39.101562 139.125 39.050781 C 138.886719 39.03125 138.660156 39.007812 138.4375 38.988281 C 138.21875 38.964844 138.003906 38.945312 137.796875 38.929688 C 136.972656 38.859375 136.289062 38.800781 135.808594 38.761719 C 135.566406 38.738281 135.375 38.722656 135.246094 38.710938 C 135.117188 38.699219 135.050781 38.691406 135.050781 38.691406 L 135.050781 38.644531 C 135.050781 38.644531 135.117188 38.636719 135.25 38.628906 C 135.378906 38.617188 135.566406 38.601562 135.808594 38.585938 C 135.929688 38.582031 136.066406 38.574219 136.210938 38.566406 C 136.355469 38.5625 136.515625 38.558594 136.683594 38.550781 C 136.851562 38.546875 137.03125 38.546875 137.222656 38.542969 C 137.316406 38.542969 137.414062 38.542969 137.511719 38.542969 C 137.613281 38.542969 137.714844 38.542969 137.816406 38.542969 C 138.023438 38.546875 138.242188 38.550781 138.464844 38.558594 C 138.691406 38.566406 138.921875 38.574219 139.160156 38.585938 C 139.636719 38.609375 140.136719 38.652344 140.652344 38.707031 C 141.171875 38.761719 141.703125 38.839844 142.242188 38.929688 C 142.78125 39.019531 143.328125 39.117188 143.871094 39.230469 C 144.414062 39.34375 144.953125 39.464844 145.484375 39.601562 C 146.011719 39.738281 146.527344 39.890625 147.023438 40.058594 C 147.515625 40.226562 147.988281 40.402344 148.421875 40.597656 C 148.859375 40.792969 149.261719 41.003906 149.617188 41.222656 C 149.972656 41.445312 150.28125 41.679688 150.527344 41.914062 C 150.648438 42.035156 150.753906 42.152344 150.84375 42.273438 C 150.933594 42.390625 151.003906 42.507812 151.058594 42.617188 C 151.167969 42.835938 151.210938 43.027344 151.226562 43.160156 C 151.230469 43.191406 151.234375 43.222656 151.234375 43.246094 C 151.234375 43.269531 151.234375 43.292969 151.234375 43.308594 C 151.238281 43.339844 151.238281 43.359375 151.238281 43.359375 Z M 151.1875 43.359375"/><path fill="#4285F4" d="M 137.292969 25.648438 L 148.167969 39.683594 L 137.15625 25.753906 Z M 137.292969 25.648438"/><path fill="#4285F4" d="M 137.308594 26.703125 L 141.101562 37.9375 L 137.144531 26.757812 Z M 137.308594 26.703125"/><path fill="#4285F4" d="M 135.09375 25.777344 L 111.636719 39.167969 L 135.007812 25.628906 Z M 135.09375 25.777344"/><path fill="#EA4335" d="M 134.464844 43.351562 C 134.464844 43.351562 134.46875 43.011719 134.476562 42.414062 C 134.484375 42.117188 134.492188 41.757812 134.5 41.34375 C 134.511719 40.929688 134.519531 40.460938 134.535156 39.953125 C 134.550781 39.441406 134.570312 38.890625 134.585938 38.308594 C 134.605469 37.722656 134.625 37.109375 134.648438 36.472656 C 134.671875 35.835938 134.695312 35.175781 134.726562 34.507812 C 134.753906 33.839844 134.789062 33.164062 134.820312 32.484375 C 134.855469 31.808594 134.871094 31.128906 134.882812 30.457031 C 134.890625 30.125 134.894531 29.792969 134.910156 29.464844 C 134.921875 29.136719 134.941406 28.8125 134.96875 28.496094 C 135.019531 27.863281 135.101562 27.253906 135.195312 26.675781 C 135.242188 26.386719 135.292969 26.105469 135.34375 25.835938 C 135.398438 25.566406 135.445312 25.304688 135.5 25.054688 C 135.605469 24.550781 135.714844 24.09375 135.820312 23.6875 C 135.925781 23.28125 136.03125 22.929688 136.121094 22.640625 C 136.304688 22.0625 136.441406 21.734375 136.441406 21.734375 L 136.621094 21.75 C 136.621094 21.75 136.699219 22.097656 136.769531 22.699219 C 136.808594 23 136.847656 23.367188 136.878906 23.785156 C 136.910156 24.203125 136.933594 24.671875 136.945312 25.183594 C 136.957031 25.441406 136.953125 25.707031 136.957031 25.984375 C 136.957031 26.257812 136.957031 26.542969 136.949219 26.835938 C 136.9375 27.417969 136.90625 28.035156 136.84375 28.667969 C 136.8125 28.984375 136.773438 29.304688 136.726562 29.628906 C 136.679688 29.953125 136.625 30.28125 136.574219 30.609375 C 136.464844 31.273438 136.355469 31.941406 136.261719 32.617188 C 136.171875 33.289062 136.082031 33.960938 135.988281 34.625 C 135.898438 35.285156 135.804688 35.9375 135.710938 36.566406 C 135.617188 37.199219 135.527344 37.804688 135.4375 38.382812 C 135.351562 38.960938 135.265625 39.507812 135.1875 40.011719 C 135.113281 40.515625 135.035156 40.976562 134.972656 41.386719 C 134.90625 41.792969 134.847656 42.152344 134.796875 42.445312 C 134.699219 43.03125 134.644531 43.367188 134.644531 43.367188 Z M 134.464844 43.351562"/><path fill="#4285F4" d="M 134.605469 27.660156 L 120.425781 37.9375 L 134.503906 27.519531 Z M 134.605469 27.660156"/><path fill="#4285F4" d="M 134.625 29.523438 L 129.039062 37.453125 L 134.484375 29.425781 Z M 134.625 29.523438"/></svg>