<?xml version="1.0" encoding="UTF-8"?>
<svg xmlns="http://www.w3.org/2000/svg" xmlns:xlink="http://www.w3.org/1999/xlink" width="165pt" height="82.499998pt" viewBox="0 0 165 82.499998" version="1.2">
<defs>
<clipPath id="clip1">
  <path d="M 0.496094 0 L 164.503906 0 L 164.503906 82.003906 L 0.496094 82.003906 Z M 0.496094 0 "/>
</clipPath>
</defs>
<g id="surface1">
<g clip-path="url(#clip1)" clip-rule="nonzero">
<path style=" stroke:none;fill-rule:nonzero;fill:rgb(100%,100%,100%);fill-opacity:1;" d="M 0.496094 0 L 164.503906 0 L 164.503906 82.003906 L 0.496094 82.003906 Z M 0.496094 0 "/>
<path style=" stroke:none;fill-rule:nonzero;fill:rgb(100%,100%,100%);fill-opacity:1;" d="M 0.496094 0 L 164.503906 0 L 164.503906 82.003906 L 0.496094 82.003906 Z M 0.496094 0 "/>
</g>
<path style=" stroke:none;fill-rule:nonzero;fill:rgb(25.878906%,52.159119%,95.689392%);fill-opacity:1;" d="M 84.800781 36.667969 C 83.675781 36.738281 82.011719 36.628906 81.308594 35.074219 C 80.734375 33.808594 81.332031 32.429688 81.867188 31.386719 C 82.574219 30 83.335938 28.921875 84.386719 28.09375 C 85.789062 26.996094 87.351562 26.339844 88.90625 25.992188 C 90.464844 25.644531 92.0625 25.726562 93.632812 25.710938 C 96.0625 25.6875 98.492188 25.679688 100.921875 25.738281 C 102.628906 25.78125 105.847656 25.144531 106.476562 28.265625 C 107.160156 31.648438 104.492188 34.363281 102.640625 35.160156 C 101.324219 35.726562 99.960938 35.738281 98.605469 35.820312 L 93.238281 36.148438 C 90.425781 36.324219 87.613281 36.496094 84.800781 36.667969 Z M 84.800781 36.667969 "/>
<path style=" stroke:none;fill-rule:nonzero;fill:rgb(5.879211%,61.569214%,34.509277%);fill-opacity:1;" d="M 117.15625 52.441406 C 115.914062 52.972656 114.375 53.179688 112.992188 53.386719 C 110.644531 53.738281 108.261719 53.957031 105.878906 54.113281 C 99.863281 54.507812 93.742188 54.503906 87.746094 53.921875 C 85.023438 53.65625 81.675781 53.421875 79.199219 52.476562 C 76.886719 51.597656 76.320312 49.617188 76.058594 47.875 C 75.835938 46.445312 75.785156 45.007812 75.90625 43.566406 C 76.011719 42.363281 76.019531 41.015625 77.40625 40.214844 C 78.429688 39.621094 79.625 39.398438 80.871094 39.214844 C 84.84375 38.628906 88.933594 38.402344 92.96875 38.222656 C 97.972656 38.003906 103.015625 37.929688 108.015625 38.199219 C 110.101562 38.308594 112.195312 38.476562 114.238281 38.820312 C 115.714844 39.066406 117.589844 39.347656 118.46875 40.363281 C 119.65625 41.730469 119.644531 43.652344 119.582031 45.21875 C 119.519531 46.78125 119.265625 48.335938 118.90625 49.875 C 118.714844 50.691406 118.226562 51.980469 117.15625 52.4375 C 113.414062 54.042969 117.464844 52.308594 117.15625 52.441406 Z M 117.15625 52.441406 "/>
<path style=" stroke:none;fill-rule:nonzero;fill:rgb(98.429871%,73.728943%,1.568604%);fill-opacity:1;" d="M 50.367188 33.5 C 48.1875 37.234375 46.527344 41.441406 45.449219 45.671875 C 44.816406 47.898438 45.8125 50.316406 47.609375 51.839844 C 49.378906 53.335938 51.835938 53.820312 54.007812 54.242188 C 58.191406 55.058594 62.222656 55.097656 66.382812 54.800781 C 67.972656 54.691406 69.625 54.535156 70.558594 53.113281 C 71.65625 51.445312 70.964844 49.40625 70.066406 47.726562 C 67.324219 42.609375 64.105469 37.8125 60.410156 33.339844 C 58.878906 31.488281 57.125 29.097656 54.46875 29.324219 C 52.230469 29.515625 51.34375 31.824219 50.367188 33.5 Z M 50.367188 33.5 "/>
<path style=" stroke:none;fill-rule:nonzero;fill:rgb(91.758728%,26.269531%,20.779419%);fill-opacity:1;" d="M 74.882812 39.554688 C 76.160156 37.25 77.132812 34.6875 77.765625 32.144531 C 78.136719 30.800781 77.554688 29.425781 76.503906 28.617188 C 75.472656 27.824219 74.035156 27.660156 72.761719 27.519531 C 70.316406 27.246094 67.957031 27.425781 65.523438 27.804688 C 64.59375 27.949219 63.625 28.121094 63.078125 29.003906 C 62.433594 30.042969 62.839844 31.207031 63.363281 32.152344 C 64.957031 35.023438 66.839844 37.6875 69.007812 40.148438 C 69.902344 41.164062 70.929688 42.488281 72.480469 42.222656 C 73.789062 41.996094 74.308594 40.59375 74.882812 39.554688 Z M 74.882812 39.554688 "/>
<path style=" stroke:none;fill-rule:nonzero;fill:rgb(23.139954%,25.489807%,26.269531%);fill-opacity:1;" d="M 50.785156 56.296875 L 47.816406 56.296875 C 47.636719 56.296875 47.464844 56.261719 47.300781 56.191406 C 47.136719 56.125 46.992188 56.027344 46.867188 55.898438 C 46.742188 55.773438 46.644531 55.628906 46.578125 55.460938 C 46.511719 55.296875 46.476562 55.125 46.480469 54.945312 L 46.683594 33.273438 C 46.691406 32.574219 47.230469 31.890625 47.910156 31.71875 L 49.632812 31.289062 C 50.210938 31.144531 51.105469 31.179688 51.671875 31.371094 L 53.363281 31.949219 C 54.015625 32.171875 54.527344 32.886719 54.527344 33.574219 L 54.527344 37.320312 C 54.523438 37.425781 54.484375 37.519531 54.40625 37.59375 C 54.332031 37.667969 54.238281 37.707031 54.128906 37.707031 C 54.023438 37.707031 53.929688 37.667969 53.851562 37.59375 C 53.777344 37.519531 53.734375 37.425781 53.730469 37.320312 L 53.730469 33.578125 C 53.730469 33.226562 53.441406 32.816406 53.109375 32.703125 L 51.414062 32.128906 C 50.996094 31.984375 50.253906 31.953125 49.828125 32.0625 L 48.105469 32.492188 C 47.777344 32.574219 47.484375 32.945312 47.480469 33.285156 L 47.277344 54.957031 C 47.273438 55.105469 47.328125 55.234375 47.433594 55.339844 C 47.539062 55.445312 47.664062 55.5 47.8125 55.5 L 50.785156 55.5 C 50.894531 55.5 50.988281 55.539062 51.066406 55.617188 C 51.144531 55.695312 51.183594 55.789062 51.183594 55.898438 C 51.183594 56.007812 51.144531 56.101562 51.066406 56.179688 C 50.988281 56.257812 50.894531 56.296875 50.785156 56.296875 Z M 50.785156 56.296875 "/>
<path style=" stroke:none;fill-rule:nonzero;fill:rgb(23.139954%,25.489807%,26.269531%);fill-opacity:1;" d="M 79.453125 56.296875 L 75.835938 56.296875 C 75.722656 56.296875 75.628906 56.257812 75.554688 56.179688 C 75.476562 56.101562 75.4375 56.007812 75.4375 55.898438 C 75.4375 55.789062 75.476562 55.695312 75.554688 55.617188 C 75.628906 55.539062 75.722656 55.5 75.835938 55.5 L 79.453125 55.5 C 79.601562 55.5 79.730469 55.445312 79.839844 55.339844 C 79.945312 55.230469 80 55.101562 80 54.953125 L 80 36.007812 C 80 35.65625 79.707031 35.246094 79.375 35.132812 L 77.679688 34.558594 C 77.261719 34.414062 76.523438 34.382812 76.09375 34.492188 L 74.371094 34.921875 C 74.042969 35.003906 73.75 35.375 73.746094 35.714844 L 73.71875 37.398438 C 73.71875 37.507812 73.675781 37.601562 73.597656 37.679688 C 73.519531 37.753906 73.425781 37.792969 73.316406 37.792969 C 73.207031 37.789062 73.113281 37.75 73.035156 37.671875 C 72.957031 37.589844 72.921875 37.496094 72.921875 37.386719 L 72.949219 35.703125 C 72.957031 35.003906 73.496094 34.320312 74.179688 34.148438 L 75.902344 33.71875 C 76.480469 33.574219 77.375 33.609375 77.9375 33.804688 L 79.632812 34.378906 C 80.285156 34.601562 80.796875 35.316406 80.796875 36.007812 L 80.796875 54.953125 C 80.796875 55.128906 80.761719 55.300781 80.695312 55.464844 C 80.625 55.632812 80.527344 55.777344 80.402344 55.902344 C 80.277344 56.027344 80.128906 56.125 79.964844 56.195312 C 79.800781 56.261719 79.628906 56.296875 79.453125 56.296875 Z M 79.453125 56.296875 "/>
<path style=" stroke:none;fill-rule:nonzero;fill:rgb(23.139954%,25.489807%,26.269531%);fill-opacity:1;" d="M 73.148438 56.296875 L 53.183594 56.296875 C 53.074219 56.296875 52.980469 56.257812 52.902344 56.179688 C 52.824219 56.101562 52.785156 56.007812 52.785156 55.898438 C 52.785156 55.789062 52.824219 55.695312 52.902344 55.617188 C 52.980469 55.539062 53.074219 55.5 53.183594 55.5 C 53.335938 55.5 53.464844 55.445312 53.570312 55.339844 C 53.679688 55.230469 53.730469 55.101562 53.730469 54.953125 L 53.730469 39.96875 C 53.730469 39.859375 53.769531 39.761719 53.847656 39.6875 C 53.925781 39.609375 54.019531 39.570312 54.128906 39.570312 L 73.3125 39.570312 C 73.421875 39.570312 73.515625 39.609375 73.59375 39.6875 C 73.671875 39.765625 73.710938 39.859375 73.710938 39.972656 L 73.542969 55.902344 C 73.542969 56.011719 73.503906 56.101562 73.425781 56.179688 C 73.347656 56.257812 73.253906 56.296875 73.148438 56.296875 Z M 54.410156 55.5 L 72.753906 55.5 L 72.910156 40.367188 L 54.527344 40.367188 L 54.527344 54.953125 C 54.527344 55.144531 54.488281 55.324219 54.410156 55.5 Z M 54.410156 55.5 "/>
<path style=" stroke:none;fill-rule:nonzero;fill:rgb(23.139954%,25.489807%,26.269531%);fill-opacity:1;" d="M 64.277344 47.71875 C 64.167969 47.71875 64.074219 47.679688 63.996094 47.601562 C 63.917969 47.523438 63.878906 47.429688 63.878906 47.320312 L 63.878906 45.734375 C 63.882812 45.664062 63.859375 45.605469 63.808594 45.554688 C 63.761719 45.503906 63.699219 45.476562 63.628906 45.476562 C 63.558594 45.476562 63.5 45.503906 63.449219 45.554688 C 63.402344 45.605469 63.378906 45.664062 63.382812 45.734375 L 63.382812 47.320312 C 63.386719 47.433594 63.347656 47.53125 63.269531 47.609375 C 63.191406 47.691406 63.09375 47.730469 62.984375 47.730469 C 62.871094 47.730469 62.773438 47.691406 62.695312 47.609375 C 62.617188 47.53125 62.582031 47.433594 62.585938 47.320312 L 62.585938 45.734375 C 62.585938 45.597656 62.617188 45.46875 62.671875 45.34375 C 62.722656 45.21875 62.800781 45.105469 62.898438 45.011719 C 62.996094 44.914062 63.109375 44.839844 63.234375 44.789062 C 63.359375 44.738281 63.492188 44.710938 63.628906 44.710938 C 63.765625 44.710938 63.898438 44.738281 64.023438 44.789062 C 64.152344 44.839844 64.261719 44.914062 64.359375 45.011719 C 64.457031 45.105469 64.535156 45.21875 64.589844 45.34375 C 64.644531 45.46875 64.671875 45.597656 64.675781 45.734375 L 64.675781 47.320312 C 64.675781 47.429688 64.636719 47.523438 64.558594 47.601562 C 64.480469 47.679688 64.386719 47.71875 64.277344 47.71875 Z M 64.277344 47.71875 "/>
<path style=" stroke:none;fill-rule:nonzero;fill:rgb(23.139954%,25.489807%,26.269531%);fill-opacity:1;" d="M 61.238281 47.71875 C 61.128906 47.71875 61.035156 47.679688 60.957031 47.601562 C 60.878906 47.523438 60.84375 47.429688 60.84375 47.320312 L 60.84375 45.734375 C 60.84375 45.664062 60.820312 45.605469 60.773438 45.554688 C 60.722656 45.503906 60.664062 45.476562 60.59375 45.476562 C 60.523438 45.476562 60.464844 45.503906 60.414062 45.554688 C 60.363281 45.605469 60.34375 45.664062 60.34375 45.734375 L 60.34375 47.320312 C 60.347656 47.433594 60.3125 47.53125 60.234375 47.609375 C 60.15625 47.691406 60.058594 47.730469 59.945312 47.730469 C 59.835938 47.730469 59.738281 47.691406 59.660156 47.609375 C 59.582031 47.53125 59.542969 47.433594 59.546875 47.320312 L 59.546875 45.734375 C 59.546875 45.597656 59.574219 45.464844 59.628906 45.335938 C 59.679688 45.207031 59.757812 45.09375 59.855469 44.996094 C 59.953125 44.898438 60.066406 44.824219 60.195312 44.769531 C 60.320312 44.71875 60.453125 44.691406 60.59375 44.691406 C 60.730469 44.691406 60.863281 44.71875 60.992188 44.769531 C 61.121094 44.824219 61.234375 44.898438 61.332031 44.996094 C 61.429688 45.09375 61.503906 45.207031 61.558594 45.335938 C 61.613281 45.464844 61.636719 45.597656 61.636719 45.734375 L 61.636719 47.320312 C 61.636719 47.429688 61.597656 47.523438 61.519531 47.601562 C 61.445312 47.679688 61.351562 47.71875 61.238281 47.71875 Z M 61.238281 47.71875 "/>
<path style=" stroke:none;fill-rule:nonzero;fill:rgb(23.139954%,25.489807%,26.269531%);fill-opacity:1;" d="M 67.652344 47.71875 C 67.542969 47.71875 67.445312 47.679688 67.371094 47.601562 C 67.292969 47.523438 67.253906 47.429688 67.253906 47.320312 L 67.253906 45.734375 C 67.253906 45.664062 67.234375 45.605469 67.183594 45.554688 C 67.132812 45.503906 67.074219 45.476562 67.003906 45.476562 C 66.933594 45.476562 66.875 45.503906 66.824219 45.554688 C 66.777344 45.605469 66.753906 45.664062 66.753906 45.734375 L 66.753906 47.320312 C 66.757812 47.433594 66.722656 47.53125 66.644531 47.609375 C 66.566406 47.691406 66.46875 47.730469 66.355469 47.730469 C 66.246094 47.730469 66.148438 47.691406 66.070312 47.609375 C 65.992188 47.53125 65.957031 47.433594 65.960938 47.320312 L 65.960938 45.734375 C 65.960938 45.597656 65.992188 45.46875 66.042969 45.34375 C 66.097656 45.21875 66.175781 45.105469 66.273438 45.011719 C 66.371094 44.914062 66.480469 44.839844 66.609375 44.789062 C 66.734375 44.738281 66.867188 44.710938 67.003906 44.710938 C 67.140625 44.710938 67.273438 44.738281 67.398438 44.789062 C 67.527344 44.839844 67.636719 44.914062 67.734375 45.011719 C 67.832031 45.105469 67.910156 45.21875 67.964844 45.34375 C 68.019531 45.46875 68.046875 45.597656 68.050781 45.734375 L 68.050781 47.320312 C 68.050781 47.429688 68.011719 47.523438 67.933594 47.601562 C 67.855469 47.679688 67.761719 47.71875 67.652344 47.71875 Z M 67.652344 47.71875 "/>
<path style=" stroke:none;fill-rule:nonzero;fill:rgb(23.139954%,25.489807%,26.269531%);fill-opacity:1;" d="M 70.800781 47.71875 C 70.691406 47.71875 70.597656 47.679688 70.519531 47.601562 C 70.441406 47.523438 70.402344 47.429688 70.402344 47.320312 L 70.402344 45.734375 C 70.402344 45.667969 70.378906 45.609375 70.328125 45.558594 C 70.28125 45.511719 70.222656 45.488281 70.152344 45.488281 C 70.085938 45.488281 70.027344 45.511719 69.976562 45.558594 C 69.929688 45.609375 69.90625 45.667969 69.90625 45.734375 L 69.90625 47.320312 C 69.910156 47.433594 69.871094 47.53125 69.792969 47.609375 C 69.714844 47.691406 69.617188 47.730469 69.507812 47.730469 C 69.394531 47.730469 69.296875 47.691406 69.21875 47.609375 C 69.140625 47.53125 69.105469 47.433594 69.109375 47.320312 L 69.109375 45.734375 C 69.109375 45.597656 69.140625 45.46875 69.195312 45.34375 C 69.246094 45.21875 69.324219 45.105469 69.421875 45.011719 C 69.519531 44.914062 69.632812 44.839844 69.757812 44.789062 C 69.882812 44.738281 70.015625 44.710938 70.152344 44.710938 C 70.289062 44.710938 70.421875 44.738281 70.546875 44.789062 C 70.675781 44.839844 70.789062 44.914062 70.886719 45.011719 C 70.984375 45.105469 71.058594 45.21875 71.113281 45.34375 C 71.167969 45.46875 71.195312 45.597656 71.199219 45.734375 L 71.199219 47.320312 C 71.199219 47.429688 71.160156 47.523438 71.082031 47.601562 C 71.003906 47.679688 70.910156 47.71875 70.800781 47.71875 Z M 70.800781 47.71875 "/>
<path style=" stroke:none;fill-rule:nonzero;fill:rgb(23.139954%,25.489807%,26.269531%);fill-opacity:1;" d="M 57.976562 47.71875 C 57.867188 47.71875 57.773438 47.679688 57.695312 47.601562 C 57.617188 47.523438 57.578125 47.429688 57.578125 47.320312 L 57.578125 45.734375 C 57.582031 45.664062 57.558594 45.605469 57.511719 45.554688 C 57.460938 45.503906 57.402344 45.476562 57.332031 45.476562 C 57.261719 45.476562 57.199219 45.503906 57.152344 45.554688 C 57.101562 45.605469 57.082031 45.664062 57.082031 45.734375 L 57.082031 47.320312 C 57.085938 47.433594 57.050781 47.53125 56.972656 47.609375 C 56.894531 47.691406 56.796875 47.730469 56.683594 47.730469 C 56.570312 47.730469 56.476562 47.691406 56.398438 47.609375 C 56.320312 47.53125 56.28125 47.433594 56.285156 47.320312 L 56.285156 45.734375 C 56.289062 45.597656 56.316406 45.46875 56.371094 45.34375 C 56.425781 45.21875 56.503906 45.105469 56.601562 45.011719 C 56.699219 44.914062 56.808594 44.839844 56.9375 44.789062 C 57.0625 44.738281 57.195312 44.710938 57.332031 44.710938 C 57.46875 44.710938 57.601562 44.738281 57.726562 44.789062 C 57.851562 44.839844 57.964844 44.914062 58.0625 45.011719 C 58.160156 45.105469 58.238281 45.21875 58.289062 45.34375 C 58.34375 45.46875 58.375 45.597656 58.375 45.734375 L 58.375 47.320312 C 58.375 47.429688 58.335938 47.523438 58.261719 47.601562 C 58.183594 47.679688 58.089844 47.71875 57.976562 47.71875 Z M 57.976562 47.71875 "/>
<path style=" stroke:none;fill-rule:nonzero;fill:rgb(23.139954%,25.489807%,26.269531%);fill-opacity:1;" d="M 62.984375 43.640625 C 62.875 43.640625 62.777344 43.601562 62.703125 43.523438 C 62.625 43.445312 62.585938 43.351562 62.585938 43.242188 L 62.585938 41.660156 C 62.585938 41.550781 62.625 41.457031 62.703125 41.378906 C 62.78125 41.300781 62.875 41.261719 62.984375 41.261719 L 64.277344 41.261719 C 64.386719 41.261719 64.480469 41.300781 64.558594 41.378906 C 64.636719 41.457031 64.675781 41.550781 64.675781 41.660156 C 64.675781 41.769531 64.636719 41.863281 64.558594 41.941406 C 64.480469 42.019531 64.386719 42.058594 64.277344 42.058594 L 63.382812 42.058594 L 63.382812 43.242188 C 63.382812 43.351562 63.34375 43.445312 63.265625 43.523438 C 63.1875 43.601562 63.09375 43.640625 62.984375 43.640625 Z M 62.984375 43.640625 "/>
<path style=" stroke:none;fill-rule:nonzero;fill:rgb(23.139954%,25.489807%,26.269531%);fill-opacity:1;" d="M 59.945312 43.640625 C 59.835938 43.640625 59.742188 43.601562 59.664062 43.523438 C 59.585938 43.445312 59.546875 43.351562 59.546875 43.242188 L 59.546875 41.660156 C 59.546875 41.550781 59.585938 41.457031 59.664062 41.378906 C 59.742188 41.300781 59.835938 41.261719 59.945312 41.261719 L 61.238281 41.261719 C 61.351562 41.261719 61.445312 41.300781 61.519531 41.378906 C 61.597656 41.457031 61.636719 41.550781 61.636719 41.660156 C 61.636719 41.769531 61.597656 41.863281 61.519531 41.941406 C 61.445312 42.019531 61.351562 42.058594 61.238281 42.058594 L 60.34375 42.058594 L 60.34375 43.242188 C 60.34375 43.351562 60.304688 43.445312 60.226562 43.523438 C 60.152344 43.601562 60.054688 43.640625 59.945312 43.640625 Z M 59.945312 43.640625 "/>
<path style=" stroke:none;fill-rule:nonzero;fill:rgb(23.139954%,25.489807%,26.269531%);fill-opacity:1;" d="M 66.355469 43.640625 C 66.246094 43.640625 66.152344 43.601562 66.074219 43.523438 C 65.996094 43.445312 65.960938 43.351562 65.960938 43.242188 L 65.960938 41.660156 C 65.960938 41.550781 65.996094 41.457031 66.074219 41.378906 C 66.152344 41.300781 66.246094 41.261719 66.355469 41.261719 L 67.652344 41.261719 C 67.761719 41.261719 67.855469 41.300781 67.933594 41.378906 C 68.011719 41.457031 68.050781 41.550781 68.050781 41.660156 C 68.050781 41.769531 68.011719 41.863281 67.933594 41.941406 C 67.855469 42.019531 67.761719 42.058594 67.652344 42.058594 L 66.753906 42.058594 L 66.753906 43.242188 C 66.753906 43.351562 66.71875 43.445312 66.640625 43.523438 C 66.5625 43.601562 66.46875 43.640625 66.355469 43.640625 Z M 66.355469 43.640625 "/>
<path style=" stroke:none;fill-rule:nonzero;fill:rgb(23.139954%,25.489807%,26.269531%);fill-opacity:1;" d="M 69.507812 43.640625 C 69.398438 43.640625 69.304688 43.601562 69.226562 43.523438 C 69.148438 43.445312 69.109375 43.351562 69.109375 43.242188 L 69.109375 41.660156 C 69.109375 41.550781 69.148438 41.457031 69.226562 41.378906 C 69.304688 41.300781 69.398438 41.261719 69.507812 41.261719 L 70.800781 41.261719 C 70.910156 41.261719 71.003906 41.300781 71.082031 41.378906 C 71.160156 41.457031 71.199219 41.550781 71.199219 41.660156 C 71.199219 41.769531 71.160156 41.863281 71.082031 41.941406 C 71.003906 42.019531 70.910156 42.058594 70.800781 42.058594 L 69.90625 42.058594 L 69.90625 43.242188 C 69.90625 43.351562 69.867188 43.445312 69.789062 43.523438 C 69.710938 43.601562 69.617188 43.640625 69.507812 43.640625 Z M 69.507812 43.640625 "/>
<path style=" stroke:none;fill-rule:nonzero;fill:rgb(23.139954%,25.489807%,26.269531%);fill-opacity:1;" d="M 56.683594 43.640625 C 56.574219 43.640625 56.480469 43.601562 56.402344 43.523438 C 56.324219 43.445312 56.285156 43.351562 56.285156 43.242188 L 56.285156 41.660156 C 56.285156 41.550781 56.324219 41.457031 56.402344 41.378906 C 56.480469 41.300781 56.574219 41.261719 56.683594 41.261719 L 57.976562 41.261719 C 58.089844 41.261719 58.183594 41.300781 58.261719 41.378906 C 58.335938 41.457031 58.375 41.550781 58.375 41.660156 C 58.375 41.769531 58.335938 41.863281 58.261719 41.941406 C 58.183594 42.019531 58.089844 42.058594 57.976562 42.058594 L 57.082031 42.058594 L 57.082031 43.242188 C 57.082031 43.351562 57.042969 43.445312 56.964844 43.523438 C 56.890625 43.601562 56.796875 43.640625 56.683594 43.640625 Z M 56.683594 43.640625 "/>
<path style=" stroke:none;fill-rule:nonzero;fill:rgb(23.139954%,25.489807%,26.269531%);fill-opacity:1;" d="M 69.140625 55.328125 C 69.03125 55.328125 68.9375 55.289062 68.859375 55.210938 C 68.78125 55.132812 68.742188 55.039062 68.742188 54.929688 L 68.742188 51.148438 C 68.746094 50.910156 68.703125 50.679688 68.617188 50.457031 C 68.527344 50.238281 68.398438 50.042969 68.230469 49.871094 C 68.066406 49.703125 67.871094 49.570312 67.652344 49.480469 C 67.433594 49.386719 67.203125 49.339844 66.964844 49.339844 C 66.726562 49.339844 66.5 49.386719 66.277344 49.480469 C 66.058594 49.570312 65.867188 49.703125 65.699219 49.871094 C 65.53125 50.042969 65.402344 50.238281 65.316406 50.457031 C 65.226562 50.679688 65.183594 50.910156 65.1875 51.148438 L 65.1875 54.929688 C 65.191406 55.042969 65.15625 55.140625 65.074219 55.222656 C 64.996094 55.300781 64.902344 55.34375 64.789062 55.34375 C 64.675781 55.34375 64.582031 55.300781 64.503906 55.222656 C 64.425781 55.140625 64.386719 55.042969 64.390625 54.929688 L 64.390625 51.148438 C 64.390625 50.804688 64.457031 50.476562 64.585938 50.160156 C 64.71875 49.847656 64.902344 49.566406 65.144531 49.328125 C 65.386719 49.085938 65.664062 48.898438 65.980469 48.769531 C 66.296875 48.636719 66.625 48.574219 66.964844 48.574219 C 67.304688 48.574219 67.636719 48.636719 67.949219 48.769531 C 68.265625 48.898438 68.542969 49.085938 68.785156 49.328125 C 69.027344 49.566406 69.210938 49.847656 69.34375 50.160156 C 69.472656 50.476562 69.539062 50.804688 69.539062 51.148438 L 69.539062 54.929688 C 69.539062 55.039062 69.5 55.132812 69.421875 55.210938 C 69.34375 55.289062 69.25 55.328125 69.140625 55.328125 Z M 69.140625 55.328125 "/>
<path style=" stroke:none;fill-rule:nonzero;fill:rgb(23.139954%,25.489807%,26.269531%);fill-opacity:1;" d="M 62.695312 55.328125 C 62.585938 55.328125 62.492188 55.289062 62.414062 55.210938 C 62.335938 55.132812 62.296875 55.039062 62.296875 54.929688 L 62.296875 51.148438 C 62.300781 50.910156 62.257812 50.679688 62.167969 50.457031 C 62.082031 50.238281 61.953125 50.042969 61.785156 49.871094 C 61.621094 49.703125 61.425781 49.570312 61.207031 49.480469 C 60.988281 49.386719 60.757812 49.339844 60.519531 49.339844 C 60.28125 49.339844 60.050781 49.386719 59.832031 49.480469 C 59.613281 49.570312 59.421875 49.703125 59.253906 49.871094 C 59.085938 50.042969 58.957031 50.238281 58.871094 50.457031 C 58.78125 50.679688 58.738281 50.910156 58.742188 51.148438 L 58.742188 54.929688 C 58.746094 55.042969 58.707031 55.140625 58.628906 55.222656 C 58.550781 55.300781 58.457031 55.34375 58.34375 55.34375 C 58.230469 55.34375 58.136719 55.300781 58.058594 55.222656 C 57.980469 55.140625 57.941406 55.042969 57.945312 54.929688 L 57.945312 51.148438 C 57.945312 50.804688 58.011719 50.476562 58.140625 50.160156 C 58.273438 49.847656 58.457031 49.566406 58.699219 49.328125 C 58.941406 49.085938 59.21875 48.898438 59.535156 48.769531 C 59.851562 48.636719 60.179688 48.574219 60.519531 48.574219 C 60.859375 48.574219 61.1875 48.636719 61.503906 48.769531 C 61.820312 48.898438 62.097656 49.085938 62.339844 49.328125 C 62.582031 49.566406 62.765625 49.847656 62.898438 50.160156 C 63.027344 50.476562 63.09375 50.804688 63.09375 51.148438 L 63.09375 54.929688 C 63.09375 55.039062 63.054688 55.132812 62.976562 55.210938 C 62.898438 55.289062 62.804688 55.328125 62.695312 55.328125 Z M 62.695312 55.328125 "/>
<path style=" stroke:none;fill-rule:nonzero;fill:rgb(23.139954%,25.489807%,26.269531%);fill-opacity:1;" d="M 99.429688 56.296875 L 84.355469 56.296875 C 84.222656 56.296875 84.117188 56.242188 84.039062 56.136719 C 83.933594 55.996094 83.921875 55.980469 83.933594 53.328125 C 83.9375 51.996094 83.953125 50.546875 83.957031 50 C 83.957031 49.875 83.957031 49.800781 83.957031 49.789062 C 83.957031 49.128906 83.972656 48.808594 84.296875 48.175781 C 84.339844 48.089844 84.390625 48.003906 84.441406 47.921875 C 84.550781 47.734375 84.667969 47.542969 84.667969 47.398438 L 84.730469 43.929688 C 84.8125 39.386719 86.660156 34.804688 89.554688 31.96875 C 90.074219 31.464844 90.09375 30.835938 90.121094 30.042969 C 90.128906 29.792969 90.136719 29.539062 90.164062 29.269531 C 90.175781 29.132812 90.179688 28.964844 90.179688 28.785156 C 90.1875 28.265625 90.195312 27.675781 90.441406 27.246094 C 90.53125 27.085938 90.652344 26.910156 90.785156 26.71875 C 91.023438 26.382812 91.34375 25.921875 91.375 25.664062 C 91.582031 23.8125 91.785156 21.929688 91.984375 20.105469 C 92.386719 16.398438 92.804688 12.566406 93.257812 8.800781 C 93.269531 8.703125 93.3125 8.617188 93.386719 8.550781 C 93.464844 8.484375 93.550781 8.453125 93.652344 8.453125 C 93.753906 8.453125 93.839844 8.484375 93.917969 8.550781 C 93.992188 8.621094 94.035156 8.703125 94.046875 8.804688 C 94.21875 10.203125 94.34375 11.625 94.472656 13 C 94.578125 14.160156 94.6875 15.359375 94.820312 16.535156 C 94.992188 18.050781 95.183594 19.59375 95.371094 21.085938 C 95.558594 22.578125 95.757812 24.125 95.925781 25.648438 C 95.957031 25.914062 96.28125 26.378906 96.519531 26.71875 C 96.648438 26.90625 96.773438 27.085938 96.863281 27.246094 C 97.085938 27.636719 97.09375 28.152344 97.101562 28.605469 C 97.105469 28.757812 97.105469 28.902344 97.117188 29.019531 C 97.144531 29.292969 97.148438 29.578125 97.152344 29.851562 C 97.167969 30.660156 97.179688 31.425781 97.660156 31.886719 C 100.5625 34.65625 102.488281 39.292969 102.566406 43.703125 C 102.574219 44.070312 102.566406 44.445312 102.554688 44.8125 C 102.523438 46.03125 102.496094 47.183594 103.003906 48.175781 C 103.585938 49.304688 103.5625 51.585938 103.546875 53.097656 C 103.546875 53.304688 103.542969 53.492188 103.542969 53.660156 C 103.542969 53.765625 103.5 53.859375 103.421875 53.933594 C 103.347656 54.007812 103.253906 54.046875 103.148438 54.046875 C 103.039062 54.046875 102.945312 54.007812 102.871094 53.933594 C 102.792969 53.859375 102.75 53.765625 102.75 53.660156 C 102.75 53.488281 102.75 53.296875 102.753906 53.089844 C 102.765625 51.746094 102.789062 49.492188 102.296875 48.539062 C 101.691406 47.367188 101.726562 46.058594 101.757812 44.792969 C 101.769531 44.4375 101.777344 44.070312 101.769531 43.71875 C 101.695312 39.511719 99.867188 35.09375 97.113281 32.464844 C 96.390625 31.773438 96.371094 30.761719 96.355469 29.867188 C 96.351562 29.59375 96.347656 29.335938 96.324219 29.09375 C 96.308594 28.945312 96.308594 28.789062 96.304688 28.621094 C 96.300781 28.28125 96.292969 27.855469 96.171875 27.640625 C 96.097656 27.511719 95.984375 27.347656 95.863281 27.175781 C 95.546875 26.722656 95.1875 26.207031 95.136719 25.734375 C 94.964844 24.222656 94.769531 22.679688 94.582031 21.1875 C 94.398438 19.695312 94.199219 18.148438 94.027344 16.625 C 93.894531 15.441406 93.785156 14.238281 93.679688 13.074219 C 93.660156 12.882812 93.644531 12.691406 93.625 12.5 C 93.328125 15.082031 93.050781 17.667969 92.773438 20.195312 C 92.574219 22.015625 92.371094 23.898438 92.164062 25.753906 C 92.113281 26.214844 91.753906 26.726562 91.4375 27.179688 C 91.316406 27.351562 91.203125 27.515625 91.128906 27.640625 C 90.988281 27.894531 90.980469 28.394531 90.976562 28.796875 C 90.972656 28.992188 90.96875 29.175781 90.953125 29.34375 C 90.933594 29.589844 90.921875 29.835938 90.914062 30.070312 C 90.886719 30.925781 90.855469 31.8125 90.113281 32.539062 C 87.359375 35.234375 85.601562 39.605469 85.527344 43.945312 L 85.464844 47.414062 C 85.457031 47.769531 85.273438 48.082031 85.125 48.332031 C 85.078125 48.40625 85.039062 48.476562 85.003906 48.542969 C 84.761719 49.011719 84.753906 49.175781 84.753906 49.792969 C 84.753906 49.804688 84.753906 49.882812 84.753906 50.015625 C 84.71875 53.5625 84.722656 54.960938 84.734375 55.503906 L 99.429688 55.503906 C 99.539062 55.503906 99.632812 55.542969 99.710938 55.621094 C 99.789062 55.699219 99.828125 55.792969 99.828125 55.902344 C 99.828125 56.011719 99.789062 56.105469 99.710938 56.183594 C 99.632812 56.261719 99.539062 56.300781 99.429688 56.300781 Z M 99.429688 56.296875 "/>
<path style=" stroke:none;fill-rule:nonzero;fill:rgb(23.139954%,25.489807%,26.269531%);fill-opacity:1;" d="M 100.578125 54.054688 C 100.464844 54.054688 100.371094 54.015625 100.292969 53.941406 C 100.21875 53.863281 100.179688 53.769531 100.179688 53.65625 L 100.179688 50.210938 C 100.179688 50.105469 100.222656 50.011719 100.300781 49.9375 C 100.375 49.863281 100.46875 49.824219 100.578125 49.824219 C 100.683594 49.824219 100.777344 49.863281 100.851562 49.9375 C 100.929688 50.011719 100.972656 50.105469 100.972656 50.210938 L 100.972656 53.65625 C 100.972656 53.769531 100.9375 53.863281 100.859375 53.941406 C 100.78125 54.015625 100.6875 54.054688 100.578125 54.054688 Z M 100.578125 54.054688 "/>
<path style=" stroke:none;fill-rule:nonzero;fill:rgb(23.139954%,25.489807%,26.269531%);fill-opacity:1;" d="M 97.84375 54.054688 C 97.734375 54.054688 97.640625 54.015625 97.5625 53.941406 C 97.484375 53.863281 97.445312 53.769531 97.445312 53.65625 L 97.445312 50.210938 C 97.449219 50.105469 97.488281 50.011719 97.566406 49.9375 C 97.644531 49.863281 97.738281 49.824219 97.84375 49.824219 C 97.953125 49.824219 98.042969 49.863281 98.121094 49.9375 C 98.199219 50.011719 98.238281 50.105469 98.242188 50.210938 L 98.242188 53.65625 C 98.242188 53.769531 98.203125 53.863281 98.125 53.941406 C 98.046875 54.015625 97.953125 54.054688 97.84375 54.054688 Z M 97.84375 54.054688 "/>
<path style=" stroke:none;fill-rule:nonzero;fill:rgb(23.139954%,25.489807%,26.269531%);fill-opacity:1;" d="M 95.109375 54.054688 C 95 54.054688 94.90625 54.015625 94.828125 53.941406 C 94.753906 53.863281 94.714844 53.769531 94.714844 53.65625 L 94.714844 50.210938 C 94.714844 50.101562 94.753906 50.007812 94.828125 49.929688 C 94.90625 49.851562 95 49.8125 95.109375 49.8125 C 95.222656 49.8125 95.316406 49.851562 95.394531 49.929688 C 95.46875 50.007812 95.507812 50.101562 95.507812 50.210938 L 95.507812 53.65625 C 95.507812 53.769531 95.46875 53.863281 95.394531 53.941406 C 95.316406 54.015625 95.222656 54.054688 95.109375 54.054688 Z M 95.109375 54.054688 "/>
<path style=" stroke:none;fill-rule:nonzero;fill:rgb(23.139954%,25.489807%,26.269531%);fill-opacity:1;" d="M 92.378906 54.054688 C 92.269531 54.054688 92.175781 54.015625 92.097656 53.941406 C 92.019531 53.863281 91.980469 53.769531 91.980469 53.65625 L 91.980469 50.210938 C 91.984375 50.105469 92.023438 50.011719 92.101562 49.9375 C 92.179688 49.863281 92.269531 49.824219 92.378906 49.824219 C 92.484375 49.824219 92.578125 49.863281 92.65625 49.9375 C 92.734375 50.011719 92.773438 50.105469 92.777344 50.210938 L 92.777344 53.65625 C 92.777344 53.769531 92.738281 53.863281 92.660156 53.941406 C 92.582031 54.015625 92.488281 54.054688 92.378906 54.054688 Z M 92.378906 54.054688 "/>
<path style=" stroke:none;fill-rule:nonzero;fill:rgb(23.139954%,25.489807%,26.269531%);fill-opacity:1;" d="M 89.644531 54.054688 C 89.535156 54.054688 89.441406 54.015625 89.363281 53.941406 C 89.285156 53.863281 89.246094 53.769531 89.246094 53.65625 L 89.246094 50.210938 C 89.25 50.105469 89.289062 50.011719 89.367188 49.9375 C 89.445312 49.863281 89.539062 49.824219 89.644531 49.824219 C 89.753906 49.824219 89.84375 49.863281 89.921875 49.9375 C 90 50.011719 90.039062 50.105469 90.042969 50.210938 L 90.042969 53.65625 C 90.042969 53.769531 90.003906 53.863281 89.925781 53.941406 C 89.847656 54.015625 89.753906 54.054688 89.644531 54.054688 Z M 89.644531 54.054688 "/>
<path style=" stroke:none;fill-rule:nonzero;fill:rgb(23.139954%,25.489807%,26.269531%);fill-opacity:1;" d="M 86.914062 54.054688 C 86.804688 54.054688 86.710938 54.015625 86.632812 53.941406 C 86.554688 53.863281 86.515625 53.769531 86.515625 53.65625 L 86.515625 50.210938 C 86.515625 50.101562 86.554688 50.007812 86.632812 49.929688 C 86.710938 49.851562 86.804688 49.8125 86.914062 49.8125 C 87.023438 49.8125 87.117188 49.851562 87.195312 49.929688 C 87.273438 50.007812 87.3125 50.101562 87.3125 50.210938 L 87.3125 53.65625 C 87.3125 53.769531 87.273438 53.863281 87.195312 53.941406 C 87.117188 54.015625 87.023438 54.054688 86.914062 54.054688 Z M 86.914062 54.054688 "/>
<path style=" stroke:none;fill-rule:nonzero;fill:rgb(23.139954%,25.489807%,26.269531%);fill-opacity:1;" d="M 107.765625 54.375 C 107.664062 54.375 107.578125 54.339844 107.507812 54.269531 C 107.4375 54.199219 107.402344 54.113281 107.402344 54.011719 L 107.402344 41.0625 C 107.402344 40.667969 107.445312 40.277344 107.535156 39.894531 C 107.554688 39.796875 107.605469 39.71875 107.691406 39.660156 C 107.777344 39.605469 107.871094 39.589844 107.96875 39.613281 C 108.070312 39.636719 108.148438 39.691406 108.199219 39.777344 C 108.253906 39.867188 108.265625 39.957031 108.242188 40.058594 C 108.164062 40.386719 108.128906 40.722656 108.128906 41.0625 L 108.128906 54.015625 C 108.128906 54.113281 108.089844 54.199219 108.019531 54.269531 C 107.949219 54.339844 107.863281 54.375 107.765625 54.375 Z M 107.765625 54.375 "/>
<path style=" stroke:none;fill-rule:nonzero;fill:rgb(23.139954%,25.489807%,26.269531%);fill-opacity:1;" d="M 115.671875 37.34375 C 115.582031 37.34375 115.507812 37.316406 115.441406 37.257812 C 115.039062 36.929688 114.597656 36.675781 114.109375 36.5 C 113.625 36.324219 113.121094 36.234375 112.605469 36.234375 C 112.085938 36.230469 111.582031 36.316406 111.09375 36.492188 C 110.609375 36.664062 110.164062 36.917969 109.761719 37.246094 C 109.683594 37.3125 109.597656 37.339844 109.496094 37.332031 C 109.394531 37.320312 109.308594 37.277344 109.246094 37.199219 C 109.179688 37.121094 109.15625 37.03125 109.164062 36.929688 C 109.175781 36.828125 109.222656 36.746094 109.300781 36.683594 C 109.769531 36.300781 110.285156 36.011719 110.851562 35.808594 C 111.417969 35.605469 112.003906 35.507812 112.605469 35.507812 C 113.207031 35.507812 113.792969 35.613281 114.359375 35.816406 C 114.925781 36.019531 115.4375 36.316406 115.902344 36.699219 C 116.035156 36.808594 116.070312 36.941406 116.011719 37.101562 C 115.957031 37.261719 115.839844 37.34375 115.671875 37.34375 Z M 115.671875 37.34375 "/>
<path style=" stroke:none;fill-rule:nonzero;fill:rgb(23.139954%,25.489807%,26.269531%);fill-opacity:1;" d="M 118.445312 56.144531 L 106.648438 56.144531 C 106.550781 56.140625 106.46875 56.105469 106.402344 56.035156 C 106.332031 55.964844 106.300781 55.878906 106.300781 55.78125 C 106.300781 55.683594 106.332031 55.597656 106.402344 55.527344 C 106.46875 55.457031 106.550781 55.421875 106.648438 55.417969 L 118.082031 55.417969 L 118.082031 54.527344 L 117.339844 54.367188 C 117.152344 54.324219 117.058594 54.207031 117.058594 54.015625 L 117.058594 41.0625 C 117.058594 40.722656 117.019531 40.386719 116.945312 40.058594 C 116.917969 39.957031 116.933594 39.867188 116.984375 39.777344 C 117.039062 39.691406 117.117188 39.636719 117.214844 39.613281 C 117.316406 39.589844 117.40625 39.605469 117.492188 39.660156 C 117.578125 39.71875 117.632812 39.796875 117.652344 39.894531 C 117.738281 40.277344 117.785156 40.667969 117.785156 41.0625 L 117.785156 53.71875 L 118.523438 53.882812 C 118.714844 53.925781 118.808594 54.042969 118.808594 54.238281 L 118.808594 55.78125 C 118.808594 55.882812 118.773438 55.96875 118.703125 56.039062 C 118.628906 56.109375 118.542969 56.144531 118.445312 56.144531 Z M 118.445312 56.144531 "/>
<path style=" stroke:none;fill-rule:nonzero;fill:rgb(23.139954%,25.489807%,26.269531%);fill-opacity:1;" d="M 112.644531 44.300781 L 112.597656 44.300781 C 112.5 44.292969 112.417969 44.257812 112.351562 44.183594 C 112.285156 44.113281 112.25 44.027344 112.253906 43.925781 C 112.257812 43.828125 112.292969 43.746094 112.363281 43.675781 C 112.433594 43.609375 112.519531 43.574219 112.617188 43.574219 C 113.234375 43.589844 113.828125 43.054688 114.246094 42.109375 C 114.882812 40.664062 114.9375 40.070312 114.871094 39.828125 C 114.84375 39.714844 114.863281 39.609375 114.929688 39.515625 C 115 39.421875 115.09375 39.371094 115.210938 39.367188 C 115.242188 39.367188 115.863281 39.332031 116.175781 38.804688 C 115.792969 39.015625 115.238281 39.125 114.53125 38.867188 C 114.433594 38.832031 114.363281 38.765625 114.320312 38.667969 C 114.285156 38.628906 113.988281 38.339844 112.703125 38.324219 L 112.484375 38.324219 C 111.582031 38.332031 111.171875 38.484375 111 38.574219 C 110.949219 38.597656 110.902344 38.628906 110.863281 38.667969 C 110.824219 38.765625 110.753906 38.832031 110.65625 38.867188 C 109.949219 39.125 109.394531 39.015625 109.011719 38.804688 C 109.324219 39.332031 109.945312 39.367188 109.976562 39.367188 C 110.09375 39.375 110.1875 39.421875 110.253906 39.515625 C 110.324219 39.609375 110.34375 39.714844 110.3125 39.828125 C 110.246094 40.070312 110.242188 40.691406 110.933594 42.097656 C 110.976562 42.1875 110.980469 42.277344 110.949219 42.371094 C 110.914062 42.460938 110.855469 42.53125 110.765625 42.574219 C 110.679688 42.617188 110.585938 42.625 110.492188 42.59375 C 110.398438 42.5625 110.328125 42.503906 110.285156 42.417969 C 109.785156 41.410156 109.546875 40.625 109.558594 40.035156 C 109.054688 39.898438 108.410156 39.523438 108.1875 38.695312 C 108.097656 38.371094 107.953125 37.824219 108.328125 37.625 C 108.542969 37.507812 108.804688 37.589844 109.035156 37.855469 C 109.050781 37.871094 109.066406 37.890625 109.078125 37.910156 C 109.113281 37.96875 109.457031 38.472656 110.285156 38.226562 C 110.484375 37.960938 111.023438 37.617188 112.457031 37.597656 L 112.730469 37.597656 C 114.164062 37.617188 114.703125 37.960938 114.902344 38.226562 C 115.730469 38.472656 116.074219 37.96875 116.113281 37.90625 C 116.125 37.886719 116.136719 37.871094 116.152344 37.855469 C 116.382812 37.589844 116.640625 37.507812 116.859375 37.625 C 117.234375 37.824219 117.085938 38.371094 117 38.695312 C 116.777344 39.53125 116.125 39.90625 115.617188 40.035156 C 115.613281 40.574219 115.382812 41.328125 114.910156 42.402344 C 114.375 43.609375 113.550781 44.300781 112.644531 44.300781 Z M 112.644531 44.300781 "/>
<path style=" stroke:none;fill-rule:nonzero;fill:rgb(23.139954%,25.489807%,26.269531%);fill-opacity:1;" d="M 115.839844 50.820312 C 115.742188 50.820312 115.65625 50.785156 115.585938 50.714844 C 115.515625 50.644531 115.480469 50.558594 115.480469 50.457031 L 115.480469 46.0625 C 115.476562 45.960938 115.507812 45.871094 115.582031 45.796875 C 115.652344 45.722656 115.738281 45.6875 115.84375 45.6875 C 115.945312 45.6875 116.03125 45.722656 116.101562 45.796875 C 116.175781 45.871094 116.207031 45.960938 116.203125 46.0625 L 116.203125 50.457031 C 116.203125 50.558594 116.167969 50.644531 116.097656 50.714844 C 116.027344 50.785156 115.941406 50.820312 115.839844 50.820312 Z M 115.839844 50.820312 "/>
<path style=" stroke:none;fill-rule:nonzero;fill:rgb(23.139954%,25.489807%,26.269531%);fill-opacity:1;" d="M 109.53125 52.941406 C 109.433594 52.941406 109.347656 52.90625 109.277344 52.835938 C 109.203125 52.765625 109.167969 52.679688 109.167969 52.578125 L 109.167969 46.34375 C 109.171875 46.246094 109.210938 46.164062 109.28125 46.097656 C 109.351562 46.027344 109.433594 45.996094 109.53125 45.996094 C 109.628906 45.996094 109.714844 46.027344 109.785156 46.097656 C 109.855469 46.164062 109.890625 46.246094 109.894531 46.34375 L 109.894531 52.578125 C 109.894531 52.679688 109.859375 52.765625 109.789062 52.835938 C 109.71875 52.90625 109.632812 52.941406 109.53125 52.941406 Z M 109.53125 52.941406 "/>
<path style=" stroke:none;fill-rule:nonzero;fill:rgb(23.139954%,25.489807%,26.269531%);fill-opacity:1;" d="M 51.496094 71.332031 C 50.746094 70.902344 50.160156 70.3125 49.730469 69.566406 C 49.292969 68.816406 49.078125 67.988281 49.078125 67.082031 C 49.078125 66.171875 49.292969 65.34375 49.730469 64.597656 C 50.164062 63.847656 50.753906 63.257812 51.503906 62.824219 C 52.253906 62.394531 53.0625 62.183594 53.929688 62.191406 C 54.601562 62.183594 55.246094 62.308594 55.871094 62.554688 C 56.476562 62.800781 56.976562 63.144531 57.367188 63.589844 L 56.570312 64.386719 C 56.261719 64.011719 55.882812 63.730469 55.433594 63.542969 C 54.957031 63.34375 54.457031 63.246094 53.941406 63.25 C 53.28125 63.246094 52.664062 63.40625 52.089844 63.726562 C 51.511719 64.050781 51.050781 64.5 50.71875 65.074219 C 50.375 65.652344 50.203125 66.324219 50.203125 67.082031 C 50.203125 67.839844 50.375 68.507812 50.71875 69.089844 C 51.054688 69.664062 51.515625 70.113281 52.097656 70.4375 C 52.671875 70.757812 53.285156 70.914062 53.941406 70.914062 C 54.570312 70.914062 55.09375 70.816406 55.519531 70.617188 C 55.933594 70.429688 56.296875 70.171875 56.609375 69.84375 C 56.847656 69.582031 57.03125 69.289062 57.160156 68.960938 C 57.304688 68.589844 57.390625 68.207031 57.421875 67.8125 L 53.957031 67.8125 L 53.957031 66.78125 L 58.453125 66.78125 C 58.496094 67.003906 58.519531 67.230469 58.519531 67.460938 C 58.519531 68.035156 58.429688 68.59375 58.246094 69.140625 C 58.066406 69.683594 57.773438 70.160156 57.371094 70.570312 C 56.507812 71.503906 55.359375 71.972656 53.933594 71.972656 C 53.0625 71.980469 52.25 71.765625 51.496094 71.332031 Z M 51.496094 71.332031 "/>
<path style=" stroke:none;fill-rule:nonzero;fill:rgb(23.139954%,25.489807%,26.269531%);fill-opacity:1;" d="M 59.917969 62.398438 L 62.742188 62.398438 C 63.703125 62.398438 64.539062 62.597656 65.253906 62.992188 C 65.96875 63.382812 66.515625 63.933594 66.902344 64.648438 C 67.285156 65.355469 67.476562 66.167969 67.476562 67.082031 C 67.476562 67.996094 67.285156 68.804688 66.902344 69.511719 C 66.515625 70.226562 65.96875 70.78125 65.253906 71.167969 C 64.539062 71.5625 63.703125 71.761719 62.742188 71.761719 L 59.917969 71.761719 Z M 62.742188 70.703125 C 63.851562 70.703125 64.726562 70.386719 65.378906 69.75 C 66.027344 69.113281 66.351562 68.222656 66.355469 67.082031 C 66.355469 65.9375 66.027344 65.050781 65.378906 64.414062 C 64.726562 63.777344 63.847656 63.457031 62.742188 63.457031 L 61.015625 63.457031 L 61.015625 70.703125 Z M 62.742188 70.703125 "/>
<path style=" stroke:none;fill-rule:nonzero;fill:rgb(23.139954%,25.489807%,26.269531%);fill-opacity:1;" d="M 70.824219 71.332031 C 70.078125 70.902344 69.488281 70.3125 69.058594 69.566406 C 68.625 68.816406 68.40625 67.988281 68.40625 67.082031 C 68.40625 66.175781 68.625 65.347656 69.058594 64.597656 C 69.492188 63.847656 70.082031 63.257812 70.832031 62.824219 C 71.582031 62.394531 72.390625 62.183594 73.257812 62.191406 C 73.929688 62.183594 74.574219 62.308594 75.199219 62.554688 C 75.804688 62.800781 76.304688 63.144531 76.695312 63.589844 L 75.898438 64.386719 C 75.589844 64.007812 75.210938 63.730469 74.761719 63.542969 C 74.285156 63.34375 73.789062 63.246094 73.269531 63.25 C 72.613281 63.246094 71.996094 63.40625 71.417969 63.726562 C 70.839844 64.050781 70.382812 64.5 70.046875 65.074219 C 69.703125 65.652344 69.53125 66.324219 69.53125 67.082031 C 69.53125 67.839844 69.703125 68.507812 70.046875 69.089844 C 70.382812 69.664062 70.84375 70.113281 71.425781 70.433594 C 72 70.753906 72.613281 70.914062 73.269531 70.914062 C 73.898438 70.914062 74.421875 70.816406 74.847656 70.617188 C 75.261719 70.429688 75.625 70.171875 75.9375 69.84375 C 76.175781 69.582031 76.359375 69.289062 76.488281 68.960938 C 76.632812 68.589844 76.71875 68.207031 76.75 67.8125 L 73.285156 67.8125 L 73.285156 66.78125 L 77.78125 66.78125 C 77.824219 67.003906 77.84375 67.230469 77.847656 67.460938 C 77.847656 68.035156 77.757812 68.59375 77.574219 69.140625 C 77.390625 69.683594 77.097656 70.160156 76.695312 70.570312 C 75.832031 71.503906 74.6875 71.972656 73.257812 71.972656 C 72.390625 71.980469 71.578125 71.765625 70.824219 71.332031 Z M 70.824219 71.332031 "/>
<path style=" stroke:none;fill-rule:nonzero;fill:rgb(23.139954%,25.489807%,26.269531%);fill-opacity:1;" d="M 83.941406 63.457031 L 81.3125 63.457031 L 81.3125 62.398438 L 87.667969 62.398438 L 87.667969 63.457031 L 85.054688 63.457031 L 85.054688 71.761719 L 83.941406 71.761719 Z M 83.941406 63.457031 "/>
<path style=" stroke:none;fill-rule:nonzero;fill:rgb(23.139954%,25.489807%,26.269531%);fill-opacity:1;" d="M 89.746094 71.5 C 89.21875 71.1875 88.8125 70.761719 88.523438 70.21875 C 88.234375 69.65625 88.085938 69.058594 88.085938 68.425781 C 88.085938 67.792969 88.234375 67.199219 88.523438 66.636719 C 88.8125 66.09375 89.21875 65.667969 89.746094 65.355469 C 90.269531 65.039062 90.859375 64.882812 91.511719 64.882812 C 92.167969 64.882812 92.753906 65.039062 93.277344 65.355469 C 93.804688 65.667969 94.210938 66.09375 94.5 66.636719 C 94.792969 67.199219 94.9375 67.792969 94.9375 68.425781 C 94.9375 69.058594 94.792969 69.65625 94.5 70.21875 C 94.210938 70.761719 93.804688 71.1875 93.277344 71.5 C 92.753906 71.816406 92.167969 71.972656 91.511719 71.972656 C 90.859375 71.972656 90.269531 71.816406 89.746094 71.5 Z M 92.65625 70.65625 C 93.023438 70.441406 93.304688 70.148438 93.507812 69.773438 C 93.71875 69.390625 93.828125 68.941406 93.828125 68.425781 C 93.828125 67.914062 93.71875 67.464844 93.507812 67.082031 C 93.304688 66.707031 93.023438 66.414062 92.65625 66.199219 C 92.304688 65.992188 91.921875 65.886719 91.511719 65.890625 C 91.101562 65.890625 90.714844 65.992188 90.359375 66.199219 C 89.992188 66.410156 89.707031 66.707031 89.503906 67.082031 C 89.289062 67.464844 89.183594 67.914062 89.183594 68.425781 C 89.183594 68.941406 89.289062 69.390625 89.503906 69.773438 C 89.652344 70.046875 89.847656 70.277344 90.085938 70.46875 C 90.328125 70.660156 90.597656 70.796875 90.894531 70.878906 C 91.191406 70.964844 91.492188 70.984375 91.796875 70.945312 C 92.101562 70.90625 92.390625 70.8125 92.65625 70.65625 Z M 92.65625 70.65625 "/>
<path style=" stroke:none;fill-rule:nonzero;fill:rgb(23.139954%,25.489807%,26.269531%);fill-opacity:1;" d="M 95.828125 65.09375 L 96.890625 65.09375 L 96.890625 66.164062 L 96.941406 66.164062 C 97.070312 65.800781 97.324219 65.496094 97.699219 65.25 C 98.054688 65.007812 98.449219 64.886719 98.875 64.882812 C 99.183594 64.882812 99.445312 64.933594 99.660156 65.027344 L 99.660156 66.214844 C 99.363281 66.070312 99.050781 66 98.71875 66.007812 C 98.394531 66.003906 98.097656 66.097656 97.828125 66.28125 C 97.550781 66.472656 97.332031 66.71875 97.179688 67.023438 C 97.019531 67.335938 96.9375 67.671875 96.9375 68.023438 L 96.9375 71.757812 L 95.828125 71.757812 Z M 95.828125 65.09375 "/>
<path style=" stroke:none;fill-rule:nonzero;fill:rgb(23.139954%,25.489807%,26.269531%);fill-opacity:1;" d="M 100.417969 63.640625 C 100.257812 63.488281 100.179688 63.300781 100.183594 63.078125 C 100.179688 62.859375 100.257812 62.675781 100.417969 62.523438 C 100.574219 62.371094 100.761719 62.292969 100.980469 62.292969 C 101.199219 62.292969 101.386719 62.371094 101.542969 62.523438 C 101.703125 62.671875 101.78125 62.859375 101.777344 63.078125 C 101.78125 63.296875 101.707031 63.484375 101.550781 63.640625 C 101.394531 63.796875 101.207031 63.875 100.984375 63.875 C 100.761719 63.875 100.574219 63.796875 100.417969 63.640625 Z M 100.429688 65.09375 L 101.53125 65.09375 L 101.53125 71.761719 L 100.429688 71.761719 Z M 100.429688 65.09375 "/>
<path style=" stroke:none;fill-rule:nonzero;fill:rgb(23.139954%,25.489807%,26.269531%);fill-opacity:1;" d="M 102.875 65.09375 L 103.9375 65.09375 L 103.9375 66.074219 L 103.988281 66.074219 C 104.171875 65.742188 104.460938 65.460938 104.863281 65.230469 C 105.257812 65 105.6875 64.882812 106.144531 64.882812 C 106.949219 64.882812 107.558594 65.117188 107.984375 65.582031 C 108.40625 66.050781 108.617188 66.683594 108.617188 67.488281 L 108.617188 71.761719 L 107.503906 71.761719 L 107.503906 67.65625 C 107.503906 67.039062 107.355469 66.589844 107.0625 66.308594 C 106.765625 66.03125 106.359375 65.890625 105.84375 65.890625 C 105.492188 65.886719 105.171875 65.988281 104.882812 66.191406 C 104.59375 66.398438 104.375 66.660156 104.222656 66.984375 C 104.066406 67.308594 103.988281 67.648438 103.988281 68.007812 L 103.988281 71.761719 L 102.875 71.761719 Z M 102.875 65.09375 "/>
<path style=" stroke:none;fill-rule:nonzero;fill:rgb(23.139954%,25.489807%,26.269531%);fill-opacity:1;" d="M 111.117188 71.5 C 110.589844 71.1875 110.183594 70.761719 109.894531 70.21875 C 109.601562 69.65625 109.457031 69.058594 109.457031 68.425781 C 109.457031 67.792969 109.601562 67.199219 109.894531 66.636719 C 110.183594 66.09375 110.589844 65.667969 111.117188 65.355469 C 111.640625 65.039062 112.226562 64.882812 112.882812 64.882812 C 113.535156 64.882812 114.125 65.039062 114.648438 65.355469 C 115.175781 65.667969 115.582031 66.09375 115.871094 66.636719 C 116.164062 67.199219 116.308594 67.792969 116.308594 68.425781 C 116.308594 69.058594 116.164062 69.65625 115.871094 70.21875 C 115.582031 70.761719 115.175781 71.1875 114.648438 71.5 C 114.125 71.816406 113.535156 71.972656 112.882812 71.972656 C 112.226562 71.972656 111.640625 71.816406 111.117188 71.5 Z M 114.027344 70.65625 C 114.390625 70.441406 114.675781 70.148438 114.875 69.773438 C 115.089844 69.390625 115.195312 68.941406 115.195312 68.425781 C 115.195312 67.914062 115.089844 67.464844 114.875 67.082031 C 114.675781 66.707031 114.390625 66.414062 114.027344 66.199219 C 113.671875 65.992188 113.289062 65.886719 112.882812 65.890625 C 112.460938 65.890625 112.074219 65.996094 111.714844 66.207031 C 111.351562 66.421875 111.074219 66.710938 110.875 67.078125 C 110.660156 67.464844 110.554688 67.914062 110.554688 68.425781 C 110.554688 68.941406 110.660156 69.390625 110.875 69.773438 C 111.023438 70.042969 111.214844 70.273438 111.457031 70.464844 C 111.699219 70.65625 111.96875 70.796875 112.265625 70.878906 C 112.558594 70.960938 112.863281 70.984375 113.167969 70.945312 C 113.472656 70.90625 113.757812 70.808594 114.027344 70.65625 Z M 114.027344 70.65625 "/>
</g>
</svg>
