<?xml version="1.0" encoding="UTF-8"?>
<svg xmlns="http://www.w3.org/2000/svg" xmlns:xlink="http://www.w3.org/1999/xlink" width="165pt" height="82.499998pt" viewBox="0 0 165 82.499998" version="1.2">
<defs>
<clipPath id="clip1">
  <path d="M 0.496094 0 L 164.503906 0 L 164.503906 82.003906 L 0.496094 82.003906 Z M 0.496094 0 "/>
</clipPath>
</defs>
<g id="surface1">
<g clip-path="url(#clip1)" clip-rule="nonzero">
<path style=" stroke:none;fill-rule:nonzero;fill:rgb(100%,100%,100%);fill-opacity:1;" d="M 0.496094 0 L 164.503906 0 L 164.503906 82.003906 L 0.496094 82.003906 Z M 0.496094 0 "/>
<path style=" stroke:none;fill-rule:nonzero;fill:rgb(100%,100%,100%);fill-opacity:1;" d="M 0.496094 0 L 164.503906 0 L 164.503906 82.003906 L 0.496094 82.003906 Z M 0.496094 0 "/>
</g>
<path style=" stroke:none;fill-rule:nonzero;fill:rgb(41.958618%,41.958618%,41.958618%);fill-opacity:1;" d="M 82.046875 70.925781 L 80.734375 70.925781 L 77.292969 60.710938 L 78.6875 60.710938 L 81.363281 69 L 81.417969 69 L 84.207031 60.710938 L 85.601562 60.710938 Z M 82.046875 70.925781 "/>
<path style=" stroke:none;fill-rule:nonzero;fill:rgb(41.958618%,41.958618%,41.958618%);fill-opacity:1;" d="M 88.851562 71.152344 C 87.867188 71.152344 87.058594 70.800781 86.417969 70.097656 C 85.78125 69.394531 85.464844 68.503906 85.464844 67.429688 C 85.464844 66.363281 85.773438 65.476562 86.390625 64.769531 C 87.011719 64.0625 87.804688 63.707031 88.769531 63.707031 C 89.761719 63.707031 90.554688 64.042969 91.140625 64.710938 C 91.726562 65.382812 92.023438 66.324219 92.023438 67.53125 L 92.007812 67.671875 L 86.75 67.671875 C 86.765625 68.355469 86.984375 68.910156 87.40625 69.328125 C 87.824219 69.746094 88.324219 69.957031 88.90625 69.957031 C 89.710938 69.957031 90.335938 69.535156 90.792969 68.699219 L 91.914062 69.269531 C 91.613281 69.859375 91.195312 70.320312 90.664062 70.65625 C 90.128906 70.988281 89.527344 71.152344 88.851562 71.152344 Z M 86.84375 66.589844 L 90.683594 66.589844 C 90.644531 66.105469 90.457031 65.703125 90.117188 65.382812 C 89.773438 65.066406 89.316406 64.90625 88.742188 64.90625 C 88.269531 64.90625 87.859375 65.058594 87.519531 65.363281 C 87.179688 65.667969 86.953125 66.074219 86.84375 66.589844 Z M 86.84375 66.589844 "/>
<path style=" stroke:none;fill-rule:nonzero;fill:rgb(41.958618%,41.958618%,41.958618%);fill-opacity:1;" d="M 93.171875 63.933594 L 94.375 63.933594 L 94.375 64.90625 L 94.429688 64.90625 C 94.621094 64.5625 94.914062 64.277344 95.308594 64.050781 C 95.707031 63.820312 96.117188 63.707031 96.546875 63.707031 C 97.367188 63.707031 97.996094 63.953125 98.4375 64.441406 C 98.878906 64.929688 99.101562 65.628906 99.101562 66.53125 L 99.101562 70.925781 L 97.84375 70.925781 L 97.84375 66.617188 C 97.816406 65.476562 97.265625 64.90625 96.191406 64.90625 C 95.691406 64.90625 95.269531 65.117188 94.933594 65.539062 C 94.597656 65.964844 94.429688 66.46875 94.429688 67.058594 L 94.429688 70.925781 L 93.171875 70.925781 Z M 93.171875 63.933594 "/>
<path style=" stroke:none;fill-rule:nonzero;fill:rgb(41.958618%,41.958618%,41.958618%);fill-opacity:1;" d="M 103.582031 71.152344 C 102.597656 71.152344 101.789062 70.800781 101.152344 70.097656 C 100.511719 69.394531 100.195312 68.503906 100.195312 67.429688 C 100.195312 66.363281 100.503906 65.476562 101.125 64.769531 C 101.742188 64.0625 102.535156 63.707031 103.5 63.707031 C 104.496094 63.707031 105.285156 64.042969 105.871094 64.710938 C 106.460938 65.382812 106.753906 66.324219 106.753906 67.53125 L 106.738281 67.671875 L 101.480469 67.671875 C 101.496094 68.355469 101.714844 68.910156 102.136719 69.328125 C 102.554688 69.746094 103.054688 69.957031 103.636719 69.957031 C 104.441406 69.957031 105.066406 69.535156 105.523438 68.699219 L 106.644531 69.269531 C 106.34375 69.859375 105.925781 70.320312 105.394531 70.65625 C 104.859375 70.988281 104.257812 71.152344 103.582031 71.152344 Z M 101.574219 66.589844 L 105.414062 66.589844 C 105.375 66.105469 105.1875 65.703125 104.847656 65.382812 C 104.503906 65.066406 104.046875 64.90625 103.472656 64.90625 C 103 64.90625 102.589844 65.058594 102.25 65.363281 C 101.910156 65.667969 101.683594 66.074219 101.574219 66.589844 Z M 101.574219 66.589844 "/>
<path style=" stroke:none;fill-rule:nonzero;fill:rgb(41.958618%,41.958618%,41.958618%);fill-opacity:1;" d="M 112.917969 70.925781 L 107.503906 70.925781 L 107.503906 69.785156 L 111.316406 65.132812 L 107.613281 65.132812 L 107.613281 63.933594 L 112.863281 63.933594 L 112.863281 65.078125 L 109.050781 69.726562 L 112.917969 69.726562 Z M 112.917969 70.925781 "/>
<path style=" stroke:none;fill-rule:nonzero;fill:rgb(41.958618%,41.958618%,41.958618%);fill-opacity:1;" d="M 115.882812 61.523438 C 115.882812 61.78125 115.792969 62 115.621094 62.179688 C 115.449219 62.363281 115.238281 62.453125 114.992188 62.453125 C 114.746094 62.453125 114.539062 62.363281 114.363281 62.179688 C 114.191406 62 114.105469 61.78125 114.105469 61.523438 C 114.105469 61.269531 114.191406 61.050781 114.363281 60.867188 C 114.539062 60.6875 114.746094 60.597656 114.992188 60.597656 C 115.238281 60.597656 115.449219 60.6875 115.621094 60.867188 C 115.792969 61.050781 115.882812 61.269531 115.882812 61.523438 Z M 115.621094 63.933594 L 115.621094 70.925781 L 114.363281 70.925781 L 114.363281 63.933594 Z M 115.621094 63.933594 "/>
<path style=" stroke:none;fill-rule:nonzero;fill:rgb(41.958618%,41.958618%,41.958618%);fill-opacity:1;" d="M 119.734375 63.707031 C 120.664062 63.707031 121.398438 63.964844 121.933594 64.484375 C 122.472656 65.003906 122.742188 65.714844 122.742188 66.617188 L 122.742188 70.925781 L 121.539062 70.925781 L 121.539062 69.953125 L 121.484375 69.953125 C 120.964844 70.753906 120.269531 71.152344 119.40625 71.152344 C 118.667969 71.152344 118.050781 70.925781 117.554688 70.46875 C 117.058594 70.011719 116.808594 69.441406 116.808594 68.757812 C 116.808594 68.035156 117.070312 67.457031 117.59375 67.03125 C 118.117188 66.601562 118.816406 66.386719 119.691406 66.386719 C 120.4375 66.386719 121.054688 66.53125 121.535156 66.816406 L 121.535156 66.515625 C 121.535156 66.0625 121.363281 65.671875 121.019531 65.355469 C 120.671875 65.035156 120.265625 64.875 119.800781 64.875 C 119.101562 64.875 118.546875 65.1875 118.136719 65.804688 L 117.027344 65.078125 C 117.640625 64.164062 118.539062 63.707031 119.734375 63.707031 Z M 118.109375 68.785156 C 118.109375 69.128906 118.246094 69.414062 118.523438 69.640625 C 118.804688 69.867188 119.128906 69.984375 119.503906 69.984375 C 120.03125 69.984375 120.5 69.777344 120.917969 69.371094 C 121.332031 68.960938 121.539062 68.480469 121.539062 67.929688 C 121.148438 67.605469 120.601562 67.445312 119.898438 67.445312 C 119.386719 67.445312 118.960938 67.574219 118.621094 67.828125 C 118.277344 68.085938 118.109375 68.40625 118.109375 68.785156 Z M 118.109375 68.785156 "/>
<path style=" stroke:none;fill-rule:nonzero;fill:rgb(40.388489%,42.349243%,44.709778%);fill-opacity:1;" d="M 45.332031 70.476562 C 44.550781 70.03125 43.929688 69.421875 43.46875 68.640625 C 43.007812 67.859375 42.777344 67 42.777344 66.054688 C 42.777344 65.113281 43.007812 64.253906 43.46875 63.472656 C 43.929688 62.695312 44.550781 62.082031 45.332031 61.636719 C 46.113281 61.195312 46.972656 60.972656 47.902344 60.972656 C 48.628906 60.972656 49.3125 61.097656 49.949219 61.351562 C 50.589844 61.605469 51.117188 61.964844 51.53125 62.425781 L 50.691406 63.253906 C 50.378906 62.875 49.976562 62.582031 49.488281 62.378906 C 49 62.175781 48.476562 62.074219 47.914062 62.074219 C 47.214844 62.074219 46.5625 62.238281 45.960938 62.570312 C 45.359375 62.898438 44.875 63.367188 44.511719 63.96875 C 44.148438 64.570312 43.964844 65.269531 43.964844 66.054688 C 43.964844 66.84375 44.148438 67.542969 44.511719 68.144531 C 44.875 68.746094 45.359375 69.214844 45.96875 69.542969 C 46.574219 69.875 47.222656 70.039062 47.914062 70.039062 C 48.578125 70.039062 49.132812 69.9375 49.578125 69.734375 C 50.023438 69.53125 50.410156 69.261719 50.730469 68.925781 C 50.96875 68.671875 51.164062 68.367188 51.3125 68.007812 C 51.457031 67.648438 51.550781 67.253906 51.585938 66.816406 L 47.929688 66.816406 L 47.929688 65.742188 L 52.675781 65.742188 C 52.722656 65.996094 52.746094 66.234375 52.746094 66.449219 C 52.746094 67.046875 52.648438 67.632812 52.457031 68.195312 C 52.261719 68.765625 51.953125 69.261719 51.53125 69.6875 C 50.621094 70.65625 49.410156 71.140625 47.902344 71.140625 C 46.972656 71.144531 46.113281 70.921875 45.332031 70.476562 Z M 45.332031 70.476562 "/>
<path style=" stroke:none;fill-rule:nonzero;fill:rgb(40.388489%,42.349243%,44.709778%);fill-opacity:1;" d="M 54.488281 61.1875 L 57.46875 61.1875 C 58.480469 61.1875 59.363281 61.394531 60.121094 61.808594 C 60.875 62.21875 61.453125 62.792969 61.859375 63.527344 C 62.265625 64.261719 62.464844 65.105469 62.464844 66.058594 C 62.464844 67.007812 62.265625 67.851562 61.859375 68.585938 C 61.453125 69.320312 60.875 69.894531 60.121094 70.304688 C 59.363281 70.71875 58.480469 70.925781 57.46875 70.925781 L 54.488281 70.925781 Z M 57.46875 69.824219 C 58.636719 69.824219 59.566406 69.492188 60.25 68.832031 C 60.9375 68.167969 61.277344 67.246094 61.277344 66.058594 C 61.277344 64.871094 60.933594 63.945312 60.25 63.285156 C 59.566406 62.621094 58.636719 62.289062 57.46875 62.289062 L 55.644531 62.289062 L 55.644531 69.824219 Z M 57.46875 69.824219 "/>
<path style=" stroke:none;fill-rule:nonzero;fill:rgb(40.388489%,42.349243%,44.709778%);fill-opacity:1;" d="M 66.261719 70.476562 C 65.480469 70.03125 64.859375 69.421875 64.398438 68.640625 C 63.9375 67.859375 63.707031 67 63.707031 66.054688 C 63.707031 65.113281 63.9375 64.253906 64.398438 63.472656 C 64.859375 62.695312 65.480469 62.082031 66.261719 61.636719 C 67.042969 61.195312 67.902344 60.972656 68.832031 60.972656 C 69.558594 60.972656 70.242188 61.097656 70.878906 61.351562 C 71.519531 61.605469 72.046875 61.964844 72.460938 62.425781 L 71.621094 63.253906 C 71.308594 62.875 70.90625 62.582031 70.417969 62.378906 C 69.929688 62.175781 69.40625 62.074219 68.84375 62.074219 C 68.144531 62.074219 67.492188 62.238281 66.890625 62.570312 C 66.289062 62.898438 65.804688 63.367188 65.441406 63.96875 C 65.078125 64.570312 64.894531 65.269531 64.894531 66.054688 C 64.894531 66.84375 65.078125 67.542969 65.441406 68.144531 C 65.804688 68.746094 66.289062 69.214844 66.898438 69.542969 C 67.503906 69.875 68.152344 70.039062 68.84375 70.039062 C 69.507812 70.039062 70.0625 69.9375 70.507812 69.734375 C 70.953125 69.53125 71.339844 69.261719 71.660156 68.925781 C 71.898438 68.671875 72.09375 68.367188 72.238281 68.007812 C 72.386719 67.648438 72.480469 67.253906 72.515625 66.816406 L 68.859375 66.816406 L 68.859375 65.742188 L 73.605469 65.742188 C 73.652344 65.996094 73.675781 66.234375 73.675781 66.449219 C 73.675781 67.046875 73.578125 67.632812 73.386719 68.195312 C 73.191406 68.765625 72.882812 69.261719 72.460938 69.6875 C 71.550781 70.65625 70.339844 71.140625 68.832031 71.140625 C 67.902344 71.144531 67.042969 70.921875 66.261719 70.476562 Z M 66.261719 70.476562 "/>
<path style=" stroke:none;fill-rule:nonzero;fill:rgb(91.758728%,26.269531%,20.779419%);fill-opacity:1;" d="M 61.417969 28.949219 L 74.71875 21.382812 C 77.847656 19.605469 78.921875 15.660156 77.113281 12.578125 C 75.304688 9.496094 71.304688 8.4375 68.171875 10.21875 L 45.1875 23.289062 Z M 61.417969 28.949219 "/>
<path style=" stroke:none;fill-rule:nonzero;fill:rgb(25.878906%,52.159119%,95.689392%);fill-opacity:1;" d="M 71.441406 48.390625 C 73.703125 48.390625 75.902344 47.234375 77.113281 45.164062 C 78.921875 42.082031 77.847656 38.140625 74.71875 36.359375 L 51.734375 23.289062 C 48.601562 21.507812 44.601562 22.566406 42.792969 25.648438 C 40.984375 28.730469 42.058594 32.675781 45.1875 34.453125 L 68.171875 47.523438 C 69.203125 48.113281 70.328125 48.390625 71.441406 48.390625 Z M 71.441406 48.390625 "/>
<path style=" stroke:none;fill-rule:nonzero;fill:rgb(98.429871%,73.728943%,1.568604%);fill-opacity:1;" d="M 94.304688 48.390625 C 95.414062 48.390625 96.539062 48.113281 97.570312 47.523438 L 120.554688 34.457031 L 104.53125 28.679688 L 91.023438 36.359375 C 87.894531 38.140625 86.820312 42.082031 88.628906 45.164062 C 89.839844 47.234375 92.042969 48.390625 94.304688 48.390625 Z M 94.304688 48.390625 "/>
<path style=" stroke:none;fill-rule:nonzero;fill:rgb(5.879211%,61.569214%,34.509277%);fill-opacity:1;" d="M 117.277344 35.320312 C 119.539062 35.320312 121.738281 34.164062 122.949219 32.09375 C 124.757812 29.011719 123.6875 25.070312 120.554688 23.289062 L 97.570312 10.21875 C 94.4375 8.4375 90.4375 9.496094 88.628906 12.578125 C 86.820312 15.660156 87.894531 19.605469 91.023438 21.382812 L 114.007812 34.457031 C 115.039062 35.039062 116.164062 35.320312 117.277344 35.320312 Z M 117.277344 35.320312 "/>
</g>
</svg>
