<?xml version="1.0" encoding="UTF-8"?>
<svg xmlns="http://www.w3.org/2000/svg" xmlns:xlink="http://www.w3.org/1999/xlink" width="165pt" height="82.499998pt" viewBox="0 0 165 82.499998" version="1.2">
<defs>
<clipPath id="clip1">
  <path d="M 0.496094 0 L 164.503906 0 L 164.503906 82.003906 L 0.496094 82.003906 Z M 0.496094 0 "/>
</clipPath>
</defs>
<g id="surface1">
<g clip-path="url(#clip1)" clip-rule="nonzero">
<path style=" stroke:none;fill-rule:nonzero;fill:rgb(100%,100%,100%);fill-opacity:1;" d="M 0.496094 0 L 164.503906 0 L 164.503906 82.003906 L 0.496094 82.003906 Z M 0.496094 0 "/>
<path style=" stroke:none;fill-rule:nonzero;fill:rgb(100%,100%,100%);fill-opacity:1;" d="M 0.496094 0 L 164.503906 0 L 164.503906 82.003906 L 0.496094 82.003906 Z M 0.496094 0 "/>
</g>
<path style=" stroke:none;fill-rule:nonzero;fill:rgb(68.238831%,19.219971%,23.529053%);fill-opacity:1;" d="M 56.453125 32.625 L 56.972656 35.503906 L 57.082031 32.65625 C 57.03125 32.664062 56.976562 32.667969 56.917969 32.671875 C 56.757812 32.675781 56.605469 32.660156 56.453125 32.625 Z M 56.453125 32.625 "/>
<path style=" stroke:none;fill-rule:nonzero;fill:rgb(68.238831%,19.219971%,23.529053%);fill-opacity:1;" d="M 68.988281 51.929688 C 67.929688 47.394531 67.925781 47.792969 66.84375 43.277344 C 66.753906 42.917969 62.785156 40.222656 62.699219 39.859375 C 62.640625 39.617188 64.910156 36.261719 64.851562 36.019531 C 63.839844 31.863281 63.304688 28.238281 62.15625 24.105469 C 61.886719 23.128906 61.023438 22.484375 60.015625 22.484375 L 57.488281 22.484375 L 57.222656 29.136719 C 58.007812 29.300781 58.609375 29.980469 58.640625 30.816406 C 58.675781 31.75 57.992188 32.539062 57.082031 32.65625 L 56.972656 35.503906 L 56.453125 32.625 C 55.6875 32.449219 55.101562 31.777344 55.070312 30.949219 C 55.046875 30.300781 55.371094 29.71875 55.875 29.386719 L 54.640625 22.484375 L 52.078125 22.484375 C 51.125 22.484375 50.304688 23.058594 49.984375 23.960938 L 49.460938 25.429688 L 51.082031 43.804688 L 54.894531 55.816406 C 55.910156 59.023438 58.792969 61.1875 61.976562 61.191406 C 62.292969 61.195312 58.460938 46.699219 58.785156 46.65625 C 59.097656 46.613281 63.5625 60.761719 63.882812 60.675781 C 67.757812 59.605469 69.90625 55.851562 68.988281 51.929688 Z M 53.082031 36.8125 C 52.097656 36.847656 51.265625 36.074219 51.230469 35.089844 C 51.195312 34.105469 51.964844 33.273438 52.949219 33.238281 C 53.933594 33.199219 54.765625 33.972656 54.800781 34.957031 C 54.835938 35.941406 54.066406 36.777344 53.082031 36.8125 Z M 57.214844 40.660156 C 56.230469 40.695312 55.402344 39.921875 55.367188 38.933594 C 55.328125 37.949219 56.097656 37.117188 57.082031 37.082031 C 58.070312 37.042969 58.898438 37.816406 58.933594 38.800781 C 58.972656 39.789062 58.203125 40.621094 57.214844 40.660156 Z M 61.054688 36.515625 C 60.070312 36.554688 59.238281 35.78125 59.203125 34.792969 C 59.167969 33.8125 59.9375 32.976562 60.921875 32.941406 C 61.90625 32.902344 62.738281 33.675781 62.777344 34.660156 C 62.8125 35.644531 62.039062 36.480469 61.054688 36.515625 Z M 61.054688 36.515625 "/>
<path style=" stroke:none;fill-rule:nonzero;fill:rgb(68.238831%,19.219971%,23.529053%);fill-opacity:1;" d="M 29.339844 23.960938 C 29.019531 23.058594 28.203125 22.484375 27.246094 22.484375 L 19.308594 22.484375 C 18.300781 22.484375 17.4375 23.128906 17.167969 24.105469 C 16.636719 26.011719 16.128906 27.921875 15.632812 29.832031 C 15.574219 30.0625 17.378906 29.777344 17.320312 30.003906 C 15.492188 37.109375 12.523438 44.765625 10.851562 51.929688 C 9.9375 55.851562 11.566406 59.863281 15.441406 60.933594 C 19.320312 62.003906 23.214844 59.65625 24.429688 55.816406 L 28.242188 43.804688 L 29.863281 25.429688 Z M 27.984375 35.480469 C 27.984375 35.976562 27.578125 36.382812 27.078125 36.382812 L 25.421875 36.382812 C 24.925781 36.382812 24.519531 36.789062 24.519531 37.292969 L 24.519531 38.949219 C 24.519531 39.445312 24.113281 39.855469 23.617188 39.855469 L 22.128906 39.855469 C 21.628906 39.855469 21.222656 39.445312 21.222656 38.949219 L 21.222656 37.292969 C 21.222656 36.789062 20.816406 36.382812 20.316406 36.382812 L 18.664062 36.382812 C 18.164062 36.382812 17.757812 35.976562 17.757812 35.480469 L 17.757812 33.984375 C 17.757812 33.488281 18.164062 33.078125 18.664062 33.078125 L 20.316406 33.078125 C 20.816406 33.078125 21.222656 32.671875 21.222656 32.171875 L 21.222656 30.515625 C 21.222656 30.015625 21.628906 29.609375 22.128906 29.609375 L 23.617188 29.609375 C 24.113281 29.609375 24.519531 30.015625 24.519531 30.515625 L 24.519531 32.171875 C 24.519531 32.671875 24.925781 33.078125 25.421875 33.078125 L 27.078125 33.078125 C 27.578125 33.078125 27.984375 33.488281 27.984375 33.984375 Z M 27.984375 35.480469 "/>
<path style=" stroke:none;fill-rule:nonzero;fill:rgb(68.238831%,19.219971%,23.529053%);fill-opacity:1;" d="M 48.597656 25.429688 L 30.601562 25.429688 L 30.195312 30.101562 L 44.214844 30.1875 L 44.207031 30.835938 L 30.132812 30.839844 L 29.527344 37.796875 L 44.28125 37.882812 L 44.269531 38.550781 L 29.457031 38.617188 L 29.003906 43.804688 L 50.238281 43.804688 Z M 38.539062 33.886719 L 36.332031 36.101562 C 35.992188 36.445312 35.433594 36.441406 35.085938 36.097656 C 34.746094 35.757812 34.742188 35.199219 35.085938 34.855469 L 37.296875 32.640625 C 37.636719 32.300781 38.199219 32.300781 38.539062 32.640625 C 38.882812 32.984375 38.882812 33.546875 38.539062 33.886719 Z M 43.546875 33.890625 L 41.339844 36.101562 C 41 36.441406 40.441406 36.441406 40.09375 36.097656 C 39.753906 35.757812 39.753906 35.195312 40.09375 34.855469 L 42.300781 32.640625 C 42.644531 32.300781 43.203125 32.300781 43.546875 32.640625 C 43.890625 32.984375 43.890625 33.546875 43.546875 33.890625 Z M 43.546875 33.890625 "/>
<path style=" stroke:none;fill-rule:nonzero;fill:rgb(0%,0%,0%);fill-opacity:1;" d="M 87.152344 24.410156 L 85.519531 24.410156 L 85.519531 22.535156 L 90.703125 22.535156 L 90.703125 24.410156 L 89.304688 24.410156 L 89.304688 35.171875 L 86.875 37.746094 L 82.386719 37.746094 L 79.957031 35.171875 L 79.957031 31.054688 L 81.828125 31.054688 L 81.828125 34.214844 L 83.300781 35.734375 L 85.9375 35.734375 L 87.152344 34.492188 Z M 87.152344 24.410156 "/>
<path style=" stroke:none;fill-rule:nonzero;fill:rgb(0%,0%,0%);fill-opacity:1;" d="M 103.320312 28.058594 L 101.378906 28.058594 L 101.378906 26 L 99.980469 24.550781 L 96.40625 24.550781 L 95.191406 25.789062 L 95.191406 28.082031 L 96.335938 29.253906 L 101.195312 29.253906 L 103.554688 31.734375 L 103.554688 35.171875 L 101.125 37.746094 L 95.238281 37.746094 L 92.808594 35.171875 L 92.808594 32.222656 L 94.746094 32.222656 L 94.746094 34.285156 L 96.171875 35.734375 L 100.214844 35.734375 L 101.40625 34.492188 L 101.40625 32.410156 L 100.28125 31.265625 L 95.425781 31.265625 L 93.039062 28.761719 L 93.039062 25.109375 L 95.46875 22.535156 L 100.890625 22.535156 L 103.320312 25.109375 Z M 103.320312 28.058594 "/>
<path style=" stroke:none;fill-rule:nonzero;fill:rgb(68.238831%,19.219971%,23.529053%);fill-opacity:1;" d="M 112.222656 20.195312 L 112.222656 35.875 L 115.726562 35.875 L 115.726562 37.746094 L 106.566406 37.746094 L 106.566406 35.875 L 110.070312 35.875 L 110.070312 22.464844 L 106.261719 24.363281 L 105.351562 22.535156 L 110.070312 20.195312 Z M 112.222656 20.195312 "/>
<path style=" stroke:none;fill-rule:nonzero;fill:rgb(68.238831%,19.219971%,23.529053%);fill-opacity:1;" d="M 121.121094 29.953125 L 121.121094 28.082031 L 124.8125 28.082031 L 125.933594 26.9375 L 125.933594 23.449219 L 124.71875 22.210938 L 121.144531 22.210938 L 119.742188 23.660156 L 119.742188 25.71875 L 117.804688 25.71875 L 117.804688 22.769531 L 120.234375 20.195312 L 125.652344 20.195312 L 128.082031 22.769531 L 128.082031 27.613281 L 126.890625 28.855469 L 128.527344 30.5625 L 128.527344 35.171875 L 126.097656 37.746094 L 120.210938 37.746094 L 117.78125 35.171875 L 117.78125 32.222656 L 119.71875 32.222656 L 119.71875 34.28125 L 121.144531 35.734375 L 125.1875 35.734375 L 126.378906 34.492188 L 126.378906 31.242188 L 125.117188 29.953125 Z M 121.121094 29.953125 "/>
<path style=" stroke:none;fill-rule:nonzero;fill:rgb(68.238831%,19.219971%,23.529053%);fill-opacity:1;" d="M 143.710938 37.746094 L 138.761719 37.746094 L 138.761719 35.875 L 139.953125 35.875 L 136.515625 31.078125 L 134.203125 31.078125 L 134.203125 35.875 L 135.839844 35.875 L 135.839844 37.746094 L 130.417969 37.746094 L 130.417969 35.875 L 132.054688 35.875 L 132.054688 24.410156 L 130.417969 24.410156 L 130.417969 22.535156 L 135.839844 22.535156 L 135.839844 24.410156 L 134.203125 24.410156 L 134.203125 29.207031 L 136.261719 29.207031 L 139.71875 24.410156 L 138.527344 24.410156 L 138.527344 22.535156 L 143.480469 22.535156 L 143.480469 24.410156 L 142.125 24.410156 L 138.128906 29.976562 L 142.359375 35.875 L 143.710938 35.875 Z M 143.710938 37.746094 "/>
<path style=" stroke:none;fill-rule:nonzero;fill:rgb(0%,0%,0%);fill-opacity:1;" d="M 90.46875 52.28125 L 87.246094 52.28125 L 87.246094 50.40625 L 92.339844 50.40625 L 92.339844 56.84375 L 89.910156 59.417969 L 83.789062 59.417969 L 81.359375 56.84375 L 81.359375 44.441406 L 83.789062 41.867188 L 89.910156 41.867188 L 92.339844 44.441406 L 92.339844 47.390625 L 90.46875 47.390625 L 90.46875 45.398438 L 89 43.878906 L 84.722656 43.878906 L 83.507812 45.121094 L 83.507812 56.164062 L 84.699219 57.402344 L 88.976562 57.402344 L 90.46875 55.882812 Z M 90.46875 52.28125 "/>
<path style=" stroke:none;fill-rule:nonzero;fill:rgb(0%,0%,0%);fill-opacity:1;" d="M 103.085938 59.417969 L 103.085938 57.542969 L 104.628906 57.542969 L 103.625 54.644531 L 97.78125 54.644531 L 96.777344 57.542969 L 98.34375 57.542969 L 98.34375 59.417969 L 93.390625 59.417969 L 93.390625 57.542969 L 94.628906 57.542969 L 98.578125 46.078125 L 97.597656 46.078125 L 97.597656 44.207031 L 103.832031 44.207031 L 103.832031 46.078125 L 102.828125 46.078125 L 106.777344 57.542969 L 108.039062 57.542969 L 108.039062 59.417969 Z M 100.703125 46.148438 L 98.414062 52.769531 L 102.992188 52.769531 Z M 100.703125 46.148438 "/>
<path style=" stroke:none;fill-rule:nonzero;fill:rgb(0%,0%,0%);fill-opacity:1;" d="M 113.109375 57.542969 L 114.742188 57.542969 L 114.742188 59.417969 L 109.324219 59.417969 L 109.324219 57.542969 L 110.957031 57.542969 L 110.957031 46.078125 L 109.324219 46.078125 L 109.324219 44.207031 L 114.089844 44.207031 L 118.503906 55.273438 L 122.921875 44.207031 L 127.6875 44.207031 L 127.6875 46.078125 L 126.050781 46.078125 L 126.050781 57.542969 L 127.6875 57.542969 L 127.6875 59.417969 L 122.265625 59.417969 L 122.265625 57.542969 L 123.902344 57.542969 L 123.902344 46.851562 L 119.53125 57.542969 L 117.476562 57.542969 L 113.109375 46.851562 Z M 113.109375 57.542969 "/>
<path style=" stroke:none;fill-rule:nonzero;fill:rgb(0%,0%,0%);fill-opacity:1;" d="M 130.488281 44.207031 L 141.609375 44.207031 L 141.609375 48.792969 L 139.742188 48.792969 L 139.742188 46.078125 L 134.273438 46.078125 L 134.273438 50.875 L 139.742188 50.875 L 139.742188 52.75 L 134.273438 52.75 L 134.273438 57.542969 L 139.742188 57.542969 L 139.742188 54.832031 L 141.609375 54.832031 L 141.609375 59.417969 L 130.488281 59.417969 L 130.488281 57.542969 L 132.125 57.542969 L 132.125 46.078125 L 130.488281 46.078125 Z M 130.488281 44.207031 "/>
<path style=" stroke:none;fill-rule:nonzero;fill:rgb(0%,0%,0%);fill-opacity:1;" d="M 154.226562 49.730469 L 152.285156 49.730469 L 152.285156 47.671875 L 150.886719 46.21875 L 147.3125 46.21875 L 146.097656 47.460938 L 146.097656 49.753906 L 147.242188 50.921875 L 152.101562 50.921875 L 154.460938 53.402344 L 154.460938 56.84375 L 152.03125 59.417969 L 146.140625 59.417969 L 143.710938 56.84375 L 143.710938 53.894531 L 145.652344 53.894531 L 145.652344 55.953125 L 147.078125 57.40625 L 151.117188 57.40625 L 152.308594 56.164062 L 152.308594 54.082031 L 151.1875 52.933594 L 146.328125 52.933594 L 143.945312 50.429688 L 143.945312 46.78125 L 146.375 44.207031 L 151.796875 44.207031 L 154.226562 46.78125 Z M 154.226562 49.730469 "/>
</g>
</svg>
