<svg xmlns="http://www.w3.org/2000/svg" xmlns:xlink="http://www.w3.org/1999/xlink" width="220" zoomAndPan="magnify" viewBox="0 0 165 82.499998" height="110" preserveAspectRatio="xMidYMid meet" version="1.0"><defs><clipPath id="id1"><path d="M 0.496094 0 L 164.503906 0 L 164.503906 82.003906 L 0.496094 82.003906 Z M 0.496094 0 " clip-rule="nonzero"/></clipPath><clipPath id="id2"><path d="M 0.496094 21.855469 L 13 21.855469 L 13 41 L 0.496094 41 Z M 0.496094 21.855469 " clip-rule="nonzero"/></clipPath><clipPath id="id3"><path d="M 78 21.855469 L 91 21.855469 L 91 41 L 78 41 Z M 78 21.855469 " clip-rule="nonzero"/></clipPath><clipPath id="id4"><path d="M 0.496094 47 L 9 47 L 9 59.875 L 0.496094 59.875 Z M 0.496094 47 " clip-rule="nonzero"/></clipPath><clipPath id="id5"><path d="M 9 47 L 18 47 L 18 59.875 L 9 59.875 Z M 9 47 " clip-rule="nonzero"/></clipPath><clipPath id="id6"><path d="M 19 47 L 21 47 L 21 59.875 L 19 59.875 Z M 19 47 " clip-rule="nonzero"/></clipPath><clipPath id="id7"><path d="M 23 47 L 32 47 L 32 59.875 L 23 59.875 Z M 23 47 " clip-rule="nonzero"/></clipPath><clipPath id="id8"><path d="M 34 47 L 42 47 L 42 59.875 L 34 59.875 Z M 34 47 " clip-rule="nonzero"/></clipPath><clipPath id="id9"><path d="M 42 47 L 45 47 L 45 59.875 L 42 59.875 Z M 42 47 " clip-rule="nonzero"/></clipPath><clipPath id="id10"><path d="M 50 47 L 61 47 L 61 59.875 L 50 59.875 Z M 50 47 " clip-rule="nonzero"/></clipPath><clipPath id="id11"><path d="M 61 47 L 69 47 L 69 59.875 L 61 59.875 Z M 61 47 " clip-rule="nonzero"/></clipPath><clipPath id="id12"><path d="M 70 47 L 79 47 L 79 59.875 L 70 59.875 Z M 70 47 " clip-rule="nonzero"/></clipPath><clipPath id="id13"><path d="M 80 47 L 88 47 L 88 59.875 L 80 59.875 Z M 80 47 " clip-rule="nonzero"/></clipPath><clipPath id="id14"><path d="M 89 47 L 97 47 L 97 59.875 L 89 59.875 Z M 89 47 " clip-rule="nonzero"/></clipPath><clipPath id="id15"><path d="M 98 47 L 101 47 L 101 59.875 L 98 59.875 Z M 98 47 " clip-rule="nonzero"/></clipPath><clipPath id="id16"><path d="M 102 47 L 112 47 L 112 59.875 L 102 59.875 Z M 102 47 " clip-rule="nonzero"/></clipPath><clipPath id="id17"><path d="M 116 47 L 126 47 L 126 59.875 L 116 59.875 Z M 116 47 " clip-rule="nonzero"/></clipPath><clipPath id="id18"><path d="M 128 47 L 130 47 L 130 59.875 L 128 59.875 Z M 128 47 " clip-rule="nonzero"/></clipPath><clipPath id="id19"><path d="M 132 47 L 141 47 L 141 59.875 L 132 59.875 Z M 132 47 " clip-rule="nonzero"/></clipPath><clipPath id="id20"><path d="M 143 47 L 150 47 L 150 59.875 L 143 59.875 Z M 143 47 " clip-rule="nonzero"/></clipPath><clipPath id="id21"><path d="M 151 47 L 154 47 L 154 59.875 L 151 59.875 Z M 151 47 " clip-rule="nonzero"/></clipPath><clipPath id="id22"><path d="M 154 47 L 164.503906 47 L 164.503906 59.875 L 154 59.875 Z M 154 47 " clip-rule="nonzero"/></clipPath></defs><g clip-path="url(#id1)"><path fill="#ffffff" d="M 0.496094 0 L 164.503906 0 L 164.503906 89.457031 L 0.496094 89.457031 Z M 0.496094 0 " fill-opacity="1" fill-rule="nonzero"/><path fill="#ffffff" d="M 0.496094 0 L 164.503906 0 L 164.503906 82.003906 L 0.496094 82.003906 Z M 0.496094 0 " fill-opacity="1" fill-rule="nonzero"/><path fill="#ffffff" d="M 0.496094 0 L 164.503906 0 L 164.503906 82.003906 L 0.496094 82.003906 Z M 0.496094 0 " fill-opacity="1" fill-rule="nonzero"/><path fill="#ffffff" d="M 0.496094 0 L 164.503906 0 L 164.503906 82.003906 L 0.496094 82.003906 Z M 0.496094 0 " fill-opacity="1" fill-rule="nonzero"/></g><g clip-path="url(#id2)"><path fill="#262729" d="M 3.726562 40.488281 L 0.511719 40.488281 L 0.511719 21.855469 L 3.726562 21.855469 L 3.726562 31.960938 L 5.859375 31.960938 L 9.304688 26.449219 L 12.902344 26.449219 L 8.636719 33.238281 L 12.980469 40.488281 L 9.304688 40.488281 L 5.859375 34.667969 L 3.726562 34.667969 Z M 3.726562 40.488281 " fill-opacity="1" fill-rule="nonzero"/></g><path fill="#262729" d="M 23.484375 26.191406 C 25.007812 26.191406 26.207031 26.660156 27.082031 27.597656 C 27.957031 28.53125 28.394531 29.828125 28.394531 31.476562 L 28.394531 32.5 L 25.027344 32.5 L 25.027344 31.707031 C 25.027344 30.804688 24.785156 30.105469 24.304688 29.613281 C 23.84375 29.121094 23.203125 28.875 22.378906 28.875 C 21.554688 28.875 20.914062 29.128906 20.449219 29.640625 C 19.988281 30.132812 19.757812 30.820312 19.757812 31.707031 L 19.757812 40.488281 L 16.542969 40.488281 L 16.542969 26.449219 L 19.578125 26.449219 L 19.578125 29.128906 L 19.601562 29.128906 C 19.824219 28.160156 20.261719 27.425781 20.914062 26.933594 C 21.566406 26.441406 22.421875 26.191406 23.484375 26.191406 Z M 23.484375 26.191406 " fill-opacity="1" fill-rule="nonzero"/><path fill="#262729" d="M 37.636719 26.191406 C 39.417969 26.191406 40.808594 26.609375 41.800781 27.445312 C 42.796875 28.277344 43.292969 29.453125 43.292969 30.964844 L 43.292969 40.488281 L 40.183594 40.488281 L 40.183594 38.035156 L 40.132812 38.035156 C 39.960938 38.871094 39.488281 39.535156 38.71875 40.027344 C 37.964844 40.503906 37.019531 40.742188 35.890625 40.742188 C 34.46875 40.742188 33.335938 40.367188 32.496094 39.621094 C 31.65625 38.855469 31.238281 37.824219 31.238281 36.53125 C 31.238281 35.136719 31.699219 34.0625 32.625 33.316406 C 33.550781 32.550781 34.863281 32.167969 36.558594 32.167969 L 40.078125 32.167969 L 40.078125 30.992188 C 40.078125 30.292969 39.867188 29.757812 39.4375 29.382812 C 39.007812 29.007812 38.390625 28.824219 37.585938 28.824219 C 36.867188 28.824219 36.273438 28.976562 35.8125 29.28125 C 35.367188 29.570312 35.101562 29.988281 35.015625 30.53125 L 31.878906 30.53125 C 32.035156 29.207031 32.625 28.148438 33.652344 27.367188 C 34.699219 26.585938 36.027344 26.191406 37.636719 26.191406 Z M 36.96875 38.34375 C 37.910156 38.34375 38.664062 38.121094 39.230469 37.679688 C 39.796875 37.238281 40.078125 36.632812 40.078125 35.867188 L 40.078125 34.15625 L 36.609375 34.15625 C 35.957031 34.15625 35.433594 34.34375 35.042969 34.71875 C 34.648438 35.09375 34.449219 35.59375 34.449219 36.226562 C 34.449219 36.871094 34.671875 37.390625 35.117188 37.78125 C 35.5625 38.15625 36.179688 38.34375 36.96875 38.34375 Z M 36.96875 38.34375 " fill-opacity="1" fill-rule="nonzero"/><path fill="#262729" d="M 58.886719 40.488281 L 47.472656 40.488281 L 47.472656 37.601562 L 54.851562 29.257812 L 47.703125 29.257812 L 47.703125 26.449219 L 58.601562 26.449219 L 58.601562 29.332031 L 51.148438 37.679688 L 58.886719 37.679688 Z M 58.886719 40.488281 " fill-opacity="1" fill-rule="nonzero"/><path fill="#262729" d="M 65.480469 45.082031 L 67.488281 39.722656 L 62.167969 26.449219 L 65.660156 26.449219 L 68.257812 33.648438 C 68.5 34.328125 68.746094 35.222656 69.003906 36.328125 C 69.261719 35.203125 69.5 34.308594 69.722656 33.648438 L 72.140625 26.449219 L 75.53125 26.449219 L 68.875 45.082031 Z M 65.480469 45.082031 " fill-opacity="1" fill-rule="nonzero"/><g clip-path="url(#id3)"><path fill="#262729" d="M 87.039062 21.855469 L 90.253906 21.855469 L 90.253906 40.488281 L 87.117188 40.488281 L 87.117188 37.808594 L 87.066406 37.808594 C 86.925781 38.726562 86.523438 39.449219 85.855469 39.976562 C 85.207031 40.488281 84.355469 40.742188 83.3125 40.742188 C 81.890625 40.742188 80.757812 40.265625 79.917969 39.3125 C 79.078125 38.34375 78.660156 37.03125 78.660156 35.382812 L 78.660156 31.578125 C 78.660156 29.929688 79.078125 28.617188 79.917969 27.648438 C 80.757812 26.679688 81.890625 26.191406 83.3125 26.191406 C 84.355469 26.191406 85.207031 26.457031 85.855469 26.984375 C 86.523438 27.496094 86.925781 28.210938 87.066406 29.128906 L 87.140625 29.128906 L 87.039062 25.785156 Z M 84.441406 37.984375 C 85.265625 37.984375 85.898438 37.746094 86.34375 37.269531 C 86.808594 36.777344 87.039062 36.097656 87.039062 35.230469 L 87.039062 31.707031 C 87.039062 30.839844 86.808594 30.167969 86.34375 29.691406 C 85.898438 29.214844 85.265625 28.976562 84.441406 28.976562 C 83.621094 28.976562 82.984375 29.214844 82.539062 29.691406 C 82.09375 30.148438 81.871094 30.820312 81.871094 31.707031 L 81.871094 35.230469 C 81.871094 36.113281 82.09375 36.792969 82.539062 37.269531 C 82.984375 37.746094 83.621094 37.984375 84.441406 37.984375 Z M 84.441406 37.984375 " fill-opacity="1" fill-rule="nonzero"/></g><path fill="#262729" d="M 106.050781 34.234375 L 97.414062 34.234375 L 97.414062 35.230469 C 97.414062 37.21875 98.355469 38.214844 100.242188 38.214844 C 100.960938 38.214844 101.535156 38.097656 101.964844 37.859375 C 102.390625 37.601562 102.667969 37.238281 102.785156 36.761719 L 105.972656 36.761719 C 105.734375 37.96875 105.089844 38.9375 104.046875 39.671875 C 103 40.386719 101.722656 40.742188 100.214844 40.742188 C 99.015625 40.742188 97.972656 40.511719 97.078125 40.054688 C 96.207031 39.59375 95.527344 38.957031 95.050781 38.140625 C 94.570312 37.304688 94.328125 36.335938 94.328125 35.230469 L 94.328125 31.707031 C 94.328125 30.601562 94.570312 29.640625 95.050781 28.824219 C 95.527344 27.988281 96.214844 27.34375 97.105469 26.882812 C 97.996094 26.421875 99.035156 26.191406 100.214844 26.191406 C 101.398438 26.191406 102.425781 26.421875 103.300781 26.882812 C 104.175781 27.34375 104.851562 27.988281 105.332031 28.824219 C 105.8125 29.640625 106.050781 30.601562 106.050781 31.707031 Z M 97.414062 32.242188 L 102.964844 32.191406 L 102.964844 31.679688 C 102.964844 30.695312 102.734375 29.945312 102.273438 29.433594 C 101.808594 28.925781 101.125 28.667969 100.214844 28.667969 C 99.289062 28.667969 98.585938 28.933594 98.109375 29.460938 C 97.644531 29.972656 97.414062 30.71875 97.414062 31.707031 Z M 97.414062 32.242188 " fill-opacity="1" fill-rule="nonzero"/><path fill="#262729" d="M 113.804688 40.488281 L 109.203125 26.449219 L 112.519531 26.449219 L 115.140625 34.972656 C 115.414062 35.859375 115.671875 36.820312 115.910156 37.859375 C 116.167969 36.820312 116.425781 35.867188 116.683594 35 L 119.253906 26.449219 L 122.519531 26.449219 L 117.941406 40.488281 Z M 113.804688 40.488281 " fill-opacity="1" fill-rule="nonzero"/><path fill="#262729" d="M 125.359375 41.125 L 137.699219 41.125 L 137.699219 44.011719 L 125.359375 44.011719 Z M 125.359375 41.125 " fill-opacity="1" fill-rule="nonzero"/><g clip-path="url(#id4)"><path fill="#262729" d="M 2.472656 49.363281 L 2.472656 52.59375 L 6.589844 52.59375 L 6.589844 53.945312 L 2.472656 53.945312 L 2.472656 59.566406 L 0.875 59.566406 L 0.875 47.9375 L 8.109375 47.9375 L 8.109375 49.363281 Z M 2.472656 49.363281 " fill-opacity="1" fill-rule="nonzero"/></g><g clip-path="url(#id5)"><path fill="#262729" d="M 15.972656 59.566406 L 12.847656 54.570312 C 12.492188 54.570312 11.925781 54.546875 11.152344 54.492188 L 11.152344 59.566406 L 9.554688 59.566406 L 9.554688 47.9375 C 9.613281 47.9375 10.027344 47.917969 10.792969 47.878906 C 11.566406 47.839844 12.128906 47.816406 12.480469 47.816406 C 15.292969 47.816406 16.699219 48.929688 16.699219 51.152344 C 16.699219 51.882812 16.472656 52.539062 16.019531 53.128906 C 15.566406 53.710938 15.03125 54.070312 14.40625 54.214844 L 17.804688 59.566406 Z M 11.152344 49.363281 L 11.152344 53.144531 C 11.535156 53.195312 11.910156 53.222656 12.273438 53.222656 C 13.230469 53.222656 13.929688 53.070312 14.367188 52.761719 C 14.804688 52.457031 15.023438 51.90625 15.023438 51.121094 C 15.023438 50.46875 14.789062 50 14.316406 49.714844 C 13.847656 49.429688 13.109375 49.285156 12.097656 49.285156 C 11.9375 49.285156 11.621094 49.3125 11.152344 49.363281 Z M 11.152344 49.363281 " fill-opacity="1" fill-rule="nonzero"/></g><g clip-path="url(#id6)"><path fill="#262729" d="M 19.28125 47.9375 L 20.878906 47.9375 L 20.878906 59.566406 L 19.28125 59.566406 Z M 19.28125 47.9375 " fill-opacity="1" fill-rule="nonzero"/></g><g clip-path="url(#id7)"><path fill="#262729" d="M 23.558594 47.9375 L 25.15625 47.9375 L 25.15625 55.898438 C 25.15625 56.605469 25.382812 57.191406 25.835938 57.652344 C 26.289062 58.105469 26.890625 58.335938 27.636719 58.335938 C 28.421875 58.335938 29.042969 58.113281 29.496094 57.667969 C 29.949219 57.222656 30.175781 56.621094 30.175781 55.859375 L 30.175781 47.9375 L 31.777344 47.9375 L 31.777344 56.023438 C 31.777344 57.199219 31.40625 58.117188 30.664062 58.777344 C 29.929688 59.433594 28.925781 59.761719 27.652344 59.761719 C 26.339844 59.761719 25.332031 59.441406 24.621094 58.792969 C 23.914062 58.148438 23.558594 57.222656 23.558594 56.015625 Z M 23.558594 47.9375 " fill-opacity="1" fill-rule="nonzero"/></g><g clip-path="url(#id8)"><path fill="#262729" d="M 34.171875 59.566406 L 34.171875 47.9375 L 35.773438 47.9375 L 35.773438 58.136719 L 41.0625 58.136719 L 41.0625 59.566406 Z M 34.171875 59.566406 " fill-opacity="1" fill-rule="nonzero"/></g><g clip-path="url(#id9)"><path fill="#262729" d="M 42.75 47.9375 L 44.347656 47.9375 L 44.347656 59.566406 L 42.75 59.566406 Z M 42.75 47.9375 " fill-opacity="1" fill-rule="nonzero"/></g><g clip-path="url(#id10)"><path fill="#262729" d="M 56.042969 59.722656 L 55.234375 59.722656 L 50.871094 47.9375 L 52.644531 47.9375 L 55.660156 56.5 L 58.5625 47.9375 L 60.28125 47.9375 Z M 56.042969 59.722656 " fill-opacity="1" fill-rule="nonzero"/></g><g clip-path="url(#id11)"><path fill="#262729" d="M 63.1875 49.363281 L 63.1875 52.59375 L 67.058594 52.59375 L 67.058594 53.945312 L 63.1875 53.945312 L 63.1875 58.136719 L 68.496094 58.136719 L 68.496094 59.566406 L 61.589844 59.566406 L 61.589844 47.9375 L 68.585938 47.9375 L 68.585938 49.363281 Z M 63.1875 49.363281 " fill-opacity="1" fill-rule="nonzero"/></g><g clip-path="url(#id12)"><path fill="#262729" d="M 77.9375 59.722656 L 71.886719 51.222656 L 71.886719 59.566406 L 70.367188 59.566406 L 70.367188 47.9375 L 71.007812 47.9375 L 76.898438 55.976562 L 76.898438 47.9375 L 78.417969 47.9375 L 78.417969 59.722656 Z M 77.9375 59.722656 " fill-opacity="1" fill-rule="nonzero"/></g><g clip-path="url(#id13)"><path fill="#262729" d="M 82.421875 49.363281 L 82.421875 52.59375 L 86.289062 52.59375 L 86.289062 53.945312 L 82.421875 53.945312 L 82.421875 58.136719 L 87.730469 58.136719 L 87.730469 59.566406 L 80.824219 59.566406 L 80.824219 47.9375 L 87.816406 47.9375 L 87.816406 49.363281 Z M 82.421875 49.363281 " fill-opacity="1" fill-rule="nonzero"/></g><g clip-path="url(#id14)"><path fill="#262729" d="M 89.199219 59.566406 L 89.199219 59.167969 L 94.234375 49.363281 L 89.28125 49.363281 L 89.28125 47.9375 L 96.433594 47.9375 L 96.433594 48.332031 L 91.382812 58.136719 L 96.609375 58.136719 L 96.609375 59.566406 Z M 89.199219 59.566406 " fill-opacity="1" fill-rule="nonzero"/></g><g clip-path="url(#id15)"><path fill="#262729" d="M 98.894531 47.9375 L 100.492188 47.9375 L 100.492188 59.566406 L 98.894531 59.566406 Z M 98.894531 47.9375 " fill-opacity="1" fill-rule="nonzero"/></g><g clip-path="url(#id16)"><path fill="#262729" d="M 109.820312 59.566406 L 109.015625 57.113281 L 104.660156 57.113281 L 103.796875 59.566406 L 102.003906 59.566406 L 106.761719 47.777344 L 107.183594 47.777344 L 111.597656 59.566406 Z M 106.898438 50.824219 L 105.082031 55.945312 L 108.558594 55.945312 Z M 106.898438 50.824219 " fill-opacity="1" fill-rule="nonzero"/></g><g clip-path="url(#id17)"><path fill="#262729" d="M 124.96875 48.746094 L 124.304688 50.054688 C 123.5 49.460938 122.710938 49.167969 121.941406 49.167969 C 120.714844 49.167969 119.746094 49.59375 119.039062 50.453125 C 118.328125 51.308594 117.976562 52.445312 117.976562 53.859375 C 117.976562 55.203125 118.320312 56.285156 119.015625 57.105469 C 119.710938 57.925781 120.660156 58.335938 121.859375 58.335938 C 122.710938 58.335938 123.402344 58.082031 123.929688 57.570312 L 123.929688 54.851562 L 122.308594 54.851562 L 122.308594 53.5 L 125.527344 53.5 L 125.527344 58.566406 C 125.101562 58.925781 124.507812 59.214844 123.746094 59.4375 C 122.984375 59.65625 122.242188 59.761719 121.523438 59.761719 C 119.910156 59.761719 118.632812 59.21875 117.695312 58.136719 C 116.761719 57.046875 116.296875 55.597656 116.296875 53.792969 C 116.296875 51.996094 116.808594 50.535156 117.832031 49.421875 C 118.859375 48.296875 120.246094 47.738281 121.988281 47.738281 C 123.207031 47.738281 124.203125 48.074219 124.96875 48.746094 Z M 124.96875 48.746094 " fill-opacity="1" fill-rule="nonzero"/></g><g clip-path="url(#id18)"><path fill="#262729" d="M 128.214844 47.9375 L 129.8125 47.9375 L 129.8125 59.566406 L 128.214844 59.566406 Z M 128.214844 47.9375 " fill-opacity="1" fill-rule="nonzero"/></g><g clip-path="url(#id19)"><path fill="#262729" d="M 132.492188 47.9375 L 134.089844 47.9375 L 134.089844 55.898438 C 134.089844 56.605469 134.316406 57.191406 134.769531 57.652344 C 135.222656 58.105469 135.820312 58.335938 136.566406 58.335938 C 137.355469 58.335938 137.976562 58.113281 138.429688 57.667969 C 138.882812 57.222656 139.109375 56.621094 139.109375 55.859375 L 139.109375 47.9375 L 140.707031 47.9375 L 140.707031 56.023438 C 140.707031 57.199219 140.339844 58.117188 139.597656 58.777344 C 138.863281 59.433594 137.855469 59.761719 136.585938 59.761719 C 135.273438 59.761719 134.261719 59.441406 133.554688 58.792969 C 132.84375 58.148438 132.492188 57.222656 132.492188 56.015625 Z M 132.492188 47.9375 " fill-opacity="1" fill-rule="nonzero"/></g><g clip-path="url(#id20)"><path fill="#262729" d="M 143.105469 59.566406 L 143.105469 47.9375 L 144.703125 47.9375 L 144.703125 58.136719 L 149.996094 58.136719 L 149.996094 59.566406 Z M 143.105469 59.566406 " fill-opacity="1" fill-rule="nonzero"/></g><g clip-path="url(#id21)"><path fill="#262729" d="M 151.683594 47.9375 L 153.28125 47.9375 L 153.28125 59.566406 L 151.683594 59.566406 Z M 151.683594 47.9375 " fill-opacity="1" fill-rule="nonzero"/></g><g clip-path="url(#id22)"><path fill="#262729" d="M 162.609375 59.566406 L 161.800781 57.113281 L 157.445312 57.113281 L 156.582031 59.566406 L 154.792969 59.566406 L 159.546875 47.777344 L 159.972656 47.777344 L 164.382812 59.566406 Z M 159.683594 50.824219 L 157.871094 55.945312 L 161.347656 55.945312 Z M 159.683594 50.824219 " fill-opacity="1" fill-rule="nonzero"/></g></svg>