<?xml version="1.0" encoding="UTF-8"?>
<svg xmlns="http://www.w3.org/2000/svg" xmlns:xlink="http://www.w3.org/1999/xlink" width="165pt" height="82.499998pt" viewBox="0 0 165 82.499998" version="1.2">
<defs>
<clipPath id="clip1">
  <path d="M 0.496094 0 L 164.503906 0 L 164.503906 82.003906 L 0.496094 82.003906 Z M 0.496094 0 "/>
</clipPath>
<clipPath id="clip2">
  <path d="M 12.339844 0 L 153.066406 0 L 153.066406 82.003906 L 12.339844 82.003906 Z M 12.339844 0 "/>
</clipPath>
</defs>
<g id="surface1">
<g clip-path="url(#clip1)" clip-rule="nonzero">
<path style=" stroke:none;fill-rule:nonzero;fill:rgb(100%,100%,100%);fill-opacity:1;" d="M 0.496094 0 L 164.503906 0 L 164.503906 529.292969 L 0.496094 529.292969 Z M 0.496094 0 "/>
<path style=" stroke:none;fill-rule:nonzero;fill:rgb(100%,100%,100%);fill-opacity:1;" d="M 0.496094 0 L 164.503906 0 L 164.503906 82.003906 L 0.496094 82.003906 Z M 0.496094 0 "/>
<path style=" stroke:none;fill-rule:nonzero;fill:rgb(100%,100%,100%);fill-opacity:1;" d="M 0.496094 0 L 164.503906 0 L 164.503906 82.003906 L 0.496094 82.003906 Z M 0.496094 0 "/>
</g>
<g clip-path="url(#clip2)" clip-rule="nonzero">
<path style=" stroke:none;fill-rule:nonzero;fill:rgb(100%,100%,100%);fill-opacity:1;" d="M 12.339844 -5.160156 L 153.144531 -5.160156 L 153.144531 87.410156 L 12.339844 87.410156 Z M 12.339844 -5.160156 "/>
</g>
<path style=" stroke:none;fill-rule:nonzero;fill:rgb(0%,31.369019%,64.309692%);fill-opacity:1;" d="M 53.101562 68.894531 L 56.804688 68.894531 L 56.804688 72.597656 L 53.101562 72.597656 Z M 53.101562 68.894531 "/>
<path style=" stroke:none;fill-rule:nonzero;fill:rgb(0%,31.369019%,64.309692%);fill-opacity:1;" d="M 49.394531 68.894531 L 53.101562 68.894531 L 53.101562 72.597656 L 49.394531 72.597656 Z M 49.394531 68.894531 "/>
<path style=" stroke:none;fill-rule:nonzero;fill:rgb(0%,31.369019%,64.309692%);fill-opacity:1;" d="M 45.6875 68.894531 L 49.394531 68.894531 L 49.394531 72.597656 L 45.6875 72.597656 Z M 45.6875 68.894531 "/>
<path style=" stroke:none;fill-rule:nonzero;fill:rgb(0%,31.369019%,64.309692%);fill-opacity:1;" d="M 41.984375 68.894531 L 45.6875 68.894531 L 45.6875 72.597656 L 41.984375 72.597656 Z M 41.984375 68.894531 "/>
<path style=" stroke:none;fill-rule:nonzero;fill:rgb(0%,31.369019%,64.309692%);fill-opacity:1;" d="M 38.277344 68.894531 L 41.984375 68.894531 L 41.984375 72.597656 L 38.277344 72.597656 Z M 38.277344 68.894531 "/>
<path style=" stroke:none;fill-rule:nonzero;fill:rgb(0%,31.369019%,64.309692%);fill-opacity:1;" d="M 34.574219 68.894531 L 38.277344 68.894531 L 38.277344 72.597656 L 34.574219 72.597656 Z M 34.574219 68.894531 "/>
<path style=" stroke:none;fill-rule:nonzero;fill:rgb(0%,31.369019%,64.309692%);fill-opacity:1;" d="M 30.867188 68.894531 L 34.574219 68.894531 L 34.574219 72.597656 L 30.867188 72.597656 Z M 30.867188 68.894531 "/>
<path style=" stroke:none;fill-rule:nonzero;fill:rgb(0%,31.369019%,64.309692%);fill-opacity:1;" d="M 56.804688 65.191406 L 60.511719 65.191406 L 60.511719 68.894531 L 56.804688 68.894531 Z M 56.804688 65.191406 "/>
<path style=" stroke:none;fill-rule:nonzero;fill:rgb(0%,31.369019%,64.309692%);fill-opacity:1;" d="M 53.101562 65.191406 L 56.804688 65.191406 L 56.804688 68.894531 L 53.101562 68.894531 Z M 53.101562 65.191406 "/>
<path style=" stroke:none;fill-rule:nonzero;fill:rgb(0%,31.369019%,64.309692%);fill-opacity:1;" d="M 49.394531 65.191406 L 53.101562 65.191406 L 53.101562 68.894531 L 49.394531 68.894531 Z M 49.394531 65.191406 "/>
<path style=" stroke:none;fill-rule:nonzero;fill:rgb(0%,31.369019%,64.309692%);fill-opacity:1;" d="M 45.6875 65.191406 L 49.394531 65.191406 L 49.394531 68.894531 L 45.6875 68.894531 Z M 45.6875 65.191406 "/>
<path style=" stroke:none;fill-rule:nonzero;fill:rgb(0%,31.369019%,64.309692%);fill-opacity:1;" d="M 41.984375 65.191406 L 45.6875 65.191406 L 45.6875 68.894531 L 41.984375 68.894531 Z M 41.984375 65.191406 "/>
<path style=" stroke:none;fill-rule:nonzero;fill:rgb(0%,31.369019%,64.309692%);fill-opacity:1;" d="M 38.277344 65.191406 L 41.984375 65.191406 L 41.984375 68.894531 L 38.277344 68.894531 Z M 38.277344 65.191406 "/>
<path style=" stroke:none;fill-rule:nonzero;fill:rgb(0%,31.369019%,64.309692%);fill-opacity:1;" d="M 34.574219 65.191406 L 38.277344 65.191406 L 38.277344 68.894531 L 34.574219 68.894531 Z M 34.574219 65.191406 "/>
<path style=" stroke:none;fill-rule:nonzero;fill:rgb(0%,31.369019%,64.309692%);fill-opacity:1;" d="M 30.867188 65.191406 L 34.574219 65.191406 L 34.574219 68.894531 L 30.867188 68.894531 Z M 30.867188 65.191406 "/>
<path style=" stroke:none;fill-rule:nonzero;fill:rgb(0%,31.369019%,64.309692%);fill-opacity:1;" d="M 27.164062 65.191406 L 30.867188 65.191406 L 30.867188 68.894531 L 27.164062 68.894531 Z M 27.164062 65.191406 "/>
<path style=" stroke:none;fill-rule:nonzero;fill:rgb(0%,31.369019%,64.309692%);fill-opacity:1;" d="M 56.804688 61.488281 L 60.511719 61.488281 L 60.511719 65.191406 L 56.804688 65.191406 Z M 56.804688 61.488281 "/>
<path style=" stroke:none;fill-rule:nonzero;fill:rgb(0%,31.369019%,64.309692%);fill-opacity:1;" d="M 53.101562 61.488281 L 56.804688 61.488281 L 56.804688 65.191406 L 53.101562 65.191406 Z M 53.101562 61.488281 "/>
<path style=" stroke:none;fill-rule:nonzero;fill:rgb(0%,31.369019%,64.309692%);fill-opacity:1;" d="M 49.394531 61.488281 L 53.101562 61.488281 L 53.101562 65.191406 L 49.394531 65.191406 Z M 49.394531 61.488281 "/>
<path style=" stroke:none;fill-rule:nonzero;fill:rgb(0%,31.369019%,64.309692%);fill-opacity:1;" d="M 45.6875 61.488281 L 49.394531 61.488281 L 49.394531 65.191406 L 45.6875 65.191406 Z M 45.6875 61.488281 "/>
<path style=" stroke:none;fill-rule:nonzero;fill:rgb(0%,31.369019%,64.309692%);fill-opacity:1;" d="M 41.984375 61.488281 L 45.6875 61.488281 L 45.6875 65.191406 L 41.984375 65.191406 Z M 41.984375 61.488281 "/>
<path style=" stroke:none;fill-rule:nonzero;fill:rgb(29.019165%,56.469727%,88.62915%);fill-opacity:1;" d="M 38.277344 61.488281 L 41.984375 61.488281 L 41.984375 65.191406 L 38.277344 65.191406 Z M 38.277344 61.488281 "/>
<path style=" stroke:none;fill-rule:nonzero;fill:rgb(29.019165%,56.469727%,88.62915%);fill-opacity:1;" d="M 34.574219 61.488281 L 38.277344 61.488281 L 38.277344 65.191406 L 34.574219 65.191406 Z M 34.574219 61.488281 "/>
<path style=" stroke:none;fill-rule:nonzero;fill:rgb(0%,31.369019%,64.309692%);fill-opacity:1;" d="M 30.867188 61.488281 L 34.574219 61.488281 L 34.574219 65.191406 L 30.867188 65.191406 Z M 30.867188 61.488281 "/>
<path style=" stroke:none;fill-rule:nonzero;fill:rgb(0%,31.369019%,64.309692%);fill-opacity:1;" d="M 27.164062 61.488281 L 30.867188 61.488281 L 30.867188 65.191406 L 27.164062 65.191406 Z M 27.164062 61.488281 "/>
<path style=" stroke:none;fill-rule:nonzero;fill:rgb(0%,31.369019%,64.309692%);fill-opacity:1;" d="M 56.804688 57.785156 L 60.511719 57.785156 L 60.511719 61.488281 L 56.804688 61.488281 Z M 56.804688 57.785156 "/>
<path style=" stroke:none;fill-rule:nonzero;fill:rgb(0%,31.369019%,64.309692%);fill-opacity:1;" d="M 53.101562 57.785156 L 56.804688 57.785156 L 56.804688 61.488281 L 53.101562 61.488281 Z M 53.101562 57.785156 "/>
<path style=" stroke:none;fill-rule:nonzero;fill:rgb(0%,31.369019%,64.309692%);fill-opacity:1;" d="M 49.394531 57.785156 L 53.101562 57.785156 L 53.101562 61.488281 L 49.394531 61.488281 Z M 49.394531 57.785156 "/>
<path style=" stroke:none;fill-rule:nonzero;fill:rgb(0%,31.369019%,64.309692%);fill-opacity:1;" d="M 45.6875 57.785156 L 49.394531 57.785156 L 49.394531 61.488281 L 45.6875 61.488281 Z M 45.6875 57.785156 "/>
<path style=" stroke:none;fill-rule:nonzero;fill:rgb(0%,31.369019%,64.309692%);fill-opacity:1;" d="M 41.984375 57.785156 L 45.6875 57.785156 L 45.6875 61.488281 L 41.984375 61.488281 Z M 41.984375 57.785156 "/>
<path style=" stroke:none;fill-rule:nonzero;fill:rgb(0%,31.369019%,64.309692%);fill-opacity:1;" d="M 38.277344 57.785156 L 41.984375 57.785156 L 41.984375 61.488281 L 38.277344 61.488281 Z M 38.277344 57.785156 "/>
<path style=" stroke:none;fill-rule:nonzero;fill:rgb(29.019165%,56.469727%,88.62915%);fill-opacity:1;" d="M 34.574219 57.785156 L 38.277344 57.785156 L 38.277344 61.488281 L 34.574219 61.488281 Z M 34.574219 57.785156 "/>
<path style=" stroke:none;fill-rule:nonzero;fill:rgb(0%,31.369019%,64.309692%);fill-opacity:1;" d="M 30.867188 57.785156 L 34.574219 57.785156 L 34.574219 61.488281 L 30.867188 61.488281 Z M 30.867188 57.785156 "/>
<path style=" stroke:none;fill-rule:nonzero;fill:rgb(0%,31.369019%,64.309692%);fill-opacity:1;" d="M 27.164062 57.785156 L 30.867188 57.785156 L 30.867188 61.488281 L 27.164062 61.488281 Z M 27.164062 57.785156 "/>
<path style=" stroke:none;fill-rule:nonzero;fill:rgb(0%,31.369019%,64.309692%);fill-opacity:1;" d="M 56.804688 54.085938 L 60.511719 54.085938 L 60.511719 57.785156 L 56.804688 57.785156 Z M 56.804688 54.085938 "/>
<path style=" stroke:none;fill-rule:nonzero;fill:rgb(0%,31.369019%,64.309692%);fill-opacity:1;" d="M 53.101562 54.085938 L 56.804688 54.085938 L 56.804688 57.785156 L 53.101562 57.785156 Z M 53.101562 54.085938 "/>
<path style=" stroke:none;fill-rule:nonzero;fill:rgb(0%,31.369019%,64.309692%);fill-opacity:1;" d="M 49.394531 54.085938 L 53.101562 54.085938 L 53.101562 57.785156 L 49.394531 57.785156 Z M 49.394531 54.085938 "/>
<path style=" stroke:none;fill-rule:nonzero;fill:rgb(0%,31.369019%,64.309692%);fill-opacity:1;" d="M 45.6875 54.085938 L 49.394531 54.085938 L 49.394531 57.785156 L 45.6875 57.785156 Z M 45.6875 54.085938 "/>
<path style=" stroke:none;fill-rule:nonzero;fill:rgb(0%,31.369019%,64.309692%);fill-opacity:1;" d="M 41.984375 54.085938 L 45.6875 54.085938 L 45.6875 57.785156 L 41.984375 57.785156 Z M 41.984375 54.085938 "/>
<path style=" stroke:none;fill-rule:nonzero;fill:rgb(0%,31.369019%,64.309692%);fill-opacity:1;" d="M 38.277344 54.085938 L 41.984375 54.085938 L 41.984375 57.785156 L 38.277344 57.785156 Z M 38.277344 54.085938 "/>
<path style=" stroke:none;fill-rule:nonzero;fill:rgb(29.019165%,56.469727%,88.62915%);fill-opacity:1;" d="M 34.574219 54.085938 L 38.277344 54.085938 L 38.277344 57.785156 L 34.574219 57.785156 Z M 34.574219 54.085938 "/>
<path style=" stroke:none;fill-rule:nonzero;fill:rgb(29.019165%,56.469727%,88.62915%);fill-opacity:1;" d="M 30.867188 54.085938 L 34.574219 54.085938 L 34.574219 57.785156 L 30.867188 57.785156 Z M 30.867188 54.085938 "/>
<path style=" stroke:none;fill-rule:nonzero;fill:rgb(0%,31.369019%,64.309692%);fill-opacity:1;" d="M 27.164062 54.085938 L 30.867188 54.085938 L 30.867188 57.785156 L 27.164062 57.785156 Z M 27.164062 54.085938 "/>
<path style=" stroke:none;fill-rule:nonzero;fill:rgb(0%,31.369019%,64.309692%);fill-opacity:1;" d="M 56.804688 50.382812 L 60.511719 50.382812 L 60.511719 54.085938 L 56.804688 54.085938 Z M 56.804688 50.382812 "/>
<path style=" stroke:none;fill-rule:nonzero;fill:rgb(0%,31.369019%,64.309692%);fill-opacity:1;" d="M 53.101562 50.382812 L 56.804688 50.382812 L 56.804688 54.085938 L 53.101562 54.085938 Z M 53.101562 50.382812 "/>
<path style=" stroke:none;fill-rule:nonzero;fill:rgb(0%,31.369019%,64.309692%);fill-opacity:1;" d="M 49.394531 50.382812 L 53.101562 50.382812 L 53.101562 54.085938 L 49.394531 54.085938 Z M 49.394531 50.382812 "/>
<path style=" stroke:none;fill-rule:nonzero;fill:rgb(0%,31.369019%,64.309692%);fill-opacity:1;" d="M 45.6875 50.382812 L 49.394531 50.382812 L 49.394531 54.085938 L 45.6875 54.085938 Z M 45.6875 50.382812 "/>
<path style=" stroke:none;fill-rule:nonzero;fill:rgb(0%,31.369019%,64.309692%);fill-opacity:1;" d="M 41.984375 50.382812 L 45.6875 50.382812 L 45.6875 54.085938 L 41.984375 54.085938 Z M 41.984375 50.382812 "/>
<path style=" stroke:none;fill-rule:nonzero;fill:rgb(0%,31.369019%,64.309692%);fill-opacity:1;" d="M 38.277344 50.382812 L 41.984375 50.382812 L 41.984375 54.085938 L 38.277344 54.085938 Z M 38.277344 50.382812 "/>
<path style=" stroke:none;fill-rule:nonzero;fill:rgb(29.019165%,56.469727%,88.62915%);fill-opacity:1;" d="M 34.574219 50.382812 L 38.277344 50.382812 L 38.277344 54.085938 L 34.574219 54.085938 Z M 34.574219 50.382812 "/>
<path style=" stroke:none;fill-rule:nonzero;fill:rgb(29.019165%,56.469727%,88.62915%);fill-opacity:1;" d="M 30.867188 50.382812 L 34.574219 50.382812 L 34.574219 54.085938 L 30.867188 54.085938 Z M 30.867188 50.382812 "/>
<path style=" stroke:none;fill-rule:nonzero;fill:rgb(0%,31.369019%,64.309692%);fill-opacity:1;" d="M 27.164062 50.382812 L 30.867188 50.382812 L 30.867188 54.085938 L 27.164062 54.085938 Z M 27.164062 50.382812 "/>
<path style=" stroke:none;fill-rule:nonzero;fill:rgb(0%,31.369019%,64.309692%);fill-opacity:1;" d="M 56.804688 46.679688 L 60.511719 46.679688 L 60.511719 50.382812 L 56.804688 50.382812 Z M 56.804688 46.679688 "/>
<path style=" stroke:none;fill-rule:nonzero;fill:rgb(0%,31.369019%,64.309692%);fill-opacity:1;" d="M 53.101562 46.679688 L 56.804688 46.679688 L 56.804688 50.382812 L 53.101562 50.382812 Z M 53.101562 46.679688 "/>
<path style=" stroke:none;fill-rule:nonzero;fill:rgb(0%,31.369019%,64.309692%);fill-opacity:1;" d="M 49.394531 46.679688 L 53.101562 46.679688 L 53.101562 50.382812 L 49.394531 50.382812 Z M 49.394531 46.679688 "/>
<path style=" stroke:none;fill-rule:nonzero;fill:rgb(0%,31.369019%,64.309692%);fill-opacity:1;" d="M 45.6875 46.679688 L 49.394531 46.679688 L 49.394531 50.382812 L 45.6875 50.382812 Z M 45.6875 46.679688 "/>
<path style=" stroke:none;fill-rule:nonzero;fill:rgb(0%,31.369019%,64.309692%);fill-opacity:1;" d="M 41.984375 46.679688 L 45.6875 46.679688 L 45.6875 50.382812 L 41.984375 50.382812 Z M 41.984375 46.679688 "/>
<path style=" stroke:none;fill-rule:nonzero;fill:rgb(0%,31.369019%,64.309692%);fill-opacity:1;" d="M 38.277344 46.679688 L 41.984375 46.679688 L 41.984375 50.382812 L 38.277344 50.382812 Z M 38.277344 46.679688 "/>
<path style=" stroke:none;fill-rule:nonzero;fill:rgb(0%,31.369019%,64.309692%);fill-opacity:1;" d="M 34.574219 46.679688 L 38.277344 46.679688 L 38.277344 50.382812 L 34.574219 50.382812 Z M 34.574219 46.679688 "/>
<path style=" stroke:none;fill-rule:nonzero;fill:rgb(29.019165%,56.469727%,88.62915%);fill-opacity:1;" d="M 30.867188 46.679688 L 34.574219 46.679688 L 34.574219 50.382812 L 30.867188 50.382812 Z M 30.867188 46.679688 "/>
<path style=" stroke:none;fill-rule:nonzero;fill:rgb(0%,31.369019%,64.309692%);fill-opacity:1;" d="M 27.164062 46.679688 L 30.867188 46.679688 L 30.867188 50.382812 L 27.164062 50.382812 Z M 27.164062 46.679688 "/>
<path style=" stroke:none;fill-rule:nonzero;fill:rgb(0%,31.369019%,64.309692%);fill-opacity:1;" d="M 56.804688 42.976562 L 60.511719 42.976562 L 60.511719 46.679688 L 56.804688 46.679688 Z M 56.804688 42.976562 "/>
<path style=" stroke:none;fill-rule:nonzero;fill:rgb(0%,31.369019%,64.309692%);fill-opacity:1;" d="M 53.101562 42.976562 L 56.804688 42.976562 L 56.804688 46.679688 L 53.101562 46.679688 Z M 53.101562 42.976562 "/>
<path style=" stroke:none;fill-rule:nonzero;fill:rgb(0%,31.369019%,64.309692%);fill-opacity:1;" d="M 49.394531 42.976562 L 53.101562 42.976562 L 53.101562 46.679688 L 49.394531 46.679688 Z M 49.394531 42.976562 "/>
<path style=" stroke:none;fill-rule:nonzero;fill:rgb(0%,31.369019%,64.309692%);fill-opacity:1;" d="M 45.6875 42.976562 L 49.394531 42.976562 L 49.394531 46.679688 L 45.6875 46.679688 Z M 45.6875 42.976562 "/>
<path style=" stroke:none;fill-rule:nonzero;fill:rgb(0%,31.369019%,64.309692%);fill-opacity:1;" d="M 41.984375 42.976562 L 45.6875 42.976562 L 45.6875 46.679688 L 41.984375 46.679688 Z M 41.984375 42.976562 "/>
<path style=" stroke:none;fill-rule:nonzero;fill:rgb(0%,31.369019%,64.309692%);fill-opacity:1;" d="M 38.277344 42.976562 L 41.984375 42.976562 L 41.984375 46.679688 L 38.277344 46.679688 Z M 38.277344 42.976562 "/>
<path style=" stroke:none;fill-rule:nonzero;fill:rgb(0%,31.369019%,64.309692%);fill-opacity:1;" d="M 34.574219 42.976562 L 38.277344 42.976562 L 38.277344 46.679688 L 34.574219 46.679688 Z M 34.574219 42.976562 "/>
<path style=" stroke:none;fill-rule:nonzero;fill:rgb(0%,31.369019%,64.309692%);fill-opacity:1;" d="M 30.867188 42.976562 L 34.574219 42.976562 L 34.574219 46.679688 L 30.867188 46.679688 Z M 30.867188 42.976562 "/>
<path style=" stroke:none;fill-rule:nonzero;fill:rgb(0%,31.369019%,64.309692%);fill-opacity:1;" d="M 27.164062 42.976562 L 30.867188 42.976562 L 30.867188 46.679688 L 27.164062 46.679688 Z M 27.164062 42.976562 "/>
<path style=" stroke:none;fill-rule:nonzero;fill:rgb(0%,31.369019%,64.309692%);fill-opacity:1;" d="M 56.804688 39.273438 L 60.511719 39.273438 L 60.511719 42.976562 L 56.804688 42.976562 Z M 56.804688 39.273438 "/>
<path style=" stroke:none;fill-rule:nonzero;fill:rgb(0%,31.369019%,64.309692%);fill-opacity:1;" d="M 60.511719 39.273438 L 64.214844 39.273438 L 64.214844 42.976562 L 60.511719 42.976562 Z M 60.511719 39.273438 "/>
<path style=" stroke:none;fill-rule:nonzero;fill:rgb(0%,31.369019%,64.309692%);fill-opacity:1;" d="M 60.511719 42.976562 L 64.214844 42.976562 L 64.214844 46.679688 L 60.511719 46.679688 Z M 60.511719 42.976562 "/>
<path style=" stroke:none;fill-rule:nonzero;fill:rgb(0%,31.369019%,64.309692%);fill-opacity:1;" d="M 64.214844 42.976562 L 67.921875 42.976562 L 67.921875 46.679688 L 64.214844 46.679688 Z M 64.214844 42.976562 "/>
<path style=" stroke:none;fill-rule:nonzero;fill:rgb(0%,31.369019%,64.309692%);fill-opacity:1;" d="M 64.214844 46.679688 L 67.921875 46.679688 L 67.921875 50.382812 L 64.214844 50.382812 Z M 64.214844 46.679688 "/>
<path style=" stroke:none;fill-rule:nonzero;fill:rgb(0%,31.369019%,64.309692%);fill-opacity:1;" d="M 64.214844 50.382812 L 67.921875 50.382812 L 67.921875 54.085938 L 64.214844 54.085938 Z M 64.214844 50.382812 "/>
<path style=" stroke:none;fill-rule:nonzero;fill:rgb(0%,31.369019%,64.309692%);fill-opacity:1;" d="M 64.214844 54.085938 L 67.921875 54.085938 L 67.921875 57.785156 L 64.214844 57.785156 Z M 64.214844 54.085938 "/>
<path style=" stroke:none;fill-rule:nonzero;fill:rgb(96.078491%,65.098572%,13.729858%);fill-opacity:1;" d="M 75.332031 42.976562 L 79.039062 42.976562 L 79.039062 46.679688 L 75.332031 46.679688 Z M 75.332031 42.976562 "/>
<path style=" stroke:none;fill-rule:nonzero;fill:rgb(96.078491%,65.098572%,13.729858%);fill-opacity:1;" d="M 75.332031 46.679688 L 79.039062 46.679688 L 79.039062 50.382812 L 75.332031 50.382812 Z M 75.332031 46.679688 "/>
<path style=" stroke:none;fill-rule:nonzero;fill:rgb(96.078491%,65.098572%,13.729858%);fill-opacity:1;" d="M 75.332031 50.382812 L 79.039062 50.382812 L 79.039062 54.085938 L 75.332031 54.085938 Z M 75.332031 50.382812 "/>
<path style=" stroke:none;fill-rule:nonzero;fill:rgb(96.078491%,65.098572%,13.729858%);fill-opacity:1;" d="M 75.332031 54.085938 L 79.039062 54.085938 L 79.039062 57.785156 L 75.332031 57.785156 Z M 75.332031 54.085938 "/>
<path style=" stroke:none;fill-rule:nonzero;fill:rgb(96.078491%,65.098572%,13.729858%);fill-opacity:1;" d="M 75.332031 57.785156 L 79.039062 57.785156 L 79.039062 61.488281 L 75.332031 61.488281 Z M 75.332031 57.785156 "/>
<path style=" stroke:none;fill-rule:nonzero;fill:rgb(96.078491%,65.098572%,13.729858%);fill-opacity:1;" d="M 90.152344 42.976562 L 93.859375 42.976562 L 93.859375 46.679688 L 90.152344 46.679688 Z M 90.152344 42.976562 "/>
<path style=" stroke:none;fill-rule:nonzero;fill:rgb(96.078491%,65.098572%,13.729858%);fill-opacity:1;" d="M 90.152344 46.679688 L 93.859375 46.679688 L 93.859375 50.382812 L 90.152344 50.382812 Z M 90.152344 46.679688 "/>
<path style=" stroke:none;fill-rule:nonzero;fill:rgb(96.078491%,65.098572%,13.729858%);fill-opacity:1;" d="M 90.152344 39.273438 L 93.859375 39.273438 L 93.859375 42.976562 L 90.152344 42.976562 Z M 90.152344 39.273438 "/>
<path style=" stroke:none;fill-rule:nonzero;fill:rgb(96.078491%,65.098572%,13.729858%);fill-opacity:1;" d="M 90.152344 39.273438 L 93.859375 39.273438 L 93.859375 42.976562 L 90.152344 42.976562 Z M 90.152344 39.273438 "/>
<path style=" stroke:none;fill-rule:nonzero;fill:rgb(96.078491%,65.098572%,13.729858%);fill-opacity:1;" d="M 75.332031 39.273438 L 79.039062 39.273438 L 79.039062 42.976562 L 75.332031 42.976562 Z M 75.332031 39.273438 "/>
<path style=" stroke:none;fill-rule:nonzero;fill:rgb(96.078491%,65.098572%,13.729858%);fill-opacity:1;" d="M 79.039062 39.273438 L 82.742188 39.273438 L 82.742188 42.976562 L 79.039062 42.976562 Z M 79.039062 39.273438 "/>
<path style=" stroke:none;fill-rule:nonzero;fill:rgb(96.078491%,65.098572%,13.729858%);fill-opacity:1;" d="M 82.742188 39.273438 L 86.449219 39.273438 L 86.449219 42.976562 L 82.742188 42.976562 Z M 82.742188 39.273438 "/>
<path style=" stroke:none;fill-rule:nonzero;fill:rgb(96.078491%,65.098572%,13.729858%);fill-opacity:1;" d="M 82.742188 42.976562 L 86.449219 42.976562 L 86.449219 46.679688 L 82.742188 46.679688 Z M 82.742188 42.976562 "/>
<path style=" stroke:none;fill-rule:nonzero;fill:rgb(96.078491%,65.098572%,13.729858%);fill-opacity:1;" d="M 82.742188 46.679688 L 86.449219 46.679688 L 86.449219 50.382812 L 82.742188 50.382812 Z M 82.742188 46.679688 "/>
<path style=" stroke:none;fill-rule:nonzero;fill:rgb(96.078491%,65.098572%,13.729858%);fill-opacity:1;" d="M 86.449219 39.273438 L 90.152344 39.273438 L 90.152344 42.976562 L 86.449219 42.976562 Z M 86.449219 39.273438 "/>
<path style=" stroke:none;fill-rule:nonzero;fill:rgb(96.078491%,65.098572%,13.729858%);fill-opacity:1;" d="M 75.332031 39.273438 L 79.039062 39.273438 L 79.039062 42.976562 L 75.332031 42.976562 Z M 75.332031 39.273438 "/>
<path style=" stroke:none;fill-rule:nonzero;fill:rgb(96.078491%,65.098572%,13.729858%);fill-opacity:1;" d="M 90.152344 50.382812 L 93.859375 50.382812 L 93.859375 54.085938 L 90.152344 54.085938 Z M 90.152344 50.382812 "/>
<path style=" stroke:none;fill-rule:nonzero;fill:rgb(96.078491%,65.098572%,13.729858%);fill-opacity:1;" d="M 90.152344 54.085938 L 93.859375 54.085938 L 93.859375 57.785156 L 90.152344 57.785156 Z M 90.152344 54.085938 "/>
<path style=" stroke:none;fill-rule:nonzero;fill:rgb(96.078491%,65.098572%,13.729858%);fill-opacity:1;" d="M 90.152344 54.085938 L 93.859375 54.085938 L 93.859375 57.785156 L 90.152344 57.785156 Z M 90.152344 54.085938 "/>
<path style=" stroke:none;fill-rule:nonzero;fill:rgb(96.078491%,65.098572%,13.729858%);fill-opacity:1;" d="M 90.152344 57.785156 L 93.859375 57.785156 L 93.859375 61.488281 L 90.152344 61.488281 Z M 90.152344 57.785156 "/>
<path style=" stroke:none;fill-rule:nonzero;fill:rgb(96.078491%,65.098572%,13.729858%);fill-opacity:1;" d="M 97.5625 42.976562 L 101.269531 42.976562 L 101.269531 46.679688 L 97.5625 46.679688 Z M 97.5625 42.976562 "/>
<path style=" stroke:none;fill-rule:nonzero;fill:rgb(96.078491%,65.098572%,13.729858%);fill-opacity:1;" d="M 97.5625 46.679688 L 101.269531 46.679688 L 101.269531 50.382812 L 97.5625 50.382812 Z M 97.5625 46.679688 "/>
<path style=" stroke:none;fill-rule:nonzero;fill:rgb(96.078491%,65.098572%,13.729858%);fill-opacity:1;" d="M 97.5625 50.382812 L 101.269531 50.382812 L 101.269531 54.085938 L 97.5625 54.085938 Z M 97.5625 50.382812 "/>
<path style=" stroke:none;fill-rule:nonzero;fill:rgb(96.078491%,65.098572%,13.729858%);fill-opacity:1;" d="M 101.269531 57.785156 L 104.972656 57.785156 L 104.972656 61.488281 L 101.269531 61.488281 Z M 101.269531 57.785156 "/>
<path style=" stroke:none;fill-rule:nonzero;fill:rgb(96.078491%,65.098572%,13.729858%);fill-opacity:1;" d="M 97.5625 57.785156 L 101.269531 57.785156 L 101.269531 61.488281 L 97.5625 61.488281 Z M 97.5625 57.785156 "/>
<path style=" stroke:none;fill-rule:nonzero;fill:rgb(96.078491%,65.098572%,13.729858%);fill-opacity:1;" d="M 104.972656 57.785156 L 108.679688 57.785156 L 108.679688 61.488281 L 104.972656 61.488281 Z M 104.972656 57.785156 "/>
<path style=" stroke:none;fill-rule:nonzero;fill:rgb(96.078491%,65.098572%,13.729858%);fill-opacity:1;" d="M 108.679688 57.785156 L 112.386719 57.785156 L 112.386719 61.488281 L 108.679688 61.488281 Z M 108.679688 57.785156 "/>
<path style=" stroke:none;fill-rule:nonzero;fill:rgb(96.078491%,65.098572%,13.729858%);fill-opacity:1;" d="M 112.386719 57.785156 L 116.089844 57.785156 L 116.089844 61.488281 L 112.386719 61.488281 Z M 112.386719 57.785156 "/>
<path style=" stroke:none;fill-rule:nonzero;fill:rgb(96.078491%,65.098572%,13.729858%);fill-opacity:1;" d="M 112.386719 42.976562 L 116.089844 42.976562 L 116.089844 46.679688 L 112.386719 46.679688 Z M 112.386719 42.976562 "/>
<path style=" stroke:none;fill-rule:nonzero;fill:rgb(96.078491%,65.098572%,13.729858%);fill-opacity:1;" d="M 97.5625 39.273438 L 101.269531 39.273438 L 101.269531 42.976562 L 97.5625 42.976562 Z M 97.5625 39.273438 "/>
<path style=" stroke:none;fill-rule:nonzero;fill:rgb(96.078491%,65.098572%,13.729858%);fill-opacity:1;" d="M 112.386719 39.273438 L 116.089844 39.273438 L 116.089844 42.976562 L 112.386719 42.976562 Z M 112.386719 39.273438 "/>
<path style=" stroke:none;fill-rule:nonzero;fill:rgb(96.078491%,65.098572%,13.729858%);fill-opacity:1;" d="M 112.386719 46.679688 L 116.089844 46.679688 L 116.089844 50.382812 L 112.386719 50.382812 Z M 112.386719 46.679688 "/>
<path style=" stroke:none;fill-rule:nonzero;fill:rgb(96.078491%,65.098572%,13.729858%);fill-opacity:1;" d="M 112.386719 50.382812 L 116.089844 50.382812 L 116.089844 54.085938 L 112.386719 54.085938 Z M 112.386719 50.382812 "/>
<path style=" stroke:none;fill-rule:nonzero;fill:rgb(96.078491%,65.098572%,13.729858%);fill-opacity:1;" d="M 97.5625 54.085938 L 101.269531 54.085938 L 101.269531 57.785156 L 97.5625 57.785156 Z M 97.5625 54.085938 "/>
<path style=" stroke:none;fill-rule:nonzero;fill:rgb(96.078491%,65.098572%,13.729858%);fill-opacity:1;" d="M 112.386719 54.085938 L 116.089844 54.085938 L 116.089844 57.785156 L 112.386719 57.785156 Z M 112.386719 54.085938 "/>
<path style=" stroke:none;fill-rule:nonzero;fill:rgb(96.078491%,65.098572%,13.729858%);fill-opacity:1;" d="M 119.796875 42.976562 L 123.5 42.976562 L 123.5 46.679688 L 119.796875 46.679688 Z M 119.796875 42.976562 "/>
<path style=" stroke:none;fill-rule:nonzero;fill:rgb(96.078491%,65.098572%,13.729858%);fill-opacity:1;" d="M 119.796875 39.273438 L 123.5 39.273438 L 123.5 42.976562 L 119.796875 42.976562 Z M 119.796875 39.273438 "/>
<path style=" stroke:none;fill-rule:nonzero;fill:rgb(96.078491%,65.098572%,13.729858%);fill-opacity:1;" d="M 119.796875 46.679688 L 123.5 46.679688 L 123.5 50.382812 L 119.796875 50.382812 Z M 119.796875 46.679688 "/>
<path style=" stroke:none;fill-rule:nonzero;fill:rgb(96.078491%,65.098572%,13.729858%);fill-opacity:1;" d="M 119.796875 50.382812 L 123.5 50.382812 L 123.5 54.085938 L 119.796875 54.085938 Z M 119.796875 50.382812 "/>
<path style=" stroke:none;fill-rule:nonzero;fill:rgb(96.078491%,65.098572%,13.729858%);fill-opacity:1;" d="M 119.796875 54.085938 L 123.5 54.085938 L 123.5 57.785156 L 119.796875 57.785156 Z M 119.796875 54.085938 "/>
<path style=" stroke:none;fill-rule:nonzero;fill:rgb(96.078491%,65.098572%,13.729858%);fill-opacity:1;" d="M 119.796875 57.785156 L 123.5 57.785156 L 123.5 61.488281 L 119.796875 61.488281 Z M 119.796875 57.785156 "/>
<path style=" stroke:none;fill-rule:nonzero;fill:rgb(96.078491%,65.098572%,13.729858%);fill-opacity:1;" d="M 123.5 57.785156 L 127.207031 57.785156 L 127.207031 61.488281 L 123.5 61.488281 Z M 123.5 57.785156 "/>
<path style=" stroke:none;fill-rule:nonzero;fill:rgb(96.078491%,65.098572%,13.729858%);fill-opacity:1;" d="M 127.207031 57.785156 L 130.910156 57.785156 L 130.910156 61.488281 L 127.207031 61.488281 Z M 127.207031 57.785156 "/>
<path style=" stroke:none;fill-rule:nonzero;fill:rgb(96.078491%,65.098572%,13.729858%);fill-opacity:1;" d="M 130.910156 57.785156 L 134.617188 57.785156 L 134.617188 61.488281 L 130.910156 61.488281 Z M 130.910156 57.785156 "/>
<path style=" stroke:none;fill-rule:nonzero;fill:rgb(96.078491%,65.098572%,13.729858%);fill-opacity:1;" d="M 130.910156 50.382812 L 134.617188 50.382812 L 134.617188 54.085938 L 130.910156 54.085938 Z M 130.910156 50.382812 "/>
<path style=" stroke:none;fill-rule:nonzero;fill:rgb(96.078491%,65.098572%,13.729858%);fill-opacity:1;" d="M 134.617188 50.382812 L 138.324219 50.382812 L 138.324219 54.085938 L 134.617188 54.085938 Z M 134.617188 50.382812 "/>
<path style=" stroke:none;fill-rule:nonzero;fill:rgb(96.078491%,65.098572%,13.729858%);fill-opacity:1;" d="M 134.617188 54.085938 L 138.324219 54.085938 L 138.324219 57.785156 L 134.617188 57.785156 Z M 134.617188 54.085938 "/>
<path style=" stroke:none;fill-rule:nonzero;fill:rgb(96.078491%,65.098572%,13.729858%);fill-opacity:1;" d="M 134.617188 57.785156 L 138.324219 57.785156 L 138.324219 61.488281 L 134.617188 61.488281 Z M 134.617188 57.785156 "/>
<path style=" stroke:none;fill-rule:nonzero;fill:rgb(96.078491%,65.098572%,13.729858%);fill-opacity:1;" d="M 119.796875 39.273438 L 123.5 39.273438 L 123.5 42.976562 L 119.796875 42.976562 Z M 119.796875 39.273438 "/>
<path style=" stroke:none;fill-rule:nonzero;fill:rgb(96.078491%,65.098572%,13.729858%);fill-opacity:1;" d="M 123.5 39.273438 L 127.207031 39.273438 L 127.207031 42.976562 L 123.5 42.976562 Z M 123.5 39.273438 "/>
<path style=" stroke:none;fill-rule:nonzero;fill:rgb(96.078491%,65.098572%,13.729858%);fill-opacity:1;" d="M 127.207031 39.273438 L 130.910156 39.273438 L 130.910156 42.976562 L 127.207031 42.976562 Z M 127.207031 39.273438 "/>
<path style=" stroke:none;fill-rule:nonzero;fill:rgb(96.078491%,65.098572%,13.729858%);fill-opacity:1;" d="M 130.910156 39.273438 L 134.617188 39.273438 L 134.617188 42.976562 L 130.910156 42.976562 Z M 130.910156 39.273438 "/>
<path style=" stroke:none;fill-rule:nonzero;fill:rgb(0%,31.369019%,64.309692%);fill-opacity:1;" d="M 60.511719 57.785156 L 64.214844 57.785156 L 64.214844 61.488281 L 60.511719 61.488281 Z M 60.511719 57.785156 "/>
<path style=" stroke:none;fill-rule:nonzero;fill:rgb(0%,31.369019%,64.309692%);fill-opacity:1;" d="M 60.511719 54.085938 L 64.214844 54.085938 L 64.214844 57.785156 L 60.511719 57.785156 Z M 60.511719 54.085938 "/>
<path style=" stroke:none;fill-rule:nonzero;fill:rgb(0%,31.369019%,64.309692%);fill-opacity:1;" d="M 53.101562 39.273438 L 56.804688 39.273438 L 56.804688 42.976562 L 53.101562 42.976562 Z M 53.101562 39.273438 "/>
<path style=" stroke:none;fill-rule:nonzero;fill:rgb(0%,31.369019%,64.309692%);fill-opacity:1;" d="M 49.394531 39.273438 L 53.101562 39.273438 L 53.101562 42.976562 L 49.394531 42.976562 Z M 49.394531 39.273438 "/>
<path style=" stroke:none;fill-rule:nonzero;fill:rgb(0%,31.369019%,64.309692%);fill-opacity:1;" d="M 45.6875 39.273438 L 49.394531 39.273438 L 49.394531 42.976562 L 45.6875 42.976562 Z M 45.6875 39.273438 "/>
<path style=" stroke:none;fill-rule:nonzero;fill:rgb(0%,31.369019%,64.309692%);fill-opacity:1;" d="M 41.984375 39.273438 L 45.6875 39.273438 L 45.6875 42.976562 L 41.984375 42.976562 Z M 41.984375 39.273438 "/>
<path style=" stroke:none;fill-rule:nonzero;fill:rgb(0%,31.369019%,64.309692%);fill-opacity:1;" d="M 38.277344 39.273438 L 41.984375 39.273438 L 41.984375 42.976562 L 38.277344 42.976562 Z M 38.277344 39.273438 "/>
<path style=" stroke:none;fill-rule:nonzero;fill:rgb(0%,31.369019%,64.309692%);fill-opacity:1;" d="M 34.574219 39.273438 L 38.277344 39.273438 L 38.277344 42.976562 L 34.574219 42.976562 Z M 34.574219 39.273438 "/>
<path style=" stroke:none;fill-rule:nonzero;fill:rgb(0%,31.369019%,64.309692%);fill-opacity:1;" d="M 30.867188 39.273438 L 34.574219 39.273438 L 34.574219 42.976562 L 30.867188 42.976562 Z M 30.867188 39.273438 "/>
<path style=" stroke:none;fill-rule:nonzero;fill:rgb(0%,31.369019%,64.309692%);fill-opacity:1;" d="M 27.164062 39.273438 L 30.867188 39.273438 L 30.867188 42.976562 L 27.164062 42.976562 Z M 27.164062 39.273438 "/>
<path style=" stroke:none;fill-rule:nonzero;fill:rgb(0%,31.369019%,64.309692%);fill-opacity:1;" d="M 56.804688 35.570312 L 60.511719 35.570312 L 60.511719 39.273438 L 56.804688 39.273438 Z M 56.804688 35.570312 "/>
<path style=" stroke:none;fill-rule:nonzero;fill:rgb(0%,31.369019%,64.309692%);fill-opacity:1;" d="M 53.101562 35.570312 L 56.804688 35.570312 L 56.804688 39.273438 L 53.101562 39.273438 Z M 53.101562 35.570312 "/>
<path style=" stroke:none;fill-rule:nonzero;fill:rgb(0%,31.369019%,64.309692%);fill-opacity:1;" d="M 49.394531 35.570312 L 53.101562 35.570312 L 53.101562 39.273438 L 49.394531 39.273438 Z M 49.394531 35.570312 "/>
<path style=" stroke:none;fill-rule:nonzero;fill:rgb(0%,31.369019%,64.309692%);fill-opacity:1;" d="M 45.6875 35.570312 L 49.394531 35.570312 L 49.394531 39.273438 L 45.6875 39.273438 Z M 45.6875 35.570312 "/>
<path style=" stroke:none;fill-rule:nonzero;fill:rgb(0%,31.369019%,64.309692%);fill-opacity:1;" d="M 41.984375 35.570312 L 45.6875 35.570312 L 45.6875 39.273438 L 41.984375 39.273438 Z M 41.984375 35.570312 "/>
<path style=" stroke:none;fill-rule:nonzero;fill:rgb(0%,31.369019%,64.309692%);fill-opacity:1;" d="M 38.277344 35.570312 L 41.984375 35.570312 L 41.984375 39.273438 L 38.277344 39.273438 Z M 38.277344 35.570312 "/>
<path style=" stroke:none;fill-rule:nonzero;fill:rgb(0%,31.369019%,64.309692%);fill-opacity:1;" d="M 34.574219 35.570312 L 38.277344 35.570312 L 38.277344 39.273438 L 34.574219 39.273438 Z M 34.574219 35.570312 "/>
<path style=" stroke:none;fill-rule:nonzero;fill:rgb(0%,31.369019%,64.309692%);fill-opacity:1;" d="M 30.867188 35.570312 L 34.574219 35.570312 L 34.574219 39.273438 L 30.867188 39.273438 Z M 30.867188 35.570312 "/>
<path style=" stroke:none;fill-rule:nonzero;fill:rgb(0%,31.369019%,64.309692%);fill-opacity:1;" d="M 27.164062 35.570312 L 30.867188 35.570312 L 30.867188 39.273438 L 27.164062 39.273438 Z M 27.164062 35.570312 "/>
<path style=" stroke:none;fill-rule:nonzero;fill:rgb(0%,31.369019%,64.309692%);fill-opacity:1;" d="M 56.804688 31.867188 L 60.511719 31.867188 L 60.511719 35.570312 L 56.804688 35.570312 Z M 56.804688 31.867188 "/>
<path style=" stroke:none;fill-rule:nonzero;fill:rgb(0%,31.369019%,64.309692%);fill-opacity:1;" d="M 53.101562 31.867188 L 56.804688 31.867188 L 56.804688 35.570312 L 53.101562 35.570312 Z M 53.101562 31.867188 "/>
<path style=" stroke:none;fill-rule:nonzero;fill:rgb(0%,31.369019%,64.309692%);fill-opacity:1;" d="M 49.394531 31.867188 L 53.101562 31.867188 L 53.101562 35.570312 L 49.394531 35.570312 Z M 49.394531 31.867188 "/>
<path style=" stroke:none;fill-rule:nonzero;fill:rgb(0%,31.369019%,64.309692%);fill-opacity:1;" d="M 45.6875 31.867188 L 49.394531 31.867188 L 49.394531 35.570312 L 45.6875 35.570312 Z M 45.6875 31.867188 "/>
<path style=" stroke:none;fill-rule:nonzero;fill:rgb(0%,31.369019%,64.309692%);fill-opacity:1;" d="M 41.984375 31.867188 L 45.6875 31.867188 L 45.6875 35.570312 L 41.984375 35.570312 Z M 41.984375 31.867188 "/>
<path style=" stroke:none;fill-rule:nonzero;fill:rgb(0%,31.369019%,64.309692%);fill-opacity:1;" d="M 38.277344 31.867188 L 41.984375 31.867188 L 41.984375 35.570312 L 38.277344 35.570312 Z M 38.277344 31.867188 "/>
<path style=" stroke:none;fill-rule:nonzero;fill:rgb(0%,31.369019%,64.309692%);fill-opacity:1;" d="M 34.574219 31.867188 L 38.277344 31.867188 L 38.277344 35.570312 L 34.574219 35.570312 Z M 34.574219 31.867188 "/>
<path style=" stroke:none;fill-rule:nonzero;fill:rgb(60.778809%,60.778809%,60.778809%);fill-opacity:1;" d="M 34.574219 24.460938 L 38.277344 24.460938 L 38.277344 28.164062 L 34.574219 28.164062 Z M 34.574219 24.460938 "/>
<path style=" stroke:none;fill-rule:nonzero;fill:rgb(60.778809%,60.778809%,60.778809%);fill-opacity:1;" d="M 49.394531 24.460938 L 53.101562 24.460938 L 53.101562 28.164062 L 49.394531 28.164062 Z M 49.394531 24.460938 "/>
<path style=" stroke:none;fill-rule:nonzero;fill:rgb(60.778809%,60.778809%,60.778809%);fill-opacity:1;" d="M 53.101562 20.761719 L 56.804688 20.761719 L 56.804688 24.460938 L 53.101562 24.460938 Z M 53.101562 20.761719 "/>
<path style=" stroke:none;fill-rule:nonzero;fill:rgb(60.778809%,60.778809%,60.778809%);fill-opacity:1;" d="M 53.101562 17.058594 L 56.804688 17.058594 L 56.804688 20.761719 L 53.101562 20.761719 Z M 53.101562 17.058594 "/>
<path style=" stroke:none;fill-rule:nonzero;fill:rgb(60.778809%,60.778809%,60.778809%);fill-opacity:1;" d="M 49.394531 13.355469 L 53.101562 13.355469 L 53.101562 17.058594 L 49.394531 17.058594 Z M 49.394531 13.355469 "/>
<path style=" stroke:none;fill-rule:nonzero;fill:rgb(60.778809%,60.778809%,60.778809%);fill-opacity:1;" d="M 53.101562 9.652344 L 56.804688 9.652344 L 56.804688 13.355469 L 53.101562 13.355469 Z M 53.101562 9.652344 "/>
<path style=" stroke:none;fill-rule:nonzero;fill:rgb(60.778809%,60.778809%,60.778809%);fill-opacity:1;" d="M 41.984375 24.460938 L 45.6875 24.460938 L 45.6875 28.164062 L 41.984375 28.164062 Z M 41.984375 24.460938 "/>
<path style=" stroke:none;fill-rule:nonzero;fill:rgb(60.778809%,60.778809%,60.778809%);fill-opacity:1;" d="M 45.6875 20.761719 L 49.394531 20.761719 L 49.394531 24.460938 L 45.6875 24.460938 Z M 45.6875 20.761719 "/>
<path style=" stroke:none;fill-rule:nonzero;fill:rgb(60.778809%,60.778809%,60.778809%);fill-opacity:1;" d="M 41.984375 17.058594 L 45.6875 17.058594 L 45.6875 20.761719 L 41.984375 20.761719 Z M 41.984375 17.058594 "/>
<path style=" stroke:none;fill-rule:nonzero;fill:rgb(0%,31.369019%,64.309692%);fill-opacity:1;" d="M 30.867188 31.867188 L 34.574219 31.867188 L 34.574219 35.570312 L 30.867188 35.570312 Z M 30.867188 31.867188 "/>
<path style=" stroke:none;fill-rule:nonzero;fill:rgb(0%,31.369019%,64.309692%);fill-opacity:1;" d="M 27.164062 31.867188 L 30.867188 31.867188 L 30.867188 35.570312 L 27.164062 35.570312 Z M 27.164062 31.867188 "/>
</g>
</svg>
