<?xml version="1.0" encoding="UTF-8"?>
<svg xmlns="http://www.w3.org/2000/svg" xmlns:xlink="http://www.w3.org/1999/xlink" width="165pt" height="82.499998pt" viewBox="0 0 165 82.499998" version="1.2">
<defs>
<clipPath id="clip1">
  <path d="M 0.496094 0 L 164.503906 0 L 164.503906 82.003906 L 0.496094 82.003906 Z M 0.496094 0 "/>
</clipPath>
<clipPath id="clip2">
  <path d="M 52.085938 8.199219 L 113.214844 8.199219 L 113.214844 73.800781 L 52.085938 73.800781 Z M 52.085938 8.199219 "/>
</clipPath>
<clipPath id="clip3">
  <path d="M 82 8.199219 L 113.214844 8.199219 L 113.214844 73.800781 L 82 73.800781 Z M 82 8.199219 "/>
</clipPath>
</defs>
<g id="surface1">
<g clip-path="url(#clip1)" clip-rule="nonzero">
<path style=" stroke:none;fill-rule:nonzero;fill:rgb(100%,100%,100%);fill-opacity:1;" d="M 0.496094 0 L 164.503906 0 L 164.503906 82.003906 L 0.496094 82.003906 Z M 0.496094 0 "/>
<path style=" stroke:none;fill-rule:nonzero;fill:rgb(100%,100%,100%);fill-opacity:1;" d="M 0.496094 0 L 164.503906 0 L 164.503906 82.003906 L 0.496094 82.003906 Z M 0.496094 0 "/>
</g>
<g clip-path="url(#clip2)" clip-rule="nonzero">
<path style=" stroke:none;fill-rule:nonzero;fill:rgb(86.669922%,3.529358%,19.60907%);fill-opacity:1;" d="M 82.785156 8.199219 L 52.101562 19.09375 L 56.792969 59.441406 L 82.785156 73.800781 L 108.8125 59.441406 L 113.5 19.09375 Z M 82.785156 8.199219 "/>
</g>
<g clip-path="url(#clip3)" clip-rule="nonzero">
<path style=" stroke:none;fill-rule:nonzero;fill:rgb(76.469421%,8.628845%,19.219971%);fill-opacity:1;" d="M 82.785156 8.199219 L 82.785156 15.464844 L 82.785156 15.429688 L 82.785156 73.800781 L 108.8125 59.441406 L 113.5 19.09375 Z M 82.785156 8.199219 "/>
</g>
<path style=" stroke:none;fill-rule:nonzero;fill:rgb(100%,100%,100%);fill-opacity:1;" d="M 91.761719 51.046875 C 91.828125 50.28125 91.59375 49.515625 91.660156 48.746094 C 91.726562 48.082031 92.097656 47.414062 93 47.480469 C 93.4375 47.515625 93.972656 47.980469 94.074219 48.414062 C 94.171875 48.949219 94.207031 49.480469 94.171875 50.015625 C 94.140625 50.582031 94.207031 51.578125 94.140625 52.214844 C 94.574219 52.214844 95.011719 52.179688 95.445312 52.144531 C 95.3125 51.878906 95.3125 51.179688 95.3125 50.980469 C 95.34375 50.28125 95.179688 49.582031 95.210938 48.882812 C 95.246094 48.25 95.578125 47.683594 96.316406 47.75 C 96.683594 47.78125 97.121094 48.214844 97.1875 48.613281 C 97.289062 49.113281 97.289062 49.582031 97.253906 50.082031 C 97.222656 50.582031 97.253906 51.480469 97.222656 52.046875 C 97.589844 52.011719 97.925781 52.011719 98.257812 51.980469 C 98.226562 51.648438 98.226562 51.214844 98.226562 51.082031 C 98.257812 50.378906 98.125 49.714844 98.160156 49.046875 C 98.191406 48.449219 98.425781 47.882812 98.964844 47.914062 C 99.230469 47.949219 99.53125 48.347656 99.601562 48.746094 C 99.667969 49.214844 99.667969 49.714844 99.667969 50.179688 C 99.632812 50.613281 99.667969 51.3125 99.667969 51.847656 C 99.933594 51.8125 100.234375 51.8125 100.46875 51.78125 C 100.402344 51.511719 100.402344 50.980469 100.402344 50.8125 C 100.4375 50.214844 100.335938 49.613281 100.371094 49.046875 C 100.402344 48.515625 100.570312 48.015625 101.007812 48.082031 C 101.207031 48.113281 101.476562 48.480469 101.507812 48.816406 C 101.574219 49.214844 101.574219 49.648438 101.542969 50.082031 C 101.507812 50.515625 101.542969 51.246094 101.507812 51.746094 C 101.710938 51.714844 101.910156 51.714844 102.078125 51.679688 C 102.042969 51.445312 102.042969 50.945312 102.042969 50.8125 C 102.042969 50.246094 102.011719 49.714844 102.011719 49.148438 C 102.011719 48.648438 102.144531 48.179688 102.414062 48.25 C 102.546875 48.28125 102.714844 48.613281 102.75 48.914062 C 102.78125 49.3125 102.78125 49.679688 102.78125 50.082031 C 102.78125 50.480469 102.78125 51.148438 102.78125 51.613281 C 102.984375 51.578125 103.148438 51.578125 103.316406 51.546875 C 103.285156 51.3125 103.285156 50.914062 103.285156 50.8125 C 103.285156 50.3125 103.25 49.78125 103.25 49.28125 C 103.25 48.816406 103.351562 48.414062 103.550781 48.449219 C 103.652344 48.480469 103.785156 48.78125 103.785156 49.082031 C 103.820312 49.449219 103.820312 49.8125 103.820312 50.148438 C 103.820312 50.480469 103.820312 51.082031 103.820312 51.511719 C 103.988281 51.480469 104.15625 51.480469 104.289062 51.480469 C 104.289062 51.246094 104.289062 50.945312 104.289062 50.8125 C 104.289062 50.3125 104.253906 49.847656 104.253906 49.382812 C 104.253906 48.949219 104.355469 48.546875 104.523438 48.582031 C 104.625 48.613281 104.722656 48.882812 104.722656 49.179688 C 104.757812 49.515625 104.757812 49.847656 104.757812 50.179688 C 104.757812 50.480469 104.757812 51.011719 104.757812 51.414062 C 104.960938 51.378906 105.09375 51.378906 105.09375 51.378906 L 105.09375 41.21875 C 100.90625 36.488281 87.640625 36.851562 83.453125 37.085938 C 83.453125 37.085938 83.554688 37.917969 83.789062 38.820312 C 83.957031 39.453125 84.660156 41.785156 84.660156 41.785156 L 87.273438 41.949219 C 87.875 41.984375 87.976562 42.382812 88.042969 42.984375 L 88.511719 46.714844 L 91.058594 51.679688 C 91.160156 51.847656 91.191406 52.046875 91.191406 52.246094 C 91.425781 52.246094 91.628906 52.246094 91.863281 52.246094 C 91.761719 51.980469 91.726562 51.246094 91.761719 51.046875 Z M 104.558594 42.050781 C 104.65625 42.085938 104.792969 42.382812 104.792969 42.652344 C 104.824219 42.984375 104.824219 43.351562 104.824219 43.683594 C 104.824219 44.050781 104.824219 44.882812 104.824219 45.25 L 104.355469 45.214844 C 104.289062 45.214844 104.289062 44.484375 104.289062 44.316406 C 104.289062 43.816406 104.253906 43.351562 104.253906 42.851562 C 104.289062 42.417969 104.355469 42.019531 104.558594 42.050781 Z M 103.550781 41.71875 C 103.6875 41.75 103.851562 42.050781 103.886719 42.351562 C 103.921875 42.71875 103.921875 43.082031 103.921875 43.417969 C 103.921875 43.816406 103.921875 44.648438 103.886719 45.050781 C 103.886719 45.117188 103.25 45.015625 103.25 45.015625 C 103.183594 45.015625 103.148438 44.25 103.148438 44.082031 C 103.148438 43.582031 103.117188 43.050781 103.117188 42.550781 C 103.148438 42.117188 103.285156 41.683594 103.550781 41.71875 Z M 101.507812 42.316406 C 101.542969 41.816406 101.710938 41.351562 102.144531 41.382812 C 102.347656 41.417969 102.613281 41.75 102.648438 42.085938 C 102.714844 42.484375 102.714844 42.882812 102.679688 43.285156 C 102.648438 43.71875 102.75 44.550781 102.648438 44.984375 C 102.613281 45.183594 101.675781 45.050781 101.675781 45.050781 C 101.542969 45.050781 101.542969 44.214844 101.542969 44.015625 C 101.609375 43.449219 101.507812 42.882812 101.507812 42.316406 Z M 99.699219 42.050781 C 99.734375 41.519531 99.96875 41.019531 100.503906 41.085938 C 100.773438 41.117188 101.074219 41.484375 101.140625 41.816406 C 101.207031 42.25 101.207031 42.652344 101.207031 43.082031 C 101.175781 43.550781 101.207031 44.515625 101.140625 44.984375 L 99.933594 44.949219 C 99.765625 44.949219 99.765625 44.050781 99.765625 43.851562 C 99.765625 43.25 99.667969 42.652344 99.699219 42.050781 Z M 97.65625 41.917969 C 97.691406 41.382812 97.925781 40.886719 98.460938 40.953125 C 98.730469 40.984375 99.03125 41.351562 99.097656 41.683594 C 99.164062 42.117188 99.164062 42.515625 99.164062 42.949219 C 99.128906 43.417969 99.164062 44.382812 99.097656 44.851562 L 97.890625 44.78125 C 97.722656 44.78125 97.722656 43.882812 97.722656 43.683594 C 97.757812 43.082031 97.621094 42.515625 97.65625 41.917969 Z M 95.042969 41.519531 C 95.078125 40.917969 95.34375 40.351562 95.949219 40.386719 C 96.25 40.417969 96.617188 40.816406 96.683594 41.21875 C 96.753906 41.683594 96.785156 42.183594 96.753906 42.652344 C 96.71875 43.183594 96.785156 44.082031 96.71875 44.617188 L 95.246094 44.617188 C 95.078125 44.617188 95.109375 43.785156 95.109375 43.550781 C 95.144531 42.882812 95.011719 42.21875 95.042969 41.519531 Z M 93.605469 42.515625 C 93.570312 43.050781 93.636719 43.984375 93.570312 44.550781 C 93.570312 44.648438 91.558594 44.582031 91.558594 44.582031 C 91.292969 44.582031 91.292969 43.683594 91.292969 43.417969 C 91.324219 42.71875 91.125 42.019531 91.191406 41.316406 C 91.226562 40.683594 91.628906 40.117188 92.5 40.183594 C 92.933594 40.21875 93.4375 40.652344 93.535156 41.050781 C 93.636719 41.550781 93.636719 42.050781 93.605469 42.515625 Z M 93.605469 42.515625 "/>
<path style=" stroke:none;fill-rule:nonzero;fill:rgb(100%,100%,100%);fill-opacity:1;" d="M 75.414062 24.691406 C 75.214844 24.527344 74.777344 24.460938 74.109375 24.425781 C 73.90625 24.394531 73.035156 24.359375 72.9375 24.394531 C 61.378906 27.890625 61.246094 31.355469 61.246094 31.355469 L 60.441406 51.878906 C 60.8125 51.878906 60.644531 51.914062 60.976562 51.914062 C 60.910156 51.148438 60.910156 49.847656 60.945312 49.113281 C 60.976562 48.582031 61.414062 48.148438 61.648438 48.449219 C 61.847656 48.679688 61.949219 49.246094 61.917969 49.714844 C 61.882812 50.148438 61.917969 51.546875 61.847656 51.945312 C 62.082031 51.945312 62.316406 51.980469 62.550781 51.980469 C 62.484375 51.179688 62.484375 49.78125 62.519531 49.046875 C 62.550781 48.480469 63.121094 48.015625 63.390625 48.316406 C 63.625 48.582031 63.757812 49.179688 63.726562 49.679688 C 63.691406 50.113281 63.726562 51.546875 63.65625 52.011719 C 63.890625 52.011719 64.128906 52.011719 64.328125 52.046875 C 64.226562 51.179688 64.226562 49.679688 64.261719 48.847656 C 64.292969 48.25 65.066406 47.75 65.433594 48.082031 C 65.769531 48.347656 65.902344 48.980469 65.867188 49.515625 C 65.800781 50.015625 65.867188 51.679688 65.769531 52.078125 C 66.171875 52.078125 66.539062 52.113281 66.941406 52.113281 C 66.839844 51.613281 66.875 49.914062 66.808594 49.382812 C 66.738281 48.78125 66.941406 48.113281 67.34375 47.816406 C 67.777344 47.449219 68.714844 47.980469 68.75 48.648438 C 68.816406 49.546875 68.816406 51.246094 68.683594 52.179688 C 69.25 52.179688 69.789062 52.214844 70.324219 52.214844 C 70.222656 51.613281 70.257812 49.78125 70.191406 49.214844 C 70.121094 48.582031 70.324219 47.816406 70.757812 47.480469 C 71.261719 47.082031 72.234375 47.683594 72.300781 48.414062 C 72.402344 49.414062 72.367188 51.246094 72.234375 52.28125 C 72.835938 52.28125 73.472656 52.3125 74.042969 52.3125 C 73.875 51.8125 73.941406 49.714844 73.839844 49.082031 C 73.742188 48.382812 74.007812 47.613281 74.542969 47.25 C 75.148438 46.847656 76.386719 47.449219 76.453125 48.214844 C 76.554688 49.28125 76.519531 51.28125 76.351562 52.347656 C 77.125 52.347656 77.859375 52.378906 78.5625 52.378906 C 78.53125 51.347656 78.394531 48.847656 78.53125 47.847656 C 78.597656 47.414062 78.867188 47.082031 79.433594 47.015625 C 80.171875 46.914062 81.210938 47.480469 81.109375 48.449219 C 81.074219 48.746094 81.109375 49.082031 81.109375 49.382812 C 81.109375 49.679688 81.109375 49.980469 81.109375 50.378906 C 81.074219 50.878906 81.074219 52.011719 80.976562 52.445312 C 81.78125 52.445312 82.550781 52.445312 83.285156 52.445312 C 83.050781 52.011719 83.152344 49.679688 83.050781 48.980469 C 82.953125 48.25 83.253906 47.414062 83.855469 47.046875 C 84.558594 46.617188 85.964844 47.25 86.035156 48.082031 C 86.167969 49.214844 86.101562 51.3125 85.933594 52.445312 C 85.933594 52.445312 85.933594 52.445312 85.898438 52.480469 C 88.949219 52.480469 90.65625 52.414062 90.65625 52.414062 L 88.007812 47.25 L 87.574219 43.316406 C 87.574219 43.316406 87.539062 43.152344 87.441406 42.949219 C 87.375 42.816406 87.105469 42.851562 87.105469 42.851562 L 84.492188 42.652344 C 84.492188 42.652344 83.519531 40.152344 83.285156 39.285156 C 83.019531 38.253906 82.683594 36.820312 82.683594 36.820312 C 82.683594 36.820312 82.648438 36.519531 82.550781 36.421875 C 82.484375 36.355469 82.214844 36.355469 82.214844 36.355469 L 80.507812 36.1875 L 80.070312 36.1875 L 79.972656 35.921875 C 79.972656 35.921875 78.597656 31.988281 78.429688 31.121094 C 78.160156 30.191406 77.15625 28.289062 77.089844 28.058594 Z M 78.496094 40.417969 C 78.597656 40.019531 79.199219 39.585938 79.703125 39.585938 C 80.707031 39.519531 81.144531 40.117188 81.210938 40.71875 C 81.277344 41.417969 81.042969 42.085938 81.109375 42.785156 C 81.144531 43.015625 81.074219 44.015625 80.808594 44.050781 C 80.472656 44.082031 78.496094 43.949219 78.496094 43.949219 C 78.363281 43.417969 78.464844 42.417969 78.429688 41.882812 C 78.363281 41.382812 78.363281 40.886719 78.496094 40.417969 Z M 74.277344 32.457031 C 74.308594 31.890625 74.644531 31.355469 75.480469 31.355469 C 75.882812 31.355469 76.421875 31.722656 76.519531 32.089844 C 76.65625 32.523438 76.6875 32.957031 76.65625 33.421875 C 76.65625 33.921875 76.753906 34.820312 76.6875 35.320312 C 77.023438 35.621094 75.113281 35.886719 74.644531 35.585938 C 74.410156 35.488281 74.277344 33.089844 74.277344 32.457031 Z M 74.613281 39.953125 C 75.214844 39.652344 76.453125 40.152344 76.519531 40.75 C 76.621094 41.585938 76.519531 43.183594 76.351562 44.015625 C 76.320312 44.148438 74.308594 44.351562 74.074219 44.117188 C 73.839844 43.917969 73.976562 41.917969 73.90625 41.351562 C 73.808594 40.851562 74.074219 40.21875 74.613281 39.953125 Z M 72.167969 44.351562 C 72.132812 44.484375 70.492188 44.683594 70.289062 44.449219 C 70.089844 44.25 70.222656 42.316406 70.15625 41.785156 C 70.089844 41.25 70.324219 40.652344 70.757812 40.386719 C 71.261719 40.085938 72.265625 40.585938 72.300781 41.152344 C 72.402344 42.019531 72.332031 43.550781 72.167969 44.351562 Z M 74.074219 25.59375 C 74.410156 25.492188 74.8125 25.726562 74.8125 25.890625 C 74.710938 26.492188 74.210938 26.558594 73.707031 26.589844 C 73.539062 26.523438 73.035156 26.859375 73.070312 26.324219 C 73.070312 25.890625 73.640625 25.726562 74.074219 25.59375 Z M 71.796875 32.320312 C 72.132812 32.355469 72.535156 32.722656 72.601562 33.089844 C 72.703125 33.523438 72.703125 33.953125 72.667969 34.386719 C 72.636719 34.855469 72.703125 35.652344 72.636719 36.152344 C 72.636719 36.152344 71.328125 36.421875 70.925781 36.421875 C 70.757812 36.285156 70.726562 33.988281 70.757812 33.355469 C 70.792969 32.789062 71.09375 32.289062 71.796875 32.320312 Z M 71.296875 26.226562 C 71.496094 26.226562 71.898438 26.191406 71.898438 26.523438 C 71.863281 26.859375 71.496094 26.890625 71.195312 26.925781 C 71.0625 26.925781 70.757812 27.058594 70.757812 26.726562 C 70.726562 26.390625 71.027344 26.257812 71.296875 26.226562 Z M 68.382812 26.925781 C 68.648438 26.859375 68.984375 26.859375 69.015625 27.15625 C 69.050781 27.558594 68.648438 27.722656 68.347656 27.792969 C 68.148438 27.824219 67.746094 27.824219 67.746094 27.492188 C 67.777344 27.226562 68.011719 26.957031 68.382812 26.925781 Z M 67.777344 34.222656 C 67.8125 33.722656 68.046875 33.253906 68.648438 33.289062 C 68.917969 33.320312 69.25 33.65625 69.320312 33.988281 C 69.386719 34.386719 69.386719 34.789062 69.386719 35.1875 C 69.351562 35.621094 69.417969 36.355469 69.351562 36.820312 C 69.351562 36.820312 68.214844 37.085938 67.945312 37.085938 C 67.777344 36.953125 67.746094 34.789062 67.777344 34.222656 Z M 67.980469 40.917969 C 68.449219 40.917969 68.816406 41.183594 68.851562 41.71875 C 68.917969 42.449219 68.851562 43.882812 68.714844 44.617188 C 68.683594 44.714844 67.308594 44.917969 67.140625 44.714844 C 66.972656 44.550781 67.074219 42.75 67.042969 42.285156 C 66.972656 41.816406 67.34375 40.917969 67.980469 40.917969 Z M 66.203125 27.824219 C 66.472656 27.792969 66.839844 27.757812 66.839844 28.089844 C 66.839844 28.457031 66.570312 28.722656 66.171875 28.722656 C 65.867188 28.789062 65.535156 28.757812 65.566406 28.425781 C 65.566406 28.125 65.835938 27.859375 66.203125 27.824219 Z M 65.902344 34.386719 C 66.136719 34.421875 66.40625 34.722656 66.4375 35.019531 C 66.503906 35.386719 66.503906 35.71875 66.472656 36.085938 C 66.4375 36.488281 66.503906 37.121094 66.4375 37.519531 C 66.4375 37.519531 65.433594 37.984375 65.300781 37.851562 C 65.199219 37.753906 65.164062 35.71875 65.199219 35.222656 C 65.265625 34.753906 65.46875 34.355469 65.902344 34.386719 Z M 64.160156 29.089844 C 64.394531 29.089844 64.695312 29.125 64.796875 29.457031 C 64.761719 29.757812 64.527344 29.824219 64.261719 29.890625 C 63.992188 29.921875 63.824219 29.957031 63.757812 29.589844 C 63.691406 29.222656 63.890625 29.089844 64.160156 29.089844 Z M 64.863281 41.484375 C 65.230469 41.21875 65.96875 41.652344 66.003906 42.183594 C 66.035156 42.917969 66.003906 44.316406 65.867188 45.050781 C 65.835938 45.148438 64.628906 45.25 64.496094 45.082031 C 64.363281 44.917969 64.460938 43.25 64.394531 42.785156 C 64.363281 42.25 64.527344 41.71875 64.863281 41.484375 Z M 64.226562 35.886719 C 64.292969 36.21875 64.292969 36.585938 64.261719 36.921875 C 64.226562 37.285156 64.292969 38.019531 64.226562 38.386719 C 64.226562 38.386719 63.355469 38.820312 63.222656 38.71875 C 63.121094 38.621094 63.089844 36.585938 63.121094 36.085938 C 63.15625 35.652344 63.324219 35.253906 63.726562 35.289062 C 63.960938 35.289062 64.195312 35.585938 64.226562 35.886719 Z M 62.519531 30.355469 C 62.789062 30.289062 63.089844 30.390625 63.121094 30.625 C 63.15625 30.824219 62.921875 31.054688 62.621094 31.023438 C 62.386719 31.054688 62.082031 31.15625 62.015625 30.890625 C 62.015625 30.589844 62.21875 30.421875 62.519531 30.355469 Z M 63.054688 41.984375 C 63.324219 41.71875 63.859375 42.117188 63.859375 42.617188 C 63.890625 43.285156 63.859375 44.582031 63.757812 45.25 C 63.757812 45.347656 62.886719 45.449219 62.753906 45.28125 C 62.652344 45.117188 62.71875 43.582031 62.6875 43.152344 C 62.6875 42.683594 62.820312 42.183594 63.054688 41.984375 Z M 62.386719 37.820312 C 62.351562 38.152344 62.386719 38.753906 62.316406 39.085938 C 62.316406 39.085938 61.613281 39.585938 61.546875 39.484375 C 61.480469 39.386719 61.515625 37.554688 61.546875 37.121094 C 61.582031 36.753906 61.714844 36.421875 62.015625 36.453125 C 62.183594 36.488281 62.351562 36.71875 62.351562 36.988281 C 62.417969 37.253906 62.386719 37.554688 62.386719 37.820312 Z M 61.648438 42.449219 C 61.816406 42.21875 62.117188 42.585938 62.152344 43.050781 C 62.152344 43.683594 62.117188 44.917969 62.082031 45.550781 C 62.082031 45.648438 61.546875 45.75 61.480469 45.582031 C 61.414062 45.449219 61.480469 43.984375 61.480469 43.550781 C 61.449219 43.117188 61.515625 42.652344 61.648438 42.449219 Z M 61.648438 42.449219 "/>
</g>
</svg>
