<svg xmlns="http://www.w3.org/2000/svg" xmlns:xlink="http://www.w3.org/1999/xlink" width="165" viewBox="0 0 165 82.5" height="82.5" version="1.0"><defs><clipPath id="a"><path d="M 0.496094 0 L 164.503906 0 L 164.503906 82.003906 L 0.496094 82.003906 Z M 0.496094 0"/></clipPath><clipPath id="b"><path d="M 10 16 L 59 16 L 59 65 L 10 65 Z M 10 16"/></clipPath><clipPath id="c"><path d="M 35.707031 60.65625 C 36.6875 58.761719 37.808594 56.917969 38.613281 54.957031 C 39.609375 52.550781 41.269531 50.886719 43.828125 49.988281 C 44.253906 49.835938 44.761719 49.621094 45.160156 49.714844 C 47.832031 50.316406 50.480469 50.992188 53.257812 52.207031 L 36.535156 61.285156 L 35.707031 60.652344 M 29.683594 60.558594 C 24.503906 57.808594 19.363281 54.992188 14.222656 52.179688 C 14.046875 52.085938 13.972656 51.839844 13.621094 51.339844 C 17.113281 49.496094 20.472656 47.550781 24.023438 45.996094 C 24.742188 45.683594 26.847656 46.59375 27.207031 47.382812 C 28.921875 51.132812 30.28125 55.03125 31.683594 58.902344 C 31.851562 59.363281 31.703125 60.175781 31.355469 60.472656 C 31.171875 60.628906 30.808594 60.710938 30.445312 60.710938 C 30.179688 60.71875 29.925781 60.667969 29.683594 60.558594 M 32.59375 58.777344 C 31.023438 54.957031 29.585938 51.085938 28.21875 47.195312 C 27.730469 45.820312 28.574219 45.144531 30.015625 45.503906 C 32.476562 46.121094 35.007812 46.65625 37.273438 47.683594 C 38.4375 48.210938 39.097656 49.722656 39.871094 50.648438 C 39.566406 51.351562 39.4375 51.703125 39.265625 52.035156 C 38.070312 54.308594 36.921875 56.601562 35.644531 58.835938 C 35.234375 59.542969 34.640625 59.902344 34.058594 59.902344 C 33.480469 59.902344 32.90625 59.53125 32.597656 58.78125 M 36.398438 46.433594 C 34.652344 45.921875 32.886719 45.460938 31.152344 44.914062 C 29.308594 44.335938 28.949219 42.933594 30.457031 41.753906 C 32.65625 40.039062 34.949219 38.417969 37.289062 36.871094 C 38.644531 35.976562 39.949219 36.597656 40.179688 38.164062 C 40.433594 39.859375 40.570312 41.5625 40.710938 42.835938 C 40.839844 45.519531 40.03125 46.742188 38.226562 46.742188 C 37.601562 46.722656 36.992188 46.621094 36.398438 46.433594 M 41.621094 36.425781 L 53.546875 50.328125 C 43.707031 50.191406 40.253906 45 41.621094 36.425781 M 12.683594 44.394531 C 12.691406 40.671875 12.675781 36.953125 12.742188 33.238281 C 12.75 32.738281 13.0625 31.964844 13.441406 31.828125 C 13.894531 31.667969 14.78125 31.886719 15.117188 32.238281 C 17.960938 35.246094 20.789062 38.269531 23.472656 41.402344 C 24.621094 42.738281 23.976562 44.894531 22.382812 45.769531 C 19.332031 47.433594 16.25 49.046875 12.679688 50.949219 C 12.679688 48.363281 12.679688 46.378906 12.679688 44.394531 M 47.695312 42.136719 C 46.398438 40.625 45.078125 39.128906 43.816406 37.589844 C 42.21875 35.652344 42.746094 33.714844 45.097656 32.792969 C 47.226562 31.957031 49.351562 31.09375 51.519531 30.359375 C 53.144531 29.816406 54.6875 30.710938 54.710938 32.308594 C 54.800781 37.75 54.765625 43.199219 54.757812 48.644531 C 54.757812 48.90625 54.539062 49.164062 54.269531 49.769531 C 51.957031 47.089844 49.824219 44.613281 47.695312 42.136719 M 28.398438 41.011719 C 29.027344 39.46875 29.636719 37.921875 30.285156 36.386719 C 30.984375 34.726562 31.789062 33.101562 32.402344 31.414062 C 32.90625 30.039062 33.921875 28.855469 35.257812 29.582031 C 36.367188 30.191406 37.21875 31.761719 37.488281 33.035156 C 37.925781 35.121094 36.53125 36.558594 34.667969 37.691406 C 32.734375 38.859375 30.953125 40.246094 29.105469 41.539062 L 28.398438 41.011719 M 36.902344 29.449219 C 36.339844 28.507812 36.273438 27.457031 37.667969 27.527344 C 42.304688 27.765625 46.933594 28.230469 51.566406 28.605469 L 51.679688 29.285156 C 48.996094 30.304688 46.351562 31.472656 43.601562 32.296875 C 43.410156 32.347656 43.214844 32.375 43.015625 32.371094 C 41.109375 32.371094 37.585938 30.601562 36.902344 29.457031 M 23.289062 39.847656 C 21.109375 37.476562 18.871094 35.148438 16.828125 32.675781 C 16.28125 32.015625 15.96875 30.753906 16.269531 30.035156 C 16.570312 29.316406 17.722656 28.527344 18.59375 28.414062 C 21.976562 27.976562 25.402344 27.792969 29.15625 27.488281 C 31.730469 27.363281 32.671875 28.511719 31.632812 30.984375 C 30.5 33.6875 29.375 36.394531 28.179688 39.070312 C 27.585938 40.40625 26.664062 41.089844 25.660156 41.089844 C 24.882812 41.089844 24.054688 40.679688 23.285156 39.847656 M 16.226562 26.804688 C 21.6875 23.859375 27.148438 20.914062 32.609375 17.96875 C 34.753906 21.324219 32.691406 26.714844 28.074219 26.734375 C 24.214844 26.753906 20.363281 27.308594 16.507812 27.628906 L 16.226562 26.804688 M 49.085938 27.46875 C 45.753906 27.199219 42.421875 26.882812 39.089844 26.601562 C 36.953125 26.417969 34.40625 23.992188 34.34375 22.023438 C 34.304688 20.785156 34.335938 19.546875 34.335938 17.679688 L 51.488281 26.9375 C 51.472656 27.117188 51.460938 27.296875 51.445312 27.480469 C 50.949219 27.480469 50.453125 27.503906 49.957031 27.503906 C 49.667969 27.503906 49.375 27.496094 49.085938 27.472656 M 31.207031 17.597656 C 26.617188 20.296875 21.875 22.765625 17.171875 25.289062 C 16.304688 25.753906 15.34375 26.070312 15.019531 26.207031 C 11.539062 26.195312 10.078125 27.777344 10.722656 29.855469 C 11.269531 31.59375 11.746094 33.410156 11.804688 35.203125 C 11.960938 39.898438 11.949219 44.605469 11.847656 49.3125 C 11.804688 51.082031 12.335938 52.167969 14.066406 53.054688 C 18.960938 55.566406 23.769531 58.21875 28.542969 60.929688 C 29.464844 61.453125 30 62.542969 30.816406 63.269531 C 31.578125 63.941406 32.480469 64.949219 33.316406 64.945312 C 34.273438 64.945312 35.316406 64.082031 36.175781 63.433594 C 37.039062 62.78125 37.628906 61.683594 38.570312 61.15625 C 43.632812 58.320312 48.746094 55.558594 53.902344 52.871094 C 55.261719 52.164062 55.789062 51.347656 55.765625 49.878906 C 55.683594 44.355469 55.6875 38.832031 55.8125 33.308594 C 55.835938 32.347656 56.398438 31.234375 57.082031 30.484375 C 58.160156 29.304688 58.558594 28.140625 57.710938 26.832031 C 56.839844 25.496094 55.507812 25.410156 53.929688 25.757812 C 52.988281 25.96875 51.742188 25.941406 50.933594 25.523438 C 46.046875 23 41.210938 20.390625 36.433594 17.6875 C 35.460938 17.132812 34.597656 16.824219 33.714844 16.824219 C 32.925781 16.824219 32.121094 17.070312 31.210938 17.605469"/></clipPath><linearGradient x1="70.07" gradientTransform="matrix(.13666 0 0 .13605 .503 13.667)" xmlns:xlink="http://www.w3.org/1999/xlink" y1="200" x2="424.81" gradientUnits="userSpaceOnUse" y2="200" xlink:type="simple" xlink:actuate="onLoad" id="d" xlink:show="other"><stop stop-color="#6AA264" offset="0"/><stop stop-color="#6AA264" offset=".031"/><stop stop-color="#69A163" offset=".047"/><stop stop-color="#68A162" offset=".063"/><stop stop-color="#67A062" offset=".078"/><stop stop-color="#67A061" offset=".094"/><stop stop-color="#669F60" offset=".109"/><stop stop-color="#659F60" offset=".125"/><stop stop-color="#659E5F" offset=".141"/><stop stop-color="#649E5E" offset=".156"/><stop stop-color="#639E5E" offset=".172"/><stop stop-color="#629D5D" offset=".188"/><stop stop-color="#629D5D" offset=".203"/><stop stop-color="#619C5C" offset=".219"/><stop stop-color="#609C5B" offset=".234"/><stop stop-color="#609B5B" offset=".25"/><stop stop-color="#5F9B5A" offset=".266"/><stop stop-color="#5E9A59" offset=".281"/><stop stop-color="#5E9A59" offset=".297"/><stop stop-color="#5D9A58" offset=".313"/><stop stop-color="#5C9958" offset=".328"/><stop stop-color="#5B9957" offset=".344"/><stop stop-color="#5B9856" offset=".359"/><stop stop-color="#5A9856" offset=".375"/><stop stop-color="#599755" offset=".391"/><stop stop-color="#599755" offset=".406"/><stop stop-color="#589654" offset=".422"/><stop stop-color="#579653" offset=".438"/><stop stop-color="#579553" offset=".453"/><stop stop-color="#569552" offset=".469"/><stop stop-color="#559551" offset=".484"/><stop stop-color="#549451" offset=".5"/><stop stop-color="#549450" offset=".516"/><stop stop-color="#539350" offset=".531"/><stop stop-color="#52934F" offset=".547"/><stop stop-color="#52924E" offset=".563"/><stop stop-color="#51924E" offset=".578"/><stop stop-color="#50914D" offset=".594"/><stop stop-color="#50914C" offset=".609"/><stop stop-color="#4F914C" offset=".625"/><stop stop-color="#4E904B" offset=".641"/><stop stop-color="#4D904B" offset=".656"/><stop stop-color="#4D8F4A" offset=".672"/><stop stop-color="#4C8F49" offset=".688"/><stop stop-color="#4B8E49" offset=".703"/><stop stop-color="#4B8E48" offset=".719"/><stop stop-color="#4A8D47" offset=".734"/><stop stop-color="#498D47" offset=".75"/><stop stop-color="#488D46" offset=".766"/><stop stop-color="#488C46" offset=".781"/><stop stop-color="#478C45" offset=".797"/><stop stop-color="#468B44" offset=".813"/><stop stop-color="#468B44" offset=".828"/><stop stop-color="#458A43" offset=".844"/><stop stop-color="#448A43" offset=".859"/><stop stop-color="#448942" offset=".875"/><stop stop-color="#438941" offset=".891"/><stop stop-color="#428941" offset=".906"/><stop stop-color="#418840" offset=".922"/><stop stop-color="#41883F" offset=".938"/><stop stop-color="#40873F" offset=".953"/><stop stop-color="#3F873E" offset=".969"/><stop stop-color="#3F863E" offset=".984"/><stop stop-color="#3E863D" offset="1"/></linearGradient></defs><g clip-path="url(#a)" fill="#FFF"><path d="M 0.496094 0 L 164.503906 0 L 164.503906 82.003906 L 0.496094 82.003906 Z M 0.496094 0"/><path d="M 0.496094 0 L 164.503906 0 L 164.503906 82.003906 L 0.496094 82.003906 Z M 0.496094 0"/></g><path fill="#333" d="M 139.453125 32.492188 L 141.886719 32.492188 L 146.828125 47.082031 L 151.992188 32.492188 L 154.425781 32.492188 L 148.003906 50.410156 L 145.59375 50.410156 Z M 139.453125 32.492188"/><path fill="#333" d="M 130.375 47.230469 L 130.375 32.492188 L 132.636719 32.492188 L 132.636719 46.960938 C 132.628906 47.214844 132.664062 47.464844 132.746094 47.707031 C 132.816406 47.894531 132.949219 48.023438 133.140625 48.085938 C 133.289062 48.140625 133.441406 48.179688 133.59375 48.207031 C 133.785156 48.226562 133.972656 48.234375 134.160156 48.230469 L 141.316406 48.230469 L 141.316406 50.410156 L 133.816406 50.410156 C 133.390625 50.414062 132.96875 50.375 132.550781 50.285156 C 132.167969 50.199219 131.808594 50.058594 131.46875 49.859375 C 131.085938 49.625 130.816406 49.300781 130.660156 48.878906 C 130.453125 48.347656 130.359375 47.796875 130.375 47.230469 Z M 130.375 47.230469"/><path fill="#333" d="M 114.714844 34.671875 L 114.714844 32.496094 L 127.421875 32.496094 L 127.421875 34.671875 L 122.140625 34.671875 L 122.140625 50.410156 L 119.878906 50.410156 L 119.878906 34.671875 Z M 114.714844 34.671875"/><path fill="#333" d="M 104.191406 43.851562 C 104.183594 43.019531 104.226562 42.191406 104.316406 41.367188 C 104.375 40.757812 104.523438 40.171875 104.757812 39.605469 C 104.9375 39.171875 105.183594 38.78125 105.496094 38.429688 C 105.808594 38.101562 106.183594 37.871094 106.613281 37.730469 C 107.082031 37.570312 107.5625 37.457031 108.054688 37.402344 C 108.667969 37.339844 109.285156 37.308594 109.898438 37.316406 C 110.425781 37.316406 110.855469 37.324219 111.214844 37.339844 C 111.589844 37.359375 111.964844 37.40625 112.332031 37.476562 C 112.667969 37.53125 112.988281 37.632812 113.289062 37.78125 C 113.558594 37.933594 113.804688 38.113281 114.027344 38.328125 C 114.277344 38.5625 114.464844 38.839844 114.59375 39.160156 C 114.738281 39.542969 114.847656 39.9375 114.914062 40.34375 C 115 40.886719 115.042969 41.429688 115.035156 41.976562 C 115.035156 44.019531 113.886719 45.039062 111.59375 45.035156 L 106.453125 45.035156 C 106.453125 46.425781 106.636719 47.347656 107 47.800781 C 107.363281 48.257812 108.039062 48.484375 109.015625 48.484375 C 111.71875 48.484375 113.648438 48.390625 114.792969 48.210938 L 114.792969 49.851562 C 113.285156 50.304688 111.1875 50.53125 108.5 50.53125 C 106.84375 50.53125 105.714844 50.050781 105.109375 49.085938 C 104.5 48.125 104.195312 46.378906 104.191406 43.851562 Z M 106.453125 43.042969 L 111.347656 43.042969 C 112.296875 43.042969 112.773438 42.667969 112.773438 41.917969 C 112.785156 41.449219 112.753906 40.984375 112.675781 40.523438 C 112.617188 40.222656 112.476562 39.972656 112.246094 39.773438 C 112.003906 39.578125 111.730469 39.460938 111.425781 39.421875 C 110.941406 39.363281 110.460938 39.339844 109.972656 39.347656 C 109.582031 39.347656 109.285156 39.351562 109.089844 39.359375 C 108.890625 39.367188 108.648438 39.390625 108.363281 39.421875 C 108.148438 39.4375 107.941406 39.484375 107.738281 39.558594 C 107.574219 39.632812 107.417969 39.726562 107.269531 39.828125 C 107.097656 39.941406 106.96875 40.09375 106.890625 40.28125 C 106.816406 40.464844 106.738281 40.679688 106.65625 40.933594 C 106.566406 41.226562 106.511719 41.53125 106.496094 41.835938 C 106.46875 42.183594 106.453125 42.585938 106.453125 43.042969 Z M 106.453125 43.042969"/><path fill="#333" d="M 90.84375 43.972656 C 90.84375 43.191406 90.871094 42.496094 90.929688 41.894531 C 90.988281 41.273438 91.105469 40.664062 91.285156 40.070312 C 91.433594 39.519531 91.679688 39.019531 92.023438 38.5625 C 92.367188 38.144531 92.785156 37.824219 93.277344 37.597656 C 93.863281 37.328125 94.476562 37.203125 95.121094 37.21875 C 95.871094 37.234375 96.613281 37.320312 97.34375 37.476562 C 98.160156 37.628906 98.953125 37.859375 99.71875 38.171875 L 99.71875 31.199219 L 101.957031 31.199219 L 101.957031 50.410156 L 100.234375 50.410156 L 99.71875 48.992188 C 99.292969 49.316406 98.605469 49.660156 97.65625 50.019531 C 96.703125 50.375 95.859375 50.558594 95.121094 50.5625 C 92.265625 50.558594 90.839844 48.363281 90.84375 43.972656 Z M 93.105469 43.949219 C 93.105469 46.953125 93.859375 48.453125 95.367188 48.453125 C 96.710938 48.453125 98.160156 48.101562 99.71875 47.398438 L 99.71875 39.859375 C 98.292969 39.46875 96.84375 39.273438 95.367188 39.273438 C 94.917969 39.253906 94.507812 39.371094 94.136719 39.628906 C 93.824219 39.867188 93.574219 40.335938 93.386719 41.035156 C 93.199219 41.738281 93.105469 42.710938 93.105469 43.949219 Z M 93.105469 43.949219"/><path fill="#333" d="M 77.46875 44.097656 C 77.46875 42.320312 77.65625 40.9375 78.035156 39.957031 C 78.410156 38.976562 79.007812 38.289062 79.828125 37.890625 C 80.648438 37.492188 81.796875 37.289062 83.269531 37.289062 C 85.484375 37.289062 87.003906 37.78125 87.832031 38.761719 C 88.660156 39.738281 89.070312 41.519531 89.070312 44.097656 C 89.070312 46.527344 88.660156 48.207031 87.832031 49.136719 C 87.003906 50.066406 85.484375 50.535156 83.269531 50.535156 C 81.089844 50.535156 79.578125 50.054688 78.734375 49.09375 C 77.890625 48.132812 77.46875 46.464844 77.46875 44.097656 Z M 79.730469 44.097656 C 79.726562 44.675781 79.753906 45.257812 79.816406 45.832031 C 79.855469 46.253906 79.957031 46.65625 80.125 47.046875 C 80.242188 47.324219 80.402344 47.574219 80.601562 47.804688 C 80.800781 48.007812 81.039062 48.152344 81.316406 48.230469 C 81.597656 48.328125 81.890625 48.386719 82.1875 48.414062 C 82.46875 48.441406 82.828125 48.453125 83.269531 48.453125 C 83.714844 48.457031 84.15625 48.4375 84.597656 48.390625 C 84.9375 48.347656 85.261719 48.25 85.570312 48.097656 C 85.890625 47.945312 86.128906 47.707031 86.28125 47.386719 C 86.464844 46.976562 86.59375 46.546875 86.664062 46.101562 C 86.769531 45.4375 86.820312 44.769531 86.808594 44.097656 C 86.808594 43.363281 86.785156 42.738281 86.738281 42.222656 C 86.703125 41.78125 86.609375 41.347656 86.464844 40.925781 C 86.359375 40.628906 86.214844 40.351562 86.03125 40.09375 C 85.851562 39.871094 85.628906 39.710938 85.359375 39.617188 C 85.066406 39.503906 84.769531 39.429688 84.460938 39.398438 C 84.0625 39.359375 83.667969 39.34375 83.269531 39.347656 C 82.882812 39.34375 82.496094 39.359375 82.113281 39.398438 C 81.804688 39.433594 81.503906 39.5 81.214844 39.605469 C 80.941406 39.691406 80.710938 39.847656 80.53125 40.070312 C 80.34375 40.332031 80.195312 40.613281 80.089844 40.914062 C 79.933594 41.339844 79.839844 41.773438 79.804688 42.222656 C 79.753906 42.738281 79.730469 43.359375 79.730469 44.097656 Z M 79.730469 44.097656"/><path fill="#333" d="M 61.726562 50.410156 L 61.726562 32.492188 L 64.050781 32.492188 L 72.976562 46.226562 L 72.976562 32.492188 L 75.238281 32.492188 L 75.238281 50.410156 L 72.96875 50.410156 L 64.019531 36.703125 L 64.019531 50.410156 Z M 61.726562 50.410156"/><g clip-path="url(#b)"><g clip-path="url(#c)"><path fill="url(#d)" d="M 10.078125 16.824219 L 10.078125 64.949219 L 58.558594 64.949219 L 58.558594 16.824219 Z M 10.078125 16.824219"/></g></g></svg>