<?xml version="1.0" encoding="UTF-8"?>
<svg xmlns="http://www.w3.org/2000/svg" xmlns:xlink="http://www.w3.org/1999/xlink" width="165pt" height="82.499998pt" viewBox="0 0 165 82.499998" version="1.2">
<defs>
<clipPath id="clip1">
  <path d="M 0.496094 0 L 164.503906 0 L 164.503906 82.003906 L 0.496094 82.003906 Z M 0.496094 0 "/>
</clipPath>
</defs>
<g id="surface1">
<g clip-path="url(#clip1)" clip-rule="nonzero">
<path style=" stroke:none;fill-rule:nonzero;fill:rgb(100%,100%,100%);fill-opacity:1;" d="M 0.496094 0 L 164.503906 0 L 164.503906 82.003906 L 0.496094 82.003906 Z M 0.496094 0 "/>
<path style=" stroke:none;fill-rule:nonzero;fill:rgb(100%,100%,100%);fill-opacity:1;" d="M 0.496094 0 L 164.503906 0 L 164.503906 82.003906 L 0.496094 82.003906 Z M 0.496094 0 "/>
</g>
<path style=" stroke:none;fill-rule:nonzero;fill:rgb(95.289612%,57.249451%,0%);fill-opacity:1;" d="M 66.054688 69.015625 L 62.757812 69.015625 L 61.515625 65.726562 L 60.496094 68.40625 L 59.480469 65.726562 L 58.238281 69.015625 L 54.984375 69.015625 L 59.457031 58.800781 L 60.519531 61.261719 L 61.582031 58.800781 Z M 66.054688 69.015625 "/>
<path style=" stroke:none;fill-rule:nonzero;fill:rgb(95.289612%,57.249451%,0%);fill-opacity:1;" d="M 69.445312 59.117188 L 72.382812 59.117188 L 72.382812 69.015625 L 69.445312 69.015625 Z M 69.445312 59.117188 "/>
<path style=" stroke:none;fill-rule:nonzero;fill:rgb(95.289612%,57.249451%,0%);fill-opacity:1;" d="M 76.675781 59.117188 L 79.613281 59.117188 L 79.613281 66.085938 L 82.9375 66.085938 L 82.9375 69.015625 L 76.675781 69.015625 Z M 76.675781 59.117188 "/>
<path style=" stroke:none;fill-rule:nonzero;fill:rgb(95.289612%,57.249451%,0%);fill-opacity:1;" d="M 89.691406 68.519531 L 89.511719 69.015625 L 86.347656 69.015625 L 90.800781 58.800781 L 95.273438 69.015625 L 92.109375 69.015625 L 91.929688 68.519531 Z M 91.453125 67.304688 L 90.800781 65.542969 L 90.144531 67.304688 Z M 91.453125 67.304688 "/>
<path style=" stroke:none;fill-rule:nonzero;fill:rgb(95.289612%,57.249451%,0%);fill-opacity:1;" d="M 101.601562 69.015625 L 98.664062 69.015625 L 98.664062 58.824219 L 102.867188 62.816406 L 102.867188 59.09375 L 105.804688 59.09375 L 105.804688 69.289062 L 101.601562 65.296875 Z M 101.601562 69.015625 "/>
<path style=" stroke:none;fill-rule:nonzero;fill:rgb(95.289612%,57.249451%,0%);fill-opacity:1;" d="M 109.894531 64.078125 C 109.894531 61.238281 112.222656 58.914062 115.066406 58.914062 C 117.914062 58.914062 120.242188 61.238281 120.242188 64.078125 C 120.242188 66.917969 117.914062 69.21875 115.066406 69.21875 C 112.222656 69.21875 109.894531 66.917969 109.894531 64.078125 Z M 117.035156 64.078125 C 117.035156 62.996094 116.175781 62.117188 115.066406 62.117188 C 113.960938 62.117188 113.101562 62.996094 113.101562 64.078125 C 113.101562 65.136719 113.960938 66.039062 115.066406 66.039062 C 116.175781 66.039062 117.035156 65.136719 117.035156 64.078125 Z M 117.035156 64.078125 "/>
<path style=" stroke:none;fill-rule:nonzero;fill:rgb(39.99939%,51.368713%,72.549438%);fill-opacity:1;" d="M 55.773438 11.203125 C 53.785156 10.863281 51.140625 13.207031 51.097656 10.816406 C 51.074219 10.097656 49.761719 9.984375 49.761719 9.984375 C 34.351562 8.382812 31.664062 32.261719 31.1875 31.945312 C 31.074219 31.878906 30.960938 31.789062 30.851562 31.699219 C 30.195312 31.246094 29.472656 30.75 28.863281 30.253906 C 28.433594 29.960938 28.070312 29.714844 27.730469 29.511719 C 24.792969 27.707031 23.890625 30.074219 27.460938 36.480469 C 28.09375 37.628906 29.042969 38.667969 30.148438 39.589844 C 28.476562 52.667969 28.839844 68.070312 38.804688 71.8125 C 44.453125 73.933594 46.824219 71.65625 44.046875 65.117188 C 41.582031 59.320312 43.730469 50.074219 43.730469 50.074219 L 43.683594 50.121094 C 43.84375 49.195312 44 48.292969 44.160156 47.390625 C 44.226562 46.875 44.589844 46.511719 45.109375 46.511719 C 45.335938 46.511719 45.539062 46.582031 45.765625 46.648438 C 47.820312 47.527344 49.355469 48.113281 50.597656 48.113281 C 59.027344 48.113281 68.765625 39.117188 68.765625 28.96875 C 68.722656 21.191406 65.445312 12.800781 55.773438 11.203125 Z M 46.894531 35.847656 C 46.53125 35.847656 46.304688 35.621094 46.304688 35.261719 L 48.90625 23.558594 C 49.128906 22.835938 49.785156 22.316406 50.507812 22.316406 C 52.496094 22.316406 54.167969 23.851562 54.167969 26.558594 C 54.167969 31.15625 49.671875 35.847656 46.894531 35.847656 Z M 103.679688 13.367188 C 101.578125 12.507812 95.410156 10.886719 94.300781 10.886719 C 93.714844 10.886719 93.261719 11.269531 93.125 11.992188 C 92.605469 16.183594 90.4375 29.535156 87.613281 37.765625 C 86.4375 41.238281 85.714844 42.542969 84.539062 42.542969 C 83.75 42.542969 83.230469 41.441406 83.230469 39.660156 C 83.230469 34.5625 86.4375 21.730469 88.921875 14.472656 C 88.921875 14.472656 88.992188 14.269531 88.992188 14.085938 C 88.992188 13.570312 88.652344 12.984375 88.066406 12.78125 C 85.445312 11.675781 79.863281 10.300781 78.03125 10.300781 C 76.925781 10.300781 76.652344 10.75 76.203125 11.675781 C 74.304688 15.394531 70.101562 28.292969 70.101562 39.410156 C 70.101562 43.199219 71.140625 46.875 73.714844 49.21875 C 76.539062 51.902344 83.160156 54.179688 86.820312 54.179688 C 101.238281 54.179688 105.101562 26.761719 105.101562 16.09375 C 105.125 14.945312 105.058594 13.886719 103.679688 13.367188 Z M 122.457031 9.511719 C 112.175781 9.511719 105.285156 23.714844 105.285156 36.726562 C 105.285156 40.851562 106.796875 45.679688 109.351562 48.25 C 112.425781 51.316406 118.730469 54.203125 122.277344 54.203125 C 130.410156 54.203125 136.171875 47.980469 138.003906 43.605469 C 138.207031 43.222656 138.386719 42.363281 138.386719 41.777344 C 138.386719 38.960938 137.011719 33.210938 136.285156 30.910156 C 136.082031 30.1875 135.359375 29.667969 134.523438 29.601562 C 133.664062 29.535156 132.761719 29.535156 131.765625 29.535156 C 128.808594 29.535156 125.417969 29.738281 123.25 29.984375 C 122.253906 30.121094 121.9375 30.503906 121.871094 31.359375 L 121.871094 31.878906 C 121.871094 33.570312 122.140625 36.523438 122.59375 38.554688 C 122.730469 39.207031 123.316406 39.589844 124.039062 39.589844 L 125.621094 39.589844 C 126.003906 39.589844 126.207031 39.660156 126.207031 39.929688 C 126.207031 40.964844 124.039062 42.410156 122.546875 42.410156 C 120.445312 42.410156 119.269531 40.0625 119.269531 36.320312 C 119.269531 28.925781 123.203125 20.152344 125.824219 20.152344 C 126.933594 20.152344 127.519531 21.011719 127.722656 22.566406 C 127.859375 23.421875 127.859375 24.324219 127.925781 25.386719 C 127.925781 26.242188 128.0625 26.964844 129.101562 26.964844 C 131.203125 26.964844 135.449219 26.828125 137.824219 26.625 C 138.546875 26.558594 139.40625 26.039062 139.652344 25.316406 C 139.992188 24.210938 140.445312 22.363281 140.445312 20.019531 C 140.421875 13.5 127.5625 9.511719 122.457031 9.511719 Z M 122.457031 9.511719 "/>
</g>
</svg>
