<?xml version="1.0" encoding="UTF-8"?>
<svg xmlns="http://www.w3.org/2000/svg" xmlns:xlink="http://www.w3.org/1999/xlink" width="165pt" height="82.499998pt" viewBox="0 0 165 82.499998" version="1.2">
<defs>
<clipPath id="clip1">
  <path d="M 0.496094 0 L 164.503906 0 L 164.503906 82.003906 L 0.496094 82.003906 Z M 0.496094 0 "/>
</clipPath>
</defs>
<g id="surface1">
<g clip-path="url(#clip1)" clip-rule="nonzero">
<path style=" stroke:none;fill-rule:nonzero;fill:rgb(100%,100%,100%);fill-opacity:1;" d="M 0.496094 0 L 164.503906 0 L 164.503906 82.003906 L 0.496094 82.003906 Z M 0.496094 0 "/>
<path style=" stroke:none;fill-rule:nonzero;fill:rgb(100%,100%,100%);fill-opacity:1;" d="M 0.496094 0 L 164.503906 0 L 164.503906 82.003906 L 0.496094 82.003906 Z M 0.496094 0 "/>
</g>
<path style=" stroke:none;fill-rule:nonzero;fill:rgb(0%,58.428955%,80.389404%);fill-opacity:1;" d="M 72.746094 9.457031 L 95.773438 13.335938 L 103.933594 35.296875 L 89.066406 53.378906 L 66.042969 49.503906 L 57.882812 27.539062 Z M 72.746094 9.457031 "/>
<path style=" stroke:none;fill-rule:nonzero;fill:rgb(0%,0%,0%);fill-opacity:1;" d="M 59.570312 27.941406 C 59.519531 28.003906 59.496094 28.015625 59.484375 28.015625 L 59.386719 28.175781 Z M 59.570312 27.941406 "/>
<path style=" stroke:none;fill-rule:nonzero;fill:rgb(0%,0%,0%);fill-opacity:1;" d="M 66.46875 15.578125 L 66.480469 15.554688 C 66.453125 15.566406 66.429688 15.589844 66.40625 15.589844 C 66.417969 15.628906 66.417969 15.628906 66.46875 15.578125 Z M 66.46875 15.578125 "/>
<path style=" stroke:none;fill-rule:nonzero;fill:rgb(0%,0%,0%);fill-opacity:1;" d="M 64.730469 18.6875 C 64.683594 18.738281 64.644531 18.773438 64.597656 18.808594 C 64.609375 18.808594 64.65625 18.761719 64.730469 18.6875 Z M 64.730469 18.6875 "/>
<path style=" stroke:none;fill-rule:nonzero;fill:rgb(0%,0%,0%);fill-opacity:1;" d="M 60.722656 26.371094 L 60.40625 26.734375 C 60.46875 26.710938 60.601562 26.578125 60.722656 26.371094 Z M 60.722656 26.371094 "/>
<path style=" stroke:none;fill-rule:nonzero;fill:rgb(0%,0%,0%);fill-opacity:1;" d="M 65.046875 18.320312 C 64.960938 18.417969 64.828125 18.578125 64.730469 18.6875 C 64.839844 18.578125 64.9375 18.457031 65.046875 18.320312 Z M 65.046875 18.320312 "/>
<path style=" stroke:none;fill-rule:nonzero;fill:rgb(0%,0%,0%);fill-opacity:1;" d="M 70.207031 10.03125 C 70.148438 10.101562 70.074219 10.175781 70 10.273438 C 70 10.285156 70 10.296875 70.011719 10.308594 Z M 70.207031 10.03125 "/>
<path style=" stroke:none;fill-rule:nonzero;fill:rgb(0%,0%,0%);fill-opacity:1;" d="M 73.195312 11.285156 C 73.511719 11.285156 73.558594 11.261719 73.523438 11.226562 C 73.472656 11.25 73.378906 11.273438 73.195312 11.285156 Z M 73.195312 11.285156 "/>
<path style=" stroke:none;fill-rule:nonzero;fill:rgb(0%,0%,0%);fill-opacity:1;" d="M 80.90625 11.871094 C 80.847656 11.871094 80.785156 11.882812 80.738281 11.882812 C 80.859375 11.882812 80.929688 11.871094 80.90625 11.871094 Z M 80.90625 11.871094 "/>
<path style=" stroke:none;fill-rule:nonzero;fill:rgb(0%,0%,0%);fill-opacity:1;" d="M 76.523438 10.90625 C 76.511719 10.882812 76.5 10.871094 76.460938 10.859375 C 76.4375 10.871094 76.449219 10.882812 76.523438 10.90625 Z M 76.523438 10.90625 "/>
<path style=" stroke:none;fill-rule:nonzero;fill:rgb(0%,0%,0%);fill-opacity:1;" d="M 100.472656 42.929688 L 100.605469 42.796875 C 100.582031 42.808594 100.53125 42.855469 100.472656 42.929688 Z M 100.472656 42.929688 "/>
<path style=" stroke:none;fill-rule:nonzero;fill:rgb(0%,0%,0%);fill-opacity:1;" d="M 94.910156 51.476562 L 94.859375 51.550781 Z M 94.910156 51.476562 "/>
<path style=" stroke:none;fill-rule:nonzero;fill:rgb(0%,0%,0%);fill-opacity:1;" d="M 94.738281 51.734375 L 94.859375 51.5625 C 94.8125 51.636719 94.761719 51.699219 94.738281 51.734375 Z M 94.738281 51.734375 "/>
<path style=" stroke:none;fill-rule:nonzero;fill:rgb(0%,0%,0%);fill-opacity:1;" d="M 70.582031 9.882812 C 70.65625 9.640625 70.984375 9.117188 70.925781 9.054688 L 70.21875 10.03125 C 70.5 9.710938 70.707031 9.589844 70.582031 9.882812 Z M 70.582031 9.882812 "/>
<path style=" stroke:none;fill-rule:nonzero;fill:rgb(0%,0%,0%);fill-opacity:1;" d="M 99.34375 23.503906 C 99.511719 23.859375 99.621094 24.027344 99.667969 24.101562 L 99.328125 23.480469 Z M 99.34375 23.503906 "/>
<path style=" stroke:none;fill-rule:nonzero;fill:rgb(0%,0%,0%);fill-opacity:1;" d="M 103.96875 31.210938 L 103.945312 31.175781 L 103.96875 31.222656 Z M 103.96875 31.210938 "/>
<path style=" stroke:none;fill-rule:nonzero;fill:rgb(0%,0%,0%);fill-opacity:1;" d="M 98.964844 22.917969 C 98.929688 22.882812 98.90625 22.847656 98.867188 22.832031 C 98.929688 22.957031 98.953125 22.957031 98.964844 22.917969 Z M 98.964844 22.917969 "/>
<path style=" stroke:none;fill-rule:nonzero;fill:rgb(0%,0%,0%);fill-opacity:1;" d="M 59.519531 29.992188 C 59.558594 30.039062 59.582031 30.089844 59.617188 30.148438 C 59.582031 30.089844 59.542969 30.039062 59.519531 29.992188 Z M 59.519531 29.992188 "/>
<path style=" stroke:none;fill-rule:nonzero;fill:rgb(0%,0%,0%);fill-opacity:1;" d="M 103.824219 30.613281 L 103.96875 31.210938 C 104.015625 31.273438 104.078125 31.332031 104.152344 31.417969 C 104.285156 31.46875 103.980469 30.859375 103.824219 30.613281 Z M 103.824219 30.613281 "/>
<path style=" stroke:none;fill-rule:nonzero;fill:rgb(0%,0%,0%);fill-opacity:1;" d="M 98.964844 22.917969 C 99.074219 23.042969 99.207031 23.234375 99.34375 23.492188 L 99.269531 23.175781 C 98.917969 22.457031 98.976562 22.820312 98.964844 22.917969 Z M 98.964844 22.917969 "/>
<path style=" stroke:none;fill-rule:nonzero;fill:rgb(0%,0%,0%);fill-opacity:1;" d="M 72.550781 10.859375 C 72.914062 10.957031 71.628906 10.980469 72.394531 11.078125 L 73.160156 10.96875 C 73.023438 11.042969 73.449219 11.164062 73.523438 11.238281 C 73.839844 11.101562 72.574219 10.90625 73.472656 10.761719 C 73.691406 10.6875 74.359375 10.75 74.699219 10.796875 C 73.949219 10.710938 74.726562 10.652344 75.039062 10.628906 C 75.503906 10.726562 76.253906 10.75 76.460938 10.871094 C 76.535156 10.835938 76.898438 10.847656 77.140625 10.882812 L 77.167969 10.933594 C 77.726562 10.933594 76.984375 10.871094 77.128906 10.824219 C 77.53125 10.835938 78.160156 10.992188 78.816406 11.03125 C 78.160156 10.992188 77.601562 11.015625 77.128906 11.042969 C 78.320312 11.226562 76.898438 11.285156 76.621094 11.40625 C 77.589844 11.421875 77.96875 11.347656 78.757812 11.324219 C 79.703125 11.503906 78.660156 11.699219 78.40625 11.699219 C 79.292969 11.6875 80.214844 11.589844 80.6875 11.566406 C 80.019531 11.726562 80.128906 11.796875 79.523438 11.917969 C 80.214844 12.089844 80.371094 11.957031 80.710938 11.90625 C 80.519531 11.90625 80.214844 11.90625 80.140625 11.859375 C 80.980469 11.933594 80.859375 11.613281 81.296875 11.503906 C 81.902344 11.640625 83.082031 11.761719 82.984375 11.945312 L 82.996094 11.75 C 83.722656 11.761719 83.359375 11.882812 83.46875 11.945312 C 83.75 11.835938 83.421875 11.613281 84.648438 11.652344 C 84.441406 11.957031 85.726562 11.761719 85.679688 12.042969 C 86.25 12.066406 86.515625 11.917969 87.113281 12.003906 C 87.757812 12.210938 86.191406 12.335938 85.835938 12.25 C 85.011719 12.199219 85.957031 12.128906 85.632812 12.101562 L 84.839844 12.128906 C 85.277344 12.226562 86.128906 12.359375 86.019531 12.480469 C 86.820312 12.480469 85.386719 12.296875 86.273438 12.285156 L 86.796875 12.394531 C 87.683594 12.382812 86.625 12.164062 87.78125 12.210938 C 87.003906 12.296875 89.019531 12.308594 88.933594 12.503906 C 88.996094 12.25 90.988281 12.628906 91.242188 12.433594 L 90.632812 12.324219 L 90.753906 12.445312 C 90.101562 12.40625 89.542969 12.433594 88.859375 12.335938 C 89.40625 12.273438 88.691406 12.101562 89.324219 12.066406 C 90.5 11.992188 89.625 12.226562 89.785156 12.238281 L 90.71875 12.164062 L 90.101562 12.003906 C 90.828125 12.003906 91.8125 12.078125 92.820312 12.164062 C 94.289062 12.433594 92.625 12.296875 93.671875 12.515625 C 93.914062 12.503906 94 12.480469 94.121094 12.46875 C 94.179688 12.457031 94.242188 12.457031 94.339844 12.457031 L 94.472656 12.46875 C 94.507812 12.46875 94.542969 12.480469 94.59375 12.480469 C 94.542969 12.457031 94.496094 12.445312 94.460938 12.445312 L 94.351562 12.445312 C 94.3125 12.445312 94.277344 12.445312 94.242188 12.445312 C 94.09375 12.445312 93.960938 12.46875 93.828125 12.445312 C 93.671875 12.347656 93.972656 12.347656 94.3125 12.359375 L 94.519531 12.359375 C 94.570312 12.359375 94.617188 12.359375 94.652344 12.347656 C 94.738281 12.335938 94.789062 12.324219 94.800781 12.273438 C 94.957031 12.347656 94.886719 12.40625 94.738281 12.46875 C 94.871094 12.46875 95.007812 12.46875 95.140625 12.46875 C 95.25 12.675781 95.347656 12.894531 95.394531 13.066406 L 95.40625 13.101562 L 95.429688 13.164062 L 95.46875 13.273438 C 95.492188 13.347656 95.515625 13.417969 95.527344 13.480469 C 95.566406 13.613281 95.578125 13.726562 95.578125 13.820312 L 95.964844 14.175781 C 96.742188 15.957031 95.226562 13.054688 95.820312 14.589844 C 96.097656 15.210938 96.390625 15.796875 96.597656 16.03125 L 96.355469 15.503906 C 96.644531 15.859375 96.707031 15.796875 97.082031 16.40625 C 97.289062 16.871094 97.046875 16.6875 97.410156 17.1875 C 97.980469 18.640625 97.339844 17.75 97.058594 17.613281 C 97.460938 18.675781 96.464844 17.261719 96.875 17.917969 L 96.828125 17.710938 L 97.582031 18.652344 C 97.300781 17.566406 97.203125 18.347656 97.214844 17.859375 L 96.949219 17.261719 C 97.144531 17.394531 97.726562 18.796875 97.898438 18.871094 C 97.847656 18.90625 97.628906 18.835938 97.324219 18.222656 L 97.277344 18.699219 C 97.421875 19.066406 97.691406 19.222656 97.679688 19.46875 C 97.789062 20.066406 97.070312 18.808594 97.640625 20.140625 C 98.261719 21.554688 98.503906 21.332031 98.917969 22.296875 C 98.917969 22.175781 98.808594 21.945312 98.660156 21.640625 C 98.878906 21.90625 98.6875 21.332031 98.988281 21.832031 C 98.976562 22.199219 99.476562 23.199219 99.839844 23.957031 C 99.65625 23.796875 99.816406 24.320312 99.65625 24.113281 C 99.863281 24.492188 100.058594 24.832031 100.203125 24.96875 C 99.574219 23.359375 101.054688 26.40625 100.628906 25.125 C 101.199219 26.332031 101.175781 26.636719 101.453125 27.429688 C 101.382812 27.40625 100.691406 26.089844 101.140625 27.1875 C 101.890625 28.34375 101.25 26.859375 101.90625 27.722656 L 101.589844 26.917969 C 101.734375 26.722656 102.28125 28.234375 102.414062 28.417969 C 102.597656 28.917969 102.039062 27.785156 102.136719 28.308594 C 102.4375 29.039062 102.730469 29.34375 102.875 29.832031 C 102.535156 29.457031 102.71875 29.710938 102.355469 29.261719 C 103.167969 30.929688 102.160156 29.246094 102.695312 30.566406 C 102.914062 30.957031 102.898438 30.648438 103.191406 31.308594 C 103.144531 30.859375 103.214844 30.882812 102.71875 29.820312 C 103.105469 30.089844 103.335938 31.234375 103.824219 31.917969 C 103.554688 31.320312 103.773438 31.710938 103.433594 31.089844 C 103.566406 30.917969 103.472656 30.675781 103.921875 31.175781 C 103.542969 30.503906 103.214844 30.296875 102.789062 29.296875 C 102.839844 28.941406 103.507812 30.441406 103.738281 30.34375 C 103.910156 30.566406 104.113281 30.980469 104.308594 31.417969 C 104.359375 31.527344 104.40625 31.636719 104.441406 31.746094 L 104.503906 31.90625 L 104.527344 31.980469 L 104.539062 32.027344 C 104.578125 32.148438 104.601562 32.246094 104.613281 32.320312 C 104.683594 32.40625 104.757812 32.503906 104.832031 32.601562 C 104.78125 32.710938 104.734375 32.832031 104.671875 32.953125 L 104.589844 33.136719 L 104.539062 33.234375 L 104.453125 33.382812 C 104.234375 33.785156 104.054688 34.148438 103.945312 34.480469 C 103.457031 35.078125 102.558594 36.773438 101.699219 37.941406 C 101.480469 38.0625 100.640625 39.371094 101.042969 38.5625 C 101.003906 38.6875 100.351562 39.699219 100.605469 39.492188 C 100.640625 39.371094 100.75 39.273438 100.882812 39.050781 L 100.871094 39.320312 C 100.433594 39.871094 100.144531 40.613281 99.695312 41.113281 C 99.476562 41.234375 100.335938 40.027344 99.972656 40.332031 C 99.777344 40.980469 98.394531 43.199219 97.847656 43.84375 C 97.507812 44.296875 97.324219 44.246094 97.179688 44.429688 L 96.671875 45.222656 C 96.5625 45.285156 96.5 45.257812 96.34375 45.355469 C 96.050781 45.722656 95.917969 46.015625 95.785156 46.269531 C 95.007812 47.222656 95.25 46.601562 95.515625 46.015625 L 95.953125 45.476562 C 96.171875 45.015625 96.609375 44.429688 96.234375 44.699219 C 96.050781 45.003906 96.113281 45.027344 96.074219 45.148438 L 95.769531 45.429688 C 95.601562 45.808594 94.996094 46.769531 95.164062 46.734375 C 94.628906 47.367188 94.179688 48.222656 93.683594 48.78125 C 94.035156 48.40625 93.707031 48.964844 93.875 48.90625 L 94.398438 48.1875 C 94.035156 48.796875 93.523438 49.699219 93.085938 50.199219 C 93.074219 50.089844 93.0625 50.050781 92.808594 50.28125 C 92.894531 50.199219 92.90625 50.222656 92.882812 50.308594 C 92.867188 50.34375 92.84375 50.394531 92.820312 50.453125 C 92.796875 50.503906 92.757812 50.574219 92.757812 50.601562 C 92.734375 50.671875 92.710938 50.734375 92.722656 50.757812 C 92.734375 50.769531 92.746094 50.769531 92.773438 50.746094 C 92.785156 50.734375 92.808594 50.722656 92.832031 50.699219 L 92.867188 50.660156 L 92.894531 50.636719 L 92.929688 50.601562 C 93.113281 50.257812 93.292969 49.953125 93.585938 49.550781 C 93.902344 49.378906 93.488281 50.027344 93.316406 50.441406 L 92.601562 51.671875 L 92.007812 51.683594 C 91.910156 51.671875 91.824219 51.648438 91.75 51.613281 L 91.640625 51.574219 L 91.59375 51.550781 L 91.519531 51.527344 C 91.339844 51.476562 91.109375 51.441406 90.707031 51.464844 C 91.703125 51.699219 89.734375 51.660156 89.46875 51.808594 C 88.714844 51.671875 88.21875 51.855469 87.621094 51.671875 C 87.9375 51.636719 89.105469 51.734375 89.417969 51.625 C 89.46875 51.515625 89.1875 51.296875 90.34375 51.320312 C 88.957031 51.160156 89.515625 51.355469 88.875 51.355469 L 89.347656 51.378906 C 89.128906 51.417969 89.527344 51.527344 89.105469 51.503906 C 87.476562 51.34375 87.199219 51.183594 86.117188 50.964844 C 86.359375 51.074219 85.847656 51.113281 85.582031 51.101562 C 84.527344 50.917969 85.617188 50.84375 84.976562 50.625 C 84.597656 50.710938 83.882812 50.625 84.113281 50.722656 C 83.6875 50.699219 83.917969 50.660156 83.613281 50.601562 C 83.335938 50.671875 83.019531 50.710938 82.4375 50.671875 C 82.496094 50.625 82.582031 50.550781 83.140625 50.625 C 82.523438 50.539062 82.304688 50.34375 82.582031 50.257812 L 83.589844 50.40625 C 84.0625 50.320312 82.644531 50.28125 82.691406 50.171875 C 83.140625 50.171875 83.480469 50.28125 83.761719 50.269531 C 83.480469 50.125 82.59375 50.171875 82.074219 50.148438 C 81.257812 50.0625 81.5625 49.964844 81.5625 49.894531 C 80.164062 49.992188 83.140625 50.234375 81.839844 50.332031 C 81.34375 50.441406 80.105469 50.332031 79.230469 50.296875 C 79.960938 50.515625 79.132812 50.527344 78.234375 50.515625 C 79.402344 50.601562 78.515625 50.734375 79.898438 50.722656 L 79.910156 50.855469 C 79.328125 50.808594 78.636719 50.699219 78.050781 50.660156 C 78.175781 50.636719 78.039062 50.589844 78.234375 50.589844 L 76.484375 50.515625 L 76.667969 50.441406 C 75.597656 50.34375 74.289062 50.148438 73.644531 50.148438 C 74.167969 50.171875 74.605469 50.34375 74.058594 50.332031 C 73.742188 50.367188 73.171875 50.394531 72.671875 50.34375 C 72.429688 50.171875 70.582031 50.039062 71.761719 49.964844 C 70.28125 49.929688 70.816406 50.003906 69.671875 50.003906 L 69.613281 49.90625 L 69.660156 50.003906 L 70.378906 50.027344 C 70.414062 50.089844 70.242188 50.160156 70.148438 50.234375 C 70.0625 50.308594 70.050781 50.367188 70.523438 50.453125 C 70.109375 50.453125 69.914062 50.492188 69.769531 50.527344 C 69.625 50.5625 69.515625 50.613281 69.234375 50.625 C 69.140625 50.492188 69.003906 50.257812 68.796875 49.855469 C 68.6875 49.550781 68.75 49.539062 68.871094 49.683594 C 68.992188 49.832031 69.1875 50.113281 69.371094 50.429688 L 69.613281 50.429688 C 69.539062 50.417969 69.464844 50.417969 69.394531 50.40625 C 69.261719 50.074219 69.152344 49.769531 68.933594 49.476562 C 68.90625 49.308594 69.03125 49.464844 69.164062 49.648438 C 69.296875 49.832031 69.417969 50.027344 69.429688 49.992188 C 69.273438 49.660156 69.273438 49.683594 69.246094 49.699219 C 69.234375 49.722656 69.222656 49.757812 69.054688 49.441406 C 68.386719 48.378906 68.894531 48.636719 68.300781 47.601562 C 68.421875 47.832031 68.578125 48.269531 68.398438 48.015625 C 67.707031 46.574219 67.898438 47.269531 67.339844 46.246094 C 67.21875 45.574219 67.511719 45.757812 67.097656 44.796875 L 67.351562 45.320312 C 67.257812 44.917969 67.085938 44.480469 66.902344 44.101562 C 65.824219 42.199219 64.789062 40.6875 63.699219 38.722656 L 64.085938 39.429688 C 64.148438 39.699219 63.722656 38.855469 63.671875 38.894531 L 63.527344 38.40625 C 63.359375 38.332031 63.90625 39.480469 63.660156 39.257812 C 63.648438 39.1875 63.578125 39.039062 63.527344 38.953125 L 63.699219 39.394531 C 63.273438 38.429688 62.714844 37.773438 62.554688 36.96875 C 63.46875 38.808594 63.03125 37.089844 63.964844 38.871094 C 63.457031 37.929688 64 38.636719 64.015625 38.515625 C 63.796875 38.003906 63.808594 38.308594 63.578125 37.722656 C 63.660156 37.699219 64.328125 38.882812 64.121094 38.308594 C 63.964844 38.308594 63.746094 37.796875 63.539062 37.589844 C 63.371094 37.148438 63.625 37.5625 63.578125 37.355469 C 63.457031 37.125 63.332031 37.015625 63.25 36.796875 L 63.40625 36.917969 C 62.957031 35.699219 63.113281 36.625 62.507812 35.273438 C 62.386719 35.285156 62.605469 35.6875 62.894531 36.222656 C 62.800781 36.613281 61.816406 34.636719 61.621094 34.871094 C 60.976562 33.625 61.875 35.148438 61.425781 34.050781 C 61.304688 33.382812 61.972656 34.757812 62.214844 34.980469 L 61.777344 33.820312 C 62.167969 34.089844 62.421875 34.808594 62.703125 34.917969 C 62.3125 34.089844 62.3125 34.210938 61.839844 33.40625 C 62.335938 34.832031 61.425781 32.882812 61.597656 33.746094 C 61.34375 33.101562 61.488281 33.273438 61.050781 32.359375 C 61.378906 32.917969 61.234375 32.296875 61.597656 33.066406 C 60.988281 31.84375 61.097656 32.199219 60.503906 30.96875 C 60.175781 30.648438 60.917969 32.296875 60.101562 30.871094 C 59.945312 30.554688 60.03125 30.589844 60.128906 30.773438 C 59.679688 29.6875 60.054688 31.078125 59.652344 30.441406 C 59.628906 30.394531 59.59375 30.320312 59.570312 30.273438 C 59.542969 30.222656 59.519531 30.175781 59.496094 30.125 C 59.460938 30.039062 59.433594 29.96875 59.421875 29.929688 C 59.398438 29.84375 59.433594 29.84375 59.496094 29.941406 C 59.277344 29.589844 59.179688 29.492188 59.105469 29.441406 C 59.035156 29.382812 58.984375 29.371094 58.851562 29.136719 L 58.875 29.089844 L 58.839844 29.136719 L 58.925781 29.332031 C 58.863281 29.246094 58.828125 29.285156 58.78125 29.296875 C 58.730469 29.308594 58.671875 29.308594 58.535156 29.113281 C 58.585938 29.003906 58.695312 28.808594 58.890625 28.515625 C 59.496094 27.625 59.375 27.957031 59.449219 27.957031 L 59.582031 27.734375 C 59.617188 27.675781 59.652344 27.613281 59.691406 27.554688 C 59.761719 27.429688 59.847656 27.320312 59.921875 27.222656 C 60.066406 27.015625 60.226562 26.84375 60.371094 26.6875 C 60.320312 26.699219 60.320312 26.652344 60.429688 26.492188 C 60.988281 25.578125 60.894531 26.066406 61.125 25.75 C 62.046875 24.539062 60.769531 25.734375 61.71875 24.332031 L 60.578125 25.929688 C 60.566406 25.820312 60.480469 25.710938 60.25 26.066406 C 60.320312 26.164062 60.019531 26.796875 59.628906 27.332031 C 59.410156 27.417969 60.492188 25.785156 59.75 26.625 C 59.992188 26.308594 60.273438 25.832031 60.550781 25.441406 C 60.394531 25.929688 61.453125 24.164062 61.109375 24.957031 C 62.289062 23.164062 62.542969 22.957031 63.5625 21.273438 C 63.539062 21.46875 63.03125 22.640625 62.398438 23.457031 L 62.289062 23.480469 C 61.644531 24.601562 62.921875 22.699219 62.910156 22.980469 C 63.613281 21.542969 64.960938 20.140625 65.980469 18.480469 C 65.726562 18.722656 65.910156 18.382812 65.894531 18.261719 C 65.472656 18.917969 65.582031 18.820312 65.179688 19.238281 C 65.15625 19.089844 65.445312 18.722656 65.519531 18.480469 C 65.542969 18.25 65.191406 18.96875 64.984375 19.164062 C 65.351562 18.515625 65.300781 18.566406 65.472656 18.152344 C 65.773438 17.859375 65.785156 17.945312 66.042969 17.738281 C 67.085938 16.238281 66.808594 16.285156 67.65625 15.089844 C 67.183594 15.761719 67.972656 14.835938 67.4375 15.554688 L 67.730469 15.152344 C 67.160156 16.296875 65.921875 18.101562 66.273438 18.078125 C 66.832031 17.199219 67.136719 16.492188 67.839844 15.445312 L 67.851562 15.515625 C 68.375 14.761719 67.789062 15.492188 67.875 15.285156 C 68.375 14.382812 68.835938 14.335938 69.078125 13.640625 L 68.457031 14.480469 C 68.8125 13.761719 68.3125 14.664062 68.265625 14.40625 C 68.945312 13.164062 70.378906 11.199219 71.386719 9.480469 C 70.984375 9.90625 70.886719 10.03125 70.460938 10.652344 C 70.449219 10.238281 70.65625 10.003906 70.269531 10.1875 L 69.746094 10.945312 L 69.550781 10.824219 C 69.683594 10.613281 69.84375 10.421875 69.976562 10.238281 C 69.929688 10.054688 70.789062 9.117188 70.71875 8.980469 L 70.292969 9.640625 C 69.976562 9.894531 70.511719 9.140625 70.777344 8.664062 C 70.367188 9.003906 69.832031 10.066406 69.222656 10.992188 C 69.332031 10.96875 68.859375 11.980469 69.480469 11.101562 C 69.550781 11.164062 69.222656 11.726562 68.992188 12.078125 C 69.078125 11.871094 68.324219 12.628906 68.824219 11.761719 C 68.375 12.613281 68.59375 12.113281 68.035156 13.03125 C 68.070312 12.871094 66.988281 14.566406 66.902344 14.359375 C 66.78125 14.6875 67.148438 14.503906 66.46875 15.53125 C 66.746094 15.359375 67.535156 14.226562 67.136719 15.078125 L 67.402344 14.53125 C 67.9375 13.859375 67.390625 14.796875 68.058594 13.90625 C 67.863281 14.175781 67.546875 14.773438 67.390625 14.847656 C 67.789062 14.773438 66.578125 16.308594 66.710938 16.46875 C 66.503906 16.625 66.308594 16.894531 65.980469 17.417969 C 65.96875 17.308594 65.714844 17.542969 65.933594 17.113281 C 66.175781 16.796875 66.308594 16.542969 66.613281 16.222656 C 66.234375 16.261719 65.640625 17.492188 65.023438 18.308594 C 65.117188 18.199219 65.167969 18.1875 65.046875 18.445312 C 64.65625 18.945312 63.84375 20.054688 63.953125 19.652344 L 62.214844 22.285156 C 62.15625 22.261719 62.445312 21.894531 62.53125 21.722656 L 61.535156 23.175781 C 61.234375 23.46875 61.804688 22.625 61.828125 22.429688 L 61.125 23.480469 L 61.148438 23.285156 C 61.015625 23.578125 60.226562 24.796875 59.910156 25.015625 C 59.53125 25.601562 59.410156 25.929688 59.242188 26.308594 C 59.15625 26.492188 59.058594 26.6875 58.902344 26.929688 C 58.863281 26.992188 58.828125 27.054688 58.78125 27.125 L 58.597656 27.382812 C 58.414062 27.652344 58.195312 27.941406 57.953125 28.285156 C 57.917969 28.210938 58.171875 27.808594 58.488281 27.332031 L 58.65625 27.078125 L 58.792969 26.871094 C 58.875 26.734375 58.949219 26.613281 58.984375 26.503906 C 58.925781 26.578125 58.839844 26.6875 58.753906 26.820312 L 58.425781 27.320312 C 58.0625 27.859375 57.722656 28.359375 57.539062 28.492188 C 57.40625 28.710938 57.285156 28.894531 57.1875 29.066406 C 57.636719 29.882812 57.90625 30.246094 58.125 30.503906 L 58.707031 31.1875 C 59.191406 32.175781 58.644531 31.34375 58.632812 31.40625 C 58.765625 31.699219 59.242188 32.066406 59.191406 32.417969 C 59.519531 32.859375 59.761719 33.066406 59.460938 32.332031 C 59.714844 32.871094 60.140625 33.589844 60.261719 33.6875 C 59.859375 33.34375 60.480469 34.332031 60.347656 34.46875 C 60.699219 35.285156 61.5 37.078125 62.070312 37.734375 L 61.753906 37.613281 L 62.226562 38.539062 C 62.433594 39.296875 61.695312 37.785156 61.464844 37.320312 C 62.046875 38.601562 62.472656 39.441406 63.03125 40.589844 C 62.910156 40.234375 63.054688 40.40625 63.042969 40.222656 C 63.320312 40.578125 63.515625 41.148438 63.734375 41.539062 C 63.734375 41.660156 63.660156 41.636719 63.492188 41.320312 L 63.890625 42.089844 C 63.734375 42.089844 63.917969 42.464844 63.457031 41.734375 L 63.84375 42.441406 C 64.195312 43.257812 63.722656 42.453125 63.589844 42.285156 L 64.171875 43.5625 C 64.464844 43.980469 64.160156 43.246094 64.621094 44.101562 C 65.070312 45.320312 65.835938 46.796875 66.429688 48.136719 L 66.101562 47.136719 C 66.453125 47.953125 66.589844 47.699219 66.792969 47.894531 C 66.964844 48.269531 67.171875 48.699219 67.367188 49.125 C 67.460938 49.332031 67.558594 49.539062 67.644531 49.746094 L 67.828125 50.171875 L 68.007812 50.601562 C 67.679688 50.039062 67.523438 49.878906 67.523438 50.027344 C 67.523438 50.171875 67.667969 50.648438 67.9375 51.296875 C 68.070312 51.585938 68.191406 51.832031 68.300781 52.050781 C 69.371094 52.113281 69.792969 52.085938 70.132812 52.050781 L 70.390625 52.015625 L 70.523438 52.003906 L 70.597656 51.992188 L 70.644531 51.976562 C 70.753906 51.953125 70.898438 51.941406 71.105469 51.941406 C 70.367188 52.171875 72.261719 52.125 72.078125 52.269531 C 74.179688 52.417969 76.304688 52.464844 78.476562 52.636719 C 78.441406 52.585938 77.820312 52.503906 78.199219 52.488281 C 79 52.503906 79.375 52.648438 79.472656 52.710938 C 80.507812 52.757812 81.113281 52.710938 81.453125 52.660156 C 81.003906 52.660156 80.96875 52.613281 81.050781 52.539062 C 82.085938 52.585938 81.78125 52.757812 82.777344 52.699219 C 83.019531 52.867188 81.683594 52.699219 81.769531 52.84375 C 82.679688 52.917969 83.25 52.90625 83.929688 52.867188 C 84.078125 52.976562 83.324219 52.84375 83.808594 52.964844 L 88 53.050781 L 88.277344 53.199219 C 88.957031 53.234375 89.40625 53.246094 89.722656 53.210938 C 90.085938 53.28125 89.796875 53.296875 89.445312 53.28125 C 89.894531 53.320312 90.402344 53.332031 90.863281 53.34375 L 91.546875 53.34375 C 91.859375 53.355469 92.140625 53.367188 92.347656 53.378906 C 92.285156 53.417969 92.066406 53.40625 91.835938 53.378906 C 91.726562 53.367188 91.605469 53.367188 91.496094 53.355469 L 91.386719 53.355469 C 91.363281 53.355469 91.339844 53.367188 91.3125 53.367188 L 91.507812 53.378906 L 91.789062 53.40625 L 92.347656 53.441406 C 92.722656 53.464844 93.113281 53.476562 93.476562 53.488281 C 93.828125 52.929688 94.15625 52.378906 94.472656 51.917969 L 94.652344 51.648438 C 94.703125 51.585938 94.738281 51.515625 94.789062 51.453125 C 94.871094 51.332031 94.96875 51.234375 95.054688 51.148438 C 95.019531 51.246094 94.957031 51.332031 94.898438 51.417969 C 95.855469 50.015625 96.609375 48.734375 97.628906 47.199219 C 98.699219 45.882812 97.773438 46.636719 98.722656 45.269531 C 99.015625 45.453125 100.011719 43.40625 100.460938 42.855469 L 100.289062 43.015625 C 100.640625 42.257812 101.371094 41.394531 101.769531 40.964844 C 102.488281 39.953125 103.519531 38.40625 104.101562 37.308594 L 104.03125 37.550781 C 104.527344 36.648438 104.976562 36.1875 105.476562 35.285156 C 105.476562 35.320312 105.304688 35.664062 105.546875 35.34375 L 106.253906 34.34375 L 107.355469 32.734375 L 106.363281 30.675781 L 105.667969 29.273438 L 104.273438 26.480469 C 103.335938 24.613281 102.414062 22.761719 101.527344 20.894531 L 99.246094 16.066406 L 96.523438 10.359375 L 90.816406 9.933594 C 89.140625 9.808594 87.476562 9.699219 85.835938 9.589844 C 82.570312 9.433594 79.375 9.25 76.425781 9.128906 C 76.425781 9.128906 71.933594 10.226562 72.550781 10.859375 Z M 72.550781 10.859375 "/>
<path style=" stroke:none;fill-rule:nonzero;fill:rgb(0%,0%,0%);fill-opacity:1;" d="M 60.140625 30.820312 L 60.1875 30.941406 C 60.175781 30.894531 60.164062 30.859375 60.140625 30.820312 Z M 60.140625 30.820312 "/>
<path style=" stroke:none;fill-rule:nonzero;fill:rgb(0%,0%,0%);fill-opacity:1;" d="M 69.988281 50.464844 C 69.878906 50.453125 69.769531 50.453125 69.660156 50.441406 C 69.757812 50.464844 69.867188 50.464844 69.988281 50.464844 Z M 69.988281 50.464844 "/>
<path style=" stroke:none;fill-rule:nonzero;fill:rgb(0%,0%,0%);fill-opacity:1;" d="M 88.859375 51.394531 L 88.472656 51.378906 C 88.644531 51.378906 88.765625 51.394531 88.859375 51.394531 Z M 88.859375 51.394531 "/>
<path style=" stroke:none;fill-rule:nonzero;fill:rgb(0%,0%,0%);fill-opacity:1;" d="M 104.394531 31.941406 C 104.371094 32.125 103.871094 31.492188 104.089844 32.136719 L 104.140625 32.246094 L 104.175781 32.308594 C 104.199219 32.34375 104.222656 32.382812 104.25 32.417969 C 104.296875 32.480469 104.332031 32.527344 104.382812 32.578125 C 104.382812 32.675781 104.441406 32.722656 104.429688 32.84375 C 104.429688 32.90625 104.40625 32.980469 104.359375 33.078125 C 104.34375 33.089844 104.34375 33.101562 104.332031 33.125 L 104.285156 33.210938 L 104.164062 33.40625 C 104.078125 33.539062 103.96875 33.699219 103.847656 33.871094 L 104.234375 33.394531 L 104.429688 33.164062 L 104.550781 33.039062 C 104.492188 33.027344 104.46875 32.96875 104.480469 32.882812 C 104.480469 32.796875 104.515625 32.699219 104.550781 32.601562 C 104.480469 32.503906 104.417969 32.394531 104.359375 32.273438 C 104.382812 32.222656 104.40625 32.175781 104.417969 32.113281 C 104.492188 32.175781 104.550781 32.234375 104.625 32.320312 C 104.589844 32.234375 104.550781 32.199219 104.515625 32.175781 C 104.503906 32.164062 104.480469 32.136719 104.46875 32.113281 C 104.453125 32.101562 104.453125 32.089844 104.441406 32.066406 Z M 104.394531 31.941406 "/>
<path style=" stroke:none;fill-rule:nonzero;fill:rgb(0%,0%,0%);fill-opacity:1;" d="M 104.636719 32.359375 C 104.636719 32.34375 104.636719 32.332031 104.636719 32.332031 C 104.636719 32.332031 104.625 32.320312 104.625 32.320312 C 104.625 32.320312 104.636719 32.332031 104.636719 32.359375 Z M 104.636719 32.359375 "/>
<path style=" stroke:none;fill-rule:nonzero;fill:rgb(100%,100%,100%);fill-opacity:1;" d="M 76.71875 49.269531 C 76.085938 49.234375 75.5625 48.808594 75.441406 48.234375 L 72.246094 32.953125 C 72.125 32.34375 71.46875 31.941406 70.800781 32.050781 C 70.148438 32.148438 69.710938 32.699219 69.792969 33.296875 L 71.96875 47.539062 C 72.003906 47.785156 71.917969 48.027344 71.738281 48.199219 C 71.542969 48.378906 71.265625 48.441406 71.007812 48.378906 L 69.539062 48.015625 C 69.40625 47.976562 69.296875 47.878906 69.25 47.746094 L 61.148438 21.457031 C 61.097656 21.296875 61.148438 21.125 61.269531 21.027344 C 66.394531 16.738281 72.042969 14.808594 78.527344 15.152344 C 78.671875 15.164062 78.804688 15.25 78.867188 15.382812 L 81.015625 20.015625 C 81.160156 20.320312 81.476562 20.515625 81.816406 20.503906 C 89.492188 20.101562 97.992188 22.796875 103.214844 27.332031 C 105.765625 29.554688 107.175781 31.941406 107.320312 34.246094 C 107.320312 34.34375 107.296875 34.441406 107.234375 34.527344 C 106.992188 34.832031 106.738281 35.136719 106.496094 35.441406 C 102.621094 40.210938 98.238281 45.613281 94.351562 47.050781 C 94.203125 47.113281 94.023438 47.074219 93.914062 46.964844 C 93.753906 46.820312 93.753906 46.574219 93.890625 46.417969 L 99.015625 40.210938 C 99.125 40.089844 99.171875 39.953125 99.160156 39.808594 C 99.148438 39.660156 99.074219 39.527344 98.953125 39.417969 C 98.808594 39.296875 98.601562 39.234375 98.394531 39.257812 C 98.210938 39.285156 98.042969 39.382812 97.945312 39.515625 L 93.0625 47.101562 C 93.0625 47.101562 93.050781 47.113281 93.050781 47.113281 C 92.855469 47.394531 92.554688 47.589844 92.226562 47.6875 C 91.996094 47.746094 91.75 47.808594 91.496094 47.878906 C 89.734375 48.355469 87.308594 49.015625 85.535156 49.210938 C 85.230469 49.246094 84.925781 49.113281 84.757812 48.867188 C 84.585938 48.636719 84.550781 48.355469 84.660156 48.089844 C 84.660156 48.074219 84.671875 48.074219 84.671875 48.0625 L 89.335938 38.589844 C 89.515625 38.175781 89.503906 37.734375 89.3125 37.332031 C 89.09375 36.882812 88.65625 36.539062 88.132812 36.40625 C 87.199219 36.175781 86.238281 36.648438 85.957031 37.492188 L 81.988281 48.367188 C 81.78125 49.003906 81.136719 49.417969 80.421875 49.378906 Z M 76.71875 49.269531 "/>
<path style=" stroke:none;fill-rule:nonzero;fill:rgb(0.389099%,0.779724%,0.779724%);fill-opacity:1;" d="M 77.796875 49.660156 C 77.152344 49.660156 76.59375 49.246094 76.4375 48.660156 L 72.332031 33.175781 C 72.175781 32.566406 71.484375 32.175781 70.800781 32.320312 C 70.132812 32.46875 69.722656 33.039062 69.84375 33.648438 L 72.832031 48.136719 C 72.878906 48.378906 72.804688 48.636719 72.625 48.832031 C 72.429688 49.027344 72.152344 49.113281 71.882812 49.0625 L 70.367188 48.769531 C 70.21875 48.746094 70.097656 48.636719 70.050781 48.503906 L 60.335938 21.980469 C 60.273438 21.820312 60.320312 21.652344 60.441406 21.527344 C 65.472656 16.847656 71.15625 14.566406 77.820312 14.566406 C 77.980469 14.566406 78.113281 14.652344 78.1875 14.785156 L 80.640625 19.417969 C 80.796875 19.722656 81.136719 19.90625 81.476562 19.871094 C 89.324219 19.042969 98.1875 21.347656 103.785156 25.722656 C 106.519531 27.859375 108.097656 30.234375 108.367188 32.601562 C 108.378906 32.699219 108.351562 32.808594 108.292969 32.894531 C 108.0625 33.210938 107.820312 33.539062 107.574219 33.871094 C 103.859375 38.964844 99.65625 44.746094 95.746094 46.429688 C 95.601562 46.492188 95.417969 46.476562 95.296875 46.367188 C 95.128906 46.222656 95.117188 45.976562 95.238281 45.808594 L 100.15625 39.160156 C 100.253906 39.027344 100.300781 38.894531 100.277344 38.746094 C 100.253906 38.601562 100.167969 38.453125 100.046875 38.355469 C 99.886719 38.234375 99.683594 38.1875 99.476562 38.222656 C 99.28125 38.257812 99.125 38.355469 99.027344 38.503906 L 94.410156 46.5625 C 94.410156 46.5625 94.398438 46.574219 94.398438 46.574219 C 94.203125 46.867188 93.925781 47.089844 93.585938 47.199219 C 93.355469 47.269531 93.113281 47.355469 92.84375 47.441406 C 91.058594 48.027344 88.617188 48.832031 86.796875 49.125 C 86.492188 49.171875 86.175781 49.0625 85.984375 48.820312 C 85.800781 48.601562 85.753906 48.296875 85.847656 48.027344 C 85.847656 48.015625 85.847656 48.015625 85.863281 48.003906 L 90.136719 38.027344 C 90.292969 37.601562 90.257812 37.136719 90.039062 36.734375 C 89.785156 36.285156 89.324219 35.953125 88.777344 35.84375 C 87.804688 35.648438 86.859375 36.199219 86.601562 37.078125 L 83.105469 48.453125 C 82.921875 49.113281 82.292969 49.574219 81.550781 49.574219 Z M 71.105469 31.457031 C 72.054688 31.457031 72.890625 32.050781 73.132812 32.953125 L 77.238281 48.441406 C 77.300781 48.660156 77.53125 48.820312 77.785156 48.820312 L 81.550781 48.734375 C 81.914062 48.734375 82.230469 48.515625 82.316406 48.210938 L 85.8125 36.832031 C 86.164062 35.550781 87.539062 34.746094 88.933594 35.015625 C 89.722656 35.175781 90.390625 35.636719 90.753906 36.308594 C 91.097656 36.929688 91.144531 37.648438 90.902344 38.308594 C 90.902344 38.308594 90.902344 38.320312 90.890625 38.320312 L 86.625 48.257812 C 86.640625 48.257812 86.652344 48.269531 86.664062 48.257812 C 88.410156 47.976562 90.828125 47.1875 92.578125 46.613281 C 92.84375 46.527344 93.085938 46.441406 93.316406 46.367188 C 93.476562 46.320312 93.597656 46.222656 93.683594 46.089844 L 98.273438 38.050781 C 98.273438 38.050781 98.285156 38.039062 98.285156 38.039062 C 98.503906 37.699219 98.867188 37.453125 99.292969 37.382812 C 99.71875 37.308594 100.167969 37.40625 100.507812 37.660156 C 100.824219 37.894531 101.019531 38.234375 101.066406 38.613281 C 101.113281 38.980469 101.019531 39.34375 100.773438 39.648438 L 97.035156 44.6875 C 100.289062 42.394531 103.75 37.625 106.871094 33.355469 C 107.078125 33.078125 107.285156 32.796875 107.492188 32.515625 C 107.199219 30.429688 105.730469 28.308594 103.253906 26.371094 C 98.796875 22.882812 90.632812 19.871094 82.046875 20.640625 C 81.550781 20.6875 81.199219 21.140625 81.28125 21.625 L 82.351562 28.515625 C 82.484375 29.589844 82.183594 30.40625 81.464844 30.96875 C 79.023438 32.832031 72.503906 30.773438 71.019531 30.164062 C 70.816406 30.078125 71.082031 29.625 71.917969 29.917969 C 73.765625 30.539062 78.683594 31.796875 80.640625 30.308594 C 81.113281 29.941406 81.40625 29.371094 81.308594 28.613281 L 79.023438 20.527344 L 77.324219 16.164062 C 77.117188 15.640625 76.59375 15.296875 76.023438 15.320312 C 70.488281 15.578125 66.101562 17.601562 61.792969 21.382812 C 61.425781 21.699219 61.304688 22.210938 61.464844 22.664062 L 70.730469 47.964844 L 71.359375 48.089844 C 71.652344 48.148438 71.90625 47.878906 71.847656 47.589844 L 69.003906 33.796875 C 68.785156 32.734375 69.492188 31.722656 70.609375 31.480469 C 70.789062 31.46875 70.949219 31.457031 71.105469 31.457031 Z M 71.105469 31.457031 "/>
<path style="fill-rule:nonzero;fill:rgb(0.389099%,0.779724%,0.779724%);fill-opacity:1;stroke-width:0.857;stroke-linecap:butt;stroke-linejoin:miter;stroke:rgb(0.389099%,0.779724%,0.779724%);stroke-opacity:1;stroke-miterlimit:10;" d="M 472.491679 176.208902 C 468.696216 175.504164 465.99436 175.215862 462.391886 174.799426 C 460.815804 174.607225 459.690031 173.19775 460.01168 171.596073 C 461.201783 163.587689 462.198897 155.70744 463.485494 147.699057 C 464.289618 142.990127 469.11436 140.29931 474.196421 141.004048 C 479.310648 141.708786 482.398482 145.584844 481.208379 150.197672 C 479.310648 158.109955 477.605905 166.086305 475.708174 173.998588 C 475.290029 175.600265 473.906937 176.497204 472.491679 176.208902 Z M 472.491679 176.208902 " transform="matrix(0.121444,0,0,0.121943,31.563881,4.981391)"/>
<path style="fill-rule:nonzero;fill:rgb(0.389099%,0.779724%,0.779724%);fill-opacity:1;stroke-width:0.857;stroke-linecap:butt;stroke-linejoin:miter;stroke:rgb(0.389099%,0.779724%,0.779724%);stroke-opacity:1;stroke-miterlimit:10;" d="M 518.101572 161.50551 C 519.999304 157.213016 517.586933 152.504087 512.794356 150.389874 C 508.001779 148.307694 502.694563 149.909371 501.086316 154.490166 C 498.609615 162.306348 496.293739 170.090497 493.784873 177.906679 C 493.302399 179.412255 494.203017 181.013932 495.71477 181.398334 C 499.510233 182.487474 502.212089 183.384413 506.007552 184.697788 C 507.390645 185.210325 508.902397 184.505587 509.513531 183.096111 C 512.408376 175.888566 515.110232 168.713055 518.101572 161.50551 Z M 518.101572 161.50551 " transform="matrix(0.121444,0,0,0.121943,31.563881,4.981391)"/>
<path style="fill-rule:nonzero;fill:rgb(0.389099%,0.779724%,0.779724%);fill-opacity:1;stroke-width:0.857;stroke-linecap:butt;stroke-linejoin:miter;stroke:rgb(0.389099%,0.779724%,0.779724%);stroke-opacity:1;stroke-miterlimit:10;" d="M 552.711053 177.394142 C 554.994764 173.389951 553.097033 168.200518 548.304456 165.093266 C 543.511879 161.986013 537.690024 162.59465 535.599302 167.111378 C 532.189818 174.415024 529.101983 181.81477 525.788994 188.990282 C 525.210025 190.399757 525.788994 192.097534 527.204251 192.706172 C 531.385694 194.500049 534.312704 195.813424 538.397652 197.799503 C 539.68425 198.408141 541.292498 197.895604 542.000126 196.710363 C 545.6026 190.303657 549.108579 183.800849 552.711053 177.394142 Z M 552.711053 177.394142 " transform="matrix(0.121444,0,0,0.121943,31.563881,4.981391)"/>
<path style="fill-rule:nonzero;fill:rgb(0.389099%,0.779724%,0.779724%);fill-opacity:1;stroke-width:0.857;stroke-linecap:butt;stroke-linejoin:miter;stroke:rgb(0.389099%,0.779724%,0.779724%);stroke-opacity:1;stroke-miterlimit:10;" d="M 582.399298 199.208979 C 584.811669 195.300888 583.589401 189.214516 579.600948 184.98609 C 575.612494 180.789697 570.208784 180.405295 567.796413 184.793889 C 564.000949 191.905333 560.398475 199.208979 556.603012 206.28839 C 555.991878 207.505664 556.313527 209.01124 557.407135 209.812078 C 561.395589 212.695097 564.097444 214.713209 567.699918 217.692328 C 568.986516 218.813501 571.012907 218.397066 571.784866 216.98759 C 575.00136 211.894258 577.896206 206.704826 582.399298 199.208979 Z M 582.399298 199.208979 " transform="matrix(0.121444,0,0,0.121943,31.563881,4.981391)"/>
<path style="fill-rule:nonzero;fill:rgb(0.389099%,0.779724%,0.779724%);fill-opacity:1;stroke-width:0.774;stroke-linecap:butt;stroke-linejoin:miter;stroke:rgb(0.389099%,0.779724%,0.779724%);stroke-opacity:1;stroke-miterlimit:10;" d="M 463.485494 215.289813 C 460.301165 214.80931 457.985289 214.392874 454.897454 214.104572 C 453.289207 213.912371 452.195598 212.502895 452.485083 210.901219 C 453.514361 203.789774 454.511475 196.710363 455.605083 189.598919 C 456.312711 185.306425 460.687144 182.90391 465.286731 183.608648 C 469.886319 184.185252 472.684669 187.70894 471.591061 191.905333 C 469.886319 198.984744 468.406731 206.096189 466.701989 213.207633 C 466.31601 214.585075 464.900752 215.514047 463.485494 215.289813 Z M 463.485494 215.289813 " transform="matrix(0.121444,0,0,0.121943,31.563881,4.981391)"/>
<path style="fill-rule:nonzero;fill:rgb(0.389099%,0.779724%,0.779724%);fill-opacity:1;stroke-width:0.774;stroke-linecap:butt;stroke-linejoin:miter;stroke:rgb(0.389099%,0.779724%,0.779724%);stroke-opacity:1;stroke-miterlimit:10;" d="M 504.913944 201.995896 C 506.586521 198.087805 504.4958 193.795312 500.089202 191.905333 C 495.71477 190.015355 490.986523 191.392797 489.506935 195.58919 C 487.287554 202.508433 485.196833 209.491743 483.009616 216.410986 C 482.494977 217.884529 483.395596 219.486206 484.907348 219.902642 C 488.091678 220.799581 490.504049 221.600419 493.688378 222.689559 C 495.103636 223.202096 496.615388 222.497358 497.194357 221.087882 C 499.799718 214.90541 502.308584 208.402603 504.913944 201.995896 Z M 504.913944 201.995896 " transform="matrix(0.121444,0,0,0.121943,31.563881,4.981391)"/>
<path style="fill-rule:nonzero;fill:rgb(0.389099%,0.779724%,0.779724%);fill-opacity:1;stroke-width:0.774;stroke-linecap:butt;stroke-linejoin:miter;stroke:rgb(0.389099%,0.779724%,0.779724%);stroke-opacity:1;stroke-miterlimit:10;" d="M 536.113941 216.410986 C 538.204663 212.791197 536.403426 208.114301 532.093323 205.29535 C 527.815385 202.508433 522.604664 203.085036 520.610438 207.089228 C 517.586933 213.592035 514.788582 220.190943 511.893737 226.693751 C 511.314768 228.103226 511.893737 229.801003 513.308995 230.409641 C 516.911469 231.915217 519.484665 233.100457 522.894149 234.798235 C 524.212911 235.406872 525.788994 234.894335 526.496623 233.709095 C 529.906107 227.911025 532.993942 222.112955 536.113941 216.410986 Z M 536.113941 216.410986 " transform="matrix(0.121444,0,0,0.121943,31.563881,4.981391)"/>
<path style="fill-rule:nonzero;fill:rgb(0.389099%,0.779724%,0.779724%);fill-opacity:1;stroke-width:0.774;stroke-linecap:butt;stroke-linejoin:miter;stroke:rgb(0.389099%,0.779724%,0.779724%);stroke-opacity:1;stroke-miterlimit:10;" d="M 563.003836 236.11161 C 565.094557 232.587921 564.097444 227.110187 560.398475 223.298196 C 556.796001 219.486206 551.90693 219.197904 549.784043 223.202096 C 546.406724 229.608802 543.190229 236.015509 539.81291 242.390182 C 539.201776 243.607456 539.491261 245.113033 540.584869 245.913871 C 543.994353 248.412487 546.406724 250.206364 549.494559 252.70498 C 550.813321 253.79412 552.807548 253.409718 553.611672 252.000242 C 556.410022 247.291313 559.015383 242.614417 563.003836 236.11161 Z M 563.003836 236.11161 " transform="matrix(0.121444,0,0,0.121943,31.563881,4.981391)"/>
<path style="fill-rule:nonzero;fill:rgb(0.389099%,0.779724%,0.779724%);fill-opacity:1;stroke-width:0.904;stroke-linecap:butt;stroke-linejoin:miter;stroke:rgb(0.389099%,0.779724%,0.779724%);stroke-opacity:1;stroke-miterlimit:10;" d="M 295.713138 179.700557 C 300.7952 177.586344 303.59355 176.593304 309.415405 174.895527 C 308.096643 169.898296 306.71355 165.413601 304.397674 158.109955 C 303.40056 154.810501 299.605097 153.785428 296.292108 155.387105 C 293.011283 156.988782 291.210046 160.704671 292.01417 163.811924 C 293.815407 170.795235 295.102005 174.895527 295.713138 179.700557 Z M 295.713138 179.700557 " transform="matrix(0.121444,0,0,0.121943,31.563881,4.981391)"/>
<path style=" stroke:none;fill-rule:nonzero;fill:rgb(0.389099%,0.779724%,0.779724%);fill-opacity:1;" d="M 87.453125 34.039062 C 87.453125 34.039062 87.550781 34.050781 87.71875 34.089844 C 87.890625 34.125 88.132812 34.164062 88.449219 34.222656 C 88.765625 34.285156 89.140625 34.34375 89.566406 34.40625 C 89.992188 34.46875 90.464844 34.539062 90.988281 34.601562 C 91.507812 34.664062 92.066406 34.734375 92.648438 34.785156 C 93.234375 34.84375 93.863281 34.894531 94.496094 34.941406 C 94.8125 34.953125 95.140625 34.992188 95.46875 35.003906 C 95.796875 35.015625 96.125 35.039062 96.464844 35.050781 C 97.132812 35.078125 97.8125 35.101562 98.480469 35.089844 C 98.820312 35.089844 99.160156 35.089844 99.488281 35.078125 C 99.65625 35.078125 99.816406 35.066406 99.984375 35.066406 C 100.15625 35.050781 100.3125 35.050781 100.484375 35.039062 C 100.652344 35.027344 100.8125 35.015625 100.96875 35.015625 C 101.128906 35.003906 101.296875 34.992188 101.457031 34.980469 C 101.769531 34.953125 102.085938 34.917969 102.390625 34.882812 C 102.996094 34.808594 103.582031 34.722656 104.113281 34.589844 C 104.648438 34.46875 105.136719 34.320312 105.570312 34.136719 C 105.996094 33.953125 106.363281 33.761719 106.652344 33.527344 C 106.945312 33.296875 107.175781 33.050781 107.332031 32.808594 C 107.492188 32.566406 107.589844 32.34375 107.648438 32.1875 C 107.699219 32.027344 107.734375 31.941406 107.734375 31.941406 L 107.902344 31.941406 C 107.902344 31.941406 107.902344 32.039062 107.890625 32.210938 C 107.878906 32.382812 107.855469 32.636719 107.757812 32.941406 C 107.660156 33.246094 107.503906 33.613281 107.222656 33.980469 C 107.089844 34.164062 106.921875 34.332031 106.75 34.515625 C 106.566406 34.6875 106.347656 34.84375 106.128906 35.003906 C 105.667969 35.308594 105.148438 35.578125 104.550781 35.796875 C 103.96875 36.015625 103.335938 36.199219 102.667969 36.332031 C 101.347656 36.613281 99.902344 36.734375 98.46875 36.734375 C 97.023438 36.722656 95.589844 36.601562 94.265625 36.394531 C 92.929688 36.1875 91.703125 35.894531 90.671875 35.578125 C 89.636719 35.257812 88.8125 34.90625 88.242188 34.625 C 87.960938 34.492188 87.730469 34.371094 87.585938 34.296875 C 87.441406 34.210938 87.355469 34.175781 87.355469 34.175781 Z M 87.453125 34.039062 "/>
<path style=" stroke:none;fill-rule:nonzero;fill:rgb(0%,58.428955%,80.389404%);fill-opacity:1;" d="M 74.628906 59.113281 L 74.628906 62.84375 C 74.628906 63.917969 73.765625 64.78125 72.695312 64.78125 L 65.640625 64.78125 C 65.386719 64.78125 65.167969 64.988281 65.167969 65.257812 L 65.167969 67.257812 C 65.167969 67.511719 64.960938 67.734375 64.695312 67.734375 L 60.832031 67.734375 C 60.578125 67.734375 60.359375 67.527344 60.359375 67.257812 L 60.359375 59.515625 C 60.359375 59.257812 60.152344 59.039062 59.882812 59.039062 C 59.628906 59.039062 59.410156 58.832031 59.410156 58.5625 L 59.410156 57.648438 C 59.410156 57.390625 59.617188 57.171875 59.882812 57.171875 L 72.683594 57.171875 C 73.765625 57.171875 74.628906 58.039062 74.628906 59.113281 Z M 65.167969 59.5 L 65.167969 62.441406 C 65.167969 62.695312 65.375 62.917969 65.640625 62.917969 L 67.886719 62.917969 C 68.957031 62.917969 69.820312 62.050781 69.820312 60.976562 C 69.820312 59.90625 68.957031 59.039062 67.886719 59.039062 L 65.640625 59.039062 C 65.375 59.027344 65.167969 59.246094 65.167969 59.5 Z M 65.167969 59.5 "/>
<path style=" stroke:none;fill-rule:nonzero;fill:rgb(0%,58.428955%,80.389404%);fill-opacity:1;" d="M 86.082031 57.171875 L 89.929688 57.171875 C 90.183594 57.171875 90.402344 57.378906 90.402344 57.648438 L 90.402344 67.269531 C 90.402344 67.527344 90.195312 67.746094 89.929688 67.746094 L 78.550781 67.746094 C 77.226562 67.746094 76.160156 66.671875 76.160156 65.34375 L 76.160156 59.585938 C 76.160156 58.257812 77.226562 57.183594 78.550781 57.183594 C 79.875 57.183594 80.941406 58.257812 80.941406 59.585938 L 80.941406 63.464844 C 80.941406 64.792969 82.011719 65.867188 83.335938 65.867188 L 85.144531 65.867188 C 85.398438 65.867188 85.617188 65.660156 85.617188 65.390625 L 85.617188 57.648438 C 85.617188 57.378906 85.824219 57.171875 86.082031 57.171875 Z M 86.082031 57.171875 "/>
<path style=" stroke:none;fill-rule:nonzero;fill:rgb(0%,58.428955%,80.389404%);fill-opacity:1;" d="M 99.902344 62.917969 L 105.679688 62.917969 C 105.9375 62.917969 106.15625 63.125 106.15625 63.390625 L 106.15625 67.269531 C 106.15625 67.527344 105.949219 67.746094 105.679688 67.746094 L 94.980469 67.746094 C 93.28125 67.746094 91.910156 66.367188 91.910156 64.660156 L 91.910156 60.5625 C 91.910156 58.695312 93.414062 57.183594 95.273438 57.183594 L 104.578125 57.183594 C 104.988281 57.183594 105.328125 57.527344 105.328125 57.941406 L 105.328125 59.792969 C 105.328125 60.210938 104.988281 60.550781 104.578125 60.550781 L 101.273438 60.550781 C 100.859375 60.550781 100.519531 60.210938 100.519531 59.792969 C 100.519531 59.378906 100.179688 59.039062 99.765625 59.039062 C 98.066406 59.039062 96.695312 60.417969 96.695312 62.125 L 96.695312 62.78125 C 96.695312 64.488281 98.066406 65.867188 99.765625 65.867188 L 100.882812 65.867188 C 101.140625 65.867188 101.359375 65.660156 101.359375 65.390625 L 101.359375 65.257812 C 101.359375 65 101.152344 64.78125 100.882812 64.78125 L 99.902344 64.78125 C 99.644531 64.78125 99.425781 64.574219 99.425781 64.304688 L 99.425781 63.378906 C 99.425781 63.125 99.632812 62.917969 99.902344 62.917969 Z M 99.902344 62.917969 "/>
<path style=" stroke:none;fill-rule:nonzero;fill:rgb(0%,0%,0%);fill-opacity:1;" d="M 75.039062 69.34375 L 75.039062 72.171875 C 75.039062 72.402344 74.859375 72.585938 74.628906 72.585938 C 74.265625 72.585938 74.070312 73.039062 74.335938 73.292969 C 74.605469 73.5625 74.410156 74 74.046875 74 L 72.902344 74 C 72.792969 74 72.683594 73.953125 72.613281 73.878906 L 71.433594 72.695312 C 71.359375 72.621094 71.25 72.574219 71.144531 72.574219 L 70.71875 72.574219 C 70.597656 72.574219 70.488281 72.671875 70.488281 72.804688 L 70.488281 73.769531 C 70.488281 73.890625 70.390625 74 70.257812 74 L 68.398438 74 C 68.277344 74 68.167969 73.902344 68.167969 73.769531 L 68.167969 70.027344 C 68.167969 69.902344 68.070312 69.792969 67.9375 69.792969 C 67.816406 69.792969 67.707031 69.695312 67.707031 69.5625 L 67.707031 69.125 C 67.707031 69 67.804688 68.890625 67.9375 68.890625 L 74.628906 68.890625 C 74.859375 68.929688 75.039062 69.109375 75.039062 69.34375 Z M 70.707031 71.695312 L 72.308594 71.695312 C 72.539062 71.695312 72.722656 71.511719 72.722656 71.28125 L 72.722656 70.246094 C 72.722656 70.011719 72.539062 69.832031 72.308594 69.832031 L 70.707031 69.832031 C 70.582031 69.832031 70.476562 69.929688 70.476562 70.0625 L 70.476562 71.476562 C 70.488281 71.597656 70.582031 71.695312 70.707031 71.695312 Z M 70.707031 71.695312 "/>
<path style=" stroke:none;fill-rule:nonzero;fill:rgb(0%,0%,0%);fill-opacity:1;" d="M 76.632812 68.929688 L 81.246094 68.929688 C 81.867188 68.929688 82.375 69.429688 82.375 70.0625 L 82.375 73.792969 C 82.375 73.914062 82.277344 74.023438 82.144531 74.023438 L 75.734375 74.023438 C 75.613281 74.023438 75.503906 73.925781 75.503906 73.792969 L 75.503906 70.0625 C 75.503906 69.441406 76.011719 68.929688 76.632812 68.929688 Z M 78.039062 73.121094 L 79.839844 73.121094 C 79.960938 73.121094 80.070312 73.023438 80.070312 72.890625 L 80.070312 70.953125 C 80.070312 70.332031 79.570312 69.816406 78.9375 69.816406 C 78.320312 69.816406 77.808594 70.316406 77.808594 70.953125 L 77.808594 72.890625 C 77.820312 73.011719 77.917969 73.121094 78.039062 73.121094 Z M 78.039062 73.121094 "/>
<path style=" stroke:none;fill-rule:nonzero;fill:rgb(0%,0%,0%);fill-opacity:1;" d="M 90.488281 74.011719 L 88.628906 74.011719 C 88.507812 74.011719 88.410156 73.914062 88.398438 73.804688 L 88.300781 72.488281 C 88.277344 72.21875 87.914062 72.195312 87.851562 72.453125 L 87.5625 73.84375 C 87.539062 73.953125 87.453125 74.023438 87.34375 74.023438 L 86.214844 74.023438 C 86.105469 74.023438 86.019531 73.953125 85.996094 73.84375 L 85.691406 72.441406 C 85.632812 72.183594 85.265625 72.207031 85.242188 72.476562 L 85.144531 73.816406 C 85.132812 73.941406 85.035156 74.023438 84.914062 74.023438 L 83.054688 74.023438 C 82.921875 74.023438 82.824219 73.914062 82.824219 73.78125 L 83.152344 69.148438 C 83.164062 69.027344 83.261719 68.941406 83.382812 68.941406 L 85.847656 68.941406 C 85.957031 68.941406 86.042969 69.011719 86.066406 69.125 L 86.554688 71.429688 C 86.601562 71.671875 86.941406 71.671875 86.992188 71.429688 L 87.476562 69.125 C 87.5 69.011719 87.585938 68.941406 87.695312 68.941406 L 90.148438 68.941406 C 90.269531 68.941406 90.367188 69.039062 90.378906 69.148438 L 90.707031 73.78125 C 90.730469 73.902344 90.621094 74.011719 90.488281 74.011719 Z M 90.488281 74.011719 "/>
<path style=" stroke:none;fill-rule:nonzero;fill:rgb(0%,0%,0%);fill-opacity:1;" d="M 92.238281 68.929688 L 97.144531 68.929688 C 97.53125 68.929688 97.847656 69.246094 97.847656 69.636719 L 97.847656 73.304688 C 97.847656 73.695312 97.53125 74.011719 97.144531 74.011719 L 96.257812 74.011719 C 95.867188 74.011719 95.554688 73.695312 95.554688 73.304688 C 95.554688 72.914062 95.238281 72.597656 94.847656 72.597656 L 93.792969 72.597656 C 93.683594 72.597656 93.597656 72.671875 93.574219 72.78125 L 93.355469 73.84375 C 93.332031 73.953125 93.246094 74.023438 93.136719 74.023438 L 91.289062 74.023438 C 91.144531 74.023438 91.035156 73.890625 91.070312 73.746094 L 92.054688 69.109375 C 92.042969 69 92.128906 68.929688 92.238281 68.929688 Z M 94.070312 71.695312 L 94.835938 71.695312 C 95.226562 71.695312 95.539062 71.378906 95.539062 70.988281 L 95.539062 70.539062 C 95.539062 70.148438 95.226562 69.832031 94.835938 69.832031 L 94.375 69.832031 C 94.265625 69.832031 94.179688 69.902344 94.15625 70.011719 L 93.851562 71.429688 C 93.816406 71.5625 93.925781 71.695312 94.070312 71.695312 Z M 94.070312 71.695312 "/>
</g>
</svg>
