<?xml version="1.0" encoding="UTF-8"?>
<svg xmlns="http://www.w3.org/2000/svg" xmlns:xlink="http://www.w3.org/1999/xlink" width="165pt" height="82.499998pt" viewBox="0 0 165 82.499998" version="1.2">
<defs>
<clipPath id="clip1">
  <path d="M 0.496094 0 L 164.503906 0 L 164.503906 82.003906 L 0.496094 82.003906 Z M 0.496094 0 "/>
</clipPath>
<clipPath id="clip2">
  <path d="M 8.699219 0 L 156.300781 0 L 156.300781 82.003906 L 8.699219 82.003906 Z M 8.699219 0 "/>
</clipPath>
<clipPath id="clip3">
  <path d="M 4 73 L 164 73 L 164 82.003906 L 4 82.003906 Z M 4 73 "/>
</clipPath>
</defs>
<g id="surface1">
<g clip-path="url(#clip1)" clip-rule="nonzero">
<path style=" stroke:none;fill-rule:nonzero;fill:rgb(100%,100%,100%);fill-opacity:1;" d="M 0.496094 0 L 164.503906 0 L 164.503906 89.457031 L 0.496094 89.457031 Z M 0.496094 0 "/>
<path style=" stroke:none;fill-rule:nonzero;fill:rgb(100%,100%,100%);fill-opacity:1;" d="M 0.496094 0 L 164.503906 0 L 164.503906 82.003906 L 0.496094 82.003906 Z M 0.496094 0 "/>
<path style=" stroke:none;fill-rule:nonzero;fill:rgb(100%,100%,100%);fill-opacity:1;" d="M 0.496094 0 L 164.503906 0 L 164.503906 82.003906 L 0.496094 82.003906 Z M 0.496094 0 "/>
</g>
<g clip-path="url(#clip2)" clip-rule="nonzero">
<path style=" stroke:none;fill-rule:nonzero;fill:rgb(0%,66.668701%,93.328857%);fill-opacity:1;" d="M 8.699219 0 L 156.300781 0 L 156.300781 82.46875 L 8.699219 82.46875 Z M 8.699219 0 "/>
</g>
<path style=" stroke:none;fill-rule:evenodd;fill:rgb(100%,100%,100%);fill-opacity:1;" d="M 109.484375 58.261719 C 109.484375 60.519531 107.308594 62.070312 104.769531 62.070312 C 102.863281 62.070312 101.152344 61.027344 101.152344 59.230469 L 101.152344 59.183594 C 101.152344 57.460938 102.621094 56.296875 105.257812 56.296875 C 107.042969 56.296875 108.433594 56.585938 109.484375 56.855469 Z M 105.429688 50.328125 C 103.839844 50.328125 102.59375 50.691406 101.324219 51.25 C 101.203125 51.296875 100.984375 51.492188 100.984375 51.785156 C 100.984375 52.074219 101.25 52.339844 101.542969 52.339844 C 101.617188 52.339844 101.714844 52.316406 101.8125 52.269531 C 102.839844 51.785156 103.988281 51.445312 105.355469 51.445312 C 107.921875 51.445312 109.457031 52.730469 109.457031 55.230469 L 109.457031 55.761719 C 108.261719 55.449219 107.066406 55.230469 105.332031 55.230469 C 102.105469 55.230469 99.882812 56.683594 99.882812 59.257812 L 99.882812 59.304688 C 99.882812 61.875 102.375 63.1875 104.695312 63.1875 C 107.066406 63.1875 108.605469 62.023438 109.457031 60.832031 L 109.457031 62.386719 C 109.457031 62.75 109.703125 62.992188 110.046875 62.992188 C 110.386719 62.992188 110.632812 62.75 110.632812 62.386719 L 110.632812 55.179688 C 110.632812 53.652344 110.191406 52.511719 109.359375 51.6875 C 108.457031 50.789062 107.113281 50.328125 105.429688 50.328125 Z M 97.078125 50.425781 C 96.734375 50.425781 96.488281 50.691406 96.488281 51.03125 L 96.488281 62.386719 C 96.488281 62.75 96.757812 62.992188 97.101562 62.992188 C 97.441406 62.992188 97.6875 62.75 97.6875 62.386719 L 97.6875 51.03125 C 97.6875 50.667969 97.417969 50.425781 97.078125 50.425781 Z M 97.078125 45.546875 C 96.660156 45.546875 96.34375 45.863281 96.34375 46.277344 L 96.34375 46.6875 C 96.34375 47.101562 96.660156 47.417969 97.078125 47.417969 C 97.492188 47.417969 97.835938 47.101562 97.835938 46.6875 L 97.835938 46.277344 C 97.835938 45.863281 97.492188 45.546875 97.078125 45.546875 Z M 92.578125 45.085938 C 92.234375 45.085938 91.992188 45.355469 91.992188 45.695312 L 91.992188 62.386719 C 91.992188 62.75 92.261719 62.992188 92.601562 62.992188 C 92.945312 62.992188 93.1875 62.75 93.1875 62.386719 L 93.1875 45.695312 C 93.1875 45.355469 92.917969 45.085938 92.578125 45.085938 Z M 87.738281 58.261719 C 87.738281 60.519531 85.5625 62.070312 83.023438 62.070312 C 81.117188 62.070312 79.40625 61.027344 79.40625 59.230469 L 79.40625 59.183594 C 79.40625 57.460938 80.871094 56.296875 83.511719 56.296875 C 85.292969 56.296875 86.6875 56.585938 87.738281 56.855469 Z M 83.679688 50.328125 C 82.09375 50.328125 80.847656 50.691406 79.578125 51.25 C 79.457031 51.296875 79.234375 51.492188 79.234375 51.785156 C 79.234375 52.074219 79.503906 52.339844 79.796875 52.339844 C 79.871094 52.339844 79.96875 52.316406 80.066406 52.269531 C 81.09375 51.785156 82.242188 51.445312 83.609375 51.445312 C 86.171875 51.445312 87.710938 52.730469 87.710938 55.230469 L 87.710938 55.761719 C 86.515625 55.449219 85.316406 55.230469 83.582031 55.230469 C 80.359375 55.230469 78.136719 56.683594 78.136719 59.257812 L 78.136719 59.304688 C 78.136719 61.875 80.628906 63.1875 82.949219 63.1875 C 85.316406 63.1875 86.855469 62.023438 87.710938 60.832031 L 87.710938 62.386719 C 87.710938 62.75 87.957031 62.992188 88.296875 62.992188 C 88.640625 62.992188 88.882812 62.75 88.882812 62.386719 L 88.882812 55.179688 C 88.882812 53.652344 88.445312 52.511719 87.613281 51.6875 C 86.710938 50.789062 85.367188 50.328125 83.679688 50.328125 Z M 76.703125 51.613281 C 76.996094 51.613281 77.261719 51.371094 77.261719 51.082031 C 77.261719 50.789062 76.996094 50.523438 76.703125 50.523438 L 72.792969 50.523438 L 72.792969 47.078125 C 72.792969 46.738281 72.523438 46.46875 72.183594 46.46875 C 71.839844 46.46875 71.597656 46.738281 71.597656 47.078125 L 71.597656 50.523438 L 70.253906 50.523438 C 69.960938 50.523438 69.691406 50.765625 69.691406 51.054688 C 69.691406 51.347656 69.960938 51.613281 70.253906 51.613281 L 71.597656 51.613281 L 71.597656 59.71875 C 71.597656 62.070312 73.160156 63.113281 75.089844 63.113281 C 75.796875 63.113281 76.359375 62.96875 76.847656 62.796875 C 77.09375 62.699219 77.238281 62.53125 77.238281 62.289062 C 77.238281 61.996094 76.96875 61.753906 76.703125 61.753906 C 76.53125 61.753906 76.140625 61.996094 75.285156 61.996094 C 73.84375 61.996094 72.792969 61.367188 72.792969 59.597656 L 72.792969 51.613281 Z M 66.851562 45.816406 C 66.511719 45.816406 66.21875 46.105469 66.21875 46.445312 L 66.21875 62.363281 C 66.21875 62.699219 66.511719 62.992188 66.851562 62.992188 C 67.195312 62.992188 67.488281 62.699219 67.488281 62.363281 L 67.488281 46.445312 C 67.488281 46.105469 67.195312 45.816406 66.851562 45.816406 Z M 137.210938 24.175781 C 135.035156 24.175781 133.71875 25.269531 132.886719 26.628906 L 132.886719 25.269531 C 132.886719 24.734375 132.472656 24.324219 131.933594 24.324219 C 131.421875 24.324219 131.003906 24.757812 131.003906 25.269531 L 131.003906 36.164062 C 131.003906 36.695312 131.421875 37.109375 131.957031 37.109375 C 132.496094 37.109375 132.886719 36.695312 132.886719 36.164062 L 132.886719 29.804688 C 132.886719 27.453125 134.5 25.875 136.671875 25.875 C 138.894531 25.875 140.164062 27.332031 140.164062 29.660156 L 140.164062 36.164062 C 140.164062 36.695312 140.582031 37.109375 141.117188 37.109375 C 141.632812 37.109375 142.046875 36.695312 142.046875 36.164062 L 142.046875 29.199219 C 142.046875 26.214844 140.261719 24.175781 137.210938 24.175781 Z M 126.949219 30.777344 C 126.949219 33.421875 125.046875 35.605469 122.308594 35.605469 C 119.648438 35.605469 117.644531 33.421875 117.644531 30.726562 L 117.644531 30.679688 C 117.644531 28.035156 119.523438 25.828125 122.261719 25.828125 C 124.925781 25.828125 126.949219 28.035156 126.949219 30.726562 Z M 122.308594 24.175781 C 118.5 24.175781 115.714844 27.1875 115.714844 30.726562 L 115.714844 30.777344 C 115.714844 34.320312 118.476562 37.277344 122.261719 37.277344 C 126.070312 37.277344 128.882812 34.269531 128.882812 30.726562 L 128.882812 30.679688 C 128.882812 27.136719 126.097656 24.175781 122.308594 24.175781 Z M 108.894531 24.175781 C 106.722656 24.175781 105.402344 25.269531 104.570312 26.628906 L 104.570312 20.101562 C 104.570312 19.59375 104.15625 19.15625 103.621094 19.15625 C 103.105469 19.15625 102.691406 19.59375 102.691406 20.101562 L 102.691406 36.164062 C 102.691406 36.695312 103.105469 37.109375 103.644531 37.109375 C 104.179688 37.109375 104.570312 36.695312 104.570312 36.164062 L 104.570312 29.804688 C 104.570312 27.453125 106.183594 25.875 108.359375 25.875 C 110.582031 25.875 111.851562 27.332031 111.851562 29.660156 L 111.851562 36.164062 C 111.851562 36.695312 112.265625 37.109375 112.804688 37.109375 C 113.316406 37.109375 113.730469 36.695312 113.730469 36.164062 L 113.730469 29.199219 C 113.730469 26.214844 111.949219 24.175781 108.894531 24.175781 Z M 101.023438 36.136719 C 101.023438 35.703125 100.65625 35.339844 100.21875 35.339844 C 100.070312 35.339844 99.730469 35.507812 99.070312 35.507812 C 97.800781 35.507812 96.945312 34.949219 96.945312 33.421875 L 96.945312 26.09375 L 100.21875 26.09375 C 100.683594 26.09375 101.074219 25.730469 101.074219 25.269531 C 101.074219 24.832031 100.683594 24.445312 100.21875 24.445312 L 96.945312 24.445312 L 96.945312 21.484375 C 96.945312 20.976562 96.503906 20.539062 95.992188 20.539062 C 95.457031 20.539062 95.0625 20.976562 95.0625 21.484375 L 95.0625 24.445312 L 94.039062 24.445312 C 93.597656 24.445312 93.207031 24.808594 93.207031 25.269531 C 93.207031 25.707031 93.597656 26.09375 94.039062 26.09375 L 95.0625 26.09375 L 95.0625 33.664062 C 95.0625 36.210938 96.601562 37.207031 98.628906 37.207031 C 99.363281 37.207031 99.949219 37.085938 100.488281 36.867188 C 100.804688 36.746094 101.023438 36.476562 101.023438 36.136719 Z M 85.476562 36.867188 L 85.378906 37.058594 C 84.695312 38.589844 84.011719 39.292969 82.839844 39.292969 C 82.203125 39.292969 81.835938 39.195312 81.472656 39.074219 C 81.324219 39.023438 81.179688 38.976562 81.007812 38.976562 C 80.59375 38.976562 80.199219 39.316406 80.199219 39.777344 C 80.199219 40.214844 80.496094 40.457031 80.789062 40.578125 C 81.421875 40.796875 82.035156 40.941406 82.863281 40.941406 C 84.769531 40.941406 85.992188 39.996094 87.089844 37.398438 L 92.023438 25.707031 C 92.074219 25.5625 92.121094 25.390625 92.121094 25.246094 C 92.121094 24.734375 91.707031 24.324219 91.191406 24.324219 C 90.703125 24.324219 90.4375 24.636719 90.289062 25.027344 L 86.382812 34.902344 L 81.984375 25.050781 C 81.8125 24.636719 81.546875 24.324219 81.03125 24.324219 C 80.496094 24.324219 80.078125 24.734375 80.078125 25.246094 C 80.078125 25.414062 80.128906 25.585938 80.199219 25.753906 Z M 67.855469 21.777344 L 72.175781 21.777344 C 74.9375 21.777344 76.769531 23.039062 76.769531 25.464844 L 76.769531 25.511719 C 76.769531 27.742188 74.914062 29.246094 72.078125 29.246094 L 67.855469 29.246094 Z M 78.722656 25.4375 L 78.722656 25.390625 C 78.722656 22.042969 76.183594 20.003906 72.324219 20.003906 L 66.875 20.003906 C 66.363281 20.003906 65.925781 20.441406 65.925781 20.976562 L 65.925781 36.136719 C 65.925781 36.671875 66.363281 37.109375 66.875 37.109375 C 67.414062 37.109375 67.855469 36.671875 67.855469 36.136719 L 67.855469 30.996094 L 72.007812 30.996094 C 75.644531 30.996094 78.722656 29.101562 78.722656 25.4375 Z M 78.722656 25.4375 "/>
<path style=" stroke:none;fill-rule:evenodd;fill:rgb(100%,100%,100%);fill-opacity:1;" d="M 43.679688 19.03125 C 37.039062 19.03125 31.636719 24.394531 31.636719 30.992188 L 31.636719 37.671875 C 31.636719 38.550781 32.355469 39.265625 33.246094 39.265625 C 34.132812 39.265625 34.851562 38.550781 34.851562 37.671875 L 34.851562 30.992188 C 34.851562 26.15625 38.8125 22.222656 43.679688 22.222656 C 49.273438 22.222656 53.824219 26.746094 53.824219 32.304688 C 53.824219 37.859375 49.273438 42.382812 43.679688 42.382812 L 33.246094 42.382812 C 27.582031 42.382812 22.976562 46.957031 22.976562 52.578125 L 22.976562 57.5 C 22.976562 60.753906 25.640625 63.398438 28.914062 63.398438 C 32.1875 63.398438 34.851562 60.753906 34.851562 57.5 L 34.851562 50.207031 C 34.851562 49.324219 34.132812 48.609375 33.246094 48.609375 C 32.355469 48.609375 31.636719 49.324219 31.636719 50.207031 L 31.636719 57.5 C 31.636719 58.992188 30.414062 60.203125 28.914062 60.203125 C 27.414062 60.203125 26.191406 58.992188 26.191406 57.5 L 26.191406 52.578125 C 26.191406 48.71875 29.355469 45.574219 33.246094 45.574219 L 43.679688 45.574219 C 51.046875 45.574219 57.042969 39.621094 57.042969 32.304688 C 57.042969 24.984375 51.046875 19.03125 43.679688 19.03125 Z M 43.679688 19.03125 "/>
<path style=" stroke:none;fill-rule:nonzero;fill:rgb(100%,100%,100%);fill-opacity:1;" d="M 4.832031 -36.902344 L 163.140625 -36.902344 L 163.140625 8.289062 L 4.832031 8.289062 Z M 4.832031 -36.902344 "/>
<g clip-path="url(#clip3)" clip-rule="nonzero">
<path style=" stroke:none;fill-rule:nonzero;fill:rgb(100%,100%,100%);fill-opacity:1;" d="M 4.832031 73.800781 L 163.140625 73.800781 L 163.140625 118.996094 L 4.832031 118.996094 Z M 4.832031 73.800781 "/>
</g>
</g>
</svg>
