<svg xmlns="http://www.w3.org/2000/svg" xmlns:xlink="http://www.w3.org/1999/xlink" width="220" zoomAndPan="magnify" viewBox="0 0 165 82.499998" height="110" preserveAspectRatio="xMidYMid meet" version="1.0"><defs><clipPath id="id1"><path d="M 0.496094 0 L 164.503906 0 L 164.503906 82.003906 L 0.496094 82.003906 Z M 0.496094 0 " clip-rule="nonzero"/></clipPath></defs><g clip-path="url(#id1)"><path fill="rgb(100%, 100%, 100%)" d="M 0.496094 0 L 164.503906 0 L 164.503906 89.457031 L 0.496094 89.457031 Z M 0.496094 0 " fill-opacity="1" fill-rule="nonzero"/><path fill="rgb(100%, 100%, 100%)" d="M 0.496094 0 L 164.503906 0 L 164.503906 82.003906 L 0.496094 82.003906 Z M 0.496094 0 " fill-opacity="1" fill-rule="nonzero"/><path fill="rgb(100%, 100%, 100%)" d="M 0.496094 0 L 164.503906 0 L 164.503906 82.003906 L 0.496094 82.003906 Z M 0.496094 0 " fill-opacity="1" fill-rule="nonzero"/><path fill="rgb(100%, 100%, 100%)" d="M 0.496094 0 L 164.503906 0 L 164.503906 82.003906 L 0.496094 82.003906 Z M 0.496094 0 " fill-opacity="1" fill-rule="nonzero"/></g><path fill="rgb(38.038635%, 85.488892%, 98.429871%)" d="M 70.238281 48.691406 L 67.183594 48.691406 L 67.183594 55.492188 L 63.351562 55.492188 L 63.351562 36.910156 L 70.261719 36.910156 C 72.460938 36.910156 74.15625 37.398438 75.347656 38.378906 C 76.539062 39.355469 77.136719 40.738281 77.136719 42.523438 C 77.136719 43.792969 76.863281 44.851562 76.3125 45.695312 C 75.765625 46.542969 74.929688 47.21875 73.816406 47.71875 L 77.839844 55.3125 L 77.839844 55.492188 L 73.726562 55.492188 Z M 67.183594 45.589844 L 70.277344 45.589844 C 71.238281 45.589844 71.984375 45.34375 72.511719 44.855469 C 73.039062 44.367188 73.304688 43.691406 73.304688 42.832031 C 73.304688 41.957031 73.054688 41.265625 72.554688 40.765625 C 72.058594 40.261719 71.292969 40.011719 70.261719 40.011719 L 67.183594 40.011719 Z M 67.183594 45.589844 " fill-opacity="1" fill-rule="nonzero"/><path fill="rgb(38.038635%, 85.488892%, 98.429871%)" d="M 86.167969 55.746094 C 84.140625 55.746094 82.492188 55.125 81.21875 53.882812 C 79.945312 52.640625 79.308594 50.988281 79.308594 48.917969 L 79.308594 48.5625 C 79.308594 47.175781 79.578125 45.933594 80.113281 44.84375 C 80.648438 43.75 81.410156 42.90625 82.394531 42.316406 C 83.378906 41.722656 84.5 41.429688 85.761719 41.429688 C 87.652344 41.429688 89.140625 42.023438 90.226562 43.214844 C 91.3125 44.40625 91.855469 46.09375 91.855469 48.28125 L 91.855469 49.789062 L 83.050781 49.789062 C 83.171875 50.691406 83.53125 51.414062 84.132812 51.957031 C 84.730469 52.5 85.492188 52.773438 86.410156 52.773438 C 87.832031 52.773438 88.945312 52.257812 89.746094 51.230469 L 91.558594 53.257812 C 91.007812 54.042969 90.257812 54.652344 89.3125 55.089844 C 88.367188 55.527344 87.320312 55.746094 86.167969 55.746094 Z M 85.746094 44.402344 C 85.015625 44.402344 84.421875 44.648438 83.964844 45.144531 C 83.507812 45.640625 83.21875 46.351562 83.089844 47.273438 L 88.226562 47.273438 L 88.226562 46.976562 C 88.207031 46.15625 87.988281 45.523438 87.5625 45.074219 C 87.136719 44.625 86.53125 44.402344 85.746094 44.402344 Z M 85.746094 44.402344 " fill-opacity="1" fill-rule="nonzero"/><path fill="rgb(38.038635%, 85.488892%, 98.429871%)" d="M 101.960938 55.492188 C 101.789062 55.160156 101.667969 54.746094 101.589844 54.253906 C 100.695312 55.25 99.53125 55.746094 98.101562 55.746094 C 96.746094 55.746094 95.625 55.355469 94.734375 54.574219 C 93.84375 53.789062 93.398438 52.804688 93.398438 51.613281 C 93.398438 50.148438 93.941406 49.027344 95.027344 48.242188 C 96.113281 47.460938 97.683594 47.066406 99.738281 47.054688 L 101.4375 47.054688 L 101.4375 46.265625 C 101.4375 45.628906 101.273438 45.117188 100.945312 44.734375 C 100.617188 44.351562 100.097656 44.160156 99.390625 44.160156 C 98.769531 44.160156 98.28125 44.308594 97.929688 44.605469 C 97.574219 44.90625 97.398438 45.3125 97.398438 45.832031 L 93.707031 45.832031 C 93.707031 45.03125 93.953125 44.292969 94.449219 43.609375 C 94.941406 42.929688 95.640625 42.398438 96.542969 42.007812 C 97.445312 41.621094 98.460938 41.429688 99.582031 41.429688 C 101.285156 41.429688 102.640625 41.855469 103.640625 42.710938 C 104.640625 43.566406 105.140625 44.769531 105.140625 46.316406 L 105.140625 52.300781 C 105.148438 53.613281 105.332031 54.605469 105.691406 55.277344 L 105.691406 55.492188 Z M 98.90625 52.925781 C 99.453125 52.925781 99.953125 52.804688 100.414062 52.5625 C 100.875 52.320312 101.214844 51.996094 101.4375 51.585938 L 101.4375 49.214844 L 100.054688 49.214844 C 98.207031 49.214844 97.222656 49.851562 97.105469 51.128906 L 97.09375 51.34375 C 97.09375 51.804688 97.253906 52.183594 97.578125 52.480469 C 97.902344 52.777344 98.34375 52.925781 98.90625 52.925781 Z M 98.90625 52.925781 " fill-opacity="1" fill-rule="nonzero"/><path fill="rgb(38.038635%, 85.488892%, 98.429871%)" d="M 113.726562 52.773438 C 114.40625 52.773438 114.960938 52.585938 115.386719 52.210938 C 115.8125 51.839844 116.035156 51.339844 116.050781 50.71875 L 119.515625 50.71875 C 119.503906 51.65625 119.25 52.511719 118.746094 53.289062 C 118.246094 54.070312 117.558594 54.671875 116.683594 55.101562 C 115.8125 55.53125 114.847656 55.746094 113.789062 55.746094 C 111.8125 55.746094 110.253906 55.121094 109.113281 53.863281 C 107.972656 52.609375 107.402344 50.875 107.402344 48.664062 L 107.402344 48.421875 C 107.402344 46.296875 107.96875 44.597656 109.101562 43.328125 C 110.234375 42.0625 111.789062 41.429688 113.765625 41.429688 C 115.492188 41.429688 116.878906 41.917969 117.921875 42.902344 C 118.964844 43.886719 119.496094 45.195312 119.511719 46.828125 L 116.050781 46.828125 C 116.035156 46.109375 115.8125 45.523438 115.386719 45.074219 C 114.960938 44.625 114.398438 44.402344 113.699219 44.402344 C 112.839844 44.402344 112.191406 44.714844 111.753906 45.339844 C 111.3125 45.96875 111.09375 46.984375 111.09375 48.390625 L 111.09375 48.773438 C 111.09375 50.195312 111.3125 51.21875 111.746094 51.839844 C 112.179688 52.464844 112.839844 52.773438 113.726562 52.773438 Z M 113.726562 52.773438 " fill-opacity="1" fill-rule="nonzero"/><path fill="rgb(38.038635%, 85.488892%, 98.429871%)" d="M 126.042969 38.289062 L 126.042969 41.683594 L 128.40625 41.683594 L 128.40625 44.390625 L 126.042969 44.390625 L 126.042969 51.28125 C 126.042969 51.792969 126.140625 52.15625 126.335938 52.378906 C 126.53125 52.601562 126.90625 52.710938 127.460938 52.710938 C 127.871094 52.710938 128.230469 52.679688 128.546875 52.621094 L 128.546875 55.414062 C 127.820312 55.636719 127.078125 55.746094 126.3125 55.746094 C 123.722656 55.746094 122.402344 54.441406 122.351562 51.828125 L 122.351562 44.390625 L 120.332031 44.390625 L 120.332031 41.683594 L 122.351562 41.683594 L 122.351562 38.289062 Z M 126.042969 38.289062 " fill-opacity="1" fill-rule="nonzero"/><path fill="rgb(38.038635%, 85.488892%, 98.429871%)" d="M 141.867188 36.910156 L 145.699219 36.910156 L 145.699219 49.773438 C 145.699219 50.957031 145.4375 52 144.914062 52.90625 C 144.390625 53.8125 143.652344 54.515625 142.699219 55.007812 C 141.742188 55.5 140.667969 55.746094 139.464844 55.746094 C 137.496094 55.746094 135.964844 55.246094 134.867188 54.246094 C 133.769531 53.25 133.21875 51.832031 133.21875 50.003906 L 137.078125 50.003906 C 137.078125 50.914062 137.269531 51.585938 137.652344 52.019531 C 138.035156 52.453125 138.640625 52.671875 139.464844 52.671875 C 140.199219 52.671875 140.78125 52.421875 141.214844 51.917969 C 141.648438 51.417969 141.867188 50.703125 141.867188 49.773438 Z M 141.867188 36.910156 " fill-opacity="1" fill-rule="nonzero"/><path fill="rgb(38.038635%, 85.488892%, 98.429871%)" d="M 158.628906 50.617188 C 158.628906 49.894531 158.375 49.339844 157.863281 48.953125 C 157.351562 48.566406 156.433594 48.15625 155.101562 47.726562 C 153.773438 47.296875 152.722656 46.875 151.949219 46.457031 C 149.835938 45.316406 148.78125 43.78125 148.78125 41.847656 C 148.78125 40.84375 149.0625 39.949219 149.628906 39.164062 C 150.195312 38.375 151.007812 37.761719 152.070312 37.320312 C 153.128906 36.875 154.320312 36.65625 155.640625 36.65625 C 156.96875 36.65625 158.152344 36.894531 159.191406 37.375 C 160.230469 37.855469 161.039062 38.535156 161.613281 39.410156 C 162.1875 40.289062 162.476562 41.285156 162.476562 42.398438 L 158.640625 42.398438 C 158.640625 41.546875 158.375 40.886719 157.835938 40.414062 C 157.300781 39.941406 156.546875 39.707031 155.574219 39.707031 C 154.640625 39.707031 153.910156 39.902344 153.390625 40.300781 C 152.871094 40.695312 152.613281 41.214844 152.613281 41.863281 C 152.613281 42.464844 152.917969 42.972656 153.523438 43.382812 C 154.132812 43.789062 155.03125 44.171875 156.214844 44.53125 C 158.394531 45.183594 159.984375 45.996094 160.980469 46.96875 C 161.976562 47.9375 162.472656 49.144531 162.472656 50.59375 C 162.472656 52.199219 161.867188 53.460938 160.648438 54.375 C 159.429688 55.289062 157.789062 55.746094 155.730469 55.746094 C 154.296875 55.746094 152.996094 55.484375 151.820312 54.964844 C 150.644531 54.441406 149.746094 53.722656 149.128906 52.8125 C 148.511719 51.902344 148.203125 50.847656 148.203125 49.648438 L 152.050781 49.648438 C 152.050781 51.699219 153.277344 52.722656 155.730469 52.722656 C 156.640625 52.722656 157.351562 52.539062 157.863281 52.167969 C 158.375 51.796875 158.628906 51.28125 158.628906 50.617188 Z M 158.628906 50.617188 " fill-opacity="1" fill-rule="nonzero"/><path fill="rgb(0%, 0%, 0%)" d="M 57.363281 44.234375 L 56.699219 39.671875 L 55.65625 39.671875 L 55.65625 36.476562 L 53.9375 36.476562 L 53.9375 39.671875 L 52.894531 39.671875 L 52.226562 44.234375 L 51.648438 47.230469 L 51.648438 52.292969 L 49.929688 50.703125 L 49.929688 46.308594 L 48.210938 46.308594 L 48.210938 49.113281 L 47.410156 48.371094 L 46.152344 49.375 L 51.648438 54.460938 L 51.648438 72.109375 L 46.78125 72.109375 L 46.78125 73.585938 L 57.945312 73.585938 L 57.945312 47.230469 Z M 56.226562 72.109375 L 53.363281 72.109375 L 53.363281 47.351562 L 53.925781 44.464844 L 54.410156 41.148438 L 55.183594 41.148438 L 55.664062 44.433594 L 56.226562 47.351562 Z M 56.226562 72.109375 " fill-opacity="1" fill-rule="nonzero"/><path fill="rgb(0%, 0%, 0%)" d="M 22.445312 30.089844 L 20.726562 30.089844 L 20.726562 33.285156 L 19.007812 33.285156 L 19.007812 30.089844 L 17.289062 30.089844 L 17.289062 33.976562 L 16.144531 42.332031 L 16.144531 73.585938 L 23.589844 73.585938 L 23.589844 42.332031 L 22.445312 33.976562 Z M 21.871094 72.109375 L 20.609375 72.109375 L 20.609375 50.238281 L 18.894531 50.238281 L 18.894531 72.109375 L 17.863281 72.109375 L 17.863281 42.417969 L 18.914062 34.757812 L 20.820312 34.757812 L 21.871094 42.417969 Z M 21.871094 72.109375 " fill-opacity="1" fill-rule="nonzero"/><path fill="rgb(0%, 0%, 0%)" d="M 31.222656 41.761719 L 30.746094 41.492188 L 30.269531 41.761719 C 27.878906 43.132812 26.453125 45.421875 26.453125 47.886719 L 26.453125 52.453125 L 25.019531 52.453125 L 25.019531 53.925781 L 36.472656 53.925781 L 36.472656 52.453125 L 35.042969 52.453125 L 35.042969 47.886719 C 35.042969 45.421875 33.613281 43.132812 31.222656 41.761719 Z M 33.324219 52.449219 L 28.171875 52.449219 L 28.171875 47.886719 C 28.171875 46.082031 29.125 44.398438 30.746094 43.289062 C 32.371094 44.398438 33.324219 46.082031 33.324219 47.886719 Z M 33.324219 52.449219 " fill-opacity="1" fill-rule="nonzero"/><path fill="rgb(0%, 0%, 0%)" d="M 24.578125 60.417969 L 25.460938 61.683594 L 30.746094 58.960938 L 36.03125 61.683594 L 36.914062 60.417969 L 30.746094 57.242188 Z M 24.578125 60.417969 " fill-opacity="1" fill-rule="nonzero"/><path fill="rgb(0%, 0%, 0%)" d="M 30.746094 61.296875 C 27.746094 61.296875 25.304688 63.390625 25.304688 65.964844 L 25.304688 73.585938 L 36.1875 73.585938 L 36.1875 65.964844 C 36.1875 63.390625 33.746094 61.296875 30.746094 61.296875 Z M 34.46875 72.109375 L 27.023438 72.109375 L 27.023438 65.964844 C 27.023438 64.207031 28.695312 62.773438 30.746094 62.773438 C 32.800781 62.773438 34.46875 64.203125 34.46875 65.964844 Z M 34.46875 72.109375 " fill-opacity="1" fill-rule="nonzero"/><path fill="rgb(0%, 0%, 0%)" d="M 35.042969 34.019531 L 33.324219 34.019531 L 33.324219 35.753906 L 31.605469 34.214844 L 31.605469 32.546875 L 29.886719 32.546875 L 29.886719 34.214844 L 28.167969 35.753906 L 28.167969 34.019531 L 26.453125 34.019531 L 26.453125 37.292969 L 23.964844 39.523438 L 25.203125 40.542969 L 30.746094 35.578125 L 36.132812 40.402344 L 37.375 39.382812 L 35.042969 37.292969 Z M 35.042969 34.019531 " fill-opacity="1" fill-rule="nonzero"/><path fill="rgb(0%, 0%, 0%)" d="M 13.941406 48.378906 L 13.28125 49 L 13.28125 46.308594 L 11.5625 46.308594 L 11.5625 50.628906 L 9.847656 52.257812 L 9.847656 47.230469 L 9.265625 44.234375 L 8.601562 39.671875 L 7.554688 39.671875 L 7.554688 36.476562 L 5.835938 36.476562 L 5.835938 39.671875 L 4.792969 39.671875 L 4.128906 44.234375 L 3.546875 47.230469 L 3.546875 73.585938 L 14.578125 73.585938 L 14.578125 72.109375 L 9.84375 72.109375 L 9.84375 54.457031 L 13.257812 51.222656 L 13.28125 51.222656 L 13.28125 51.199219 L 15.214844 49.367188 Z M 8.128906 53.886719 L 8.128906 72.109375 L 5.265625 72.109375 L 5.265625 47.351562 L 5.824219 44.464844 L 6.308594 41.148438 L 7.082031 41.148438 L 7.5625 44.433594 L 8.128906 47.351562 Z M 8.128906 53.886719 " fill-opacity="1" fill-rule="nonzero"/><path fill="rgb(0%, 0%, 0%)" d="M 44.203125 30.089844 L 42.484375 30.089844 L 42.484375 33.285156 L 40.769531 33.285156 L 40.769531 30.089844 L 39.050781 30.089844 L 39.050781 33.976562 L 37.90625 42.332031 L 37.90625 73.585938 L 45.347656 73.585938 L 45.347656 42.332031 L 44.203125 33.976562 Z M 43.628906 72.109375 L 42.371094 72.109375 L 42.371094 50.238281 L 40.652344 50.238281 L 40.652344 72.109375 L 39.621094 72.109375 L 39.621094 42.417969 L 40.671875 34.757812 L 42.582031 34.757812 L 43.632812 42.417969 L 43.632812 72.109375 Z M 43.628906 72.109375 " fill-opacity="1" fill-rule="nonzero"/><path fill="rgb(38.038635%, 85.488892%, 98.429871%)" d="M 38.652344 13.351562 C 38.382812 13.261719 38.109375 13.171875 37.832031 13.09375 C 37.878906 12.910156 37.921875 12.722656 37.960938 12.535156 C 38.582031 9.523438 38.175781 7.101562 36.789062 6.300781 C 35.460938 5.535156 33.285156 6.335938 31.089844 8.242188 C 30.875 8.429688 30.664062 8.625 30.457031 8.824219 C 30.320312 8.691406 30.179688 8.5625 30.035156 8.433594 C 27.734375 6.394531 25.429688 5.535156 24.042969 6.335938 C 22.714844 7.101562 22.324219 9.382812 22.882812 12.234375 C 22.9375 12.519531 23 12.800781 23.070312 13.078125 C 22.746094 13.171875 22.429688 13.269531 22.128906 13.375 C 19.429688 14.316406 17.707031 15.785156 17.707031 17.3125 C 17.707031 18.890625 19.558594 20.472656 22.367188 21.433594 C 22.59375 21.507812 22.824219 21.582031 23.054688 21.648438 C 22.980469 21.949219 22.914062 22.25 22.855469 22.554688 C 22.320312 25.359375 22.738281 27.585938 24.0625 28.347656 C 25.429688 29.136719 27.726562 28.324219 29.960938 26.375 C 30.136719 26.21875 30.316406 26.054688 30.492188 25.882812 C 30.714844 26.101562 30.945312 26.308594 31.179688 26.511719 C 33.347656 28.375 35.484375 29.125 36.808594 28.359375 C 38.175781 27.570312 38.617188 25.179688 38.042969 22.269531 C 37.996094 22.046875 37.945312 21.820312 37.886719 21.589844 C 38.050781 21.539062 38.207031 21.492188 38.363281 21.441406 C 41.28125 20.472656 43.183594 18.910156 43.183594 17.3125 C 43.183594 15.78125 41.40625 14.296875 38.652344 13.351562 Z M 31.804688 9.0625 C 33.6875 7.429688 35.445312 6.78125 36.246094 7.242188 C 37.097656 7.734375 37.429688 9.71875 36.894531 12.316406 C 36.859375 12.484375 36.820312 12.652344 36.78125 12.824219 C 35.722656 12.578125 34.574219 12.398438 33.375 12.285156 C 32.671875 11.289062 31.949219 10.382812 31.21875 9.601562 C 31.410156 9.417969 31.605469 9.238281 31.804688 9.0625 Z M 25.230469 18.617188 C 25.460938 19.0625 25.699219 19.5 25.953125 19.933594 C 26.207031 20.375 26.476562 20.8125 26.75 21.242188 C 25.917969 21.148438 25.132812 21.023438 24.402344 20.863281 C 24.628906 20.140625 24.90625 19.386719 25.230469 18.617188 Z M 25.226562 16.0625 C 24.910156 15.308594 24.640625 14.570312 24.417969 13.859375 C 25.144531 13.695312 25.921875 13.5625 26.730469 13.464844 C 26.457031 13.882812 26.199219 14.3125 25.949219 14.746094 C 25.699219 15.179688 25.457031 15.617188 25.226562 16.0625 Z M 25.808594 17.339844 C 26.140625 16.640625 26.503906 15.957031 26.890625 15.289062 C 27.277344 14.617188 27.691406 13.960938 28.125 13.324219 C 28.882812 13.265625 29.660156 13.238281 30.445312 13.238281 C 31.234375 13.238281 32.011719 13.265625 32.769531 13.324219 C 33.203125 13.960938 33.609375 14.613281 33.996094 15.28125 C 34.386719 15.949219 34.75 16.632812 35.09375 17.324219 C 34.753906 18.023438 34.390625 18.710938 34 19.382812 C 33.613281 20.054688 33.207031 20.710938 32.777344 21.355469 C 32.023438 21.40625 31.242188 21.433594 30.445312 21.433594 C 29.652344 21.433594 28.882812 21.410156 28.140625 21.363281 C 27.699219 20.722656 27.285156 20.0625 26.894531 19.390625 C 26.503906 18.71875 26.144531 18.035156 25.808594 17.339844 Z M 34.945312 19.925781 C 35.199219 19.484375 35.445312 19.035156 35.683594 18.578125 C 36.023438 19.355469 36.308594 20.105469 36.539062 20.816406 C 35.800781 20.984375 35 21.121094 34.160156 21.222656 C 34.429688 20.796875 34.691406 20.363281 34.945312 19.925781 Z M 35.671875 16.0625 C 35.4375 15.617188 35.191406 15.175781 34.9375 14.738281 C 34.6875 14.308594 34.429688 13.882812 34.164062 13.464844 C 34.976562 13.566406 35.753906 13.703125 36.488281 13.871094 C 36.265625 14.574219 35.992188 15.308594 35.671875 16.0625 Z M 30.457031 10.378906 C 30.960938 10.921875 31.460938 11.527344 31.957031 12.183594 C 30.953125 12.136719 29.949219 12.136719 28.945312 12.183594 C 29.441406 11.53125 29.949219 10.925781 30.457031 10.378906 Z M 24.589844 7.277344 C 25.441406 6.785156 27.324219 7.484375 29.3125 9.246094 C 29.4375 9.359375 29.566406 9.476562 29.695312 9.601562 C 28.953125 10.394531 28.222656 11.296875 27.523438 12.285156 C 26.328125 12.394531 25.179688 12.574219 24.125 12.8125 C 24.058594 12.550781 24 12.289062 23.949219 12.027344 C 23.472656 9.582031 23.789062 7.738281 24.589844 7.277344 Z M 23.347656 20.601562 C 23.136719 20.539062 22.925781 20.472656 22.71875 20.402344 C 21.476562 19.980469 20.449219 19.429688 19.746094 18.828125 C 19.113281 18.285156 18.796875 17.75 18.796875 17.3125 C 18.796875 16.386719 20.179688 15.207031 22.484375 14.402344 C 22.773438 14.300781 23.066406 14.210938 23.363281 14.125 C 23.683594 15.160156 24.101562 16.246094 24.605469 17.339844 C 24.09375 18.453125 23.667969 19.550781 23.347656 20.601562 Z M 29.246094 25.554688 C 28.257812 26.417969 27.265625 27.03125 26.394531 27.339844 C 25.609375 27.617188 24.984375 27.625 24.605469 27.40625 C 23.804688 26.941406 23.46875 25.15625 23.925781 22.757812 C 23.980469 22.476562 24.039062 22.191406 24.109375 21.914062 C 25.152344 22.144531 26.308594 22.308594 27.542969 22.410156 C 28.25 23.402344 28.984375 24.3125 29.730469 25.109375 C 29.570312 25.261719 29.410156 25.410156 29.246094 25.554688 Z M 30.488281 24.328125 C 29.972656 23.769531 29.457031 23.15625 28.957031 22.492188 C 29.441406 22.511719 29.941406 22.523438 30.445312 22.523438 C 30.964844 22.523438 31.476562 22.511719 31.984375 22.488281 C 31.488281 23.164062 30.984375 23.777344 30.488281 24.328125 Z M 37.097656 25.839844 C 36.945312 26.65625 36.640625 27.199219 36.261719 27.417969 C 35.457031 27.882812 33.742188 27.28125 31.890625 25.6875 C 31.679688 25.503906 31.464844 25.3125 31.25 25.105469 C 31.96875 24.320312 32.683594 23.410156 33.386719 22.394531 C 34.617188 22.285156 35.78125 22.109375 36.835938 21.863281 C 36.886719 22.074219 36.933594 22.28125 36.972656 22.480469 C 37.230469 23.765625 37.265625 24.929688 37.097656 25.839844 Z M 38.019531 20.410156 C 37.882812 20.457031 37.738281 20.5 37.59375 20.542969 C 37.269531 19.523438 36.835938 18.4375 36.300781 17.320312 C 36.808594 16.226562 37.230469 15.15625 37.542969 14.140625 C 37.800781 14.21875 38.054688 14.296875 38.300781 14.378906 C 40.65625 15.191406 42.09375 16.390625 42.09375 17.3125 C 42.09375 18.296875 40.542969 19.574219 38.019531 20.410156 Z M 38.019531 20.410156 " fill-opacity="1" fill-rule="nonzero"/><path fill="rgb(38.038635%, 85.488892%, 98.429871%)" d="M 30.445312 15.042969 C 31.703125 15.042969 32.71875 16.058594 32.71875 17.3125 C 32.71875 18.566406 31.703125 19.585938 30.445312 19.585938 C 29.1875 19.585938 28.171875 18.566406 28.171875 17.3125 C 28.171875 16.058594 29.1875 15.042969 30.445312 15.042969 " fill-opacity="1" fill-rule="nonzero"/><path fill="rgb(38.038635%, 85.488892%, 98.429871%)" d="M 13.542969 43.773438 C 13.542969 43.921875 13.515625 44.0625 13.457031 44.203125 C 13.402344 44.339844 13.320312 44.460938 13.214844 44.566406 C 13.109375 44.671875 12.988281 44.753906 12.851562 44.808594 C 12.710938 44.867188 12.570312 44.894531 12.417969 44.894531 C 12.269531 44.894531 12.125 44.867188 11.988281 44.808594 C 11.851562 44.753906 11.730469 44.671875 11.625 44.566406 C 11.519531 44.460938 11.4375 44.339844 11.378906 44.203125 C 11.324219 44.0625 11.292969 43.921875 11.292969 43.773438 C 11.292969 43.621094 11.324219 43.480469 11.378906 43.34375 C 11.4375 43.203125 11.519531 43.082031 11.625 42.976562 C 11.730469 42.871094 11.851562 42.789062 11.988281 42.734375 C 12.125 42.675781 12.269531 42.648438 12.417969 42.648438 C 12.570312 42.648438 12.710938 42.675781 12.851562 42.734375 C 12.988281 42.789062 13.109375 42.871094 13.214844 42.976562 C 13.320312 43.082031 13.402344 43.203125 13.457031 43.34375 C 13.515625 43.480469 13.542969 43.621094 13.542969 43.773438 Z M 13.542969 43.773438 " fill-opacity="1" fill-rule="nonzero"/><path fill="rgb(38.038635%, 85.488892%, 98.429871%)" d="M 50.242188 43.773438 C 50.242188 43.921875 50.210938 44.0625 50.15625 44.203125 C 50.097656 44.339844 50.015625 44.460938 49.910156 44.566406 C 49.804688 44.671875 49.683594 44.753906 49.546875 44.808594 C 49.40625 44.867188 49.265625 44.894531 49.117188 44.894531 C 48.964844 44.894531 48.824219 44.867188 48.683594 44.808594 C 48.546875 44.753906 48.425781 44.671875 48.320312 44.566406 C 48.214844 44.460938 48.132812 44.339844 48.078125 44.203125 C 48.019531 44.0625 47.992188 43.921875 47.992188 43.773438 C 47.992188 43.621094 48.019531 43.480469 48.078125 43.34375 C 48.132812 43.203125 48.214844 43.082031 48.320312 42.976562 C 48.425781 42.871094 48.546875 42.789062 48.683594 42.734375 C 48.824219 42.675781 48.964844 42.648438 49.117188 42.648438 C 49.265625 42.648438 49.40625 42.675781 49.546875 42.734375 C 49.683594 42.789062 49.804688 42.871094 49.910156 42.976562 C 50.015625 43.082031 50.097656 43.203125 50.15625 43.34375 C 50.210938 43.480469 50.242188 43.621094 50.242188 43.773438 Z M 50.242188 43.773438 " fill-opacity="1" fill-rule="nonzero"/><path fill="rgb(38.038635%, 85.488892%, 98.429871%)" d="M 19.300781 27.476562 C 19.300781 27.625 19.273438 27.765625 19.214844 27.90625 C 19.15625 28.042969 19.078125 28.164062 18.972656 28.269531 C 18.867188 28.375 18.742188 28.457031 18.605469 28.511719 C 18.46875 28.570312 18.324219 28.597656 18.175781 28.597656 C 18.027344 28.597656 17.882812 28.570312 17.746094 28.511719 C 17.605469 28.457031 17.484375 28.375 17.378906 28.269531 C 17.273438 28.164062 17.195312 28.042969 17.136719 27.90625 C 17.078125 27.765625 17.050781 27.625 17.050781 27.476562 C 17.050781 27.324219 17.078125 27.183594 17.136719 27.046875 C 17.191406 26.90625 17.273438 26.785156 17.378906 26.679688 C 17.484375 26.574219 17.605469 26.492188 17.746094 26.4375 C 17.882812 26.378906 18.027344 26.351562 18.175781 26.351562 C 18.324219 26.351562 18.46875 26.378906 18.605469 26.4375 C 18.742188 26.492188 18.867188 26.574219 18.972656 26.679688 C 19.078125 26.785156 19.15625 26.90625 19.214844 27.046875 C 19.273438 27.183594 19.300781 27.324219 19.300781 27.476562 Z M 19.300781 27.476562 " fill-opacity="1" fill-rule="nonzero"/><path fill="rgb(38.038635%, 85.488892%, 98.429871%)" d="M 44.453125 27.476562 C 44.453125 27.625 44.421875 27.765625 44.367188 27.90625 C 44.308594 28.042969 44.226562 28.164062 44.121094 28.269531 C 44.015625 28.375 43.894531 28.457031 43.757812 28.511719 C 43.621094 28.570312 43.476562 28.597656 43.328125 28.597656 C 43.175781 28.597656 43.035156 28.570312 42.894531 28.511719 C 42.757812 28.457031 42.636719 28.375 42.53125 28.269531 C 42.425781 28.164062 42.34375 28.042969 42.289062 27.90625 C 42.230469 27.765625 42.203125 27.625 42.203125 27.476562 C 42.203125 27.324219 42.230469 27.183594 42.289062 27.046875 C 42.34375 26.90625 42.425781 26.785156 42.53125 26.679688 C 42.636719 26.574219 42.757812 26.492188 42.894531 26.4375 C 43.035156 26.378906 43.175781 26.351562 43.328125 26.351562 C 43.476562 26.351562 43.621094 26.378906 43.757812 26.4375 C 43.894531 26.492188 44.015625 26.574219 44.121094 26.679688 C 44.226562 26.785156 44.308594 26.90625 44.367188 27.046875 C 44.421875 27.183594 44.453125 27.324219 44.453125 27.476562 Z M 44.453125 27.476562 " fill-opacity="1" fill-rule="nonzero"/><path fill="rgb(38.038635%, 85.488892%, 98.429871%)" d="M 28.457031 31.367188 C 28.457031 31.515625 28.429688 31.65625 28.371094 31.796875 C 28.316406 31.933594 28.234375 32.054688 28.128906 32.160156 C 28.023438 32.265625 27.902344 32.347656 27.761719 32.402344 C 27.625 32.460938 27.480469 32.488281 27.332031 32.488281 C 27.183594 32.488281 27.039062 32.460938 26.902344 32.402344 C 26.765625 32.347656 26.644531 32.265625 26.539062 32.160156 C 26.433594 32.054688 26.351562 31.933594 26.292969 31.796875 C 26.238281 31.65625 26.207031 31.515625 26.207031 31.367188 C 26.207031 31.214844 26.238281 31.074219 26.292969 30.933594 C 26.351562 30.796875 26.433594 30.675781 26.539062 30.570312 C 26.644531 30.464844 26.765625 30.382812 26.902344 30.328125 C 27.039062 30.269531 27.183594 30.242188 27.332031 30.242188 C 27.480469 30.242188 27.625 30.269531 27.761719 30.328125 C 27.902344 30.382812 28.023438 30.464844 28.128906 30.570312 C 28.234375 30.675781 28.316406 30.796875 28.371094 30.933594 C 28.429688 31.074219 28.457031 31.214844 28.457031 31.367188 Z M 28.457031 31.367188 " fill-opacity="1" fill-rule="nonzero"/><path fill="rgb(38.038635%, 85.488892%, 98.429871%)" d="M 35.304688 31.367188 C 35.304688 31.515625 35.277344 31.65625 35.21875 31.796875 C 35.160156 31.933594 35.082031 32.054688 34.976562 32.160156 C 34.871094 32.265625 34.746094 32.347656 34.609375 32.402344 C 34.472656 32.460938 34.328125 32.488281 34.179688 32.488281 C 34.03125 32.488281 33.886719 32.460938 33.75 32.402344 C 33.613281 32.347656 33.488281 32.265625 33.382812 32.160156 C 33.277344 32.054688 33.199219 31.933594 33.140625 31.796875 C 33.082031 31.65625 33.054688 31.515625 33.054688 31.367188 C 33.054688 31.214844 33.082031 31.074219 33.140625 30.933594 C 33.199219 30.796875 33.277344 30.675781 33.382812 30.570312 C 33.488281 30.464844 33.613281 30.382812 33.75 30.328125 C 33.886719 30.269531 34.03125 30.242188 34.179688 30.242188 C 34.328125 30.242188 34.472656 30.269531 34.609375 30.328125 C 34.746094 30.382812 34.871094 30.464844 34.976562 30.570312 C 35.082031 30.675781 35.160156 30.796875 35.21875 30.933594 C 35.277344 31.074219 35.304688 31.214844 35.304688 31.367188 Z M 35.304688 31.367188 " fill-opacity="1" fill-rule="nonzero"/><path fill="rgb(38.038635%, 85.488892%, 98.429871%)" d="M 7.898438 33.929688 C 7.898438 34.078125 7.871094 34.222656 7.8125 34.359375 C 7.753906 34.5 7.675781 34.621094 7.570312 34.726562 C 7.464844 34.832031 7.339844 34.910156 7.203125 34.96875 C 7.066406 35.027344 6.921875 35.054688 6.773438 35.054688 C 6.625 35.054688 6.480469 35.027344 6.34375 34.96875 C 6.203125 34.910156 6.082031 34.832031 5.976562 34.726562 C 5.871094 34.621094 5.792969 34.5 5.734375 34.359375 C 5.675781 34.222656 5.648438 34.078125 5.648438 33.929688 C 5.648438 33.78125 5.675781 33.636719 5.734375 33.5 C 5.792969 33.363281 5.871094 33.242188 5.976562 33.136719 C 6.082031 33.03125 6.203125 32.949219 6.34375 32.890625 C 6.480469 32.835938 6.625 32.808594 6.773438 32.808594 C 6.921875 32.808594 7.066406 32.835938 7.203125 32.890625 C 7.339844 32.949219 7.464844 33.03125 7.570312 33.136719 C 7.675781 33.242188 7.753906 33.363281 7.8125 33.5 C 7.871094 33.636719 7.898438 33.78125 7.898438 33.929688 Z M 7.898438 33.929688 " fill-opacity="1" fill-rule="nonzero"/><path fill="rgb(38.038635%, 85.488892%, 98.429871%)" d="M 55.910156 33.929688 C 55.910156 34.078125 55.882812 34.222656 55.824219 34.359375 C 55.765625 34.5 55.6875 34.621094 55.582031 34.726562 C 55.476562 34.832031 55.355469 34.910156 55.214844 34.96875 C 55.078125 35.027344 54.933594 35.054688 54.785156 35.054688 C 54.636719 35.054688 54.492188 35.027344 54.355469 34.96875 C 54.21875 34.910156 54.09375 34.832031 53.988281 34.726562 C 53.882812 34.621094 53.804688 34.5 53.746094 34.359375 C 53.6875 34.222656 53.660156 34.078125 53.660156 33.929688 C 53.660156 33.78125 53.6875 33.636719 53.746094 33.5 C 53.804688 33.363281 53.882812 33.242188 53.988281 33.136719 C 54.09375 33.03125 54.21875 32.949219 54.355469 32.890625 C 54.492188 32.835938 54.636719 32.808594 54.785156 32.808594 C 54.933594 32.808594 55.078125 32.835938 55.214844 32.890625 C 55.355469 32.949219 55.476562 33.03125 55.582031 33.136719 C 55.6875 33.242188 55.765625 33.363281 55.824219 33.5 C 55.882812 33.636719 55.910156 33.78125 55.910156 33.929688 Z M 55.910156 33.929688 " fill-opacity="1" fill-rule="nonzero"/><path fill="rgb(0%, 0%, 0%)" d="M 66.554688 60.285156 L 70.3125 70.253906 L 74.058594 60.285156 L 76.980469 60.285156 L 76.980469 73.292969 L 74.730469 73.292969 L 74.730469 69.003906 L 74.953125 63.269531 L 71.105469 73.292969 L 69.488281 73.292969 L 65.652344 63.277344 L 65.875 69.003906 L 65.875 73.292969 L 63.621094 73.292969 L 63.621094 60.285156 Z M 66.554688 60.285156 " fill-opacity="1" fill-rule="nonzero"/><path fill="rgb(0%, 0%, 0%)" d="M 79.449219 61.113281 C 79.449219 60.78125 79.554688 60.503906 79.769531 60.285156 C 79.980469 60.0625 80.28125 59.953125 80.675781 59.953125 C 81.070312 59.953125 81.375 60.0625 81.585938 60.285156 C 81.800781 60.503906 81.910156 60.78125 81.910156 61.113281 C 81.910156 61.441406 81.800781 61.714844 81.585938 61.933594 C 81.375 62.148438 81.070312 62.257812 80.675781 62.257812 C 80.28125 62.257812 79.980469 62.148438 79.769531 61.933594 C 79.554688 61.714844 79.449219 61.441406 79.449219 61.113281 Z M 81.757812 73.292969 L 79.585938 73.292969 L 79.585938 63.625 L 81.757812 63.625 Z M 81.757812 73.292969 " fill-opacity="1" fill-rule="nonzero"/><path fill="rgb(0%, 0%, 0%)" d="M 84.261719 59.570312 L 86.433594 59.570312 L 86.433594 73.292969 L 84.261719 73.292969 Z M 84.261719 59.570312 " fill-opacity="1" fill-rule="nonzero"/><path fill="rgb(0%, 0%, 0%)" d="M 94.582031 73.292969 C 94.488281 73.105469 94.402344 72.804688 94.332031 72.390625 C 93.640625 73.109375 92.792969 73.46875 91.792969 73.46875 C 90.820312 73.46875 90.027344 73.191406 89.414062 72.640625 C 88.796875 72.085938 88.492188 71.402344 88.492188 70.585938 C 88.492188 69.554688 88.875 68.765625 89.640625 68.210938 C 90.40625 67.664062 91.503906 67.386719 92.925781 67.386719 L 94.261719 67.386719 L 94.261719 66.753906 C 94.261719 66.253906 94.121094 65.851562 93.839844 65.550781 C 93.558594 65.25 93.132812 65.097656 92.5625 65.097656 C 92.066406 65.097656 91.660156 65.222656 91.34375 65.46875 C 91.027344 65.71875 90.871094 66.03125 90.871094 66.414062 L 88.699219 66.414062 C 88.699219 65.882812 88.875 65.386719 89.226562 64.925781 C 89.578125 64.464844 90.054688 64.101562 90.660156 63.839844 C 91.265625 63.578125 91.941406 63.445312 92.6875 63.445312 C 93.820312 63.445312 94.722656 63.730469 95.394531 64.300781 C 96.070312 64.867188 96.414062 65.667969 96.433594 66.699219 L 96.433594 71.058594 C 96.433594 71.929688 96.554688 72.621094 96.800781 73.140625 L 96.800781 73.292969 Z M 92.195312 71.726562 C 92.625 71.726562 93.027344 71.625 93.40625 71.414062 C 93.785156 71.207031 94.070312 70.925781 94.261719 70.574219 L 94.261719 68.753906 L 93.089844 68.753906 C 92.285156 68.753906 91.679688 68.894531 91.273438 69.171875 C 90.867188 69.453125 90.664062 69.847656 90.664062 70.359375 C 90.664062 70.777344 90.804688 71.109375 91.082031 71.355469 C 91.359375 71.605469 91.730469 71.726562 92.195312 71.726562 Z M 92.195312 71.726562 " fill-opacity="1" fill-rule="nonzero"/><path fill="rgb(0%, 0%, 0%)" d="M 100.726562 63.625 L 100.789062 64.742188 C 101.503906 63.878906 102.441406 63.445312 103.605469 63.445312 C 105.621094 63.445312 106.644531 64.597656 106.683594 66.902344 L 106.683594 73.292969 L 104.507812 73.292969 L 104.507812 67.027344 C 104.507812 66.414062 104.375 65.960938 104.109375 65.667969 C 103.84375 65.371094 103.410156 65.222656 102.808594 65.222656 C 101.933594 65.222656 101.28125 65.621094 100.851562 66.414062 L 100.851562 73.292969 L 98.679688 73.292969 L 98.679688 63.625 Z M 100.726562 63.625 " fill-opacity="1" fill-rule="nonzero"/><path fill="rgb(0%, 0%, 0%)" d="M 108.488281 68.367188 C 108.488281 67.421875 108.675781 66.570312 109.050781 65.808594 C 109.425781 65.050781 109.957031 64.464844 110.636719 64.058594 C 111.316406 63.652344 112.09375 63.445312 112.976562 63.445312 C 114.285156 63.445312 115.34375 63.867188 116.15625 64.707031 C 116.972656 65.546875 117.410156 66.660156 117.476562 68.046875 L 117.484375 68.554688 C 117.484375 69.507812 117.300781 70.359375 116.933594 71.113281 C 116.570312 71.863281 116.042969 72.441406 115.359375 72.851562 C 114.679688 73.265625 113.890625 73.46875 112.996094 73.46875 C 111.628906 73.46875 110.539062 73.015625 109.71875 72.105469 C 108.898438 71.199219 108.488281 69.988281 108.488281 68.476562 Z M 110.660156 68.558594 C 110.660156 69.550781 110.867188 70.332031 111.277344 70.894531 C 111.691406 71.457031 112.261719 71.738281 112.996094 71.738281 C 113.730469 71.738281 114.300781 71.449219 114.707031 70.878906 C 115.117188 70.308594 115.320312 69.472656 115.320312 68.371094 C 115.320312 67.394531 115.109375 66.617188 114.691406 66.046875 C 114.269531 65.472656 113.699219 65.1875 112.976562 65.1875 C 112.269531 65.1875 111.703125 65.46875 111.289062 66.03125 C 110.871094 66.597656 110.660156 67.4375 110.660156 68.558594 Z M 110.660156 68.558594 " fill-opacity="1" fill-rule="nonzero"/></svg>