<svg xmlns="http://www.w3.org/2000/svg" xmlns:xlink="http://www.w3.org/1999/xlink" width="220" zoomAndPan="magnify" viewBox="0 0 165 82.499998" height="110" preserveAspectRatio="xMidYMid meet" version="1.0"><defs><clipPath id="id1"><path d="M 0.496094 0 L 164.503906 0 L 164.503906 82.003906 L 0.496094 82.003906 Z M 0.496094 0 " clip-rule="nonzero"/></clipPath><clipPath id="id2"><path d="M 36.003906 25 L 128 25 L 128 57 L 36.003906 57 Z M 36.003906 25 " clip-rule="nonzero"/></clipPath></defs><g clip-path="url(#id1)"><path fill="#ffffff" d="M 0.496094 0 L 164.503906 0 L 164.503906 89.457031 L 0.496094 89.457031 Z M 0.496094 0 " fill-opacity="1" fill-rule="nonzero"/><path fill="#ffffff" d="M 0.496094 0 L 164.503906 0 L 164.503906 82.003906 L 0.496094 82.003906 Z M 0.496094 0 " fill-opacity="1" fill-rule="nonzero"/><path fill="#ffffff" d="M 0.496094 0 L 164.503906 0 L 164.503906 82.003906 L 0.496094 82.003906 Z M 0.496094 0 " fill-opacity="1" fill-rule="nonzero"/><path fill="#ffffff" d="M 0.496094 0 L 164.503906 0 L 164.503906 82.003906 L 0.496094 82.003906 Z M 0.496094 0 " fill-opacity="1" fill-rule="nonzero"/></g><g clip-path="url(#id2)"><path fill="#e6a734" d="M 108.070312 25.933594 C 120.011719 29.242188 127.832031 34.761719 127.832031 41 C 127.832031 47.242188 120.011719 52.757812 108.070312 56.070312 C 106.691406 50.882812 104.867188 45.863281 102.589844 41 C 104.867188 36.140625 106.691406 31.117188 108.070312 25.933594 Z M 55.746094 56.070312 C 43.820312 52.757812 36.003906 47.242188 36.003906 41 C 36.003906 34.761719 43.820312 29.242188 55.761719 25.933594 C 56.992188 30.664062 58.824219 35.753906 61.242188 41 C 58.96875 45.863281 57.140625 50.882812 55.761719 56.070312 Z M 55.746094 56.070312 " fill-opacity="1" fill-rule="evenodd"/></g><path fill="#45b892" d="M 108.070312 56.070312 C 111.167969 68.046875 110.28125 77.550781 104.867188 80.6875 C 99.449219 83.808594 90.761719 79.804688 81.917969 71.136719 C 85.726562 67.347656 89.167969 63.257812 92.246094 58.859375 C 97.605469 58.398438 102.878906 57.46875 108.070312 56.070312 Z M 55.746094 25.933594 C 52.652344 13.957031 53.535156 4.453125 58.9375 1.316406 C 64.371094 -1.804688 73.054688 2.199219 81.902344 10.867188 C 78.09375 14.652344 74.648438 18.746094 71.570312 23.144531 C 66.214844 23.605469 60.9375 24.535156 55.746094 25.933594 Z M 55.746094 25.933594 " fill-opacity="1" fill-rule="evenodd"/><path fill="#dd1d64" d="M 81.917969 10.867188 C 90.761719 2.199219 99.449219 -1.804688 104.867188 1.316406 C 110.28125 4.453125 111.167969 13.957031 108.070312 25.933594 C 102.878906 24.535156 97.605469 23.605469 92.246094 23.144531 C 89.167969 18.746094 85.726562 14.652344 81.917969 10.867188 Z M 81.917969 71.136719 C 73.070312 79.804688 64.386719 83.808594 58.953125 80.6875 C 53.535156 77.550781 52.667969 68.046875 55.761719 56.070312 C 60.953125 57.46875 66.230469 58.398438 71.585938 58.859375 C 74.664062 63.257812 78.109375 67.347656 81.917969 71.136719 Z M 81.917969 71.136719 " fill-opacity="1" fill-rule="evenodd"/><path fill="#c7120d" d="M 108.070312 25.933594 C 102.878906 24.535156 97.605469 23.605469 92.246094 23.144531 C 96.242188 28.78125 99.691406 34.734375 102.589844 41 C 104.867188 36.140625 106.691406 31.117188 108.070312 25.933594 Z M 55.746094 56.070312 C 60.9375 57.46875 66.214844 58.398438 71.570312 58.859375 C 67.582031 53.222656 64.136719 47.269531 61.242188 41 C 58.96875 45.863281 57.140625 50.882812 55.761719 56.070312 Z M 55.746094 56.070312 " fill-opacity="1" fill-rule="evenodd"/><path fill="#41193b" d="M 81.917969 10.867188 C 78.109375 14.652344 74.664062 18.746094 71.585938 23.144531 C 78.472656 22.515625 85.359375 22.515625 92.246094 23.144531 C 89.167969 18.746094 85.726562 14.652344 81.917969 10.867188 Z M 81.917969 71.136719 C 85.726562 67.347656 89.167969 63.257812 92.246094 58.859375 C 85.359375 59.488281 78.472656 59.488281 71.585938 58.859375 C 74.664062 63.257812 78.109375 67.347656 81.917969 71.136719 Z M 81.917969 71.136719 " fill-opacity="1" fill-rule="evenodd"/><path fill="#40781f" d="M 108.070312 56.070312 C 106.691406 50.882812 104.867188 45.863281 102.589844 41 C 99.691406 47.269531 96.242188 53.222656 92.246094 58.859375 C 97.605469 58.398438 102.878906 57.46875 108.070312 56.070312 Z M 55.746094 25.933594 C 56.976562 30.664062 58.808594 35.753906 61.226562 41 C 64.128906 34.734375 67.574219 28.78125 71.570312 23.144531 C 66.214844 23.605469 60.9375 24.535156 55.746094 25.933594 Z M 55.746094 25.933594 " fill-opacity="1" fill-rule="evenodd"/><path fill="#02d8ff" d="M 91.09375 41 C 91.09375 41.601562 91.035156 42.199219 90.917969 42.789062 C 90.800781 43.378906 90.625 43.949219 90.394531 44.503906 C 90.164062 45.0625 89.882812 45.589844 89.546875 46.089844 C 89.210938 46.589844 88.832031 47.050781 88.40625 47.476562 C 87.980469 47.902344 87.515625 48.28125 87.015625 48.613281 C 86.515625 48.949219 85.984375 49.230469 85.429688 49.460938 C 84.871094 49.691406 84.296875 49.863281 83.707031 49.984375 C 83.117188 50.101562 82.519531 50.160156 81.917969 50.160156 C 81.3125 50.160156 80.71875 50.101562 80.125 49.984375 C 79.535156 49.863281 78.960938 49.691406 78.40625 49.460938 C 77.847656 49.230469 77.320312 48.949219 76.820312 48.613281 C 76.316406 48.28125 75.855469 47.902344 75.429688 47.476562 C 75.003906 47.050781 74.621094 46.589844 74.285156 46.089844 C 73.953125 45.589844 73.667969 45.0625 73.4375 44.503906 C 73.207031 43.949219 73.035156 43.378906 72.917969 42.789062 C 72.800781 42.199219 72.742188 41.601562 72.742188 41 C 72.742188 40.398438 72.800781 39.804688 72.917969 39.214844 C 73.035156 38.625 73.207031 38.054688 73.4375 37.496094 C 73.667969 36.941406 73.953125 36.414062 74.285156 35.914062 C 74.621094 35.414062 75.003906 34.953125 75.429688 34.527344 C 75.855469 34.101562 76.316406 33.722656 76.820312 33.386719 C 77.320312 33.054688 77.847656 32.773438 78.40625 32.542969 C 78.960938 32.3125 79.535156 32.136719 80.125 32.019531 C 80.71875 31.902344 81.3125 31.84375 81.917969 31.84375 C 82.519531 31.84375 83.117188 31.902344 83.707031 32.019531 C 84.296875 32.136719 84.871094 32.3125 85.429688 32.542969 C 85.984375 32.773438 86.515625 33.054688 87.015625 33.386719 C 87.515625 33.722656 87.980469 34.101562 88.40625 34.527344 C 88.832031 34.953125 89.210938 35.414062 89.546875 35.914062 C 89.882812 36.414062 90.164062 36.941406 90.394531 37.496094 C 90.625 38.054688 90.800781 38.625 90.917969 39.214844 C 91.035156 39.804688 91.09375 40.398438 91.09375 41 Z M 91.09375 41 " fill-opacity="1" fill-rule="nonzero"/></svg>