<svg xmlns="http://www.w3.org/2000/svg" width="165" viewBox="0 0 165 82.5" height="82.5" version="1.0"><defs><clipPath id="a"><path d="M 0.496094 0 L 164.503906 0 L 164.503906 82.003906 L 0.496094 82.003906 Z M 0.496094 0"/></clipPath><clipPath id="b"><path d="M 47.976562 1.269531 L 117.226562 1.269531 L 117.226562 62.957031 L 47.976562 62.957031 Z M 47.976562 1.269531"/></clipPath><clipPath id="c"><path d="M 57 74 L 64 74 L 64 81.035156 L 57 81.035156 Z M 57 74"/></clipPath><clipPath id="d"><path d="M 64 74 L 70 74 L 70 81.035156 L 64 81.035156 Z M 64 74"/></clipPath><clipPath id="e"><path d="M 71 74 L 77 74 L 77 81.035156 L 71 81.035156 Z M 71 74"/></clipPath><clipPath id="f"><path d="M 77 72 L 82 72 L 82 81.035156 L 77 81.035156 Z M 77 72"/></clipPath><clipPath id="g"><path d="M 82 72 L 88 72 L 88 81.035156 L 82 81.035156 Z M 82 72"/></clipPath><clipPath id="h"><path d="M 89 71 L 96 71 L 96 81.035156 L 89 81.035156 Z M 89 71"/></clipPath><clipPath id="i"><path d="M 97 78 L 100 78 L 100 81.035156 L 97 81.035156 Z M 97 78"/></clipPath></defs><g clip-path="url(#a)" fill="#FFF"><path d="M 0.496094 0 L 164.503906 0 L 164.503906 82.003906 L 0.496094 82.003906 Z M 0.496094 0"/><path d="M 0.496094 0 L 164.503906 0 L 164.503906 82.003906 L 0.496094 82.003906 Z M 0.496094 0"/></g><g clip-path="url(#b)"><path fill="#709CDE" d="M 117.226562 32.121094 C 117.226562 27.53125 111.480469 23.183594 102.671875 20.484375 C 104.707031 11.503906 103.800781 4.359375 99.820312 2.074219 C 98.902344 1.539062 97.832031 1.28125 96.660156 1.28125 L 96.660156 4.433594 C 97.308594 4.433594 97.832031 4.558594 98.269531 4.796875 C 100.1875 5.898438 101.019531 10.09375 100.371094 15.488281 C 100.214844 16.8125 99.960938 18.210938 99.652344 19.636719 C 96.886719 18.960938 93.863281 18.4375 90.6875 18.097656 C 88.785156 15.488281 86.808594 13.113281 84.816406 11.039062 C 89.417969 6.761719 93.738281 4.417969 96.671875 4.417969 L 96.671875 1.269531 C 92.792969 1.269531 87.710938 4.035156 82.574219 8.835938 C 77.433594 4.066406 72.355469 1.324219 68.472656 1.324219 L 68.472656 4.472656 C 71.394531 4.472656 75.726562 6.804688 80.328125 11.054688 C 78.351562 13.128906 76.375 15.488281 74.5 18.097656 C 71.308594 18.4375 68.289062 18.960938 65.523438 19.652344 C 65.199219 18.238281 64.957031 16.871094 64.789062 15.558594 C 64.125 10.164062 64.945312 5.96875 66.847656 4.855469 C 67.273438 4.601562 67.824219 4.488281 68.472656 4.488281 L 68.472656 1.339844 C 67.285156 1.339844 66.214844 1.59375 65.28125 2.128906 C 61.316406 4.417969 60.425781 11.546875 62.472656 20.5 C 53.695312 23.210938 47.976562 27.542969 47.976562 32.121094 C 47.976562 36.707031 53.722656 41.054688 62.53125 43.753906 C 60.496094 52.734375 61.402344 59.878906 65.382812 62.164062 C 66.296875 62.699219 67.371094 62.957031 68.558594 62.957031 C 72.4375 62.957031 77.519531 60.1875 82.65625 55.386719 C 87.796875 60.160156 92.875 62.898438 96.757812 62.898438 C 97.945312 62.898438 99.015625 62.644531 99.949219 62.109375 C 103.914062 59.820312 104.804688 52.691406 102.757812 43.738281 C 111.507812 41.042969 117.226562 36.695312 117.226562 32.121094 Z M 98.847656 22.703125 C 98.324219 24.523438 97.675781 26.402344 96.941406 28.277344 C 96.363281 27.148438 95.757812 26.019531 95.09375 24.890625 C 94.445312 23.761719 93.753906 22.660156 93.058594 21.585938 C 95.066406 21.882812 97 22.25 98.847656 22.703125 Z M 92.382812 37.738281 C 91.28125 39.644531 90.152344 41.453125 88.980469 43.132812 C 86.878906 43.316406 84.746094 43.414062 82.601562 43.414062 C 80.46875 43.414062 78.339844 43.316406 76.25 43.144531 C 75.078125 41.464844 73.933594 39.671875 72.832031 37.78125 C 71.761719 35.929688 70.785156 34.054688 69.898438 32.160156 C 70.773438 30.269531 71.761719 28.378906 72.820312 26.527344 C 73.921875 24.621094 75.050781 22.816406 76.222656 21.132812 C 78.324219 20.949219 80.457031 20.851562 82.601562 20.851562 C 84.734375 20.851562 86.863281 20.949219 88.953125 21.121094 C 90.125 22.800781 91.269531 24.59375 92.367188 26.484375 C 93.441406 28.335938 94.414062 30.214844 95.304688 32.105469 C 94.414062 33.996094 93.441406 35.890625 92.382812 37.738281 Z M 96.941406 35.902344 C 97.703125 37.796875 98.351562 39.6875 98.890625 41.523438 C 97.039062 41.972656 95.09375 42.355469 93.074219 42.652344 C 93.765625 41.566406 94.457031 40.449219 95.105469 39.304688 C 95.757812 38.175781 96.363281 37.03125 96.941406 35.902344 Z M 82.628906 50.96875 C 81.316406 49.613281 80.003906 48.101562 78.707031 46.449219 C 79.976562 46.507812 81.273438 46.546875 82.585938 46.546875 C 83.914062 46.546875 85.226562 46.519531 86.511719 46.449219 C 85.242188 48.101562 83.929688 49.613281 82.628906 50.96875 Z M 72.128906 42.652344 C 70.125 42.355469 68.191406 41.988281 66.339844 41.535156 C 66.863281 39.714844 67.511719 37.835938 68.246094 35.960938 C 68.824219 37.089844 69.433594 38.21875 70.09375 39.347656 C 70.757812 40.476562 71.4375 41.578125 72.128906 42.652344 Z M 82.558594 13.269531 C 83.871094 14.625 85.183594 16.136719 86.484375 17.789062 C 85.210938 17.730469 83.914062 17.691406 82.601562 17.691406 C 81.273438 17.691406 79.960938 17.71875 78.675781 17.789062 C 79.949219 16.136719 81.261719 14.625 82.558594 13.269531 Z M 72.113281 21.585938 C 71.421875 22.671875 70.730469 23.789062 70.082031 24.933594 C 69.433594 26.0625 68.824219 27.191406 68.246094 28.320312 C 67.484375 26.429688 66.835938 24.539062 66.296875 22.703125 C 68.148438 22.265625 70.09375 21.882812 72.113281 21.585938 Z M 59.339844 39.261719 C 54.34375 37.132812 51.109375 34.335938 51.109375 32.121094 C 51.109375 29.902344 54.34375 27.09375 59.339844 24.976562 C 60.554688 24.453125 61.878906 23.988281 63.25 23.550781 C 64.054688 26.316406 65.113281 29.195312 66.425781 32.148438 C 65.125 35.085938 64.082031 37.949219 63.292969 40.703125 C 61.894531 40.265625 60.566406 39.785156 59.339844 39.261719 Z M 66.933594 59.441406 C 65.015625 58.339844 64.179688 54.144531 64.832031 48.75 C 64.984375 47.425781 65.238281 46.027344 65.550781 44.601562 C 68.316406 45.277344 71.335938 45.800781 74.511719 46.140625 C 76.417969 48.75 78.394531 51.125 80.386719 53.199219 C 75.785156 57.476562 71.464844 59.820312 68.527344 59.820312 C 67.894531 59.808594 67.355469 59.679688 66.933594 59.441406 Z M 100.414062 48.679688 C 101.078125 54.074219 100.257812 58.265625 98.351562 59.382812 C 97.929688 59.636719 97.378906 59.75 96.730469 59.75 C 93.808594 59.75 89.476562 57.421875 84.875 53.171875 C 86.851562 51.09375 88.824219 48.738281 90.703125 46.125 C 93.894531 45.785156 96.914062 45.265625 99.679688 44.570312 C 100.003906 46 100.257812 47.367188 100.414062 48.679688 Z M 105.847656 39.261719 C 104.632812 39.785156 103.308594 40.25 101.9375 40.691406 C 101.132812 37.921875 100.074219 35.042969 98.761719 32.089844 C 100.0625 29.152344 101.105469 26.289062 101.894531 23.535156 C 103.292969 23.972656 104.621094 24.453125 105.863281 24.976562 C 110.859375 27.105469 114.089844 29.902344 114.089844 32.121094 C 114.078125 34.335938 110.84375 37.144531 105.847656 39.261719 Z M 105.847656 39.261719"/></g><path d="M 77.140625 35.539062 L 77.140625 28.207031 L 79.210938 28.207031 C 81.449219 28.207031 82.886719 29.320312 82.886719 31.839844 C 82.886719 34.359375 81.449219 35.539062 79.300781 35.539062 Z M 78.792969 34.199219 L 79.109375 34.199219 C 80.359375 34.199219 81.191406 33.59375 81.191406 31.839844 C 81.191406 30.085938 80.359375 29.542969 79.109375 29.542969 L 78.792969 29.542969 Z M 84.28125 35.539062 L 84.28125 28.207031 L 88.871094 28.207031 L 88.871094 29.601562 L 85.9375 29.601562 L 85.9375 31.074219 L 88.433594 31.074219 L 88.433594 32.457031 L 85.9375 32.457031 L 85.9375 34.144531 L 88.984375 34.144531 L 88.984375 35.539062 Z M 84.28125 35.539062"/><path fill="#709CDE" d="M 77.140625 35.539062 L 77.140625 28.207031 L 79.210938 28.207031 C 81.449219 28.207031 82.886719 29.320312 82.886719 31.839844 C 82.886719 34.359375 81.449219 35.539062 79.300781 35.539062 Z M 78.792969 34.199219 L 79.109375 34.199219 C 80.359375 34.199219 81.191406 33.59375 81.191406 31.839844 C 81.191406 30.085938 80.359375 29.542969 79.109375 29.542969 L 78.792969 29.542969 Z M 84.28125 35.539062 L 84.28125 28.207031 L 88.871094 28.207031 L 88.871094 29.601562 L 85.9375 29.601562 L 85.9375 31.074219 L 88.433594 31.074219 L 88.433594 32.457031 L 85.9375 32.457031 L 85.9375 34.144531 L 88.984375 34.144531 L 88.984375 35.539062 Z M 84.28125 35.539062"/><path fill="#111" d="M 49.648438 80.859375 L 49.648438 72.074219 L 52.8125 72.074219 C 53.28125 72.074219 53.714844 72.121094 54.121094 72.210938 C 54.535156 72.300781 54.894531 72.453125 55.199219 72.667969 C 55.503906 72.875 55.746094 73.152344 55.925781 73.503906 C 56.105469 73.851562 56.195312 74.289062 56.195312 74.808594 C 56.195312 75.457031 56.050781 75.992188 55.765625 76.414062 C 55.484375 76.824219 55.109375 77.136719 54.632812 77.34375 L 56.625 80.859375 L 54.402344 80.859375 L 52.71875 77.691406 L 51.628906 77.691406 L 51.628906 80.859375 Z M 51.628906 76.117188 L 52.652344 76.117188 C 53.171875 76.117188 53.570312 76.007812 53.839844 75.792969 C 54.117188 75.570312 54.253906 75.242188 54.253906 74.808594 C 54.253906 74.378906 54.117188 74.078125 53.839844 73.90625 C 53.570312 73.734375 53.171875 73.652344 52.652344 73.652344 L 51.628906 73.652344 Z M 51.628906 76.117188"/><g clip-path="url(#c)"><path fill="#111" d="M 60.609375 81.019531 C 60.132812 81.019531 59.6875 80.945312 59.273438 80.789062 C 58.859375 80.628906 58.5 80.398438 58.195312 80.105469 C 57.890625 79.796875 57.652344 79.429688 57.484375 79 C 57.3125 78.566406 57.226562 78.074219 57.226562 77.515625 C 57.226562 76.976562 57.316406 76.492188 57.496094 76.0625 C 57.675781 75.621094 57.910156 75.253906 58.195312 74.957031 C 58.492188 74.652344 58.828125 74.417969 59.207031 74.257812 C 59.585938 74.09375 59.976562 74.015625 60.378906 74.015625 C 60.855469 74.015625 61.269531 74.09375 61.617188 74.257812 C 61.976562 74.417969 62.273438 74.644531 62.507812 74.929688 C 62.75 75.21875 62.929688 75.558594 63.046875 75.953125 C 63.164062 76.339844 63.222656 76.761719 63.222656 77.222656 C 63.222656 77.402344 63.210938 77.570312 63.195312 77.734375 C 63.175781 77.894531 63.160156 78.015625 63.140625 78.097656 L 59.140625 78.097656 C 59.230469 78.582031 59.425781 78.941406 59.730469 79.175781 C 60.046875 79.398438 60.429688 79.511719 60.878906 79.511719 C 61.355469 79.511719 61.835938 79.363281 62.320312 79.066406 L 62.980469 80.265625 C 62.636719 80.5 62.257812 80.683594 61.835938 80.816406 C 61.421875 80.953125 61.011719 81.019531 60.609375 81.019531 Z M 59.125 76.789062 L 61.539062 76.789062 C 61.539062 76.414062 61.453125 76.105469 61.28125 75.875 C 61.109375 75.640625 60.824219 75.523438 60.417969 75.523438 C 60.105469 75.523438 59.828125 75.625 59.585938 75.832031 C 59.351562 76.039062 59.199219 76.359375 59.125 76.789062 Z M 59.125 76.789062"/></g><g clip-path="url(#d)"><path fill="#111" d="M 66.128906 81.019531 C 65.824219 81.019531 65.546875 80.964844 65.292969 80.859375 C 65.050781 80.757812 64.84375 80.621094 64.675781 80.441406 C 64.503906 80.253906 64.371094 80.035156 64.269531 79.792969 C 64.179688 79.550781 64.136719 79.285156 64.136719 79 C 64.136719 78.296875 64.433594 77.75 65.023438 77.355469 C 65.617188 76.960938 66.574219 76.695312 67.894531 76.5625 C 67.875 76.265625 67.785156 76.03125 67.625 75.859375 C 67.472656 75.679688 67.210938 75.589844 66.84375 75.589844 C 66.554688 75.589844 66.269531 75.644531 65.980469 75.753906 C 65.703125 75.859375 65.402344 76.007812 65.078125 76.195312 L 64.363281 74.890625 C 64.796875 74.628906 65.246094 74.417969 65.710938 74.257812 C 66.1875 74.09375 66.691406 74.015625 67.222656 74.015625 C 68.082031 74.015625 68.738281 74.261719 69.1875 74.753906 C 69.644531 75.242188 69.875 76 69.875 77.03125 L 69.875 80.859375 L 68.257812 80.859375 L 68.125 80.171875 L 68.070312 80.171875 C 67.78125 80.421875 67.480469 80.628906 67.167969 80.789062 C 66.851562 80.945312 66.507812 81.019531 66.128906 81.019531 Z M 66.804688 79.484375 C 67.027344 79.484375 67.222656 79.433594 67.382812 79.335938 C 67.542969 79.238281 67.714844 79.097656 67.894531 78.917969 L 67.894531 77.746094 C 67.195312 77.84375 66.707031 77.988281 66.441406 78.175781 C 66.171875 78.367188 66.035156 78.589844 66.035156 78.851562 C 66.035156 79.066406 66.101562 79.226562 66.238281 79.335938 C 66.382812 79.433594 66.570312 79.484375 66.804688 79.484375 Z M 66.804688 79.484375"/></g><g clip-path="url(#e)"><path fill="#111" d="M 74.460938 81.019531 C 73.992188 81.019531 73.558594 80.945312 73.152344 80.789062 C 72.757812 80.628906 72.414062 80.398438 72.117188 80.105469 C 71.820312 79.808594 71.585938 79.445312 71.414062 79.011719 C 71.246094 78.574219 71.160156 78.074219 71.160156 77.515625 C 71.160156 76.960938 71.253906 76.464844 71.441406 76.035156 C 71.632812 75.59375 71.882812 75.226562 72.195312 74.929688 C 72.519531 74.632812 72.894531 74.410156 73.316406 74.257812 C 73.738281 74.09375 74.175781 74.015625 74.636719 74.015625 C 75.046875 74.015625 75.414062 74.082031 75.726562 74.214844 C 76.050781 74.351562 76.335938 74.523438 76.589844 74.730469 L 75.660156 76.007812 C 75.34375 75.75 75.042969 75.617188 74.757812 75.617188 C 74.273438 75.617188 73.890625 75.789062 73.613281 76.128906 C 73.332031 76.472656 73.195312 76.933594 73.195312 77.515625 C 73.195312 78.101562 73.332031 78.5625 73.613281 78.90625 C 73.898438 79.246094 74.257812 79.417969 74.6875 79.417969 C 74.90625 79.417969 75.113281 79.371094 75.308594 79.28125 C 75.515625 79.183594 75.707031 79.066406 75.886719 78.933594 L 76.667969 80.226562 C 76.335938 80.511719 75.976562 80.71875 75.59375 80.84375 C 75.207031 80.960938 74.828125 81.019531 74.460938 81.019531 Z M 74.460938 81.019531"/></g><g clip-path="url(#f)"><path fill="#111" d="M 80.28125 81.019531 C 79.867188 81.019531 79.511719 80.957031 79.214844 80.832031 C 78.929688 80.707031 78.691406 80.53125 78.503906 80.304688 C 78.324219 80.082031 78.1875 79.8125 78.097656 79.496094 C 78.019531 79.175781 77.976562 78.820312 77.976562 78.433594 L 77.976562 75.726562 L 77.0625 75.726562 L 77.0625 74.257812 L 78.085938 74.175781 L 78.3125 72.398438 L 79.957031 72.398438 L 79.957031 74.175781 L 81.5625 74.175781 L 81.5625 75.726562 L 79.957031 75.726562 L 79.957031 78.40625 C 79.957031 78.785156 80.035156 79.058594 80.1875 79.226562 C 80.347656 79.390625 80.558594 79.472656 80.820312 79.472656 C 80.925781 79.472656 81.035156 79.457031 81.144531 79.429688 C 81.261719 79.402344 81.363281 79.371094 81.453125 79.335938 L 81.761719 80.777344 C 81.582031 80.832031 81.371094 80.886719 81.128906 80.9375 C 80.886719 80.992188 80.605469 81.019531 80.28125 81.019531 Z M 80.28125 81.019531"/></g><g clip-path="url(#g)"><path fill="#111" d="M 85.035156 81.019531 C 84.359375 81.019531 83.792969 80.890625 83.335938 80.628906 C 82.886719 80.367188 82.511719 79.96875 82.203125 79.429688 L 83.550781 78.433594 C 83.714844 78.730469 83.902344 78.949219 84.117188 79.09375 C 84.332031 79.238281 84.554688 79.308594 84.777344 79.308594 C 85.136719 79.308594 85.40625 79.203125 85.585938 78.984375 C 85.773438 78.761719 85.871094 78.355469 85.871094 77.773438 L 85.871094 72.074219 L 87.851562 72.074219 L 87.851562 77.933594 C 87.851562 78.355469 87.792969 78.757812 87.675781 79.132812 C 87.566406 79.511719 87.398438 79.839844 87.164062 80.117188 C 86.9375 80.394531 86.644531 80.617188 86.289062 80.777344 C 85.9375 80.9375 85.519531 81.019531 85.035156 81.019531 Z M 85.035156 81.019531"/></g><g clip-path="url(#h)"><path fill="#111" d="M 92.5625 81.019531 C 91.988281 81.019531 91.414062 80.917969 90.839844 80.710938 C 90.273438 80.496094 89.765625 80.175781 89.316406 79.753906 L 90.449219 78.394531 C 90.761719 78.664062 91.109375 78.882812 91.484375 79.054688 C 91.871094 79.222656 92.25 79.308594 92.617188 79.308594 C 93.03125 79.308594 93.335938 79.234375 93.53125 79.078125 C 93.738281 78.925781 93.84375 78.722656 93.84375 78.460938 C 93.84375 78.324219 93.8125 78.207031 93.75 78.109375 C 93.695312 78.011719 93.609375 77.925781 93.492188 77.855469 C 93.382812 77.773438 93.25 77.703125 93.089844 77.636719 C 92.933594 77.566406 92.765625 77.492188 92.574219 77.410156 L 91.429688 76.925781 C 91.207031 76.835938 90.984375 76.71875 90.769531 76.574219 C 90.5625 76.429688 90.375 76.265625 90.203125 76.074219 C 90.042969 75.878906 89.914062 75.652344 89.8125 75.402344 C 89.714844 75.140625 89.664062 74.851562 89.664062 74.527344 C 89.664062 74.167969 89.742188 73.832031 89.894531 73.515625 C 90.046875 73.191406 90.261719 72.914062 90.542969 72.679688 C 90.820312 72.4375 91.148438 72.25 91.523438 72.113281 C 91.910156 71.980469 92.332031 71.914062 92.792969 71.914062 C 93.304688 71.914062 93.804688 72.011719 94.300781 72.210938 C 94.804688 72.40625 95.242188 72.695312 95.621094 73.070312 L 94.609375 74.324219 C 94.324219 74.101562 94.035156 73.929688 93.75 73.8125 C 93.460938 73.6875 93.140625 73.625 92.792969 73.625 C 92.449219 73.625 92.175781 73.695312 91.96875 73.839844 C 91.773438 73.972656 91.671875 74.167969 91.671875 74.417969 C 91.671875 74.554688 91.703125 74.671875 91.769531 74.769531 C 91.839844 74.859375 91.933594 74.945312 92.050781 75.023438 C 92.175781 75.097656 92.320312 75.167969 92.480469 75.242188 C 92.644531 75.304688 92.820312 75.375 93.007812 75.457031 L 94.140625 75.914062 C 94.679688 76.128906 95.101562 76.425781 95.40625 76.804688 C 95.71875 77.179688 95.875 77.679688 95.875 78.296875 C 95.875 78.667969 95.800781 79.015625 95.648438 79.347656 C 95.503906 79.671875 95.289062 79.960938 95 80.210938 C 94.722656 80.453125 94.375 80.652344 93.964844 80.804688 C 93.550781 80.949219 93.082031 81.019531 92.5625 81.019531 Z M 92.5625 81.019531"/></g><g clip-path="url(#i)"><path fill="#111" d="M 98.351562 81.019531 C 98.011719 81.019531 97.722656 80.902344 97.488281 80.667969 C 97.265625 80.425781 97.152344 80.128906 97.152344 79.78125 C 97.152344 79.421875 97.265625 79.125 97.488281 78.890625 C 97.722656 78.648438 98.011719 78.527344 98.351562 78.527344 C 98.691406 78.527344 98.976562 78.648438 99.199219 78.890625 C 99.433594 79.125 99.550781 79.421875 99.550781 79.78125 C 99.550781 80.128906 99.433594 80.425781 99.199219 80.667969 C 98.976562 80.902344 98.691406 81.019531 98.351562 81.019531 Z M 98.351562 81.019531"/></g><path fill="#111" d="M 101.40625 80.859375 L 101.40625 72.074219 L 103.886719 72.074219 C 104.558594 72.074219 105.164062 72.160156 105.703125 72.332031 C 106.242188 72.5 106.707031 72.765625 107.09375 73.125 C 107.480469 73.476562 107.773438 73.925781 107.980469 74.472656 C 108.1875 75.019531 108.292969 75.671875 108.292969 76.425781 C 108.292969 77.179688 108.1875 77.835938 107.980469 78.394531 C 107.773438 78.949219 107.484375 79.414062 107.105469 79.78125 C 106.730469 80.140625 106.273438 80.410156 105.746094 80.589844 C 105.222656 80.769531 104.640625 80.859375 103.992188 80.859375 Z M 103.386719 79.253906 L 103.765625 79.253906 C 104.140625 79.253906 104.484375 79.207031 104.789062 79.105469 C 105.09375 79.007812 105.355469 78.851562 105.570312 78.636719 C 105.785156 78.410156 105.953125 78.117188 106.070312 77.761719 C 106.195312 77.402344 106.257812 76.957031 106.257812 76.425781 C 106.257812 75.90625 106.195312 75.46875 106.070312 75.121094 C 105.953125 74.761719 105.785156 74.476562 105.570312 74.269531 C 105.355469 74.054688 105.09375 73.902344 104.789062 73.8125 C 104.484375 73.722656 104.140625 73.679688 103.765625 73.679688 L 103.386719 73.679688 Z M 103.386719 79.253906"/><path fill="#111" d="M 109.957031 80.859375 L 109.957031 72.074219 L 115.457031 72.074219 L 115.457031 73.746094 L 111.9375 73.746094 L 111.9375 75.511719 L 114.929688 75.511719 L 114.929688 77.167969 L 111.9375 77.167969 L 111.9375 79.1875 L 115.589844 79.1875 L 115.589844 80.859375 Z M 109.957031 80.859375"/></svg>