<?xml version="1.0" encoding="UTF-8"?>
<svg xmlns="http://www.w3.org/2000/svg" xmlns:xlink="http://www.w3.org/1999/xlink" width="165pt" height="82.499998pt" viewBox="0 0 165 82.499998" version="1.2">
<defs>
<clipPath id="clip1">
  <path d="M 0.496094 0 L 164.503906 0 L 164.503906 82.003906 L 0.496094 82.003906 Z M 0.496094 0 "/>
</clipPath>
</defs>
<g id="surface1">
<g clip-path="url(#clip1)" clip-rule="nonzero">
<path style=" stroke:none;fill-rule:nonzero;fill:rgb(100%,100%,100%);fill-opacity:1;" d="M 0.496094 0 L 164.503906 0 L 164.503906 82.003906 L 0.496094 82.003906 Z M 0.496094 0 "/>
<path style=" stroke:none;fill-rule:nonzero;fill:rgb(100%,100%,100%);fill-opacity:1;" d="M 0.496094 0 L 164.503906 0 L 164.503906 82.003906 L 0.496094 82.003906 Z M 0.496094 0 "/>
</g>
<path style=" stroke:none;fill-rule:evenodd;fill:rgb(0%,0%,0%);fill-opacity:1;" d="M 58.757812 30.914062 C 59.417969 31.109375 60.078125 31.316406 60.730469 31.542969 C 67.351562 33.84375 71.632812 37.449219 71.632812 41.179688 C 71.632812 45.066406 67.058594 48.867188 60.03125 51.21875 C 59.65625 51.34375 59.277344 51.464844 58.890625 51.578125 C 59.023438 52.128906 59.148438 52.679688 59.257812 53.234375 C 60.644531 60.308594 59.578125 66.128906 56.289062 68.050781 C 53.101562 69.910156 47.957031 68.082031 42.746094 63.554688 C 42.179688 63.0625 41.625 62.550781 41.089844 62.027344 C 40.671875 62.4375 40.246094 62.832031 39.808594 63.21875 C 34.429688 67.96875 28.90625 69.9375 25.613281 68.019531 C 22.425781 66.164062 21.425781 60.75 22.707031 53.929688 C 22.847656 53.1875 23.007812 52.453125 23.1875 51.71875 C 22.632812 51.558594 22.078125 51.386719 21.53125 51.195312 C 14.769531 48.863281 10.320312 45.015625 10.320312 41.179688 C 10.320312 37.464844 14.464844 33.882812 20.957031 31.597656 C 21.707031 31.335938 22.460938 31.09375 23.226562 30.875 C 23.058594 30.199219 22.90625 29.511719 22.773438 28.824219 C 21.425781 21.886719 22.375 16.339844 25.570312 14.472656 C 28.902344 12.523438 34.453125 14.617188 39.988281 19.582031 C 40.332031 19.890625 40.671875 20.203125 41.003906 20.527344 C 41.5 20.042969 42.011719 19.570312 42.53125 19.113281 C 47.8125 14.472656 53.042969 12.527344 56.242188 14.390625 C 59.578125 16.332031 60.554688 22.234375 59.0625 29.554688 C 58.96875 30.011719 58.867188 30.464844 58.757812 30.914062 Z M 58.175781 49.035156 C 58.519531 48.929688 58.863281 48.824219 59.207031 48.707031 C 65.273438 46.679688 69.011719 43.570312 69.011719 41.179688 C 69.011719 38.933594 65.550781 36.015625 59.878906 34.042969 C 59.277344 33.835938 58.667969 33.640625 58.054688 33.460938 C 57.300781 35.925781 56.292969 38.53125 55.070312 41.191406 C 56.351562 43.917969 57.398438 46.554688 58.175781 49.035156 Z M 56.984375 61.917969 C 57.390625 59.707031 57.300781 56.875 56.6875 53.746094 C 56.589844 53.246094 56.476562 52.746094 56.355469 52.25 C 53.816406 52.84375 51.015625 53.277344 48.050781 53.542969 C 46.367188 56.003906 44.640625 58.222656 42.914062 60.132812 C 43.414062 60.617188 43.925781 61.09375 44.453125 61.550781 C 48.910156 65.421875 53.042969 66.890625 54.976562 65.761719 C 55.882812 65.230469 56.617188 63.90625 56.984375 61.917969 Z M 26.921875 65.730469 C 27.832031 66.257812 29.335938 66.238281 31.222656 65.566406 C 33.324219 64.816406 35.707031 63.328125 38.085938 61.226562 C 38.484375 60.875 38.875 60.511719 39.253906 60.140625 C 37.464844 58.203125 35.6875 55.984375 33.992188 53.574219 C 31.019531 53.332031 28.238281 52.929688 25.730469 52.367188 C 25.558594 53.050781 25.410156 53.734375 25.28125 54.425781 C 24.183594 60.253906 24.988281 64.601562 26.921875 65.730469 Z M 15.226562 44.859375 C 16.917969 46.320312 19.386719 47.664062 22.378906 48.695312 C 22.878906 48.867188 23.382812 49.027344 23.890625 49.171875 C 24.667969 46.625 25.6875 43.945312 26.917969 41.242188 C 25.703125 38.578125 24.695312 35.945312 23.929688 33.425781 C 23.21875 33.628906 22.515625 33.851562 21.820312 34.09375 C 16.265625 36.050781 12.9375 38.925781 12.9375 41.179688 C 12.9375 42.238281 13.707031 43.542969 15.226562 44.859375 Z M 26.882812 16.761719 C 24.957031 17.886719 24.191406 22.371094 25.34375 28.316406 C 25.46875 28.957031 25.609375 29.59375 25.765625 30.226562 C 28.300781 29.644531 31.0625 29.210938 33.945312 28.941406 C 35.628906 26.546875 37.386719 24.347656 39.167969 22.414062 C 38.867188 22.125 38.5625 21.835938 38.25 21.558594 C 33.46875 17.273438 28.933594 15.5625 26.882812 16.761719 Z M 49.925781 31.816406 C 50.570312 32.835938 51.191406 33.867188 51.789062 34.914062 C 52.398438 35.972656 52.988281 37.046875 53.554688 38.132812 C 54.328125 36.300781 54.988281 34.511719 55.515625 32.800781 C 53.667969 32.382812 51.804688 32.050781 49.925781 31.816406 Z M 44.613281 28.703125 C 43.421875 27.101562 42.214844 25.625 41.003906 24.304688 C 39.777344 25.640625 38.558594 27.113281 37.367188 28.703125 C 39.78125 28.585938 42.199219 28.585938 44.613281 28.703125 Z M 28.417969 38.132812 C 29.523438 35.96875 30.730469 33.859375 32.03125 31.8125 C 30.085938 32.058594 28.222656 32.378906 26.472656 32.773438 C 27.003906 34.507812 27.65625 36.304688 28.417969 38.132812 Z M 26.4375 49.816406 C 28.183594 50.203125 30.078125 50.507812 32.085938 50.734375 C 30.765625 48.664062 29.542969 46.535156 28.421875 44.351562 C 27.644531 46.21875 26.976562 48.050781 26.433594 49.816406 Z M 37.386719 53.78125 C 38.597656 55.390625 39.835938 56.886719 41.078125 58.238281 C 42.277344 56.90625 43.484375 55.40625 44.675781 53.769531 C 43.460938 53.824219 42.226562 53.851562 40.976562 53.851562 C 39.757812 53.851562 38.5625 53.828125 37.386719 53.78125 Z M 55.636719 49.703125 C 55.089844 47.96875 54.398438 46.144531 53.578125 44.257812 C 53.011719 45.363281 52.417969 46.457031 51.800781 47.535156 C 51.195312 48.597656 50.566406 49.648438 49.917969 50.6875 C 51.941406 50.441406 53.859375 50.113281 55.636719 49.703125 Z M 46.589844 51.007812 C 47.621094 49.441406 48.601562 47.84375 49.53125 46.214844 C 50.46875 44.578125 51.347656 42.90625 52.167969 41.203125 C 51.339844 39.519531 50.457031 37.863281 49.523438 36.238281 C 48.59375 34.613281 47.609375 33.027344 46.570312 31.472656 C 42.847656 31.191406 39.113281 31.1875 35.394531 31.472656 C 34.34375 33.027344 33.351562 34.621094 32.421875 36.25 C 31.488281 37.882812 30.617188 39.546875 29.8125 41.242188 C 31.4375 44.640625 33.3125 47.914062 35.425781 51.027344 C 37.210938 51.148438 39.066406 51.207031 40.976562 51.207031 C 42.890625 51.207031 44.769531 51.136719 46.589844 51.007812 Z M 56.496094 29.023438 C 57.785156 22.699219 56.988281 17.878906 54.933594 16.683594 C 53.007812 15.558594 48.777344 17.128906 44.25 21.109375 C 43.769531 21.53125 43.300781 21.96875 42.839844 22.414062 C 44.59375 24.320312 46.339844 26.523438 48.023438 28.945312 C 50.914062 29.21875 53.675781 29.660156 56.222656 30.253906 C 56.320312 29.84375 56.410156 29.433594 56.496094 29.023438 Z M 56.496094 29.023438 "/>
<path style=" stroke:none;fill-rule:evenodd;fill:rgb(0%,0%,0%);fill-opacity:1;" d="M 34.109375 37.019531 L 37.097656 37.019531 L 37.097656 39.90625 L 34.109375 39.90625 Z M 34.109375 42.777344 L 34.109375 45.386719 L 37.097656 45.386719 L 37.097656 42.777344 Z M 39.625 42.777344 L 39.625 45.386719 L 46.808594 45.386719 L 46.808594 42.777344 Z M 46.808594 39.90625 L 46.808594 37.019531 L 39.625 37.019531 L 39.625 39.90625 Z M 46.808594 39.90625 "/>
<path style=" stroke:none;fill-rule:nonzero;fill:rgb(0%,0%,0%);fill-opacity:1;" d="M 77.855469 20.949219 L 84.007812 20.949219 C 85.800781 20.949219 87.1875 21.382812 88.167969 22.253906 C 89.152344 23.121094 89.640625 24.347656 89.640625 25.925781 C 89.640625 26.984375 89.375 27.90625 88.839844 28.699219 C 88.304688 29.488281 87.550781 30.078125 86.578125 30.472656 C 86.4375 30.523438 86.367188 30.609375 86.367188 30.734375 C 86.367188 30.796875 86.390625 30.878906 86.4375 30.972656 L 87.261719 32.15625 L 89.21875 37.535156 L 85.46875 37.535156 L 83.042969 30.902344 L 81.628906 30.902344 L 81.628906 37.535156 L 77.855469 37.535156 Z M 84.152344 27.820312 C 84.824219 27.820312 85.351562 27.65625 85.730469 27.324219 C 86.105469 26.992188 86.296875 26.527344 86.296875 25.925781 C 86.296875 25.324219 86.105469 24.859375 85.730469 24.527344 C 85.351562 24.195312 84.824219 24.03125 84.152344 24.03125 L 81.605469 24.03125 L 81.605469 27.820312 Z M 84.152344 27.820312 "/>
<path style=" stroke:none;fill-rule:nonzero;fill:rgb(0%,0%,0%);fill-opacity:1;" d="M 100.671875 32.347656 L 94.214844 32.347656 C 94.214844 32.550781 94.222656 32.703125 94.238281 32.796875 C 94.363281 34.1875 95.242188 34.882812 96.878906 34.882812 C 97.679688 34.882812 98.574219 34.652344 99.566406 34.195312 L 100.460938 36.730469 C 99.425781 37.425781 98.230469 37.773438 96.878906 37.773438 C 95.277344 37.773438 93.957031 37.386719 92.917969 36.621094 C 91.882812 35.855469 91.269531 34.871094 91.082031 33.671875 C 90.984375 32.914062 90.9375 32.234375 90.9375 31.636719 C 90.9375 31.003906 90.984375 30.300781 91.082031 29.527344 C 91.253906 28.246094 91.777344 27.207031 92.660156 26.410156 C 93.539062 25.613281 94.679688 25.214844 96.078125 25.214844 C 97.773438 25.214844 99.046875 25.714844 99.894531 26.71875 C 100.742188 27.722656 101.167969 29.1875 101.167969 31.113281 Z M 97.960938 29.953125 C 97.835938 28.640625 97.222656 27.988281 96.125 27.988281 C 95.542969 27.988281 95.105469 28.152344 94.816406 28.484375 C 94.523438 28.816406 94.339844 29.304688 94.261719 29.953125 Z M 97.960938 29.953125 "/>
<path style=" stroke:none;fill-rule:nonzero;fill:rgb(0%,0%,0%);fill-opacity:1;" d="M 109.960938 36.800781 C 109.867188 36.671875 109.761719 36.609375 109.652344 36.609375 C 109.605469 36.609375 109.527344 36.648438 109.417969 36.730469 C 108.570312 37.390625 107.601562 37.722656 106.519531 37.722656 C 105.386719 37.722656 104.488281 37.390625 103.820312 36.730469 C 103.152344 36.066406 102.816406 35.210938 102.816406 34.171875 C 102.816406 33.066406 103.207031 32.207031 103.984375 31.601562 C 104.761719 30.992188 105.757812 30.6875 106.964844 30.6875 L 109.015625 30.6875 L 109.015625 29.527344 C 109.015625 28.53125 108.316406 28.035156 106.917969 28.035156 C 105.992188 28.035156 104.996094 28.351562 103.925781 28.980469 L 102.960938 26.328125 C 104.292969 25.554688 105.703125 25.167969 107.179688 25.167969 C 108.828125 25.167969 110.074219 25.5625 110.914062 26.351562 C 111.753906 27.140625 112.175781 28.191406 112.175781 29.503906 L 112.175781 34.242188 L 113.425781 36.042969 L 110.714844 37.820312 Z M 107.273438 35.238281 C 107.808594 35.238281 108.230469 35.066406 108.546875 34.726562 C 108.859375 34.386719 109.015625 33.949219 109.015625 33.414062 L 109.015625 33.105469 C 109.015625 33.007812 108.976562 32.945312 108.898438 32.914062 C 108.820312 32.882812 108.71875 32.882812 108.59375 32.914062 L 107.742188 33.175781 L 107.011719 33.175781 C 106.636719 33.175781 106.351562 33.257812 106.164062 33.425781 C 105.976562 33.589844 105.882812 33.824219 105.882812 34.125 C 105.882812 34.4375 106.015625 34.703125 106.28125 34.917969 C 106.550781 35.128906 106.878906 35.238281 107.273438 35.238281 Z M 107.273438 35.238281 "/>
<path style=" stroke:none;fill-rule:nonzero;fill:rgb(0%,0%,0%);fill-opacity:1;" d="M 120.210938 37.820312 C 118.65625 37.820312 117.414062 37.433594 116.488281 36.65625 C 115.5625 35.882812 115.019531 34.867188 114.863281 33.601562 C 114.769531 32.84375 114.722656 32.132812 114.722656 31.46875 C 114.722656 30.679688 114.769531 29.96875 114.863281 29.335938 C 115.035156 28.089844 115.578125 27.082031 116.488281 26.316406 C 117.398438 25.550781 118.617188 25.167969 120.140625 25.167969 C 120.878906 25.167969 121.5625 25.265625 122.191406 25.464844 C 122.820312 25.660156 123.347656 25.941406 123.773438 26.304688 L 122.828125 28.910156 C 122.453125 28.625 122.078125 28.417969 121.710938 28.28125 C 121.339844 28.148438 120.894531 28.082031 120.378906 28.082031 C 119.734375 28.082031 119.214844 28.246094 118.820312 28.578125 C 118.429688 28.910156 118.21875 29.328125 118.1875 29.835938 C 118.136719 30.417969 118.113281 30.964844 118.113281 31.46875 C 118.113281 31.957031 118.136719 32.511719 118.1875 33.128906 C 118.21875 33.632812 118.433594 34.050781 118.832031 34.382812 C 119.234375 34.714844 119.773438 34.882812 120.449219 34.882812 C 121.28125 34.882812 122.097656 34.628906 122.898438 34.125 L 123.796875 36.65625 C 122.804688 37.433594 121.609375 37.820312 120.210938 37.820312 Z M 120.210938 37.820312 "/>
<path style=" stroke:none;fill-rule:nonzero;fill:rgb(0%,0%,0%);fill-opacity:1;" d="M 129.664062 37.511719 C 128.847656 37.527344 128.171875 37.269531 127.636719 36.742188 C 127.101562 36.210938 126.835938 35.527344 126.835938 34.691406 L 126.835938 28.292969 L 124.972656 28.292969 L 124.972656 25.453125 L 126.457031 25.453125 C 126.617188 25.453125 126.726562 25.410156 126.789062 25.320312 C 126.851562 25.234375 126.921875 25.027344 127 24.695312 C 127.078125 24.363281 127.164062 23.9375 127.261719 23.414062 L 127.402344 22.609375 L 130.277344 22.609375 L 130.277344 25.453125 L 132.234375 25.453125 L 132.234375 28.292969 L 130.277344 28.292969 L 130.277344 34.074219 C 130.277344 34.1875 130.3125 34.277344 130.382812 34.347656 C 130.453125 34.417969 130.542969 34.453125 130.652344 34.453125 L 132.445312 34.453125 L 132.445312 37.511719 Z M 129.664062 37.511719 "/>
<path style=" stroke:none;fill-rule:nonzero;fill:rgb(0%,0%,0%);fill-opacity:1;" d="M 77.855469 44.640625 L 87.992188 44.640625 L 87.992188 47.957031 L 81.628906 47.957031 L 81.628906 51.277344 L 87.589844 51.277344 L 87.589844 54.59375 L 81.628906 54.59375 L 81.628906 61.226562 L 77.855469 61.226562 Z M 77.855469 44.640625 "/>
<path style=" stroke:none;fill-rule:nonzero;fill:rgb(0%,0%,0%);fill-opacity:1;" d="M 91.292969 44.640625 L 94.828125 44.640625 L 94.828125 47.53125 L 91.292969 47.53125 Z M 91.292969 52.082031 L 89.171875 52.082031 L 89.171875 49.144531 L 94.828125 49.144531 L 94.828125 61.226562 L 91.292969 61.226562 Z M 91.292969 52.082031 "/>
<path style=" stroke:none;fill-rule:nonzero;fill:rgb(0%,0%,0%);fill-opacity:1;" d="M 97.890625 49.144531 L 101.425781 49.144531 L 101.425781 49.808594 C 102.246094 49.175781 103.195312 48.859375 104.28125 48.859375 C 105.410156 48.859375 106.367188 49.175781 107.144531 49.808594 C 107.921875 50.4375 108.308594 51.355469 108.308594 52.554688 L 108.308594 61.226562 L 104.773438 61.226562 L 104.773438 53.789062 C 104.773438 53.171875 104.660156 52.734375 104.433594 52.472656 C 104.203125 52.210938 103.777344 52.082031 103.148438 52.082031 C 102.519531 52.082031 102.074219 52.214844 101.816406 52.484375 C 101.558594 52.753906 101.425781 53.1875 101.425781 53.789062 L 101.425781 61.226562 L 97.890625 61.226562 Z M 97.890625 49.144531 "/>
<path style=" stroke:none;fill-rule:nonzero;fill:rgb(0%,0%,0%);fill-opacity:1;" d="M 114.085938 61.203125 C 113.25 61.203125 112.570312 60.9375 112.046875 60.410156 C 111.519531 59.878906 111.257812 59.203125 111.257812 58.382812 L 111.257812 43.457031 L 114.695312 43.457031 L 114.695312 57.765625 C 114.695312 57.878906 114.734375 57.96875 114.804688 58.039062 C 114.875 58.109375 114.964844 58.144531 115.074219 58.144531 L 116.347656 58.144531 L 116.347656 61.203125 Z M 114.085938 61.203125 "/>
<path style=" stroke:none;fill-rule:nonzero;fill:rgb(0%,0%,0%);fill-opacity:1;" d="M 124.902344 60.492188 C 124.808594 60.367188 124.707031 60.300781 124.597656 60.300781 C 124.550781 60.300781 124.472656 60.339844 124.359375 60.421875 C 123.511719 61.085938 122.546875 61.414062 121.460938 61.414062 C 120.332031 61.414062 119.429688 61.085938 118.761719 60.421875 C 118.09375 59.757812 117.761719 58.90625 117.761719 57.863281 C 117.761719 56.757812 118.148438 55.898438 118.929688 55.292969 C 119.707031 54.683594 120.699219 54.378906 121.910156 54.378906 L 123.960938 54.378906 L 123.960938 53.21875 C 123.960938 52.222656 123.261719 51.726562 121.863281 51.726562 C 120.933594 51.726562 119.9375 52.042969 118.871094 52.671875 L 117.902344 50.019531 C 119.238281 49.246094 120.644531 48.859375 122.121094 48.859375 C 123.773438 48.859375 125.015625 49.253906 125.859375 50.042969 C 126.699219 50.832031 127.117188 51.882812 127.117188 53.195312 L 127.117188 57.933594 L 128.367188 59.734375 L 125.65625 61.511719 Z M 122.214844 58.929688 C 122.75 58.929688 123.175781 58.757812 123.488281 58.417969 C 123.804688 58.078125 123.960938 57.640625 123.960938 57.105469 L 123.960938 56.796875 C 123.960938 56.703125 123.921875 56.636719 123.84375 56.605469 C 123.761719 56.574219 123.660156 56.574219 123.535156 56.605469 L 122.6875 56.867188 L 121.957031 56.867188 C 121.578125 56.867188 121.296875 56.949219 121.109375 57.117188 C 120.917969 57.28125 120.824219 57.515625 120.824219 57.816406 C 120.824219 58.128906 120.957031 58.394531 121.226562 58.609375 C 121.492188 58.820312 121.824219 58.929688 122.214844 58.929688 Z M 122.214844 58.929688 "/>
<path style=" stroke:none;fill-rule:nonzero;fill:rgb(0%,0%,0%);fill-opacity:1;" d="M 130.371094 49.144531 L 133.90625 49.144531 L 133.90625 49.808594 C 134.722656 49.175781 135.675781 48.859375 136.757812 48.859375 C 137.890625 48.859375 138.84375 49.175781 139.621094 49.808594 C 140.398438 50.4375 140.789062 51.355469 140.789062 52.554688 L 140.789062 61.226562 L 137.253906 61.226562 L 137.253906 53.789062 C 137.253906 53.171875 137.140625 52.734375 136.910156 52.472656 C 136.683594 52.210938 136.253906 52.082031 135.628906 52.082031 C 135 52.082031 134.554688 52.214844 134.296875 52.484375 C 134.035156 52.753906 133.90625 53.1875 133.90625 53.789062 L 133.90625 61.226562 L 130.371094 61.226562 Z M 130.371094 49.144531 "/>
<path style=" stroke:none;fill-rule:nonzero;fill:rgb(0%,0%,0%);fill-opacity:1;" d="M 147.648438 61.464844 C 145.023438 61.464844 143.601562 60.167969 143.382812 57.578125 C 143.304688 56.503906 143.265625 55.691406 143.265625 55.136719 C 143.265625 54.316406 143.304688 53.519531 143.382812 52.746094 C 143.507812 51.464844 143.9375 50.496094 144.667969 49.84375 C 145.398438 49.1875 146.46875 48.859375 147.882812 48.859375 C 148.386719 48.859375 148.871094 48.925781 149.332031 49.0625 C 149.796875 49.195312 150.171875 49.371094 150.453125 49.59375 L 150.453125 43.457031 L 153.988281 43.457031 L 153.988281 61.226562 L 150.453125 61.226562 L 150.453125 60.679688 C 150.453125 60.492188 150.382812 60.398438 150.242188 60.398438 C 150.160156 60.398438 150.066406 60.429688 149.957031 60.492188 L 148.449219 61.367188 C 148.214844 61.429688 147.945312 61.464844 147.648438 61.464844 Z M 148.636719 58.527344 C 149.203125 58.527344 149.648438 58.371094 149.96875 58.0625 C 150.292969 57.753906 150.453125 57.355469 150.453125 56.867188 L 150.453125 53.457031 C 150.453125 52.933594 150.304688 52.53125 150.003906 52.246094 C 149.707031 51.960938 149.25 51.820312 148.636719 51.820312 C 148.121094 51.820312 147.710938 51.941406 147.414062 52.1875 C 147.113281 52.433594 146.949219 52.753906 146.917969 53.148438 C 146.855469 54.03125 146.824219 54.703125 146.824219 55.160156 C 146.824219 55.636719 146.855469 56.3125 146.917969 57.199219 C 146.949219 57.59375 147.105469 57.914062 147.390625 58.160156 C 147.671875 58.402344 148.085938 58.527344 148.636719 58.527344 Z M 148.636719 58.527344 "/>
</g>
</svg>
