<svg xmlns="http://www.w3.org/2000/svg" xmlns:xlink="http://www.w3.org/1999/xlink" width="220" zoomAndPan="magnify" viewBox="0 0 165 82.499998" height="110" preserveAspectRatio="xMidYMid meet" version="1.0"><defs><clipPath id="id1"><path d="M 0.496094 0 L 164.503906 0 L 164.503906 82.003906 L 0.496094 82.003906 Z M 0.496094 0 " clip-rule="nonzero"/></clipPath><clipPath id="id2"><path d="M 0.496094 11.085938 L 32 11.085938 L 32 70.722656 L 0.496094 70.722656 Z M 0.496094 11.085938 " clip-rule="nonzero"/></clipPath><clipPath id="id3"><path d="M 37 11.085938 L 68 11.085938 L 68 70.722656 L 37 70.722656 Z M 37 11.085938 " clip-rule="nonzero"/></clipPath><clipPath id="id4"><path d="M 150 46 L 164.503906 46 L 164.503906 65 L 150 65 Z M 150 46 " clip-rule="nonzero"/></clipPath></defs><g clip-path="url(#id1)"><path fill="rgb(100%, 100%, 100%)" d="M 0.496094 0 L 164.503906 0 L 164.503906 89.457031 L 0.496094 89.457031 Z M 0.496094 0 " fill-opacity="1" fill-rule="nonzero"/><path fill="rgb(100%, 100%, 100%)" d="M 0.496094 0 L 164.503906 0 L 164.503906 82.003906 L 0.496094 82.003906 Z M 0.496094 0 " fill-opacity="1" fill-rule="nonzero"/><path fill="rgb(100%, 100%, 100%)" d="M 0.496094 0 L 164.503906 0 L 164.503906 82.003906 L 0.496094 82.003906 Z M 0.496094 0 " fill-opacity="1" fill-rule="nonzero"/></g><g clip-path="url(#id2)"><path fill="rgb(0%, 0%, 0%)" d="M 30.542969 65.351562 C 29.96875 64.878906 29.507812 64.28125 29.199219 63.609375 C 27.15625 65.179688 25.152344 66.304688 23.339844 66.945312 C 21.28125 67.667969 19.636719 67.691406 18.644531 67.121094 C 16.542969 65.90625 15.65625 61.222656 16.851562 54.933594 C 16.996094 54.191406 17.15625 53.453125 17.339844 52.722656 C 20.316406 53.359375 23.328125 53.796875 26.363281 54.03125 C 27.136719 55.113281 27.925781 56.160156 28.726562 57.171875 L 28.726562 51.324219 L 27.941406 51.277344 C 26.785156 49.59375 25.695312 47.871094 24.667969 46.105469 C 23.640625 44.339844 22.691406 42.546875 21.8125 40.730469 C 22.6875 38.902344 23.636719 37.109375 24.660156 35.351562 L 24.839844 35.042969 C 24.410156 34.753906 24.027344 34.402344 23.707031 33.996094 C 23.378906 33.585938 23.125 33.125 22.945312 32.628906 C 22.683594 33.058594 22.421875 33.488281 22.183594 33.921875 C 21.527344 35.054688 20.894531 36.207031 20.292969 37.371094 C 19.460938 35.402344 18.746094 33.46875 18.164062 31.597656 C 19.605469 31.277344 21.117188 31 22.683594 30.769531 C 22.699219 30.507812 22.734375 30.246094 22.792969 29.984375 C 22.960938 29.25 23.148438 28.519531 23.335938 27.789062 C 21.261719 28.050781 19.273438 28.417969 17.390625 28.835938 C 17.214844 28.15625 17.0625 27.472656 16.929688 26.78125 C 15.671875 20.375 16.507812 15.53125 18.609375 14.324219 C 20.269531 13.371094 23.410156 14.128906 27.042969 16.460938 C 27.863281 15.648438 28.949219 15.164062 30.101562 15.09375 C 25.046875 11.429688 20.25 10.089844 17.175781 11.859375 C 13.679688 13.890625 12.644531 19.875 14.109375 27.347656 C 14.257812 28.089844 14.421875 28.824219 14.605469 29.558594 C 13.746094 29.800781 12.917969 30.0625 12.125 30.34375 C 5.035156 32.804688 0.507812 36.664062 0.507812 40.667969 C 0.507812 44.804688 5.371094 48.949219 12.753906 51.464844 C 13.351562 51.667969 13.957031 51.855469 14.566406 52.03125 C 14.367188 52.816406 14.191406 53.601562 14.039062 54.410156 C 12.636719 61.761719 13.734375 67.597656 17.214844 69.589844 C 20.476562 71.46875 25.753906 69.890625 31.097656 65.75 C 30.902344 65.628906 30.71875 65.496094 30.542969 65.351562 Z M 20.28125 44.082031 C 20.890625 45.246094 21.523438 46.394531 22.179688 47.535156 C 22.839844 48.671875 23.539062 49.8125 24.28125 50.960938 C 22.210938 50.734375 20.148438 50.40625 18.113281 49.96875 C 18.703125 48.066406 19.433594 46.09375 20.28125 44.082031 Z M 15.332031 49.277344 C 14.777344 49.117188 14.226562 48.945312 13.679688 48.753906 C 10.417969 47.640625 7.71875 46.195312 5.871094 44.621094 C 4.210938 43.203125 3.371094 41.792969 3.371094 40.652344 C 3.371094 38.226562 7.007812 35.125 13.070312 33.019531 C 13.832031 32.757812 14.601562 32.515625 15.375 32.296875 C 16.277344 35.175781 17.367188 37.988281 18.636719 40.722656 C 17.347656 43.5 16.246094 46.355469 15.332031 49.277344 Z M 15.332031 49.277344 " fill-opacity="1" fill-rule="nonzero"/></g><g clip-path="url(#id3)"><path fill="rgb(0%, 0%, 0%)" d="M 55.769531 30.300781 C 55.058594 30.058594 54.34375 29.835938 53.621094 29.625 C 53.738281 29.140625 53.851562 28.652344 53.953125 28.164062 C 55.582031 20.28125 54.515625 13.929688 50.886719 11.839844 C 47.835938 10.085938 43.09375 11.46875 38.097656 15.191406 C 39.1875 15.339844 40.1875 15.867188 40.925781 16.675781 C 44.613281 14.195312 47.8125 13.355469 49.460938 14.304688 C 51.695312 15.59375 52.566406 20.78125 51.160156 27.589844 C 51.066406 28.03125 50.96875 28.472656 50.863281 28.914062 C 48.730469 28.425781 46.578125 28.046875 44.410156 27.78125 C 44.585938 28.445312 44.75 29.113281 44.910156 29.777344 C 44.988281 30.09375 45.039062 30.414062 45.058594 30.738281 C 46.808594 31 48.496094 31.296875 50.09375 31.660156 C 49.480469 33.605469 48.765625 35.523438 47.957031 37.398438 C 47.339844 36.230469 46.699219 35.074219 46.035156 33.929688 C 45.683594 33.320312 45.324219 32.71875 44.957031 32.121094 C 44.808594 32.8125 44.5 33.460938 44.0625 34.015625 C 43.828125 34.316406 43.558594 34.589844 43.257812 34.824219 L 43.566406 35.347656 C 44.585938 37.089844 45.542969 38.871094 46.445312 40.695312 C 45.558594 42.527344 44.601562 44.324219 43.578125 46.089844 C 42.570312 47.84375 41.5 49.5625 40.378906 51.246094 C 39.941406 51.277344 39.5 51.308594 39.066406 51.332031 C 39.066406 53.582031 39.066406 55.773438 39.066406 57.914062 C 40.046875 56.679688 41.019531 55.367188 41.984375 53.976562 C 45.019531 53.71875 48.035156 53.257812 51.003906 52.585938 C 51.140625 53.136719 51.269531 53.675781 51.371094 54.199219 C 52.039062 57.570312 52.132812 60.617188 51.6875 62.996094 C 51.292969 65.136719 50.492188 66.5625 49.503906 67.136719 C 47.5 68.292969 43.320312 66.910156 38.734375 63.171875 C 38.519531 63.761719 38.199219 64.308594 37.785156 64.78125 C 37.5625 65.035156 37.3125 65.265625 37.042969 65.472656 C 42.421875 69.820312 47.640625 71.5 50.921875 69.597656 C 54.503906 67.527344 55.667969 61.265625 54.15625 53.652344 C 54.039062 53.070312 53.894531 52.476562 53.753906 51.867188 C 54.179688 51.742188 54.59375 51.613281 54.996094 51.480469 C 62.652344 48.953125 67.632812 44.859375 67.632812 40.671875 C 67.640625 36.664062 62.980469 32.78125 55.769531 30.300781 Z M 44 50.910156 C 44.695312 49.796875 45.378906 48.664062 46.046875 47.511719 C 46.714844 46.363281 47.359375 45.1875 47.984375 43.980469 C 48.832031 45.898438 49.578125 47.855469 50.226562 49.84375 C 48.171875 50.308594 46.089844 50.664062 44 50.910156 Z M 54.113281 48.78125 C 53.746094 48.902344 53.371094 49.019531 52.988281 49.132812 C 52.054688 46.242188 50.925781 43.421875 49.609375 40.6875 C 50.875 37.992188 51.960938 35.210938 52.855469 32.371094 C 53.542969 32.566406 54.203125 32.773438 54.84375 32.996094 C 61.019531 35.117188 64.792969 38.257812 64.792969 40.675781 C 64.789062 43.25 60.71875 46.597656 54.113281 48.78125 Z M 54.113281 48.78125 " fill-opacity="1" fill-rule="nonzero"/></g><path fill="rgb(0%, 0%, 0%)" d="M 35.554688 37.339844 C 35.128906 37.128906 34.667969 37.011719 34.195312 36.992188 C 33.726562 36.972656 33.257812 37.054688 32.816406 37.230469 C 32.789062 37.1875 32.765625 37.164062 32.765625 37.144531 C 32.953125 36.214844 32.292969 35.679688 31.878906 35.015625 C 31.738281 34.753906 31.523438 34.542969 31.265625 34.410156 C 31.007812 34.273438 30.71875 34.222656 30.433594 34.257812 C 29.59375 34.296875 28.746094 34.257812 27.90625 34.257812 C 27.496094 34.253906 27.089844 34.160156 26.71875 33.976562 C 26.351562 33.792969 26.023438 33.527344 25.765625 33.195312 C 25.507812 32.863281 25.324219 32.476562 25.226562 32.0625 C 25.128906 31.648438 25.125 31.214844 25.207031 30.796875 C 25.65625 28.761719 26.207031 26.75 26.722656 24.738281 C 27.164062 22.988281 27.621094 21.25 28.066406 19.503906 C 28.476562 17.898438 29.320312 17.09375 30.917969 17.046875 C 33.136719 16.988281 35.351562 17.015625 37.570312 17.070312 C 38.148438 17.097656 38.703125 17.316406 39.148438 17.695312 C 39.59375 18.078125 39.910156 18.601562 40.046875 19.183594 C 41.007812 22.964844 41.980469 26.761719 42.878906 30.570312 C 43.003906 31.011719 43.023438 31.480469 42.941406 31.929688 C 42.859375 32.382812 42.671875 32.808594 42.398438 33.167969 C 42.125 33.53125 41.773438 33.820312 41.371094 34.011719 C 40.96875 34.203125 40.53125 34.292969 40.089844 34.273438 C 39.15625 34.238281 38.21875 34.253906 37.289062 34.273438 C 37.089844 34.300781 36.90625 34.394531 36.769531 34.542969 C 36.578125 34.746094 36.402344 34.96875 36.25 35.203125 C 35.835938 35.808594 35.191406 36.347656 35.554688 37.339844 Z M 34.078125 31.984375 L 39.605469 31.984375 C 40.15625 31.984375 40.476562 31.691406 40.480469 31.191406 C 40.484375 30.6875 40.160156 30.378906 39.589844 30.378906 C 35.90625 30.378906 32.222656 30.378906 28.539062 30.378906 C 28 30.378906 27.613281 30.726562 27.621094 31.191406 C 27.628906 31.652344 28.007812 32 28.554688 32 Z M 34.078125 31.984375 " fill-opacity="1" fill-rule="nonzero"/><path fill="rgb(0%, 0%, 0%)" d="M 31.097656 50.886719 L 31.097656 40.367188 C 31.097656 38.628906 32.363281 37.339844 34.066406 37.339844 C 35.773438 37.339844 37.042969 38.628906 37.042969 40.371094 C 37.042969 47.394531 37.042969 54.417969 37.042969 61.441406 C 37.054688 62.171875 36.792969 62.878906 36.308594 63.429688 C 35.824219 63.980469 35.152344 64.332031 34.417969 64.421875 C 33.660156 64.515625 32.898438 64.316406 32.289062 63.867188 C 31.679688 63.417969 31.269531 62.753906 31.140625 62.015625 C 31.109375 61.8125 31.09375 61.605469 31.101562 61.398438 C 31.097656 57.898438 31.097656 54.394531 31.097656 50.886719 Z M 31.097656 50.886719 " fill-opacity="1" fill-rule="nonzero"/><path fill="rgb(0%, 0%, 0%)" d="M 82.902344 18.707031 C 84.828125 18.707031 86.339844 19.148438 87.433594 20.027344 C 88.53125 20.90625 89.078125 22.125 89.078125 23.671875 C 89.09375 24.46875 88.855469 25.25 88.390625 25.894531 C 87.867188 26.578125 87.171875 27.105469 86.375 27.425781 C 87.375 27.722656 88.097656 28.210938 88.535156 28.898438 C 88.996094 29.667969 89.226562 30.554688 89.195312 31.449219 L 89.195312 32.308594 C 89.175781 32.613281 89.253906 32.917969 89.417969 33.175781 C 89.503906 33.285156 89.617188 33.375 89.742188 33.4375 C 89.871094 33.5 90.007812 33.535156 90.148438 33.542969 L 90.570312 33.601562 L 90.570312 35.640625 L 88.8125 35.640625 C 87.699219 35.640625 86.917969 35.339844 86.46875 34.746094 C 85.992188 34.070312 85.753906 33.253906 85.792969 32.429688 L 85.792969 31.464844 C 85.832031 30.761719 85.59375 30.066406 85.132812 29.53125 C 84.890625 29.289062 84.597656 29.097656 84.277344 28.96875 C 83.960938 28.84375 83.617188 28.78125 83.273438 28.792969 L 80.488281 28.792969 L 80.488281 33.257812 L 82.304688 33.609375 L 82.304688 35.648438 L 75.277344 35.648438 L 75.277344 33.609375 L 77.085938 33.257812 L 77.085938 21.105469 L 75.277344 20.753906 L 75.277344 18.714844 L 82.902344 18.714844 Z M 80.488281 26.175781 L 82.84375 26.175781 C 83.789062 26.175781 84.5 25.972656 84.976562 25.570312 C 85.21875 25.351562 85.40625 25.082031 85.53125 24.777344 C 85.652344 24.476562 85.707031 24.152344 85.6875 23.828125 C 85.703125 23.492188 85.648438 23.15625 85.527344 22.84375 C 85.40625 22.527344 85.21875 22.242188 84.980469 22.007812 C 84.511719 21.550781 83.816406 21.324219 82.902344 21.324219 L 80.488281 21.324219 Z M 80.488281 26.175781 " fill-opacity="1" fill-rule="nonzero"/><path fill="rgb(0%, 0%, 0%)" d="M 98.257812 36.492188 C 96.441406 36.492188 94.988281 35.890625 93.898438 34.683594 C 92.8125 33.472656 92.269531 31.941406 92.269531 30.085938 L 92.269531 29.605469 C 92.269531 27.664062 92.78125 26.070312 93.804688 24.816406 C 94.824219 23.5625 96.207031 22.9375 97.945312 22.941406 C 99.648438 22.941406 100.96875 23.472656 101.90625 24.527344 C 102.84375 25.585938 103.3125 27.023438 103.316406 28.835938 L 103.316406 30.753906 L 95.800781 30.753906 L 95.777344 30.828125 C 95.8125 31.609375 96.105469 32.355469 96.609375 32.941406 C 96.867188 33.222656 97.179688 33.441406 97.527344 33.585938 C 97.875 33.730469 98.246094 33.792969 98.621094 33.773438 C 99.253906 33.789062 99.886719 33.710938 100.496094 33.539062 C 101.0625 33.351562 101.609375 33.101562 102.125 32.796875 L 103.046875 34.96875 C 102.4375 35.445312 101.753906 35.808594 101.023438 36.042969 C 100.132812 36.347656 99.199219 36.5 98.257812 36.492188 Z M 97.957031 25.652344 C 97.667969 25.640625 97.378906 25.703125 97.121094 25.832031 C 96.859375 25.964844 96.636719 26.15625 96.464844 26.398438 C 96.070312 26.976562 95.835938 27.65625 95.789062 28.363281 L 95.824219 28.425781 L 99.992188 28.425781 L 99.992188 28.113281 C 100.023438 27.472656 99.84375 26.839844 99.484375 26.320312 C 99.148438 25.878906 98.640625 25.660156 97.957031 25.660156 Z M 97.957031 25.652344 " fill-opacity="1" fill-rule="nonzero"/><path fill="rgb(0%, 0%, 0%)" d="M 112.964844 36.238281 C 112.871094 36.019531 112.789062 35.796875 112.71875 35.570312 C 112.648438 35.34375 112.59375 35.113281 112.554688 34.878906 C 112.140625 35.363281 111.636719 35.761719 111.074219 36.046875 C 110.449219 36.355469 109.765625 36.507812 109.074219 36.492188 C 107.832031 36.492188 106.84375 36.144531 106.113281 35.449219 C 105.386719 34.753906 105.019531 33.804688 105.019531 32.609375 C 104.996094 32.046875 105.117188 31.492188 105.367188 30.996094 C 105.621094 30.5 105.992188 30.078125 106.449219 29.773438 C 107.402344 29.105469 108.800781 28.769531 110.644531 28.769531 L 112.390625 28.769531 L 112.390625 27.492188 C 112.40625 27.222656 112.367188 26.957031 112.277344 26.703125 C 112.1875 26.453125 112.046875 26.222656 111.863281 26.03125 C 111.511719 25.6875 110.992188 25.503906 110.304688 25.503906 C 109.953125 25.496094 109.601562 25.542969 109.261719 25.644531 C 109 25.714844 108.75 25.824219 108.523438 25.972656 L 108.300781 27.371094 L 105.730469 27.371094 L 105.730469 24.464844 C 106.402344 24.015625 107.128906 23.65625 107.882812 23.390625 C 108.734375 23.085938 109.625 22.933594 110.527344 22.941406 C 112.097656 22.941406 113.375 23.339844 114.355469 24.132812 C 115.332031 24.925781 115.824219 26.054688 115.824219 27.515625 L 115.824219 32.914062 C 115.824219 33.113281 115.824219 33.300781 115.824219 33.476562 C 115.828125 33.648438 115.84375 33.816406 115.867188 33.984375 L 116.910156 34.132812 L 116.910156 36.246094 Z M 110 33.886719 C 110.488281 33.894531 110.972656 33.773438 111.40625 33.542969 C 111.796875 33.339844 112.136719 33.046875 112.390625 32.679688 L 112.390625 30.6875 L 110.644531 30.6875 C 109.917969 30.6875 109.359375 30.867188 108.992188 31.21875 C 108.816406 31.371094 108.671875 31.566406 108.574219 31.785156 C 108.476562 32 108.429688 32.238281 108.429688 32.480469 C 108.417969 32.671875 108.453125 32.867188 108.523438 33.046875 C 108.597656 33.226562 108.707031 33.386719 108.847656 33.515625 C 109.171875 33.78125 109.582031 33.914062 110 33.886719 Z M 110 33.886719 " fill-opacity="1" fill-rule="nonzero"/><path fill="rgb(0%, 0%, 0%)" d="M 124.523438 33.796875 C 124.792969 33.8125 125.058594 33.769531 125.3125 33.675781 C 125.5625 33.582031 125.792969 33.4375 125.988281 33.25 C 126.175781 33.058594 126.320312 32.828125 126.414062 32.574219 C 126.507812 32.324219 126.546875 32.054688 126.535156 31.785156 L 129.617188 31.785156 L 129.652344 31.855469 C 129.675781 32.484375 129.558594 33.109375 129.308594 33.6875 C 129.058594 34.261719 128.683594 34.769531 128.210938 35.167969 C 127.179688 36.066406 125.863281 36.539062 124.511719 36.492188 C 122.628906 36.492188 121.175781 35.875 120.148438 34.640625 C 119.125 33.40625 118.609375 31.824219 118.609375 29.898438 L 118.609375 29.535156 C 118.609375 27.613281 119.132812 26.03125 120.183594 24.792969 C 121.230469 23.554688 122.730469 22.941406 124.671875 22.941406 C 125.609375 22.929688 126.542969 23.089844 127.425781 23.414062 C 128.1875 23.695312 128.878906 24.144531 129.453125 24.734375 L 129.496094 28.222656 L 126.738281 28.222656 L 126.175781 26.183594 C 125.988281 26.023438 125.773438 25.894531 125.542969 25.804688 C 125.269531 25.699219 124.980469 25.648438 124.6875 25.652344 C 123.722656 25.652344 123.039062 26.015625 122.636719 26.742188 C 122.207031 27.605469 122 28.566406 122.039062 29.539062 L 122.039062 29.902344 C 122.039062 31.066406 122.222656 32.007812 122.585938 32.71875 C 122.953125 33.425781 123.597656 33.789062 124.523438 33.796875 Z M 124.523438 33.796875 " fill-opacity="1" fill-rule="nonzero"/><path fill="rgb(0%, 0%, 0%)" d="M 136.175781 19.554688 L 136.175781 22.835938 L 138.574219 22.835938 L 138.574219 25.375 L 136.175781 25.375 L 136.175781 32.195312 C 136.136719 32.59375 136.253906 32.992188 136.503906 33.308594 C 136.617188 33.421875 136.757812 33.511719 136.910156 33.570312 C 137.0625 33.628906 137.222656 33.652344 137.386719 33.648438 C 137.609375 33.648438 137.828125 33.636719 138.046875 33.613281 C 138.261719 33.589844 138.476562 33.554688 138.6875 33.507812 L 139 36.121094 C 138.179688 36.375 137.328125 36.5 136.46875 36.492188 C 135.195312 36.492188 134.21875 36.152344 133.535156 35.464844 C 132.851562 34.78125 132.507812 33.695312 132.507812 32.207031 L 132.507812 25.375 L 130.503906 25.375 L 130.503906 22.835938 L 132.507812 22.835938 L 132.507812 19.554688 Z M 136.175781 19.554688 " fill-opacity="1" fill-rule="nonzero"/><path fill="rgb(0%, 0%, 0%)" d="M 92.269531 41.574219 L 92.269531 43.71875 L 90.492188 44.085938 L 90.492188 59.34375 L 87.167969 59.34375 L 80.453125 47.390625 L 80.382812 47.390625 L 80.382812 56.855469 L 82.167969 57.222656 L 82.167969 59.363281 L 75.277344 59.363281 L 75.277344 57.222656 L 77.046875 56.855469 L 77.046875 44.09375 L 75.277344 43.726562 L 75.277344 41.585938 L 80.382812 41.585938 L 87.097656 53.554688 L 87.167969 53.554688 L 87.167969 44.09375 L 85.382812 43.726562 L 85.382812 41.585938 L 92.269531 41.585938 Z M 92.269531 41.574219 " fill-opacity="1" fill-rule="nonzero"/><path fill="rgb(0%, 0%, 0%)" d="M 93.96875 52.445312 C 93.96875 50.507812 94.496094 48.914062 95.550781 47.664062 C 96.605469 46.414062 98.058594 45.796875 99.914062 45.8125 C 101.777344 45.8125 103.234375 46.429688 104.285156 47.664062 C 105.339844 48.898438 105.867188 50.492188 105.867188 52.453125 L 105.867188 52.71875 C 105.867188 54.679688 105.339844 56.277344 104.285156 57.511719 C 103.234375 58.746094 101.789062 59.363281 99.945312 59.363281 C 98.074219 59.363281 96.613281 58.746094 95.5625 57.511719 C 94.511719 56.277344 93.984375 54.679688 93.980469 52.71875 Z M 97.375 52.710938 C 97.375 53.902344 97.574219 54.855469 97.980469 55.574219 C 98.382812 56.296875 99.035156 56.65625 99.9375 56.65625 C 100.324219 56.679688 100.710938 56.589844 101.050781 56.398438 C 101.390625 56.207031 101.671875 55.921875 101.863281 55.570312 C 102.273438 54.847656 102.476562 53.894531 102.476562 52.710938 L 102.476562 52.445312 C 102.515625 51.460938 102.300781 50.484375 101.859375 49.613281 C 101.667969 49.257812 101.382812 48.96875 101.039062 48.773438 C 100.695312 48.578125 100.304688 48.488281 99.914062 48.511719 C 99.523438 48.488281 99.132812 48.578125 98.792969 48.769531 C 98.449219 48.964844 98.167969 49.257812 97.980469 49.613281 C 97.542969 50.488281 97.335938 51.464844 97.375 52.445312 Z M 97.375 52.710938 " fill-opacity="1" fill-rule="nonzero"/><path fill="rgb(0%, 0%, 0%)" d="M 107.746094 57.203125 L 109.449219 56.832031 L 109.449219 48.585938 L 107.5625 48.21875 L 107.5625 46.0625 L 112.761719 46.0625 L 112.917969 48.003906 C 113.179688 47.375 113.589844 46.820312 114.109375 46.386719 C 114.589844 46.003906 115.1875 45.800781 115.800781 45.8125 C 116 45.8125 116.195312 45.824219 116.394531 45.855469 C 116.566406 45.878906 116.738281 45.914062 116.910156 45.960938 L 116.53125 49.226562 L 115.074219 49.191406 C 114.621094 49.175781 114.175781 49.28125 113.78125 49.5 C 113.441406 49.703125 113.167969 50.007812 113.003906 50.371094 L 113.003906 56.839844 L 114.707031 57.207031 L 114.707031 59.363281 L 107.746094 59.363281 Z M 107.746094 57.203125 " fill-opacity="1" fill-rule="nonzero"/><path fill="rgb(0%, 0%, 0%)" d="M 136.445312 48.722656 L 135.140625 48.890625 L 132.445312 59.363281 L 129.542969 59.363281 L 127.144531 51.800781 L 127.070312 51.800781 L 124.671875 59.363281 L 121.777344 59.363281 L 119.066406 48.890625 L 117.761719 48.722656 L 117.761719 46.664062 L 123.605469 46.664062 L 123.605469 48.722656 L 122.230469 48.980469 L 123.464844 54.796875 L 123.535156 54.796875 L 125.945312 46.65625 L 128.285156 46.65625 L 130.71875 54.816406 L 130.785156 54.816406 L 131.992188 48.996094 L 130.609375 48.738281 L 130.609375 46.679688 L 136.453125 46.679688 Z M 136.445312 48.722656 " fill-opacity="1" fill-rule="nonzero"/><path fill="rgb(0%, 0%, 0%)" d="M 146.105469 59.113281 C 146.007812 58.894531 145.921875 58.667969 145.847656 58.441406 C 145.777344 58.214844 145.722656 57.984375 145.683594 57.75 C 145.269531 58.238281 144.769531 58.636719 144.203125 58.917969 C 143.578125 59.222656 142.894531 59.375 142.207031 59.363281 C 140.964844 59.363281 139.976562 59.015625 139.246094 58.320312 C 138.515625 57.628906 138.152344 56.683594 138.152344 55.484375 C 138.132812 54.925781 138.253906 54.371094 138.503906 53.875 C 138.753906 53.378906 139.125 52.957031 139.582031 52.652344 C 140.535156 51.988281 141.933594 51.65625 143.777344 51.65625 L 145.519531 51.65625 L 145.519531 50.375 C 145.539062 50.109375 145.5 49.84375 145.414062 49.59375 C 145.324219 49.339844 145.1875 49.113281 145.007812 48.917969 C 144.65625 48.566406 144.136719 48.390625 143.449219 48.390625 C 143.097656 48.386719 142.746094 48.433594 142.40625 48.527344 C 142.144531 48.601562 141.898438 48.714844 141.667969 48.859375 L 141.445312 50.257812 L 138.878906 50.257812 L 138.878906 47.355469 C 139.546875 46.898438 140.269531 46.527344 141.027344 46.257812 C 141.875 45.953125 142.769531 45.800781 143.667969 45.8125 C 145.238281 45.8125 146.511719 46.207031 147.492188 46.996094 C 148.476562 47.789062 148.964844 48.914062 148.964844 50.375 L 148.964844 55.761719 C 148.964844 55.960938 148.964844 56.152344 148.964844 56.328125 C 148.964844 56.5 148.980469 56.667969 149.003906 56.835938 L 150.046875 56.976562 L 150.046875 59.089844 Z M 143.140625 56.773438 C 143.628906 56.777344 144.113281 56.660156 144.546875 56.429688 C 144.9375 56.226562 145.273438 55.933594 145.53125 55.566406 L 145.53125 53.578125 L 143.785156 53.578125 C 143.058594 53.578125 142.507812 53.753906 142.132812 54.109375 C 141.957031 54.261719 141.8125 54.457031 141.71875 54.671875 C 141.621094 54.890625 141.570312 55.128906 141.570312 55.367188 C 141.5625 55.5625 141.59375 55.753906 141.667969 55.933594 C 141.738281 56.113281 141.847656 56.273438 141.988281 56.40625 C 142.316406 56.667969 142.726562 56.800781 143.140625 56.773438 Z M 143.140625 56.773438 " fill-opacity="1" fill-rule="nonzero"/><g clip-path="url(#id4)"><path fill="rgb(0%, 0%, 0%)" d="M 164.488281 48.714844 L 163.230469 48.890625 L 158.261719 61.222656 C 157.910156 62.082031 157.375 62.863281 156.691406 63.519531 C 156.039062 64.136719 155.054688 64.445312 153.742188 64.445312 C 153.449219 64.445312 153.160156 64.421875 152.871094 64.375 C 152.597656 64.328125 152.285156 64.261719 151.917969 64.175781 L 152.34375 61.679688 L 152.707031 61.726562 C 152.8125 61.742188 152.921875 61.75 153.027344 61.75 C 153.535156 61.78125 154.035156 61.632812 154.425781 61.332031 C 154.757812 61.050781 155.015625 60.699219 155.175781 60.304688 L 155.589844 59.34375 L 151.308594 48.902344 L 150.046875 48.714844 L 150.046875 46.65625 L 156.664062 46.65625 L 156.664062 48.714844 L 155.152344 48.945312 L 157 54.011719 L 157.1875 54.925781 L 157.261719 54.9375 L 159.398438 48.945312 L 157.871094 48.714844 L 157.871094 46.65625 L 164.488281 46.65625 Z M 164.488281 48.714844 " fill-opacity="1" fill-rule="nonzero"/></g></svg>