<svg xmlns="http://www.w3.org/2000/svg" xmlns:xlink="http://www.w3.org/1999/xlink" width="220" zoomAndPan="magnify" viewBox="0 0 165 82.499998" height="110" preserveAspectRatio="xMidYMid meet" version="1.0"><defs><clipPath id="bf06e0f4ec"><path d="M 0.496094 0 L 164.503906 0 L 164.503906 82.003906 L 0.496094 82.003906 Z M 0.496094 0 " clip-rule="nonzero"/></clipPath><clipPath id="38c14d7be0"><path d="M 0.496094 8.199219 L 20 8.199219 L 20 33 L 0.496094 33 Z M 0.496094 8.199219 " clip-rule="nonzero"/></clipPath><clipPath id="c7a159a30c"><path d="M 81 8.199219 L 100 8.199219 L 100 33 L 81 33 Z M 81 8.199219 " clip-rule="nonzero"/></clipPath><clipPath id="0907439b01"><path d="M 127 8.199219 L 132 8.199219 L 132 33 L 127 33 Z M 127 8.199219 " clip-rule="nonzero"/></clipPath><clipPath id="da8e9311b3"><path d="M 147 14 L 164.503906 14 L 164.503906 33 L 147 33 Z M 147 14 " clip-rule="nonzero"/></clipPath><clipPath id="ea309e7369"><path d="M 141 37 L 164.503906 37 L 164.503906 73 L 141 73 Z M 141 37 " clip-rule="nonzero"/></clipPath><clipPath id="4cc97ded5b"><path d="M 0.496094 38 L 26 38 L 26 73 L 0.496094 73 Z M 0.496094 38 " clip-rule="nonzero"/></clipPath><clipPath id="cb0494daf5"><path d="M 61 16 L 133 16 L 133 73.800781 L 61 73.800781 Z M 61 16 " clip-rule="nonzero"/></clipPath></defs><g clip-path="url(#bf06e0f4ec)"><path fill="#ffffff" d="M 0.496094 0 L 164.503906 0 L 164.503906 89.457031 L 0.496094 89.457031 Z M 0.496094 0 " fill-opacity="1" fill-rule="nonzero"/><path fill="#ffffff" d="M 0.496094 0 L 164.503906 0 L 164.503906 82.003906 L 0.496094 82.003906 Z M 0.496094 0 " fill-opacity="1" fill-rule="nonzero"/><path fill="#ffffff" d="M 0.496094 0 L 164.503906 0 L 164.503906 82.003906 L 0.496094 82.003906 Z M 0.496094 0 " fill-opacity="1" fill-rule="nonzero"/></g><g clip-path="url(#38c14d7be0)"><path fill="#9235ff" d="M 5.082031 19.085938 L 9.160156 19.085938 C 11.597656 19.085938 12.816406 17.949219 12.816406 15.675781 C 12.816406 14.695312 12.492188 13.917969 11.84375 13.351562 C 11.199219 12.78125 10.292969 12.496094 9.132812 12.496094 L 5.082031 12.496094 Z M 0.496094 32.265625 L 0.496094 8.488281 L 10.382812 8.488281 C 12.910156 8.488281 14.855469 9.136719 16.21875 10.433594 C 17.578125 11.730469 18.257812 13.375 18.257812 15.367188 C 18.257812 16.992188 17.929688 18.304688 17.265625 19.300781 C 16.605469 20.296875 15.828125 21 14.933594 21.40625 C 15.613281 21.949219 16.097656 22.480469 16.378906 23.003906 C 16.660156 23.523438 16.898438 24.378906 17.09375 25.558594 C 17.519531 27.726562 18.433594 29.960938 19.832031 32.265625 L 14.410156 32.265625 C 13.300781 30.464844 12.503906 28.34375 12.015625 25.90625 C 11.824219 24.976562 11.550781 24.300781 11.199219 23.875 C 10.851562 23.449219 10.304688 23.234375 9.566406 23.234375 L 5.339844 23.234375 L 5.339844 32.265625 Z M 0.496094 32.265625 " fill-opacity="1" fill-rule="evenodd"/></g><path fill="#9235ff" d="M 22.554688 21.808594 L 29.429688 21.808594 C 29.429688 20.707031 29.136719 19.765625 28.554688 18.976562 C 27.96875 18.191406 27.140625 17.796875 26.066406 17.796875 C 24.972656 17.796875 24.113281 18.195312 23.492188 18.992188 C 22.867188 19.789062 22.554688 20.726562 22.554688 21.808594 M 17.972656 23.539062 C 17.972656 20.703125 18.773438 18.460938 20.382812 16.820312 C 21.992188 15.179688 23.980469 14.359375 26.351562 14.359375 C 28.648438 14.359375 30.59375 15.203125 32.191406 16.894531 C 33.789062 18.582031 34.585938 20.796875 34.585938 23.539062 C 34.585938 24.101562 34.558594 24.660156 34.5 25.21875 L 22.734375 25.21875 C 22.734375 26.320312 23.089844 27.253906 23.792969 28.015625 C 24.5 28.777344 25.449219 29.160156 26.648438 29.160156 C 27.53125 29.160156 28.296875 28.941406 28.957031 28.507812 C 29.613281 28.074219 30.109375 27.519531 30.441406 26.84375 L 34.351562 28.203125 C 33.765625 29.496094 32.804688 30.59375 31.46875 31.492188 C 30.136719 32.386719 28.480469 32.835938 26.5 32.835938 C 24.011719 32.835938 21.964844 31.996094 20.367188 30.316406 C 18.769531 28.636719 17.972656 26.378906 17.972656 23.539062 " fill-opacity="1" fill-rule="evenodd"/><path fill="#9235ff" d="M 39.457031 26.960938 C 39.457031 27.484375 39.660156 27.929688 40.066406 28.289062 C 40.476562 28.648438 40.996094 28.828125 41.636719 28.828125 C 42.664062 28.828125 43.535156 28.476562 44.253906 27.777344 C 44.972656 27.078125 45.328125 26.144531 45.328125 24.980469 L 45.328125 23.8125 C 44.207031 24.085938 43.3125 24.269531 42.65625 24.367188 C 40.523438 24.679688 39.457031 25.542969 39.457031 26.960938 M 34.730469 27.566406 C 34.730469 25.984375 35.34375 24.667969 36.574219 23.628906 C 37.800781 22.585938 39.605469 21.890625 41.984375 21.542969 C 43.933594 21.234375 45.066406 21.03125 45.378906 20.933594 L 45.378906 20.035156 C 45.378906 19.320312 45.128906 18.796875 44.632812 18.457031 C 44.132812 18.121094 43.484375 17.949219 42.6875 17.949219 C 40.851562 17.949219 39.273438 18.664062 37.949219 20.09375 L 35.199219 17.746094 C 37.109375 15.488281 39.585938 14.359375 42.628906 14.359375 C 45.320312 14.359375 47.230469 14.996094 48.359375 16.269531 C 49.492188 17.546875 50.058594 19.351562 50.058594 21.6875 L 50.058594 32.316406 L 45.523438 32.316406 L 45.523438 30.519531 C 45.171875 31.175781 44.585938 31.726562 43.769531 32.171875 C 42.949219 32.613281 42.011719 32.835938 40.960938 32.835938 C 39.050781 32.835938 37.535156 32.347656 36.414062 31.375 C 35.289062 30.398438 34.730469 29.128906 34.730469 27.566406 " fill-opacity="1" fill-rule="evenodd"/><path fill="#9235ff" d="M 50.816406 23.394531 C 50.816406 20.519531 51.59375 18.253906 53.15625 16.59375 C 54.714844 14.929688 56.699219 14.101562 59.117188 14.101562 C 60.988281 14.101562 62.535156 14.675781 63.765625 15.820312 C 64.992188 16.964844 65.753906 18.25 66.042969 19.667969 L 62.097656 20.742188 C 61.902344 20.027344 61.5625 19.398438 61.074219 18.863281 C 60.589844 18.332031 59.964844 18.0625 59.203125 18.0625 C 58.035156 18.0625 57.148438 18.570312 56.546875 19.578125 C 55.941406 20.589844 55.640625 21.859375 55.640625 23.394531 C 55.640625 25.125 55.976562 26.445312 56.648438 27.359375 C 57.320312 28.269531 58.171875 28.726562 59.203125 28.726562 C 60.0625 28.726562 60.785156 28.4375 61.367188 27.851562 C 61.953125 27.269531 62.332031 26.601562 62.507812 25.84375 L 66.453125 26.890625 C 66.121094 28.40625 65.273438 29.753906 63.910156 30.925781 C 62.546875 32.101562 60.949219 32.691406 59.117188 32.691406 C 56.660156 32.691406 54.664062 31.84375 53.125 30.15625 C 51.585938 28.464844 50.816406 26.210938 50.816406 23.394531 " fill-opacity="1" fill-rule="evenodd"/><path fill="#9235ff" d="M 66.285156 18.609375 L 66.285156 14.667969 L 68.789062 14.667969 L 68.789062 9.675781 L 73.386719 9.675781 L 73.386719 14.667969 L 77.023438 14.667969 L 77.023438 18.609375 L 73.386719 18.609375 L 73.386719 26.347656 C 73.386719 27.632812 73.949219 28.277344 75.074219 28.277344 L 77.054688 28.277344 L 77.054688 32.246094 L 74.492188 32.246094 C 70.691406 32.246094 68.789062 30.367188 68.789062 26.609375 L 68.789062 18.609375 Z M 66.285156 18.609375 " fill-opacity="1" fill-rule="evenodd"/><g clip-path="url(#c7a159a30c)"><path fill="#9235ff" d="M 81.097656 32.246094 L 81.097656 8.347656 L 86.019531 8.347656 L 92.28125 20.195312 L 94.757812 24.921875 L 94.875 24.921875 C 94.5625 22.78125 94.410156 20.457031 94.410156 17.949219 L 94.410156 8.347656 L 99.242188 8.347656 L 99.242188 32.246094 L 94.351562 32.246094 L 88.117188 20.835938 L 85.554688 15.789062 L 85.410156 15.789062 C 85.757812 18.179688 85.933594 20.515625 85.933594 22.792969 L 85.933594 32.246094 Z M 81.097656 32.246094 " fill-opacity="1" fill-rule="evenodd"/></g><path fill="#9235ff" d="M 104.628906 26.960938 C 104.628906 27.484375 104.832031 27.929688 105.242188 28.289062 C 105.648438 28.648438 106.171875 28.828125 106.8125 28.828125 C 107.835938 28.828125 108.710938 28.476562 109.425781 27.777344 C 110.144531 27.078125 110.503906 26.144531 110.503906 24.980469 L 110.503906 23.8125 C 109.378906 24.085938 108.488281 24.269531 107.828125 24.367188 C 105.695312 24.679688 104.628906 25.542969 104.628906 26.960938 M 100.046875 27.566406 C 100.046875 25.984375 100.660156 24.667969 101.890625 23.628906 C 103.117188 22.585938 104.921875 21.890625 107.300781 21.542969 C 109.25 21.234375 110.382812 21.03125 110.691406 20.933594 L 110.691406 20.035156 C 110.691406 19.320312 110.445312 18.796875 109.945312 18.457031 C 109.449219 18.121094 108.800781 17.949219 108.003906 17.949219 C 106.167969 17.949219 104.589844 18.664062 103.265625 20.09375 L 100.515625 17.746094 C 102.425781 15.488281 104.902344 14.359375 107.945312 14.359375 C 110.632812 14.359375 112.546875 14.996094 113.675781 16.269531 C 114.808594 17.546875 115.371094 19.351562 115.371094 21.6875 L 115.371094 32.316406 L 110.839844 32.316406 L 110.839844 30.519531 C 110.488281 31.175781 109.902344 31.726562 109.085938 32.171875 C 108.265625 32.613281 107.328125 32.835938 106.277344 32.835938 C 104.367188 32.835938 102.847656 32.347656 101.726562 31.375 C 100.605469 30.398438 100.046875 29.128906 100.046875 27.566406 " fill-opacity="1" fill-rule="evenodd"/><path fill="#9235ff" d="M 115.632812 18.609375 L 115.632812 14.667969 L 118.136719 14.667969 L 118.136719 9.675781 L 122.734375 9.675781 L 122.734375 14.667969 L 126.371094 14.667969 L 126.371094 18.609375 L 122.734375 18.609375 L 122.734375 26.347656 C 122.734375 27.632812 123.296875 28.277344 124.421875 28.277344 L 126.402344 28.277344 L 126.402344 32.246094 L 123.839844 32.246094 C 120.035156 32.246094 118.136719 30.367188 118.136719 26.609375 L 118.136719 18.609375 Z M 115.632812 18.609375 " fill-opacity="1" fill-rule="evenodd"/><g clip-path="url(#0907439b01)"><path fill="#9235ff" d="M 127.261719 32.265625 L 131.988281 32.265625 L 131.988281 14.789062 L 127.261719 14.789062 Z M 127.261719 12.925781 L 131.988281 12.925781 L 131.988281 8.199219 L 127.261719 8.199219 Z M 127.261719 12.925781 " fill-opacity="1" fill-rule="evenodd"/></g><path fill="#9235ff" d="M 132.308594 14.691406 L 137.371094 14.691406 L 139.390625 22.507812 C 139.972656 24.976562 140.421875 26.921875 140.734375 28.339844 L 140.824219 28.339844 C 140.9375 27.8125 141.171875 26.855469 141.523438 25.464844 C 141.875 24.078125 142.117188 23.089844 142.253906 22.507812 L 144.214844 14.691406 L 149.277344 14.691406 L 143.394531 32.246094 L 138.191406 32.246094 Z M 132.308594 14.691406 " fill-opacity="1" fill-rule="evenodd"/><g clip-path="url(#da8e9311b3)"><path fill="#9235ff" d="M 152.902344 21.808594 L 159.777344 21.808594 C 159.777344 20.707031 159.484375 19.765625 158.898438 18.976562 C 158.3125 18.191406 157.484375 17.796875 156.410156 17.796875 C 155.316406 17.796875 154.457031 18.195312 153.835938 18.992188 C 153.210938 19.789062 152.902344 20.726562 152.902344 21.808594 M 147.886719 23.539062 C 147.886719 20.703125 148.691406 18.460938 150.296875 16.820312 C 151.90625 15.179688 153.898438 14.359375 156.269531 14.359375 C 158.5625 14.359375 160.507812 15.203125 162.105469 16.894531 C 163.703125 18.582031 164.503906 20.796875 164.503906 23.539062 C 164.503906 24.101562 164.472656 24.660156 164.414062 25.21875 L 152.652344 25.21875 C 152.652344 26.320312 153.003906 27.253906 153.710938 28.015625 C 154.414062 28.777344 155.367188 29.160156 156.5625 29.160156 C 157.445312 29.160156 158.214844 28.941406 158.871094 28.507812 C 159.527344 28.074219 160.023438 27.519531 160.355469 26.84375 L 164.269531 28.203125 C 163.679688 29.496094 162.71875 30.59375 161.386719 31.492188 C 160.050781 32.386719 158.394531 32.835938 156.414062 32.835938 C 153.925781 32.835938 151.882812 31.996094 150.285156 30.316406 C 148.6875 28.636719 147.886719 26.378906 147.886719 23.539062 " fill-opacity="1" fill-rule="evenodd"/></g><path fill="#bc92ff" d="M 93.960938 55.210938 C 93.960938 54.230469 94.257812 53.4375 94.859375 52.832031 C 95.457031 52.230469 96.253906 51.929688 97.246094 51.929688 C 98.238281 51.929688 99.03125 52.230469 99.625 52.828125 C 100.222656 53.429688 100.519531 54.222656 100.519531 55.210938 C 100.519531 56.199219 100.222656 56.992188 99.621094 57.589844 C 99.023438 58.1875 98.230469 58.488281 97.246094 58.488281 C 96.253906 58.488281 95.457031 58.1875 94.859375 57.589844 C 94.257812 56.992188 93.960938 56.199219 93.960938 55.210938 " fill-opacity="1" fill-rule="evenodd"/><g clip-path="url(#ea309e7369)"><path fill="#8a8491" d="M 163.367188 58.0625 C 162.605469 56.789062 161.609375 55.828125 160.398438 55.203125 C 159.273438 54.621094 158.011719 54.140625 156.660156 53.777344 C 155.347656 53.425781 154.015625 53.101562 152.707031 52.8125 C 151.441406 52.535156 150.269531 52.195312 149.222656 51.8125 C 148.261719 51.457031 147.503906 50.929688 146.902344 50.203125 C 146.332031 49.511719 146.054688 48.621094 146.054688 47.488281 C 146.054688 45.710938 146.601562 44.40625 147.722656 43.5 C 148.878906 42.5625 150.4375 42.089844 152.347656 42.089844 C 154.253906 42.089844 155.757812 42.539062 156.816406 43.417969 C 157.875 44.296875 158.4375 45.277344 158.546875 46.414062 L 158.613281 47.121094 L 164.015625 47.121094 L 163.871094 46.21875 C 163.460938 43.636719 162.273438 41.539062 160.339844 39.984375 C 158.421875 38.4375 155.789062 37.65625 152.515625 37.65625 C 149.226562 37.65625 146.527344 38.558594 144.496094 40.339844 C 142.429688 42.148438 141.386719 44.472656 141.386719 47.25 C 141.386719 50 142.101562 52.148438 143.511719 53.632812 C 144.882812 55.074219 146.558594 56.058594 148.496094 56.558594 C 150.300781 57.023438 152.132812 57.4375 153.941406 57.789062 C 155.621094 58.117188 157.070312 58.710938 158.25 59.550781 C 159.316406 60.3125 159.835938 61.4375 159.835938 62.988281 C 159.835938 64.570312 159.242188 65.859375 158.023438 66.929688 C 156.789062 68.007812 155.078125 68.554688 152.945312 68.554688 C 150.804688 68.554688 149.199219 68.109375 148.167969 67.234375 C 147.144531 66.359375 146.59375 65.285156 146.480469 63.953125 L 146.421875 63.238281 L 141.386719 63.238281 L 141.386719 64.019531 C 141.386719 66.761719 142.523438 68.976562 144.769531 70.59375 C 146.933594 72.152344 149.765625 72.941406 153.183594 72.941406 C 156.648438 72.941406 159.433594 71.914062 161.457031 69.886719 C 163.476562 67.859375 164.503906 65.449219 164.503906 62.722656 C 164.503906 60.898438 164.121094 59.328125 163.367188 58.0625 " fill-opacity="1" fill-rule="evenodd"/></g><g clip-path="url(#4cc97ded5b)"><path fill="#8a8491" d="M 20.230469 53.25 L 5.445312 53.25 L 5.445312 38.28125 L 0.496094 38.28125 L 0.496094 72.632812 L 5.445312 72.632812 L 5.445312 57.472656 L 20.230469 57.472656 L 20.230469 72.632812 L 25.175781 72.632812 L 25.175781 38.28125 L 20.230469 38.28125 Z M 20.230469 53.25 " fill-opacity="1" fill-rule="evenodd"/></g><path fill="#8a8491" d="M 29.484375 72.632812 L 48.488281 72.632812 L 48.488281 68.410156 L 34.414062 68.410156 L 34.414062 57.472656 L 47.046875 57.472656 L 47.046875 53.25 L 34.414062 53.25 L 34.414062 42.550781 L 48.488281 42.550781 L 48.488281 38.277344 L 29.484375 38.277344 Z M 29.484375 72.632812 " fill-opacity="1" fill-rule="evenodd"/><path fill="#8a8491" d="M 119.582031 72.632812 L 138.585938 72.632812 L 138.585938 68.410156 L 124.507812 68.410156 L 124.507812 57.472656 L 137.144531 57.472656 L 137.144531 53.25 L 124.507812 53.25 L 124.507812 42.550781 L 138.585938 42.550781 L 138.585938 38.277344 L 119.582031 38.277344 Z M 119.582031 72.632812 " fill-opacity="1" fill-rule="evenodd"/><path fill="#8a8491" d="M 70.640625 48.785156 C 70.640625 52.910156 68.34375 54.832031 63.414062 54.832031 L 57.347656 54.832031 L 57.347656 42.738281 L 63.414062 42.738281 C 68.34375 42.738281 70.640625 44.660156 70.640625 48.785156 Z M 67.0625 58.726562 C 69.621094 58.207031 71.625 57.152344 73.03125 55.578125 C 74.660156 53.761719 75.484375 51.367188 75.484375 48.464844 C 75.484375 45.53125 74.433594 43.070312 72.355469 41.148438 C 70.296875 39.246094 67.28125 38.277344 63.386719 38.277344 L 52.488281 38.277344 L 52.488281 72.941406 L 57.40625 72.941406 L 57.40625 59.078125 L 61.378906 59.078125 L 70.347656 72.941406 L 76.601562 72.941406 Z M 67.0625 58.726562 " fill-opacity="1" fill-rule="evenodd"/><path fill="#440d91" d="M 90.011719 67.238281 C 94.632812 64.886719 99.515625 61.945312 104.152344 58.675781 C 105.191406 57.941406 106.183594 57.210938 107.148438 56.476562 C 106.671875 56.09375 106.566406 55.546875 106.859375 55.046875 C 106.792969 54.925781 110.226562 51.082031 110.214844 50.949219 C 110.007812 50.773438 103.171875 56.796875 101.414062 58.035156 C 96.988281 61.152344 92.472656 63.589844 88.09375 65.832031 C 88.808594 66 89.246094 66.363281 89.386719 66.785156 C 89.65625 66.90625 89.867188 67.058594 90.011719 67.238281 Z M 90.011719 67.238281 " fill-opacity="1" fill-rule="evenodd"/><path fill="#9235ff" d="M 103.28125 67.050781 C 99.097656 64.988281 94.664062 62.34375 90.429688 59.363281 C 89.480469 58.695312 88.578125 58.023438 87.691406 57.351562 C 88.101562 56.9375 88.171875 56.390625 87.894531 55.90625 C 87.945312 55.78125 87.976562 55.648438 87.980469 55.515625 C 88.15625 55.328125 88.269531 55.117188 88.308594 54.894531 C 89.648438 55.964844 91.105469 57.066406 92.707031 58.195312 C 96.746094 61.039062 100.960938 63.5625 104.925781 65.535156 C 104.296875 65.746094 103.925781 66.136719 103.816406 66.566406 C 103.582031 66.703125 103.402344 66.867188 103.28125 67.050781 Z M 103.28125 67.050781 " fill-opacity="1" fill-rule="evenodd"/><g clip-path="url(#cb0494daf5)"><path stroke-linecap="butt" transform="matrix(0.143237, 0, 0, 0.143237, 0.49699, 8.200301)" fill="none" stroke-linejoin="miter" d="M 675.067352 225.007894 C 698.657022 225.007894 717.365129 233.434724 730.128095 249.061175 C 744.14554 266.24209 750.990635 291.277138 750.990635 321.439189 L 750.990635 347.783259 C 750.990635 377.672598 744.200083 402.38039 730.23718 419.261321 C 717.446943 434.751416 698.62975 442.987347 674.930996 442.987347 C 651.341326 442.987347 632.551405 434.724145 619.761168 419.23405 C 605.825537 402.325847 599.007713 377.672598 599.007713 347.783259 L 599.007713 321.439189 C 599.007713 291.195324 605.880079 266.214819 619.870253 249.088446 C 632.687761 233.407452 651.477683 225.007894 675.067352 225.007894 Z M 675.067352 225.007894 " stroke="#8a8491" stroke-width="30" stroke-opacity="1" stroke-miterlimit="4"/></g><path fill="#440d91" d="M 77.183594 69.183594 C 78.984375 70.464844 82.40625 70.226562 87.105469 68.496094 C 86.707031 68.027344 86.347656 67.5 85.933594 66.820312 C 83.328125 67.78125 81.492188 68.132812 80.339844 68.132812 C 79.707031 68.132812 79.277344 68.023438 79.042969 67.859375 C 78.339844 67.359375 78.410156 65.628906 80.910156 62.402344 C 83.34375 59.257812 87.367188 55.613281 92.238281 52.144531 C 102.996094 44.476562 112.488281 41.453125 114.292969 42.738281 C 115.480469 43.585938 114.035156 46.816406 109.835938 51.113281 C 109.929688 51.695312 110.089844 53.171875 110.097656 54.035156 C 111.949219 52.328125 113.519531 50.660156 114.726562 49.101562 C 117.570312 45.433594 118.0625 42.773438 116.152344 41.414062 C 115.390625 40.871094 114.335938 40.601562 113.019531 40.601562 C 111.039062 40.601562 108.457031 41.214844 105.363281 42.429688 C 100.742188 44.246094 95.421875 47.226562 90.378906 50.816406 C 85.339844 54.410156 81.15625 58.203125 78.605469 61.496094 C 75.765625 65.164062 75.273438 67.824219 77.183594 69.183594 " fill-opacity="1" fill-rule="evenodd"/><path fill="#9235ff" d="M 108.390625 67.070312 C 110.625 67.84375 112.234375 68.132812 113.28125 68.132812 C 113.914062 68.132812 114.34375 68.023438 114.578125 67.859375 C 115.28125 67.359375 115.210938 65.628906 112.710938 62.402344 C 110.277344 59.257812 106.253906 55.613281 101.382812 52.144531 C 90.625 44.476562 81.132812 41.453125 79.328125 42.738281 C 78.140625 43.585938 79.585938 46.816406 83.785156 51.113281 C 83.925781 51.339844 84.285156 51.574219 84.261719 51.761719 C 84.191406 52.320312 84.179688 53.921875 84.148438 54.558594 C 84.140625 54.730469 83.785156 54.238281 83.523438 54.035156 C 81.671875 52.328125 80.101562 50.660156 78.894531 49.101562 C 76.050781 45.433594 75.558594 42.773438 77.46875 41.414062 C 78.230469 40.871094 79.285156 40.601562 80.601562 40.601562 C 82.582031 40.601562 85.164062 41.214844 88.257812 42.429688 C 92.878906 44.246094 98.199219 47.226562 103.242188 50.816406 C 108.28125 54.410156 112.464844 58.203125 115.015625 61.496094 C 117.855469 65.164062 118.347656 67.824219 116.4375 69.183594 C 114.75 70.382812 111.644531 70.25 107.390625 68.804688 C 107.757812 68.253906 107.960938 67.859375 108.390625 67.070312 Z M 108.390625 67.070312 " fill-opacity="1" fill-rule="evenodd"/></svg>