<?xml version="1.0" encoding="UTF-8"?>
<svg xmlns="http://www.w3.org/2000/svg" xmlns:xlink="http://www.w3.org/1999/xlink" width="165pt" height="82.499998pt" viewBox="0 0 165 82.499998" version="1.2">
<defs>
<clipPath id="clip1">
  <path d="M 0.496094 0 L 164.503906 0 L 164.503906 82.003906 L 0.496094 82.003906 Z M 0.496094 0 "/>
</clipPath>
</defs>
<g id="surface1">
<g clip-path="url(#clip1)" clip-rule="nonzero">
<path style=" stroke:none;fill-rule:nonzero;fill:rgb(100%,100%,100%);fill-opacity:1;" d="M 0.496094 0 L 164.503906 0 L 164.503906 171.460938 L 0.496094 171.460938 Z M 0.496094 0 "/>
<path style=" stroke:none;fill-rule:nonzero;fill:rgb(100%,100%,100%);fill-opacity:1;" d="M 0.496094 0 L 164.503906 0 L 164.503906 82.003906 L 0.496094 82.003906 Z M 0.496094 0 "/>
<path style=" stroke:none;fill-rule:nonzero;fill:rgb(100%,100%,100%);fill-opacity:1;" d="M 0.496094 0 L 164.503906 0 L 164.503906 82.003906 L 0.496094 82.003906 Z M 0.496094 0 "/>
</g>
<path style=" stroke:none;fill-rule:nonzero;fill:rgb(56.079102%,0%,10.978699%);fill-opacity:1;" d="M 49.46875 8.070312 L 114.855469 8.070312 L 114.855469 73.453125 L 49.46875 73.453125 Z M 49.46875 8.070312 "/>
<path style=" stroke:none;fill-rule:nonzero;fill:rgb(100%,69.799805%,0%);fill-opacity:1;" d="M 75.332031 63.84375 L 79.332031 61.421875 C 80.097656 62.785156 80.800781 63.949219 82.480469 63.949219 C 84.09375 63.949219 85.113281 63.3125 85.113281 60.863281 L 85.113281 44.175781 L 90.023438 44.175781 L 90.023438 60.929688 C 90.023438 66.011719 87.046875 68.328125 82.691406 68.328125 C 78.773438 68.328125 76.496094 66.292969 75.332031 63.84375 "/>
<path style=" stroke:none;fill-rule:nonzero;fill:rgb(100%,69.799805%,0%);fill-opacity:1;" d="M 92.699219 63.3125 L 96.695312 60.996094 C 97.742188 62.71875 99.117188 63.976562 101.539062 63.976562 C 103.578125 63.976562 104.875 62.957031 104.875 61.554688 C 104.875 59.871094 103.539062 59.277344 101.300781 58.296875 L 100.070312 57.769531 C 96.523438 56.257812 94.179688 54.367188 94.179688 50.371094 C 94.179688 46.691406 96.988281 43.882812 101.367188 43.882812 C 104.492188 43.882812 106.730469 44.96875 108.34375 47.816406 L 104.519531 50.265625 C 103.671875 48.753906 102.769531 48.160156 101.367188 48.160156 C 99.925781 48.160156 99.027344 49.074219 99.027344 50.265625 C 99.027344 51.734375 99.9375 52.328125 102.042969 53.242188 L 103.273438 53.769531 C 107.445312 55.558594 109.800781 57.382812 109.800781 61.488281 C 109.800781 65.90625 106.332031 68.328125 101.660156 68.328125 C 97.078125 68.328125 94.128906 66.160156 92.699219 63.3125 "/>
<path style=" stroke:none;fill-rule:nonzero;fill:rgb(100%,69.799805%,0%);fill-opacity:1;" d="M 91.175781 33.058594 L 93.96875 33.058594 L 93.96875 40.203125 L 91.175781 40.203125 Z M 91.175781 33.058594 "/>
<path style=" stroke:none;fill-rule:nonzero;fill:rgb(100%,69.799805%,0%);fill-opacity:1;" d="M 85.511719 33.058594 L 88.304688 33.058594 L 88.304688 40.203125 L 85.511719 40.203125 Z M 85.511719 33.058594 "/>
<path style=" stroke:none;fill-rule:nonzero;fill:rgb(100%,69.799805%,0%);fill-opacity:1;" d="M 79.859375 33.058594 L 82.652344 33.058594 L 82.652344 40.203125 L 79.859375 40.203125 Z M 79.859375 33.058594 "/>
<path style=" stroke:none;fill-rule:nonzero;fill:rgb(100%,69.799805%,0%);fill-opacity:1;" d="M 62.890625 33.058594 L 65.683594 33.058594 L 65.683594 40.203125 L 62.890625 40.203125 Z M 62.890625 33.058594 "/>
<path style=" stroke:none;fill-rule:nonzero;fill:rgb(100%,69.799805%,0%);fill-opacity:1;" d="M 68.542969 33.058594 L 71.335938 33.058594 L 71.335938 40.203125 L 68.542969 40.203125 Z M 68.542969 33.058594 "/>
<path style=" stroke:none;fill-rule:nonzero;fill:rgb(100%,69.799805%,0%);fill-opacity:1;" d="M 57.226562 33.058594 L 60.019531 33.058594 L 60.019531 40.203125 L 57.226562 40.203125 Z M 57.226562 33.058594 "/>
<path style=" stroke:none;fill-rule:nonzero;fill:rgb(100%,69.799805%,0%);fill-opacity:1;" d="M 91.175781 23.542969 L 93.96875 23.542969 L 93.96875 30.6875 L 91.175781 30.6875 Z M 91.175781 23.542969 "/>
<path style=" stroke:none;fill-rule:nonzero;fill:rgb(100%,69.799805%,0%);fill-opacity:1;" d="M 85.511719 23.542969 L 88.304688 23.542969 L 88.304688 30.6875 L 85.511719 30.6875 Z M 85.511719 23.542969 "/>
<path style=" stroke:none;fill-rule:nonzero;fill:rgb(100%,69.799805%,0%);fill-opacity:1;" d="M 74.207031 23.542969 L 77 23.542969 L 77 30.6875 L 74.207031 30.6875 Z M 74.207031 23.542969 "/>
<path style=" stroke:none;fill-rule:nonzero;fill:rgb(100%,69.799805%,0%);fill-opacity:1;" d="M 79.859375 23.542969 L 82.652344 23.542969 L 82.652344 30.6875 L 79.859375 30.6875 Z M 79.859375 23.542969 "/>
<path style=" stroke:none;fill-rule:nonzero;fill:rgb(100%,69.799805%,0%);fill-opacity:1;" d="M 62.890625 23.542969 L 65.683594 23.542969 L 65.683594 30.6875 L 62.890625 30.6875 Z M 62.890625 23.542969 "/>
<path style=" stroke:none;fill-rule:nonzero;fill:rgb(100%,69.799805%,0%);fill-opacity:1;" d="M 78.3125 40.152344 L 65.511719 14.078125 L 62.71875 14.078125 L 75.503906 40.152344 Z M 78.3125 40.152344 "/>
<path style=" stroke:none;fill-rule:nonzero;fill:rgb(100%,69.799805%,0%);fill-opacity:1;" d="M 57.226562 23.542969 L 60.019531 23.542969 L 60.019531 30.6875 L 57.226562 30.6875 Z M 57.226562 23.542969 "/>
<path style=" stroke:none;fill-rule:nonzero;fill:rgb(100%,69.799805%,0%);fill-opacity:1;" d="M 57.226562 14.027344 L 60.019531 14.027344 L 60.019531 21.171875 L 57.226562 21.171875 Z M 57.226562 14.027344 "/>
<path style=" stroke:none;fill-rule:nonzero;fill:rgb(100%,69.799805%,0%);fill-opacity:1;" d="M 91.175781 33.058594 L 93.96875 33.058594 L 93.96875 40.203125 L 91.175781 40.203125 Z M 91.175781 33.058594 "/>
<path style=" stroke:none;fill-rule:nonzero;fill:rgb(100%,69.799805%,0%);fill-opacity:1;" d="M 85.511719 33.058594 L 88.304688 33.058594 L 88.304688 40.203125 L 85.511719 40.203125 Z M 85.511719 33.058594 "/>
<path style=" stroke:none;fill-rule:nonzero;fill:rgb(100%,69.799805%,0%);fill-opacity:1;" d="M 79.859375 33.058594 L 82.652344 33.058594 L 82.652344 40.203125 L 79.859375 40.203125 Z M 79.859375 33.058594 "/>
<path style=" stroke:none;fill-rule:nonzero;fill:rgb(100%,69.799805%,0%);fill-opacity:1;" d="M 62.890625 33.058594 L 65.683594 33.058594 L 65.683594 40.203125 L 62.890625 40.203125 Z M 62.890625 33.058594 "/>
<path style=" stroke:none;fill-rule:nonzero;fill:rgb(100%,69.799805%,0%);fill-opacity:1;" d="M 68.542969 33.058594 L 71.335938 33.058594 L 71.335938 40.203125 L 68.542969 40.203125 Z M 68.542969 33.058594 "/>
<path style=" stroke:none;fill-rule:nonzero;fill:rgb(100%,69.799805%,0%);fill-opacity:1;" d="M 57.226562 33.058594 L 60.019531 33.058594 L 60.019531 40.203125 L 57.226562 40.203125 Z M 57.226562 33.058594 "/>
<path style=" stroke:none;fill-rule:nonzero;fill:rgb(100%,69.799805%,0%);fill-opacity:1;" d="M 91.175781 23.542969 L 93.96875 23.542969 L 93.96875 30.6875 L 91.175781 30.6875 Z M 91.175781 23.542969 "/>
<path style=" stroke:none;fill-rule:nonzero;fill:rgb(100%,69.799805%,0%);fill-opacity:1;" d="M 85.511719 23.542969 L 88.304688 23.542969 L 88.304688 30.6875 L 85.511719 30.6875 Z M 85.511719 23.542969 "/>
<path style=" stroke:none;fill-rule:nonzero;fill:rgb(100%,69.799805%,0%);fill-opacity:1;" d="M 74.207031 23.542969 L 77 23.542969 L 77 30.6875 L 74.207031 30.6875 Z M 74.207031 23.542969 "/>
<path style=" stroke:none;fill-rule:nonzero;fill:rgb(100%,69.799805%,0%);fill-opacity:1;" d="M 79.859375 23.542969 L 82.652344 23.542969 L 82.652344 30.6875 L 79.859375 30.6875 Z M 79.859375 23.542969 "/>
<path style=" stroke:none;fill-rule:nonzero;fill:rgb(100%,69.799805%,0%);fill-opacity:1;" d="M 62.890625 23.542969 L 65.683594 23.542969 L 65.683594 30.6875 L 62.890625 30.6875 Z M 62.890625 23.542969 "/>
<path style=" stroke:none;fill-rule:nonzero;fill:rgb(100%,69.799805%,0%);fill-opacity:1;" d="M 78.3125 40.152344 L 65.511719 14.078125 L 62.71875 14.078125 L 75.503906 40.152344 Z M 78.3125 40.152344 "/>
<path style=" stroke:none;fill-rule:nonzero;fill:rgb(100%,69.799805%,0%);fill-opacity:1;" d="M 57.226562 23.542969 L 60.019531 23.542969 L 60.019531 30.6875 L 57.226562 30.6875 Z M 57.226562 23.542969 "/>
<path style=" stroke:none;fill-rule:nonzero;fill:rgb(100%,69.799805%,0%);fill-opacity:1;" d="M 57.226562 14.027344 L 60.019531 14.027344 L 60.019531 21.171875 L 57.226562 21.171875 Z M 57.226562 14.027344 "/>
</g>
</svg>
