<?xml version="1.0" encoding="UTF-8"?>
<svg xmlns="http://www.w3.org/2000/svg" xmlns:xlink="http://www.w3.org/1999/xlink" width="165pt" height="82.499998pt" viewBox="0 0 165 82.499998" version="1.2">
<defs>
<clipPath id="clip1">
  <path d="M 0.496094 0 L 164.503906 0 L 164.503906 82.003906 L 0.496094 82.003906 Z M 0.496094 0 "/>
</clipPath>
<clipPath id="clip2">
  <path d="M 115 9 L 126.632812 9 L 126.632812 24 L 115 24 Z M 115 9 "/>
</clipPath>
<clipPath id="clip3">
  <path d="M 38.667969 8.199219 L 110 8.199219 L 110 73.800781 L 38.667969 73.800781 Z M 38.667969 8.199219 "/>
</clipPath>
<clipPath id="clip4">
  <path d="M 38.667969 8.199219 L 98 8.199219 L 98 73.800781 L 38.667969 73.800781 Z M 38.667969 8.199219 "/>
</clipPath>
<clipPath id="clip5">
  <path d="M 42.5 73.496094 L 38.667969 42.414062 L 66.324219 9.769531 L 97.816406 8.207031 Z M 42.5 73.496094 "/>
</clipPath>
<radialGradient id="radial0" gradientUnits="userSpaceOnUse" cx="29.366017" cy="32.831" fx="29.366017" fy="32.831" r="31.216571" gradientTransform="matrix(1.003406,0.00916788,-0.00923134,0.996509,38.935385,7.845738)">
<stop offset="0" style="stop-color:rgb(90.493774%,18.725586%,11.759949%);stop-opacity:1;"/>
<stop offset="0.0078125" style="stop-color:rgb(90.232849%,18.54248%,11.659241%);stop-opacity:1;"/>
<stop offset="0.0195312" style="stop-color:rgb(89.920044%,18.321228%,11.540222%);stop-opacity:1;"/>
<stop offset="0.03125" style="stop-color:rgb(89.607239%,18.101501%,11.421204%);stop-opacity:1;"/>
<stop offset="0.0429688" style="stop-color:rgb(89.294434%,17.880249%,11.300659%);stop-opacity:1;"/>
<stop offset="0.0546875" style="stop-color:rgb(88.981628%,17.660522%,11.181641%);stop-opacity:1;"/>
<stop offset="0.0664062" style="stop-color:rgb(88.668823%,17.440796%,11.062622%);stop-opacity:1;"/>
<stop offset="0.078125" style="stop-color:rgb(88.356018%,17.219543%,10.942078%);stop-opacity:1;"/>
<stop offset="0.0898438" style="stop-color:rgb(88.043213%,16.999817%,10.823059%);stop-opacity:1;"/>
<stop offset="0.101562" style="stop-color:rgb(87.730408%,16.78009%,10.704041%);stop-opacity:1;"/>
<stop offset="0.113281" style="stop-color:rgb(87.417603%,16.558838%,10.583496%);stop-opacity:1;"/>
<stop offset="0.125" style="stop-color:rgb(87.104797%,16.339111%,10.464478%);stop-opacity:1;"/>
<stop offset="0.136719" style="stop-color:rgb(86.791992%,16.117859%,10.343933%);stop-opacity:1;"/>
<stop offset="0.148438" style="stop-color:rgb(86.479187%,15.898132%,10.224915%);stop-opacity:1;"/>
<stop offset="0.160156" style="stop-color:rgb(86.166382%,15.678406%,10.105896%);stop-opacity:1;"/>
<stop offset="0.171875" style="stop-color:rgb(85.853577%,15.457153%,9.985352%);stop-opacity:1;"/>
<stop offset="0.183594" style="stop-color:rgb(85.540771%,15.237427%,9.866333%);stop-opacity:1;"/>
<stop offset="0.195312" style="stop-color:rgb(85.227966%,15.016174%,9.747314%);stop-opacity:1;"/>
<stop offset="0.207031" style="stop-color:rgb(84.913635%,14.796448%,9.62677%);stop-opacity:1;"/>
<stop offset="0.21875" style="stop-color:rgb(84.60083%,14.576721%,9.507751%);stop-opacity:1;"/>
<stop offset="0.230469" style="stop-color:rgb(84.288025%,14.355469%,9.388733%);stop-opacity:1;"/>
<stop offset="0.242188" style="stop-color:rgb(83.97522%,14.135742%,9.268188%);stop-opacity:1;"/>
<stop offset="0.253906" style="stop-color:rgb(83.71582%,13.952637%,9.169006%);stop-opacity:1;"/>
<stop offset="0.261719" style="stop-color:rgb(83.506775%,13.804626%,9.089661%);stop-opacity:1;"/>
<stop offset="0.269531" style="stop-color:rgb(83.297729%,13.658142%,9.010315%);stop-opacity:1;"/>
<stop offset="0.277344" style="stop-color:rgb(83.088684%,13.511658%,8.930969%);stop-opacity:1;"/>
<stop offset="0.285156" style="stop-color:rgb(82.881165%,13.365173%,8.850098%);stop-opacity:1;"/>
<stop offset="0.292969" style="stop-color:rgb(82.672119%,13.217163%,8.770752%);stop-opacity:1;"/>
<stop offset="0.300781" style="stop-color:rgb(82.463074%,13.070679%,8.691406%);stop-opacity:1;"/>
<stop offset="0.308594" style="stop-color:rgb(82.255554%,12.924194%,8.612061%);stop-opacity:1;"/>
<stop offset="0.316406" style="stop-color:rgb(82.046509%,12.77771%,8.531189%);stop-opacity:1;"/>
<stop offset="0.324219" style="stop-color:rgb(81.837463%,12.6297%,8.451843%);stop-opacity:1;"/>
<stop offset="0.332031" style="stop-color:rgb(81.628418%,12.483215%,8.372498%);stop-opacity:1;"/>
<stop offset="0.339844" style="stop-color:rgb(81.420898%,12.336731%,8.293152%);stop-opacity:1;"/>
<stop offset="0.347656" style="stop-color:rgb(81.211853%,12.190247%,8.213806%);stop-opacity:1;"/>
<stop offset="0.355469" style="stop-color:rgb(81.002808%,12.042236%,8.132935%);stop-opacity:1;"/>
<stop offset="0.363281" style="stop-color:rgb(80.795288%,11.895752%,8.053589%);stop-opacity:1;"/>
<stop offset="0.371094" style="stop-color:rgb(80.586243%,11.749268%,7.974243%);stop-opacity:1;"/>
<stop offset="0.378906" style="stop-color:rgb(80.377197%,11.602783%,7.894897%);stop-opacity:1;"/>
<stop offset="0.386719" style="stop-color:rgb(80.169678%,11.454773%,7.814026%);stop-opacity:1;"/>
<stop offset="0.394531" style="stop-color:rgb(79.960632%,11.308289%,7.73468%);stop-opacity:1;"/>
<stop offset="0.402344" style="stop-color:rgb(79.751587%,11.161804%,7.655334%);stop-opacity:1;"/>
<stop offset="0.410156" style="stop-color:rgb(79.542542%,11.01532%,7.575989%);stop-opacity:1;"/>
<stop offset="0.417969" style="stop-color:rgb(79.335022%,10.86731%,7.496643%);stop-opacity:1;"/>
<stop offset="0.425781" style="stop-color:rgb(79.125977%,10.720825%,7.415771%);stop-opacity:1;"/>
<stop offset="0.433594" style="stop-color:rgb(78.916931%,10.574341%,7.336426%);stop-opacity:1;"/>
<stop offset="0.441406" style="stop-color:rgb(78.709412%,10.427856%,7.25708%);stop-opacity:1;"/>
<stop offset="0.449219" style="stop-color:rgb(78.500366%,10.279846%,7.177734%);stop-opacity:1;"/>
<stop offset="0.457031" style="stop-color:rgb(78.291321%,10.133362%,7.096863%);stop-opacity:1;"/>
<stop offset="0.464844" style="stop-color:rgb(78.083801%,9.986877%,7.017517%);stop-opacity:1;"/>
<stop offset="0.472656" style="stop-color:rgb(77.874756%,9.840393%,6.938171%);stop-opacity:1;"/>
<stop offset="0.480469" style="stop-color:rgb(77.66571%,9.692383%,6.858826%);stop-opacity:1;"/>
<stop offset="0.488281" style="stop-color:rgb(77.456665%,9.545898%,6.77948%);stop-opacity:1;"/>
<stop offset="0.496094" style="stop-color:rgb(77.249146%,9.399414%,6.698608%);stop-opacity:1;"/>
<stop offset="0.503906" style="stop-color:rgb(76.98822%,9.214783%,6.599426%);stop-opacity:1;"/>
<stop offset="0.515625" style="stop-color:rgb(76.675415%,8.995056%,6.480408%);stop-opacity:1;"/>
<stop offset="0.527344" style="stop-color:rgb(76.36261%,8.77533%,6.359863%);stop-opacity:1;"/>
<stop offset="0.539062" style="stop-color:rgb(76.049805%,8.554077%,6.240845%);stop-opacity:1;"/>
<stop offset="0.550781" style="stop-color:rgb(75.735474%,8.334351%,6.121826%);stop-opacity:1;"/>
<stop offset="0.5625" style="stop-color:rgb(75.422668%,8.113098%,6.001282%);stop-opacity:1;"/>
<stop offset="0.574219" style="stop-color:rgb(75.109863%,7.893372%,5.882263%);stop-opacity:1;"/>
<stop offset="0.585938" style="stop-color:rgb(74.797058%,7.673645%,5.763245%);stop-opacity:1;"/>
<stop offset="0.597656" style="stop-color:rgb(74.484253%,7.452393%,5.6427%);stop-opacity:1;"/>
<stop offset="0.609375" style="stop-color:rgb(74.171448%,7.232666%,5.523682%);stop-opacity:1;"/>
<stop offset="0.621094" style="stop-color:rgb(73.858643%,7.012939%,5.404663%);stop-opacity:1;"/>
<stop offset="0.632812" style="stop-color:rgb(73.597717%,6.828308%,5.303955%);stop-opacity:1;"/>
<stop offset="0.640625" style="stop-color:rgb(73.390198%,6.681824%,5.224609%);stop-opacity:1;"/>
<stop offset="0.648438" style="stop-color:rgb(73.181152%,6.535339%,5.145264%);stop-opacity:1;"/>
<stop offset="0.65625" style="stop-color:rgb(72.972107%,6.388855%,5.065918%);stop-opacity:1;"/>
<stop offset="0.664062" style="stop-color:rgb(72.764587%,6.240845%,4.985046%);stop-opacity:1;"/>
<stop offset="0.671875" style="stop-color:rgb(72.555542%,6.09436%,4.905701%);stop-opacity:1;"/>
<stop offset="0.679688" style="stop-color:rgb(72.346497%,5.947876%,4.826355%);stop-opacity:1;"/>
<stop offset="0.6875" style="stop-color:rgb(72.137451%,5.799866%,4.747009%);stop-opacity:1;"/>
<stop offset="0.695312" style="stop-color:rgb(71.929932%,5.653381%,4.667664%);stop-opacity:1;"/>
<stop offset="0.703125" style="stop-color:rgb(71.720886%,5.506897%,4.586792%);stop-opacity:1;"/>
<stop offset="0.710938" style="stop-color:rgb(71.511841%,5.360413%,4.507446%);stop-opacity:1;"/>
<stop offset="0.71875" style="stop-color:rgb(71.304321%,5.212402%,4.428101%);stop-opacity:1;"/>
<stop offset="0.726562" style="stop-color:rgb(71.095276%,5.065918%,4.348755%);stop-opacity:1;"/>
<stop offset="0.734375" style="stop-color:rgb(70.88623%,4.919434%,4.267883%);stop-opacity:1;"/>
<stop offset="0.742188" style="stop-color:rgb(70.678711%,4.772949%,4.188538%);stop-opacity:1;"/>
<stop offset="0.75" style="stop-color:rgb(70.469666%,4.624939%,4.109192%);stop-opacity:1;"/>
<stop offset="0.757812" style="stop-color:rgb(70.20874%,4.441833%,4.01001%);stop-opacity:1;"/>
<stop offset="0.769531" style="stop-color:rgb(69.895935%,4.222107%,3.889465%);stop-opacity:1;"/>
<stop offset="0.78125" style="stop-color:rgb(69.58313%,4.000854%,3.770447%);stop-opacity:1;"/>
<stop offset="0.792969" style="stop-color:rgb(69.270325%,3.781128%,3.651428%);stop-opacity:1;"/>
<stop offset="0.804688" style="stop-color:rgb(68.95752%,3.561401%,3.530884%);stop-opacity:1;"/>
<stop offset="0.816406" style="stop-color:rgb(68.696594%,3.37677%,3.431702%);stop-opacity:1;"/>
<stop offset="0.824219" style="stop-color:rgb(68.487549%,3.230286%,3.352356%);stop-opacity:1;"/>
<stop offset="0.832031" style="stop-color:rgb(68.278503%,3.083801%,3.27301%);stop-opacity:1;"/>
<stop offset="0.839844" style="stop-color:rgb(68.070984%,2.935791%,3.192139%);stop-opacity:1;"/>
<stop offset="0.847656" style="stop-color:rgb(67.861938%,2.789307%,3.112793%);stop-opacity:1;"/>
<stop offset="0.855469" style="stop-color:rgb(67.652893%,2.642822%,3.033447%);stop-opacity:1;"/>
<stop offset="0.863281" style="stop-color:rgb(67.445374%,2.496338%,2.954102%);stop-opacity:1;"/>
<stop offset="0.871094" style="stop-color:rgb(67.236328%,2.348328%,2.874756%);stop-opacity:1;"/>
<stop offset="0.878906" style="stop-color:rgb(66.975403%,2.165222%,2.774048%);stop-opacity:1;"/>
<stop offset="0.890625" style="stop-color:rgb(66.662598%,1.945496%,2.655029%);stop-opacity:1;"/>
<stop offset="0.902344" style="stop-color:rgb(66.349792%,1.724243%,2.536011%);stop-opacity:1;"/>
<stop offset="0.914062" style="stop-color:rgb(66.088867%,1.541138%,2.435303%);stop-opacity:1;"/>
<stop offset="0.921875" style="stop-color:rgb(65.879822%,1.394653%,2.355957%);stop-opacity:1;"/>
<stop offset="0.929688" style="stop-color:rgb(65.672302%,1.248169%,2.276611%);stop-opacity:1;"/>
<stop offset="0.9375" style="stop-color:rgb(65.463257%,1.100159%,2.197266%);stop-opacity:1;"/>
<stop offset="0.945312" style="stop-color:rgb(65.202332%,0.917053%,2.096558%);stop-opacity:1;"/>
<stop offset="0.957031" style="stop-color:rgb(64.941406%,0.733948%,1.997375%);stop-opacity:1;"/>
<stop offset="0.964844" style="stop-color:rgb(64.732361%,0.585938%,1.91803%);stop-opacity:1;"/>
<stop offset="0.972656" style="stop-color:rgb(64.471436%,0.402832%,1.818848%);stop-opacity:1;"/>
<stop offset="0.984375" style="stop-color:rgb(64.212036%,0.219727%,1.71814%);stop-opacity:1;"/>
<stop offset="0.992188" style="stop-color:rgb(64.002991%,0.0732422%,1.638794%);stop-opacity:1;"/>
<stop offset="1" style="stop-color:rgb(63.899231%,0%,1.599121%);stop-opacity:1;"/>
</radialGradient>
<clipPath id="clip6">
  <path d="M 66 8.199219 L 110 8.199219 L 110 73.800781 L 66 73.800781 Z M 66 8.199219 "/>
</clipPath>
<clipPath id="clip7">
  <path d="M 38.667969 42 L 110 42 L 110 73.800781 L 38.667969 73.800781 Z M 38.667969 42 "/>
</clipPath>
<clipPath id="clip8">
  <path d="M 44 58 L 61 58 L 61 73.800781 L 44 73.800781 Z M 44 58 "/>
</clipPath>
<clipPath id="clip9">
  <path d="M 63 63 L 73 63 L 73 73.800781 L 63 73.800781 Z M 63 63 "/>
</clipPath>
<clipPath id="clip10">
  <path d="M 75 58 L 81 58 L 81 73.800781 L 75 73.800781 Z M 75 58 "/>
</clipPath>
<clipPath id="clip11">
  <path d="M 87 63 L 98 63 L 98 73.800781 L 87 73.800781 Z M 87 63 "/>
</clipPath>
<clipPath id="clip12">
  <path d="M 82 63 L 85 63 L 85 73.800781 L 82 73.800781 Z M 82 63 "/>
</clipPath>
<clipPath id="clip13">
  <path d="M 99 63 L 109 63 L 109 73.800781 L 99 73.800781 Z M 99 63 "/>
</clipPath>
</defs>
<g id="surface1">
<g clip-path="url(#clip1)" clip-rule="nonzero">
<path style=" stroke:none;fill-rule:nonzero;fill:rgb(100%,100%,100%);fill-opacity:1;" d="M 0.496094 0 L 164.503906 0 L 164.503906 260.917969 L 0.496094 260.917969 Z M 0.496094 0 "/>
<path style=" stroke:none;fill-rule:nonzero;fill:rgb(100%,100%,100%);fill-opacity:1;" d="M 0.496094 0 L 164.503906 0 L 164.503906 82.003906 L 0.496094 82.003906 Z M 0.496094 0 "/>
<path style=" stroke:none;fill-rule:nonzero;fill:rgb(100%,100%,100%);fill-opacity:1;" d="M 0.496094 0 L 164.503906 0 L 164.503906 82.003906 L 0.496094 82.003906 Z M 0.496094 0 "/>
</g>
<path style=" stroke:none;fill-rule:nonzero;fill:rgb(90.19928%,0%,1.568604%);fill-opacity:1;" d="M 105.921875 9.9375 C 107.15625 9.878906 108.453125 9.84375 109.765625 9.84375 C 112.792969 9.84375 114.144531 11.148438 114.144531 13.113281 C 114.144531 14.53125 113.519531 15.535156 112.242188 16.121094 L 112.242188 16.160156 C 113.632812 16.515625 114.585938 17.558594 114.585938 19.242188 C 114.585938 21.867188 112.605469 23.210938 109.636719 23.210938 C 108.019531 23.210938 106.777344 23.171875 105.921875 23.117188 Z M 108.261719 12.074219 L 108.261719 15.417969 L 109.84375 15.417969 C 111.003906 15.417969 111.820312 14.8125 111.820312 13.660156 C 111.820312 12.601562 111.023438 12.015625 109.726562 12.015625 C 109.179688 12.015625 108.683594 12.035156 108.261719 12.074219 Z M 108.261719 17.445312 L 108.261719 20.941406 C 108.796875 21 109.308594 21.035156 109.804688 21.035156 C 111.425781 21.035156 112.242188 20.390625 112.242188 19.125 C 112.242188 18.011719 111.386719 17.445312 109.921875 17.445312 Z M 108.261719 17.445312 "/>
<g clip-path="url(#clip2)" clip-rule="nonzero">
<path style=" stroke:none;fill-rule:nonzero;fill:rgb(90.19928%,0%,1.568604%);fill-opacity:1;" d="M 126.9375 9.898438 L 122.199219 17.613281 L 122.199219 23.136719 L 119.855469 23.136719 L 119.855469 17.613281 L 115.152344 9.898438 L 117.820312 9.898438 L 121.132812 15.441406 L 124.40625 9.898438 Z M 126.9375 9.898438 "/>
</g>
<path style=" stroke:none;fill-rule:nonzero;fill:rgb(90.19928%,0%,1.568604%);fill-opacity:1;" d="M 105.941406 33.65625 C 107.050781 32.574219 109.003906 30.746094 109.003906 29.304688 C 109.042969 28.738281 108.609375 28.246094 108.039062 28.207031 C 107.992188 28.207031 107.945312 28.207031 107.894531 28.207031 C 107.265625 28.203125 106.738281 28.671875 106.667969 29.292969 L 106.007812 29.023438 C 106.15625 28.082031 106.996094 27.398438 107.957031 27.4375 C 108.898438 27.371094 109.722656 28.074219 109.789062 29.015625 C 109.792969 29.058594 109.792969 29.105469 109.792969 29.152344 C 109.792969 31.046875 107.476562 33.085938 106.933594 33.5625 L 110.078125 33.5625 L 110.078125 34.285156 L 105.921875 34.285156 Z M 105.941406 33.65625 "/>
<path style=" stroke:none;fill-rule:nonzero;fill:rgb(90.19928%,0%,1.568604%);fill-opacity:1;" d="M 113.15625 27.4375 C 114.691406 27.4375 115.367188 28.867188 115.367188 30.898438 C 115.367188 32.929688 114.714844 34.382812 113.171875 34.382812 C 111.632812 34.382812 110.941406 32.957031 110.941406 30.917969 C 110.941406 28.878906 111.613281 27.4375 113.15625 27.4375 Z M 113.15625 33.640625 C 114.148438 33.640625 114.523438 32.652344 114.523438 30.898438 C 114.523438 29.144531 114.128906 28.167969 113.136719 28.167969 C 112.144531 28.167969 111.746094 29.171875 111.746094 30.898438 C 111.746094 32.628906 112.210938 33.640625 113.171875 33.640625 Z M 113.15625 33.640625 "/>
<path style=" stroke:none;fill-rule:nonzero;fill:rgb(90.19928%,0%,1.568604%);fill-opacity:1;" d="M 116.183594 33.65625 C 117.292969 32.574219 119.246094 30.746094 119.246094 29.304688 C 119.285156 28.738281 118.855469 28.246094 118.285156 28.207031 C 118.234375 28.207031 118.1875 28.207031 118.136719 28.207031 C 117.507812 28.203125 116.980469 28.671875 116.910156 29.292969 L 116.25 29.023438 C 116.394531 28.082031 117.230469 27.398438 118.191406 27.4375 C 119.136719 27.351562 119.972656 28.042969 120.054688 28.980469 C 120.058594 29.039062 120.0625 29.097656 120.0625 29.152344 C 120.0625 31.046875 117.742188 33.085938 117.199219 33.5625 L 120.324219 33.5625 L 120.324219 34.285156 L 116.167969 34.285156 Z M 116.183594 33.65625 "/>
<path style=" stroke:none;fill-rule:nonzero;fill:rgb(90.19928%,0%,1.568604%);fill-opacity:1;" d="M 123.390625 27.4375 C 124.929688 27.4375 125.605469 28.867188 125.605469 30.898438 C 125.605469 32.929688 124.953125 34.382812 123.390625 34.382812 C 121.828125 34.382812 121.167969 32.957031 121.167969 30.917969 C 121.167969 28.878906 121.859375 27.4375 123.390625 27.4375 Z M 123.390625 33.640625 C 124.390625 33.640625 124.757812 32.652344 124.757812 30.898438 C 124.757812 29.144531 124.367188 28.167969 123.375 28.167969 C 122.378906 28.167969 121.992188 29.171875 121.992188 30.898438 C 121.992188 32.628906 122.453125 33.640625 123.390625 33.640625 Z M 123.390625 33.640625 "/>
<g clip-path="url(#clip3)" clip-rule="nonzero">
<path style=" stroke:none;fill-rule:nonzero;fill:rgb(71.759033%,3.919983%,6.669617%);fill-opacity:1;" d="M 42.5 73.496094 L 38.667969 42.414062 L 66.324219 9.769531 L 97.816406 8.207031 L 109.429688 73.671875 Z M 42.5 73.496094 "/>
</g>
<g clip-path="url(#clip4)" clip-rule="nonzero">
<g clip-path="url(#clip5)" clip-rule="nonzero">
<path style=" stroke:none;fill-rule:nonzero;fill:url(#radial0);" d="M 38.671875 7.664062 L 38.0625 73.488281 L 97.8125 74.035156 L 98.421875 8.210938 Z M 38.671875 7.664062 "/>
</g>
</g>
<g clip-path="url(#clip6)" clip-rule="nonzero">
<path style=" stroke:none;fill-rule:nonzero;fill:rgb(89.408875%,0%,1.959229%);fill-opacity:0.6;" d="M 66.324219 9.988281 L 97.8125 8.421875 L 109.429688 73.671875 Z M 66.324219 9.988281 "/>
</g>
<g clip-path="url(#clip7)" clip-rule="nonzero">
<path style=" stroke:none;fill-rule:nonzero;fill:rgb(89.408875%,0%,1.959229%);fill-opacity:0.6;" d="M 42.5 73.503906 L 38.667969 42.425781 L 109.429688 73.671875 Z M 42.5 73.503906 "/>
</g>
<path style=" stroke:none;fill-rule:nonzero;fill:rgb(100%,100%,100%);fill-opacity:1;" d="M 59.488281 32.875 C 61.332031 32.222656 62.519531 30.449219 62.429688 28.515625 C 62.429688 25.871094 61.066406 23.800781 56.878906 23.800781 L 54.253906 23.832031 L 54.25 23.832031 L 52.199219 26.25 L 52.199219 39.109375 L 54.898438 39.109375 L 54.898438 33.394531 L 56.785156 33.394531 L 61.023438 39.109375 L 64.292969 39.109375 Z M 56.65625 30.894531 L 54.898438 30.894531 L 54.898438 26.359375 C 55.625 26.359375 56.234375 26.316406 56.746094 26.316406 C 58.941406 26.316406 59.605469 27.339844 59.605469 28.539062 C 59.597656 30.089844 58.214844 30.894531 56.65625 30.894531 Z M 56.65625 30.894531 "/>
<g clip-path="url(#clip8)" clip-rule="nonzero">
<path style=" stroke:none;fill-rule:nonzero;fill:rgb(100%,100%,100%);fill-opacity:1;" d="M 52.800781 58.273438 C 52.644531 58.265625 52.484375 58.265625 52.332031 58.265625 C 48.070312 58.382812 44.699219 61.902344 44.8125 66.140625 C 44.8125 69.96875 47.015625 72.707031 50.234375 73.644531 L 55.277344 73.664062 C 58.640625 72.707031 60.921875 69.621094 60.824219 66.144531 C 60.820312 61.390625 57.371094 58.273438 52.800781 58.273438 Z M 52.800781 71.511719 C 52.75 71.511719 52.695312 71.503906 52.640625 71.503906 C 49.777344 71.390625 47.550781 68.996094 47.667969 66.148438 C 47.667969 65.855469 47.683594 65.566406 47.722656 65.289062 C 47.769531 64.917969 47.859375 64.5625 47.96875 64.226562 C 48.402344 62.902344 49.292969 61.882812 50.472656 61.304688 C 50.863281 61.109375 51.289062 60.96875 51.730469 60.882812 C 52.074219 60.820312 52.429688 60.785156 52.796875 60.785156 C 55.695312 60.785156 57.960938 62.992188 57.960938 66.152344 C 57.964844 69.160156 56.023438 71.511719 52.800781 71.511719 Z M 52.800781 71.511719 "/>
</g>
<g clip-path="url(#clip9)" clip-rule="nonzero">
<path style=" stroke:none;fill-rule:nonzero;fill:rgb(100%,100%,100%);fill-opacity:1;" d="M 72.621094 68.019531 L 72.621094 73.703125 L 70.097656 73.699219 L 70.097656 68.457031 C 70.097656 66.890625 69.285156 66.148438 67.882812 66.148438 C 67.070312 66.148438 66.285156 66.492188 65.730469 67.085938 L 65.730469 73.683594 L 63.203125 73.660156 L 63.203125 63.964844 L 65.722656 63.964844 L 65.722656 64.945312 C 66.476562 64.191406 67.5 63.773438 68.5625 63.78125 C 70.972656 63.789062 72.621094 64.945312 72.621094 68.019531 Z M 72.621094 68.019531 "/>
</g>
<g clip-path="url(#clip10)" clip-rule="nonzero">
<path style=" stroke:none;fill-rule:nonzero;fill:rgb(100%,100%,100%);fill-opacity:1;" d="M 80.128906 73.171875 C 79.832031 73.410156 79.496094 73.59375 79.128906 73.726562 L 76.324219 73.714844 C 75.574219 73.316406 75.1875 72.449219 75.1875 71.066406 L 75.1875 58.519531 L 77.714844 58.519531 L 77.714844 70.054688 C 77.714844 71.164062 77.976562 71.648438 78.566406 71.648438 C 78.949219 71.632812 79.3125 71.488281 79.601562 71.253906 Z M 80.128906 73.171875 "/>
</g>
<g clip-path="url(#clip11)" clip-rule="nonzero">
<path style=" stroke:none;fill-rule:nonzero;fill:rgb(100%,100%,100%);fill-opacity:1;" d="M 87.863281 73.730469 L 87.863281 63.925781 L 90.332031 63.925781 L 90.332031 64.90625 C 91.097656 64.164062 92.125 63.761719 93.1875 63.785156 C 95.605469 63.785156 97.25 64.941406 97.25 68.015625 L 97.25 73.769531 L 94.703125 73.757812 L 94.703125 68.460938 C 94.726562 66.890625 93.917969 66.148438 92.511719 66.148438 C 91.683594 66.144531 90.894531 66.488281 90.332031 67.089844 L 90.332031 73.753906 "/>
</g>
<g clip-path="url(#clip12)" clip-rule="nonzero">
<path style=" stroke:none;fill-rule:nonzero;fill:rgb(100%,100%,100%);fill-opacity:1;" d="M 82.128906 73.730469 L 82.128906 63.925781 L 84.652344 63.925781 L 84.652344 73.730469 "/>
</g>
<path style=" stroke:none;fill-rule:nonzero;fill:rgb(100%,100%,100%);fill-opacity:1;" d="M 84.890625 60.417969 L 84.890625 60.4375 C 84.953125 61.242188 84.335938 61.949219 83.523438 62.003906 C 83.496094 62.011719 83.46875 62.011719 83.441406 62.011719 C 82.609375 62.046875 81.898438 61.410156 81.863281 60.578125 L 81.863281 60.4375 C 81.871094 59.621094 82.535156 58.964844 83.355469 58.972656 C 83.382812 58.972656 83.410156 58.972656 83.441406 58.980469 C 84.246094 58.976562 84.890625 59.621094 84.890625 60.417969 Z M 84.890625 60.417969 "/>
<path style=" stroke:none;fill-rule:nonzero;fill:rgb(100%,100%,100%);fill-opacity:1;" d="M 74.855469 29.300781 L 74.855469 39.101562 L 72.328125 39.101562 L 72.328125 37.875 C 71.554688 38.808594 70.386719 39.339844 69.164062 39.316406 C 67.234375 39.316406 65.699219 38.089844 65.699219 35.261719 L 65.699219 29.300781 L 68.222656 29.300781 L 68.222656 34.769531 C 68.222656 36.082031 68.726562 37.019531 70.109375 37.019531 C 71.003906 36.976562 71.824219 36.523438 72.328125 35.792969 L 72.328125 29.300781 Z M 74.855469 29.300781 "/>
<path style=" stroke:none;fill-rule:nonzero;fill:rgb(100%,100%,100%);fill-opacity:1;" d="M 82.800781 29.058594 C 81.863281 29.050781 80.945312 29.347656 80.183594 29.910156 L 80.183594 23.84375 L 77.660156 23.84375 L 77.660156 38.25 C 78.945312 38.957031 80.386719 39.332031 81.855469 39.339844 L 81.855469 39.351562 C 85.324219 39.351562 87.496094 37.28125 87.496094 34.050781 C 87.496094 31.15625 85.742188 29.058594 82.800781 29.058594 Z M 84.78125 34.507812 C 84.707031 35.964844 83.460938 37.09375 81.984375 37.019531 C 81.351562 37.035156 80.71875 36.859375 80.183594 36.515625 L 80.183594 32.347656 C 80.695312 31.765625 81.429688 31.425781 82.207031 31.410156 C 83.628906 31.410156 84.777344 32.347656 84.777344 34.222656 C 84.785156 34.316406 84.785156 34.414062 84.78125 34.507812 Z M 84.78125 34.507812 "/>
<path style=" stroke:none;fill-rule:nonzero;fill:rgb(100%,100%,100%);fill-opacity:1;" d="M 98.820312 29.3125 L 94.933594 39.113281 C 93.488281 42.617188 92.5625 43.46875 91.113281 43.46875 C 90.34375 43.457031 89.589844 43.1875 88.988281 42.710938 L 89.800781 40.808594 C 90.109375 41.011719 90.46875 41.132812 90.832031 41.160156 C 91.445312 41.160156 91.929688 40.65625 92.34375 39.632812 L 92.566406 39.113281 L 88 29.3125 L 91.03125 29.3125 L 93.339844 34.679688 C 93.535156 35.15625 93.664062 35.617188 93.820312 36.09375 C 93.898438 35.601562 94.015625 35.117188 94.171875 34.652344 L 95.945312 29.3125 Z M 98.820312 29.3125 "/>
<path style=" stroke:none;fill-rule:nonzero;fill:rgb(100%,100%,100%);fill-opacity:1;" d="M 73.183594 55 C 72.238281 56.023438 70.289062 56.722656 68.292969 56.722656 C 63.589844 56.722656 60.363281 53.601562 60.363281 48.847656 C 60.363281 44.46875 63.152344 40.980469 68.222656 40.980469 C 69.917969 40.914062 71.585938 41.464844 72.898438 42.523438 L 71.664062 44.511719 C 70.644531 43.8125 69.4375 43.449219 68.195312 43.488281 C 65.347656 43.488281 63.195312 45.53125 63.195312 48.847656 C 63.195312 52.035156 65.367188 54.214844 68.507812 54.214844 C 69.828125 54.214844 71.113281 53.785156 72.152344 52.988281 Z M 73.183594 55 "/>
<path style=" stroke:none;fill-rule:nonzero;fill:rgb(100%,100%,100%);fill-opacity:1;" d="M 79.285156 46.429688 C 76.015625 46.429688 73.910156 48.628906 73.910156 51.574219 C 73.910156 54.523438 76.011719 56.722656 79.285156 56.722656 C 82.558594 56.722656 84.664062 54.515625 84.664062 51.574219 C 84.664062 48.636719 82.550781 46.429688 79.285156 46.429688 Z M 79.285156 54.386719 C 79.230469 54.386719 79.171875 54.386719 79.109375 54.382812 C 77.640625 54.296875 76.519531 53.035156 76.605469 51.574219 C 76.605469 51.503906 76.597656 51.433594 76.597656 51.367188 C 76.625 49.921875 77.828125 48.761719 79.28125 48.789062 C 80.835938 48.789062 82.101562 50.039062 82.101562 51.585938 C 82.105469 53.132812 80.84375 54.386719 79.285156 54.386719 Z M 79.285156 54.386719 "/>
<path style=" stroke:none;fill-rule:nonzero;fill:rgb(100%,100%,100%);fill-opacity:1;" d="M 96.28125 50.730469 L 96.28125 56.496094 L 93.75 56.496094 L 93.75 51.164062 C 93.75 49.589844 92.941406 48.851562 91.539062 48.851562 C 90.722656 48.851562 89.941406 49.191406 89.382812 49.789062 L 89.382812 56.484375 L 86.859375 56.484375 L 86.859375 46.679688 L 89.382812 46.679688 L 89.382812 47.660156 C 90.136719 46.914062 91.152344 46.496094 92.214844 46.503906 C 94.632812 46.503906 96.28125 47.660156 96.28125 50.730469 Z M 96.28125 50.730469 "/>
<path style=" stroke:none;fill-rule:nonzero;fill:rgb(100%,100%,100%);fill-opacity:1;" d="M 101.503906 46.6875 L 104.183594 46.6875 L 104.183594 49.039062 L 101.503906 49.039062 L 101.503906 56.484375 L 98.96875 56.484375 L 98.96875 45.082031 C 98.96875 42.359375 100.289062 40.984375 102.488281 40.984375 C 102.929688 40.980469 103.363281 41.035156 103.789062 41.148438 L 104.238281 43.699219 C 103.863281 43.453125 103.410156 43.324219 102.957031 43.347656 C 102.097656 43.347656 101.503906 43.960938 101.503906 45.292969 Z M 101.503906 46.6875 "/>
<g clip-path="url(#clip13)" clip-rule="nonzero">
<path style=" stroke:none;fill-rule:nonzero;fill:rgb(100%,100%,100%);fill-opacity:1;" d="M 104.78125 71.929688 C 103.21875 71.929688 102.035156 71.121094 101.8125 69.636719 L 108.839844 69.636719 L 108.082031 65.359375 C 107.167969 64.3125 105.828125 63.71875 104.429688 63.753906 C 104.273438 63.742188 104.113281 63.742188 103.953125 63.75 C 101.21875 63.871094 99.097656 66.160156 99.203125 68.875 C 99.085938 71.148438 100.585938 73.1875 102.800781 73.769531 L 106.28125 73.796875 C 107.023438 73.609375 107.707031 73.273438 108.292969 72.796875 L 107.570312 71.035156 C 106.765625 71.628906 105.785156 71.941406 104.78125 71.929688 Z M 104.3125 65.820312 C 104.402344 65.808594 104.503906 65.808594 104.59375 65.816406 C 105.734375 65.863281 106.625 66.820312 106.574219 67.957031 L 101.726562 67.957031 C 101.894531 66.683594 103.023438 65.746094 104.3125 65.820312 Z M 104.3125 65.820312 "/>
</g>
</g>
</svg>
