<svg xmlns="http://www.w3.org/2000/svg" xmlns:xlink="http://www.w3.org/1999/xlink" width="220" zoomAndPan="magnify" viewBox="0 0 165 82.499998" height="110" preserveAspectRatio="xMidYMid meet" version="1.0"><defs><clipPath id="id1"><path d="M 0.496094 0 L 164.503906 0 L 164.503906 82.003906 L 0.496094 82.003906 Z M 0.496094 0 " clip-rule="nonzero"/></clipPath><clipPath id="id2"><path d="M 148 18 L 164.503906 18 L 164.503906 48 L 148 48 Z M 148 18 " clip-rule="nonzero"/></clipPath><clipPath id="id3"><path d="M 156 55 L 164.503906 55 L 164.503906 65 L 156 65 Z M 156 55 " clip-rule="nonzero"/></clipPath><clipPath id="id4"><path d="M 1.585938 16.777344 L 50 16.777344 L 50 65 L 1.585938 65 Z M 1.585938 16.777344 " clip-rule="nonzero"/></clipPath><clipPath id="id5"><path d="M 1.585938 56.273438 L 1.585938 25.273438 C 1.585938 24.144531 1.800781 23.0625 2.226562 22.023438 C 2.65625 20.980469 3.265625 20.0625 4.058594 19.265625 C 4.851562 18.46875 5.761719 17.855469 6.796875 17.425781 C 7.832031 16.996094 8.90625 16.777344 10.027344 16.777344 L 40.84375 16.777344 C 41.960938 16.777344 43.039062 16.996094 44.074219 17.425781 C 45.109375 17.855469 46.019531 18.46875 46.8125 19.265625 C 47.605469 20.0625 48.214844 20.980469 48.644531 22.023438 C 49.070312 23.0625 49.285156 24.144531 49.285156 25.273438 L 49.285156 56.273438 C 49.285156 57.398438 49.070312 58.480469 48.644531 59.523438 C 48.214844 60.5625 47.605469 61.480469 46.8125 62.277344 C 46.019531 63.074219 45.109375 63.6875 44.074219 64.117188 C 43.039062 64.550781 41.960938 64.765625 40.84375 64.765625 L 10.027344 64.765625 C 8.90625 64.765625 7.832031 64.550781 6.796875 64.117188 C 5.761719 63.6875 4.851562 63.074219 4.058594 62.277344 C 3.265625 61.480469 2.65625 60.5625 2.226562 59.523438 C 1.800781 58.480469 1.585938 57.398438 1.585938 56.273438 Z M 1.585938 56.273438 " clip-rule="nonzero"/></clipPath><clipPath id="id6"><path d="M 1.585938 16.777344 L 43 16.777344 L 43 65 L 1.585938 65 Z M 1.585938 16.777344 " clip-rule="nonzero"/></clipPath><clipPath id="id7"><path d="M 1.585938 56.273438 L 1.585938 25.273438 C 1.585938 24.144531 1.800781 23.0625 2.226562 22.023438 C 2.65625 20.980469 3.265625 20.0625 4.058594 19.265625 C 4.851562 18.46875 5.761719 17.855469 6.796875 17.425781 C 7.832031 16.996094 8.90625 16.777344 10.027344 16.777344 L 40.84375 16.777344 C 41.960938 16.777344 43.039062 16.996094 44.074219 17.425781 C 45.109375 17.855469 46.019531 18.46875 46.8125 19.265625 C 47.605469 20.0625 48.214844 20.980469 48.644531 22.023438 C 49.070312 23.0625 49.285156 24.144531 49.285156 25.273438 L 49.285156 56.273438 C 49.285156 57.398438 49.070312 58.480469 48.644531 59.523438 C 48.214844 60.5625 47.605469 61.480469 46.8125 62.277344 C 46.019531 63.074219 45.109375 63.6875 44.074219 64.117188 C 43.039062 64.550781 41.960938 64.765625 40.84375 64.765625 L 10.027344 64.765625 C 8.90625 64.765625 7.832031 64.550781 6.796875 64.117188 C 5.761719 63.6875 4.851562 63.074219 4.058594 62.277344 C 3.265625 61.480469 2.65625 60.5625 2.226562 59.523438 C 1.800781 58.480469 1.585938 57.398438 1.585938 56.273438 Z M 1.585938 56.273438 " clip-rule="nonzero"/></clipPath><clipPath id="id8"><path d="M 7 16.777344 L 50 16.777344 L 50 65 L 7 65 Z M 7 16.777344 " clip-rule="nonzero"/></clipPath><clipPath id="id9"><path d="M 1.585938 56.273438 L 1.585938 25.273438 C 1.585938 24.144531 1.800781 23.0625 2.226562 22.023438 C 2.65625 20.980469 3.265625 20.0625 4.058594 19.265625 C 4.851562 18.46875 5.761719 17.855469 6.796875 17.425781 C 7.832031 16.996094 8.90625 16.777344 10.027344 16.777344 L 40.84375 16.777344 C 41.960938 16.777344 43.039062 16.996094 44.074219 17.425781 C 45.109375 17.855469 46.019531 18.46875 46.8125 19.265625 C 47.605469 20.0625 48.214844 20.980469 48.644531 22.023438 C 49.070312 23.0625 49.285156 24.144531 49.285156 25.273438 L 49.285156 56.273438 C 49.285156 57.398438 49.070312 58.480469 48.644531 59.523438 C 48.214844 60.5625 47.605469 61.480469 46.8125 62.277344 C 46.019531 63.074219 45.109375 63.6875 44.074219 64.117188 C 43.039062 64.550781 41.960938 64.765625 40.84375 64.765625 L 10.027344 64.765625 C 8.90625 64.765625 7.832031 64.550781 6.796875 64.117188 C 5.761719 63.6875 4.851562 63.074219 4.058594 62.277344 C 3.265625 61.480469 2.65625 60.5625 2.226562 59.523438 C 1.800781 58.480469 1.585938 57.398438 1.585938 56.273438 Z M 1.585938 56.273438 " clip-rule="nonzero"/></clipPath><clipPath id="id10"><path d="M 18 22 L 43 22 L 43 38 L 18 38 Z M 18 22 " clip-rule="nonzero"/></clipPath><clipPath id="id11"><path d="M 1.585938 56.273438 L 1.585938 25.273438 C 1.585938 24.144531 1.800781 23.0625 2.226562 22.023438 C 2.65625 20.980469 3.265625 20.0625 4.058594 19.265625 C 4.851562 18.46875 5.761719 17.855469 6.796875 17.425781 C 7.832031 16.996094 8.90625 16.777344 10.027344 16.777344 L 40.84375 16.777344 C 41.960938 16.777344 43.039062 16.996094 44.074219 17.425781 C 45.109375 17.855469 46.019531 18.46875 46.8125 19.265625 C 47.605469 20.0625 48.214844 20.980469 48.644531 22.023438 C 49.070312 23.0625 49.285156 24.144531 49.285156 25.273438 L 49.285156 56.273438 C 49.285156 57.398438 49.070312 58.480469 48.644531 59.523438 C 48.214844 60.5625 47.605469 61.480469 46.8125 62.277344 C 46.019531 63.074219 45.109375 63.6875 44.074219 64.117188 C 43.039062 64.550781 41.960938 64.765625 40.84375 64.765625 L 10.027344 64.765625 C 8.90625 64.765625 7.832031 64.550781 6.796875 64.117188 C 5.761719 63.6875 4.851562 63.074219 4.058594 62.277344 C 3.265625 61.480469 2.65625 60.5625 2.226562 59.523438 C 1.800781 58.480469 1.585938 57.398438 1.585938 56.273438 Z M 1.585938 56.273438 " clip-rule="nonzero"/></clipPath><clipPath id="id12"><path d="M 1.585938 28 L 34 28 L 34 65 L 1.585938 65 Z M 1.585938 28 " clip-rule="nonzero"/></clipPath><clipPath id="id13"><path d="M 1.585938 56.273438 L 1.585938 25.273438 C 1.585938 24.144531 1.800781 23.0625 2.226562 22.023438 C 2.65625 20.980469 3.265625 20.0625 4.058594 19.265625 C 4.851562 18.46875 5.761719 17.855469 6.796875 17.425781 C 7.832031 16.996094 8.90625 16.777344 10.027344 16.777344 L 40.84375 16.777344 C 41.960938 16.777344 43.039062 16.996094 44.074219 17.425781 C 45.109375 17.855469 46.019531 18.46875 46.8125 19.265625 C 47.605469 20.0625 48.214844 20.980469 48.644531 22.023438 C 49.070312 23.0625 49.285156 24.144531 49.285156 25.273438 L 49.285156 56.273438 C 49.285156 57.398438 49.070312 58.480469 48.644531 59.523438 C 48.214844 60.5625 47.605469 61.480469 46.8125 62.277344 C 46.019531 63.074219 45.109375 63.6875 44.074219 64.117188 C 43.039062 64.550781 41.960938 64.765625 40.84375 64.765625 L 10.027344 64.765625 C 8.90625 64.765625 7.832031 64.550781 6.796875 64.117188 C 5.761719 63.6875 4.851562 63.074219 4.058594 62.277344 C 3.265625 61.480469 2.65625 60.5625 2.226562 59.523438 C 1.800781 58.480469 1.585938 57.398438 1.585938 56.273438 Z M 1.585938 56.273438 " clip-rule="nonzero"/></clipPath><clipPath id="id14"><path d="M 0.496094 15.804688 L 56 15.804688 L 56 66.496094 L 0.496094 66.496094 Z M 0.496094 15.804688 " clip-rule="nonzero"/></clipPath></defs><g clip-path="url(#id1)"><path fill="rgb(100%, 100%, 100%)" d="M 0.496094 0 L 164.503906 0 L 164.503906 89.457031 L 0.496094 89.457031 Z M 0.496094 0 " fill-opacity="1" fill-rule="nonzero"/><path fill="rgb(100%, 100%, 100%)" d="M 0.496094 0 L 164.503906 0 L 164.503906 82.003906 L 0.496094 82.003906 Z M 0.496094 0 " fill-opacity="1" fill-rule="nonzero"/><path fill="rgb(100%, 100%, 100%)" d="M 0.496094 0 L 164.503906 0 L 164.503906 82.003906 L 0.496094 82.003906 Z M 0.496094 0 " fill-opacity="1" fill-rule="nonzero"/><path fill="rgb(100%, 100%, 100%)" d="M 0.496094 0 L 164.503906 0 L 164.503906 82.003906 L 0.496094 82.003906 Z M 0.496094 0 " fill-opacity="1" fill-rule="nonzero"/></g><path fill="rgb(0%, 0%, 0%)" d="M 64.511719 42.011719 C 64.511719 41.386719 64.546875 40.8125 64.613281 40.292969 C 64.691406 39.757812 64.804688 39.1875 64.953125 38.574219 L 68.351562 38.574219 L 68.351562 39.984375 C 68.351562 40.769531 68.394531 41.460938 68.484375 42.0625 C 68.585938 42.664062 68.746094 43.171875 68.960938 43.59375 C 69.183594 44 69.476562 44.3125 69.839844 44.527344 C 70.210938 44.730469 70.660156 44.835938 71.191406 44.835938 C 72.027344 44.835938 72.664062 44.605469 73.101562 44.152344 C 73.542969 43.6875 73.761719 43.015625 73.761719 42.128906 C 73.761719 41.675781 73.726562 41.261719 73.660156 40.886719 C 73.605469 40.503906 73.496094 40.121094 73.339844 39.746094 C 73.191406 39.375 72.988281 38.980469 72.730469 38.574219 C 72.472656 38.15625 72.136719 37.691406 71.730469 37.179688 L 67.167969 31.71875 C 66.355469 30.675781 65.730469 29.625 65.289062 28.570312 C 64.851562 27.507812 64.628906 26.371094 64.628906 25.167969 C 64.628906 24.207031 64.777344 23.320312 65.070312 22.515625 C 65.375 21.710938 65.808594 21.019531 66.371094 20.441406 C 66.9375 19.851562 67.628906 19.398438 68.453125 19.078125 C 69.285156 18.75 70.226562 18.585938 71.277344 18.585938 C 72.550781 18.585938 73.609375 18.769531 74.453125 19.132812 C 75.3125 19.492188 75.992188 19.96875 76.5 20.558594 C 77.007812 21.148438 77.363281 21.8125 77.566406 22.550781 C 77.78125 23.277344 77.886719 24.007812 77.886719 24.746094 C 77.886719 25.367188 77.835938 25.945312 77.734375 26.480469 C 77.644531 27 77.539062 27.578125 77.414062 28.214844 L 74.03125 28.214844 L 74.03125 26.835938 C 74.03125 25.292969 73.8125 24.113281 73.371094 23.296875 C 72.933594 22.472656 72.21875 22.058594 71.226562 22.058594 C 70.402344 22.058594 69.789062 22.289062 69.382812 22.753906 C 68.976562 23.207031 68.773438 23.820312 68.773438 24.589844 C 68.773438 25 68.800781 25.367188 68.859375 25.695312 C 68.925781 26.027344 69.015625 26.332031 69.128906 26.617188 C 69.253906 26.886719 69.398438 27.15625 69.566406 27.414062 C 69.738281 27.675781 69.929688 27.949219 70.144531 28.230469 L 75.234375 34.421875 C 76.15625 35.636719 76.867188 36.804688 77.363281 37.929688 C 77.859375 39.039062 78.105469 40.21875 78.105469 41.464844 C 78.105469 42.496094 77.945312 43.429688 77.617188 44.253906 C 77.300781 45.082031 76.84375 45.785156 76.246094 46.363281 C 75.648438 46.945312 74.929688 47.390625 74.082031 47.707031 C 73.238281 48.015625 72.285156 48.167969 71.226562 48.167969 C 69.917969 48.167969 68.828125 47.992188 67.960938 47.640625 C 67.105469 47.289062 66.417969 46.824219 65.898438 46.246094 C 65.390625 45.667969 65.03125 45.011719 64.816406 44.273438 C 64.613281 43.535156 64.511719 42.78125 64.511719 42.011719 Z M 64.511719 42.011719 " fill-opacity="1" fill-rule="nonzero"/><path fill="rgb(0%, 0%, 0%)" d="M 82.140625 18.84375 L 86.519531 18.84375 L 86.519531 31.003906 L 91.710938 31.003906 L 91.710938 18.84375 L 96.089844 18.84375 L 96.089844 47.894531 L 91.710938 47.894531 L 91.710938 34.476562 L 86.519531 34.476562 L 86.519531 47.894531 L 82.140625 47.894531 Z M 82.140625 18.84375 " fill-opacity="1" fill-rule="nonzero"/><path fill="rgb(0%, 0%, 0%)" d="M 101.425781 18.84375 L 112.128906 18.84375 L 112.128906 22.3125 L 105.804688 22.3125 L 105.804688 31.003906 L 110.691406 31.003906 L 110.691406 34.476562 L 105.804688 34.476562 L 105.804688 44.425781 L 112.296875 44.425781 L 112.296875 47.894531 L 101.425781 47.894531 Z M 101.425781 18.84375 " fill-opacity="1" fill-rule="nonzero"/><path fill="rgb(0%, 0%, 0%)" d="M 115.804688 18.84375 L 120.554688 18.84375 C 121.097656 18.84375 121.6875 18.863281 122.332031 18.910156 C 122.984375 18.957031 123.632812 19.070312 124.277344 19.25 C 124.929688 19.421875 125.554688 19.679688 126.152344 20.03125 C 126.761719 20.382812 127.296875 20.867188 127.757812 21.480469 C 128.234375 22.089844 128.609375 22.863281 128.894531 23.792969 C 129.171875 24.710938 129.316406 25.828125 129.316406 27.144531 L 129.316406 27.875 C 129.316406 30.085938 129 31.890625 128.367188 33.285156 C 127.738281 34.667969 126.808594 35.664062 125.578125 36.277344 L 130.210938 47.894531 L 125.578125 47.894531 L 121.738281 37.027344 L 120.097656 37.027344 L 120.097656 47.894531 L 115.804688 47.894531 Z M 120.757812 33.84375 C 121.527344 33.84375 122.171875 33.761719 122.703125 33.589844 C 123.234375 33.421875 123.660156 33.136719 123.988281 32.738281 C 124.316406 32.332031 124.550781 31.796875 124.699219 31.140625 C 124.84375 30.472656 124.917969 29.648438 124.917969 28.675781 L 124.917969 26.378906 C 124.917969 25.628906 124.851562 24.984375 124.714844 24.4375 C 124.582031 23.894531 124.351562 23.445312 124.023438 23.09375 C 123.707031 22.742188 123.285156 22.480469 122.753906 22.3125 C 122.226562 22.140625 121.558594 22.058594 120.757812 22.058594 L 120.097656 22.058594 L 120.097656 33.84375 Z M 120.757812 33.84375 " fill-opacity="1" fill-rule="nonzero"/><path fill="rgb(0%, 0%, 0%)" d="M 133.871094 18.84375 L 138.25 18.84375 C 138.804688 18.84375 139.40625 18.871094 140.058594 18.925781 C 140.726562 18.972656 141.382812 19.089844 142.039062 19.285156 C 142.703125 19.464844 143.339844 19.75 143.949219 20.132812 C 144.570312 20.519531 145.117188 21.046875 145.589844 21.714844 C 146.0625 22.375 146.441406 23.203125 146.722656 24.199219 C 147.015625 25.199219 147.160156 26.410156 147.160156 27.839844 L 147.160156 28.859375 C 147.160156 30.414062 147.027344 31.746094 146.757812 32.859375 C 146.496094 33.957031 146.148438 34.886719 145.707031 35.648438 C 145.269531 36.398438 144.753906 36.996094 144.167969 37.453125 C 143.59375 37.90625 142.992188 38.25 142.359375 38.488281 C 141.738281 38.714844 141.109375 38.867188 140.464844 38.949219 C 139.835938 39.015625 139.238281 39.050781 138.675781 39.050781 L 138.25 39.050781 L 138.25 47.894531 L 133.871094 47.894531 Z M 138.46875 35.820312 C 139.261719 35.820312 139.925781 35.703125 140.464844 35.476562 C 141.007812 35.238281 141.4375 34.878906 141.75 34.390625 C 142.078125 33.890625 142.308594 33.253906 142.445312 32.484375 C 142.589844 31.703125 142.664062 30.765625 142.664062 29.675781 L 142.664062 27.058594 C 142.664062 26.195312 142.601562 25.453125 142.480469 24.828125 C 142.355469 24.195312 142.128906 23.671875 141.800781 23.265625 C 141.484375 22.855469 141.058594 22.554688 140.515625 22.363281 C 139.976562 22.160156 139.292969 22.058594 138.46875 22.058594 L 138.25 22.058594 L 138.25 35.820312 Z M 138.46875 35.820312 " fill-opacity="1" fill-rule="nonzero"/><g clip-path="url(#id2)"><path fill="rgb(0%, 0%, 0%)" d="M 154 18.84375 L 159.039062 18.84375 L 164.382812 47.894531 L 159.953125 47.894531 L 159.160156 42.691406 L 153.882812 42.691406 L 153.121094 47.894531 L 148.675781 47.894531 Z M 158.652344 39.375 L 156.621094 24.898438 L 156.4375 24.898438 L 154.390625 39.375 Z M 158.652344 39.375 " fill-opacity="1" fill-rule="nonzero"/></g><path fill="rgb(0%, 0%, 0%)" d="M 71.601562 62.105469 C 71.324219 62.882812 70.863281 63.492188 70.226562 63.9375 C 69.585938 64.371094 68.847656 64.589844 68.011719 64.589844 C 67.175781 64.589844 66.445312 64.398438 65.824219 64.019531 C 65.203125 63.632812 64.722656 63.085938 64.378906 62.382812 C 64.046875 61.671875 63.878906 60.832031 63.878906 59.871094 C 63.878906 58.917969 64.046875 58.085938 64.378906 57.375 C 64.722656 56.660156 65.203125 56.117188 65.824219 55.734375 C 66.445312 55.347656 67.164062 55.152344 67.984375 55.152344 C 68.839844 55.152344 69.554688 55.332031 70.128906 55.695312 C 70.714844 56.054688 71.152344 56.585938 71.441406 57.289062 L 70.375 57.804688 C 70.175781 57.265625 69.886719 56.863281 69.507812 56.597656 C 69.132812 56.328125 68.648438 56.195312 68.066406 56.195312 C 67.453125 56.195312 66.917969 56.34375 66.457031 56.636719 C 66 56.925781 65.644531 57.347656 65.390625 57.902344 C 65.140625 58.457031 65.015625 59.113281 65.015625 59.871094 C 65.015625 61.019531 65.28125 61.921875 65.8125 62.578125 C 66.351562 63.222656 67.085938 63.546875 68.011719 63.546875 C 68.613281 63.546875 69.136719 63.390625 69.578125 63.078125 C 70.019531 62.761719 70.332031 62.300781 70.523438 61.6875 Z M 71.601562 62.105469 " fill-opacity="1" fill-rule="nonzero"/><path fill="rgb(0%, 0%, 0%)" d="M 79.695312 55.152344 C 80.535156 55.152344 81.261719 55.347656 81.882812 55.734375 C 82.503906 56.117188 82.980469 56.660156 83.3125 57.375 C 83.65625 58.078125 83.828125 58.910156 83.828125 59.871094 C 83.828125 60.832031 83.65625 61.671875 83.3125 62.382812 C 82.980469 63.085938 82.503906 63.632812 81.882812 64.019531 C 81.261719 64.398438 80.535156 64.589844 79.695312 64.589844 C 78.859375 64.589844 78.128906 64.398438 77.507812 64.019531 C 76.886719 63.632812 76.40625 63.085938 76.066406 62.382812 C 75.730469 61.671875 75.566406 60.832031 75.566406 59.871094 C 75.566406 58.910156 75.730469 58.078125 76.066406 57.375 C 76.40625 56.660156 76.886719 56.117188 77.507812 55.734375 C 78.128906 55.347656 78.859375 55.152344 79.695312 55.152344 Z M 79.695312 56.195312 C 78.769531 56.195312 78.035156 56.523438 77.496094 57.179688 C 76.964844 57.828125 76.699219 58.722656 76.699219 59.871094 C 76.699219 61.019531 76.964844 61.921875 77.496094 62.578125 C 78.035156 63.222656 78.769531 63.546875 79.695312 63.546875 C 80.625 63.546875 81.351562 63.222656 81.882812 62.578125 C 82.421875 61.921875 82.691406 61.019531 82.691406 59.871094 C 82.691406 58.722656 82.421875 57.828125 81.882812 57.179688 C 81.351562 56.523438 80.625 56.195312 79.695312 56.195312 Z M 79.695312 56.195312 " fill-opacity="1" fill-rule="nonzero"/><path fill="rgb(0%, 0%, 0%)" d="M 97.246094 64.449219 L 96.222656 64.449219 L 96.222656 58.691406 L 96.34375 56.277344 L 96.328125 56.277344 L 93.398438 64.449219 L 92.480469 64.449219 L 89.550781 56.277344 L 89.539062 56.277344 L 89.660156 58.691406 L 89.660156 64.449219 L 88.632812 64.449219 L 88.632812 55.292969 L 90.292969 55.292969 L 92.253906 60.855469 L 92.925781 63.144531 L 92.953125 63.144531 L 93.644531 60.871094 L 95.585938 55.292969 L 97.246094 55.292969 Z M 97.246094 64.449219 " fill-opacity="1" fill-rule="nonzero"/><path fill="rgb(0%, 0%, 0%)" d="M 111.199219 64.449219 L 110.171875 64.449219 L 110.171875 58.691406 L 110.296875 56.277344 L 110.28125 56.277344 L 107.351562 64.449219 L 106.433594 64.449219 L 103.503906 56.277344 L 103.492188 56.277344 L 103.613281 58.691406 L 103.613281 64.449219 L 102.585938 64.449219 L 102.585938 55.292969 L 104.246094 55.292969 L 106.203125 60.855469 L 106.878906 63.144531 L 106.90625 63.144531 L 107.59375 60.871094 L 109.539062 55.292969 L 111.199219 55.292969 Z M 111.199219 64.449219 " fill-opacity="1" fill-rule="nonzero"/><path fill="rgb(0%, 0%, 0%)" d="M 123.4375 61.035156 C 123.4375 62.210938 123.136719 63.097656 122.535156 63.699219 C 121.941406 64.292969 121.074219 64.589844 119.941406 64.589844 C 118.808594 64.589844 117.9375 64.289062 117.335938 63.6875 C 116.742188 63.085938 116.445312 62.203125 116.445312 61.035156 L 116.445312 55.292969 L 117.523438 55.292969 L 117.523438 60.757812 C 117.523438 61.722656 117.71875 62.429688 118.105469 62.882812 C 118.5 63.324219 119.113281 63.546875 119.941406 63.546875 C 120.769531 63.546875 121.375 63.324219 121.765625 62.882812 C 122.160156 62.429688 122.359375 61.722656 122.359375 60.757812 L 122.359375 55.292969 L 123.4375 55.292969 Z M 123.4375 61.035156 " fill-opacity="1" fill-rule="nonzero"/><path fill="rgb(0%, 0%, 0%)" d="M 135.679688 64.449219 L 134.34375 64.449219 L 130.617188 58.316406 L 129.671875 56.511719 L 129.65625 56.511719 L 129.710938 57.984375 L 129.710938 64.449219 L 128.6875 64.449219 L 128.6875 55.292969 L 130.023438 55.292969 L 133.734375 61.398438 L 134.691406 63.230469 L 134.707031 63.230469 L 134.652344 61.757812 L 134.652344 55.292969 L 135.679688 55.292969 Z M 135.679688 64.449219 " fill-opacity="1" fill-rule="nonzero"/><path fill="rgb(0%, 0%, 0%)" d="M 141.03125 55.292969 L 142.109375 55.292969 L 142.109375 64.449219 L 141.03125 64.449219 Z M 141.03125 55.292969 " fill-opacity="1" fill-rule="nonzero"/><path fill="rgb(0%, 0%, 0%)" d="M 153.71875 56.332031 L 150.613281 56.332031 L 150.613281 64.449219 L 149.535156 64.449219 L 149.535156 56.332031 L 146.429688 56.332031 L 146.429688 55.292969 L 153.71875 55.292969 Z M 153.71875 56.332031 " fill-opacity="1" fill-rule="nonzero"/><g clip-path="url(#id3)"><path fill="rgb(0%, 0%, 0%)" d="M 160.976562 60.871094 L 160.976562 64.449219 L 159.894531 64.449219 L 159.894531 60.871094 L 156.710938 55.292969 L 157.992188 55.292969 L 160.4375 59.730469 L 162.878906 55.292969 L 164.160156 55.292969 Z M 160.976562 60.871094 " fill-opacity="1" fill-rule="nonzero"/></g><g clip-path="url(#id4)"><g clip-path="url(#id5)"><path fill="rgb(100%, 100%, 100%)" d="M 10.027344 16.777344 L 40.84375 16.777344 C 41.398438 16.777344 41.945312 16.832031 42.488281 16.941406 C 43.035156 17.050781 43.5625 17.210938 44.074219 17.425781 C 44.585938 17.640625 45.074219 17.902344 45.535156 18.210938 C 45.996094 18.519531 46.421875 18.871094 46.8125 19.265625 C 47.203125 19.660156 47.554688 20.089844 47.863281 20.554688 C 48.171875 21.015625 48.429688 21.507812 48.644531 22.023438 C 48.855469 22.539062 49.015625 23.066406 49.125 23.613281 C 49.230469 24.160156 49.285156 24.714844 49.285156 25.273438 L 49.285156 56.273438 C 49.285156 56.832031 49.230469 57.382812 49.125 57.929688 C 49.015625 58.476562 48.855469 59.007812 48.644531 59.523438 C 48.429688 60.039062 48.171875 60.527344 47.863281 60.992188 C 47.554688 61.453125 47.203125 61.882812 46.8125 62.277344 C 46.421875 62.671875 45.996094 63.023438 45.535156 63.335938 C 45.074219 63.644531 44.585938 63.90625 44.074219 64.117188 C 43.5625 64.332031 43.035156 64.492188 42.488281 64.601562 C 41.945312 64.710938 41.398438 64.765625 40.84375 64.765625 L 10.027344 64.765625 C 9.472656 64.765625 8.925781 64.710938 8.378906 64.601562 C 7.835938 64.492188 7.308594 64.332031 6.796875 64.117188 C 6.285156 63.90625 5.796875 63.644531 5.335938 63.335938 C 4.875 63.023438 4.449219 62.671875 4.058594 62.277344 C 3.667969 61.882812 3.316406 61.453125 3.007812 60.992188 C 2.699219 60.527344 2.441406 60.039062 2.226562 59.523438 C 2.015625 59.007812 1.855469 58.476562 1.746094 57.929688 C 1.640625 57.382812 1.585938 56.832031 1.585938 56.273438 L 1.585938 25.273438 C 1.585938 24.714844 1.640625 24.160156 1.746094 23.613281 C 1.855469 23.066406 2.015625 22.539062 2.226562 22.023438 C 2.441406 21.507812 2.699219 21.015625 3.007812 20.554688 C 3.316406 20.089844 3.667969 19.660156 4.058594 19.265625 C 4.449219 18.871094 4.875 18.519531 5.335938 18.210938 C 5.796875 17.902344 6.285156 17.640625 6.796875 17.425781 C 7.308594 17.210938 7.835938 17.050781 8.378906 16.941406 C 8.925781 16.832031 9.472656 16.777344 10.027344 16.777344 Z M 10.027344 16.777344 " fill-opacity="1" fill-rule="nonzero"/></g></g><g clip-path="url(#id6)"><g clip-path="url(#id7)"><path stroke-linecap="butt" transform="matrix(-0.953394, 0.174458, -0.173416, -0.959124, 23.796322, 50.068827)" fill="none" stroke-linejoin="miter" d="M 10.819869 18.65248 L 28.830894 18.654089 C 28.954177 18.652077 29.056956 18.695208 29.143198 18.784204 C 29.230158 18.869258 29.276404 18.975415 29.274721 19.097291 L 29.275883 37.111181 C 29.2742 37.233057 29.231043 37.33517 29.145694 37.421464 C 29.059629 37.5117 28.953689 37.553522 28.831124 37.551592 L 10.819381 37.553925 C 10.696816 37.551995 10.590071 37.508142 10.503111 37.423088 C 10.416152 37.338035 10.373872 37.232599 10.375554 37.110723 L 10.374393 19.096833 C 10.376075 18.974957 10.419949 18.868901 10.505298 18.782607 C 10.590647 18.696314 10.696587 18.654492 10.819869 18.65248 Z M 10.819869 18.65248 " stroke="rgb(29.798889%, 72.158813%, 67.449951%)" stroke-width="5.904" stroke-opacity="1" stroke-miterlimit="4"/></g></g><g clip-path="url(#id8)"><g clip-path="url(#id9)"><path stroke-linecap="butt" transform="matrix(-0.351042, 0.908646, -0.903217, -0.353152, 104.445053, 20.523489)" fill="none" stroke-linejoin="miter" d="M 62.861874 39.073578 C 62.862979 39.795393 62.791185 40.506617 62.651686 41.209557 C 62.509912 41.917706 62.302063 42.599638 62.027323 43.264319 C 61.752583 43.929 61.416316 44.557047 61.017707 45.157425 C 60.617639 45.754047 60.162052 46.307373 59.654683 46.815953 C 59.147314 47.324532 58.596445 47.776496 57.998343 48.173296 C 57.397967 48.575305 56.76757 48.911135 56.104879 49.185994 C 55.442188 49.460853 54.758406 49.670388 54.052075 49.810839 C 53.345743 49.951291 52.636995 50.01916 51.914627 50.018801 C 51.197454 50.020748 50.486795 49.950965 49.78265 49.809455 C 49.078504 49.667944 48.392724 49.463072 47.729856 49.184424 C 47.064714 48.910984 46.435797 48.575892 45.837908 48.176842 C 45.24002 47.777793 44.685011 47.323155 44.178077 46.815234 C 43.671143 46.307312 43.215204 45.753622 42.815456 45.156469 C 42.419442 44.557865 42.080265 43.928521 41.805394 43.265534 C 41.530523 42.602547 41.32434 41.917189 41.183108 41.210912 C 41.041876 40.504635 40.972898 39.796225 40.971793 39.07441 C 40.972148 38.356353 41.043943 37.645128 41.183442 36.942188 C 41.32148 36.235491 41.533065 35.552107 41.807805 34.887426 C 42.082545 34.222745 42.418812 33.594698 42.81742 32.99432 C 43.217489 32.397699 43.669341 31.845824 44.17671 31.337244 C 44.687814 30.827213 45.238682 30.375249 45.836784 29.978449 C 46.433426 29.577892 47.063823 29.242062 47.730249 28.965751 C 48.39294 28.690892 49.076721 28.481358 49.783053 28.340906 C 50.48565 28.201906 51.198132 28.132585 51.915305 28.130638 C 52.633939 28.132449 53.348333 28.20078 54.052478 28.342291 C 54.756623 28.483802 55.442404 28.688673 56.103811 28.963565 C 56.770413 29.240762 57.399331 29.575854 57.99722 29.974903 C 58.595108 30.373952 59.146382 30.830042 59.657051 31.336512 C 60.163985 31.844433 60.616189 32.399575 61.015937 32.996728 C 61.415686 33.593881 61.751128 34.224676 62.025999 34.887663 C 62.300869 35.55065 62.510788 36.234556 62.65202 36.940833 C 62.791791 37.643353 62.862229 38.35552 62.861874 39.073578 Z M 62.861874 39.073578 " stroke="rgb(97.24884%, 67.83905%, 80.389404%)" stroke-width="5.904" stroke-opacity="1" stroke-miterlimit="4"/></g></g><g clip-path="url(#id10)"><g clip-path="url(#id11)"><path stroke-linecap="round" transform="matrix(0.969037, 0, 0, 0.974861, 0.616384, 15.804216)" fill="none" stroke-linejoin="round" d="M 21.079266 19.778947 L 30.475678 9.933792 L 40.315506 19.326158 " stroke="rgb(29.798889%, 72.158813%, 67.449951%)" stroke-width="5.904" stroke-opacity="1" stroke-miterlimit="4"/></g></g><g clip-path="url(#id12)"><g clip-path="url(#id13)"><path stroke-linecap="round" transform="matrix(0.969037, 0, 0, 0.974861, 0.616384, 15.804216)" fill="none" stroke-linejoin="round" d="M 30.540175 16.028412 C 31.402823 45.343492 -6.174762 70.234865 -53.390621 71.625288 " stroke="rgb(29.798889%, 72.158813%, 67.449951%)" stroke-width="5.904" stroke-opacity="1" stroke-miterlimit="4"/></g></g><g clip-path="url(#id14)"><path stroke-linecap="butt" transform="matrix(0.969037, 0, 0, 0.974861, 0.616384, 15.804216)" fill="none" stroke-linejoin="miter" d="M 9.711664 0.501357 L 41.512733 0.501357 C 42.117392 0.501357 42.71399 0.557454 43.310587 0.677664 C 43.903154 0.793866 44.479596 0.970174 45.035883 1.202579 C 45.596201 1.430976 46.128302 1.715472 46.628154 2.052059 C 47.132037 2.388645 47.59964 2.769308 48.026933 3.198056 C 48.454226 3.626803 48.837177 4.091613 49.171755 4.592485 C 49.506334 5.097365 49.792539 5.626287 50.02231 6.187264 C 50.256112 6.744235 50.429448 7.32124 50.546348 7.914273 C 50.663249 8.507307 50.723715 9.108354 50.723715 9.713408 L 50.723715 41.512818 C 50.723715 42.117872 50.663249 42.714912 50.546348 43.307946 C 50.429448 43.900979 50.256112 44.477984 50.02231 45.038962 C 49.792539 45.595932 49.506334 46.128861 49.171755 46.629734 C 48.837177 47.134613 48.454226 47.599423 48.026933 48.024163 C 47.59964 48.452911 47.132037 48.833574 46.628154 49.17016 C 46.128302 49.506747 45.596201 49.791243 45.035883 50.023647 C 44.479596 50.256052 43.903154 50.428353 43.310587 50.548562 C 42.71399 50.664765 42.117392 50.724869 41.512733 50.724869 L 9.711664 50.724869 C 9.107004 50.724869 8.506376 50.664765 7.913809 50.548562 C 7.321243 50.428353 6.7448 50.256052 6.188513 50.023647 C 5.628195 49.791243 5.096095 49.506747 4.592212 49.17016 C 4.09236 48.833574 3.624756 48.452911 3.197463 48.024163 C 2.770171 47.599423 2.38722 47.134613 2.052641 46.629734 C 1.718063 46.128861 1.431857 45.595932 1.202087 45.038962 C 0.968285 44.477984 0.794949 43.900979 0.678048 43.307946 C 0.557116 42.714912 0.500681 42.117872 0.500681 41.512818 L 0.500681 9.713408 C 0.500681 9.108354 0.557116 8.507307 0.678048 7.914273 C 0.794949 7.32124 0.968285 6.744235 1.202087 6.187264 C 1.431857 5.626287 1.718063 5.097365 2.052641 4.592485 C 2.38722 4.091613 2.770171 3.626803 3.197463 3.198056 C 3.624756 2.769308 4.09236 2.388645 4.592212 2.052059 C 5.096095 1.715472 5.628195 1.430976 6.188513 1.202579 C 6.7448 0.970174 7.321243 0.793866 7.913809 0.677664 C 8.506376 0.557454 9.107004 0.501357 9.711664 0.501357 Z M 9.711664 0.501357 " stroke="rgb(5.099487%, 39.608765%, 35.688782%)" stroke-width="1" stroke-opacity="0.2" stroke-miterlimit="4"/></g></svg>