<svg xmlns="http://www.w3.org/2000/svg" viewBox="0 0 623.62 255.12"><defs><style>.cls-1{fill:#fff;}.cls-2{fill:#f22323;}</style></defs><g id="BG"><rect class="cls-1" width="623.62" height="255.12"/></g><g id="Logo"><path d="M207.37,97.77q0-17.2,0-34.4c0-5,0-5.11-4.94-5.76-1.74-.23-2-1.06-2-2.52.06-3.19.09-6.37,0-9.56,0-1.85.68-2.56,2.52-2.52,3.52.08,7.05,0,10.57.05,5.6.16,7.9,2.32,8,7.89.14,8,0,15.92.05,23.89,0,1,0,1.91,0,2.87a9.76,9.76,0,0,0,.24,1.27,7.49,7.49,0,0,0,1.43-.93c.53-.58.89-1.33,1.39-1.94C230,69.47,237,67,245.48,68.38c6.67,1.1,11.2,4.89,13.12,11.14a51.89,51.89,0,0,1,2.12,13.11c.33,8.43.08,16.88.11,25.33,0,4.4.06,4.54,4.42,4.86,1.9.14,2.49.79,2.45,2.57-.08,3.19-.06,6.37,0,9.56,0,1.57-.54,2.33-2.21,2.3-4.16-.08-8.34.11-12.48-.14-3.49-.21-5.12-1.79-5.83-5.29a29.12,29.12,0,0,1-.49-5.68c0-9.4,0-18.8-.06-28.2a35.4,35.4,0,0,0-.94-8.48c-1.15-4.42-4-6.24-8.55-6-5.23.29-9,3-11.74,7.27-3,4.59-3.79,9.76-3.83,15.07-.07,9.08,0,18.16,0,27.24,0,4.14,0,4.15-4.12,4.18-1.93,0-3.85,0-5.77,0-4.21,0-4.25,0-4.25-4.1Q207.35,115.46,207.37,97.77Z"/><path class="cls-2" d="M280,89.94q0-21.51,0-43c0-3.86,0-3.91,3.95-3.91q19.69,0,39.4,0c3.82,0,3.83.05,3.87,4,0,2.7-.12,5.42,0,8.12.14,2.36-.83,3-3.08,3-8.48-.1-17-.05-25.46,0-4.31,0-4.32,0-4.33,4.46,0,5.26,0,10.52,0,15.78,0,3.93.06,4,3.89,4,6.24,0,12.49,0,18.73,0,4,0,4,.08,4.07,4,0,2.55.05,5.1,0,7.65-.07,3.28-.11,3.33-3.58,3.35-6.41,0-12.81,0-19.22,0-3.83,0-3.87.06-3.89,4q0,8.37,0,16.74c0,4.25,0,4.27,4.57,4.27,8.81,0,17.62,0,26.43,0,3.59,0,3.62.07,3.67,3.74,0,2.86-.09,5.74,0,8.6.09,2.12-.82,2.73-2.84,2.72-14.42-.06-28.83-.1-43.24,0-2.84,0-3.06-1.28-3.05-3.5C280,119.26,280,104.6,280,89.94Z"/><path d="M56.5,97.64c0,12,0,23.9,0,35.86,0,3.65-.07,3.67-3.67,3.73q-3.62,0-7.21,0c-3.78,0-3.8-.07-3.82-4,0-5.73,0-11.47,0-17.21q0-27,0-54c0-3.94.53-4-3.8-3.93-2.24,0-4.49-.05-6.73,0-3.42.11-3.75.47-3.92,3.91a21.17,21.17,0,0,0,0,2.39c.08,1.53-.4,2.48-2.14,2.31a3.84,3.84,0,0,0-.48,0l-9.53-.31c-.21-3.11-.49-6.22-.6-9.34a72.29,72.29,0,0,1,.07-7.65c.29-4.24,2-5.87,6.34-6.26.79-.07,1.6,0,2.4,0H74.8a25.1,25.1,0,0,1,3.36.11c3.33.46,5.17,1.81,5.41,5.09.4,5.55.29,11.14.24,16.71,0,.57-1.07,1.5-1.75,1.6a26.38,26.38,0,0,1-4.79.08c-1.9-.06-4.22.42-5.56-.49-.93-.63-.58-3.22-.68-4.94-.15-2.41-1.4-3.32-3.77-3.21a54.67,54.67,0,0,1-7.68,0c-2.75-.26-3.13,1-3.12,3.34C56.54,73.42,56.5,85.53,56.5,97.64Z"/><path class="cls-2" d="M459.87,103.41c0-10,0-20.08,0-30.13,0-3.57.06-3.63,3.73-3.63,3,0,6.05.16,9.07.26.24,2.93.47,5.87.73,8.81a15,15,0,0,0,.33,1.59A8.24,8.24,0,0,0,475,79c4.4-7.29,10.79-11.16,19.39-11.07,8.76.09,14.67,4.27,17.18,12.56a41.74,41.74,0,0,1,1.84,11.24c.21,13.87.1,27.74.08,41.6,0,4,0,4-3.88,4q-3.36,0-6.72,0c-3.54-.06-3.6-.08-3.61-3.8,0-12.28.05-24.55-.06-36.82a32.68,32.68,0,0,0-1.1-8c-.87-3.26-3.32-4.85-6.77-5.06-5.87-.36-10.23,2.15-13.31,6.93a24.75,24.75,0,0,0-3.86,13.61c0,9.72,0,19.44-.05,29.16,0,3.92-.06,3.93-3.92,4-2.24,0-4.48,0-6.72,0-3.55-.06-3.6-.08-3.61-3.79C459.85,123.49,459.87,113.45,459.87,103.41Z"/><path d="M142.57,100.41a38,38,0,0,1,6.19-19.16,29.25,29.25,0,0,1,35.88-11c6.43,2.68,9.77,7.38,9.6,14.48-.19,7.9.87,6.5-6.54,6.65h-1.44c-3.91,0-4,0-4.58-3.75a5.55,5.55,0,0,0-4.2-4.69c-5.44-1.73-10.16-.25-14.18,3.47-8.17,7.57-8.62,24.24-1,32.36a16.11,16.11,0,0,0,18.06,4,33.89,33.89,0,0,0,7.67-4.8c3.46-2.74,3.35-2.88,5.24.84.51,1,1,2,1.47,3,2.71,5.41,2.72,5.41-2,9.49-14.75,12.85-36.05,9.07-45.41-8C144.3,117.58,142.57,110.5,142.57,100.41Z"/><path class="cls-2" d="M361.57,137.34c-8.19,0-8.19,0-10.53-7.66L334.33,75c-.32-1.07-.51-2.18-.91-3.21-.56-1.43-.16-2.1,1.38-2.1,3.68,0,7.37.09,11.05,0,2.7-.09,2.52,2.11,2.95,3.59q4.15,14.43,8.07,28.94c1.41,5.21,2.63,10.47,4,15.7a7.74,7.74,0,0,0,.49,1.16c.37-.46.95-.87,1.09-1.39,2.37-8.9,4.66-17.83,7-26.73C371,84.89,372.8,79,374.36,73c.59-2.28,1.5-3.62,4.2-3.37s5.44,0,8.16.07c3.26.07,3.57.43,2.63,3.67-2,6.71-4,13.39-6.06,20.09l-11.58,38.35c-1.68,5.58-1.68,5.58-7.74,5.58Z"/><path class="cls-2" d="M586.69,138.66c-7.27.24-13.3-2.75-18.86-7.09-2.08-1.63-2.85-3.33-1.12-5.62a13.82,13.82,0,0,0,.74-1.23l4.12-7c2.08,1.31,4,3,6.27,3.87a37.25,37.25,0,0,0,9.58,2.53c3.51.36,6.15-1.58,6.89-4,.84-2.79-.07-5.21-3.3-7.23-3-1.85-6.25-3.18-9.27-5a51.15,51.15,0,0,1-8.71-5.76c-6.26-5.66-7.07-13.07-5-20.66s7.55-11.43,15.09-13a28.08,28.08,0,0,1,22.28,4.67c2.09,1.42,2.79,2.87,1.4,5.14a28.84,28.84,0,0,0-1.27,3.08c-.92,2-1.9,4-2.85,6-1.74-1-3.44-2.06-5.24-2.91-3.66-1.72-7.45-3-11.54-1.63-4.84,1.56-5.91,6.21-2,9.57a37.88,37.88,0,0,0,6.07,3.77c3.6,2.06,7.42,3.78,10.81,6.13,8.13,5.61,9.77,13.17,7.41,22.34-2.1,8.2-9.4,13.44-18.07,13.94C588.93,138.71,587.81,138.66,586.69,138.66Z"/><path class="cls-2" d="M544.4,60.81l.65,9c3,.27,5.9.62,8.86.76,3.73.18,3.76.1,3.81,3.61,0,2.55,0,5.1,0,7.64,0,1.65-.73,2.26-2.32,2.24-2.72,0-5.44,0-8.16,0-1.81,0-2.68.75-2.64,2.55.18,8.9.1,17.82.62,26.7.34,5.7,3.29,8.29,9.1,9.37,4.32.81,4.32.81,4.33,5.25v4.78c0,5.05,0,5.05-4.9,5.05-13.58,0-22.42-8.2-22.91-21.68-.33-9.22-.1-18.46-.13-27.7,0-4.11,0-4.31-4.06-4.24-2.76.06-3.69-.88-3.48-3.55a57,57,0,0,0,0-7.16c-.08-2,.52-3.07,2.7-2.82a9.75,9.75,0,0,0,1.43,0c3.5-.14,3.53-.14,3.56-3.83,0-4,.14-8,0-11.93-.11-2.58.57-3.84,3.42-3.59a43.16,43.16,0,0,0,7.19,0c2.68-.22,3.31,1,3.16,3.37-.13,2.06,0,4.14,0,6.21Z"/><path d="M340.69,184.68V166.53c0-.95-.28-2,.1-2.82A3.53,3.53,0,0,1,343,162c.4-.09,1.5,1,1.59,1.69.24,1.72,0,3.49.15,5.23.1,1.21.8,1.74,1.84.72.8-.78,1.44-1.72,2.23-2.5a20.84,20.84,0,0,1,18.88-5.94c5.75.95,9.07,4.43,10.29,9.92a34.54,34.54,0,0,1,.78,7.1c.09,8.43,0,16.87,0,25.3,0,.64.25,1.46-.06,1.87a4.44,4.44,0,0,1-2.22,1.69c-.4.09-1.56-1-1.59-1.67-.16-3.33,0-6.68-.08-10-.1-6.84.09-13.7-.44-20.5-.6-7.84-5.28-11.16-13.12-10-9.46,1.4-16.26,9.18-16.59,19.33-.19,6,0,12.09,0,18.14,0,.95,0,1.91,0,2.86,0,1.33-.47,2.05-2,2s-2-.67-2-2c0-2.87,0-5.73,0-8.6Z"/><path d="M434.76,184.38V166.24a7.8,7.8,0,0,1,.1-2.83,2.56,2.56,0,0,1,1.92-1.39,2.42,2.42,0,0,1,1.76,1.53c.22,2,.07,4.13.12,6.2a3.81,3.81,0,0,0,.4,1.16,4.14,4.14,0,0,0,1.11-.64c.75-.83,1.35-1.79,2.11-2.6a20.59,20.59,0,0,1,18.19-6.62c6.8.79,10.62,4.52,11.73,11.26a27.91,27.91,0,0,1,.39,4.28q.06,13.85.05,27.7c0,1.38.36,3-2,3s-2-1.63-2-3c0-7.64,0-15.28,0-22.92a60.89,60.89,0,0,0-.3-7.15c-.79-6.44-4.49-9.53-11-9.42a19.32,19.32,0,0,0-18.64,18.83c-.25,6.2-.07,12.41-.08,18.62,0,1,0,1.91,0,2.87,0,1.22-.17,2.13-1.76,2.2-1.79.08-2.15-.81-2.14-2.32C434.78,198.07,434.76,191.23,434.76,184.38Z"/><path d="M397.43,172.28c0,7.63,0,15.26,0,22.89,0,4-.24,8.29,5.6,8.77.42,0,1.1,1.52,1,2.2s-1.23,1.27-1.93,1.31a7.54,7.54,0,0,1-7.9-5.61,18.54,18.54,0,0,1-.62-5.15q-.07-24.09,0-48.17c0-1.57-1.24-4.33,2.11-4.16,2.9.16,1.65,2.64,1.67,4.08C397.5,156.38,397.43,164.33,397.43,172.28Z"/><path d="M419,184.41V203a7.1,7.1,0,0,1-.14,2.82,2.91,2.91,0,0,1-2.07,1.28c-.5.07-1.37-.64-1.61-1.2a6.13,6.13,0,0,1-.13-2.36V165.4c0-.64-.21-1.42.08-1.88.42-.66,1.2-1.51,1.84-1.51s1.84.85,1.9,1.42a64.39,64.39,0,0,1,.13,6.67Z"/><path d="M419.3,147.09c.11,2,.33,3.74-2.45,3.68-2.55-.05-2.18-1.66-2.2-3.21,0-1.77-.24-3.6,2.47-3.48C419.43,144.18,419.49,145.66,419.3,147.09Z"/><path d="M130,80.1c-3.39-6.17-8.43-10.26-15.56-11.63-12-2.3-23.4,3.08-29,14.58-6.39,13-6.64,26.51-.11,39.59,8.11,16.25,27.2,21.08,42.51,11.15,6.69-4.34,6.71-4.35,3.09-11.47-.85-1.67-1.93-3.22-2.91-4.83l-4.2,2.9c-12,8.17-25.23,3.06-28.06-10.76-.44-2.15-.21-3.23,2.44-3.14,5.44.18,10.89.05,16.33.05,5.6,0,11.21-.07,16.81,0,2.19,0,3.21-.59,3.33-2.9C135.05,95.42,134,87.44,130,80.1ZM120,93.26c-.07.53-1.27,1.27-2,1.3-3.35.14-6.71.06-10.07.06h0c-3.35,0-6.71,0-10.06,0-1.47,0-1.87-.6-1.65-2.06.79-5.13,5.4-10.17,10.48-11.27C113.54,79.81,120.88,86.37,120,93.26Z"/><path class="cls-2" d="M443.92,80.47c-4.44-8.4-11.59-12.49-21-12.55-11.36-.06-21.13,7-25.52,18.38a44.94,44.94,0,0,0-1.59,28.57c2.67,9.73,7.85,17.88,17.77,21.75,10.82,4.22,21,2.51,30.4-4.23,3.83-2.75,3.82-2.86,1.85-7.39-.44-1-.86-2-1.31-3.07-2.09-4.67-2.08-4.65-6.2-1.92a32.19,32.19,0,0,1-3.76,2.1c-11.51,5.57-22.53.15-25.3-12.29-.54-2.4.08-3.12,2.49-3.07,5.44.12,10.88,0,16.32,0,5.76,0,11.52,0,17.27,0,1.61,0,2.75-.18,2.87-2.22C448.68,96.19,447.92,88,443.92,80.47ZM433.73,93.71c-.15.65-1.54,1.4-2.39,1.44l-1.19,0c-2.78.1-5.57,0-8.36,0-3.34,0-6.68,0-10,0-1.7,0-2.19-.78-2-2.37A13.29,13.29,0,0,1,425,81.2C430,82.09,434.87,88.89,433.73,93.71Z"/><path class="cls-2" d="M606.78,162c0-2.31-.92-3.08-3.12-3.07q-24,.06-48,0c-2.58,0-3.29,1-3.28,3.42.06,15.46,0,30.91,0,46.36,0,3.33.14,3.4,3.65,3.42,7.84,0,15.69,0,23.54,0s16,0,24,0c2.1,0,3.22-.34,3.2-2.84Q606.66,185.64,606.78,162Zm-27.35,44.52c-11.69.07-21.3-9.13-21.45-20.54a21.45,21.45,0,0,1,21.18-21.42,21,21,0,0,1,21,20.92A20.68,20.68,0,0,1,579.43,206.49Z"/><path d="M512.06,161.56A21.06,21.06,0,0,0,492.72,166c-7.52,6.27-10.09,18.27-6.15,28a22.91,22.91,0,0,0,22.89,14.13,24.62,24.62,0,0,0,12.95-4.55c1.22-.85,2.37-1.54,1.1-3.38s-2-.58-3,.06a35.57,35.57,0,0,1-4.62,2.51c-12.27,5-25-2.37-26.69-15.45-.38-3.08-.27-3.3,2.83-3.35,5-.07,9.92,0,14.89,0h15.84c1.3,0,2.64.15,2.74-1.76C525.87,174.45,522.36,164.07,512.06,161.56Zm6.72,19c-1.68-.05-3.35-.07-5-.07-2.8,0-5.6,0-8.4,0-4.48,0-9-.09-13.44,0-2.39.06-2.66-1-2.16-2.93a17.67,17.67,0,0,1,15.5-13c8.3-.73,15,4.78,16,13.09C521.48,179.69,521.05,180.59,518.78,180.52Z"/><path d="M305,160.88a23.46,23.46,0,0,0-24,23.38,23.58,23.58,0,1,0,47.16.26A23.37,23.37,0,0,0,305,160.88Zm-.2,43.53c-10.78.11-19.56-8.73-19.74-19.85a19.56,19.56,0,1,1,39.11-.33A19.75,19.75,0,0,1,304.78,204.41Z"/><path class="cls-2" d="M574,185.06l.47-8c2.38,1.15,4.78,2.24,7.12,3.46s4.73,2.61,7.08,3.94c1.14.64,1.18,1.47.09,2.12-4.24,2.5-8.5,5-12.8,7.35-1,.58-1.81,0-1.81-1.25v-7.6Z"/></g></svg>