<?xml version="1.0" encoding="UTF-8"?>
<svg xmlns="http://www.w3.org/2000/svg" xmlns:xlink="http://www.w3.org/1999/xlink" width="165pt" height="82.499998pt" viewBox="0 0 165 82.499998" version="1.2">
<defs>
<clipPath id="clip1">
  <path d="M 0.496094 0 L 164.503906 0 L 164.503906 82.003906 L 0.496094 82.003906 Z M 0.496094 0 "/>
</clipPath>
</defs>
<g id="surface1">
<g clip-path="url(#clip1)" clip-rule="nonzero">
<path style=" stroke:none;fill-rule:nonzero;fill:rgb(100%,100%,100%);fill-opacity:1;" d="M 0.496094 0 L 164.503906 0 L 164.503906 89.457031 L 0.496094 89.457031 Z M 0.496094 0 "/>
<path style=" stroke:none;fill-rule:nonzero;fill:rgb(100%,100%,100%);fill-opacity:1;" d="M 0.496094 0 L 164.503906 0 L 164.503906 82.003906 L 0.496094 82.003906 Z M 0.496094 0 "/>
<path style=" stroke:none;fill-rule:nonzero;fill:rgb(100%,100%,100%);fill-opacity:1;" d="M 0.496094 0 L 164.503906 0 L 164.503906 82.003906 L 0.496094 82.003906 Z M 0.496094 0 "/>
</g>
<path style=" stroke:none;fill-rule:nonzero;fill:rgb(39.608765%,21.958923%,100%);fill-opacity:1;" d="M 23.351562 23.308594 L 23.351562 10.023438 L 27.992188 10.023438 L 27.992188 22.925781 C 27.992188 25.449219 29.394531 26.699219 31.609375 26.699219 C 33.828125 26.699219 35.230469 25.449219 35.230469 22.925781 L 35.230469 10.023438 L 39.871094 10.023438 L 39.871094 23.308594 C 39.871094 28.535156 36.199219 31.289062 31.636719 31.289062 C 27.074219 31.289062 23.351562 28.535156 23.351562 23.308594 Z M 23.351562 23.308594 "/>
<path style=" stroke:none;fill-rule:nonzero;fill:rgb(39.608765%,21.958923%,100%);fill-opacity:1;" d="M 54.863281 20.453125 L 61.621094 30.804688 L 55.984375 30.804688 L 51.878906 24.046875 L 47.800781 30.804688 L 42.34375 30.804688 L 49.074219 20.375 L 42.34375 10 L 47.929688 10 L 52.035156 16.757812 L 56.136719 10 L 61.570312 10 Z M 54.863281 20.453125 "/>
<path style=" stroke:none;fill-rule:nonzero;fill:rgb(39.608765%,21.958923%,100%);fill-opacity:1;" d="M 73.375 31.238281 L 69.421875 31.238281 L 79.953125 9.617188 L 83.953125 9.617188 Z M 73.375 31.238281 "/>
<path style=" stroke:none;fill-rule:nonzero;fill:rgb(39.608765%,21.958923%,100%);fill-opacity:1;" d="M 93.234375 23.308594 L 93.234375 10.023438 L 97.875 10.023438 L 97.875 22.925781 C 97.875 25.449219 99.277344 26.699219 101.496094 26.699219 C 103.6875 26.699219 105.117188 25.449219 105.117188 22.925781 L 105.117188 10.023438 L 109.757812 10.023438 L 109.757812 23.308594 C 109.757812 28.535156 106.085938 31.289062 101.523438 31.289062 C 96.957031 31.289062 93.234375 28.535156 93.234375 23.308594 Z M 93.234375 23.308594 "/>
<path style=" stroke:none;fill-rule:nonzero;fill:rgb(39.608765%,21.958923%,100%);fill-opacity:1;" d="M 114.066406 10.023438 L 118.757812 10.023438 L 118.757812 30.828125 L 114.066406 30.828125 Z M 114.066406 10.023438 "/>
<path style=" stroke:none;fill-rule:nonzero;fill:rgb(26.269531%,94.509888%,83.529663%);fill-opacity:1;" d="M 25.824219 61.757812 C 27.175781 59.183594 29.0625 52.425781 29.75 49.109375 C 29.316406 49.058594 29.136719 49.058594 28.578125 49.058594 C 26.589844 49.058594 25.160156 49.519531 23.402344 50.871094 C 22.484375 50.871094 21.972656 50.078125 21.972656 49.136719 C 21.972656 47.222656 24.445312 44.34375 29.878906 44.34375 C 37.960938 44.34375 42.140625 49.800781 42.140625 56.582031 C 42.140625 61.882812 38.878906 66.652344 33.167969 66.652344 C 31.382812 66.652344 29.417969 66.089844 26.816406 64.867188 C 25.644531 65.8125 24.855469 66.117188 24.089844 66.117188 C 22.765625 66.117188 22.023438 64.203125 22.023438 62.980469 C 22.023438 62.242188 22.433594 61.578125 23.375 61.578125 C 24.113281 61.578125 24.726562 61.628906 25.824219 61.757812 Z M 33.191406 50.128906 C 32.09375 55.535156 30.386719 60.378906 29.113281 62.496094 C 31 63.03125 32.199219 63.3125 33.320312 63.3125 C 36.277344 63.3125 37.527344 60.609375 37.527344 57.523438 C 37.5 54.617188 36.097656 51.738281 33.191406 50.128906 Z M 33.191406 50.128906 "/>
<path style=" stroke:none;fill-rule:nonzero;fill:rgb(26.269531%,94.509888%,83.529663%);fill-opacity:1;" d="M 43.363281 61.347656 C 43.363281 56.914062 46.984375 52.398438 49.816406 52.398438 C 51.828125 52.398438 52.953125 53.367188 52.953125 55.433594 C 52.953125 57.90625 51.523438 59.792969 47.496094 60.710938 C 47.496094 62.039062 47.75 62.777344 48.898438 62.777344 C 50.886719 62.777344 53.488281 61.070312 55.144531 58.519531 C 55.859375 58.542969 56.265625 59.027344 56.265625 59.488281 C 56.265625 61.65625 51.371094 66.320312 47.546875 66.320312 C 44.691406 66.296875 43.363281 64.511719 43.363281 61.347656 Z M 49.101562 55.484375 C 48.695312 55.484375 47.902344 56.480469 47.699219 58.542969 C 49.332031 58.238281 49.6875 57.347656 49.6875 56.453125 C 49.6875 55.816406 49.457031 55.484375 49.101562 55.484375 Z M 49.101562 55.484375 "/>
<path style=" stroke:none;fill-rule:nonzero;fill:rgb(26.269531%,94.509888%,83.529663%);fill-opacity:1;" d="M 57.160156 59.667969 C 57.160156 60.277344 56.902344 60.710938 56.394531 61.273438 C 56.621094 62.574219 57.617188 63.441406 58.304688 63.441406 C 58.613281 63.441406 58.917969 63.261719 58.917969 62.777344 C 58.917969 61.273438 57.210938 57.730469 57.210938 55.917969 C 57.210938 53.445312 59.199219 51.761719 61.875 51.761719 C 63.582031 51.761719 64.578125 52.5 64.578125 53.902344 C 64.578125 54.515625 64.324219 55.128906 63.964844 55.484375 C 63.40625 55.253906 62.871094 55.128906 62.410156 55.128906 C 61.796875 55.128906 61.46875 55.304688 61.46875 55.84375 C 61.46875 57.167969 63.148438 59.589844 63.148438 61.730469 C 63.148438 65.277344 60.117188 66.652344 57.488281 66.652344 C 55.195312 66.652344 53.410156 65.097656 53.410156 62.191406 C 53.410156 60.457031 53.871094 57.601562 55.324219 57.601562 C 56.34375 57.625 57.160156 58.925781 57.160156 59.667969 Z M 57.160156 59.667969 "/>
<path style=" stroke:none;fill-rule:nonzero;fill:rgb(26.269531%,94.509888%,83.529663%);fill-opacity:1;" d="M 65.546875 57.90625 C 65.546875 56.171875 68.148438 53.089844 69.984375 53.089844 C 71.335938 53.089844 71.460938 53.828125 71.460938 54.976562 C 71.460938 55.738281 70.953125 56.964844 70.441406 58.214844 C 69.625 60.226562 69.242188 61.171875 69.242188 61.859375 C 69.242188 62.191406 69.398438 62.292969 69.652344 62.292969 C 70.058594 62.292969 71.386719 61.347656 73.347656 58.570312 C 73.910156 58.570312 74.496094 59.027344 74.496094 59.617188 C 74.496094 61.449219 69.828125 66.421875 67.128906 66.421875 C 65.394531 66.421875 64.808594 65.65625 64.808594 64.050781 C 64.808594 62.75 65.136719 61.554688 65.851562 59.742188 C 65.621094 59.183594 65.546875 58.492188 65.546875 57.90625 Z M 71.078125 45.363281 C 72.253906 45.363281 73.578125 46.664062 73.578125 47.554688 C 73.578125 48.269531 73.015625 49.417969 71.613281 51.125 C 70.46875 51.125 69.652344 50.285156 69.652344 48.574219 C 69.625 46.203125 70.136719 45.363281 71.078125 45.363281 Z M 71.078125 45.363281 "/>
<path style=" stroke:none;fill-rule:nonzero;fill:rgb(26.269531%,94.509888%,83.529663%);fill-opacity:1;" d="M 73.296875 66.039062 C 74.496094 67.902344 75.820312 69.378906 76.765625 69.378906 C 77.199219 69.378906 77.480469 69.074219 77.582031 68.234375 C 77.65625 67.570312 77.914062 65.582031 78.117188 63.390625 C 77.734375 64.128906 76.433594 65.554688 75.058594 65.554688 C 73.375 65.554688 72.125 64.382812 72.125 61.707031 C 72.125 57.753906 75.769531 53.777344 78.472656 53.777344 C 78.882812 53.777344 79.085938 53.828125 79.238281 53.980469 C 79.367188 52.933594 79.417969 51.710938 79.417969 51.023438 C 79.644531 50.769531 80.207031 50.613281 80.539062 50.613281 C 82.398438 50.613281 83.828125 51.964844 83.828125 52.984375 C 83.828125 54.132812 83.292969 55.179688 82.859375 57.320312 C 82.5 59.003906 82.195312 61.273438 81.964844 63.109375 C 83.191406 62.214844 84.847656 60.636719 86.199219 58.621094 C 86.9375 58.621094 87.449219 59.027344 87.449219 59.5625 C 87.449219 60.992188 84.335938 64.308594 81.738281 66.167969 C 81.738281 66.167969 81.609375 66.78125 81.53125 67.339844 C 80.996094 71.292969 78.449219 72.644531 76.128906 72.644531 C 73.757812 72.644531 70.902344 70.9375 70.902344 68.617188 C 70.902344 67.441406 71.820312 66.117188 73.296875 66.039062 Z M 76.433594 60.914062 C 76.433594 62.011719 76.738281 62.140625 77.148438 62.140625 C 77.605469 62.140625 77.9375 61.960938 78.34375 61.554688 C 78.574219 59.769531 78.855469 57.320312 79.085938 55.945312 C 77.402344 56.863281 76.433594 59.234375 76.433594 60.914062 Z M 76.433594 60.914062 "/>
<path style=" stroke:none;fill-rule:nonzero;fill:rgb(26.269531%,94.509888%,83.529663%);fill-opacity:1;" d="M 85.738281 57.320312 C 85.738281 55.585938 88.339844 52.5 90.175781 52.5 C 91.171875 52.5 91.425781 52.859375 91.425781 53.726562 C 91.425781 54.464844 91.042969 56.503906 90.253906 57.957031 C 92.394531 54.261719 94.410156 52.933594 95.707031 52.933594 C 97.058594 52.933594 97.722656 53.828125 97.722656 54.949219 C 97.722656 55.738281 97.492188 56.761719 96.882812 58.1875 C 96.347656 59.488281 95.402344 61.554688 95.402344 62.292969 C 95.402344 62.625 95.554688 62.726562 95.8125 62.726562 C 96.398438 62.726562 98.257812 61.222656 100.070312 58.621094 C 100.628906 58.621094 101.214844 59.003906 101.214844 59.589844 C 101.214844 61.425781 96.242188 66.398438 93.566406 66.398438 C 91.832031 66.398438 91.246094 65.632812 91.246094 64.027344 C 91.246094 62.089844 92.75 59.132812 92.75 58.46875 C 92.75 58.238281 92.625 58.109375 92.394531 58.109375 C 92.140625 58.109375 91.171875 58.542969 90.023438 60.125 C 89.613281 62.394531 89.4375 63.695312 89.359375 65.707031 C 89.054688 66.015625 88.851562 66.089844 88.1875 66.089844 C 86.554688 66.089844 85.332031 64.535156 85.304688 62.777344 C 85.304688 61.65625 85.535156 60.457031 86.046875 59.105469 C 85.816406 58.59375 85.738281 57.90625 85.738281 57.320312 Z M 85.738281 57.320312 "/>
<path style=" stroke:none;fill-rule:nonzero;fill:rgb(26.269531%,94.509888%,83.529663%);fill-opacity:1;" d="M 98.894531 61.347656 C 98.894531 56.914062 102.515625 52.398438 105.347656 52.398438 C 107.359375 52.398438 108.480469 53.367188 108.480469 55.433594 C 108.480469 57.90625 107.054688 59.792969 103.027344 60.710938 C 103.027344 62.039062 103.28125 62.777344 104.429688 62.777344 C 106.417969 62.777344 109.019531 61.070312 110.675781 58.519531 C 111.390625 58.542969 111.796875 59.027344 111.796875 59.488281 C 111.796875 61.65625 106.902344 66.320312 103.078125 66.320312 C 100.222656 66.296875 98.894531 64.511719 98.894531 61.347656 Z M 104.605469 55.484375 C 104.199219 55.484375 103.410156 56.480469 103.203125 58.542969 C 104.835938 58.238281 105.191406 57.347656 105.191406 56.453125 C 105.191406 55.816406 104.964844 55.484375 104.605469 55.484375 Z M 104.605469 55.484375 "/>
<path style=" stroke:none;fill-rule:nonzero;fill:rgb(26.269531%,94.509888%,83.529663%);fill-opacity:1;" d="M 118.960938 56.453125 C 118.960938 57.039062 118.628906 57.753906 118.171875 58.671875 C 117.507812 60.023438 116.921875 61.449219 116.921875 62.191406 C 116.921875 62.597656 117.050781 62.90625 117.429688 62.90625 C 118.246094 62.90625 120.3125 61.09375 121.867188 58.648438 C 122.605469 58.648438 123.089844 59.105469 123.089844 59.5625 C 123.089844 61.398438 118.070312 66.625 115.367188 66.625 C 113.582031 66.625 112.585938 65.835938 112.585938 64.152344 C 112.585938 62.214844 114.015625 59.71875 114.015625 58.953125 C 114.015625 58.59375 113.683594 58.417969 113.046875 58.160156 C 112.128906 59.894531 111.464844 60.914062 110.496094 62.011719 C 109.757812 62.011719 109.324219 61.476562 109.324219 60.863281 C 109.324219 60.636719 109.375 60.355469 109.527344 60.152344 C 110.292969 59.054688 110.851562 58.339844 111.335938 57.117188 C 111.109375 56.863281 110.90625 56.480469 110.90625 55.917969 C 110.90625 53.851562 113.988281 50.945312 115.621094 50.945312 C 116.617188 50.945312 117.304688 51.40625 117.304688 52.195312 C 117.304688 52.398438 117.277344 52.605469 117.226562 52.78125 C 116.511719 53.164062 115.902344 53.597656 115.519531 54.261719 C 115.851562 54.441406 116.410156 54.644531 116.894531 54.796875 C 118.605469 55.332031 118.960938 55.738281 118.960938 56.453125 Z M 118.960938 56.453125 "/>
<path style=" stroke:none;fill-rule:nonzero;fill:rgb(39.608765%,21.958923%,100%);fill-opacity:1;" d="M 120.667969 44.546875 L 122.121094 44.546875 L 122.121094 51.863281 L 120.667969 51.863281 Z M 120.667969 44.546875 "/>
<path style=" stroke:none;fill-rule:nonzero;fill:rgb(39.608765%,21.958923%,100%);fill-opacity:1;" d="M 125.359375 46.789062 L 126.378906 46.789062 L 126.378906 48.015625 L 125.359375 48.015625 L 125.359375 50.128906 C 125.359375 50.5625 125.566406 50.71875 125.945312 50.71875 C 126.101562 50.71875 126.304688 50.691406 126.378906 50.667969 L 126.378906 51.8125 C 126.253906 51.863281 126 51.941406 125.617188 51.941406 C 124.621094 51.941406 124.007812 51.355469 124.007812 50.359375 L 124.007812 47.988281 L 123.089844 47.988281 L 123.089844 46.765625 L 123.347656 46.765625 C 123.882812 46.765625 124.136719 46.410156 124.136719 45.949219 L 124.136719 45.234375 L 125.386719 45.234375 L 125.386719 46.789062 Z M 125.359375 46.789062 "/>
<path style=" stroke:none;fill-rule:nonzero;fill:rgb(39.608765%,21.958923%,100%);fill-opacity:1;" d="M 128.804688 48.933594 L 130.050781 48.753906 C 130.332031 48.703125 130.433594 48.574219 130.433594 48.398438 C 130.433594 48.039062 130.152344 47.734375 129.566406 47.734375 C 128.980469 47.734375 128.648438 48.117188 128.597656 48.550781 L 127.375 48.296875 C 127.453125 47.503906 128.191406 46.613281 129.542969 46.613281 C 131.148438 46.613281 131.761719 47.53125 131.761719 48.550781 L 131.761719 51.046875 C 131.761719 51.328125 131.785156 51.6875 131.8125 51.863281 L 130.5625 51.863281 C 130.535156 51.738281 130.511719 51.457031 130.511719 51.253906 C 130.257812 51.660156 129.773438 52.015625 129.007812 52.015625 C 127.9375 52.015625 127.273438 51.277344 127.273438 50.488281 C 127.273438 49.570312 127.9375 49.058594 128.804688 48.933594 Z M 130.433594 49.800781 L 130.433594 49.570312 L 129.289062 49.75 C 128.929688 49.800781 128.648438 50.003906 128.648438 50.386719 C 128.648438 50.691406 128.855469 50.972656 129.3125 50.972656 C 129.898438 50.972656 130.433594 50.691406 130.433594 49.800781 Z M 130.433594 49.800781 "/>
<path style=" stroke:none;fill-rule:nonzero;fill:rgb(39.608765%,21.958923%,100%);fill-opacity:1;" d="M 133.136719 44.394531 L 134.515625 44.394531 L 134.515625 51.863281 L 133.136719 51.863281 Z M 133.136719 44.394531 "/>
<path style=" stroke:none;fill-rule:nonzero;fill:rgb(39.608765%,21.958923%,100%);fill-opacity:1;" d="M 136.679688 44.265625 C 137.164062 44.265625 137.523438 44.648438 137.523438 45.132812 C 137.523438 45.59375 137.140625 45.976562 136.679688 45.976562 C 136.222656 45.976562 135.839844 45.59375 135.839844 45.132812 C 135.8125 44.648438 136.195312 44.265625 136.679688 44.265625 Z M 135.992188 51.863281 L 135.992188 46.789062 L 137.371094 46.789062 L 137.371094 51.863281 Z M 135.992188 51.863281 "/>
<path style=" stroke:none;fill-rule:nonzero;fill:rgb(39.608765%,21.958923%,100%);fill-opacity:1;" d="M 140.019531 48.933594 L 141.269531 48.753906 C 141.550781 48.703125 141.652344 48.574219 141.652344 48.398438 C 141.652344 48.039062 141.371094 47.734375 140.785156 47.734375 C 140.199219 47.734375 139.867188 48.117188 139.816406 48.550781 L 138.59375 48.296875 C 138.667969 47.503906 139.410156 46.613281 140.761719 46.613281 C 142.367188 46.613281 142.980469 47.53125 142.980469 48.550781 L 142.980469 51.046875 C 142.980469 51.328125 143.003906 51.6875 143.03125 51.863281 L 141.78125 51.863281 C 141.753906 51.738281 141.730469 51.457031 141.730469 51.253906 C 141.472656 51.660156 140.988281 52.015625 140.226562 52.015625 C 139.152344 52.015625 138.492188 51.277344 138.492188 50.488281 C 138.515625 49.570312 139.179688 49.058594 140.019531 48.933594 Z M 141.652344 49.800781 L 141.652344 49.570312 L 140.503906 49.75 C 140.148438 49.800781 139.867188 50.003906 139.867188 50.386719 C 139.867188 50.691406 140.070312 50.972656 140.53125 50.972656 C 141.117188 50.972656 141.652344 50.691406 141.652344 49.800781 Z M 141.652344 49.800781 "/>
</g>
</svg>
