<?xml version="1.0" encoding="UTF-8"?>
<svg xmlns="http://www.w3.org/2000/svg" xmlns:xlink="http://www.w3.org/1999/xlink" width="165pt" height="82.499998pt" viewBox="0 0 165 82.499998" version="1.2">
<defs>
<clipPath id="clip1">
  <path d="M 0.496094 0 L 164.503906 0 L 164.503906 82.003906 L 0.496094 82.003906 Z M 0.496094 0 "/>
</clipPath>
</defs>
<g id="surface1">
<g clip-path="url(#clip1)" clip-rule="nonzero">
<path style=" stroke:none;fill-rule:nonzero;fill:rgb(100%,100%,100%);fill-opacity:1;" d="M 0.496094 0 L 164.503906 0 L 164.503906 89.457031 L 0.496094 89.457031 Z M 0.496094 0 "/>
<path style=" stroke:none;fill-rule:nonzero;fill:rgb(100%,100%,100%);fill-opacity:1;" d="M 0.496094 0 L 164.503906 0 L 164.503906 82.003906 L 0.496094 82.003906 Z M 0.496094 0 "/>
<path style=" stroke:none;fill-rule:nonzero;fill:rgb(100%,100%,100%);fill-opacity:1;" d="M 0.496094 0 L 164.503906 0 L 164.503906 82.003906 L 0.496094 82.003906 Z M 0.496094 0 "/>
</g>
<path style=" stroke:none;fill-rule:nonzero;fill:rgb(100%,100%,100%);fill-opacity:1;" d="M 118.8125 60.914062 C 118.378906 60.53125 117.886719 60.226562 117.351562 60.011719 C 116.222656 59.601562 115.066406 59.210938 113.945312 58.839844 L 113.125 58.566406 L 118.625 51.191406 C 118.871094 50.882812 119.085938 50.554688 119.273438 50.207031 C 120.046875 48.710938 118.945312 47.792969 118.585938 47.488281 C 118.207031 47.148438 117.722656 46.953125 117.210938 46.9375 C 116.757812 46.949219 116.316406 47.101562 115.953125 47.375 L 115.761719 47.515625 C 115.644531 47.605469 115.519531 47.6875 115.382812 47.757812 C 113.769531 48.375 112.15625 48.984375 110.535156 49.582031 L 109.039062 50.132812 C 105.527344 51.5 101.929688 52.632812 98.269531 53.53125 C 97.191406 53.800781 96.082031 53.953125 94.972656 53.980469 C 94.355469 53.988281 93.742188 53.914062 93.148438 53.765625 C 92.125 53.480469 91.128906 53.109375 90.167969 52.65625 C 89.394531 52.308594 88.609375 51.910156 87.855469 51.527344 C 87.261719 51.226562 86.667969 50.925781 86.066406 50.640625 C 85.441406 50.34375 84.792969 50.085938 84.132812 49.875 C 85.042969 49.9375 86.007812 50 86.980469 50 C 87.75 50 88.519531 49.957031 89.28125 49.863281 C 89.535156 49.835938 89.8125 49.828125 90.101562 49.8125 C 90.394531 49.800781 90.574219 49.8125 90.808594 49.78125 L 92.035156 49.695312 C 93.132812 49.617188 94.273438 49.539062 95.398438 49.398438 C 98.617188 48.976562 101.8125 48.378906 104.964844 47.613281 C 106.171875 47.324219 107.347656 46.933594 108.488281 46.449219 C 109.246094 46.132812 109.996094 45.804688 110.746094 45.472656 C 112.867188 44.476562 115.058594 43.644531 117.304688 42.972656 C 117.652344 42.882812 117.980469 42.722656 118.269531 42.503906 C 118.503906 42.335938 118.6875 42.109375 118.808594 41.847656 C 118.925781 41.585938 118.972656 41.296875 118.945312 41.011719 C 118.917969 40.722656 118.8125 40.449219 118.644531 40.214844 C 118.480469 39.984375 118.253906 39.796875 117.992188 39.679688 C 117.867188 39.617188 117.738281 39.566406 117.605469 39.535156 L 117.039062 39.257812 C 116.617188 39.066406 116.214844 38.84375 115.832031 38.585938 C 114.976562 37.871094 114.242188 37.03125 113.644531 36.097656 L 113.164062 35.433594 C 112.761719 34.84375 112.316406 34.28125 111.839844 33.753906 C 111.433594 33.335938 111.140625 32.828125 110.980469 32.273438 L 110.925781 32.089844 C 110.84375 31.78125 110.746094 31.480469 110.636719 31.183594 C 110.410156 30.609375 109.726562 28.871094 107.601562 28.871094 C 107.394531 28.863281 107.191406 28.839844 106.988281 28.804688 C 106.730469 28.765625 106.476562 28.734375 106.214844 28.71875 L 106.105469 28.71875 L 106.085938 28.671875 C 105.734375 27.78125 105.34375 26.917969 104.972656 26.078125 C 104.730469 25.546875 104.464844 24.976562 104.152344 24.441406 C 103.980469 24.078125 103.710938 23.765625 103.375 23.546875 C 103.039062 23.324219 102.648438 23.199219 102.246094 23.183594 C 102.179688 23.179688 102.113281 23.179688 102.046875 23.183594 C 100.882812 23.300781 100.464844 24.390625 100.328125 24.75 C 99.941406 25.710938 99.484375 26.644531 98.957031 27.539062 L 98.855469 27.351562 C 98.089844 25.953125 97.335938 24.570312 96.570312 23.191406 L 96.363281 22.820312 C 95.234375 20.773438 94.066406 18.660156 92.890625 16.597656 C 92.554688 16.03125 92.160156 15.503906 91.714844 15.019531 C 91.53125 14.816406 91.308594 14.652344 91.0625 14.535156 C 90.8125 14.421875 90.542969 14.355469 90.269531 14.347656 C 90.148438 14.347656 90.027344 14.363281 89.910156 14.390625 C 89.335938 14.53125 88.796875 14.777344 88.324219 15.125 C 87.664062 15.625 87.015625 16.148438 86.386719 16.652344 C 85.894531 17.0625 85.402344 17.449219 84.902344 17.839844 C 83.445312 18.964844 81.992188 20.070312 80.570312 21.117188 C 80.335938 21.277344 80.082031 21.40625 79.8125 21.492188 C 78.328125 22.078125 76.984375 22.960938 75.859375 24.089844 C 75.398438 24.535156 74.902344 24.96875 74.378906 25.386719 C 74.191406 25.5625 73.945312 25.664062 73.6875 25.671875 C 73.476562 25.660156 73.269531 25.605469 73.082031 25.507812 C 72.742188 25.34375 72.402344 25.210938 72.070312 25.097656 L 76.828125 9.933594 C 76.882812 9.757812 76.894531 9.574219 76.863281 9.394531 C 76.832031 9.214844 76.761719 9.042969 76.652344 8.898438 C 76.542969 8.75 76.402344 8.632812 76.242188 8.550781 C 76.078125 8.46875 75.898438 8.425781 75.714844 8.425781 C 75.628906 8.425781 75.546875 8.433594 75.460938 8.453125 L 64.179688 11.011719 C 63.984375 11.054688 63.800781 11.148438 63.652344 11.28125 C 63.503906 11.417969 63.394531 11.589844 63.332031 11.78125 L 61.804688 16.457031 L 58.527344 12.871094 C 58.417969 12.75 58.285156 12.65625 58.136719 12.589844 C 57.988281 12.523438 57.828125 12.488281 57.667969 12.488281 C 57.582031 12.488281 57.5 12.5 57.417969 12.519531 L 45.914062 15.089844 C 45.714844 15.132812 45.527344 15.230469 45.378906 15.367188 C 45.230469 15.507812 45.117188 15.683594 45.058594 15.878906 C 44.996094 16.074219 44.988281 16.28125 45.035156 16.480469 C 45.078125 16.679688 45.175781 16.863281 45.316406 17.015625 L 59.738281 32.515625 C 59.144531 33.339844 58.632812 34.214844 58.199219 35.132812 C 57.257812 37.070312 56.160156 38.929688 54.921875 40.691406 C 54.046875 41.878906 53.070312 42.984375 51.996094 43.992188 C 51.84375 44.125 51.683594 44.246094 51.511719 44.351562 C 51.332031 44.464844 51.15625 44.585938 50.988281 44.710938 C 50.667969 44.953125 50.375 45.226562 50.113281 45.53125 C 49.847656 45.832031 49.699219 46.214844 49.691406 46.613281 C 49.683594 47.015625 49.8125 47.402344 50.066406 47.714844 C 50.328125 48.089844 50.667969 48.410156 51.058594 48.652344 C 51.445312 48.894531 51.882812 49.054688 52.335938 49.125 C 52.882812 49.222656 53.429688 49.359375 54.007812 49.503906 L 54.90625 49.71875 L 55.273438 49.808594 C 55.699219 49.921875 56.132812 50.007812 56.570312 50.070312 C 57.03125 50.132812 57.496094 50.160156 57.960938 50.15625 C 58.832031 50.144531 59.699219 50.085938 60.566406 49.976562 L 61.242188 49.90625 C 61.691406 49.863281 62.148438 49.839844 62.59375 49.839844 C 62.910156 49.839844 63.21875 49.839844 63.523438 49.871094 L 63.640625 49.871094 C 64.636719 49.945312 65.667969 50.015625 66.703125 50.015625 C 67.257812 50.015625 67.769531 49.992188 68.261719 49.953125 C 68.457031 49.953125 68.671875 49.953125 68.855469 49.925781 C 68.855469 49.945312 68.824219 49.960938 68.8125 49.980469 L 68.207031 50.085938 C 64.585938 50.75 60.988281 51.679688 57.507812 52.578125 C 56.277344 52.894531 55.019531 53.214844 53.773438 53.527344 C 53.09375 53.695312 52.503906 54.121094 52.132812 54.714844 C 51.992188 54.898438 51.890625 55.109375 51.835938 55.332031 C 51.78125 55.554688 51.773438 55.789062 51.8125 56.015625 C 51.855469 56.242188 51.941406 56.457031 52.074219 56.648438 C 52.203125 56.839844 52.371094 57 52.570312 57.121094 C 52.867188 57.335938 53.203125 57.496094 53.558594 57.589844 C 54.011719 57.710938 54.457031 57.792969 54.894531 57.878906 L 57.109375 58.289062 L 60.5 58.933594 C 58.539062 61.53125 56.804688 64.292969 55.320312 67.1875 C 54.890625 68.074219 54.59375 69.019531 54.429688 69.992188 C 54.394531 70.265625 54.414062 70.542969 54.492188 70.808594 C 54.566406 71.070312 54.699219 71.316406 54.875 71.527344 C 55.050781 71.742188 55.273438 71.914062 55.527344 72.03125 C 55.777344 72.148438 56.054688 72.210938 56.332031 72.207031 C 56.597656 72.203125 56.863281 72.15625 57.113281 72.066406 L 58.007812 71.773438 C 58.589844 71.585938 59.1875 71.386719 59.78125 71.175781 C 63.015625 69.9375 66.371094 69.039062 69.792969 68.5 C 70.679688 68.375 71.574219 68.308594 72.46875 68.304688 C 74.914062 68.28125 77.328125 68.859375 79.492188 70 C 80.363281 70.453125 81.328125 70.910156 82.425781 71.386719 C 85.671875 72.789062 89.167969 73.5 92.703125 73.480469 C 94.144531 73.480469 95.585938 73.375 97.011719 73.175781 C 99.761719 72.789062 102.339844 71.785156 104.550781 70.878906 C 107.558594 69.648438 110.480469 68.160156 113.300781 66.71875 L 114.757812 65.984375 C 115.316406 65.703125 115.832031 65.375 116.328125 65.058594 L 116.777344 64.773438 L 116.945312 64.664062 L 117.023438 64.613281 C 117.160156 64.644531 117.296875 64.660156 117.433594 64.664062 C 118.457031 64.664062 118.964844 63.84375 119.210938 63.433594 L 119.25 63.367188 C 119.5 62.980469 119.597656 62.507812 119.515625 62.054688 C 119.433594 61.597656 119.183594 61.1875 118.8125 60.914062 Z M 118.8125 60.914062 "/>
<path style=" stroke:none;fill-rule:nonzero;fill:rgb(39.99939%,71.369934%,53.329468%);fill-opacity:1;" d="M 111.226562 59.035156 C 111.554688 59.160156 111.777344 59.261719 112.007812 59.339844 C 113.625 59.890625 115.253906 60.417969 116.859375 61 C 117.269531 61.171875 117.648438 61.414062 117.984375 61.710938 C 118.058594 61.761719 118.121094 61.824219 118.171875 61.898438 C 118.21875 61.972656 118.253906 62.058594 118.269531 62.144531 C 118.289062 62.234375 118.285156 62.324219 118.269531 62.410156 C 118.25 62.496094 118.214844 62.582031 118.164062 62.652344 C 117.925781 63.042969 117.667969 63.523438 117.140625 63.367188 C 116.609375 63.210938 116.386719 63.476562 116.058594 63.683594 C 115.417969 64.09375 114.792969 64.503906 114.125 64.847656 C 110.785156 66.535156 107.464844 68.273438 104.003906 69.703125 C 101.652344 70.671875 99.273438 71.566406 96.742188 71.921875 C 91.941406 72.59375 87.265625 72.171875 82.78125 70.21875 C 81.816406 69.808594 80.855469 69.355469 79.914062 68.867188 C 76.632812 67.144531 73.152344 66.730469 69.515625 67.25 C 66.015625 67.800781 62.582031 68.714844 59.269531 69.976562 C 58.398438 70.296875 57.507812 70.570312 56.625 70.867188 C 56.5 70.925781 56.359375 70.953125 56.21875 70.941406 C 56.078125 70.933594 55.945312 70.886719 55.828125 70.8125 C 55.710938 70.734375 55.613281 70.628906 55.550781 70.503906 C 55.484375 70.378906 55.453125 70.242188 55.457031 70.101562 C 55.601562 69.234375 55.863281 68.394531 56.246094 67.601562 C 57.796875 64.453125 59.792969 61.59375 61.863281 58.777344 C 62 58.597656 62.128906 58.417969 62.316406 58.160156 C 62.003906 58.027344 61.6875 57.921875 61.363281 57.839844 C 59.242188 57.429688 57.117188 57.019531 54.996094 56.628906 C 54.585938 56.550781 54.175781 56.46875 53.765625 56.363281 C 53.546875 56.304688 53.339844 56.207031 53.160156 56.078125 C 52.800781 55.816406 52.773438 55.609375 53.011719 55.257812 C 53.222656 54.910156 53.5625 54.660156 53.957031 54.558594 C 58.738281 53.375 63.472656 52.023438 68.300781 51.132812 C 70.648438 50.699219 73.03125 50.453125 75.417969 50.402344 C 77.199219 50.371094 78.984375 50.367188 80.765625 50.402344 C 82.40625 50.464844 84.011719 50.875 85.480469 51.609375 C 86.863281 52.265625 88.207031 53.007812 89.605469 53.636719 C 90.625 54.117188 91.6875 54.511719 92.773438 54.808594 C 94.667969 55.292969 96.570312 55.011719 98.441406 54.582031 C 102.152344 53.671875 105.800781 52.523438 109.359375 51.140625 C 111.480469 50.351562 113.597656 49.566406 115.707031 48.761719 C 116 48.625 116.277344 48.453125 116.527344 48.25 C 116.613281 48.167969 116.710938 48.109375 116.816406 48.066406 C 116.925781 48.027344 117.039062 48.007812 117.152344 48.015625 C 117.269531 48.019531 117.382812 48.046875 117.484375 48.097656 C 117.589844 48.144531 117.679688 48.214844 117.757812 48.300781 C 118.3125 48.765625 118.425781 49.082031 118.167969 49.597656 C 117.996094 49.902344 117.796875 50.195312 117.582031 50.46875 L 111.898438 58.074219 C 111.679688 58.347656 111.492188 58.644531 111.226562 59.035156 Z M 111.226562 59.035156 "/>
<path style=" stroke:none;fill-rule:nonzero;fill:rgb(22.749329%,29.019165%,36.079407%);fill-opacity:1;" d="M 63.464844 34.488281 C 64.25 33.460938 64.941406 32.519531 65.671875 31.597656 C 66.765625 30.207031 67.882812 28.824219 69.023438 27.457031 C 69.386719 27.039062 69.773438 26.644531 70.179688 26.269531 C 70.335938 26.109375 70.539062 26 70.757812 25.960938 C 70.976562 25.917969 71.203125 25.941406 71.410156 26.03125 C 71.78125 26.15625 72.144531 26.304688 72.5 26.472656 C 72.898438 26.695312 73.351562 26.789062 73.804688 26.742188 C 74.257812 26.695312 74.683594 26.507812 75.027344 26.210938 C 75.566406 25.800781 76.089844 25.324219 76.585938 24.847656 C 77.59375 23.828125 78.808594 23.027344 80.144531 22.503906 C 80.511719 22.371094 80.863281 22.195312 81.183594 21.96875 C 82.644531 20.875 84.09375 19.773438 85.53125 18.660156 C 86.679688 17.773438 87.789062 16.835938 88.945312 15.957031 C 89.296875 15.703125 89.691406 15.523438 90.113281 15.425781 C 90.234375 15.417969 90.359375 15.4375 90.472656 15.484375 C 90.585938 15.53125 90.6875 15.601562 90.769531 15.695312 C 91.15625 16.121094 91.503906 16.582031 91.796875 17.074219 C 93.027344 19.261719 94.257812 21.460938 95.488281 23.660156 C 96.589844 25.65625 97.683594 27.660156 98.808594 29.707031 C 98.898438 29.644531 98.980469 29.566406 99.046875 29.480469 C 99.9375 28.078125 100.703125 26.605469 101.34375 25.070312 C 101.488281 24.703125 101.6875 24.285156 102.101562 24.253906 C 102.3125 24.257812 102.515625 24.320312 102.6875 24.441406 C 102.859375 24.558594 102.996094 24.726562 103.074219 24.921875 C 103.359375 25.421875 103.601562 25.941406 103.839844 26.464844 C 104.214844 27.304688 104.59375 28.148438 104.933594 29.007812 C 105.015625 29.246094 105.171875 29.453125 105.378906 29.597656 C 105.589844 29.742188 105.839844 29.8125 106.09375 29.800781 C 106.578125 29.820312 107.054688 29.953125 107.535156 29.949219 C 108.628906 29.949219 109.132812 30.636719 109.484375 31.527344 C 109.609375 31.847656 109.695312 32.183594 109.792969 32.515625 C 110.003906 33.25 110.394531 33.921875 110.925781 34.46875 C 111.457031 35.070312 111.949219 35.707031 112.398438 36.375 C 113.191406 37.46875 113.964844 38.625 115.074219 39.441406 C 115.707031 39.851562 116.375 40.210938 117.066406 40.519531 C 117.167969 40.570312 117.289062 40.582031 117.394531 40.628906 C 117.484375 40.65625 117.5625 40.710938 117.625 40.785156 C 117.683594 40.859375 117.71875 40.945312 117.730469 41.042969 C 117.738281 41.136719 117.71875 41.230469 117.675781 41.3125 C 117.632812 41.398438 117.5625 41.464844 117.480469 41.511719 C 117.3125 41.632812 117.121094 41.71875 116.921875 41.769531 C 113.820312 42.621094 110.941406 44.058594 107.992188 45.296875 C 106.910156 45.757812 105.789062 46.125 104.648438 46.398438 C 101.539062 47.152344 98.390625 47.742188 95.21875 48.167969 C 93.710938 48.351562 92.191406 48.425781 90.675781 48.542969 C 90.148438 48.585938 89.613281 48.5625 89.089844 48.628906 C 87.4375 48.792969 85.769531 48.792969 84.117188 48.628906 C 82.855469 48.542969 81.585938 48.5625 80.316406 48.539062 C 79.996094 48.539062 79.667969 48.539062 79.347656 48.539062 C 77.179688 48.335938 75.019531 48.539062 72.859375 48.628906 C 72.214844 48.664062 71.570312 48.628906 70.925781 48.628906 C 69.984375 48.628906 69.03125 48.609375 68.09375 48.691406 C 66.574219 48.78125 65.050781 48.75 63.535156 48.601562 C 62.710938 48.542969 61.878906 48.554688 61.054688 48.636719 C 59.589844 48.78125 58.125 49.003906 56.648438 48.804688 C 56.125 48.734375 55.609375 48.59375 55.09375 48.472656 C 54.21875 48.273438 53.355469 48.027344 52.46875 47.867188 C 52.164062 47.824219 51.867188 47.714844 51.605469 47.554688 C 51.339844 47.390625 51.109375 47.175781 50.933594 46.921875 C 50.835938 46.820312 50.78125 46.6875 50.78125 46.546875 C 50.78125 46.410156 50.835938 46.273438 50.933594 46.175781 C 51.144531 45.933594 51.378906 45.714844 51.632812 45.523438 C 52.023438 45.273438 52.394531 45 52.75 44.703125 C 53.875 43.644531 54.902344 42.484375 55.816406 41.234375 C 57.089844 39.421875 58.214844 37.511719 59.1875 35.523438 C 59.589844 34.667969 60.066406 33.851562 60.617188 33.085938 C 61.4375 31.972656 62.140625 32.050781 62.828125 33.234375 C 63.015625 33.625 63.203125 34.011719 63.464844 34.488281 Z M 96.507812 47.074219 C 96.382812 46.851562 96.292969 46.695312 96.210938 46.535156 C 95.851562 45.8125 95.484375 45.097656 95.132812 44.371094 C 95.023438 44.144531 94.949219 43.898438 94.917969 43.644531 C 94.917969 43.523438 95.042969 43.386719 95.117188 43.257812 C 95.242188 43.332031 95.429688 43.371094 95.484375 43.476562 C 95.894531 44.296875 96.261719 45.144531 96.652344 45.980469 C 96.726562 46.136719 96.816406 46.285156 96.941406 46.511719 C 97.117188 46.066406 97.351562 45.78125 97.167969 45.335938 C 96.703125 44.257812 96.285156 43.15625 95.867188 42.054688 C 95.710938 41.644531 95.609375 41.214844 95.496094 40.792969 C 95.417969 40.523438 95.464844 40.300781 95.84375 40.195312 C 96.738281 41.503906 97 43.0625 97.707031 44.53125 C 98.085938 43.984375 98.292969 43.539062 98.011719 42.890625 C 97.601562 41.964844 97.320312 40.984375 96.964844 40.023438 C 96.863281 39.75 96.847656 39.542969 97.242188 39.394531 C 97.707031 40.460938 98.167969 41.515625 98.667969 42.648438 C 99.117188 42.050781 99.347656 41.570312 99.078125 40.878906 C 98.574219 39.613281 98.183594 38.308594 97.722656 37.027344 C 97.613281 36.71875 97.660156 36.554688 98.050781 36.453125 C 98.703125 37.542969 99.070312 38.757812 99.648438 40.042969 C 99.757812 39.300781 99.894531 38.710938 99.710938 38.140625 C 99.351562 37.003906 98.949219 35.871094 98.535156 34.75 C 98.414062 34.40625 98.535156 34.296875 98.90625 34.195312 L 99.945312 36.589844 C 100.070312 36.378906 100.152344 36.148438 100.183594 35.90625 C 100.21875 35.667969 100.203125 35.421875 100.140625 35.1875 C 99.914062 34.460938 99.75 33.71875 99.582031 32.976562 C 99.523438 32.730469 99.511719 32.476562 99.539062 32.222656 C 99.566406 32.152344 99.605469 32.089844 99.65625 32.035156 C 99.710938 31.980469 99.773438 31.941406 99.84375 31.917969 C 99.925781 31.890625 100.117188 32.019531 100.160156 32.121094 C 100.300781 32.457031 100.40625 32.8125 100.515625 33.160156 C 100.597656 33.410156 100.667969 33.660156 100.742188 33.914062 L 100.917969 33.882812 C 100.933594 33.71875 100.933594 33.550781 100.917969 33.386719 C 100.761719 32.644531 100.601562 31.898438 100.414062 31.167969 C 100.351562 30.929688 100.34375 30.722656 100.597656 30.683594 C 100.851562 30.640625 100.851562 30.851562 100.867188 31.054688 C 100.898438 31.597656 101.058594 32.121094 101.339844 32.585938 C 102.269531 30.789062 101.992188 28.945312 101.691406 26.992188 C 101.574219 27.15625 101.511719 27.226562 101.464844 27.304688 C 100.152344 29.585938 98.753906 31.8125 97.296875 33.992188 C 96.257812 35.515625 95.425781 37.171875 94.820312 38.914062 C 94.660156 39.367188 94.476562 39.816406 94.261719 40.25 C 94.117188 40.550781 93.914062 40.824219 93.660156 41.042969 C 93.40625 41.261719 93.109375 41.429688 92.785156 41.527344 C 92.132812 41.785156 91.410156 41.816406 90.738281 41.613281 C 90.488281 41.523438 90.214844 41.511719 89.960938 41.578125 C 89.703125 41.644531 89.472656 41.785156 89.292969 41.980469 C 88.054688 43.125 86.945312 44.402344 85.992188 45.792969 C 85.835938 46.023438 85.683594 46.257812 85.515625 46.472656 C 85.347656 46.691406 85.175781 46.882812 84.878906 46.792969 C 84.734375 46.757812 84.601562 46.675781 84.5 46.5625 C 84.398438 46.449219 84.335938 46.308594 84.316406 46.15625 C 84.289062 45.929688 84.28125 45.699219 84.289062 45.46875 C 84.320312 44.179688 84.324219 42.882812 84.40625 41.597656 C 84.394531 41.042969 84.164062 40.515625 83.765625 40.132812 C 83.5625 39.878906 83.078125 39.835938 82.707031 39.722656 C 82.304688 39.640625 81.90625 39.535156 81.515625 39.40625 C 81.238281 39.3125 81.007812 39.113281 80.871094 38.855469 C 80.730469 38.597656 80.699219 38.292969 80.773438 38.011719 C 80.835938 37.601562 80.9375 37.191406 81.03125 36.78125 C 81.207031 36.019531 81.128906 35.847656 80.375 35.617188 C 79.9375 35.480469 79.480469 35.421875 79.03125 35.300781 C 78.253906 35.097656 77.46875 34.890625 76.703125 34.65625 C 76.109375 34.464844 76.019531 34.210938 76.292969 33.671875 C 76.429688 33.40625 76.59375 33.152344 76.753906 32.898438 C 78.480469 30.191406 80.417969 27.636719 82.386719 25.113281 C 84.089844 22.929688 85.863281 20.800781 87.605469 18.648438 C 87.699219 18.519531 87.78125 18.382812 87.855469 18.238281 C 87.339844 18.601562 86.84375 19 86.378906 19.429688 C 85.042969 20.558594 83.71875 21.710938 82.339844 22.789062 C 81.773438 23.226562 81.136719 23.558594 80.457031 23.777344 C 79.347656 24.125 78.355469 24.773438 77.589844 25.648438 C 76.585938 26.765625 75.566406 27.859375 74.042969 28.332031 C 74.136719 28.507812 74.203125 28.628906 74.261719 28.738281 C 74.316406 28.84375 74.332031 28.964844 74.300781 29.078125 C 74.273438 29.191406 74.199219 29.285156 74.097656 29.347656 C 74.054688 29.375 74.003906 29.398438 73.953125 29.40625 C 73.898438 29.414062 73.847656 29.414062 73.792969 29.402344 C 73.742188 29.386719 73.695312 29.363281 73.652344 29.332031 C 73.613281 29.300781 73.578125 29.257812 73.550781 29.210938 C 73.320312 28.890625 73.140625 28.539062 72.859375 28.09375 L 71.875 27.683594 C 71.96875 28 72.109375 28.304688 72.285156 28.585938 C 72.59375 29.175781 72.890625 29.769531 73.167969 30.375 C 73.199219 30.535156 73.199219 30.695312 73.167969 30.855469 L 72.996094 30.894531 C 71.953125 29.953125 71.375 28.660156 70.574219 27.4375 L 70.03125 27.9375 C 70.058594 28.066406 70.101562 28.195312 70.152344 28.316406 C 70.480469 28.867188 70.792969 29.429688 71.152344 29.957031 C 71.882812 31.046875 72.648438 32.121094 73.382812 33.207031 C 73.519531 33.398438 73.699219 33.617188 73.511719 33.929688 C 72.527344 33.289062 71.980469 32.308594 71.335938 31.429688 C 70.691406 30.546875 70.105469 29.617188 69.472656 28.675781 C 69.257812 28.921875 69.066406 29.160156 68.816406 29.4375 C 68.96875 29.660156 69.125 29.847656 69.257812 30.070312 C 69.859375 31.054688 70.460938 32.039062 71.042969 33.03125 C 71.1875 33.28125 71.386719 33.609375 71.042969 33.851562 C 70.699219 34.09375 70.46875 33.761719 70.300781 33.539062 C 69.636719 32.652344 69.007812 31.75 68.363281 30.847656 C 68.265625 30.707031 68.175781 30.554688 68.035156 30.34375 L 67.113281 31.667969 C 68.523438 33.652344 69.34375 35.226562 69.320312 35.882812 C 68.570312 35.585938 68.523438 35.53125 66.449219 32.46875 L 65.734375 33.367188 C 65.945312 33.691406 66.140625 33.992188 66.339844 34.304688 C 66.75 34.96875 67.160156 35.632812 67.570312 36.304688 C 67.628906 36.46875 67.667969 36.644531 67.683594 36.816406 C 67.117188 36.523438 66.621094 36.101562 66.242188 35.589844 C 65.855469 35.121094 65.515625 34.617188 65.136719 34.105469 L 64.246094 35.0625 C 64.507812 35.503906 64.78125 35.902344 64.996094 36.335938 C 65.207031 36.765625 65.613281 37.089844 65.367188 37.691406 C 64.484375 37.378906 64.136719 36.570312 63.59375 35.957031 C 62.835938 36.199219 62.363281 35.773438 62.007812 35.195312 C 61.847656 34.914062 61.710938 34.621094 61.597656 34.316406 C 61.492188 34.082031 61.386719 33.84375 61.226562 33.472656 C 61.003906 33.882812 60.839844 34.160156 60.703125 34.449219 C 60.292969 35.269531 59.914062 36.117188 59.542969 36.960938 C 58.601562 39.042969 57.488281 41.042969 56.21875 42.941406 C 55.714844 43.660156 55.15625 44.335938 54.542969 44.964844 C 54.027344 45.535156 53.453125 46.050781 52.84375 46.648438 C 54.042969 47.015625 55.179688 47.375 56.328125 47.695312 C 56.871094 47.878906 57.441406 47.984375 58.015625 48.011719 C 59.027344 47.96875 60.039062 47.871094 61.039062 47.726562 C 62.570312 47.542969 64.085938 47.210938 65.640625 47.28125 C 65.699219 47.28125 65.757812 47.242188 65.878906 47.203125 C 65.75 47.050781 65.640625 46.941406 65.550781 46.816406 C 65.359375 46.554688 65.472656 46.339844 65.667969 46.140625 C 65.859375 45.945312 66.078125 46.011719 66.265625 46.195312 C 66.453125 46.378906 66.675781 46.636719 66.855469 46.871094 C 67.320312 47.445312 67.574219 47.511719 68.320312 47.242188 C 67.847656 46.617188 67.367188 46.011719 66.90625 45.367188 C 66.753906 45.160156 66.632812 44.9375 66.539062 44.703125 C 66.507812 44.558594 66.523438 44.402344 66.582031 44.265625 C 66.640625 44.128906 66.742188 44.011719 66.871094 43.9375 C 67.136719 43.78125 67.28125 43.96875 67.472656 44.117188 C 67.542969 44.179688 67.605469 44.25 67.660156 44.324219 C 68.363281 45.269531 69.078125 46.199219 69.765625 47.152344 C 69.824219 47.253906 69.90625 47.335938 70.003906 47.394531 C 70.101562 47.457031 70.210938 47.488281 70.328125 47.496094 C 70.992188 47.496094 71.664062 47.546875 72.328125 47.496094 C 73.554688 47.414062 74.757812 47.171875 75.972656 47.171875 C 79.179688 47.171875 82.382812 47.03125 85.589844 47.28125 C 86.851562 47.378906 88.121094 47.382812 89.394531 47.40625 C 91.742188 47.453125 94.09375 47.546875 96.507812 47.074219 Z M 96.507812 47.074219 "/>
<path style=" stroke:none;fill-rule:nonzero;fill:rgb(22.749329%,29.019165%,36.079407%);fill-opacity:1;" d="M 73.714844 43.21875 C 73.714844 43.507812 73.550781 43.628906 73.347656 43.5625 C 73.261719 43.535156 73.179688 43.488281 73.113281 43.425781 C 72.125 42.5625 71.25 41.582031 70.503906 40.507812 C 70.335938 40.242188 70.21875 39.980469 70.460938 39.6875 C 70.703125 39.390625 70.851562 39.398438 71.105469 39.605469 C 71.175781 39.664062 71.238281 39.730469 71.292969 39.800781 C 72.007812 40.761719 72.714844 41.714844 73.421875 42.671875 C 73.535156 42.84375 73.632812 43.027344 73.714844 43.21875 Z M 73.714844 43.21875 "/>
<path style=" stroke:none;fill-rule:nonzero;fill:rgb(22.749329%,29.019165%,36.079407%);fill-opacity:1;" d="M 70.695312 45.027344 C 70.554688 44.988281 70.417969 44.9375 70.285156 44.871094 C 69.570312 44.332031 68.96875 43.65625 68.519531 42.882812 C 68.453125 42.804688 68.417969 42.703125 68.417969 42.597656 C 68.417969 42.496094 68.453125 42.394531 68.519531 42.3125 C 68.683594 42.097656 68.898438 41.996094 69.089844 42.222656 C 69.738281 42.988281 70.410156 43.742188 70.730469 44.730469 C 70.765625 44.808594 70.714844 44.90625 70.695312 45.027344 Z M 70.695312 45.027344 "/>
<path style=" stroke:none;fill-rule:nonzero;fill:rgb(22.749329%,29.019165%,36.079407%);fill-opacity:1;" d="M 75.164062 41.21875 C 75.164062 41.492188 74.953125 41.628906 74.71875 41.511719 C 74.394531 41.347656 74.085938 41.148438 73.804688 40.917969 C 73.53125 40.671875 73.28125 40.398438 73.066406 40.097656 C 73.011719 40.042969 72.96875 39.980469 72.941406 39.910156 C 72.914062 39.839844 72.902344 39.765625 72.90625 39.691406 C 72.910156 39.613281 72.933594 39.542969 72.96875 39.476562 C 73.003906 39.410156 73.054688 39.351562 73.113281 39.304688 C 73.375 39.082031 73.605469 39.226562 73.773438 39.417969 C 74.222656 39.929688 74.648438 40.46875 75.078125 41.003906 C 75.117188 41.070312 75.148438 41.144531 75.164062 41.21875 Z M 75.164062 41.21875 "/>
<path style=" stroke:none;fill-rule:nonzero;fill:rgb(22.749329%,29.019165%,36.079407%);fill-opacity:1;" d="M 70.5 41.476562 C 71.238281 41.886719 71.804688 42.945312 71.609375 43.671875 C 71.40625 43.59375 71.210938 43.488281 71.035156 43.355469 C 70.757812 43.082031 70.503906 42.785156 70.28125 42.464844 C 69.941406 41.972656 69.984375 41.902344 70.5 41.476562 Z M 70.5 41.476562 "/>
<path style=" stroke:none;fill-rule:nonzero;fill:rgb(22.749329%,29.019165%,36.079407%);fill-opacity:1;" d="M 69.804688 10.804688 L 64.335938 12.027344 L 62.1875 18.601562 L 57.578125 13.539062 L 52.066406 14.773438 L 64.351562 28.085938 Z M 69.804688 10.804688 "/>
<path style=" stroke:none;fill-rule:nonzero;fill:rgb(39.99939%,71.369934%,53.329468%);fill-opacity:1;" d="M 62.78125 32.085938 C 63 32.460938 63.191406 32.847656 63.464844 33.3125 C 64.25 32.289062 64.941406 31.34375 65.671875 30.425781 C 66.765625 29.03125 67.882812 27.648438 69.023438 26.28125 C 69.386719 25.863281 69.773438 25.46875 70.179688 25.097656 C 70.355469 24.921875 70.585938 24.8125 70.832031 24.785156 L 75.628906 9.492188 L 69.804688 10.792969 L 64.351562 28.070312 L 52.054688 14.761719 L 46.066406 16.097656 L 60.660156 31.804688 C 61.441406 30.84375 62.125 30.949219 62.78125 32.085938 Z M 62.78125 32.085938 "/>
<path style=" stroke:none;fill-rule:nonzero;fill:rgb(22.749329%,29.019165%,36.079407%);fill-opacity:1;" d="M 66.902344 60.632812 C 66.953125 60.605469 67.003906 60.566406 67.042969 60.519531 C 67.089844 60.464844 67.136719 60.417969 67.191406 60.363281 C 67.558594 59.96875 67.949219 59.597656 68.359375 59.253906 C 68.773438 58.902344 69.21875 58.589844 69.683594 58.3125 C 70.265625 58.003906 70.917969 57.835938 71.578125 57.832031 C 71.796875 57.828125 72.015625 57.878906 72.210938 57.976562 C 72.402344 58.074219 72.574219 58.203125 72.714844 58.363281 C 72.859375 58.527344 72.972656 58.710938 73.050781 58.914062 C 73.136719 59.109375 73.179688 59.320312 73.179688 59.53125 C 73.15625 59.980469 73.078125 60.425781 72.945312 60.855469 C 72.816406 61.277344 72.65625 61.6875 72.464844 62.085938 C 72.277344 62.480469 72.046875 62.855469 71.777344 63.203125 C 71.515625 63.539062 71.234375 63.859375 70.9375 64.171875 C 70.671875 64.460938 70.382812 64.722656 70.070312 64.960938 C 69.753906 65.195312 69.425781 65.417969 69.085938 65.617188 C 68.972656 65.679688 68.855469 65.734375 68.738281 65.78125 L 68.386719 65.90625 C 68.328125 65.929688 68.265625 65.949219 68.203125 65.957031 C 68.136719 65.96875 68.078125 66.003906 68.039062 66.058594 C 67.976562 66.089844 67.914062 66.117188 67.847656 66.136719 C 67.4375 66.167969 67.027344 66.175781 66.617188 66.167969 C 66.207031 66.160156 65.796875 66.085938 65.410156 65.945312 C 65.316406 65.910156 65.214844 65.902344 65.117188 65.925781 C 65.054688 65.953125 65.011719 66.035156 64.984375 66.179688 C 64.933594 66.390625 64.875 66.59375 64.796875 66.796875 L 64.597656 67.355469 C 64.5625 67.453125 64.511719 67.550781 64.453125 67.636719 C 64.386719 67.730469 64.332031 67.832031 64.289062 67.9375 C 64.277344 67.976562 64.25 68.011719 64.21875 68.039062 C 64.1875 68.0625 64.148438 68.082031 64.105469 68.089844 C 64.027344 68.109375 63.941406 68.109375 63.863281 68.089844 C 63.785156 68.089844 63.710938 68.066406 63.644531 68.019531 C 63.582031 67.976562 63.539062 67.910156 63.515625 67.835938 C 63.492188 67.707031 63.480469 67.578125 63.480469 67.449219 C 63.480469 67.335938 63.480469 67.207031 63.480469 67.0625 C 63.53125 66.820312 63.601562 66.578125 63.691406 66.347656 C 63.78125 66.117188 63.859375 65.882812 63.925781 65.652344 C 63.949219 65.585938 63.96875 65.511719 63.984375 65.441406 C 63.992188 65.371094 63.988281 65.296875 63.960938 65.226562 C 63.9375 65.195312 63.925781 65.15625 63.921875 65.117188 C 63.917969 65.074219 63.925781 65.035156 63.941406 65 C 63.957031 64.96875 63.980469 64.941406 64.007812 64.921875 C 64.035156 64.902344 64.0625 64.886719 64.097656 64.878906 C 64.183594 64.832031 64.261719 64.761719 64.320312 64.679688 C 64.363281 64.605469 64.414062 64.519531 64.464844 64.417969 C 64.554688 64.222656 64.648438 64.039062 64.738281 63.867188 C 64.828125 63.691406 64.90625 63.503906 64.964844 63.3125 L 65.375 62.109375 C 65.511719 61.699219 65.648438 61.3125 65.785156 60.898438 L 66.164062 59.839844 C 66.285156 59.488281 66.40625 59.128906 66.519531 58.757812 C 66.6875 58.269531 66.859375 57.78125 67.03125 57.296875 C 67.203125 56.8125 67.382812 56.335938 67.566406 55.859375 C 67.820312 55.164062 68.078125 54.480469 68.328125 53.808594 C 68.578125 53.136719 68.839844 52.457031 69.109375 51.761719 C 69.1875 51.582031 69.269531 51.398438 69.359375 51.21875 C 69.449219 51.039062 69.527344 50.851562 69.59375 50.660156 C 69.601562 50.605469 69.621094 50.558594 69.648438 50.515625 C 69.675781 50.472656 69.714844 50.433594 69.757812 50.40625 C 69.792969 50.382812 69.839844 50.367188 69.882812 50.363281 C 69.929688 50.359375 69.972656 50.367188 70.015625 50.386719 C 70.128906 50.40625 70.234375 50.460938 70.304688 50.550781 C 70.339844 50.601562 70.355469 50.660156 70.355469 50.722656 C 70.355469 50.78125 70.339844 50.839844 70.304688 50.890625 C 70.253906 51.121094 70.195312 51.347656 70.132812 51.566406 C 70.066406 51.785156 69.984375 52 69.878906 52.203125 C 69.664062 52.695312 69.46875 53.183594 69.28125 53.671875 C 69.09375 54.15625 68.921875 54.664062 68.742188 55.179688 C 68.558594 55.695312 68.308594 56.324219 68.105469 56.886719 C 67.902344 57.449219 67.695312 58.011719 67.503906 58.582031 C 67.402344 58.875 67.296875 59.179688 67.195312 59.484375 C 67.09375 59.792969 66.992188 60.097656 66.886719 60.394531 C 66.871094 60.4375 66.859375 60.476562 66.847656 60.519531 C 66.839844 60.539062 66.839844 60.5625 66.84375 60.585938 C 66.847656 60.605469 66.855469 60.628906 66.867188 60.644531 L 66.832031 60.703125 C 66.832031 60.703125 66.832031 60.726562 66.832031 60.730469 C 66.832031 60.734375 66.832031 60.730469 66.859375 60.730469 C 66.886719 60.730469 66.875 60.6875 66.902344 60.632812 Z M 67.71875 65.210938 C 67.988281 65.164062 68.246094 65.074219 68.484375 64.941406 C 68.71875 64.8125 68.960938 64.671875 69.207031 64.53125 C 69.65625 64.21875 70.066406 63.859375 70.4375 63.460938 C 70.804688 63.066406 71.144531 62.640625 71.449219 62.195312 C 71.523438 62.074219 71.589844 61.949219 71.640625 61.816406 C 71.695312 61.695312 71.753906 61.570312 71.820312 61.441406 C 71.96875 61.214844 72.074219 60.964844 72.125 60.699219 C 72.179688 60.433594 72.230469 60.164062 72.28125 59.878906 C 72.308594 59.824219 72.316406 59.757812 72.300781 59.699219 C 72.285156 59.625 72.285156 59.546875 72.300781 59.472656 C 72.304688 59.359375 72.285156 59.25 72.238281 59.144531 C 72.191406 59.042969 72.125 58.949219 72.039062 58.875 C 71.96875 58.792969 71.875 58.730469 71.773438 58.695312 C 71.667969 58.65625 71.558594 58.644531 71.449219 58.664062 C 71.058594 58.683594 70.675781 58.769531 70.3125 58.917969 C 69.910156 59.125 69.53125 59.367188 69.171875 59.636719 C 68.8125 59.914062 68.472656 60.207031 68.148438 60.519531 C 67.761719 60.929688 67.398438 61.359375 67.054688 61.800781 C 66.714844 62.246094 66.386719 62.714844 66.082031 63.203125 C 65.9375 63.472656 65.820312 63.753906 65.734375 64.042969 C 65.640625 64.335938 65.542969 64.621094 65.441406 64.902344 C 65.417969 64.980469 65.421875 65.035156 65.441406 65.066406 C 65.484375 65.105469 65.535156 65.136719 65.589844 65.152344 C 65.925781 65.230469 66.269531 65.289062 66.613281 65.332031 C 66.992188 65.363281 67.371094 65.324219 67.734375 65.210938 Z M 67.71875 65.210938 "/>
<path style=" stroke:none;fill-rule:nonzero;fill:rgb(22.749329%,29.019165%,36.079407%);fill-opacity:1;" d="M 74.625 63.765625 C 74.585938 64.125 74.628906 64.488281 74.761719 64.824219 C 74.824219 65.015625 74.929688 65.1875 75.074219 65.328125 C 75.210938 65.464844 75.367188 65.582031 75.542969 65.667969 C 75.71875 65.75 75.90625 65.804688 76.097656 65.832031 C 76.28125 65.855469 76.46875 65.855469 76.65625 65.832031 C 77.046875 65.773438 77.429688 65.644531 77.777344 65.453125 C 78.109375 65.269531 78.445312 65.042969 78.78125 64.824219 C 79.070312 64.605469 79.34375 64.363281 79.601562 64.109375 C 79.863281 63.855469 80.117188 63.597656 80.363281 63.339844 C 80.535156 63.167969 80.695312 62.988281 80.847656 62.796875 L 81.257812 62.234375 C 81.472656 61.941406 81.699219 61.640625 81.933594 61.339844 C 82.164062 61.035156 82.386719 60.722656 82.609375 60.398438 C 82.632812 60.351562 82.664062 60.300781 82.695312 60.257812 C 82.726562 60.210938 82.757812 60.164062 82.78125 60.113281 C 82.824219 60.003906 82.898438 59.910156 82.996094 59.84375 C 83.042969 59.761719 83.121094 59.703125 83.207031 59.671875 C 83.296875 59.640625 83.394531 59.640625 83.480469 59.671875 C 83.570312 59.703125 83.644531 59.765625 83.691406 59.847656 C 83.742188 59.925781 83.761719 60.019531 83.75 60.113281 C 83.765625 60.242188 83.730469 60.375 83.652344 60.476562 C 83.46875 60.734375 83.292969 60.988281 83.117188 61.222656 L 82.589844 61.949219 L 82.078125 62.621094 C 81.902344 62.859375 81.710938 63.085938 81.507812 63.296875 C 81.210938 63.644531 80.90625 63.984375 80.589844 64.3125 C 80.269531 64.644531 79.925781 64.953125 79.554688 65.230469 C 79.296875 65.425781 79.035156 65.613281 78.773438 65.800781 C 78.507812 65.988281 78.226562 66.152344 77.933594 66.292969 C 77.59375 66.445312 77.242188 66.5625 76.878906 66.640625 C 76.523438 66.71875 76.152344 66.726562 75.789062 66.664062 C 75.339844 66.570312 74.917969 66.371094 74.5625 66.082031 C 74.203125 65.777344 73.949219 65.375 73.835938 64.921875 C 73.757812 64.667969 73.699219 64.410156 73.660156 64.148438 C 73.625 63.882812 73.65625 63.609375 73.757812 63.359375 C 73.851562 62.683594 74.0625 62.03125 74.375 61.425781 C 74.691406 60.824219 75.050781 60.25 75.457031 59.707031 C 75.625 59.484375 75.800781 59.273438 75.988281 59.058594 C 76.171875 58.847656 76.371094 58.648438 76.578125 58.449219 C 76.917969 58.148438 77.289062 57.882812 77.6875 57.667969 C 78.09375 57.453125 78.527344 57.292969 78.972656 57.195312 C 79.320312 57.140625 79.671875 57.1875 79.988281 57.332031 C 80.304688 57.480469 80.570312 57.714844 80.75 58.015625 C 80.828125 58.207031 80.886719 58.410156 80.925781 58.613281 C 80.960938 58.820312 80.949219 59.03125 80.882812 59.230469 C 80.625 60.300781 79.96875 61.230469 79.050781 61.839844 C 78.828125 62.007812 78.578125 62.144531 78.316406 62.25 L 77.542969 62.554688 C 77.261719 62.644531 76.96875 62.6875 76.675781 62.683594 C 76.382812 62.671875 76.089844 62.632812 75.804688 62.554688 C 75.554688 62.488281 75.332031 62.347656 75.167969 62.144531 C 75.101562 62.066406 75.0625 62.03125 75.039062 62.039062 C 75.019531 62.046875 74.996094 62.101562 74.953125 62.203125 C 74.851562 62.460938 74.757812 62.714844 74.675781 62.972656 C 74.597656 63.230469 74.582031 63.5 74.625 63.765625 Z M 76.636719 61.773438 C 76.867188 61.796875 77.097656 61.785156 77.324219 61.734375 C 77.546875 61.679688 77.761719 61.601562 77.96875 61.503906 C 78.214844 61.398438 78.441406 61.261719 78.648438 61.09375 C 78.851562 60.925781 79.054688 60.753906 79.246094 60.570312 C 79.445312 60.359375 79.621094 60.128906 79.765625 59.875 C 79.90625 59.636719 80.011719 59.375 80.078125 59.105469 C 80.140625 58.890625 80.132812 58.664062 80.054688 58.457031 C 80.023438 58.363281 79.972656 58.273438 79.898438 58.203125 C 79.828125 58.132812 79.742188 58.078125 79.648438 58.046875 C 79.414062 57.96875 79.164062 57.96875 78.933594 58.046875 C 78.527344 58.128906 78.144531 58.296875 77.8125 58.539062 C 77.492188 58.777344 77.175781 59.039062 76.863281 59.324219 C 76.71875 59.449219 76.582031 59.585938 76.453125 59.730469 C 76.328125 59.886719 76.203125 60.046875 76.089844 60.214844 C 75.972656 60.382812 75.878906 60.5 75.769531 60.625 C 75.660156 60.769531 75.566406 60.925781 75.492188 61.09375 C 75.476562 61.117188 75.46875 61.140625 75.460938 61.167969 C 75.460938 61.195312 75.460938 61.21875 75.507812 61.242188 C 75.695312 61.347656 75.871094 61.46875 76.039062 61.601562 C 76.121094 61.671875 76.214844 61.726562 76.320312 61.757812 C 76.421875 61.789062 76.53125 61.792969 76.636719 61.773438 Z M 76.636719 61.773438 "/>
<path style=" stroke:none;fill-rule:nonzero;fill:rgb(22.749329%,29.019165%,36.079407%);fill-opacity:1;" d="M 84.867188 57.949219 C 84.875 58.074219 84.839844 58.195312 84.769531 58.296875 C 84.714844 58.386719 84.671875 58.480469 84.632812 58.578125 C 84.597656 58.671875 84.566406 58.773438 84.539062 58.875 C 84.476562 59.105469 84.390625 59.328125 84.285156 59.542969 C 84.183594 59.753906 84.074219 59.953125 83.957031 60.191406 C 83.933594 60.253906 83.933594 60.292969 83.957031 60.304688 C 83.984375 60.316406 83.988281 60.304688 84.007812 60.304688 C 84.027344 60.292969 84.042969 60.28125 84.054688 60.265625 L 84.597656 59.734375 C 84.777344 59.558594 84.972656 59.394531 85.175781 59.246094 C 85.546875 58.957031 85.925781 58.6875 86.304688 58.425781 C 86.699219 58.15625 87.132812 57.957031 87.589844 57.835938 C 87.960938 57.730469 88.359375 57.773438 88.699219 57.953125 C 88.875 58.03125 89.027344 58.148438 89.15625 58.289062 C 89.285156 58.429688 89.382812 58.59375 89.445312 58.773438 C 89.457031 58.832031 89.453125 58.890625 89.4375 58.945312 C 89.421875 59 89.390625 59.050781 89.347656 59.09375 C 89.308594 59.136719 89.257812 59.171875 89.199219 59.191406 C 89.140625 59.207031 89.078125 59.210938 89.019531 59.195312 C 88.949219 59.167969 88.878906 59.148438 88.804688 59.136719 C 88.734375 59.125 88.667969 59.09375 88.613281 59.042969 C 88.515625 58.945312 88.398438 58.867188 88.265625 58.820312 C 88.136719 58.769531 88 58.746094 87.859375 58.753906 C 87.601562 58.785156 87.351562 58.871094 87.125 59.003906 C 86.589844 59.296875 86.082031 59.648438 85.617188 60.046875 C 85.15625 60.445312 84.722656 60.878906 84.328125 61.34375 C 83.613281 62.171875 82.984375 63.070312 82.449219 64.027344 C 82.269531 64.347656 82.117188 64.679688 81.988281 65.023438 C 81.859375 65.363281 81.738281 65.707031 81.621094 66.054688 C 81.507812 66.402344 81.367188 66.71875 81.253906 67.050781 C 81.136719 67.382812 81.007812 67.703125 80.867188 68.027344 C 80.804688 68.125 80.738281 68.21875 80.664062 68.304688 C 80.632812 68.34375 80.59375 68.375 80.546875 68.394531 C 80.503906 68.414062 80.453125 68.417969 80.40625 68.414062 C 80.289062 68.398438 80.183594 68.355469 80.09375 68.28125 C 80.003906 68.210938 79.9375 68.113281 79.902344 68.003906 C 79.886719 67.933594 79.878906 67.859375 79.878906 67.789062 C 79.929688 67.550781 80.003906 67.320312 80.09375 67.097656 L 80.363281 66.4375 L 81.234375 64.121094 C 81.464844 63.449219 81.714844 62.792969 81.988281 62.148438 C 82.179688 61.6875 82.398438 61.230469 82.597656 60.789062 C 82.796875 60.347656 83.007812 59.894531 83.246094 59.445312 C 83.359375 59.1875 83.472656 58.933594 83.589844 58.683594 C 83.710938 58.425781 83.847656 58.179688 84 57.9375 C 84.042969 57.84375 84.105469 57.761719 84.175781 57.6875 C 84.234375 57.644531 84.289062 57.59375 84.339844 57.542969 C 84.386719 57.496094 84.460938 57.496094 84.5625 57.542969 C 84.652344 57.582031 84.738281 57.636719 84.8125 57.707031 C 84.851562 57.78125 84.871094 57.863281 84.867188 57.949219 Z M 84.867188 57.949219 "/>
<path style=" stroke:none;fill-rule:nonzero;fill:rgb(22.749329%,29.019165%,36.079407%);fill-opacity:1;" d="M 91.105469 59.648438 L 91.824219 58.769531 C 92.058594 58.472656 92.324219 58.195312 92.613281 57.949219 C 92.910156 57.679688 93.21875 57.421875 93.539062 57.1875 C 93.867188 56.945312 94.230469 56.765625 94.621094 56.652344 C 94.789062 56.605469 94.960938 56.578125 95.132812 56.574219 C 95.308594 56.578125 95.484375 56.613281 95.648438 56.675781 C 95.808594 56.726562 95.953125 56.824219 96.058594 56.960938 C 96.152344 57.085938 96.226562 57.226562 96.28125 57.371094 C 96.382812 57.667969 96.457031 57.976562 96.496094 58.289062 C 96.53125 58.609375 96.511719 58.933594 96.433594 59.25 C 96.410156 59.382812 96.394531 59.519531 96.386719 59.660156 C 96.378906 59.796875 96.363281 59.933594 96.339844 60.066406 C 96.273438 60.476562 96.207031 60.914062 96.132812 61.320312 C 96.058594 61.730469 95.980469 62.140625 95.875 62.550781 C 95.847656 62.699219 95.828125 62.847656 95.820312 62.992188 C 95.820312 63.148438 95.785156 63.304688 95.757812 63.460938 L 95.683594 64.003906 C 95.65625 64.183594 95.65625 64.363281 95.683594 64.542969 L 95.683594 64.773438 C 95.664062 64.847656 95.667969 64.929688 95.695312 65 C 95.722656 65.074219 95.769531 65.136719 95.835938 65.183594 C 95.867188 65.203125 95.902344 65.214844 95.9375 65.214844 C 95.972656 65.214844 96.011719 65.203125 96.039062 65.183594 C 96.109375 65.148438 96.171875 65.101562 96.222656 65.046875 C 96.363281 64.921875 96.511719 64.804688 96.667969 64.699219 C 96.824219 64.597656 96.949219 64.457031 97.035156 64.289062 C 97.421875 63.875 97.773438 63.4375 98.097656 62.972656 C 98.417969 62.511719 98.753906 62.058594 99.101562 61.621094 C 99.332031 61.328125 99.550781 61.027344 99.757812 60.722656 C 99.960938 60.421875 100.167969 60.113281 100.398438 59.804688 C 100.453125 59.714844 100.535156 59.644531 100.628906 59.597656 C 100.726562 59.550781 100.832031 59.527344 100.9375 59.535156 C 101.027344 59.550781 101.105469 59.597656 101.160156 59.671875 C 101.179688 59.707031 101.195312 59.75 101.199219 59.792969 C 101.207031 59.835938 101.203125 59.878906 101.1875 59.921875 C 101.175781 59.960938 101.164062 60.003906 101.160156 60.046875 C 101.152344 60.09375 101.132812 60.136719 101.109375 60.175781 C 100.894531 60.507812 100.667969 60.847656 100.433594 61.1875 C 100.199219 61.527344 99.96875 61.867188 99.738281 62.199219 L 99.152344 63.019531 C 98.949219 63.289062 98.742188 63.554688 98.539062 63.8125 L 97.894531 64.65625 C 97.675781 64.929688 97.433594 65.1875 97.171875 65.417969 C 97.09375 65.492188 97.007812 65.570312 96.917969 65.648438 C 96.828125 65.726562 96.738281 65.796875 96.648438 65.859375 C 96.5 65.960938 96.332031 66.027344 96.15625 66.050781 C 95.980469 66.082031 95.796875 66.082031 95.621094 66.050781 C 95.507812 66.035156 95.402344 65.988281 95.304688 65.921875 C 95.210938 65.855469 95.136719 65.769531 95.082031 65.667969 C 95.019531 65.5625 94.957031 65.460938 94.902344 65.359375 C 94.839844 65.246094 94.8125 65.117188 94.832031 64.988281 C 94.84375 64.902344 94.828125 64.816406 94.78125 64.742188 C 94.738281 64.65625 94.726562 64.558594 94.753906 64.46875 C 94.820312 64.097656 94.867188 63.726562 94.902344 63.367188 C 94.929688 63.003906 94.992188 62.640625 95.082031 62.285156 C 95.132812 62.066406 95.179688 61.851562 95.214844 61.636719 C 95.253906 61.425781 95.289062 61.226562 95.316406 60.988281 C 95.339844 60.742188 95.378906 60.492188 95.429688 60.25 C 95.480469 60.007812 95.519531 59.765625 95.546875 59.523438 C 95.574219 59.226562 95.589844 58.929688 95.605469 58.625 C 95.617188 58.320312 95.578125 58.019531 95.488281 57.726562 C 95.4375 57.570312 95.390625 57.484375 95.351562 57.464844 C 95.261719 57.4375 95.171875 57.421875 95.082031 57.417969 C 94.929688 57.417969 94.777344 57.453125 94.636719 57.515625 C 94.398438 57.628906 94.167969 57.765625 93.953125 57.925781 C 93.742188 58.082031 93.542969 58.25 93.324219 58.429688 C 92.882812 58.875 92.472656 59.347656 92.09375 59.847656 C 91.710938 60.347656 91.359375 60.875 91.042969 61.421875 C 90.8125 61.832031 90.59375 62.238281 90.398438 62.648438 C 90.199219 63.058594 89.988281 63.46875 89.765625 63.878906 C 89.738281 63.917969 89.71875 63.960938 89.707031 64.007812 C 89.699219 64.050781 89.679688 64.09375 89.652344 64.128906 C 89.621094 64.191406 89.578125 64.246094 89.527344 64.289062 C 89.472656 64.332031 89.410156 64.363281 89.34375 64.378906 C 89.273438 64.394531 89.199219 64.394531 89.128906 64.378906 C 89.058594 64.363281 88.988281 64.332031 88.933594 64.285156 C 88.894531 64.261719 88.859375 64.226562 88.835938 64.1875 C 88.8125 64.144531 88.800781 64.097656 88.796875 64.050781 C 88.808594 63.953125 88.808594 63.851562 88.796875 63.753906 C 88.789062 63.65625 88.800781 63.558594 88.835938 63.46875 C 89.015625 62.980469 89.179688 62.488281 89.335938 61.980469 C 89.492188 61.476562 89.660156 60.988281 89.839844 60.496094 C 89.957031 60.21875 90.054688 59.9375 90.125 59.644531 C 90.21875 59.332031 90.355469 59.03125 90.535156 58.757812 C 90.710938 58.480469 90.847656 58.179688 90.945312 57.867188 L 90.996094 57.730469 C 91.007812 57.703125 91.023438 57.679688 91.046875 57.660156 C 91.066406 57.640625 91.09375 57.625 91.121094 57.617188 C 91.207031 57.582031 91.292969 57.554688 91.378906 57.539062 C 91.417969 57.535156 91.453125 57.535156 91.488281 57.546875 C 91.523438 57.554688 91.558594 57.574219 91.585938 57.597656 C 91.664062 57.644531 91.722656 57.71875 91.757812 57.800781 C 91.78125 57.894531 91.769531 57.996094 91.71875 58.082031 C 91.644531 58.273438 91.5625 58.464844 91.480469 58.65625 C 91.398438 58.851562 91.304688 59.046875 91.214844 59.238281 C 91.191406 59.304688 91.164062 59.371094 91.128906 59.441406 C 91.101562 59.519531 91.101562 59.605469 91.128906 59.683594 C 91.105469 59.671875 91.078125 59.671875 91.050781 59.683594 C 91.027344 59.734375 91.039062 59.746094 91.089844 59.71875 C 91.085938 59.714844 91.085938 59.710938 91.085938 59.707031 C 91.085938 59.699219 91.085938 59.695312 91.089844 59.691406 C 91.097656 59.679688 91.105469 59.664062 91.105469 59.648438 Z M 91.105469 59.648438 "/>
<path style=" stroke:none;fill-rule:nonzero;fill:rgb(22.749329%,29.019165%,36.079407%);fill-opacity:1;" d="M 99.648438 63.765625 C 99.601562 64.125 99.648438 64.488281 99.78125 64.824219 C 99.839844 65.015625 99.945312 65.1875 100.089844 65.328125 C 100.226562 65.464844 100.386719 65.578125 100.5625 65.667969 C 100.734375 65.75 100.921875 65.804688 101.113281 65.832031 C 101.300781 65.855469 101.484375 65.855469 101.671875 65.832031 C 102.066406 65.773438 102.445312 65.644531 102.792969 65.453125 C 103.128906 65.269531 103.460938 65.042969 103.796875 64.824219 C 104.09375 64.605469 104.375 64.367188 104.636719 64.109375 C 104.902344 63.855469 105.15625 63.597656 105.402344 63.339844 C 105.570312 63.167969 105.734375 62.988281 105.882812 62.796875 C 106.027344 62.617188 106.167969 62.429688 106.292969 62.234375 C 106.511719 61.941406 106.738281 61.640625 106.96875 61.339844 C 107.199219 61.035156 107.425781 60.722656 107.648438 60.398438 C 107.671875 60.351562 107.699219 60.300781 107.734375 60.257812 C 107.765625 60.210938 107.792969 60.164062 107.820312 60.113281 C 107.863281 60.003906 107.9375 59.910156 108.03125 59.84375 C 108.109375 59.757812 108.21875 59.707031 108.332031 59.699219 C 108.449219 59.691406 108.5625 59.726562 108.652344 59.800781 C 108.691406 59.84375 108.726562 59.890625 108.75 59.945312 C 108.773438 59.996094 108.785156 60.054688 108.785156 60.113281 C 108.800781 60.242188 108.765625 60.375 108.6875 60.476562 C 108.507812 60.734375 108.332031 60.988281 108.160156 61.222656 L 107.625 61.949219 L 107.113281 62.621094 C 106.9375 62.859375 106.746094 63.085938 106.542969 63.296875 C 106.25 63.644531 105.941406 63.988281 105.625 64.3125 C 105.304688 64.644531 104.960938 64.953125 104.59375 65.230469 C 104.335938 65.425781 104.074219 65.613281 103.8125 65.800781 C 103.546875 65.988281 103.265625 66.152344 102.96875 66.292969 C 102.632812 66.445312 102.28125 66.5625 101.917969 66.640625 C 101.558594 66.71875 101.1875 66.726562 100.828125 66.664062 C 100.375 66.570312 99.953125 66.371094 99.597656 66.082031 C 99.242188 65.777344 98.992188 65.371094 98.871094 64.921875 C 98.792969 64.667969 98.738281 64.410156 98.699219 64.148438 C 98.660156 63.882812 98.695312 63.609375 98.792969 63.359375 C 98.890625 62.683594 99.101562 62.03125 99.414062 61.425781 C 99.726562 60.824219 100.089844 60.25 100.496094 59.707031 C 100.664062 59.484375 100.839844 59.273438 101.027344 59.058594 C 101.214844 58.847656 101.410156 58.640625 101.613281 58.449219 C 101.953125 58.148438 102.328125 57.886719 102.726562 57.667969 C 103.128906 57.453125 103.5625 57.292969 104.011719 57.195312 C 104.355469 57.132812 104.710938 57.179688 105.023438 57.332031 C 105.34375 57.464844 105.613281 57.703125 105.785156 58.007812 C 105.863281 58.199219 105.921875 58.398438 105.960938 58.605469 C 106 58.8125 105.984375 59.023438 105.921875 59.222656 C 105.660156 60.292969 105.007812 61.222656 104.089844 61.832031 C 103.863281 62 103.617188 62.136719 103.355469 62.238281 L 102.582031 62.546875 C 102.300781 62.636719 102.007812 62.679688 101.710938 62.675781 C 101.417969 62.664062 101.128906 62.621094 100.84375 62.546875 C 100.59375 62.480469 100.367188 62.339844 100.203125 62.136719 C 100.140625 62.058594 100.097656 62.023438 100.082031 62.03125 C 100.066406 62.039062 100.03125 62.09375 99.992188 62.195312 C 99.890625 62.453125 99.792969 62.707031 99.710938 62.964844 C 99.628906 63.222656 99.605469 63.496094 99.648438 63.765625 Z M 101.65625 61.773438 C 101.882812 61.796875 102.113281 61.785156 102.339844 61.734375 C 102.5625 61.679688 102.78125 61.601562 102.988281 61.503906 C 103.230469 61.398438 103.460938 61.261719 103.664062 61.09375 C 103.867188 60.925781 104.074219 60.753906 104.261719 60.570312 C 104.460938 60.359375 104.636719 60.128906 104.78125 59.875 C 104.921875 59.636719 105.027344 59.375 105.09375 59.105469 C 105.15625 58.890625 105.148438 58.664062 105.074219 58.457031 C 105.042969 58.363281 104.988281 58.273438 104.917969 58.203125 C 104.847656 58.132812 104.757812 58.078125 104.664062 58.046875 C 104.433594 57.96875 104.179688 57.96875 103.949219 58.046875 C 103.546875 58.128906 103.164062 58.296875 102.832031 58.539062 C 102.5 58.78125 102.1875 59.042969 101.882812 59.324219 C 101.738281 59.449219 101.601562 59.585938 101.476562 59.730469 C 101.34375 59.886719 101.21875 60.046875 101.105469 60.214844 C 101.003906 60.355469 100.898438 60.5 100.785156 60.625 C 100.675781 60.769531 100.582031 60.929688 100.507812 61.09375 C 100.496094 61.117188 100.484375 61.140625 100.480469 61.167969 C 100.480469 61.195312 100.480469 61.21875 100.527344 61.242188 C 100.710938 61.347656 100.890625 61.46875 101.054688 61.601562 C 101.136719 61.671875 101.230469 61.726562 101.335938 61.757812 C 101.4375 61.789062 101.546875 61.792969 101.65625 61.773438 Z M 101.65625 61.773438 "/>
<path style=" stroke:none;fill-rule:nonzero;fill:rgb(100%,100%,100%);fill-opacity:1;" d="M 80.464844 23.824219 C 79.355469 24.171875 78.363281 24.820312 77.597656 25.699219 C 76.59375 26.8125 75.574219 27.90625 74.050781 28.378906 C 74.148438 28.554688 74.210938 28.679688 74.269531 28.789062 C 74.328125 28.890625 74.339844 29.011719 74.3125 29.125 C 74.28125 29.238281 74.207031 29.335938 74.105469 29.394531 C 74.0625 29.425781 74.011719 29.445312 73.960938 29.453125 C 73.90625 29.464844 73.855469 29.460938 73.804688 29.449219 C 73.75 29.4375 73.703125 29.414062 73.660156 29.382812 C 73.621094 29.347656 73.585938 29.308594 73.5625 29.261719 C 73.328125 28.941406 73.152344 28.589844 72.867188 28.140625 L 71.882812 27.730469 C 71.976562 28.050781 72.117188 28.355469 72.292969 28.632812 C 72.601562 29.222656 72.902344 29.816406 73.175781 30.425781 C 73.207031 30.582031 73.207031 30.746094 73.175781 30.902344 L 73.003906 30.945312 C 71.960938 30.003906 71.382812 28.710938 70.582031 27.484375 L 70.039062 27.984375 C 70.070312 28.117188 70.109375 28.242188 70.160156 28.367188 C 70.488281 28.917969 70.800781 29.476562 71.160156 30.007812 C 71.890625 31.097656 72.65625 32.171875 73.390625 33.257812 C 73.527344 33.449219 73.707031 33.667969 73.519531 33.976562 C 72.535156 33.339844 71.988281 32.359375 71.34375 31.476562 C 70.699219 30.597656 70.113281 29.667969 69.484375 28.722656 C 69.265625 28.96875 69.074219 29.210938 68.824219 29.484375 C 68.980469 29.710938 69.132812 29.894531 69.265625 30.121094 C 69.867188 31.105469 70.46875 32.089844 71.050781 33.082031 C 71.195312 33.332031 71.398438 33.65625 71.050781 33.898438 C 70.707031 34.140625 70.480469 33.808594 70.3125 33.589844 C 69.648438 32.703125 69.015625 31.796875 68.371094 30.894531 C 68.273438 30.757812 68.183594 30.605469 68.042969 30.390625 L 67.113281 31.667969 C 68.523438 33.652344 69.34375 35.226562 69.320312 35.882812 C 68.570312 35.585938 68.523438 35.53125 66.449219 32.46875 L 65.734375 33.367188 C 65.945312 33.691406 66.140625 33.992188 66.339844 34.304688 C 66.75 34.96875 67.160156 35.632812 67.570312 36.304688 C 67.628906 36.46875 67.667969 36.644531 67.683594 36.816406 C 67.117188 36.523438 66.621094 36.101562 66.242188 35.589844 C 65.855469 35.121094 65.515625 34.617188 65.136719 34.105469 L 64.246094 35.0625 C 64.507812 35.503906 64.78125 35.902344 64.996094 36.335938 C 65.207031 36.765625 65.613281 37.089844 65.367188 37.691406 C 64.484375 37.378906 64.136719 36.570312 63.59375 35.957031 C 62.835938 36.199219 62.363281 35.773438 62.007812 35.195312 C 61.847656 34.914062 61.710938 34.621094 61.597656 34.316406 C 61.492188 34.082031 61.386719 33.84375 61.230469 33.472656 C 61.003906 33.882812 60.839844 34.160156 60.703125 34.449219 C 60.292969 35.269531 59.914062 36.117188 59.542969 36.960938 C 58.601562 39.042969 57.488281 41.042969 56.21875 42.941406 C 55.714844 43.660156 55.15625 44.335938 54.542969 44.964844 C 54.027344 45.535156 53.453125 46.050781 52.84375 46.648438 C 54.042969 47.015625 55.179688 47.375 56.328125 47.695312 C 56.871094 47.878906 57.441406 47.984375 58.015625 48.011719 C 59.027344 47.96875 60.039062 47.871094 61.039062 47.726562 C 62.570312 47.542969 64.085938 47.210938 65.640625 47.28125 C 65.699219 47.28125 65.757812 47.242188 65.878906 47.203125 C 65.75 47.050781 65.640625 46.941406 65.550781 46.816406 C 65.359375 46.554688 65.472656 46.339844 65.667969 46.140625 C 65.859375 45.945312 66.078125 46.011719 66.265625 46.195312 C 66.453125 46.378906 66.675781 46.636719 66.855469 46.871094 C 67.320312 47.445312 67.574219 47.511719 68.320312 47.242188 C 67.847656 46.617188 67.367188 46.011719 66.90625 45.367188 C 66.753906 45.160156 66.632812 44.9375 66.539062 44.703125 C 66.507812 44.558594 66.523438 44.402344 66.582031 44.265625 C 66.640625 44.128906 66.742188 44.011719 66.871094 43.9375 C 67.136719 43.78125 67.28125 43.96875 67.472656 44.117188 C 67.542969 44.179688 67.605469 44.25 67.660156 44.324219 C 68.363281 45.269531 69.078125 46.199219 69.765625 47.152344 C 69.824219 47.253906 69.90625 47.335938 70.003906 47.394531 C 70.101562 47.457031 70.210938 47.488281 70.328125 47.496094 C 70.992188 47.496094 71.664062 47.546875 72.328125 47.496094 C 73.554688 47.414062 74.757812 47.171875 75.972656 47.171875 C 79.179688 47.171875 82.382812 47.03125 85.589844 47.28125 C 86.851562 47.378906 88.121094 47.382812 89.394531 47.40625 C 91.742188 47.449219 94.09375 47.542969 96.507812 47.070312 C 96.382812 46.847656 96.292969 46.691406 96.210938 46.53125 C 95.851562 45.808594 95.484375 45.09375 95.136719 44.367188 C 95.023438 44.140625 94.949219 43.894531 94.917969 43.640625 C 94.917969 43.519531 95.042969 43.382812 95.117188 43.253906 C 95.242188 43.324219 95.429688 43.367188 95.484375 43.472656 C 95.894531 44.292969 96.261719 45.140625 96.652344 45.976562 C 96.726562 46.132812 96.816406 46.28125 96.941406 46.507812 C 97.117188 46.0625 97.351562 45.777344 97.167969 45.332031 C 96.703125 44.253906 96.285156 43.152344 95.867188 42.050781 C 95.710938 41.640625 95.609375 41.210938 95.496094 40.789062 C 95.417969 40.519531 95.464844 40.296875 95.84375 40.191406 C 96.738281 41.5 97 43.058594 97.707031 44.527344 C 98.085938 43.980469 98.292969 43.535156 98.011719 42.886719 C 97.601562 41.960938 97.320312 40.980469 96.964844 40.019531 C 96.863281 39.742188 96.847656 39.539062 97.242188 39.390625 C 97.707031 40.457031 98.167969 41.511719 98.667969 42.644531 C 99.117188 42.046875 99.347656 41.566406 99.078125 40.875 C 98.574219 39.609375 98.183594 38.304688 97.722656 37.023438 C 97.613281 36.714844 97.660156 36.550781 98.050781 36.449219 C 98.703125 37.539062 99.070312 38.753906 99.648438 40.039062 C 99.757812 39.296875 99.894531 38.707031 99.710938 38.136719 C 99.351562 37 98.949219 35.867188 98.535156 34.742188 C 98.414062 34.402344 98.535156 34.292969 98.90625 34.191406 L 99.945312 36.585938 C 100.070312 36.375 100.152344 36.144531 100.183594 35.902344 C 100.21875 35.664062 100.203125 35.417969 100.140625 35.183594 C 99.914062 34.457031 99.75 33.714844 99.582031 32.972656 C 99.523438 32.726562 99.511719 32.472656 99.539062 32.21875 C 99.566406 32.148438 99.605469 32.085938 99.65625 32.03125 C 99.710938 31.976562 99.773438 31.9375 99.84375 31.914062 C 99.925781 31.886719 100.117188 32.015625 100.160156 32.117188 C 100.300781 32.453125 100.40625 32.808594 100.515625 33.15625 C 100.597656 33.40625 100.667969 33.65625 100.742188 33.90625 L 100.917969 33.878906 C 100.933594 33.714844 100.933594 33.546875 100.917969 33.382812 C 100.761719 32.640625 100.601562 31.894531 100.414062 31.160156 C 100.351562 30.925781 100.34375 30.71875 100.597656 30.679688 C 100.851562 30.636719 100.851562 30.847656 100.867188 31.050781 C 100.898438 31.589844 101.058594 32.117188 101.339844 32.582031 C 102.269531 30.785156 101.992188 28.941406 101.691406 26.988281 C 101.574219 27.152344 101.511719 27.222656 101.464844 27.300781 C 100.152344 29.582031 98.753906 31.808594 97.296875 33.988281 C 96.257812 35.511719 95.425781 37.167969 94.820312 38.90625 C 94.660156 39.363281 94.476562 39.8125 94.261719 40.242188 C 94.117188 40.546875 93.914062 40.820312 93.660156 41.039062 C 93.40625 41.257812 93.109375 41.425781 92.785156 41.523438 C 92.132812 41.78125 91.410156 41.8125 90.738281 41.609375 C 90.488281 41.519531 90.214844 41.507812 89.960938 41.574219 C 89.703125 41.640625 89.472656 41.78125 89.292969 41.976562 C 88.054688 43.121094 86.945312 44.398438 85.992188 45.789062 C 85.835938 46.019531 85.683594 46.253906 85.515625 46.46875 C 85.347656 46.6875 85.175781 46.878906 84.878906 46.789062 C 84.734375 46.753906 84.601562 46.671875 84.5 46.558594 C 84.398438 46.445312 84.335938 46.304688 84.316406 46.152344 C 84.289062 45.925781 84.28125 45.695312 84.289062 45.464844 C 84.320312 44.175781 84.324219 42.878906 84.40625 41.59375 C 84.394531 41.039062 84.164062 40.511719 83.765625 40.128906 C 83.5625 39.875 83.078125 39.832031 82.707031 39.71875 C 82.304688 39.636719 81.90625 39.53125 81.515625 39.402344 C 81.238281 39.308594 81.007812 39.109375 80.871094 38.851562 C 80.730469 38.59375 80.699219 38.289062 80.773438 38.007812 C 80.835938 37.597656 80.9375 37.1875 81.03125 36.777344 C 81.207031 36.015625 81.128906 35.84375 80.375 35.613281 C 79.9375 35.476562 79.480469 35.417969 79.03125 35.296875 C 78.253906 35.09375 77.46875 34.886719 76.703125 34.648438 C 76.109375 34.460938 76.019531 34.207031 76.292969 33.667969 C 76.429688 33.402344 76.59375 33.148438 76.753906 32.894531 C 78.480469 30.1875 80.417969 27.632812 82.386719 25.109375 C 84.089844 22.925781 85.863281 20.796875 87.605469 18.644531 C 87.699219 18.515625 87.78125 18.378906 87.855469 18.234375 C 87.339844 18.597656 86.84375 18.996094 86.378906 19.425781 C 85.042969 20.554688 83.71875 21.707031 82.339844 22.785156 C 81.78125 23.238281 81.148438 23.59375 80.464844 23.824219 Z M 70.695312 45.027344 C 70.554688 44.988281 70.417969 44.9375 70.285156 44.871094 C 69.570312 44.332031 68.96875 43.65625 68.519531 42.882812 C 68.453125 42.804688 68.417969 42.703125 68.417969 42.597656 C 68.417969 42.496094 68.453125 42.394531 68.519531 42.3125 C 68.683594 42.097656 68.898438 41.992188 69.089844 42.222656 C 69.738281 42.988281 70.410156 43.742188 70.730469 44.730469 C 70.765625 44.808594 70.714844 44.90625 70.695312 45.027344 Z M 71.609375 43.667969 C 71.40625 43.589844 71.210938 43.484375 71.035156 43.351562 C 70.757812 43.078125 70.503906 42.78125 70.28125 42.460938 C 69.941406 41.96875 69.96875 41.898438 70.5 41.472656 C 71.238281 41.878906 71.8125 42.945312 71.621094 43.671875 Z M 73.347656 43.558594 C 73.261719 43.53125 73.179688 43.484375 73.113281 43.421875 C 72.128906 42.558594 71.25 41.578125 70.503906 40.503906 C 70.335938 40.238281 70.21875 39.976562 70.460938 39.683594 C 70.703125 39.386719 70.851562 39.394531 71.105469 39.601562 C 71.175781 39.660156 71.238281 39.726562 71.292969 39.796875 C 72.007812 40.757812 72.714844 41.710938 73.421875 42.667969 C 73.53125 42.839844 73.628906 43.015625 73.714844 43.203125 C 73.722656 43.507812 73.550781 43.632812 73.347656 43.5625 Z M 74.71875 41.511719 C 74.394531 41.347656 74.085938 41.148438 73.804688 40.917969 C 73.53125 40.671875 73.28125 40.398438 73.066406 40.097656 C 73.011719 40.042969 72.96875 39.980469 72.941406 39.910156 C 72.914062 39.839844 72.902344 39.765625 72.90625 39.691406 C 72.910156 39.613281 72.933594 39.542969 72.96875 39.476562 C 73.003906 39.410156 73.054688 39.351562 73.113281 39.304688 C 73.375 39.082031 73.605469 39.226562 73.773438 39.417969 C 74.222656 39.929688 74.648438 40.46875 75.078125 41.003906 C 75.117188 41.066406 75.144531 41.136719 75.164062 41.207031 C 75.160156 41.492188 74.953125 41.628906 74.71875 41.511719 Z M 74.71875 41.511719 "/>
</g>
</svg>
