<?xml version="1.0" encoding="UTF-8"?>
<svg xmlns="http://www.w3.org/2000/svg" xmlns:xlink="http://www.w3.org/1999/xlink" width="165pt" height="82.499998pt" viewBox="0 0 165 82.499998" version="1.2">
<defs>
<clipPath id="clip1">
  <path d="M 0.496094 0 L 164.503906 0 L 164.503906 82.003906 L 0.496094 82.003906 Z M 0.496094 0 "/>
</clipPath>
</defs>
<g id="surface1">
<g clip-path="url(#clip1)" clip-rule="nonzero">
<path style=" stroke:none;fill-rule:nonzero;fill:rgb(100%,100%,100%);fill-opacity:1;" d="M 0.496094 0 L 164.503906 0 L 164.503906 89.457031 L 0.496094 89.457031 Z M 0.496094 0 "/>
<path style=" stroke:none;fill-rule:nonzero;fill:rgb(100%,100%,100%);fill-opacity:1;" d="M 0.496094 0 L 164.503906 0 L 164.503906 82.003906 L 0.496094 82.003906 Z M 0.496094 0 "/>
<path style=" stroke:none;fill-rule:nonzero;fill:rgb(100%,100%,100%);fill-opacity:1;" d="M 0.496094 0 L 164.503906 0 L 164.503906 82.003906 L 0.496094 82.003906 Z M 0.496094 0 "/>
</g>
<path style=" stroke:none;fill-rule:nonzero;fill:rgb(21.958923%,60.778809%,83.918762%);fill-opacity:1;" d="M 88.625 55.753906 C 86.996094 54.203125 86.09375 52.109375 86.09375 49.855469 C 86.09375 45.355469 89.769531 41.695312 94.289062 41.695312 C 96.132812 41.695312 97.859375 42.285156 99.300781 43.394531 L 118.710938 9.917969 L 90.988281 9.917969 L 82.664062 24.273438 L 74.339844 9.917969 L 46.613281 9.917969 L 82.664062 72.085938 L 90.847656 57.972656 C 89.625 56.75 88.722656 55.847656 88.625 55.753906 Z M 88.625 55.753906 "/>
<path style=" stroke:none;fill-rule:nonzero;fill:rgb(10.978699%,24.308777%,56.858826%);fill-opacity:1;" d="M 90.988281 9.917969 L 82.664062 24.273438 L 74.339844 9.917969 L 61.035156 9.917969 L 82.664062 47.21875 L 104.292969 9.917969 Z M 90.988281 9.917969 "/>
<path style=" stroke:none;fill-rule:nonzero;fill:rgb(88.62915%,2.749634%,9.01947%);fill-opacity:1;" d="M 111.484375 49.859375 C 111.484375 51.847656 110.648438 53.644531 109.308594 54.917969 C 109.285156 54.9375 99.378906 64.84375 99.378906 64.84375 C 99.378906 64.84375 89.464844 54.941406 89.445312 54.921875 C 88.101562 53.648438 87.265625 51.851562 87.265625 49.859375 C 87.265625 45.992188 90.414062 42.859375 94.289062 42.859375 C 96.289062 42.859375 98.097656 43.695312 99.378906 45.027344 C 100.652344 43.695312 102.457031 42.859375 104.460938 42.859375 C 108.339844 42.859375 111.484375 45.992188 111.484375 49.859375 Z M 111.484375 49.859375 "/>
<path style=" stroke:none;fill-rule:nonzero;fill:rgb(60.778809%,30.198669%,8.628845%);fill-opacity:0.6;" d="M 111.484375 49.859375 C 111.484375 51.675781 110.785156 53.335938 109.632812 54.582031 L 99.371094 64.84375 L 99.371094 53.855469 L 108.832031 44.394531 C 110.453125 45.671875 111.484375 47.644531 111.484375 49.859375 Z M 111.484375 49.859375 "/>
<path style=" stroke:none;fill-rule:nonzero;fill:rgb(60.778809%,30.198669%,8.628845%);fill-opacity:0.6;" d="M 99.371094 45.03125 L 99.371094 53.855469 L 89.90625 44.390625 C 91.109375 43.433594 92.632812 42.863281 94.285156 42.863281 C 96.285156 42.863281 98.09375 43.695312 99.371094 45.03125 Z M 99.371094 45.03125 "/>
<path style=" stroke:none;fill-rule:nonzero;fill:rgb(100%,100%,100%);fill-opacity:1;" d="M 94.175781 54.75 L 94.792969 53.675781 C 95.050781 53.921875 95.386719 54.148438 95.839844 54.148438 C 96.464844 54.148438 96.871094 53.734375 96.871094 53.09375 L 96.871094 48.695312 L 98.277344 48.695312 L 98.277344 53.113281 C 98.277344 54.671875 97.308594 55.390625 95.949219 55.390625 C 95.289062 55.390625 94.652344 55.210938 94.175781 54.75 Z M 94.175781 54.75 "/>
<path style=" stroke:none;fill-rule:nonzero;fill:rgb(100%,100%,100%);fill-opacity:1;" d="M 99.136719 54.34375 L 99.898438 53.277344 C 100.367188 53.761719 101.089844 54.167969 102 54.167969 C 102.773438 54.167969 103.148438 53.8125 103.148438 53.4375 C 103.148438 52.273438 99.34375 53.074219 99.34375 50.597656 C 99.34375 49.503906 100.296875 48.59375 101.851562 48.59375 C 102.902344 48.59375 103.773438 48.910156 104.425781 49.511719 L 103.644531 50.539062 C 103.109375 50.042969 102.398438 49.816406 101.722656 49.816406 C 101.121094 49.816406 100.78125 50.085938 100.78125 50.480469 C 100.78125 51.523438 104.574219 50.824219 104.574219 53.277344 C 104.574219 54.484375 103.710938 55.390625 101.929688 55.390625 C 100.664062 55.390625 99.75 54.964844 99.136719 54.34375 Z M 99.136719 54.34375 "/>
</g>
</svg>
