<svg xmlns="http://www.w3.org/2000/svg" width="165" viewBox="0 0 165 82.5" height="82.5" version="1.0"><defs><clipPath id="a"><path d="M 0.496094 0 L 164.503906 0 L 164.503906 82.003906 L 0.496094 82.003906 Z M 0.496094 0"/></clipPath><clipPath id="b"><path d="M 0.496094 20.117188 L 74 20.117188 L 74 52 L 0.496094 52 Z M 0.496094 20.117188"/></clipPath><clipPath id="c"><path d="M 74 20.117188 L 125 20.117188 L 125 61.863281 L 74 61.863281 Z M 74 20.117188"/></clipPath><clipPath id="d"><path d="M 122 20.117188 L 164.503906 20.117188 L 164.503906 52 L 122 52 Z M 122 20.117188"/></clipPath></defs><g clip-path="url(#a)" fill="#FFF"><path d="M 0.496094 0 L 164.503906 0 L 164.503906 89.457031 L 0.496094 89.457031 Z M 0.496094 0"/><path d="M 0.496094 0 L 164.503906 0 L 164.503906 82.003906 L 0.496094 82.003906 Z M 0.496094 0"/><path d="M 0.496094 0 L 164.503906 0 L 164.503906 82.003906 L 0.496094 82.003906 Z M 0.496094 0"/></g><g clip-path="url(#b)"><path fill="#18CA84" d="M 0.519531 20.117188 L 6.75 20.117188 L 13.070312 38.511719 L 14.179688 42.4375 L 14.519531 42.4375 L 15.714844 38.511719 L 22.289062 20.117188 L 28.523438 20.117188 L 17.378906 50.671875 L 11.316406 50.671875 Z M 43.761719 47.941406 L 43.421875 47.941406 C 42.765625 48.996094 41.882812 49.828125 40.773438 50.4375 C 39.664062 51.050781 38.398438 51.355469 36.976562 51.355469 C 34.328125 51.355469 32.355469 50.546875 31.0625 48.925781 C 29.765625 47.300781 29.121094 45.140625 29.121094 42.4375 L 29.121094 29.761719 L 34.710938 29.761719 L 34.710938 41.753906 C 34.710938 43.261719 35.046875 44.378906 35.714844 45.105469 C 36.382812 45.828125 37.359375 46.191406 38.640625 46.191406 C 39.40625 46.191406 40.082031 46.027344 40.667969 45.703125 C 41.25 45.375 41.75 44.933594 42.160156 44.378906 C 42.574219 43.824219 42.886719 43.167969 43.101562 42.414062 C 43.3125 41.660156 43.421875 40.859375 43.421875 40.003906 L 43.421875 29.761719 L 49.011719 29.761719 L 49.011719 50.671875 L 43.761719 50.671875 Z M 72.75 45.636719 C 71.78125 47.34375 70.480469 48.726562 68.84375 49.777344 C 67.207031 50.832031 65.207031 51.355469 62.84375 51.355469 C 61.25 51.355469 59.777344 51.078125 58.425781 50.523438 C 57.074219 49.96875 55.898438 49.195312 54.902344 48.199219 C 53.90625 47.203125 53.132812 46.027344 52.578125 44.679688 C 52.023438 43.328125 51.746094 41.839844 51.746094 40.21875 C 51.746094 38.710938 52.015625 37.28125 52.554688 35.929688 C 53.097656 34.578125 53.851562 33.398438 54.820312 32.386719 C 55.785156 31.375 56.933594 30.574219 58.253906 29.976562 C 59.578125 29.378906 61.035156 29.078125 62.632812 29.078125 C 64.308594 29.078125 65.804688 29.355469 67.113281 29.910156 C 68.421875 30.464844 69.519531 31.234375 70.402344 32.214844 C 71.28125 33.199219 71.953125 34.355469 72.40625 35.695312 C 72.863281 37.03125 73.089844 38.484375 73.089844 40.046875 L 73.089844 40.558594 C 73.0625 40.714844 73.046875 40.871094 73.046875 41.027344 C 73.015625 41.183594 73.003906 41.339844 73.003906 41.5 L 57.253906 41.5 C 57.367188 42.351562 57.601562 43.085938 57.957031 43.695312 C 58.3125 44.308594 58.753906 44.820312 59.28125 45.234375 C 59.804688 45.644531 60.382812 45.945312 61.007812 46.128906 C 61.632812 46.3125 62.28125 46.40625 62.929688 46.40625 C 64.210938 46.40625 65.269531 46.113281 66.109375 45.53125 C 66.949219 44.949219 67.613281 44.214844 68.09375 43.332031 Z M 67.667969 37.527344 C 67.640625 37.160156 67.519531 36.746094 67.304688 36.292969 C 67.09375 35.835938 66.777344 35.410156 66.367188 35.011719 C 65.953125 34.613281 65.441406 34.285156 64.828125 34.03125 C 64.21875 33.773438 63.484375 33.644531 62.632812 33.644531 C 61.4375 33.644531 60.382812 33.988281 59.472656 34.667969 C 58.5625 35.351562 57.921875 36.304688 57.550781 37.527344 Z M 67.667969 37.527344"/></g><g clip-path="url(#c)"><path fill="#2C3E50" d="M 94.777344 20.117188 L 94.777344 40.984375 C 94.777344 42.691406 94.511719 44.195312 93.984375 45.488281 C 93.460938 46.78125 92.75 47.863281 91.851562 48.730469 C 90.957031 49.601562 89.902344 50.253906 88.691406 50.695312 C 87.484375 51.136719 86.179688 51.355469 84.785156 51.355469 C 82.367188 51.355469 80.253906 50.703125 78.449219 49.394531 C 76.640625 48.085938 75.378906 46.277344 74.667969 43.972656 L 79.960938 41.796875 C 80.332031 43.164062 80.929688 44.1875 81.753906 44.871094 C 82.582031 45.550781 83.589844 45.894531 84.785156 45.894531 C 86.125 45.894531 87.164062 45.46875 87.902344 44.613281 C 88.644531 43.761719 89.011719 42.566406 89.011719 41.027344 L 89.011719 25.878906 L 79.980469 25.878906 L 79.980469 20.117188 Z M 113.777344 50.183594 C 113.53125 50.308594 113.28125 50.421875 113.027344 50.523438 C 111.671875 51.078125 110.1875 51.355469 108.566406 51.355469 C 106.941406 51.355469 105.457031 51.078125 104.105469 50.523438 C 102.75 49.96875 101.585938 49.203125 100.601562 48.21875 C 99.621094 47.238281 98.851562 46.066406 98.296875 44.699219 C 97.742188 43.332031 97.464844 41.839844 97.464844 40.21875 C 97.464844 38.597656 97.742188 37.101562 98.296875 35.738281 C 98.851562 34.371094 99.621094 33.199219 100.601562 32.214844 C 101.585938 31.234375 102.75 30.464844 104.105469 29.910156 C 105.457031 29.355469 106.941406 29.078125 108.566406 29.078125 C 110.1875 29.078125 111.671875 29.355469 113.027344 29.910156 C 114.378906 30.464844 115.542969 31.234375 116.527344 32.214844 C 117.507812 33.199219 118.277344 34.371094 118.832031 35.738281 C 119.386719 37.101562 119.664062 38.597656 119.664062 40.21875 C 119.664062 41.839844 119.386719 43.332031 118.832031 44.699219 C 118.277344 46.066406 117.507812 47.238281 116.527344 48.21875 C 116.441406 48.304688 116.355469 48.386719 116.269531 48.46875 L 118.230469 51.472656 C 118.550781 51.503906 118.859375 51.609375 119.136719 51.773438 C 119.410156 51.941406 119.644531 52.167969 119.820312 52.4375 L 124.015625 58.847656 C 124.066406 58.925781 124.101562 59.015625 124.121094 59.113281 C 124.136719 59.207031 124.136719 59.300781 124.117188 59.394531 C 124.097656 59.488281 124.058594 59.578125 124.007812 59.660156 C 123.953125 59.738281 123.882812 59.804688 123.804688 59.859375 L 121.15625 61.589844 C 121.074219 61.640625 120.984375 61.675781 120.890625 61.695312 C 120.796875 61.714844 120.699219 61.710938 120.605469 61.691406 C 120.511719 61.671875 120.421875 61.636719 120.34375 61.582031 C 120.265625 61.527344 120.195312 61.457031 120.144531 61.378906 L 115.949219 54.96875 C 115.773438 54.699219 115.660156 54.394531 115.617188 54.074219 C 115.574219 53.757812 115.605469 53.433594 115.703125 53.125 Z M 108.566406 46.191406 C 109.277344 46.191406 109.964844 46.058594 110.636719 45.789062 C 111.300781 45.519531 111.902344 45.121094 112.40625 44.613281 C 112.917969 44.101562 113.324219 43.476562 113.625 42.734375 C 113.921875 41.996094 114.070312 41.15625 114.070312 40.21875 C 114.070312 39.277344 113.921875 38.441406 113.625 37.699219 C 113.324219 36.960938 112.917969 36.335938 112.40625 35.820312 C 111.902344 35.316406 111.300781 34.914062 110.636719 34.648438 C 109.976562 34.378906 109.273438 34.242188 108.566406 34.242188 C 107.824219 34.242188 107.128906 34.378906 106.472656 34.648438 C 105.816406 34.917969 105.234375 35.308594 104.722656 35.820312 C 104.210938 36.335938 103.804688 36.960938 103.507812 37.699219 C 103.207031 38.441406 103.058594 39.277344 103.058594 40.21875 C 103.058594 41.15625 103.207031 41.996094 103.507812 42.734375 C 103.804688 43.476562 104.210938 44.101562 104.722656 44.613281 C 105.234375 45.125 105.816406 45.515625 106.472656 45.789062 C 107.128906 46.058594 107.824219 46.191406 108.566406 46.191406 Z M 108.566406 46.191406" fill-rule="evenodd"/></g><g clip-path="url(#d)"><path fill="#2C3E50" d="M 122.394531 20.117188 L 127.988281 20.117188 L 127.988281 29.292969 L 127.648438 32.28125 L 127.988281 32.28125 C 128.5 31.398438 129.296875 30.644531 130.378906 30.019531 C 131.460938 29.390625 132.796875 29.078125 134.390625 29.078125 C 135.730469 29.078125 137.003906 29.355469 138.210938 29.910156 C 139.421875 30.464844 140.488281 31.234375 141.414062 32.214844 C 142.339844 33.199219 143.070312 34.371094 143.613281 35.738281 C 144.152344 37.101562 144.421875 38.597656 144.421875 40.21875 C 144.421875 41.839844 144.152344 43.332031 143.613281 44.699219 C 143.070312 46.066406 142.339844 47.238281 141.414062 48.21875 C 140.488281 49.203125 139.421875 49.96875 138.210938 50.523438 C 137.003906 51.078125 135.730469 51.355469 134.390625 51.355469 C 132.796875 51.355469 131.460938 51.042969 130.378906 50.417969 C 129.296875 49.792969 128.5 49.039062 127.988281 48.15625 L 127.648438 48.15625 L 127.648438 50.671875 L 122.394531 50.671875 Z M 133.238281 46.191406 C 133.980469 46.191406 134.683594 46.050781 135.351562 45.765625 C 136.015625 45.484375 136.617188 45.082031 137.125 44.570312 C 137.636719 44.058594 138.046875 43.433594 138.363281 42.691406 C 138.675781 41.953125 138.832031 41.128906 138.832031 40.21875 C 138.832031 39.308594 138.675781 38.484375 138.363281 37.742188 C 138.046875 37.003906 137.636719 36.375 137.125 35.863281 C 136.617188 35.355469 136.015625 34.949219 135.351562 34.667969 C 134.683594 34.386719 133.980469 34.242188 133.238281 34.242188 C 132.5 34.242188 131.792969 34.378906 131.125 34.648438 C 130.460938 34.914062 129.859375 35.316406 129.355469 35.820312 C 128.84375 36.335938 128.429688 36.960938 128.117188 37.699219 C 127.804688 38.441406 127.648438 39.277344 127.648438 40.21875 C 127.648438 41.15625 127.804688 41.996094 128.117188 42.734375 C 128.429688 43.476562 128.84375 44.101562 129.355469 44.613281 C 129.859375 45.121094 130.460938 45.519531 131.125 45.789062 C 131.792969 46.058594 132.5 46.191406 133.238281 46.191406 Z M 155.4375 51.355469 C 154.070312 51.355469 152.855469 51.1875 151.789062 50.84375 C 150.71875 50.503906 149.796875 50.054688 149.011719 49.5 C 148.230469 48.945312 147.566406 48.304688 147.027344 47.578125 C 146.488281 46.855469 146.074219 46.121094 145.789062 45.382812 L 150.785156 43.246094 C 151.269531 44.328125 151.914062 45.132812 152.726562 45.660156 C 153.539062 46.1875 154.441406 46.449219 155.4375 46.449219 C 156.460938 46.449219 157.273438 46.265625 157.871094 45.894531 C 158.46875 45.523438 158.765625 45.082031 158.765625 44.570312 C 158.765625 44.003906 158.519531 43.539062 158.019531 43.183594 C 157.523438 42.828125 156.660156 42.507812 155.4375 42.222656 L 152.492188 41.582031 C 151.835938 41.441406 151.160156 41.214844 150.464844 40.902344 C 149.777344 40.59375 149.136719 40.191406 148.5625 39.707031 C 147.996094 39.222656 147.527344 38.640625 147.15625 37.957031 C 146.785156 37.273438 146.601562 36.476562 146.601562 35.566406 C 146.601562 34.542969 146.820312 33.632812 147.261719 32.835938 C 147.703125 32.039062 148.308594 31.363281 149.078125 30.808594 C 149.84375 30.253906 150.75 29.824219 151.789062 29.527344 C 152.828125 29.230469 153.941406 29.078125 155.140625 29.078125 C 157.132812 29.078125 158.910156 29.46875 160.476562 30.253906 C 162.039062 31.035156 163.191406 32.28125 163.933594 33.988281 L 159.109375 35.949219 C 158.710938 35.125 158.125 34.527344 157.359375 34.15625 C 156.589844 33.789062 155.820312 33.601562 155.054688 33.601562 C 154.257812 33.601562 153.558594 33.765625 152.960938 34.09375 C 152.363281 34.421875 152.066406 34.839844 152.066406 35.351562 C 152.066406 35.835938 152.3125 36.21875 152.8125 36.503906 C 153.308594 36.789062 153.984375 37.046875 154.839844 37.273438 L 158.042969 38.042969 C 160.175781 38.554688 161.761719 39.371094 162.800781 40.496094 C 163.839844 41.621094 164.359375 42.949219 164.359375 44.484375 C 164.359375 45.394531 164.144531 46.265625 163.71875 47.089844 C 163.292969 47.914062 162.6875 48.648438 161.90625 49.285156 C 161.121094 49.925781 160.183594 50.433594 159.085938 50.800781 C 157.992188 51.171875 156.773438 51.355469 155.4375 51.355469 Z M 155.4375 51.355469"/></g></svg>