<svg xmlns="http://www.w3.org/2000/svg" width="165" viewBox="0 0 165 82.5" height="82.5" version="1.0"><defs><clipPath id="a"><path d="M 0.496094 0 L 164.503906 0 L 164.503906 82.003906 L 0.496094 82.003906 Z M 0.496094 0"/></clipPath><clipPath id="b"><path d="M 50.816406 0 L 114.183594 0 L 114.183594 64 L 50.816406 64 Z M 50.816406 0"/></clipPath></defs><g clip-path="url(#a)" fill="#FFF"><path d="M 0.496094 0 L 164.503906 0 L 164.503906 618.75 L 0.496094 618.75 Z M 0.496094 0"/><path d="M 0.496094 0 L 164.503906 0 L 164.503906 82.003906 L 0.496094 82.003906 Z M 0.496094 0"/><path d="M 0.496094 0 L 164.503906 0 L 164.503906 82.003906 L 0.496094 82.003906 Z M 0.496094 0"/></g><path fill="#111" d="M 56.492188 81.789062 L 53.765625 72.765625 L 55.925781 72.765625 L 57.003906 76.972656 C 57.144531 77.472656 57.261719 77.957031 57.363281 78.425781 C 57.476562 78.886719 57.601562 79.367188 57.738281 79.863281 L 57.792969 79.863281 C 57.921875 79.367188 58.042969 78.886719 58.152344 78.425781 C 58.265625 77.957031 58.382812 77.472656 58.511719 76.972656 L 59.578125 72.765625 L 61.65625 72.765625 L 58.941406 81.789062 Z M 56.492188 81.789062"/><path fill="#111" d="M 64.09375 81.953125 C 63.347656 81.953125 62.804688 81.710938 62.460938 81.222656 C 62.128906 80.734375 61.964844 80.054688 61.964844 79.1875 L 61.964844 74.925781 L 64 74.925781 L 64 78.925781 C 64 79.421875 64.066406 79.765625 64.207031 79.949219 C 64.34375 80.132812 64.5625 80.226562 64.855469 80.226562 C 65.113281 80.226562 65.332031 80.164062 65.507812 80.046875 C 65.683594 79.925781 65.871094 79.730469 66.074219 79.464844 L 66.074219 74.925781 L 68.109375 74.925781 L 68.109375 81.789062 L 66.449219 81.789062 L 66.296875 80.832031 L 66.253906 80.832031 C 65.960938 81.183594 65.640625 81.460938 65.300781 81.664062 C 64.96875 81.859375 64.566406 81.953125 64.09375 81.953125 Z M 64.09375 81.953125"/><path fill="#111" d="M 72.972656 81.953125 C 72.480469 81.953125 72.023438 81.875 71.601562 81.71875 C 71.175781 81.554688 70.808594 81.316406 70.492188 81.015625 C 70.179688 80.699219 69.9375 80.320312 69.761719 79.878906 C 69.585938 79.4375 69.496094 78.929688 69.496094 78.355469 C 69.496094 77.804688 69.589844 77.304688 69.773438 76.863281 C 69.957031 76.410156 70.199219 76.03125 70.492188 75.726562 C 70.796875 75.414062 71.144531 75.175781 71.53125 75.007812 C 71.917969 74.84375 72.320312 74.757812 72.734375 74.757812 C 73.226562 74.757812 73.648438 74.84375 74.007812 75.007812 C 74.378906 75.175781 74.683594 75.40625 74.921875 75.699219 C 75.171875 75.996094 75.355469 76.34375 75.476562 76.75 C 75.59375 77.148438 75.65625 77.582031 75.65625 78.050781 C 75.65625 78.238281 75.644531 78.414062 75.628906 78.578125 C 75.609375 78.746094 75.589844 78.867188 75.574219 78.953125 L 71.460938 78.953125 C 71.554688 79.449219 71.757812 79.820312 72.070312 80.058594 C 72.394531 80.289062 72.785156 80.40625 73.246094 80.40625 C 73.738281 80.40625 74.230469 80.253906 74.726562 79.949219 L 75.40625 81.179688 C 75.054688 81.417969 74.664062 81.609375 74.230469 81.746094 C 73.804688 81.886719 73.386719 81.953125 72.972656 81.953125 Z M 71.449219 77.609375 L 73.925781 77.609375 C 73.925781 77.222656 73.839844 76.910156 73.664062 76.667969 C 73.488281 76.429688 73.191406 76.308594 72.777344 76.308594 C 72.453125 76.308594 72.167969 76.414062 71.917969 76.628906 C 71.679688 76.839844 71.523438 77.167969 71.449219 77.609375 Z M 71.449219 77.609375"/><path fill="#111" d="M 79.019531 81.953125 C 78.328125 81.953125 77.746094 81.820312 77.277344 81.554688 C 76.8125 81.285156 76.425781 80.875 76.113281 80.320312 L 77.496094 79.296875 C 77.664062 79.601562 77.855469 79.828125 78.078125 79.976562 C 78.300781 80.125 78.527344 80.199219 78.757812 80.199219 C 79.125 80.199219 79.402344 80.085938 79.585938 79.863281 C 79.78125 79.632812 79.878906 79.21875 79.878906 78.621094 L 79.878906 72.765625 L 81.910156 72.765625 L 81.910156 78.785156 C 81.910156 79.21875 81.851562 79.628906 81.730469 80.015625 C 81.621094 80.40625 81.445312 80.742188 81.207031 81.027344 C 80.976562 81.3125 80.675781 81.539062 80.304688 81.707031 C 79.945312 81.871094 79.515625 81.953125 79.019531 81.953125 Z M 79.019531 81.953125"/><path fill="#111" d="M 86.75 81.953125 C 86.160156 81.953125 85.570312 81.847656 84.980469 81.636719 C 84.398438 81.414062 83.878906 81.085938 83.417969 80.652344 L 84.578125 79.257812 C 84.902344 79.53125 85.257812 79.757812 85.644531 79.933594 C 86.042969 80.109375 86.429688 80.199219 86.808594 80.199219 C 87.230469 80.199219 87.546875 80.117188 87.75 79.960938 C 87.960938 79.804688 88.066406 79.59375 88.066406 79.324219 C 88.066406 79.1875 88.035156 79.066406 87.96875 78.964844 C 87.914062 78.863281 87.828125 78.777344 87.707031 78.703125 C 87.597656 78.621094 87.457031 78.546875 87.292969 78.480469 C 87.136719 78.40625 86.960938 78.328125 86.765625 78.246094 L 85.589844 77.746094 C 85.359375 77.65625 85.132812 77.535156 84.910156 77.386719 C 84.699219 77.242188 84.503906 77.070312 84.332031 76.875 C 84.164062 76.671875 84.03125 76.441406 83.929688 76.183594 C 83.828125 75.917969 83.777344 75.617188 83.777344 75.285156 C 83.777344 74.914062 83.855469 74.570312 84.011719 74.246094 C 84.167969 73.914062 84.390625 73.628906 84.675781 73.390625 C 84.960938 73.140625 85.300781 72.945312 85.6875 72.808594 C 86.082031 72.667969 86.515625 72.601562 86.988281 72.601562 C 87.511719 72.601562 88.03125 72.703125 88.535156 72.90625 C 89.054688 73.109375 89.503906 73.402344 89.894531 73.789062 L 88.855469 75.078125 C 88.558594 74.847656 88.265625 74.671875 87.96875 74.550781 C 87.675781 74.421875 87.347656 74.359375 86.988281 74.359375 C 86.636719 74.359375 86.355469 74.429688 86.144531 74.578125 C 85.941406 74.71875 85.839844 74.914062 85.839844 75.175781 C 85.839844 75.3125 85.871094 75.433594 85.933594 75.535156 C 86.007812 75.625 86.105469 75.714844 86.226562 75.796875 C 86.355469 75.871094 86.503906 75.945312 86.667969 76.019531 C 86.835938 76.082031 87.015625 76.15625 87.207031 76.238281 L 88.371094 76.710938 C 88.925781 76.929688 89.359375 77.234375 89.671875 77.625 C 89.996094 78.011719 90.15625 78.523438 90.15625 79.160156 C 90.15625 79.539062 90.078125 79.898438 89.921875 80.238281 C 89.773438 80.570312 89.550781 80.867188 89.257812 81.125 C 88.96875 81.375 88.617188 81.578125 88.191406 81.734375 C 87.765625 81.882812 87.285156 81.953125 86.75 81.953125 Z M 86.75 81.953125"/><path fill="#111" d="M 92.699219 81.953125 C 92.347656 81.953125 92.050781 81.835938 91.8125 81.59375 C 91.582031 81.347656 91.464844 81.042969 91.464844 80.683594 C 91.464844 80.3125 91.582031 80.007812 91.8125 79.769531 C 92.050781 79.519531 92.347656 79.394531 92.699219 79.394531 C 93.046875 79.394531 93.339844 79.519531 93.570312 79.769531 C 93.808594 80.007812 93.929688 80.3125 93.929688 80.683594 C 93.929688 81.042969 93.808594 81.347656 93.570312 81.59375 C 93.339844 81.835938 93.046875 81.953125 92.699219 81.953125 Z M 92.699219 81.953125"/><path fill="#111" d="M 95.835938 81.789062 L 95.835938 72.765625 L 98.382812 72.765625 C 99.074219 72.765625 99.699219 72.855469 100.25 73.027344 C 100.804688 73.203125 101.28125 73.476562 101.675781 73.84375 C 102.074219 74.207031 102.378906 74.667969 102.589844 75.230469 C 102.800781 75.792969 102.90625 76.460938 102.90625 77.234375 C 102.90625 78.011719 102.800781 78.683594 102.589844 79.257812 C 102.378906 79.828125 102.078125 80.304688 101.691406 80.683594 C 101.304688 81.050781 100.835938 81.328125 100.292969 81.511719 C 99.757812 81.695312 99.15625 81.789062 98.492188 81.789062 Z M 97.871094 80.140625 L 98.257812 80.140625 C 98.644531 80.140625 98.996094 80.089844 99.308594 79.988281 C 99.625 79.886719 99.890625 79.726562 100.113281 79.503906 C 100.335938 79.273438 100.503906 78.976562 100.625 78.605469 C 100.753906 78.238281 100.820312 77.78125 100.820312 77.234375 C 100.820312 76.699219 100.753906 76.253906 100.625 75.894531 C 100.503906 75.523438 100.335938 75.234375 100.113281 75.023438 C 99.890625 74.800781 99.625 74.644531 99.308594 74.550781 C 98.996094 74.457031 98.644531 74.414062 98.257812 74.414062 L 97.871094 74.414062 Z M 97.871094 80.140625"/><path fill="#111" d="M 104.621094 81.789062 L 104.621094 72.765625 L 110.265625 72.765625 L 110.265625 74.480469 L 106.65625 74.480469 L 106.65625 76.292969 L 109.726562 76.292969 L 109.726562 77.996094 L 106.65625 77.996094 L 106.65625 80.074219 L 110.40625 80.074219 L 110.40625 81.789062 Z M 104.621094 81.789062"/><g clip-path="url(#b)"><path fill="#41B883" d="M 82.5 2.769531 C 66.515625 2.769531 53.554688 15.730469 53.554688 31.714844 C 53.554688 47.703125 66.515625 60.660156 82.5 60.660156 C 98.484375 60.660156 111.445312 47.703125 111.445312 31.714844 C 111.445312 15.730469 98.484375 2.769531 82.5 2.769531 Z M 50.816406 31.714844 C 50.816406 14.21875 65.003906 0.03125 82.5 0.03125 C 100 0.03125 114.183594 14.21875 114.183594 31.714844 C 114.183594 49.214844 100 63.398438 82.5 63.398438 C 65.003906 63.398438 50.816406 49.214844 50.816406 31.714844 Z M 50.816406 31.714844" fill-rule="evenodd"/></g><path fill="#34495E" d="M 88.972656 9.613281 L 82.429688 20.960938 L 75.886719 9.613281 L 54.101562 9.613281 L 82.429688 58.746094 L 110.757812 9.613281 Z M 88.972656 9.613281"/><path fill="#41B883" d="M 88.972656 9.613281 L 82.429688 20.960938 L 75.886719 9.613281 L 65.433594 9.613281 L 82.429688 39.089844 L 99.425781 9.613281 Z M 88.972656 9.613281"/><path fill="#41B883" d="M 78.324219 47.386719 L 78.324219 42.015625 L 79.761719 42.015625 C 80.582031 42.015625 81.222656 42.238281 81.679688 42.679688 C 82.140625 43.125 82.371094 43.789062 82.371094 44.675781 C 82.371094 45.121094 82.3125 45.511719 82.191406 45.851562 C 82.074219 46.1875 81.90625 46.472656 81.679688 46.703125 C 81.460938 46.929688 81.195312 47.097656 80.875 47.214844 C 80.566406 47.328125 80.210938 47.386719 79.808594 47.386719 Z M 79.277344 46.613281 L 79.695312 46.613281 C 80.242188 46.613281 80.660156 46.457031 80.949219 46.144531 C 81.246094 45.828125 81.394531 45.339844 81.394531 44.675781 C 81.394531 44.019531 81.246094 43.539062 80.949219 43.238281 C 80.65625 42.9375 80.234375 42.785156 79.695312 42.785156 L 79.277344 42.785156 Z M 79.277344 46.613281"/><path fill="#41B883" d="M 83.457031 47.386719 L 83.457031 42.015625 L 86.691406 42.015625 L 86.691406 42.820312 L 84.40625 42.820312 L 84.40625 44.191406 L 86.335938 44.191406 L 86.335938 44.996094 L 84.40625 44.996094 L 84.40625 46.582031 L 86.773438 46.582031 L 86.773438 47.386719 Z M 83.457031 47.386719"/></svg>