<?xml version="1.0" encoding="UTF-8"?>
<svg xmlns="http://www.w3.org/2000/svg" xmlns:xlink="http://www.w3.org/1999/xlink" width="165pt" height="82.499998pt" viewBox="0 0 165 82.499998" version="1.2">
<defs>
<clipPath id="clip1">
  <path d="M 0.496094 0 L 164.503906 0 L 164.503906 82.003906 L 0.496094 82.003906 Z M 0.496094 0 "/>
</clipPath>
<clipPath id="clip2">
  <path d="M 108 63 L 113.214844 63 L 113.214844 71 L 108 71 Z M 108 63 "/>
</clipPath>
<clipPath id="clip3">
  <path d="M 75 63 L 79 63 L 79 73.800781 L 75 73.800781 Z M 75 63 "/>
</clipPath>
<clipPath id="clip4">
  <path d="M 52.085938 60 L 60 60 L 60 71 L 52.085938 71 Z M 52.085938 60 "/>
</clipPath>
<clipPath id="clip5">
  <path d="M 52.085938 8.199219 L 113.214844 8.199219 L 113.214844 73.800781 L 52.085938 73.800781 Z M 52.085938 8.199219 "/>
</clipPath>
<clipPath id="clip6">
  <path d="M 52.085938 8.199219 L 113.214844 8.199219 L 113.214844 64 L 52.085938 64 Z M 52.085938 8.199219 "/>
</clipPath>
</defs>
<g id="surface1">
<g clip-path="url(#clip1)" clip-rule="nonzero">
<path style=" stroke:none;fill-rule:nonzero;fill:rgb(100%,100%,100%);fill-opacity:1;" d="M 0.496094 0 L 164.503906 0 L 164.503906 82.003906 L 0.496094 82.003906 Z M 0.496094 0 "/>
<path style=" stroke:none;fill-rule:nonzero;fill:rgb(100%,100%,100%);fill-opacity:1;" d="M 0.496094 0 L 164.503906 0 L 164.503906 82.003906 L 0.496094 82.003906 Z M 0.496094 0 "/>
</g>
<g clip-path="url(#clip2)" clip-rule="nonzero">
<path style=" stroke:none;fill-rule:nonzero;fill:rgb(20.388794%,28.62854%,36.859131%);fill-opacity:1;" d="M 113.222656 65.132812 C 113.035156 64.730469 112.746094 64.425781 112.359375 64.210938 C 111.859375 63.921875 111.324219 63.789062 110.746094 63.816406 C 110.429688 63.820312 110.121094 63.859375 109.816406 63.925781 C 109.535156 63.992188 109.269531 64.09375 109.019531 64.234375 C 108.820312 64.363281 108.710938 64.386719 108.710938 64.539062 C 108.714844 64.679688 108.753906 64.8125 108.820312 64.933594 C 108.894531 65.0625 109.003906 65.128906 109.152344 65.132812 C 109.265625 65.121094 109.367188 65.085938 109.460938 65.023438 C 109.609375 64.941406 109.765625 64.875 109.925781 64.824219 C 110.1875 64.746094 110.453125 64.710938 110.722656 64.714844 C 111.0625 64.695312 111.375 64.78125 111.652344 64.976562 C 111.871094 65.164062 112.035156 65.390625 112.136719 65.65625 C 112.246094 65.925781 112.296875 66.203125 112.292969 66.488281 L 112.292969 66.796875 L 111.605469 66.796875 C 111.019531 66.785156 110.4375 66.835938 109.859375 66.949219 C 109.402344 67.027344 109.003906 67.226562 108.664062 67.539062 C 108.347656 67.890625 108.203125 68.296875 108.222656 68.765625 C 108.222656 69.402344 108.421875 69.882812 108.796875 70.191406 C 109.199219 70.507812 109.65625 70.664062 110.167969 70.648438 C 110.632812 70.660156 111.0625 70.542969 111.453125 70.300781 C 111.792969 70.089844 112.097656 69.835938 112.359375 69.53125 L 112.359375 70.101562 C 112.355469 70.234375 112.40625 70.335938 112.515625 70.410156 C 112.628906 70.5 112.761719 70.542969 112.914062 70.539062 C 113.070312 70.546875 113.207031 70.503906 113.332031 70.410156 C 113.425781 70.328125 113.476562 70.226562 113.488281 70.101562 L 113.488281 66.46875 C 113.492188 66.003906 113.402344 65.558594 113.222656 65.132812 Z M 112.292969 68.261719 C 112.285156 68.511719 112.195312 68.730469 112.027344 68.917969 C 111.84375 69.148438 111.621094 69.339844 111.363281 69.488281 C 111.113281 69.636719 110.839844 69.710938 110.546875 69.707031 C 110.25 69.714844 109.984375 69.628906 109.75 69.445312 C 109.519531 69.222656 109.414062 68.953125 109.441406 68.636719 C 109.417969 68.328125 109.527344 68.078125 109.773438 67.890625 C 110.035156 67.71875 110.320312 67.613281 110.632812 67.582031 C 111.015625 67.539062 111.398438 67.515625 111.785156 67.519531 L 112.292969 67.519531 Z M 112.292969 68.261719 "/>
</g>
<path style=" stroke:none;fill-rule:nonzero;fill:rgb(20.388794%,28.62854%,36.859131%);fill-opacity:1;" d="M 106.808594 64.015625 C 106.679688 63.941406 106.539062 63.90625 106.386719 63.90625 C 106.238281 63.902344 106.097656 63.9375 105.96875 64.015625 C 105.859375 64.089844 105.808594 64.191406 105.8125 64.320312 L 105.8125 70.125 C 105.820312 70.242188 105.871094 70.339844 105.96875 70.410156 C 106.246094 70.601562 106.527344 70.601562 106.808594 70.410156 C 106.914062 70.34375 106.972656 70.25 106.984375 70.125 L 106.984375 64.320312 C 106.984375 64.183594 106.925781 64.082031 106.808594 64.015625 Z M 106.808594 64.015625 "/>
<path style=" stroke:none;fill-rule:nonzero;fill:rgb(20.388794%,28.62854%,36.859131%);fill-opacity:1;" d="M 106.378906 60.730469 C 106.175781 60.722656 106 60.789062 105.847656 60.925781 C 105.699219 61.042969 105.625 61.199219 105.628906 61.386719 C 105.625 61.582031 105.699219 61.742188 105.847656 61.867188 C 105.996094 62.007812 106.171875 62.074219 106.378906 62.066406 C 106.574219 62.0625 106.742188 61.996094 106.886719 61.867188 C 107.03125 61.738281 107.105469 61.578125 107.109375 61.386719 C 107.109375 61.199219 107.039062 61.042969 106.886719 60.925781 C 106.746094 60.789062 106.578125 60.726562 106.378906 60.730469 Z M 106.378906 60.730469 "/>
<path style=" stroke:none;fill-rule:nonzero;fill:rgb(20.388794%,28.62854%,36.859131%);fill-opacity:1;" d="M 103.800781 59.941406 C 103.671875 59.867188 103.53125 59.832031 103.378906 59.832031 C 103.230469 59.828125 103.089844 59.867188 102.960938 59.941406 C 102.851562 60.015625 102.800781 60.117188 102.804688 60.25 L 102.804688 70.125 C 102.8125 70.242188 102.863281 70.339844 102.960938 70.410156 C 103.082031 70.503906 103.222656 70.546875 103.378906 70.539062 C 103.535156 70.542969 103.675781 70.5 103.800781 70.410156 C 103.90625 70.34375 103.964844 70.25 103.976562 70.125 L 103.976562 60.25 C 103.980469 60.113281 103.917969 60.011719 103.800781 59.941406 Z M 103.800781 59.941406 "/>
<path style=" stroke:none;fill-rule:nonzero;fill:rgb(20.388794%,28.62854%,36.859131%);fill-opacity:1;" d="M 99.90625 64.210938 C 99.410156 63.921875 98.871094 63.789062 98.292969 63.816406 C 97.980469 63.820312 97.671875 63.859375 97.363281 63.925781 C 97.085938 63.992188 96.820312 64.09375 96.570312 64.234375 C 96.371094 64.363281 96.257812 64.386719 96.257812 64.539062 C 96.265625 64.679688 96.300781 64.8125 96.371094 64.933594 C 96.441406 65.0625 96.550781 65.128906 96.699219 65.132812 C 96.8125 65.121094 96.917969 65.085938 97.011719 65.023438 C 97.160156 64.941406 97.3125 64.875 97.476562 64.824219 C 97.734375 64.746094 98 64.710938 98.269531 64.714844 C 98.613281 64.695312 98.921875 64.78125 99.199219 64.976562 C 99.421875 65.164062 99.582031 65.390625 99.6875 65.65625 C 99.792969 65.925781 99.847656 66.203125 99.839844 66.488281 L 99.839844 66.796875 L 99.15625 66.796875 C 98.566406 66.785156 97.984375 66.835938 97.410156 66.949219 C 96.953125 67.027344 96.554688 67.226562 96.214844 67.539062 C 95.898438 67.890625 95.75 68.296875 95.773438 68.765625 C 95.773438 69.402344 95.972656 69.882812 96.347656 70.191406 C 96.746094 70.507812 97.203125 70.664062 97.71875 70.648438 C 98.183594 70.667969 98.609375 70.550781 99 70.300781 C 99.34375 70.089844 99.644531 69.835938 99.90625 69.53125 L 99.90625 70.101562 C 99.902344 70.234375 99.953125 70.335938 100.0625 70.410156 C 100.179688 70.5 100.3125 70.542969 100.460938 70.539062 C 100.617188 70.546875 100.757812 70.503906 100.882812 70.410156 C 100.972656 70.328125 101.027344 70.226562 101.035156 70.101562 L 101.035156 66.46875 C 101.039062 66.003906 100.953125 65.558594 100.769531 65.132812 C 100.582031 64.730469 100.296875 64.425781 99.90625 64.210938 Z M 99.839844 68.261719 C 99.832031 68.511719 99.742188 68.730469 99.578125 68.917969 C 99.390625 69.148438 99.167969 69.339844 98.914062 69.488281 C 98.660156 69.636719 98.386719 69.710938 98.09375 69.707031 C 97.796875 69.714844 97.53125 69.628906 97.296875 69.445312 C 97.066406 69.222656 96.964844 68.953125 96.988281 68.636719 C 96.964844 68.328125 97.074219 68.078125 97.320312 67.890625 C 97.582031 67.71875 97.871094 67.613281 98.183594 67.582031 C 98.566406 67.539062 98.949219 67.515625 99.332031 67.519531 L 99.839844 67.519531 Z M 99.839844 68.261719 "/>
<path style=" stroke:none;fill-rule:nonzero;fill:rgb(20.388794%,28.62854%,36.859131%);fill-opacity:1;" d="M 94.753906 64.714844 C 94.867188 64.71875 94.957031 64.675781 95.019531 64.582031 C 95.085938 64.496094 95.109375 64.496094 95.109375 64.363281 C 95.117188 64.246094 95.085938 64.136719 95.019531 64.035156 C 94.957031 63.945312 94.867188 63.902344 94.753906 63.90625 L 92.941406 63.90625 L 92.941406 61.167969 C 92.953125 61.027344 92.894531 60.921875 92.765625 60.863281 C 92.632812 60.789062 92.492188 60.753906 92.34375 60.75 C 92.203125 60.757812 92.070312 60.792969 91.945312 60.863281 C 91.832031 60.933594 91.773438 61.035156 91.769531 61.167969 L 91.769531 68.394531 C 91.769531 69.136719 91.992188 69.6875 92.386719 70.035156 C 92.785156 70.386719 93.382812 70.539062 94.15625 70.539062 L 94.15625 70.519531 L 94.578125 70.519531 C 94.738281 70.535156 94.871094 70.480469 94.976562 70.363281 C 95.0625 70.257812 95.109375 70.132812 95.109375 69.992188 C 95.109375 69.859375 95.0625 69.742188 94.976562 69.640625 C 94.871094 69.523438 94.738281 69.472656 94.578125 69.488281 L 94.136719 69.488281 C 93.695312 69.488281 93.382812 69.421875 93.207031 69.246094 C 93.03125 69.074219 92.941406 68.808594 92.941406 68.394531 L 92.941406 64.714844 Z M 94.753906 64.714844 "/>
<path style=" stroke:none;fill-rule:nonzero;fill:rgb(20.388794%,28.62854%,36.859131%);fill-opacity:1;" d="M 89.734375 60.335938 C 89.453125 60.179688 89.175781 60.179688 88.894531 60.335938 C 88.757812 60.394531 88.695312 60.496094 88.695312 60.640625 L 88.695312 70.101562 C 88.6875 70.257812 88.753906 70.367188 88.894531 70.429688 C 89.023438 70.5 89.164062 70.539062 89.3125 70.539062 C 89.464844 70.546875 89.605469 70.507812 89.734375 70.429688 C 89.855469 70.351562 89.914062 70.242188 89.910156 70.101562 L 89.910156 60.640625 C 89.921875 60.5 89.863281 60.398438 89.734375 60.335938 Z M 89.734375 60.335938 "/>
<path style=" stroke:none;fill-rule:nonzero;fill:rgb(20.388794%,28.62854%,36.859131%);fill-opacity:1;" d="M 83.378906 67.058594 C 83.113281 66.910156 82.832031 66.792969 82.539062 66.707031 C 82.226562 66.621094 81.941406 66.554688 81.675781 66.46875 C 81.4375 66.394531 81.214844 66.285156 81.011719 66.136719 C 80.839844 65.996094 80.757812 65.8125 80.769531 65.589844 C 80.773438 65.433594 80.820312 65.289062 80.902344 65.152344 C 81.003906 64.980469 81.144531 64.851562 81.320312 64.757812 C 81.5625 64.652344 81.8125 64.601562 82.074219 64.605469 C 82.316406 64.605469 82.550781 64.640625 82.78125 64.714844 C 82.957031 64.769531 83.125 64.835938 83.289062 64.914062 C 83.394531 64.964844 83.503906 65.003906 83.621094 65.023438 C 83.726562 65.023438 83.8125 64.984375 83.886719 64.914062 C 83.945312 64.828125 84 64.742188 84.042969 64.648438 C 84.085938 64.5625 84.109375 64.605469 84.109375 64.539062 C 84.109375 64.410156 84.019531 64.277344 83.820312 64.167969 C 83.585938 64.03125 83.335938 63.9375 83.070312 63.882812 C 82.75 63.8125 82.425781 63.777344 82.097656 63.773438 C 81.609375 63.757812 81.152344 63.863281 80.722656 64.089844 C 80.371094 64.308594 80.128906 64.441406 79.972656 64.75 C 79.824219 65.039062 79.75 65.34375 79.75 65.667969 C 79.726562 66.007812 79.808594 66.320312 79.996094 66.609375 C 80.167969 66.847656 80.390625 67.027344 80.660156 67.15625 C 80.929688 67.289062 81.210938 67.398438 81.5 67.484375 C 81.785156 67.574219 82.074219 67.660156 82.339844 67.75 C 82.585938 67.828125 82.804688 67.953125 83.003906 68.121094 C 83.195312 68.304688 83.285156 68.53125 83.269531 68.800781 C 83.257812 69.050781 83.15625 69.253906 82.957031 69.414062 C 82.757812 69.609375 82.40625 69.695312 81.898438 69.695312 C 81.550781 69.714844 81.21875 69.65625 80.902344 69.523438 C 80.703125 69.4375 80.519531 69.328125 80.347656 69.191406 C 80.238281 69.109375 80.113281 69.054688 79.972656 69.039062 C 79.894531 69.039062 79.828125 69.070312 79.773438 69.128906 C 79.710938 69.191406 79.65625 69.265625 79.617188 69.347656 C 79.578125 69.421875 79.554688 69.503906 79.550781 69.585938 C 79.578125 69.796875 79.683594 69.957031 79.863281 70.070312 C 80.117188 70.257812 80.398438 70.394531 80.703125 70.484375 C 81.097656 70.605469 81.503906 70.664062 81.917969 70.660156 C 82.691406 70.660156 83.289062 70.484375 83.664062 70.089844 C 84.113281 69.738281 84.328125 69.277344 84.308594 68.710938 C 84.328125 68.339844 84.238281 68 84.042969 67.683594 C 83.871094 67.421875 83.648438 67.214844 83.378906 67.058594 Z M 83.378906 67.058594 "/>
<g clip-path="url(#clip3)" clip-rule="nonzero">
<path style=" stroke:none;fill-rule:nonzero;fill:rgb(20.388794%,28.62854%,36.859131%);fill-opacity:1;" d="M 78.101562 64.015625 C 77.964844 63.941406 77.816406 63.90625 77.660156 63.90625 C 77.507812 63.902344 77.367188 63.9375 77.238281 64.015625 C 77.125 64.085938 77.066406 64.1875 77.0625 64.320312 L 77.0625 71.109375 C 77.070312 71.394531 77.058594 71.679688 77.019531 71.964844 C 77.003906 72.1875 76.925781 72.386719 76.773438 72.554688 C 76.605469 72.726562 76.398438 72.796875 76.15625 72.773438 C 76.011719 72.773438 75.894531 72.828125 75.796875 72.933594 C 75.699219 73.035156 75.65625 73.160156 75.667969 73.300781 C 75.679688 73.433594 75.730469 73.550781 75.824219 73.648438 C 75.960938 73.773438 76.125 73.824219 76.308594 73.800781 C 76.726562 73.832031 77.105469 73.722656 77.4375 73.472656 C 77.75 73.214844 77.960938 72.894531 78.078125 72.511719 C 78.21875 72.054688 78.285156 71.585938 78.277344 71.109375 L 78.277344 64.320312 C 78.28125 64.183594 78.222656 64.082031 78.101562 64.015625 Z M 78.101562 64.015625 "/>
</g>
<path style=" stroke:none;fill-rule:nonzero;fill:rgb(20.388794%,28.62854%,36.859131%);fill-opacity:1;" d="M 77.660156 60.730469 C 77.457031 60.726562 77.28125 60.792969 77.128906 60.925781 C 76.980469 61.042969 76.90625 61.199219 76.90625 61.386719 C 76.90625 61.582031 76.980469 61.742188 77.128906 61.867188 C 77.28125 62 77.457031 62.066406 77.660156 62.066406 C 77.859375 62.0625 78.035156 61.996094 78.191406 61.867188 C 78.320312 61.734375 78.386719 61.574219 78.390625 61.386719 C 78.390625 61.207031 78.324219 61.050781 78.191406 60.925781 C 78.039062 60.789062 77.863281 60.722656 77.660156 60.730469 Z M 77.660156 60.730469 "/>
<path style=" stroke:none;fill-rule:nonzero;fill:rgb(20.388794%,28.62854%,36.859131%);fill-opacity:1;" d="M 75.46875 69.378906 C 75.335938 69.230469 75.164062 69.15625 74.960938 69.160156 C 74.742188 69.148438 74.558594 69.222656 74.410156 69.378906 C 74.25 69.519531 74.175781 69.695312 74.1875 69.90625 C 74.199219 70.097656 74.273438 70.265625 74.410156 70.410156 C 74.558594 70.5625 74.746094 70.636719 74.960938 70.628906 C 75.167969 70.636719 75.335938 70.5625 75.46875 70.410156 C 75.621094 70.273438 75.695312 70.105469 75.691406 69.90625 C 75.695312 69.699219 75.621094 69.523438 75.46875 69.378906 Z M 75.46875 69.378906 "/>
<path style=" stroke:none;fill-rule:nonzero;fill:rgb(20.388794%,28.62854%,36.859131%);fill-opacity:1;" d="M 71.953125 67.519531 C 72.15625 67.519531 72.355469 67.496094 72.550781 67.453125 C 72.742188 67.40625 72.898438 67.304688 73.015625 67.144531 C 73.152344 66.894531 73.210938 66.621094 73.191406 66.335938 C 73.199219 65.847656 73.074219 65.394531 72.816406 64.976562 C 72.566406 64.609375 72.234375 64.339844 71.820312 64.167969 C 71.394531 63.925781 70.9375 63.808594 70.449219 63.816406 C 69.945312 63.820312 69.472656 63.941406 69.035156 64.191406 C 68.609375 64.390625 68.261719 64.683594 67.996094 65.066406 C 67.726562 65.472656 67.59375 65.917969 67.597656 66.402344 L 67.597656 67.890625 C 67.582031 68.417969 67.722656 68.898438 68.015625 69.335938 C 68.300781 69.761719 68.675781 70.085938 69.144531 70.300781 C 69.667969 70.546875 70.222656 70.664062 70.804688 70.648438 C 71.210938 70.664062 71.609375 70.609375 71.996094 70.472656 C 72.277344 70.375 72.535156 70.238281 72.773438 70.058594 C 72.921875 69.957031 73.011719 69.820312 73.035156 69.640625 C 73.03125 69.5625 73.011719 69.492188 72.972656 69.421875 C 72.941406 69.335938 72.886719 69.261719 72.816406 69.203125 C 72.734375 69.136719 72.644531 69.113281 72.542969 69.128906 C 72.410156 69.136719 72.292969 69.179688 72.1875 69.257812 C 72.027344 69.371094 71.859375 69.46875 71.679688 69.542969 C 71.410156 69.664062 71.132812 69.714844 70.839844 69.695312 C 70.289062 69.71875 69.796875 69.566406 69.355469 69.238281 C 68.960938 68.90625 68.769531 68.480469 68.78125 67.96875 L 68.78125 67.527344 Z M 68.835938 66.203125 C 68.828125 65.917969 68.902344 65.65625 69.054688 65.414062 C 69.207031 65.175781 69.40625 64.984375 69.652344 64.847656 C 69.910156 64.714844 70.183594 64.648438 70.472656 64.648438 C 70.773438 64.640625 71.054688 64.714844 71.3125 64.867188 C 71.554688 65.015625 71.746094 65.210938 71.886719 65.457031 C 72.023438 65.703125 72.089844 65.964844 72.085938 66.25 C 72.109375 66.394531 72.0625 66.519531 71.953125 66.621094 C 71.792969 66.699219 71.625 66.730469 71.445312 66.707031 L 68.835938 66.707031 Z M 68.835938 66.203125 "/>
<path style=" stroke:none;fill-rule:nonzero;fill:rgb(20.388794%,28.62854%,36.859131%);fill-opacity:1;" d="M 66.070312 64.015625 C 65.9375 63.917969 65.792969 63.875 65.628906 63.882812 C 65.472656 63.882812 65.335938 63.925781 65.207031 64.015625 C 65.085938 64.078125 65.023438 64.175781 65.023438 64.308594 L 65.023438 67.921875 C 65.015625 68.210938 64.941406 68.480469 64.800781 68.734375 C 64.648438 68.980469 64.449219 69.1875 64.203125 69.347656 C 63.945312 69.503906 63.667969 69.585938 63.363281 69.585938 C 63.058594 69.589844 62.78125 69.507812 62.523438 69.347656 C 62.277344 69.1875 62.078125 68.980469 61.925781 68.734375 C 61.777344 68.484375 61.703125 68.214844 61.703125 67.921875 L 61.703125 64.332031 C 61.6875 64.210938 61.628906 64.117188 61.527344 64.046875 C 61.246094 63.851562 60.96875 63.851562 60.6875 64.046875 C 60.582031 64.113281 60.519531 64.207031 60.511719 64.332031 L 60.511719 67.921875 C 60.507812 68.40625 60.640625 68.851562 60.910156 69.257812 C 61.175781 69.671875 61.523438 70.007812 61.949219 70.265625 C 62.390625 70.535156 62.867188 70.664062 63.386719 70.660156 C 63.902344 70.667969 64.382812 70.539062 64.824219 70.265625 C 65.246094 70.015625 65.585938 69.679688 65.839844 69.257812 C 66.09375 68.847656 66.21875 68.402344 66.214844 67.921875 L 66.214844 64.308594 C 66.222656 64.183594 66.171875 64.085938 66.070312 64.015625 Z M 66.070312 64.015625 "/>
<g clip-path="url(#clip4)" clip-rule="nonzero">
<path style=" stroke:none;fill-rule:nonzero;fill:rgb(20.388794%,28.62854%,36.859131%);fill-opacity:1;" d="M 59.105469 60.3125 C 58.988281 60.273438 58.871094 60.25 58.75 60.25 C 58.65625 60.246094 58.566406 60.269531 58.484375 60.3125 C 58.417969 60.359375 58.351562 60.421875 58.328125 60.402344 L 55.808594 68.855469 L 53.289062 60.511719 C 53.269531 60.417969 53.21875 60.355469 53.132812 60.3125 C 53.042969 60.269531 52.945312 60.246094 52.84375 60.25 C 52.730469 60.25 52.621094 60.269531 52.511719 60.3125 C 52.40625 60.355469 52.3125 60.414062 52.226562 60.488281 C 52.160156 60.566406 52.125 60.652344 52.117188 60.75 C 52.117188 60.796875 52.136719 60.816406 52.136719 60.863281 L 55.070312 70.320312 C 55.125 70.460938 55.21875 70.5625 55.359375 70.628906 C 55.503906 70.695312 55.660156 70.730469 55.820312 70.738281 C 56 70.738281 56.152344 70.582031 56.285156 70.519531 C 56.417969 70.453125 56.507812 70.351562 56.550781 70.210938 L 59.492188 60.863281 L 59.492188 60.75 C 59.492188 60.648438 59.457031 60.5625 59.382812 60.488281 C 59.300781 60.414062 59.207031 60.355469 59.105469 60.3125 Z M 59.105469 60.3125 "/>
</g>
<path style=" stroke:none;fill-rule:nonzero;fill:rgb(0%,0%,0%);fill-opacity:1;" d="M 93.199219 40.878906 L 93.582031 41.546875 L 92.9375 42.652344 L 92.558594 41.980469 Z M 93.199219 40.878906 "/>
<path style=" stroke:none;fill-rule:nonzero;fill:rgb(20.388794%,28.62854%,36.859131%);fill-opacity:1;" d="M 89.644531 34.59375 L 93.199219 40.878906 L 92.558594 41.976562 L 88.644531 35.058594 C 88.558594 35.085938 88.46875 35.113281 88.382812 35.132812 L 88.371094 35.132812 C 88.257812 35.160156 88.148438 35.179688 88.027344 35.195312 L 87.9375 35.207031 C 87.816406 35.207031 87.695312 35.226562 87.574219 35.226562 C 86.746094 35.226562 86.011719 34.960938 85.378906 34.429688 L 85.945312 33.464844 C 86.394531 33.90625 86.9375 34.125 87.574219 34.121094 C 87.664062 34.121094 87.753906 34.117188 87.839844 34.105469 C 87.871094 34.105469 87.898438 34.105469 87.925781 34.089844 C 87.953125 34.078125 88.035156 34.074219 88.085938 34.0625 L 86.855469 31.902344 L 87.5 30.808594 Z M 89.644531 34.59375 "/>
<path style=" stroke:none;fill-rule:nonzero;fill:rgb(0%,0%,0%);fill-opacity:1;" d="M 91.054688 45.882812 L 90.019531 47.65625 C 89.695312 47.800781 89.355469 47.945312 89.003906 48.078125 L 89.945312 46.460938 C 90.34375 46.269531 90.710938 46.074219 91.054688 45.882812 Z M 91.054688 45.882812 "/>
<path style=" stroke:none;fill-rule:nonzero;fill:rgb(20.388794%,28.62854%,36.859131%);fill-opacity:1;" d="M 89.945312 46.460938 L 89.003906 48.078125 C 87.019531 48.863281 84.960938 49.261719 82.824219 49.273438 C 80.6875 49.285156 78.625 48.90625 76.636719 48.140625 L 75.703125 46.539062 C 77.925781 47.601562 80.269531 48.148438 82.738281 48.179688 C 85.273438 48.144531 87.675781 47.570312 89.945312 46.460938 Z M 89.945312 46.460938 "/>
<path style=" stroke:none;fill-rule:nonzero;fill:rgb(20.388794%,28.62854%,36.859131%);fill-opacity:1;" d="M 87.136719 41.820312 C 87.378906 41.820312 87.609375 41.863281 87.832031 41.957031 C 88.054688 42.046875 88.25 42.175781 88.421875 42.347656 C 88.59375 42.515625 88.722656 42.707031 88.816406 42.929688 C 88.90625 43.148438 88.953125 43.378906 88.953125 43.617188 C 88.953125 43.855469 88.90625 44.085938 88.816406 44.304688 C 88.722656 44.523438 88.59375 44.71875 88.421875 44.886719 C 88.25 45.058594 88.054688 45.1875 87.832031 45.277344 C 87.609375 45.371094 87.378906 45.414062 87.136719 45.414062 C 86.898438 45.414062 86.664062 45.371094 86.441406 45.277344 C 86.222656 45.1875 86.023438 45.058594 85.855469 44.886719 C 85.683594 44.71875 85.554688 44.523438 85.460938 44.304688 C 85.367188 44.085938 85.324219 43.855469 85.324219 43.617188 C 85.324219 43.378906 85.367188 43.148438 85.460938 42.929688 C 85.554688 42.710938 85.683594 42.515625 85.855469 42.347656 C 86.023438 42.179688 86.222656 42.046875 86.445312 41.957031 C 86.667969 41.867188 86.898438 41.820312 87.136719 41.820312 Z M 88.289062 43.617188 C 88.289062 43.464844 88.261719 43.320312 88.203125 43.179688 C 88.144531 43.039062 88.0625 42.917969 87.953125 42.808594 C 87.84375 42.703125 87.71875 42.621094 87.578125 42.5625 C 87.4375 42.503906 87.289062 42.476562 87.136719 42.476562 C 86.984375 42.476562 86.839844 42.503906 86.695312 42.5625 C 86.554688 42.621094 86.429688 42.703125 86.324219 42.808594 C 86.214844 42.917969 86.132812 43.039062 86.074219 43.179688 C 86.015625 43.320312 85.984375 43.464844 85.984375 43.617188 C 85.984375 43.769531 86.015625 43.914062 86.074219 44.054688 C 86.132812 44.195312 86.214844 44.316406 86.324219 44.425781 C 86.429688 44.53125 86.554688 44.613281 86.695312 44.671875 C 86.839844 44.730469 86.984375 44.757812 87.136719 44.757812 C 87.292969 44.757812 87.4375 44.730469 87.578125 44.671875 C 87.722656 44.613281 87.84375 44.53125 87.953125 44.425781 C 88.0625 44.316406 88.144531 44.195312 88.203125 44.054688 C 88.261719 43.914062 88.292969 43.769531 88.292969 43.617188 Z M 88.289062 43.617188 "/>
<path style=" stroke:none;fill-rule:nonzero;fill:rgb(0%,0%,0%);fill-opacity:1;" d="M 88.074219 50.988281 L 87.332031 52.265625 C 87.046875 52.320312 86.761719 52.367188 86.480469 52.40625 L 87.195312 51.179688 C 87.488281 51.125 87.78125 51.058594 88.074219 50.988281 Z M 88.074219 50.988281 "/>
<path style=" stroke:none;fill-rule:nonzero;fill:rgb(25.489807%,72.158813%,51.368713%);fill-opacity:1;" d="M 86.839844 29.632812 L 87.503906 30.800781 L 86.859375 31.894531 L 85.929688 30.253906 L 85.902344 30.285156 C 85.851562 30.339844 85.804688 30.394531 85.757812 30.453125 L 85.710938 30.519531 C 85.671875 30.570312 85.636719 30.625 85.601562 30.679688 L 85.5625 30.742188 C 85.523438 30.820312 85.484375 30.898438 85.449219 30.976562 C 85.449219 30.984375 85.449219 30.992188 85.449219 31.003906 C 85.421875 31.074219 85.394531 31.148438 85.375 31.222656 C 85.375 31.246094 85.363281 31.273438 85.355469 31.300781 C 85.339844 31.363281 85.328125 31.425781 85.316406 31.492188 C 85.316406 31.515625 85.316406 31.539062 85.308594 31.566406 C 85.296875 31.65625 85.289062 31.746094 85.289062 31.835938 C 85.285156 32.464844 85.507812 33.003906 85.953125 33.449219 L 85.390625 34.417969 C 85.003906 34.097656 84.703125 33.710938 84.492188 33.261719 C 84.277344 32.808594 84.171875 32.335938 84.171875 31.835938 C 84.171875 31.722656 84.171875 31.617188 84.191406 31.496094 L 84.191406 31.441406 C 84.199219 31.332031 84.21875 31.230469 84.242188 31.125 L 84.257812 31.0625 C 84.28125 30.957031 84.308594 30.855469 84.34375 30.753906 C 84.34375 30.753906 84.34375 30.734375 84.34375 30.726562 C 84.378906 30.628906 84.417969 30.53125 84.460938 30.4375 L 84.480469 30.394531 C 84.527344 30.300781 84.578125 30.207031 84.632812 30.113281 L 84.664062 30.0625 C 84.722656 29.972656 84.78125 29.886719 84.84375 29.800781 C 84.855469 29.789062 84.863281 29.777344 84.875 29.765625 C 84.9375 29.683594 85.007812 29.605469 85.078125 29.527344 L 85.097656 29.507812 C 85.175781 29.425781 85.257812 29.355469 85.339844 29.289062 L 85.367188 29.273438 L 82.871094 24.859375 C 82.839844 24.808594 82.796875 24.785156 82.738281 24.785156 C 82.679688 24.785156 82.636719 24.808594 82.605469 24.859375 L 82.402344 25.21875 C 82.421875 25.242188 82.441406 25.261719 82.464844 25.28125 C 82.488281 25.300781 82.519531 25.332031 82.542969 25.359375 C 82.570312 25.390625 82.644531 25.46875 82.691406 25.527344 C 82.738281 25.582031 82.734375 25.574219 82.753906 25.601562 C 82.816406 25.683594 82.875 25.769531 82.929688 25.859375 C 82.929688 25.859375 82.929688 25.875 82.941406 25.878906 C 82.988281 25.964844 83.03125 26.050781 83.070312 26.136719 C 83.085938 26.167969 83.09375 26.199219 83.105469 26.234375 C 83.117188 26.265625 83.15625 26.367188 83.179688 26.4375 C 83.179688 26.472656 83.199219 26.507812 83.207031 26.542969 C 83.21875 26.582031 83.242188 26.6875 83.253906 26.761719 C 83.257812 26.796875 83.265625 26.828125 83.269531 26.859375 C 83.28125 26.96875 83.289062 27.074219 83.289062 27.179688 C 83.289062 27.527344 83.21875 27.859375 83.085938 28.179688 C 82.949219 28.5 82.761719 28.78125 82.511719 29.027344 C 82.265625 29.269531 81.980469 29.460938 81.65625 29.59375 C 81.335938 29.726562 81 29.792969 80.648438 29.796875 C 80.546875 29.796875 80.445312 29.789062 80.347656 29.777344 L 80.296875 29.777344 C 80.203125 29.761719 80.105469 29.746094 80.011719 29.722656 L 79.957031 29.707031 C 79.933594 29.707031 79.902344 29.695312 79.878906 29.6875 L 78.679688 31.804688 L 78.039062 30.707031 L 79.050781 28.917969 L 81.46875 24.648438 L 81.640625 24.34375 C 81.882812 23.917969 82.246094 23.707031 82.738281 23.707031 C 83.230469 23.707031 83.59375 23.917969 83.835938 24.34375 Z M 82.183594 27.175781 C 82.183594 27.097656 82.175781 27.015625 82.164062 26.9375 C 82.164062 26.914062 82.164062 26.890625 82.148438 26.867188 C 82.136719 26.8125 82.121094 26.757812 82.105469 26.703125 C 82.105469 26.683594 82.089844 26.65625 82.082031 26.632812 C 82.058594 26.574219 82.03125 26.515625 82 26.460938 L 81.980469 26.421875 C 81.941406 26.355469 81.898438 26.289062 81.847656 26.230469 L 81.832031 26.207031 L 80.433594 28.671875 C 80.5 28.679688 80.570312 28.683594 80.636719 28.683594 C 80.839844 28.6875 81.035156 28.648438 81.226562 28.574219 C 81.414062 28.5 81.582031 28.390625 81.726562 28.25 C 81.871094 28.105469 81.984375 27.945312 82.0625 27.757812 C 82.140625 27.570312 82.183594 27.378906 82.183594 27.175781 Z M 82.183594 27.175781 "/>
<path style=" stroke:none;fill-rule:nonzero;fill:rgb(20.388794%,28.62854%,36.859131%);fill-opacity:1;" d="M 87.195312 51.171875 L 86.480469 52.398438 C 86.015625 52.464844 85.550781 52.515625 85.089844 52.546875 L 85.050781 52.546875 C 84.898438 52.550781 84.765625 52.503906 84.65625 52.398438 C 84.542969 52.296875 84.484375 52.167969 84.480469 52.019531 C 84.476562 51.867188 84.523438 51.738281 84.628906 51.625 C 84.730469 51.515625 84.859375 51.457031 85.011719 51.453125 C 85.746094 51.402344 86.472656 51.308594 87.195312 51.171875 Z M 87.195312 51.171875 "/>
<path style=" stroke:none;fill-rule:nonzero;fill:rgb(20.388794%,28.62854%,36.859131%);fill-opacity:1;" d="M 82.625 51.449219 C 82.777344 51.445312 82.910156 51.5 83.015625 51.605469 C 83.125 51.710938 83.179688 51.839844 83.179688 51.992188 C 83.179688 52.144531 83.125 52.273438 83.019531 52.378906 C 82.910156 52.484375 82.78125 52.539062 82.628906 52.539062 C 82.476562 52.539062 82.347656 52.484375 82.238281 52.378906 C 82.132812 52.269531 82.078125 52.140625 82.078125 51.992188 C 82.078125 51.839844 82.132812 51.710938 82.238281 51.605469 C 82.347656 51.5 82.476562 51.449219 82.625 51.449219 Z M 82.625 51.449219 "/>
<path style=" stroke:none;fill-rule:nonzero;fill:rgb(20.388794%,28.62854%,36.859131%);fill-opacity:1;" d="M 80.464844 51.460938 C 80.617188 51.464844 80.746094 51.523438 80.847656 51.632812 C 80.953125 51.746094 81.003906 51.875 80.996094 52.027344 C 80.992188 52.179688 80.933594 52.304688 80.824219 52.410156 C 80.710938 52.511719 80.578125 52.5625 80.425781 52.554688 L 80.386719 52.554688 C 79.972656 52.527344 79.554688 52.484375 79.132812 52.425781 L 78.421875 51.207031 C 79.097656 51.328125 79.777344 51.414062 80.464844 51.460938 Z M 80.464844 51.460938 "/>
<path style=" stroke:none;fill-rule:nonzero;fill:rgb(20.388794%,28.62854%,36.859131%);fill-opacity:1;" d="M 78.644531 38.234375 C 79.003906 38.234375 79.347656 38.300781 79.675781 38.4375 C 80.007812 38.570312 80.300781 38.765625 80.550781 39.015625 C 80.804688 39.265625 81 39.554688 81.136719 39.878906 C 81.273438 40.207031 81.339844 40.546875 81.339844 40.902344 C 81.339844 41.253906 81.273438 41.597656 81.136719 41.921875 C 81 42.25 80.804688 42.539062 80.550781 42.789062 C 80.300781 43.039062 80.007812 43.234375 79.675781 43.367188 C 79.347656 43.503906 79.003906 43.570312 78.644531 43.570312 C 78.289062 43.570312 77.945312 43.503906 77.613281 43.367188 C 77.285156 43.234375 76.992188 43.039062 76.738281 42.789062 C 76.488281 42.539062 76.292969 42.25 76.15625 41.921875 C 76.019531 41.597656 75.949219 41.253906 75.949219 40.902344 C 75.949219 40.546875 76.019531 40.207031 76.15625 39.882812 C 76.292969 39.554688 76.488281 39.265625 76.742188 39.015625 C 76.992188 38.765625 77.285156 38.574219 77.613281 38.4375 C 77.945312 38.300781 78.289062 38.234375 78.644531 38.234375 Z M 80.457031 40.902344 C 80.457031 40.664062 80.410156 40.433594 80.320312 40.214844 C 80.226562 39.996094 80.097656 39.800781 79.925781 39.632812 C 79.757812 39.464844 79.5625 39.335938 79.339844 39.246094 C 79.117188 39.152344 78.886719 39.109375 78.644531 39.109375 C 78.40625 39.109375 78.175781 39.152344 77.953125 39.246094 C 77.730469 39.335938 77.535156 39.464844 77.363281 39.632812 C 77.195312 39.800781 77.0625 39.996094 76.972656 40.214844 C 76.878906 40.433594 76.835938 40.664062 76.835938 40.902344 C 76.835938 41.140625 76.878906 41.367188 76.972656 41.589844 C 77.0625 41.808594 77.195312 42 77.363281 42.171875 C 77.535156 42.339844 77.730469 42.46875 77.953125 42.558594 C 78.175781 42.648438 78.40625 42.695312 78.644531 42.695312 C 78.886719 42.695312 79.117188 42.648438 79.339844 42.558594 C 79.558594 42.46875 79.757812 42.335938 79.925781 42.167969 C 80.09375 42 80.226562 41.808594 80.320312 41.585938 C 80.410156 41.367188 80.457031 41.140625 80.457031 40.902344 Z M 80.457031 40.902344 "/>
<path style=" stroke:none;fill-rule:nonzero;fill:rgb(0%,0%,0%);fill-opacity:1;" d="M 78.421875 51.203125 L 79.132812 52.425781 C 78.832031 52.386719 78.527344 52.335938 78.222656 52.28125 L 77.476562 51.007812 C 77.792969 51.082031 78.109375 51.148438 78.421875 51.203125 Z M 78.421875 51.203125 "/>
<path style=" stroke:none;fill-rule:nonzero;fill:rgb(20.388794%,28.62854%,36.859131%);fill-opacity:1;" d="M 78.039062 30.691406 L 78.679688 31.792969 L 72.980469 41.871094 L 72.335938 40.769531 Z M 78.039062 30.691406 "/>
<path style=" stroke:none;fill-rule:nonzero;fill:rgb(0%,0%,0%);fill-opacity:1;" d="M 75.703125 46.539062 L 76.636719 48.140625 C 76.257812 47.992188 75.894531 47.847656 75.546875 47.699219 L 74.519531 45.949219 C 74.882812 46.136719 75.28125 46.355469 75.703125 46.539062 Z M 75.703125 46.539062 "/>
<path style=" stroke:none;fill-rule:nonzero;fill:rgb(0%,0%,0%);fill-opacity:1;" d="M 72.335938 40.769531 L 72.980469 41.871094 L 72.570312 42.59375 L 71.925781 41.492188 Z M 72.335938 40.769531 "/>
<g clip-path="url(#clip5)" clip-rule="nonzero">
<path style="fill:none;stroke-width:8;stroke-linecap:butt;stroke-linejoin:miter;stroke:rgb(25.489807%,72.158813%,51.368713%);stroke-opacity:1;stroke-miterlimit:10;" d="M 60.220055 4.008807 L 7.868222 4.008807 L 91.429802 148.735637 L 94.344125 153.766201 L 106.654931 175.083662 L 110.876283 182.397602 L 118.948074 196.383284 L 122.16266 201.966853 L 138.747806 230.687449 L 155.385939 201.877659 L 158.618188 196.276251 L 166.795954 182.11218 L 171.052632 174.726884 L 182.868886 154.265689 L 185.765546 149.235125 L 269.62739 4.008807 L 217.275557 4.008807 " transform="matrix(0.22116,0,0,0.218974,52.115334,8.200301)"/>
</g>
<g clip-path="url(#clip6)" clip-rule="nonzero">
<path style="fill:none;stroke-width:8;stroke-linecap:butt;stroke-linejoin:miter;stroke:rgb(20.388794%,28.62854%,36.859131%);stroke-opacity:1;stroke-miterlimit:10;" d="M 217.275557 4.008807 L 168.96845 4.008807 L 138.747806 56.34808 L 108.527162 4.008807 L 60.220055 4.008807 L 117.217143 102.711328 L 120.113803 107.741892 L 138.747806 140.012425 L 150.405097 119.818813 L 152.966168 115.394771 L 157.081545 108.24138 L 159.995868 103.210816 Z M 217.275557 4.008807 " transform="matrix(0.22116,0,0,0.218974,52.115334,8.200301)"/>
</g>
</g>
</svg>
