<svg xmlns="http://www.w3.org/2000/svg" width="165" viewBox="0 0 165 82.5" height="82.5" version="1.0"><defs><clipPath id="a"><path d="M 0.496094 0 L 164.503906 0 L 164.503906 82.003906 L 0.496094 82.003906 Z M 0.496094 0"/></clipPath></defs><g clip-path="url(#a)" fill="#FFF"><path d="M 0.496094 0 L 164.503906 0 L 164.503906 89.457031 L 0.496094 89.457031 Z M 0.496094 0"/><path d="M 0.496094 0 L 164.503906 0 L 164.503906 82.003906 L 0.496094 82.003906 Z M 0.496094 0"/><path d="M 0.496094 0 L 164.503906 0 L 164.503906 82.003906 L 0.496094 82.003906 Z M 0.496094 0"/></g><path d="M 55.140625 64.917969 L 55.140625 62.523438 L 55.929688 62.523438 L 55.929688 64.917969 C 55.929688 65.757812 55.257812 66.296875 54.496094 66.296875 C 53.734375 66.296875 53.046875 65.757812 53.046875 64.917969 L 53.046875 62.523438 L 53.851562 62.523438 L 53.851562 64.917969 C 53.859375 65.089844 53.921875 65.234375 54.046875 65.355469 C 54.171875 65.476562 54.320312 65.535156 54.496094 65.535156 C 54.667969 65.535156 54.816406 65.476562 54.941406 65.355469 C 55.066406 65.234375 55.132812 65.089844 55.136719 64.917969 Z M 55.140625 64.917969"/><path d="M 58.445312 65.152344 C 58.453125 65.390625 58.644531 65.601562 59 65.601562 C 59.320312 65.601562 59.539062 65.449219 59.546875 65.207031 C 59.550781 65.042969 59.476562 64.894531 59.097656 64.785156 L 58.648438 64.660156 C 57.828125 64.410156 57.6875 63.929688 57.6875 63.597656 C 57.6875 62.929688 58.253906 62.484375 58.96875 62.484375 C 59.679688 62.484375 60.226562 62.910156 60.226562 63.621094 L 59.4375 63.621094 C 59.4375 63.375 59.273438 63.203125 58.957031 63.203125 C 58.679688 63.203125 58.476562 63.351562 58.476562 63.574219 C 58.476562 63.671875 58.515625 63.847656 58.875 63.953125 L 59.320312 64.09375 C 60.21875 64.351562 60.351562 64.859375 60.339844 65.214844 C 60.328125 65.953125 59.660156 66.308594 59 66.308594 C 58.191406 66.308594 57.648438 65.824219 57.648438 65.160156 Z M 58.445312 65.152344"/><path d="M 62.074219 62.523438 L 64.425781 62.523438 L 64.425781 63.222656 L 62.859375 63.222656 L 62.859375 64.070312 L 64.234375 64.070312 L 64.234375 64.757812 L 62.859375 64.757812 L 62.859375 65.550781 L 64.476562 65.550781 L 64.476562 66.25 L 62.074219 66.25 Z M 62.074219 62.523438"/><path d="M 69.019531 66.246094 L 68.066406 66.246094 L 67.234375 64.960938 L 67.058594 64.960938 L 67.058594 66.246094 L 66.261719 66.246094 L 66.261719 62.523438 L 67.785156 62.523438 C 68.628906 62.523438 69.023438 63.132812 69.023438 63.746094 C 69.023438 64.273438 68.730469 64.792969 68.09375 64.925781 Z M 67.058594 63.222656 L 67.058594 64.273438 L 67.726562 64.273438 C 68.035156 64.273438 68.195312 63.992188 68.195312 63.75 C 68.195312 63.503906 68.046875 63.222656 67.75 63.222656 Z M 67.058594 63.222656"/><path d="M 75.6875 63.59375 C 75.472656 63.34375 75.203125 63.21875 74.871094 63.214844 C 74.246094 63.214844 73.757812 63.746094 73.757812 64.390625 C 73.757812 65.039062 74.246094 65.574219 74.871094 65.574219 C 75.269531 65.574219 75.769531 65.328125 75.773438 64.933594 L 74.773438 64.933594 L 74.773438 64.289062 L 76.6875 64.289062 C 76.6875 65.683594 75.941406 66.300781 74.871094 66.300781 C 74.621094 66.300781 74.375 66.25 74.144531 66.152344 C 73.910156 66.054688 73.703125 65.917969 73.523438 65.738281 C 73.347656 65.558594 73.207031 65.355469 73.113281 65.121094 C 73.015625 64.886719 72.964844 64.644531 72.964844 64.390625 C 72.964844 64.136719 73.015625 63.894531 73.113281 63.660156 C 73.207031 63.425781 73.347656 63.222656 73.523438 63.042969 C 73.703125 62.863281 73.910156 62.726562 74.144531 62.628906 C 74.375 62.53125 74.621094 62.480469 74.871094 62.480469 C 75.429688 62.472656 75.894531 62.675781 76.265625 63.089844 Z M 75.6875 63.59375"/><path d="M 81.097656 66.246094 L 80.148438 66.246094 L 79.316406 64.960938 L 79.136719 64.960938 L 79.136719 66.246094 L 78.34375 66.246094 L 78.34375 62.523438 L 79.867188 62.523438 C 80.710938 62.523438 81.101562 63.132812 81.101562 63.746094 C 81.101562 64.273438 80.8125 64.792969 80.175781 64.925781 Z M 79.136719 63.222656 L 79.136719 64.273438 L 79.808594 64.273438 C 80.117188 64.273438 80.277344 63.992188 80.277344 63.75 C 80.277344 63.503906 80.125 63.222656 79.828125 63.222656 Z M 79.136719 63.222656"/><path d="M 84.53125 62.480469 C 84.785156 62.476562 85.03125 62.523438 85.265625 62.617188 C 85.503906 62.710938 85.710938 62.847656 85.890625 63.027344 C 86.074219 63.203125 86.214844 63.410156 86.3125 63.640625 C 86.410156 63.875 86.460938 64.121094 86.464844 64.375 C 86.46875 64.628906 86.421875 64.871094 86.324219 65.105469 C 86.230469 65.339844 86.09375 65.550781 85.914062 65.730469 C 85.738281 65.910156 85.53125 66.050781 85.296875 66.148438 C 85.0625 66.246094 84.820312 66.296875 84.566406 66.296875 C 84.3125 66.300781 84.066406 66.253906 83.832031 66.15625 C 83.597656 66.058594 83.390625 65.921875 83.210938 65.742188 C 83.03125 65.566406 82.890625 65.359375 82.792969 65.125 C 82.695312 64.890625 82.648438 64.644531 82.648438 64.390625 C 82.644531 64.140625 82.691406 63.898438 82.785156 63.664062 C 82.878906 63.429688 83.015625 63.222656 83.191406 63.042969 C 83.367188 62.863281 83.574219 62.726562 83.804688 62.628906 C 84.039062 62.53125 84.28125 62.480469 84.53125 62.480469 Z M 84.53125 65.515625 C 84.683594 65.519531 84.828125 65.492188 84.96875 65.4375 C 85.109375 65.386719 85.234375 65.304688 85.339844 65.203125 C 85.449219 65.097656 85.535156 64.976562 85.59375 64.839844 C 85.652344 64.703125 85.6875 64.558594 85.6875 64.40625 C 85.691406 64.257812 85.664062 64.113281 85.609375 63.972656 C 85.554688 63.832031 85.472656 63.710938 85.367188 63.601562 C 85.261719 63.496094 85.140625 63.410156 85.003906 63.351562 C 84.867188 63.292969 84.722656 63.265625 84.570312 63.261719 C 84.421875 63.261719 84.277344 63.289062 84.136719 63.347656 C 83.996094 63.402344 83.875 63.484375 83.769531 63.589844 C 83.660156 63.695312 83.578125 63.820312 83.523438 63.957031 C 83.464844 64.097656 83.4375 64.242188 83.4375 64.390625 C 83.433594 64.539062 83.460938 64.679688 83.515625 64.816406 C 83.570312 64.953125 83.648438 65.074219 83.75 65.179688 C 83.855469 65.285156 83.972656 65.367188 84.109375 65.425781 C 84.242188 65.484375 84.386719 65.515625 84.53125 65.515625 Z M 84.53125 65.515625"/><path d="M 90.214844 64.917969 L 90.214844 62.523438 L 91.007812 62.523438 L 91.007812 64.917969 C 91.007812 65.757812 90.332031 66.296875 89.570312 66.296875 C 88.808594 66.296875 88.125 65.757812 88.125 64.917969 L 88.125 62.523438 L 88.929688 62.523438 L 88.929688 64.917969 C 88.933594 65.089844 89 65.234375 89.125 65.355469 C 89.25 65.476562 89.398438 65.535156 89.570312 65.535156 C 89.746094 65.535156 89.894531 65.476562 90.019531 65.355469 C 90.140625 65.234375 90.207031 65.089844 90.214844 64.917969 Z M 90.214844 64.917969"/><path d="M 92.925781 62.523438 L 94.453125 62.523438 C 95.300781 62.523438 95.683594 63.132812 95.683594 63.746094 C 95.683594 64.355469 95.304688 64.960938 94.453125 64.960938 L 93.714844 64.960938 L 93.714844 66.246094 L 92.921875 66.246094 Z M 93.71875 63.21875 L 93.71875 64.269531 L 94.414062 64.269531 C 94.722656 64.269531 94.886719 63.988281 94.886719 63.746094 C 94.886719 63.5 94.734375 63.21875 94.4375 63.21875 Z M 93.71875 63.21875"/><path d="M 106.355469 64.257812 C 106.554688 64.304688 106.71875 64.40625 106.847656 64.5625 C 106.980469 64.71875 107.046875 64.902344 107.054688 65.105469 C 107.054688 65.71875 106.605469 66.246094 105.867188 66.246094 L 104.269531 66.246094 L 104.269531 62.523438 L 105.757812 62.523438 C 106.429688 62.523438 106.863281 62.921875 106.863281 63.558594 C 106.859375 63.71875 106.8125 63.863281 106.71875 63.992188 C 106.625 64.117188 106.503906 64.207031 106.355469 64.257812 Z M 105.683594 63.992188 C 105.890625 63.992188 106.027344 63.828125 106.027344 63.609375 C 106.027344 63.390625 105.910156 63.21875 105.679688 63.21875 L 105.0625 63.21875 L 105.0625 63.992188 Z M 105.0625 64.648438 L 105.0625 65.550781 L 105.824219 65.550781 C 106.089844 65.550781 106.222656 65.3125 106.222656 65.089844 C 106.222656 64.871094 106.089844 64.648438 105.808594 64.648438 Z M 105.0625 64.648438"/><path d="M 111.292969 63.59375 C 111.082031 63.34375 110.808594 63.21875 110.480469 63.214844 C 109.851562 63.214844 109.367188 63.746094 109.367188 64.390625 C 109.367188 65.039062 109.851562 65.574219 110.480469 65.574219 C 110.878906 65.574219 111.375 65.328125 111.382812 64.933594 L 110.382812 64.933594 L 110.382812 64.289062 L 112.292969 64.289062 C 112.292969 65.683594 111.546875 66.300781 110.480469 66.300781 C 110.226562 66.300781 109.984375 66.25 109.75 66.152344 C 109.515625 66.054688 109.308594 65.917969 109.132812 65.738281 C 108.953125 65.558594 108.816406 65.355469 108.71875 65.121094 C 108.621094 64.886719 108.574219 64.644531 108.574219 64.390625 C 108.574219 64.136719 108.621094 63.894531 108.71875 63.660156 C 108.816406 63.425781 108.953125 63.222656 109.132812 63.042969 C 109.308594 62.863281 109.515625 62.726562 109.75 62.628906 C 109.984375 62.53125 110.226562 62.480469 110.480469 62.480469 C 111.039062 62.472656 111.503906 62.675781 111.878906 63.089844 Z M 111.292969 63.59375"/><path fill="#1D1D1B" d="M 116.695312 70.46875 L 48.308594 70.46875 L 48.308594 57.585938 L 116.695312 57.585938 Z M 49.140625 69.636719 L 115.859375 69.636719 L 115.859375 58.414062 L 49.140625 58.414062 Z M 49.140625 69.636719"/><path fill="#1D1D1B" d="M 95.601562 70.46875 L 95.601562 69.636719 C 97.855469 69.636719 99.035156 66.832031 100.28125 63.863281 C 101.578125 60.777344 102.917969 57.585938 105.726562 57.585938 L 105.726562 58.414062 C 103.472656 58.414062 102.292969 61.21875 101.046875 64.1875 C 99.75 67.273438 98.410156 70.46875 95.601562 70.46875 Z M 95.601562 70.46875"/><path fill="#F8E800" d="M 111.550781 26.046875 C 111.550781 26.722656 111.484375 27.394531 111.351562 28.058594 C 111.21875 28.722656 111.023438 29.367188 110.765625 29.992188 C 110.503906 30.617188 110.1875 31.210938 109.8125 31.773438 C 109.433594 32.335938 109.007812 32.859375 108.527344 33.335938 C 108.050781 33.816406 107.53125 34.242188 106.964844 34.617188 C 106.402344 34.996094 105.808594 35.3125 105.183594 35.570312 C 104.558594 35.832031 103.914062 36.027344 103.25 36.160156 C 102.585938 36.289062 101.914062 36.355469 101.238281 36.355469 C 100.5625 36.355469 99.890625 36.289062 99.226562 36.160156 C 98.5625 36.027344 97.917969 35.832031 97.292969 35.570312 C 96.664062 35.3125 96.070312 34.996094 95.507812 34.617188 C 94.945312 34.242188 94.425781 33.816406 93.945312 33.335938 C 93.46875 32.859375 93.039062 32.335938 92.664062 31.773438 C 92.289062 31.210938 91.96875 30.617188 91.710938 29.992188 C 91.453125 29.367188 91.257812 28.722656 91.125 28.058594 C 90.992188 27.394531 90.925781 26.722656 90.925781 26.046875 C 90.925781 25.367188 90.992188 24.699219 91.125 24.035156 C 91.257812 23.371094 91.453125 22.722656 91.710938 22.097656 C 91.96875 21.472656 92.289062 20.878906 92.664062 20.316406 C 93.039062 19.753906 93.46875 19.230469 93.945312 18.753906 C 94.425781 18.273438 94.945312 17.847656 95.507812 17.472656 C 96.070312 17.09375 96.664062 16.777344 97.292969 16.519531 C 97.917969 16.257812 98.5625 16.0625 99.226562 15.929688 C 99.890625 15.800781 100.5625 15.734375 101.238281 15.734375 C 101.914062 15.734375 102.585938 15.800781 103.25 15.929688 C 103.914062 16.0625 104.558594 16.257812 105.183594 16.519531 C 105.808594 16.777344 106.402344 17.09375 106.964844 17.472656 C 107.53125 17.847656 108.050781 18.273438 108.527344 18.753906 C 109.007812 19.230469 109.433594 19.753906 109.8125 20.316406 C 110.1875 20.878906 110.503906 21.472656 110.765625 22.097656 C 111.023438 22.722656 111.21875 23.371094 111.351562 24.035156 C 111.484375 24.699219 111.550781 25.367188 111.550781 26.046875 Z M 111.550781 26.046875"/><path fill="#E10814" d="M 107.28125 17.042969 C 103.847656 17.574219 102.503906 21.878906 101.082031 26.4375 C 99.917969 30.164062 98.726562 33.980469 96.175781 35.898438 C 101.929688 37.835938 108.5 35.285156 111.066406 30.011719 C 113.382812 25.257812 111.675781 19.863281 107.28125 17.042969 Z M 107.28125 17.042969"/><path fill="#1D1D1B" d="M 116.300781 22.648438 C 114.582031 15.023438 107.324219 9.792969 99.546875 10.558594 C 92.742188 11.230469 87.472656 16.128906 85.914062 22.296875 C 84.316406 26.714844 84.214844 32.121094 84.121094 37.351562 C 84.050781 41.164062 83.9375 44.296875 83.503906 46.621094 C 83.480469 46.695312 83.453125 46.765625 83.429688 46.835938 L 83.40625 46.898438 C 82.503906 49.351562 81.328125 50.703125 79.503906 50.703125 C 73.441406 50.703125 69.96875 42.882812 66.390625 34.378906 C 69.972656 25.871094 73.445312 18.050781 79.503906 18.050781 L 79.503906 13.40625 C 71.726562 13.40625 67.464844 20.457031 63.871094 28.496094 C 60.292969 20.523438 56.039062 13.5625 48.308594 13.5625 L 48.308594 18.203125 C 54.332031 18.203125 57.800781 25.929688 61.355469 34.378906 C 57.800781 42.824219 54.332031 50.546875 48.308594 50.546875 L 48.308594 55.1875 C 56.039062 55.1875 60.292969 48.226562 63.871094 40.257812 C 67.464844 48.292969 71.722656 55.347656 79.503906 55.347656 C 84.445312 55.347656 87.433594 51.1875 88.257812 46.246094 L 88.257812 46.234375 C 88.648438 43.5 88.703125 40.449219 88.757812 37.4375 C 88.769531 36.882812 88.78125 36.328125 88.792969 35.773438 C 89.648438 36.859375 90.628906 37.816406 91.738281 38.640625 C 92.84375 39.46875 94.042969 40.132812 95.328125 40.640625 C 96.613281 41.148438 97.941406 41.480469 99.316406 41.636719 C 100.6875 41.792969 102.058594 41.765625 103.425781 41.558594 C 112.308594 40.199219 118.3125 31.570312 116.300781 22.648438 Z M 106.183594 35.09375 C 105.589844 35.417969 104.972656 35.679688 104.324219 35.882812 C 103.679688 36.085938 103.019531 36.222656 102.347656 36.296875 C 101.671875 36.371094 101 36.375 100.324219 36.316406 C 99.648438 36.257812 98.988281 36.132812 98.339844 35.941406 C 97.6875 35.75 97.0625 35.5 96.464844 35.183594 C 95.863281 34.871094 95.300781 34.503906 94.773438 34.078125 C 94.246094 33.652344 93.761719 33.179688 93.328125 32.664062 C 92.894531 32.144531 92.515625 31.585938 92.191406 30.992188 C 91.863281 30.398438 91.601562 29.777344 91.398438 29.132812 C 91.195312 28.484375 91.058594 27.828125 90.984375 27.152344 C 90.914062 26.480469 90.90625 25.804688 90.964844 25.132812 C 91.027344 24.457031 91.152344 23.796875 91.339844 23.144531 C 91.53125 22.496094 91.785156 21.871094 92.097656 21.269531 C 92.410156 20.671875 92.78125 20.105469 93.203125 19.578125 C 93.628906 19.050781 94.101562 18.570312 94.621094 18.136719 C 95.140625 17.703125 95.695312 17.320312 96.289062 16.996094 C 96.882812 16.671875 97.503906 16.410156 98.148438 16.207031 C 98.796875 16.003906 99.457031 15.867188 100.128906 15.792969 C 100.800781 15.71875 101.476562 15.714844 102.152344 15.773438 C 102.824219 15.832031 103.488281 15.957031 104.136719 16.148438 C 104.785156 16.339844 105.410156 16.589844 106.011719 16.90625 C 106.613281 17.21875 107.175781 17.585938 107.703125 18.011719 C 108.230469 18.4375 108.710938 18.910156 109.144531 19.425781 C 109.582031 19.945312 109.960938 20.503906 110.285156 21.097656 C 110.609375 21.691406 110.875 22.3125 111.078125 22.957031 C 111.277344 23.605469 111.417969 24.261719 111.488281 24.9375 C 111.5625 25.609375 111.570312 26.285156 111.507812 26.957031 C 111.449219 27.632812 111.324219 28.292969 111.132812 28.945312 C 110.941406 29.59375 110.691406 30.21875 110.378906 30.820312 C 110.0625 31.417969 109.695312 31.984375 109.269531 32.511719 C 108.847656 33.039062 108.375 33.519531 107.855469 33.953125 C 107.335938 34.386719 106.777344 34.765625 106.183594 35.09375 Z M 106.183594 35.09375"/></svg>