<svg xmlns="http://www.w3.org/2000/svg" xmlns:xlink="http://www.w3.org/1999/xlink" width="220" zoomAndPan="magnify" viewBox="0 0 165 82.499998" height="110" preserveAspectRatio="xMidYMid meet" version="1.0"><defs><clipPath id="id1"><path d="M 0.496094 0 L 164.503906 0 L 164.503906 82.003906 L 0.496094 82.003906 Z M 0.496094 0 " clip-rule="nonzero"/></clipPath></defs><g clip-path="url(#id1)"><path fill="rgb(100%, 100%, 100%)" d="M 0.496094 0 L 164.503906 0 L 164.503906 89.457031 L 0.496094 89.457031 Z M 0.496094 0 " fill-opacity="1" fill-rule="nonzero"/><path fill="rgb(100%, 100%, 100%)" d="M 0.496094 0 L 164.503906 0 L 164.503906 82.003906 L 0.496094 82.003906 Z M 0.496094 0 " fill-opacity="1" fill-rule="nonzero"/><path fill="rgb(100%, 100%, 100%)" d="M 0.496094 0 L 164.503906 0 L 164.503906 82.003906 L 0.496094 82.003906 Z M 0.496094 0 " fill-opacity="1" fill-rule="nonzero"/><path fill="rgb(100%, 100%, 100%)" d="M 0.496094 0 L 164.503906 0 L 164.503906 82.003906 L 0.496094 82.003906 Z M 0.496094 0 " fill-opacity="1" fill-rule="nonzero"/><rect x="-16.5" width="198" fill="rgb(100%, 100%, 100%)" y="-8.25" height="98.999997" fill-opacity="1"/></g><path fill="rgb(43.528748%, 50.19989%, 71.369934%)" d="M 78.984375 0.832031 C 79.507812 0.671875 80.054688 0.394531 80.621094 0.570312 C 83.859375 1.429688 87.109375 2.234375 90.339844 3.121094 C 90.105469 3.875 89.886719 4.632812 89.683594 5.394531 C 98.867188 12.953125 108.003906 20.558594 117.164062 28.144531 C 113.789062 31.496094 110.394531 34.820312 107.019531 38.171875 C 105.925781 39.265625 104.832031 40.359375 103.734375 41.445312 C 102.546875 41.46875 101.359375 41.46875 100.171875 41.464844 C 100.234375 39.3125 100.253906 37.160156 100.167969 35.007812 C 98.496094 35.003906 97.453125 36.382812 96.5 37.554688 C 96.089844 35.972656 94.710938 34.636719 93.023438 34.609375 C 91.058594 34.378906 89.21875 35.863281 88.777344 37.742188 C 87.953125 36.394531 86.761719 34.84375 84.992188 35.007812 C 84.929688 37.117188 84.957031 39.226562 84.992188 41.328125 C 83.488281 41.320312 81.984375 41.3125 80.480469 41.285156 C 80.453125 41.191406 80.402344 41 80.378906 40.90625 C 81.058594 38.214844 80.894531 35.394531 81.085938 32.640625 C 80.558594 32.121094 80.03125 31.605469 79.503906 31.09375 C 79.527344 30.324219 79.558594 29.558594 79.621094 28.796875 C 80.214844 29.210938 80.367188 29.910156 80.535156 30.570312 C 81.027344 30.546875 81.515625 30.527344 82 30.457031 C 82.324219 29.195312 82.242188 27.878906 82.390625 26.589844 C 83.671875 26.875 84.949219 27.171875 86.210938 27.519531 C 86.328125 27.351562 86.558594 27.015625 86.675781 26.851562 C 86.792969 28.066406 86.90625 29.277344 87.007812 30.488281 C 87.6875 30.476562 88.363281 30.460938 89.039062 30.449219 C 89.496094 26.671875 89.824219 22.882812 90.054688 19.089844 C 89.234375 18.277344 88.804688 17.214844 88.878906 16.050781 C 89.011719 16.054688 89.28125 16.054688 89.414062 16.054688 C 89.460938 16.539062 89.507812 17.023438 89.558594 17.507812 C 90.125 17.472656 90.6875 17.441406 91.253906 17.40625 C 91.347656 16.957031 91.449219 16.503906 91.550781 16.054688 C 91.640625 16.058594 91.820312 16.066406 91.914062 16.074219 C 91.96875 16.542969 92.027344 17.007812 92.085938 17.476562 C 92.703125 17.472656 93.320312 17.472656 93.941406 17.472656 C 93.988281 17.003906 94.042969 16.539062 94.09375 16.070312 C 94.207031 16.054688 94.425781 16.015625 94.535156 15.996094 C 94.585938 16.484375 94.640625 16.976562 94.691406 17.46875 C 95.242188 17.460938 95.792969 17.449219 96.34375 17.445312 C 96.5 16.886719 96.660156 16.328125 96.824219 15.769531 C 97.238281 17.425781 95.917969 18.828125 96.164062 20.464844 C 96.386719 23.785156 96.777344 27.085938 97.003906 30.398438 C 97.582031 30.425781 98.160156 30.453125 98.742188 30.476562 C 98.890625 28.363281 99.058594 26.253906 99.148438 24.136719 C 99.222656 22.796875 98.632812 21.554688 98.417969 20.25 C 98.570312 20.265625 98.875 20.289062 99.03125 20.300781 C 99.128906 20.78125 99.226562 21.261719 99.328125 21.746094 C 99.730469 21.691406 100.140625 21.660156 100.542969 21.566406 C 100.871094 21.144531 101.105469 20.652344 101.367188 20.183594 C 101.523438 20.578125 101.683594 20.972656 101.847656 21.371094 C 102.300781 21.40625 102.753906 21.441406 103.210938 21.480469 C 103.449219 21.007812 103.6875 20.539062 103.9375 20.070312 C 104.164062 21.582031 103.269531 22.945312 103.351562 24.441406 C 103.414062 26.476562 103.589844 28.511719 103.734375 30.546875 C 104.214844 30.550781 104.695312 30.558594 105.175781 30.5625 C 105.230469 30.148438 105.285156 29.730469 105.347656 29.316406 C 105.519531 29.304688 105.871094 29.28125 106.046875 29.269531 C 106.003906 29.910156 106.015625 30.5625 105.863281 31.191406 C 105.542969 31.8125 104.957031 32.238281 104.476562 32.726562 C 104.484375 35.222656 104.453125 37.734375 104.722656 40.222656 C 104.996094 39.734375 105.167969 39.195312 105.136719 38.632812 C 105.132812 36.921875 104.882812 35.214844 105.007812 33.503906 C 105.089844 32.480469 106.3125 31.996094 106.4375 30.976562 C 106.527344 30.207031 106.472656 29.425781 106.453125 28.652344 C 105.933594 28.65625 105.417969 28.664062 104.902344 28.664062 C 104.839844 29.117188 104.78125 29.570312 104.726562 30.023438 C 104.589844 30.042969 104.320312 30.074219 104.1875 30.089844 C 104.144531 28.300781 104.128906 26.507812 103.988281 24.722656 C 103.792969 23.019531 104.933594 21.515625 104.757812 19.800781 C 104.175781 19.804688 103.597656 19.808594 103.023438 19.8125 C 102.898438 20.246094 102.773438 20.675781 102.652344 21.105469 C 102.390625 20.632812 102.128906 20.164062 101.871094 19.691406 C 101.375 19.71875 100.882812 19.746094 100.390625 19.773438 C 100.316406 20.214844 100.238281 20.652344 100.164062 21.089844 C 99.730469 20.195312 99.050781 19.480469 98 19.398438 C 97.683594 21.296875 98.753906 23.070312 98.484375 24.960938 C 98.335938 26.546875 98.277344 28.140625 98.25 29.734375 C 98.050781 29.863281 97.851562 29.996094 97.65625 30.128906 C 97.199219 26.9375 97.148438 23.707031 96.859375 20.5 C 96.6875 19.472656 97.1875 18.542969 97.519531 17.609375 C 97.855469 16.839844 97.554688 16.015625 97.417969 15.242188 C 96.960938 15.246094 96.507812 15.253906 96.054688 15.261719 C 95.886719 15.78125 95.726562 16.296875 95.570312 16.820312 C 95.429688 16.371094 95.308594 15.921875 95.121094 15.492188 C 94.660156 15.183594 94.03125 15.292969 93.507812 15.179688 C 93.457031 15.683594 93.414062 16.183594 93.363281 16.6875 C 93.136719 16.6875 92.914062 16.6875 92.695312 16.6875 C 92.636719 16.214844 92.582031 15.742188 92.53125 15.269531 C 91.921875 15.265625 91.3125 15.261719 90.707031 15.257812 C 90.660156 15.746094 90.617188 16.234375 90.578125 16.71875 C 90.480469 16.707031 90.28125 16.683594 90.183594 16.671875 C 90.125 16.210938 90.066406 15.753906 90.011719 15.292969 C 89.570312 15.261719 89.136719 15.222656 88.699219 15.191406 C 89.15625 13.199219 89.515625 11.1875 89.914062 9.183594 C 90.144531 8.078125 90.121094 6.941406 90.003906 5.828125 C 89.425781 6.476562 89.035156 7.257812 88.84375 8.105469 C 87.632812 12.457031 86.304688 16.78125 85.042969 21.125 L 84.941406 21.453125 C 84.730469 22.121094 84.519531 22.785156 84.304688 23.449219 C 82.109375 21.695312 79.949219 19.894531 77.863281 18.011719 C 75.910156 16.246094 73.890625 14.550781 71.851562 12.890625 C 69.308594 10.734375 66.84375 8.480469 64.226562 6.410156 C 64.121094 6.320312 63.910156 6.144531 63.804688 6.054688 C 68.816406 4.1875 73.941406 2.628906 78.984375 0.832031 Z M 78.984375 0.832031 " fill-opacity="1" fill-rule="nonzero"/><path fill="rgb(100%, 100%, 100%)" d="M 75.8125 5.523438 C 76.96875 4.808594 78.636719 5.792969 78.574219 7.152344 C 78.683594 8.5625 76.929688 9.582031 75.753906 8.800781 C 74.519531 8.136719 74.539062 6.140625 75.8125 5.523438 Z M 75.8125 5.523438 " fill-opacity="1" fill-rule="nonzero"/><path fill="rgb(35.688782%, 40.779114%, 56.858826%)" d="M 63.804688 6.054688 C 63.910156 6.144531 64.121094 6.320312 64.226562 6.410156 C 64.449219 7.460938 64.796875 8.488281 65.34375 9.414062 C 66.457031 11.289062 67.304688 13.328125 68.71875 15.011719 C 66.054688 16.800781 63.363281 18.542969 60.722656 20.371094 C 61.035156 18.535156 61.488281 16.726562 61.894531 14.914062 C 62.484375 11.953125 63.394531 9.050781 63.804688 6.054688 Z M 63.804688 6.054688 " fill-opacity="1" fill-rule="nonzero"/><path fill="rgb(18.818665%, 18.818665%, 18.818665%)" d="M 75.796875 6.28125 C 76.582031 5.835938 77.675781 6.566406 77.496094 7.472656 C 77.417969 8.433594 75.933594 8.84375 75.453125 7.960938 C 75 7.433594 75.277344 6.652344 75.796875 6.28125 Z M 75.796875 6.28125 " fill-opacity="1" fill-rule="nonzero"/><path fill="rgb(35.688782%, 40.779114%, 56.858826%)" d="M 88.84375 8.105469 C 89.035156 7.257812 89.425781 6.476562 90.003906 5.828125 C 90.121094 6.941406 90.144531 8.078125 89.914062 9.183594 C 89.515625 11.1875 89.15625 13.199219 88.699219 15.191406 C 89.136719 15.222656 89.570312 15.261719 90.011719 15.292969 C 90.066406 15.753906 90.125 16.210938 90.183594 16.671875 C 90.28125 16.683594 90.480469 16.707031 90.578125 16.71875 C 90.617188 16.234375 90.660156 15.746094 90.707031 15.257812 C 91.3125 15.261719 91.921875 15.265625 92.53125 15.269531 C 92.582031 15.742188 92.636719 16.214844 92.695312 16.6875 C 92.914062 16.6875 93.136719 16.6875 93.363281 16.6875 C 93.414062 16.183594 93.457031 15.683594 93.507812 15.179688 C 94.03125 15.292969 94.660156 15.183594 95.121094 15.492188 C 95.308594 15.921875 95.429688 16.371094 95.570312 16.820312 C 95.726562 16.296875 95.886719 15.78125 96.054688 15.261719 C 96.507812 15.253906 96.960938 15.246094 97.417969 15.242188 C 97.554688 16.015625 97.855469 16.839844 97.519531 17.609375 C 97.1875 18.542969 96.6875 19.472656 96.859375 20.5 C 97.148438 23.707031 97.199219 26.9375 97.65625 30.128906 C 97.851562 29.996094 98.050781 29.863281 98.25 29.734375 C 98.277344 28.140625 98.335938 26.546875 98.484375 24.960938 C 98.753906 23.070312 97.683594 21.296875 98 19.398438 C 99.050781 19.480469 99.730469 20.195312 100.164062 21.089844 C 100.238281 20.652344 100.316406 20.214844 100.390625 19.773438 C 100.882812 19.746094 101.375 19.71875 101.871094 19.691406 C 102.128906 20.164062 102.390625 20.632812 102.652344 21.105469 C 102.773438 20.675781 102.898438 20.246094 103.023438 19.8125 C 103.597656 19.808594 104.175781 19.804688 104.757812 19.800781 C 104.933594 21.515625 103.792969 23.019531 103.988281 24.722656 C 104.128906 26.507812 104.144531 28.300781 104.1875 30.089844 C 104.320312 30.074219 104.589844 30.042969 104.726562 30.023438 C 104.78125 29.570312 104.839844 29.117188 104.902344 28.664062 C 105.417969 28.664062 105.933594 28.65625 106.453125 28.652344 C 106.472656 29.425781 106.527344 30.207031 106.4375 30.976562 C 106.3125 31.996094 105.089844 32.480469 105.007812 33.503906 C 104.882812 35.214844 105.132812 36.921875 105.136719 38.632812 C 105.167969 39.195312 104.996094 39.734375 104.722656 40.222656 C 104.453125 37.734375 104.484375 35.222656 104.476562 32.726562 C 104.957031 32.238281 105.542969 31.8125 105.863281 31.191406 C 106.015625 30.5625 106.003906 29.910156 106.046875 29.269531 C 105.871094 29.28125 105.519531 29.304688 105.347656 29.316406 C 105.285156 29.730469 105.230469 30.148438 105.175781 30.5625 C 104.695312 30.558594 104.214844 30.550781 103.734375 30.546875 C 103.589844 28.511719 103.414062 26.476562 103.351562 24.441406 C 103.269531 22.945312 104.164062 21.582031 103.9375 20.070312 C 103.6875 20.539062 103.449219 21.007812 103.210938 21.480469 C 102.753906 21.441406 102.300781 21.40625 101.847656 21.371094 C 101.683594 20.972656 101.523438 20.578125 101.367188 20.183594 C 101.105469 20.652344 100.871094 21.144531 100.542969 21.566406 C 100.140625 21.660156 99.730469 21.691406 99.328125 21.746094 C 99.226562 21.261719 99.128906 20.78125 99.03125 20.300781 C 98.875 20.289062 98.570312 20.265625 98.417969 20.25 C 98.632812 21.554688 99.222656 22.796875 99.148438 24.136719 C 99.058594 26.253906 98.890625 28.363281 98.742188 30.476562 C 98.160156 30.453125 97.582031 30.425781 97.003906 30.398438 C 96.777344 27.085938 96.386719 23.785156 96.164062 20.464844 C 95.917969 18.828125 97.238281 17.425781 96.824219 15.769531 C 96.660156 16.328125 96.5 16.886719 96.34375 17.445312 C 95.792969 17.449219 95.242188 17.460938 94.691406 17.46875 C 94.640625 16.976562 94.585938 16.484375 94.535156 15.996094 C 94.425781 16.015625 94.207031 16.054688 94.09375 16.070312 C 94.042969 16.539062 93.988281 17.003906 93.941406 17.472656 C 93.320312 17.472656 92.703125 17.472656 92.085938 17.476562 C 92.027344 17.007812 91.96875 16.542969 91.914062 16.074219 C 91.820312 16.066406 91.640625 16.058594 91.550781 16.054688 C 91.449219 16.503906 91.347656 16.957031 91.253906 17.40625 C 90.6875 17.441406 90.125 17.472656 89.558594 17.507812 C 89.507812 17.023438 89.460938 16.539062 89.414062 16.054688 C 89.28125 16.054688 89.011719 16.054688 88.878906 16.050781 C 88.804688 17.214844 89.234375 18.277344 90.054688 19.089844 C 89.824219 22.882812 89.496094 26.671875 89.039062 30.449219 C 88.363281 30.460938 87.6875 30.476562 87.007812 30.488281 C 86.90625 29.277344 86.792969 28.066406 86.675781 26.851562 C 86.558594 27.015625 86.328125 27.351562 86.210938 27.519531 C 84.949219 27.171875 83.671875 26.875 82.390625 26.589844 C 82.40625 26.523438 82.429688 26.382812 82.441406 26.316406 C 82.742188 26.128906 83.050781 25.957031 83.363281 25.785156 C 83.539062 25.113281 83.820312 24.472656 84.265625 23.933594 C 84.242188 24.75 84.183594 25.5625 84.121094 26.375 C 84.476562 26.328125 84.839844 26.3125 85.175781 26.183594 C 85.164062 25.300781 84.980469 24.429688 84.835938 23.558594 C 83.273438 23.746094 81.730469 24.042969 80.210938 24.433594 C 78.679688 24.828125 77.070312 24.90625 75.578125 25.457031 C 77.636719 25.941406 79.921875 25.210938 81.84375 26.242188 C 81.894531 26.714844 81.875 27.191406 81.863281 27.664062 C 81.730469 27.320312 81.59375 26.980469 81.453125 26.640625 C 79.144531 26.558594 76.851562 26.21875 74.535156 26.28125 C 74.40625 25.816406 74.28125 25.347656 74.179688 24.875 C 75.308594 22.542969 76.660156 20.3125 77.863281 18.011719 C 79.949219 19.894531 82.109375 21.695312 84.304688 23.449219 C 84.519531 22.785156 84.730469 22.121094 84.941406 21.453125 C 85.414062 21.527344 85.886719 21.605469 86.363281 21.679688 C 86.667969 21.121094 86.976562 20.558594 87.296875 20.007812 C 87.253906 20.941406 87.03125 21.851562 86.796875 22.753906 C 86.511719 23.851562 86.832031 24.972656 87.011719 26.058594 C 87.140625 24.859375 86.894531 23.550781 87.496094 22.453125 C 87.511719 24.886719 87.4375 27.324219 87.511719 29.761719 C 87.871094 29.746094 88.238281 29.734375 88.601562 29.71875 C 88.695312 26.53125 89.035156 23.359375 89.238281 20.183594 C 89.382812 19.339844 88.785156 18.699219 88.28125 18.117188 C 88.03125 19.425781 88.277344 20.84375 87.6875 22.070312 C 87.6875 21.261719 87.683594 20.453125 87.675781 19.644531 C 87.242188 19.671875 86.808594 19.703125 86.378906 19.730469 C 86.257812 20.101562 86.136719 20.464844 86.019531 20.832031 C 85.691406 20.925781 85.367188 21.023438 85.042969 21.125 C 86.304688 16.78125 87.632812 12.457031 88.84375 8.105469 Z M 88.84375 8.105469 " fill-opacity="1" fill-rule="nonzero"/><path fill="rgb(30.979919%, 33.329773%, 41.178894%)" d="M 65.34375 9.414062 C 64.796875 8.488281 64.449219 7.460938 64.226562 6.410156 C 66.84375 8.480469 69.308594 10.734375 71.851562 12.890625 C 70.835938 13.640625 69.765625 14.316406 68.71875 15.011719 C 67.304688 13.328125 66.457031 11.289062 65.34375 9.414062 Z M 65.34375 9.414062 " fill-opacity="1" fill-rule="nonzero"/><path fill="rgb(43.528748%, 50.19989%, 71.369934%)" d="M 50.214844 17.949219 C 54.101562 16.914062 58.019531 15.996094 61.894531 14.914062 C 61.488281 16.726562 61.035156 18.535156 60.722656 20.371094 C 57.238281 19.472656 53.710938 18.792969 50.214844 17.949219 Z M 50.214844 17.949219 " fill-opacity="1" fill-rule="nonzero"/><path fill="rgb(43.528748%, 50.19989%, 71.369934%)" d="M 87.6875 22.070312 C 88.277344 20.84375 88.03125 19.425781 88.28125 18.117188 C 88.785156 18.699219 89.382812 19.339844 89.238281 20.183594 C 89.035156 23.359375 88.695312 26.53125 88.601562 29.71875 C 88.238281 29.734375 87.871094 29.746094 87.511719 29.761719 C 87.4375 27.324219 87.511719 24.886719 87.496094 22.453125 C 87.542969 22.355469 87.640625 22.164062 87.6875 22.070312 Z M 87.6875 22.070312 " fill-opacity="1" fill-rule="nonzero"/><path fill="rgb(30.979919%, 33.329773%, 41.178894%)" d="M 86.378906 19.730469 C 86.808594 19.703125 87.242188 19.671875 87.675781 19.644531 C 87.683594 20.453125 87.6875 21.261719 87.6875 22.070312 C 87.640625 22.164062 87.542969 22.355469 87.496094 22.453125 C 86.894531 23.550781 87.140625 24.859375 87.011719 26.058594 C 86.832031 24.972656 86.511719 23.851562 86.796875 22.753906 C 87.03125 21.851562 87.253906 20.941406 87.296875 20.007812 C 86.976562 20.558594 86.667969 21.121094 86.363281 21.679688 C 85.886719 21.605469 85.414062 21.527344 84.941406 21.453125 L 85.042969 21.125 C 85.367188 21.023438 85.691406 20.925781 86.019531 20.832031 C 86.136719 20.464844 86.257812 20.101562 86.378906 19.730469 Z M 86.378906 19.730469 " fill-opacity="1" fill-rule="nonzero"/><path fill="rgb(30.979919%, 33.329773%, 41.178894%)" d="M 92.65625 20.074219 L 93.066406 20.121094 C 93.027344 21.054688 93.265625 21.949219 93.457031 22.851562 C 93.128906 23.257812 92.675781 22.988281 92.273438 22.894531 C 92.574219 21.984375 92.671875 21.03125 92.65625 20.074219 Z M 92.65625 20.074219 " fill-opacity="1" fill-rule="nonzero"/><path fill="rgb(30.979919%, 33.329773%, 41.178894%)" d="M 80.210938 24.433594 C 81.730469 24.042969 83.273438 23.746094 84.835938 23.558594 C 84.980469 24.429688 85.164062 25.300781 85.175781 26.183594 C 84.839844 26.3125 84.476562 26.328125 84.121094 26.375 C 84.183594 25.5625 84.242188 24.75 84.265625 23.933594 C 83.820312 24.472656 83.539062 25.113281 83.363281 25.785156 C 83.050781 25.957031 82.742188 26.128906 82.441406 26.316406 C 82.429688 26.382812 82.40625 26.523438 82.390625 26.589844 C 82.242188 27.878906 82.324219 29.195312 82 30.457031 C 81.515625 30.527344 81.027344 30.546875 80.535156 30.570312 C 80.367188 29.910156 80.214844 29.210938 79.621094 28.796875 C 79.558594 29.558594 79.527344 30.324219 79.503906 31.09375 C 80.03125 31.605469 80.558594 32.121094 81.085938 32.640625 C 80.894531 35.394531 81.058594 38.214844 80.378906 40.90625 C 80.335938 40.753906 80.25 40.453125 80.207031 40.300781 C 80.488281 37.824219 80.546875 35.328125 80.699219 32.839844 C 80.136719 32.300781 79.582031 31.757812 79.023438 31.21875 C 79.023438 30.332031 79.019531 29.441406 79.015625 28.554688 C 79.578125 28.601562 80.140625 28.640625 80.703125 28.6875 C 80.753906 29.144531 80.800781 29.601562 80.847656 30.054688 C 81.070312 30.050781 81.515625 30.046875 81.742188 30.042969 C 81.78125 29.25 81.835938 28.457031 81.863281 27.664062 C 81.875 27.191406 81.894531 26.714844 81.84375 26.242188 C 79.921875 25.210938 77.636719 25.941406 75.578125 25.457031 C 77.070312 24.90625 78.679688 24.828125 80.210938 24.433594 Z M 80.210938 24.433594 " fill-opacity="1" fill-rule="nonzero"/><path fill="rgb(30.979919%, 33.329773%, 41.178894%)" d="M 100.886719 26.554688 C 100.75 25.511719 100.964844 24.425781 101.328125 23.445312 C 101.449219 24.398438 101.550781 25.363281 101.910156 26.257812 C 101.574219 26.390625 101.234375 26.488281 100.886719 26.554688 Z M 100.886719 26.554688 " fill-opacity="1" fill-rule="nonzero"/><path fill="rgb(43.528748%, 50.19989%, 71.369934%)" d="M 73.652344 25.59375 C 73.824219 25.351562 74 25.113281 74.179688 24.875 C 74.28125 25.347656 74.40625 25.816406 74.535156 26.28125 C 76.851562 26.21875 79.144531 26.558594 81.453125 26.640625 C 81.59375 26.980469 81.730469 27.320312 81.863281 27.664062 C 81.835938 28.457031 81.78125 29.25 81.742188 30.042969 C 81.515625 30.046875 81.070312 30.050781 80.847656 30.054688 C 80.800781 29.601562 80.753906 29.144531 80.703125 28.6875 C 80.140625 28.640625 79.578125 28.601562 79.015625 28.554688 C 79.019531 29.441406 79.023438 30.332031 79.023438 31.21875 C 79.582031 31.757812 80.136719 32.300781 80.699219 32.839844 C 80.546875 35.328125 80.488281 37.824219 80.207031 40.300781 C 79.355469 38.570312 78.585938 36.800781 77.84375 35.019531 C 76.414062 31.890625 75.03125 28.746094 73.652344 25.59375 Z M 73.652344 25.59375 " fill-opacity="1" fill-rule="nonzero"/><path fill="rgb(30.979919%, 33.329773%, 41.178894%)" d="M 88.777344 37.742188 C 89.21875 35.863281 91.058594 34.378906 93.023438 34.609375 C 94.710938 34.636719 96.089844 35.972656 96.5 37.554688 C 96.5625 38.761719 96.53125 39.96875 96.539062 41.175781 C 97.664062 41.269531 98.785156 41.359375 99.90625 41.441406 C 96.246094 41.363281 92.585938 41.40625 88.929688 41.359375 C 88.929688 40.152344 88.898438 38.945312 88.777344 37.742188 Z M 88.777344 37.742188 " fill-opacity="1" fill-rule="nonzero"/><path fill="rgb(87.059021%, 87.059021%, 88.62915%)" d="M 77.84375 35.019531 C 78.585938 36.800781 79.355469 38.570312 80.207031 40.300781 C 80.25 40.453125 80.335938 40.753906 80.378906 40.90625 C 80.402344 41 80.453125 41.191406 80.480469 41.285156 L 80.515625 41.417969 C 78.285156 40.722656 76.039062 40.046875 73.867188 39.171875 C 74.992188 38.792969 76.144531 38.492188 77.285156 38.140625 C 75.953125 37.785156 74.582031 37.660156 73.222656 37.488281 C 71.324219 37.195312 69.429688 37.621094 67.539062 37.765625 C 64.332031 38.019531 61.128906 38.570312 57.90625 38.34375 C 55.917969 38.195312 53.90625 38.355469 51.9375 37.988281 C 54.964844 37.828125 58 37.703125 61.03125 37.636719 C 62.441406 37.6875 63.324219 36.234375 64.722656 36.238281 C 68.585938 35.984375 72.460938 35.890625 76.328125 35.671875 C 76.886719 35.613281 77.679688 35.742188 77.84375 35.019531 Z M 77.84375 35.019531 " fill-opacity="1" fill-rule="nonzero"/><path fill="rgb(35.688782%, 40.779114%, 56.858826%)" d="M 84.992188 35.007812 C 86.761719 34.84375 87.953125 36.394531 88.777344 37.742188 C 88.898438 38.945312 88.929688 40.152344 88.929688 41.359375 C 87.613281 41.351562 86.304688 41.339844 84.992188 41.328125 C 84.957031 39.226562 84.929688 37.117188 84.992188 35.007812 Z M 84.992188 35.007812 " fill-opacity="1" fill-rule="nonzero"/><path fill="rgb(35.688782%, 40.779114%, 56.858826%)" d="M 96.5 37.554688 C 97.453125 36.382812 98.496094 35.003906 100.167969 35.007812 C 100.253906 37.160156 100.234375 39.3125 100.171875 41.464844 L 99.90625 41.441406 C 98.785156 41.359375 97.664062 41.269531 96.539062 41.175781 C 96.53125 39.96875 96.5625 38.761719 96.5 37.554688 Z M 96.5 37.554688 " fill-opacity="1" fill-rule="nonzero"/><path fill="rgb(87.059021%, 87.059021%, 88.62915%)" d="M 103.734375 41.445312 C 104.832031 40.359375 105.925781 39.265625 107.019531 38.171875 C 110.1875 38.90625 113.492188 38.808594 116.648438 39.597656 C 112.355469 40.289062 108.046875 40.902344 103.734375 41.445312 Z M 103.734375 41.445312 " fill-opacity="1" fill-rule="nonzero"/><path fill="rgb(18.818665%, 18.818665%, 18.818665%)" d="M 123.417969 42.746094 C 124.691406 42.757812 125.96875 42.753906 127.242188 42.757812 C 127.007812 44.464844 126.675781 46.15625 126.316406 47.839844 C 128.511719 47.96875 130.78125 47.558594 132.90625 48.28125 C 134.835938 48.976562 135.8125 51.097656 135.851562 53.042969 C 135.824219 55.398438 135.082031 57.808594 133.492188 59.585938 C 132 61.226562 129.777344 62.105469 127.570312 62.097656 C 125.035156 62.09375 122.503906 62.105469 119.96875 62.085938 C 121.054688 55.628906 122.269531 49.195312 123.417969 42.746094 Z M 123.417969 42.746094 " fill-opacity="1" fill-rule="nonzero"/><path fill="rgb(18.818665%, 18.818665%, 18.818665%)" d="M 47.519531 46.148438 C 47.714844 45.011719 47.941406 43.882812 48.15625 42.75 C 53.722656 42.761719 59.285156 42.742188 64.851562 42.761719 C 64.609375 43.917969 64.425781 45.085938 64.191406 46.242188 C 59.75 50.375 55.339844 54.546875 50.890625 58.671875 C 54.546875 58.722656 58.207031 58.683594 61.867188 58.695312 C 61.777344 59.835938 61.578125 60.964844 61.355469 62.089844 C 55.792969 62.113281 50.230469 62.082031 44.664062 62.105469 C 44.949219 60.917969 44.929688 59.609375 45.460938 58.503906 C 49.863281 54.367188 54.34375 50.304688 58.75 46.171875 C 55.007812 46.125 51.261719 46.167969 47.519531 46.148438 Z M 47.519531 46.148438 " fill-opacity="1" fill-rule="nonzero"/><path fill="rgb(18.818665%, 18.818665%, 18.818665%)" d="M 83.8125 48.664062 C 85.078125 48.023438 86.523438 47.84375 87.929688 47.851562 C 90.371094 47.859375 92.808594 47.851562 95.25 47.859375 C 94.453125 52.328125 93.648438 56.796875 92.839844 61.265625 C 92.582031 62.785156 92.113281 64.351562 91.050781 65.515625 C 89.894531 66.734375 88.152344 67.195312 86.519531 67.199219 C 83.941406 67.199219 81.359375 67.195312 78.78125 67.199219 C 78.972656 66.238281 79.128906 65.269531 79.304688 64.3125 C 81.792969 64.269531 84.292969 64.402344 86.78125 64.246094 C 87.933594 64.175781 88.671875 63.15625 88.878906 62.105469 C 86.851562 62.023438 84.796875 62.277344 82.789062 61.878906 C 80.824219 61.472656 79.519531 59.554688 79.308594 57.636719 C 78.925781 54.140625 80.625 50.3125 83.8125 48.664062 Z M 83.8125 48.664062 " fill-opacity="1" fill-rule="nonzero"/><path fill="rgb(18.818665%, 18.818665%, 18.818665%)" d="M 65.550781 47.863281 C 68.292969 47.847656 71.03125 47.859375 73.777344 47.851562 C 75.152344 47.863281 76.683594 48.121094 77.65625 49.1875 C 78.425781 49.984375 78.640625 51.160156 78.558594 52.226562 C 78.132812 55.527344 77.316406 58.765625 76.894531 62.066406 C 73.492188 62.136719 70.082031 62.074219 66.675781 62.101562 C 65.429688 62.125 63.957031 61.886719 63.203125 60.785156 C 62.25 59.339844 62.753906 57.464844 63.441406 56.019531 C 64.296875 54.285156 66.316406 53.636719 68.117188 53.527344 C 70.230469 53.472656 72.347656 53.53125 74.464844 53.5 C 74.652344 52.5625 74.589844 51.285156 73.449219 51.027344 C 70.679688 50.554688 67.835938 50.882812 65.039062 50.78125 C 65.210938 49.808594 65.394531 48.839844 65.550781 47.863281 Z M 65.550781 47.863281 " fill-opacity="1" fill-rule="nonzero"/><path fill="rgb(18.818665%, 18.818665%, 18.818665%)" d="M 96.785156 47.851562 C 99.207031 47.871094 101.632812 47.832031 104.054688 47.863281 C 105.089844 47.894531 106.347656 48.257812 106.660156 49.382812 C 106.984375 50.890625 106.402344 52.398438 106.199219 53.882812 C 104.960938 53.890625 103.722656 53.890625 102.488281 53.882812 C 102.726562 52.851562 102.917969 51.800781 102.820312 50.738281 C 101.9375 50.59375 101.046875 50.550781 100.15625 50.542969 C 99.453125 54.390625 98.757812 58.246094 98.085938 62.097656 C 96.796875 62.09375 95.511719 62.101562 94.222656 62.09375 C 95.046875 57.339844 95.914062 52.59375 96.785156 47.851562 Z M 96.785156 47.851562 " fill-opacity="1" fill-rule="nonzero"/><path fill="rgb(18.818665%, 18.818665%, 18.818665%)" d="M 110.4375 49.222656 C 112.125 48.066406 114.238281 47.765625 116.238281 47.851562 C 117.910156 47.859375 119.582031 47.847656 121.25 47.859375 C 121.078125 48.824219 120.894531 49.789062 120.765625 50.761719 C 118.367188 50.875 115.941406 50.59375 113.574219 51.019531 C 112.371094 51.269531 111.832031 52.457031 111.519531 53.519531 C 114.398438 53.597656 117.277344 53.535156 120.160156 53.554688 C 119.941406 54.496094 120.160156 55.785156 119.449219 56.484375 C 116.628906 56.574219 113.800781 56.480469 110.984375 56.527344 C 111.015625 57.203125 110.828125 58.003906 111.363281 58.539062 C 111.820312 59 112.519531 59.039062 113.128906 59.113281 C 115.160156 59.226562 117.191406 59.148438 119.222656 59.175781 C 119.019531 60.144531 118.871094 61.125 118.703125 62.101562 C 116.558594 62.078125 114.410156 62.121094 112.269531 62.085938 C 110.746094 61.984375 109.105469 61.578125 108.046875 60.402344 C 106.898438 59.101562 106.746094 57.234375 106.984375 55.585938 C 107.269531 53.144531 108.328125 50.625 110.4375 49.222656 Z M 110.4375 49.222656 " fill-opacity="1" fill-rule="nonzero"/><path fill="rgb(100%, 100%, 100%)" d="M 83.53125 54.519531 C 83.855469 52.886719 85.054688 51.355469 86.746094 51.035156 C 88.097656 50.859375 89.46875 50.902344 90.832031 50.875 C 90.382812 53.644531 89.816406 56.390625 89.382812 59.160156 C 87.671875 59.117188 85.792969 59.386719 84.246094 58.492188 C 82.964844 57.617188 83.1875 55.828125 83.53125 54.519531 Z M 83.53125 54.519531 " fill-opacity="1" fill-rule="nonzero"/><path fill="rgb(100%, 100%, 100%)" d="M 125.816406 50.953125 C 127.355469 50.824219 128.996094 50.765625 130.46875 51.3125 C 131.6875 51.832031 131.898438 53.347656 131.710938 54.511719 C 131.507812 56.144531 130.914062 58.089844 129.191406 58.691406 C 127.621094 59.171875 125.9375 59.109375 124.3125 59.019531 C 124.902344 56.347656 125.25 53.625 125.816406 50.953125 Z M 125.816406 50.953125 " fill-opacity="1" fill-rule="nonzero"/><path fill="rgb(100%, 100%, 100%)" d="M 68.175781 56.4375 C 70.082031 56.214844 72.011719 56.371094 73.929688 56.339844 C 73.726562 57.292969 73.550781 58.25 73.386719 59.214844 C 73.203125 59.230469 72.832031 59.265625 72.648438 59.285156 C 70.707031 59.039062 68.632812 59.617188 66.785156 58.851562 C 66.707031 57.847656 67.039062 56.640625 68.175781 56.4375 Z M 68.175781 56.4375 " fill-opacity="1" fill-rule="nonzero"/><path fill="rgb(43.528748%, 50.19989%, 71.369934%)" d="M 62.617188 68.53125 C 63.371094 68.53125 64.121094 68.535156 64.871094 68.539062 C 64.679688 69.46875 64.5 70.398438 64.320312 71.332031 C 65.753906 71.40625 67.320312 71.078125 68.632812 71.8125 C 69.316406 72.167969 69.5625 72.988281 69.394531 73.710938 C 69.101562 75.484375 68.800781 77.253906 68.488281 79.019531 C 67.695312 79.019531 66.902344 79.015625 66.113281 79.011719 C 66.449219 77.117188 66.859375 75.234375 67.125 73.332031 C 66.113281 72.988281 65.039062 73.03125 63.988281 73.058594 C 63.589844 75.042969 63.175781 77.027344 62.789062 79.011719 C 62.035156 79.015625 61.28125 79.019531 60.53125 79.019531 C 61.242188 75.523438 61.878906 72.015625 62.617188 68.53125 Z M 62.617188 68.53125 " fill-opacity="1" fill-rule="nonzero"/><path fill="rgb(60.389709%, 60.389709%, 60.778809%)" d="M 113.503906 68.882812 C 114.113281 68.882812 114.722656 68.882812 115.335938 68.886719 C 115.199219 69.769531 115.054688 70.65625 114.921875 71.542969 C 115.589844 71.554688 116.261719 71.570312 116.929688 71.582031 C 116.832031 72.027344 116.734375 72.46875 116.640625 72.914062 C 115.976562 72.925781 115.3125 72.945312 114.65625 72.964844 C 114.476562 74.253906 113.90625 75.566406 114.191406 76.875 C 114.707031 77.136719 115.304688 77.082031 115.867188 77.152344 C 115.796875 77.605469 115.730469 78.058594 115.664062 78.507812 C 114.480469 78.464844 112.621094 78.898438 112.144531 77.421875 C 111.972656 75.917969 112.578125 74.445312 112.765625 72.964844 C 112.328125 72.957031 111.890625 72.945312 111.453125 72.941406 C 111.523438 72.472656 111.597656 72.007812 111.671875 71.542969 C 112.101562 71.550781 112.527344 71.558594 112.957031 71.5625 C 113.152344 70.671875 113.328125 69.777344 113.503906 68.882812 Z M 113.503906 68.882812 " fill-opacity="1" fill-rule="nonzero"/><path fill="rgb(43.528748%, 50.19989%, 71.369934%)" d="M 53.175781 71.339844 C 54.84375 71.359375 56.515625 71.292969 58.183594 71.359375 C 59.222656 71.417969 60.390625 71.890625 60.792969 72.933594 C 61.601562 75.328125 60.1875 78.246094 57.703125 78.90625 C 56.445312 79.132812 55.15625 78.980469 53.886719 79.023438 C 53.699219 79.949219 53.539062 80.875 53.410156 81.804688 C 52.640625 81.816406 51.875 81.820312 51.109375 81.824219 C 51.789062 78.328125 52.476562 74.832031 53.175781 71.339844 Z M 53.175781 71.339844 " fill-opacity="1" fill-rule="nonzero"/><path fill="rgb(43.528748%, 50.19989%, 71.369934%)" d="M 70.917969 71.355469 C 72.523438 71.34375 74.128906 71.308594 75.734375 71.347656 C 76.835938 71.355469 78.109375 71.800781 78.566406 72.894531 C 79.472656 75.332031 77.90625 78.375 75.339844 78.9375 C 74.128906 79.101562 72.90625 78.996094 71.691406 79.019531 C 71.511719 79.960938 71.320312 80.898438 71.105469 81.835938 C 70.382812 81.828125 69.664062 81.820312 68.945312 81.8125 C 69.488281 78.308594 70.339844 74.855469 70.917969 71.355469 Z M 70.917969 71.355469 " fill-opacity="1" fill-rule="nonzero"/><path fill="rgb(60.389709%, 60.389709%, 60.778809%)" d="M 86.835938 71.554688 C 89.476562 71.578125 92.117188 71.519531 94.761719 71.574219 C 95.542969 71.570312 96.589844 71.964844 96.628906 72.878906 C 96.734375 74.78125 96.101562 76.628906 95.839844 78.503906 C 95.210938 78.511719 94.582031 78.515625 93.957031 78.527344 C 94.175781 76.78125 94.800781 75.039062 94.664062 73.277344 C 94.015625 73.011719 93.300781 73.070312 92.621094 73.039062 C 92.292969 74.859375 91.945312 76.675781 91.636719 78.503906 C 90.984375 78.511719 90.332031 78.519531 89.683594 78.527344 C 90.011719 76.707031 90.34375 74.886719 90.648438 73.0625 C 89.914062 73.066406 89.175781 73.070312 88.441406 73.070312 C 88.136719 74.894531 87.796875 76.714844 87.4375 78.53125 C 86.808594 78.523438 86.183594 78.515625 85.554688 78.507812 C 86.039062 76.203125 86.378906 73.867188 86.835938 71.554688 Z M 86.835938 71.554688 " fill-opacity="1" fill-rule="nonzero"/><path fill="rgb(60.389709%, 60.389709%, 60.778809%)" d="M 99.914062 71.648438 C 101.253906 71.464844 102.605469 71.574219 103.949219 71.578125 C 103.835938 72.042969 103.730469 72.511719 103.621094 72.976562 C 102.488281 72.988281 101.339844 72.882812 100.214844 73.058594 C 99.5625 73.121094 99.339844 73.789062 99.054688 74.269531 C 100.511719 74.3125 101.96875 74.289062 103.425781 74.296875 C 103.332031 74.785156 103.238281 75.277344 103.148438 75.765625 C 101.648438 75.800781 100.144531 75.71875 98.652344 75.878906 C 98.804688 76.242188 98.988281 76.585938 99.214844 76.90625 C 100.402344 77.191406 101.648438 77.03125 102.859375 77.050781 C 102.8125 77.53125 102.765625 78.011719 102.714844 78.488281 C 101.140625 78.46875 99.464844 78.78125 97.980469 78.117188 C 96.792969 77.535156 96.664062 76.035156 96.933594 74.886719 C 97.167969 73.347656 98.332031 71.917969 99.914062 71.648438 Z M 99.914062 71.648438 " fill-opacity="1" fill-rule="nonzero"/><path fill="rgb(60.389709%, 60.389709%, 60.778809%)" d="M 107.28125 71.636719 C 108.585938 71.476562 109.90625 71.582031 111.21875 71.554688 C 111.132812 72.027344 111.046875 72.5 110.964844 72.976562 C 109.808594 72.984375 108.640625 72.882812 107.496094 73.066406 C 106.871094 73.140625 106.664062 73.8125 106.371094 74.265625 C 107.839844 74.3125 109.3125 74.285156 110.785156 74.304688 C 110.65625 74.800781 110.53125 75.300781 110.40625 75.804688 C 108.976562 75.777344 107.546875 75.777344 106.121094 75.78125 C 106.222656 76.164062 106.175781 76.65625 106.542969 76.914062 C 107.742188 77.191406 108.996094 77.027344 110.21875 77.050781 C 110.140625 77.535156 110.066406 78.019531 109.992188 78.5 C 108.394531 78.441406 106.644531 78.824219 105.171875 78.039062 C 103.980469 77.347656 104.011719 75.773438 104.316406 74.601562 C 104.628906 73.152344 105.789062 71.871094 107.28125 71.636719 Z M 107.28125 71.636719 " fill-opacity="1" fill-rule="nonzero"/><path fill="rgb(60.389709%, 60.389709%, 60.778809%)" d="M 117.664062 71.558594 C 118.289062 71.558594 118.914062 71.558594 119.542969 71.558594 C 119.285156 73.234375 118.832031 74.886719 118.757812 76.585938 C 119.4375 77.226562 120.496094 76.859375 121.339844 76.949219 C 121.675781 75.152344 121.984375 73.347656 122.316406 71.554688 C 122.925781 71.554688 123.542969 71.558594 124.15625 71.5625 C 123.851562 73.894531 123.324219 76.191406 122.957031 78.511719 C 121.464844 78.496094 119.960938 78.609375 118.472656 78.445312 C 117.765625 78.375 116.929688 77.960938 116.878906 77.167969 C 116.765625 75.265625 117.390625 73.425781 117.664062 71.558594 Z M 117.664062 71.558594 " fill-opacity="1" fill-rule="nonzero"/><path fill="rgb(60.389709%, 60.389709%, 60.778809%)" d="M 124.820312 71.558594 C 126.300781 71.582031 127.78125 71.492188 129.257812 71.601562 C 130.257812 71.679688 131.132812 72.46875 131.339844 73.445312 C 131.710938 75.324219 130.753906 77.503906 128.925781 78.226562 C 127.800781 78.609375 126.589844 78.503906 125.425781 78.546875 C 125.28125 79.355469 125.148438 80.164062 125.03125 80.976562 C 124.386719 80.984375 123.738281 80.992188 123.101562 81 C 123.679688 77.855469 124.222656 74.699219 124.820312 71.558594 Z M 124.820312 71.558594 " fill-opacity="1" fill-rule="nonzero"/><path fill="rgb(100%, 100%, 100%)" d="M 126.488281 73.054688 C 127.429688 73.03125 128.789062 72.742188 129.347656 73.730469 C 129.53125 74.738281 129.3125 75.976562 128.449219 76.628906 C 127.625 77.113281 126.628906 76.980469 125.714844 77.027344 C 126.007812 75.710938 126.101562 74.347656 126.488281 73.054688 Z M 126.488281 73.054688 " fill-opacity="1" fill-rule="nonzero"/><path fill="rgb(100%, 100%, 100%)" d="M 55.082031 73.0625 C 56.328125 73.074219 57.835938 72.796875 58.703125 73.925781 C 58.578125 74.894531 58.554688 76.03125 57.753906 76.722656 C 56.808594 77.488281 55.5 77.289062 54.375 77.320312 C 54.605469 75.898438 54.839844 74.480469 55.082031 73.0625 Z M 55.082031 73.0625 " fill-opacity="1" fill-rule="nonzero"/><path fill="rgb(100%, 100%, 100%)" d="M 72.144531 77.308594 C 72.382812 75.894531 72.640625 74.480469 72.871094 73.066406 C 74.03125 73.148438 75.832031 72.652344 76.390625 74.027344 C 76.496094 75.019531 76.21875 76.171875 75.414062 76.820312 C 74.457031 77.472656 73.238281 77.289062 72.144531 77.308594 Z M 72.144531 77.308594 " fill-opacity="1" fill-rule="nonzero"/><path fill="rgb(60.389709%, 60.389709%, 60.778809%)" d="M 80.5625 73.316406 C 81.105469 73.3125 81.648438 73.304688 82.191406 73.304688 C 82.101562 73.859375 82.007812 74.414062 81.917969 74.972656 C 81.378906 74.960938 80.835938 74.953125 80.300781 74.945312 C 80.386719 74.398438 80.472656 73.855469 80.5625 73.316406 Z M 80.5625 73.316406 " fill-opacity="1" fill-rule="nonzero"/><path fill="rgb(60.389709%, 60.389709%, 60.778809%)" d="M 83.160156 74.957031 C 83.273438 74.398438 83.386719 73.839844 83.5 73.277344 C 84.019531 73.292969 84.542969 73.304688 85.066406 73.324219 C 84.972656 73.871094 84.878906 74.417969 84.789062 74.96875 C 84.246094 74.964844 83.699219 74.960938 83.160156 74.957031 Z M 83.160156 74.957031 " fill-opacity="1" fill-rule="nonzero"/><path fill="rgb(60.389709%, 60.389709%, 60.778809%)" d="M 79.953125 77.03125 C 80.355469 76.628906 81.03125 76.875 81.546875 76.769531 C 81.441406 77.351562 81.34375 77.9375 81.246094 78.519531 C 80.707031 78.519531 80.167969 78.519531 79.628906 78.519531 C 79.722656 78.019531 79.796875 77.515625 79.953125 77.03125 Z M 79.953125 77.03125 " fill-opacity="1" fill-rule="nonzero"/><path fill="rgb(60.389709%, 60.389709%, 60.778809%)" d="M 82.5 78.503906 C 82.640625 77.917969 82.78125 77.328125 82.921875 76.738281 C 83.425781 76.792969 83.9375 76.851562 84.445312 76.910156 C 84.339844 77.449219 84.234375 77.984375 84.132812 78.523438 C 83.585938 78.515625 83.042969 78.511719 82.5 78.503906 Z M 82.5 78.503906 " fill-opacity="1" fill-rule="nonzero"/></svg>