<?xml version="1.0" encoding="UTF-8"?>
<svg xmlns="http://www.w3.org/2000/svg" xmlns:xlink="http://www.w3.org/1999/xlink" width="165pt" height="82.499998pt" viewBox="0 0 165 82.499998" version="1.2">
<defs>
<clipPath id="clip1">
  <path d="M 0.496094 0 L 164.503906 0 L 164.503906 82.003906 L 0.496094 82.003906 Z M 0.496094 0 "/>
</clipPath>
<clipPath id="clip2">
  <path d="M 8.699219 23.511719 L 34 23.511719 L 34 58.546875 L 8.699219 58.546875 Z M 8.699219 23.511719 "/>
</clipPath>
<clipPath id="clip3">
  <path d="M 35 35 L 58 35 L 58 58.546875 L 35 58.546875 Z M 35 35 "/>
</clipPath>
<clipPath id="clip4">
  <path d="M 57 35 L 82 35 L 82 58.546875 L 57 58.546875 Z M 57 35 "/>
</clipPath>
<clipPath id="clip5">
  <path d="M 80 35 L 103 35 L 103 58.546875 L 80 58.546875 Z M 80 35 "/>
</clipPath>
<clipPath id="clip6">
  <path d="M 105 23.511719 L 119 23.511719 L 119 58.546875 L 105 58.546875 Z M 105 23.511719 "/>
</clipPath>
<clipPath id="clip7">
  <path d="M 117 35 L 140 35 L 140 58.546875 L 117 58.546875 Z M 117 35 "/>
</clipPath>
<clipPath id="clip8">
  <path d="M 141 35 L 156.300781 35 L 156.300781 58.546875 L 141 58.546875 Z M 141 35 "/>
</clipPath>
<clipPath id="clip9">
  <path d="M 36 23.511719 L 103 23.511719 L 103 30 L 36 30 Z M 36 23.511719 "/>
</clipPath>
</defs>
<g id="surface1">
<g clip-path="url(#clip1)" clip-rule="nonzero">
<path style=" stroke:none;fill-rule:nonzero;fill:rgb(100%,100%,100%);fill-opacity:1;" d="M 0.496094 0 L 164.503906 0 L 164.503906 89.457031 L 0.496094 89.457031 Z M 0.496094 0 "/>
<path style=" stroke:none;fill-rule:nonzero;fill:rgb(100%,100%,100%);fill-opacity:1;" d="M 0.496094 0 L 164.503906 0 L 164.503906 82.003906 L 0.496094 82.003906 Z M 0.496094 0 "/>
<path style=" stroke:none;fill-rule:nonzero;fill:rgb(100%,100%,100%);fill-opacity:1;" d="M 0.496094 0 L 164.503906 0 L 164.503906 82.003906 L 0.496094 82.003906 Z M 0.496094 0 "/>
</g>
<g clip-path="url(#clip2)" clip-rule="nonzero">
<path style=" stroke:none;fill-rule:nonzero;fill:rgb(0%,67.83905%,91.369629%);fill-opacity:1;" d="M 27.03125 38.683594 L 27.03125 29.59375 C 27.03125 29.195312 27.070312 28.800781 27.144531 28.410156 C 27.222656 28.019531 27.339844 27.640625 27.488281 27.269531 C 27.640625 26.902344 27.828125 26.550781 28.050781 26.222656 C 28.269531 25.890625 28.519531 25.582031 28.800781 25.300781 C 29.082031 25.019531 29.386719 24.765625 29.71875 24.546875 C 30.046875 24.324219 30.394531 24.136719 30.761719 23.984375 C 31.128906 23.832031 31.507812 23.714844 31.898438 23.636719 C 32.289062 23.5625 32.679688 23.523438 33.078125 23.519531 L 33.078125 58.121094 L 27.074219 58.121094 L 27.074219 55.371094 C 25.46875 57.316406 23.199219 58.59375 19.988281 58.59375 C 14.320312 58.59375 8.699219 54.660156 8.699219 46.792969 C 8.699219 39.015625 14.179688 35.082031 19.753906 35.082031 C 22.964844 35.082031 25.613281 36.363281 27.03125 38.683594 Z M 26.984375 46.839844 C 26.984375 41.957031 23.722656 40.152344 20.746094 40.152344 C 17.296875 40.152344 14.699219 42.523438 14.699219 46.792969 C 14.699219 50.964844 17.203125 53.523438 20.839844 53.523438 C 24.195312 53.523438 26.984375 51.34375 26.984375 46.839844 Z M 26.984375 46.839844 "/>
</g>
<g clip-path="url(#clip3)" clip-rule="nonzero">
<path style=" stroke:none;fill-rule:nonzero;fill:rgb(0%,67.83905%,91.369629%);fill-opacity:1;" d="M 57.554688 49.207031 L 42.054688 49.207031 C 42.574219 52.289062 45.363281 53.289062 47.773438 53.289062 C 50.230469 53.289062 52.402344 52.292969 53.914062 50.300781 L 57.554688 53.949219 C 55.144531 56.984375 51.652344 58.59375 47.726562 58.59375 C 41.773438 58.59375 35.917969 54.804688 35.917969 46.933594 C 35.917969 39.15625 41.636719 35.085938 47.351562 35.085938 C 52.832031 35.085938 57.746094 38.832031 57.746094 46.367188 C 57.738281 47.320312 57.675781 48.265625 57.554688 49.207031 Z M 47.15625 40.203125 C 44.273438 40.203125 42.433594 42.050781 42.054688 44.609375 L 52.023438 44.609375 C 51.742188 41.765625 49.804688 40.203125 47.15625 40.203125 Z M 47.15625 40.203125 "/>
</g>
<g clip-path="url(#clip4)" clip-rule="nonzero">
<path style=" stroke:none;fill-rule:nonzero;fill:rgb(0%,67.83905%,91.369629%);fill-opacity:1;" d="M 72.339844 58.121094 L 66.71875 58.121094 L 57.742188 35.652344 L 64.453125 35.652344 L 69.554688 50.203125 L 74.609375 35.652344 L 81.320312 35.652344 Z M 72.339844 58.121094 "/>
</g>
<g clip-path="url(#clip5)" clip-rule="nonzero">
<path style=" stroke:none;fill-rule:nonzero;fill:rgb(0%,67.83905%,91.369629%);fill-opacity:1;" d="M 102.488281 49.207031 L 86.988281 49.207031 C 87.503906 52.289062 90.296875 53.285156 92.707031 53.285156 C 95.164062 53.285156 97.335938 52.289062 98.847656 50.300781 L 102.484375 53.949219 C 100.074219 56.984375 96.582031 58.59375 92.65625 58.59375 C 86.707031 58.59375 80.847656 54.804688 80.847656 46.933594 C 80.847656 39.15625 86.5625 35.085938 92.28125 35.085938 C 97.761719 35.085938 102.675781 38.832031 102.675781 46.367188 C 102.667969 47.320312 102.605469 48.265625 102.488281 49.207031 Z M 92.09375 40.203125 C 89.214844 40.203125 87.371094 42.050781 86.992188 44.609375 L 96.960938 44.609375 C 96.675781 41.765625 94.738281 40.203125 92.09375 40.203125 Z M 92.09375 40.203125 "/>
</g>
<g clip-path="url(#clip6)" clip-rule="nonzero">
<path style=" stroke:none;fill-rule:nonzero;fill:rgb(0%,67.83905%,91.369629%);fill-opacity:1;" d="M 113.164062 58.59375 C 109.195312 58.59375 105.511719 56.320312 105.511719 50.726562 L 105.511719 23.519531 C 105.90625 23.519531 106.300781 23.558594 106.691406 23.636719 C 107.082031 23.714844 107.460938 23.832031 107.824219 23.984375 C 108.191406 24.136719 108.542969 24.324219 108.871094 24.542969 C 109.203125 24.765625 109.507812 25.019531 109.789062 25.300781 C 110.070312 25.582031 110.320312 25.886719 110.542969 26.21875 C 110.761719 26.550781 110.949219 26.902344 111.101562 27.269531 C 111.253906 27.636719 111.367188 28.019531 111.445312 28.410156 C 111.523438 28.800781 111.5625 29.195312 111.5625 29.59375 L 111.5625 50.632812 C 111.5625 52.71875 112.933594 53.476562 114.347656 53.476562 C 114.917969 53.476562 115.484375 53.285156 115.957031 53.050781 L 118.035156 57.457031 C 116.523438 58.167969 114.820312 58.59375 113.164062 58.59375 Z M 113.164062 58.59375 "/>
</g>
<g clip-path="url(#clip7)" clip-rule="nonzero">
<path style=" stroke:none;fill-rule:nonzero;fill:rgb(0%,67.83905%,91.369629%);fill-opacity:1;" d="M 138.960938 49.207031 L 123.464844 49.207031 C 123.980469 52.289062 126.769531 53.285156 129.183594 53.285156 C 131.636719 53.285156 133.8125 52.289062 135.324219 50.300781 L 138.960938 53.949219 C 136.550781 56.984375 133.058594 58.59375 129.132812 58.59375 C 123.179688 58.59375 117.320312 54.804688 117.320312 46.933594 C 117.320312 39.15625 123.039062 35.085938 128.753906 35.085938 C 134.238281 35.085938 139.152344 38.832031 139.152344 46.367188 C 139.144531 47.320312 139.082031 48.265625 138.960938 49.207031 Z M 128.566406 40.203125 C 125.6875 40.203125 123.84375 42.050781 123.464844 44.609375 L 133.433594 44.609375 C 133.152344 41.765625 131.214844 40.203125 128.566406 40.203125 Z M 128.566406 40.203125 "/>
</g>
<g clip-path="url(#clip8)" clip-rule="nonzero">
<path style=" stroke:none;fill-rule:nonzero;fill:rgb(0%,67.83905%,91.369629%);fill-opacity:1;" d="M 152.902344 35.367188 C 154.175781 35.367188 155.453125 35.464844 156.300781 35.984375 L 155.027344 41.722656 C 154.316406 41.34375 153.375 41.152344 152.378906 41.152344 C 149.355469 41.152344 148.035156 42.953125 148.035156 46.226562 L 148.035156 58.121094 L 141.980469 58.121094 L 141.980469 35.652344 L 147.984375 35.652344 L 147.984375 38.589844 C 148.933594 36.21875 151.152344 35.367188 152.902344 35.367188 Z M 152.902344 35.367188 "/>
</g>
<g clip-path="url(#clip9)" clip-rule="nonzero">
<path style=" stroke:none;fill-rule:nonzero;fill:rgb(98.81897%,71.369934%,27.839661%);fill-opacity:1;" d="M 36.097656 23.523438 L 102.488281 23.523438 L 102.488281 29.585938 L 36.097656 29.585938 Z M 36.097656 23.523438 "/>
</g>
</g>
</svg>
