<svg id="Layer_1" data-name="Layer 1" xmlns="http://www.w3.org/2000/svg" xmlns:xlink="http://www.w3.org/1999/xlink" viewBox="0 0 623.62 255.12"><defs><style>.cls-1{fill:none;}.cls-2{fill:#fff;}.cls-3{clip-path:url(#clip-path);}.cls-4{fill:#231f20;}</style><clipPath id="clip-path"><rect class="cls-1" x="28.28" y="68.96" width="567.06" height="117.19"/></clipPath></defs><title>apogeo</title><rect class="cls-2" width="623.62" height="255.12"/><g class="cls-3"><path class="cls-4" d="M571.46,127.71c-3.36,18.62-20.45,38.45-43.34,38.45-22,0-33.42-18-29.6-38.6v-0.15C502.19,107.57,519.58,89,542.17,89c23,0,32.81,19.84,29.3,38.76h0ZM545.83,69c-31.44,0-63.63,23.35-70.34,59.51v0.15c-5.5,30.21,13.73,57.53,48.37,57.53,34.49,0,64.54-26.55,70.5-58.59,5.8-32-14.34-58.6-48.52-58.6h0Z"/></g><polygon class="cls-4" points="398.3 184.02 461.63 184.02 465.29 164.03 424.7 164.03 429.74 136.71 469.56 136.71 473.38 116.72 433.55 116.72 438.28 91.09 478.87 91.09 482.53 71.1 419.21 71.1 398.3 184.02 398.3 184.02"/><path class="cls-4" d="M404.44,105.74C400.93,85.14,381.55,69,356.07,69c-33,0-64.39,24.57-70.65,58.29-6.1,32.81,14.8,58.9,48.52,58.9,20.3,0,46.54-10.38,61.49-33.87a77.43,77.43,0,0,0,10.22-28.38H337.3l-3.36,18.31h42.12a38.84,38.84,0,0,1-14.8,17.09,43.09,43.09,0,0,1-23.65,6.87c-18,0-34.18-13.43-29.45-38.91C312.74,102.69,333.64,89,351.8,89c8.7,0,15.41,2.9,20.3,7.48a29,29,0,0,1,6.71,9.31h25.63Z"/><path class="cls-4" d="M327.54,127.71c-3.36,18.62-20.45,38.45-43.33,38.45-22,0-33.42-18-29.6-38.6v-0.15C258.26,107.57,275.66,89,298.24,89c23,0,32.81,19.84,29.3,38.76h0ZM301.9,69c-31.43,0-63.63,23.35-70.34,59.51v0.15c-5.49,30.21,13.73,57.53,48.37,57.53,34.48,0,64.55-26.55,70.5-58.59S336.08,69,301.9,69h0Z"/><path class="cls-4" d="M213.35,108c-1.22,7.17-5.65,12.21-10.07,14.34-5,2.44-10.23,2.9-15.41,2.9H174.43l6.41-34.18h12.51c5.65,0,10.68.46,14.8,2.9,4.12,2.14,6.56,6.87,5.19,14h0Zm14.5-29.15c-5.65-5-12.82-7.78-31.89-7.78H161.77L140.87,184H163.6l7.17-38.76h13.89c16.48,0,24.57-2.75,33.41-9,8.24-5.8,15.11-17.4,17.24-28.54,2-11.14-.46-22.13-7.48-28.84h0Z"/><path class="cls-4" d="M74.52,143.73L99.08,98,107,143.73H74.52ZM115,71.1H95L28.28,184H53l12.21-22.13h44.56L113.89,184h24.87L115,71.1h0Z"/></svg>