<?xml version="1.0" encoding="utf-8"?>
<!-- Generator: Adobe Illustrator 21.0.2, SVG Export Plug-In . SVG Version: 6.00 Build 0)  -->
<svg version="1.1" id="Layer_1" xmlns="http://www.w3.org/2000/svg" xmlns:xlink="http://www.w3.org/1999/xlink" x="0px" y="0px"
	 viewBox="0 0 623.6 255.1" style="enable-background:new 0 0 623.6 255.1;" xml:space="preserve">
<style type="text/css">
	.st0{fill:#FFFFFF;}
	.st1{fill:#0E0E0E;}
</style>
<title>cloudconf</title>
<rect y="0" class="st0" width="623.6" height="255.1"/>
<path class="st1" d="M255.1,213.6c-4.7-1-7.6-5-7.6-10.5c0-7.4,5.4-11.9,12.4-10.4c3.1,0.7,4.1,0.8,5.3,0.4c0.8-0.2,1,1.1,1.2,8.6
	c0.3,8.6,0.4,8.9,1.8,10c1.2,0.9,1.3,1.3,0.7,1.7c-1.1,0.8-3,0.1-4-1.3c-0.7-1-0.9-3.2-0.9-9.2c0-7.8,0-7.9-1.3-7.9
	c-0.7,0-2.7-0.2-4.4-0.4c-2.6-0.3-3.2-0.2-4.7,1c-4.6,3.7-4.4,12.9,0.4,15.3c1.6,0.9,3.8,0.9,7.9,0.1c0.5-0.2,1.1,0,1.4,0.5
	C263.8,213.1,258.6,214.4,255.1,213.6L255.1,213.6L255.1,213.6z M274.4,213.6c-1.2-0.4-2.4-1.1-3.3-2.1c-1.2-1.3-1.5-2.1-1.5-5.5
	c0-3.6,0.1-4,2-5.6c1.2-1.3,3-1.9,4.8-1.8c3.4,0,5.1,1,6.7,4.1l1.2,2.2v-2.2c0-2.8,0.5-4.1,1.5-4.1c1.2,0,1.5,1.4,1.5,6.8
	s0.5,6.4,3.3,6.4c3.3,0,3.6-0.6,3.9-7c0.2-4.7,0.5-5.9,1.2-5.9c0.6,0,1,0.7,1.1,1.8c0.3,3.4,0.7,3.6,2,1.5c2-3.3,2.8-3.7,6.9-3.3
	l3.8,0.3v-3c0-2.6,0.2-3,1-2.8s1.1,1.2,1.2,9.8c0.2,9.7-0.2,11.4-1.9,10c-0.6-0.5-1.5-0.6-2.1-0.1c-1.1,0.4-2.3,0.7-3.5,0.6
	c-2.8-0.1-5.1-2-5.8-4.7c-0.4-1.7-1.4-1.3-1.4,0.6c0,2.4-2.5,4.1-5.9,4.1c-3.9,0-5.4-0.9-6.1-3.8c-0.1-0.8-0.5-1.7-0.9-2.4
	c-0.5,0.6-0.9,1.3-1.1,2.1C281.6,212.9,277.9,214.6,274.4,213.6L274.4,213.6L274.4,213.6z M279,211.2c3-1.6,2.5-9.3-0.7-10.4
	c-4.7-1.6-8.2,3.7-5.6,8.6c1.1,2.2,3.7,3.1,5.9,2.1C278.7,211.4,278.8,211.3,279,211.2L279,211.2z M307.2,211.2
	c1.8-0.9,2.7-4.8,1.8-7.4c-0.8-2.4-2.1-3.4-4.4-3.4s-3.7,2.1-3.7,5.7C300.9,210.9,303.6,213.1,307.2,211.2L307.2,211.2L307.2,211.2z
	 M325.3,213.7c-9.1-2.2-10.8-15.9-2.4-20.2c3.3-1.7,11.2-0.8,10.5,1.2c-0.3,0.5-0.9,0.7-1.4,0.5c-5.6-0.9-6.5-0.8-8.3,0.5
	c-4.6,3.6-4.4,12.9,0.3,15.3c2,1,5.5,1.1,7.3,0.2c0.5-0.4,1.2-0.5,1.8-0.1c0.8,0.8-1.1,2.5-2.8,2.5c-0.7,0-1.5,0.1-2.2,0.2
	C327.1,214,326.2,213.9,325.3,213.7L325.3,213.7L325.3,213.7z M338.6,213.6c-1.2-0.4-2.4-1.1-3.3-2.1c-1.3-1.3-1.5-2.1-1.5-5.5
	c0-3.6,0.1-4,2-5.6c1.2-1.3,3-1.9,4.8-1.8c3.2,0,5.1,1.1,6.4,3.6c1.1,2.4,1.1,5.1,0,7.5C345.7,213,342,214.7,338.6,213.6
	L338.6,213.6L338.6,213.6z M343.2,211.2c3-1.6,2.5-9.3-0.7-10.4c-4.7-1.6-8.2,3.7-5.6,8.6c1.1,2.2,3.7,3.1,5.9,2
	C342.9,211.4,343,211.3,343.2,211.2L343.2,211.2L343.2,211.2z M348.9,209.9c-0.4-3.9,0.1-11.3,0.8-11.3c0.4,0.1,0.9,0.3,1.2,0.6
	c0.6,0.4,1.4,0.4,2,0c2-1.1,5.9-0.8,7.2,0.6c1.1,1.1,1.3,2,1.3,7.4c0,5.2-0.1,6.2-0.9,6.4s-1-0.6-1.2-5.5c-0.3-6.2-0.9-7.6-3.5-7.6
	c-3.3,0-4.2,1.5-4.3,7.5c-0.1,4.4-0.3,5.4-1.1,5.6S349.3,212.9,348.9,209.9L348.9,209.9L348.9,209.9z M364.1,207.7
	c0-5.5-0.1-6.1-1.3-6.9l-1.3-0.9l1.3-1.2c0.7-0.7,1.2-1.6,1.3-2.6c0-2.2,2.3-3.7,5.3-3.4c1.3,0.1,0.8,1.2-0.9,2
	c-2.1,1-2.3,3.7-0.3,4c0.6-0.2,1.1,0.1,1.3,0.7c0.2,0.6-0.1,1.1-0.7,1.3c-0.2,0.1-0.4,0.1-0.6,0c-1.3,0.2-1.4,0.5-1.6,6.5
	c-0.3,5.4-0.5,6.3-1.4,6.5S364.1,213.1,364.1,207.7L364.1,207.7L364.1,207.7z M272.8,170.4c-24.1-5.6-42.5-25.1-46.7-49.5
	c-1.2-6.9-1.2-23,0-29.9c2-12.5,8-24,17-32.8c7.7-7.9,17.4-13.5,28.1-16.3c3.9-1.1,6.2-1.3,15.4-1.3c10,0,11.2,0.1,16.2,1.6
	c13.5,4.1,24.8,11.9,32.5,22.4l2.8,3.8h5.3c10.1,0,19.9,3,28.3,8.6c23.4,15.6,30.1,47,15,70.8c-7.2,11.1-18.3,19.2-31.1,22.6
	c-4.5,1.1-6.5,1.2-41.4,1.2C280.9,171.6,277.1,171.4,272.8,170.4L272.8,170.4L272.8,170.4z M351.8,152.1
	c11.4-3.4,21.1-13.5,23.4-24.6c1-4.9,0.5-14.1-1.1-18.5c-4-10.7-13.2-18.7-24.5-21c-5.7-1.3-11.7-0.8-17.2,1.2
	c-2.3,0.8-4.4,1.3-4.7,1.2c-0.5-0.8-0.9-1.6-1.2-2.5c-1.8-5.5-5.1-10.7-10.2-15.8c-8.9-8.9-17.7-12.7-30-12.8
	c-7.9,0-12.8,1.2-20.1,4.9c-6.3,3.3-14.3,11.4-17.5,18.1c-3.7,7.5-4.3,11-4.3,23.7c0,9.1,0.2,11.5,1.2,15.3
	c4.2,15.1,16.1,26.6,31.9,30.9c2.6,0.7,9.7,0.9,37.1,0.9C343.9,153.1,348.9,153,351.8,152.1L351.8,152.1L351.8,152.1z"/>
</svg>
