<svg id="Layer_1" data-name="Layer 1" xmlns="http://www.w3.org/2000/svg" viewBox="0 0 623.62 255.12"><defs><style>.cls-1{fill:#fff;}.cls-2{fill:#424143;}</style></defs><title>codemotion</title><rect class="cls-1" width="623.62" height="255.12"/><path class="cls-2" d="M582.42,102.3A4.42,4.42,0,0,0,578.06,98h-3.24V88.84h3.24a13.47,13.47,0,0,1,13.53,13.46v18.11c1.34.78,3.57,2.24,5.25,3.23v10.67l-5.25,2.78v18.23a13.5,13.5,0,0,1-13.53,13.57h-3.24v-9.23h3.24a4.42,4.42,0,0,0,4.36-4.34v-19l9.39-7.45-9.39-7.67Z"/><path class="cls-2" d="M41.28,155.43a4.43,4.43,0,0,0,4.36,4.34h3.24v9.12H45.64a13.47,13.47,0,0,1-13.53-13.46V137.32c-1.34-.78-3.57-2.24-5.25-3.23V123.42l5.25-2.78V102.42A13.5,13.5,0,0,1,45.64,88.85h3.24v9.23H45.64a4.43,4.43,0,0,0-4.36,4.34v19l-9.39,7.45,9.39,7.67Z"/><path class="cls-2" d="M143.63,104.92H122.41a13.08,13.08,0,0,0-13.11,13v21.1a13.07,13.07,0,0,0,13.11,13h21.22a13.07,13.07,0,0,0,13.11-13V118a13.08,13.08,0,0,0-13.11-13m.34,34.14a.34.34,0,0,1-.34.34H122.41a.34.34,0,0,1-.34-.34V118a.35.35,0,0,1,.34-.34h21.22a.35.35,0,0,1,.34.34Z"/><path class="cls-2" d="M90.3,139.42a.33.33,0,0,1-.33.33H68.75a.34.34,0,0,1-.34-.33V118.31a.34.34,0,0,1,.34-.34H90a.33.33,0,0,1,.33.34v4.57h12.77v-4.57a13.07,13.07,0,0,0-13.11-13H68.75a13.08,13.08,0,0,0-13.11,13v21.11a13.07,13.07,0,0,0,13.11,13H90a13.07,13.07,0,0,0,13.11-13v-3.1H90.3Z"/><path class="cls-2" d="M212.71,119.93h0v-1.62a13.08,13.08,0,0,0-13.11-13H165.28v12.79c0,.08,0,.16,0,.25v21.11c0,.08,0,.16,0,.24v12.79H199.6a13.07,13.07,0,0,0,13.11-13V119.93Zm-12.77,19.49a.34.34,0,0,1-.34.33H178.38a.33.33,0,0,1-.33-.31V118.28a.33.33,0,0,1,.33-.31H199.6a.34.34,0,0,1,.34.34v1.62h0v18.32h0Z"/><path class="cls-2" d="M332.52,105.32H319.81a13.06,13.06,0,0,0-8.41,3,13.09,13.09,0,0,0-8.42-3H290.26a13.07,13.07,0,0,0-13.11,13v34.08h9.37V118.36a3.74,3.74,0,0,1,3.74-3.73H303a3.74,3.74,0,0,1,3.73,3.6s0,.09,0,.13v29.93h9.39V118.36s0-.08,0-.13a3.73,3.73,0,0,1,3.73-3.6h12.72a3.74,3.74,0,0,1,3.74,3.73v34.08h9.36V118.36a13.07,13.07,0,0,0-13.11-13"/><path class="cls-2" d="M551.14,105.11H533.54a13.07,13.07,0,0,0-13.11,13v34.09h9.36V118.14a3.74,3.74,0,0,1,3.74-3.72h17.59a3.74,3.74,0,0,1,3.75,3.72v34h9.37v-34a13.08,13.08,0,0,0-13.12-13"/><path class="cls-2" d="M387.15,105.08H365.92a13.07,13.07,0,0,0-13.11,13v21.11a13.08,13.08,0,0,0,13.11,13h21.23a13.08,13.08,0,0,0,13.11-13V118.11a13.07,13.07,0,0,0-13.11-13m3.74,34v.18a3.74,3.74,0,0,1-3.74,3.73H365.92a3.74,3.74,0,0,1-3.74-3.73V118.11a3.73,3.73,0,0,1,3.74-3.72h21.23a3.73,3.73,0,0,1,3.74,3.72V139Z"/><path class="cls-2" d="M500.11,105.08H478.89a13.07,13.07,0,0,0-13.11,13v21.11a13.08,13.08,0,0,0,13.11,13h21.22a13.08,13.08,0,0,0,13.11-13V118.11a13.07,13.07,0,0,0-13.11-13m3.74,34v.18a3.74,3.74,0,0,1-3.74,3.73H478.89a3.74,3.74,0,0,1-3.74-3.73V118.11a3.74,3.74,0,0,1,3.74-3.72h21.22a3.73,3.73,0,0,1,3.74,3.72V139Z"/><path class="cls-2" d="M420.25,143.19a3.73,3.73,0,0,1-3.74-3.73V124.88h15.3V114.6h-15.3V100.47s0,0,0-.07h-9.38v39.06a13.07,13.07,0,0,0,13.11,13h21.07v-9.31Z"/><rect class="cls-2" x="448.62" y="107.47" width="9.58" height="45.08"/><path class="cls-2" d="M235.12,152.3h21.22c.43,0,.85,0,1.26-.06v-9.49a3.57,3.57,0,0,1-1.26.23H239.57l-5.11,9.27C234.68,152.26,234.9,152.3,235.12,152.3Z"/><path class="cls-2" d="M231.38,139.26v-5.17h7.51l4.8-8.7H231.38v-7.24a3.73,3.73,0,0,1,3.74-3.72h14.6l5.14-9.32H235.12a13.07,13.07,0,0,0-13.11,13v21.11A13,13,0,0,0,229.56,151l4.52-8.2A3.72,3.72,0,0,1,231.38,139.26Z"/><path class="cls-2" d="M260.12,105.71l-4.81,8.71h1a3.73,3.73,0,0,1,3.75,3.72v7.24H249.27l-4.79,8.7h25V118.14A13,13,0,0,0,260.12,105.71Z"/></svg>