<svg xmlns="http://www.w3.org/2000/svg" viewBox="0 0 623.62 255.12"><defs><style>.cls-1{fill:#fff;}.cls-2,.cls-4{fill:#c33d6e;}.cls-2{fill-rule:evenodd;}.cls-3{isolation:isolate;}</style></defs><g id="BG"><rect class="cls-1" width="623.62" height="255.12"/></g><g id="Logo"><path class="cls-2" d="M263.54,61.54a9.94,9.94,0,1,0-19.87,0v55.07a9.94,9.94,0,0,0,19.87,0Z"/><path class="cls-2" d="M291.64,42.8a9.94,9.94,0,1,0-19.87,0v92.54a9.94,9.94,0,1,0,19.87,0Z"/><path class="cls-2" d="M319.74,24.07a9.94,9.94,0,1,0-19.87,0v130a9.94,9.94,0,0,0,19.87,0v-130Z"/><path class="cls-2" d="M347.85,42.8a9.94,9.94,0,1,0-19.88,0v92.54a9.94,9.94,0,1,0,19.88,0Z"/><path class="cls-2" d="M376,61.54a9.94,9.94,0,1,0-19.87,0v55.07a9.94,9.94,0,0,0,19.87,0Z"/><g class="cls-3"><path d="M213.29,121.78c0,4.89.78,8.87,2.33,11.91a22.56,22.56,0,0,0,4.64,6.3q4.2,3.75,4.2,7.57a6.77,6.77,0,0,1-2.1,4.94,7.28,7.28,0,0,1-5.47,2.25c-2.25,0-4.74-1.37-7.49-4.12a45.63,45.63,0,0,1-8.4-11.24q-3-6.07-3-16.71V51.11q0-10.65,3-16.72a45.63,45.63,0,0,1,8.4-11.24c2.75-2.74,5.24-4.12,7.49-4.12a7.28,7.28,0,0,1,5.47,2.25,6.77,6.77,0,0,1,2.1,4.95c0,2.54-1.4,5.07-4.2,7.56a22.56,22.56,0,0,0-4.64,6.3Q213.3,44.67,213.29,52Z"/></g><g class="cls-3"><path d="M406.33,121.78V52q0-7.35-2.33-11.92a22.37,22.37,0,0,0-4.64-6.3c-2.8-2.49-4.2-5-4.2-7.56a6.77,6.77,0,0,1,2.1-4.95A7.28,7.28,0,0,1,402.73,19c2.25,0,4.75,1.38,7.49,4.12a45.63,45.63,0,0,1,8.4,11.24q3,6.07,3,16.72v71.57q0,10.63-3,16.71a45.63,45.63,0,0,1-8.4,11.24q-4.11,4.13-7.49,4.12a7.28,7.28,0,0,1-5.47-2.25,6.77,6.77,0,0,1-2.1-4.94q0-3.83,4.2-7.57a22.37,22.37,0,0,0,4.64-6.3C405.55,130.65,406.33,126.67,406.33,121.78Z"/></g><g class="cls-3"><path d="M185.59,197.76v28.46a14.24,14.24,0,0,1-.09,1.92,3.51,3.51,0,0,1-.4,1.15,2.8,2.8,0,0,1-1.17,1.14,3.69,3.69,0,0,1-1.77.44,3.09,3.09,0,0,1-2.18-.79,3.83,3.83,0,0,1-1-1.94,8.08,8.08,0,0,1-3,2.17,10,10,0,0,1-3.83.66,8.81,8.81,0,0,1-6.64-2.47,8.24,8.24,0,0,1-1.54-2.22,10.46,10.46,0,0,1-.87-2.88,29.34,29.34,0,0,1-.34-3c-.05-.93-.08-2.07-.08-3.44s0-2.48.08-3.39a29.48,29.48,0,0,1,.34-3,10.46,10.46,0,0,1,.87-2.88,8.24,8.24,0,0,1,1.54-2.22,8.77,8.77,0,0,1,6.61-2.47,8.26,8.26,0,0,1,6.61,2.73v-8a7.34,7.34,0,0,1,.45-3,3.52,3.52,0,0,1,5.93,0A7.37,7.37,0,0,1,185.59,197.76ZM169.54,217c0,1,0,1.82.08,2.52a10.38,10.38,0,0,0,.37,2.11,5.18,5.18,0,0,0,.77,1.72,3.46,3.46,0,0,0,1.33,1.06,4.6,4.6,0,0,0,2,.41,4.87,4.87,0,0,0,2.07-.41,3.57,3.57,0,0,0,1.36-1.06,5,5,0,0,0,.79-1.72,12,12,0,0,0,.37-2.11c.05-.7.07-1.54.07-2.52a26.29,26.29,0,0,0-.15-3.09,9.9,9.9,0,0,0-.62-2.39,3.39,3.39,0,0,0-1.42-1.72,4.74,4.74,0,0,0-2.42-.56,4.8,4.8,0,0,0-2.43.56,3.32,3.32,0,0,0-1.41,1.72,9.46,9.46,0,0,0-.62,2.39A24,24,0,0,0,169.54,217Z"/><path d="M211.72,219.11H198.58a6.18,6.18,0,0,0,1.57,4.41,5.82,5.82,0,0,0,4.46,1.68,7.65,7.65,0,0,0,4.72-1.47,4.61,4.61,0,0,1,2.55-1,2.61,2.61,0,0,1,1.88.85,2.73,2.73,0,0,1,.87,2q0,1.73-2.68,3.51a13.1,13.1,0,0,1-7.44,1.89,18.22,18.22,0,0,1-3.81-.38,11.59,11.59,0,0,1-3.43-1.36,9.57,9.57,0,0,1-2.84-2.53,12.47,12.47,0,0,1-1.86-4,20.81,20.81,0,0,1-.71-5.68q0-6.59,3.24-10.28a10.9,10.9,0,0,1,8.64-3.7,11.06,11.06,0,0,1,8.54,3.42,13.16,13.16,0,0,1,3.35,8.78,4,4,0,0,1-.92,3,2.61,2.61,0,0,1-1,.6,3.62,3.62,0,0,1-1,.24C212.53,219.11,212.17,219.11,211.72,219.11Zm-2.78-4.66a8.2,8.2,0,0,0-.61-3,4.63,4.63,0,0,0-1.75-2,5.67,5.67,0,0,0-5.67,0,4.46,4.46,0,0,0-1.73,2,7.31,7.31,0,0,0-.6,3Z"/></g><g class="cls-3"><path d="M225.49,227.22l-6.4-18.81a5.41,5.41,0,0,1-.39-3.17,2.94,2.94,0,0,1,1.19-1.54,3.47,3.47,0,0,1,2-.59,3.26,3.26,0,0,1,1.31.25,2.3,2.3,0,0,1,.93.8,5.74,5.74,0,0,1,.58,1c.13.3.28.71.46,1.23l4.38,13.3,4.38-13.3c.17-.52.33-.93.46-1.23a6.32,6.32,0,0,1,.57-1,2.39,2.39,0,0,1,.94-.8,3.22,3.22,0,0,1,1.31-.25,3.52,3.52,0,0,1,2,.59,3,3,0,0,1,1.19,1.54,5.41,5.41,0,0,1-.39,3.17l-6.4,18.81A6.51,6.51,0,0,1,232,230a4,4,0,0,1-5,0A6.4,6.4,0,0,1,225.49,227.22Z"/></g><path class="cls-4" d="M253.24,215.78v10.15a14.87,14.87,0,0,1-.09,1.95,4.35,4.35,0,0,1-.41,1.25,3,3,0,0,1-1.27,1.26,4,4,0,0,1-3.8,0,3.05,3.05,0,0,1-1.28-1.26,4.31,4.31,0,0,1-.4-1.25,14.87,14.87,0,0,1-.09-1.95V197.76c0-.49,0-.88,0-1.18a4.84,4.84,0,0,1,.28-1.11,3,3,0,0,1,1.85-1.85,5,5,0,0,1,1.11-.28c.3,0,.69,0,1.18,0h10.21a14,14,0,0,1,5.1.91,10.61,10.61,0,0,1,3.84,2.47,11.05,11.05,0,0,1,2.36,3.63,11.6,11.6,0,0,1,.84,4.4,10.32,10.32,0,0,1-1.78,6,10.69,10.69,0,0,1-5,3.9l5.59,9.73a7.66,7.66,0,0,1,1.18,2.94,3,3,0,0,1-.43,1.71,3.54,3.54,0,0,1-1.38,1.33,3.9,3.9,0,0,1-1.94.58,3,3,0,0,1-1.64-.46,3.79,3.79,0,0,1-1.07-1,17.79,17.79,0,0,1-1-1.57l-6.93-12.1Zm0-6.13h6.92A5.32,5.32,0,0,0,264,208.3a5.16,5.16,0,0,0,0-7.13,5.28,5.28,0,0,0-3.82-1.36h-6.92Z"/><path class="cls-4" d="M299.5,210.67a30.59,30.59,0,0,1,0,12.64,10.18,10.18,0,0,1-2.46,4.3,12.36,12.36,0,0,1-16.94,0,10.05,10.05,0,0,1-2.45-4.3,30.14,30.14,0,0,1,0-12.64,10.05,10.05,0,0,1,2.45-4.3,12.36,12.36,0,0,1,16.94,0A10.18,10.18,0,0,1,299.5,210.67Zm-15.39,2.24a27,27,0,0,0,0,8.16,4.68,4.68,0,0,0,1.29,2.53,4.86,4.86,0,0,0,6.35,0,4.74,4.74,0,0,0,1.28-2.53,26.17,26.17,0,0,0,0-8.16,4.74,4.74,0,0,0-1.28-2.53,4.86,4.86,0,0,0-6.35,0A4.68,4.68,0,0,0,284.11,212.91Z"/><path class="cls-4" d="M313.91,205.89a8.81,8.81,0,0,1,3.09-2.13,9.73,9.73,0,0,1,3.75-.75,8.42,8.42,0,0,1,7.24,3.46,11.3,11.3,0,0,1,3.69-2.63,11.47,11.47,0,0,1,4.5-.83,11.18,11.18,0,0,1,3.8.63,7.73,7.73,0,0,1,2.91,1.78,10.49,10.49,0,0,1,3,7.77v13a7.52,7.52,0,0,1-.44,3,3.51,3.51,0,0,1-5.93,0,7.31,7.31,0,0,1-.45-3V214.13a4.82,4.82,0,0,0-1.32-3.74,4.62,4.62,0,0,0-3.19-1.19,4.77,4.77,0,0,0-3.2,1.17A4.48,4.48,0,0,0,330,214V226.2a7.31,7.31,0,0,1-.45,3,3.51,3.51,0,0,1-5.93,0,7.52,7.52,0,0,1-.44-3V214.13a4.79,4.79,0,0,0-1.33-3.74,4.6,4.6,0,0,0-3.18-1.19,4.4,4.4,0,0,0-4.57,4.93V226.2a7.52,7.52,0,0,1-.44,3,3.51,3.51,0,0,1-5.93,0,7.31,7.31,0,0,1-.45-3V207.76a14.24,14.24,0,0,1,.09-1.92,3.79,3.79,0,0,1,.41-1.15,2.74,2.74,0,0,1,1.17-1.14,3.63,3.63,0,0,1,1.77-.44,3.09,3.09,0,0,1,2.18.79A3.87,3.87,0,0,1,313.91,205.89Z"/><path class="cls-4" d="M362.2,208.78a8.56,8.56,0,0,0-4.38,1.31,4.55,4.55,0,0,1-2.26.71,2.37,2.37,0,0,1-1.94-.92,3.1,3.1,0,0,1-.76-2c0-1.28.85-2.36,2.54-3.26a14.62,14.62,0,0,1,6.9-1.57c3.81,0,6.69.81,8.62,2.43s2.9,4,2.9,7.22v13.56a12.39,12.39,0,0,1-.1,1.92,3.51,3.51,0,0,1-.4,1.15,2.8,2.8,0,0,1-1.17,1.14,3.63,3.63,0,0,1-1.77.44,3.09,3.09,0,0,1-2.18-.79,3.71,3.71,0,0,1-1-1.81,9.49,9.49,0,0,1-3,2.1,10.07,10.07,0,0,1-3.76.6q-4.56,0-7-2.47a8.28,8.28,0,0,1-2.25-6.13,7.38,7.38,0,0,1,2.41-5.69q2.42-2.24,7-2.23H367v-1.37a4.15,4.15,0,0,0-1.18-3.26A5.39,5.39,0,0,0,362.2,208.78Zm4.8,11.8v-1.47h-5.2q-4,0-4,3.15a2.73,2.73,0,0,0,1,2.28,4.94,4.94,0,0,0,3.11.82,8.81,8.81,0,0,0,2.31-.26,4.23,4.23,0,0,0,1.73-1,2.77,2.77,0,0,0,.82-1.33A7.94,7.94,0,0,0,367,220.58Z"/><path class="cls-4" d="M390.63,241a14.19,14.19,0,0,1-6.87-1.52Q381,237.94,381,236a2.77,2.77,0,0,1,.87-2.08,2.61,2.61,0,0,1,1.86-.84,5.09,5.09,0,0,1,2.54.87,7.88,7.88,0,0,0,4,1.26,5.66,5.66,0,0,0,3.23-.87,4.6,4.6,0,0,0,1.77-2.08,7.36,7.36,0,0,0,.48-2.72v-2.78a8.28,8.28,0,0,1-6.5,2.73,8.79,8.79,0,0,1-6.51-2.41,8.29,8.29,0,0,1-2.27-4.21,34.19,34.19,0,0,1-.51-6.65,33.64,33.64,0,0,1,.51-6.62,8.27,8.27,0,0,1,2.27-4.19,8.87,8.87,0,0,1,6.56-2.41,9.26,9.26,0,0,1,3.72.67,8.23,8.23,0,0,1,2.92,2.21,3.87,3.87,0,0,1,1-2,3.07,3.07,0,0,1,2.18-.79,3.69,3.69,0,0,1,1.77.44,2.72,2.72,0,0,1,1.16,1.14,3.54,3.54,0,0,1,.41,1.15,14.24,14.24,0,0,1,.09,1.92v21.9a10.86,10.86,0,0,1-3.29,8.16A12,12,0,0,1,390.63,241Zm5.11-22.62c.06-.61.08-1.32.08-2.14s0-1.53-.08-2.14a10,10,0,0,0-.35-1.87,4.52,4.52,0,0,0-.75-1.59,3.52,3.52,0,0,0-1.31-1,5.18,5.18,0,0,0-4,0,3.48,3.48,0,0,0-1.3,1,4.85,4.85,0,0,0-.72,1.6,11.15,11.15,0,0,0-.34,1.88c-.05.59-.08,1.3-.08,2.12s0,1.53.08,2.14a11.74,11.74,0,0,0,.34,1.9,4.91,4.91,0,0,0,.72,1.61,3.48,3.48,0,0,0,1.3,1,5.18,5.18,0,0,0,4,0,3.44,3.44,0,0,0,1.31-1,4.72,4.72,0,0,0,.75-1.61A10.55,10.55,0,0,0,395.74,218.37Z"/><path class="cls-4" d="M416.88,205.89a8.47,8.47,0,0,1,3.09-2.13,9.78,9.78,0,0,1,3.76-.75,8.6,8.6,0,0,1,8.62,5.85,14,14,0,0,1,.61,4.33v13a7.52,7.52,0,0,1-.44,3,3.51,3.51,0,0,1-5.93,0,7.31,7.31,0,0,1-.45-3V214.13a4.82,4.82,0,0,0-1.32-3.74,4.62,4.62,0,0,0-3.19-1.19,4.71,4.71,0,0,0-3.21,1.19,4.76,4.76,0,0,0-1.35,3.74V226.2a7.31,7.31,0,0,1-.45,3,3.51,3.51,0,0,1-5.93,0,7.52,7.52,0,0,1-.44-3V207.76a14.24,14.24,0,0,1,.09-1.92,3.54,3.54,0,0,1,.41-1.15,2.72,2.72,0,0,1,1.16-1.14,3.7,3.7,0,0,1,1.78-.44,3.06,3.06,0,0,1,2.17.79A3.87,3.87,0,0,1,416.88,205.89Z"/><path class="cls-4" d="M449.28,208.78a8.56,8.56,0,0,0-4.38,1.31,4.55,4.55,0,0,1-2.26.71,2.37,2.37,0,0,1-1.94-.92,3.1,3.1,0,0,1-.76-2c0-1.28.85-2.36,2.54-3.26a14.62,14.62,0,0,1,6.9-1.57q5.73,0,8.62,2.43t2.9,7.22v13.56a14.24,14.24,0,0,1-.09,1.92,3.54,3.54,0,0,1-.41,1.15,2.74,2.74,0,0,1-1.17,1.14,3.63,3.63,0,0,1-1.77.44,3.09,3.09,0,0,1-2.18-.79,3.71,3.71,0,0,1-1-1.81,9.49,9.49,0,0,1-3,2.1,10.07,10.07,0,0,1-3.76.6q-4.56,0-7-2.47a8.28,8.28,0,0,1-2.25-6.13,7.38,7.38,0,0,1,2.41-5.69q2.42-2.24,7-2.23h6.35v-1.37a4.15,4.15,0,0,0-1.18-3.26A5.39,5.39,0,0,0,449.28,208.78Zm4.8,11.8v-1.47h-5.2q-4,0-4,3.15a2.73,2.73,0,0,0,1,2.28,4.94,4.94,0,0,0,3.11.82,8.76,8.76,0,0,0,2.31-.26,4.23,4.23,0,0,0,1.73-1,2.87,2.87,0,0,0,.83-1.33A8.44,8.44,0,0,0,454.08,220.58Z"/></g></svg>