<svg id="Layer_1" data-name="Layer 1" xmlns="http://www.w3.org/2000/svg" viewBox="0 0 623.62 255.12"><defs><style>.cls-1{fill:#fff;}.cls-2{fill:#077d99;}.cls-3{fill:#4f4f4f;}.cls-4{fill:#787878;}</style></defs><title>dxpertise</title><rect class="cls-1" width="623.62" height="255.12"/><g id="layer1"><g id="g5605"><g id="g5600"><path id="path17-4-1-5-8-6" class="cls-2" d="M141.19,114.56c1-6.77-1.28-12.3-6.05-17a4.92,4.92,0,0,1-1.32-1.93,18.73,18.73,0,0,0-19.55-13.26c-8,.69-15.91,2.12-22.13,0C81.36,82,73,87.27,70.7,95.81a6.21,6.21,0,0,1-1.76,2.27c-4.37,4.51-6.44,9.78-5.59,16.12a4.13,4.13,0,0,1-.78,2.84c-6.31,7.67-5.73,15.94,1.59,22.6a4.51,4.51,0,0,1,1.46,2.6c0.54,6.07,3.57,10.54,8.37,14.05a5.78,5.78,0,0,1,2,2.84,19.39,19.39,0,0,0,24.14,12.81,7.47,7.47,0,0,1,4.28,0c9.95,3.2,21.29-2.8,24.14-12.81a5.73,5.73,0,0,1,2-2.83c4.81-3.51,7.83-8,8.38-14.05a4.52,4.52,0,0,1,1.44-2.62c7-6.41,7.68-15.28,1.66-22.52a3.71,3.71,0,0,1-.9-2.55h0ZM98.88,139.41c0.05,0.82.15,1.67,0.15,2.52,0,7.07-.12,14.15.08,21.22,0.07,2.62-1.17,3.22-3.27,3.44-6,.62-12.08-3.3-13.5-8.77a12.36,12.36,0,0,1,7.3-14.48c0.33-.15.63-0.32,1.45-0.74-5.48-.28-8.33,1.49-13.81,8.38-3.7-2.88-5.81-6.46-5.21-11.23,0.23-1.82-.31-2.66-1.86-3.56-6-3.44-7.23-9.43-3.07-14.6,3.65,2.92,7.7,5,12.67,4.65,0.82,3.52,2.58,6.19,6.25,7.42-3-4.94-4.41-9.88-.51-15.36-3.49,1.35-3.63,1.52-5.84,6.46a13.22,13.22,0,0,1-6.83-21.54c2.88,2.11,5.89,4.11,10.31,3.2-0.71-.41-1-0.58-1.24-0.72-6.48-3.46-7.07-9.17-1.49-14,4-3.51,8.85-3.67,13.71-2.93,6,0.91,4.81,0,4.85,5.34,0.09,11.71.08,23.42,0.09,35.13,0,5.73-2.78,8.1-8.71,7.44,1.55,2.23,3,2.7,8.49,2.74h0Zm39.1-6.31c-3.53,5.34-12.58,6.74-17.37,2.94l1.92-6.09-0.79-.4a34.78,34.78,0,0,1-3.7,3.28,35.35,35.35,0,0,1-4.71,2.22c1.17,0.55,2.12,1.42,3,1.32,2.28-.28,3.54.95,5,2.36,2.31,2.27,4.44,2.89,10.89,3.88,0.21,7.24-7.75,11.88-20.23,12.2,1.66,0.48,3.31,1.08,5,1.42s3.51,0.44,5.25.65c-0.19,6.46-9.31,11.47-15.32,9.15-0.68-.26-1.26-1.78-1.26-2.71,0-12.54,0-25.07.06-37.61,0-4.9,0-9.81,0-14.38l8-2.39-0.22-.89c-0.94,0-1.89.07-2.82,0-3.44-.3-5.12-2.12-5.12-5.5,0-3.58.1-7.17,0-10.75-0.07-1.86.62-2.59,2.4-2.68,2.86-.15,5.73-0.72,8.56-0.54,8.86,0.57,13.92,8.88,10.52,17l-4.75-.6,5.24,8.15c1.59-1.25,1.76-2,.95-5.35l3.85-3.71c3.49,3.65,3.71,9.24.71,14.63a27.8,27.8,0,0,0-2.28,6.46,5,5,0,0,0,.33,2.27c1.38-1.64,2.69-3.41,4.22-5s2.79-.79,3.65,1c1.63,3.41,1.13,6.57-.9,9.65h0Z" transform="translate(0 0)"/><path id="path21-6-0-9-6-3" class="cls-2" d="M170,172.07V139c0-5.26,3.67-9.73,8.82-11.47-5.15-1.74-8.82-6.21-8.82-11.47v-33c0-6-5.4-10.9-12.06-10.9h-8.45v6.36H158a4.81,4.81,0,0,1,5,4.54v33a17.51,17.51,0,0,0,4.41,11.47A17.51,17.51,0,0,0,163,139v33a4.81,4.81,0,0,1-5,4.54h-8.45V183H158C164.61,183,170,178.09,170,172.07Z" transform="translate(0 0)"/><path id="path23-6-0-2-9-3" class="cls-2" d="M34.36,172.07V139c0-5.26-3.68-9.73-8.82-11.47,5.15-1.74,8.82-6.21,8.82-11.47v-33c0-6,5.4-10.9,12.06-10.9h8.45v6.36H46.42a4.81,4.81,0,0,0-5,4.54v33A17.5,17.5,0,0,1,37,127.56,17.5,17.5,0,0,1,41.39,139v33a4.81,4.81,0,0,0,5,4.54h8.45V183H46.42C39.76,183,34.36,178.09,34.36,172.07Z" transform="translate(0 0)"/></g><g id="g5561"><g id="g5550"><path id="path4831-6-7-9-0-5-0-2-6-8" class="cls-2" d="M239.26,127.3a19.1,19.1,0,0,0,6.82-1.17,14.29,14.29,0,0,0,5.23-3.36,15,15,0,0,0,3.41-5.15A16.73,16.73,0,0,0,256,111v-0.16a17.1,17.1,0,0,0-1.27-6.64,14.8,14.8,0,0,0-3.41-5.23,14.29,14.29,0,0,0-5.23-3.36,18,18,0,0,0-6.82-1.25h-9.43v33h9.43ZM217.62,83.48h21.64a32.38,32.38,0,0,1,11.89,2.11,27.23,27.23,0,0,1,9.35,5.7,25.2,25.2,0,0,1,6.1,8.67,26.53,26.53,0,0,1,2.14,10.7v0.16a27.09,27.09,0,0,1-2.14,10.78,25.2,25.2,0,0,1-6.1,8.67,28.21,28.21,0,0,1-9.35,5.78,32.38,32.38,0,0,1-11.89,2.11H217.62V83.48h0Z" transform="translate(0 0)"/><path id="path4833-2-9-5-2-2-60-1-9-9" class="cls-2" d="M294.69,110.35L276.14,83.48h14.27l11.65,17.73L313.8,83.48h13.87l-18.55,26.71,19.34,28H314.2l-12.45-18.74-12.53,18.74H275.35l19.34-27.8h0Z" transform="translate(0 0)"/><path id="path4835-3-3-3-2-7-5-8-6-52" class="cls-3" d="M358.49,133.62a15.2,15.2,0,0,0,5.55-1,13.32,13.32,0,0,0,4.6-3,14.27,14.27,0,0,0,3.09-4.92,17.11,17.11,0,0,0,1.19-6.56v-0.16a16.89,16.89,0,0,0-1.19-6.48,14.27,14.27,0,0,0-3.09-4.92,13.8,13.8,0,0,0-4.6-3.12,14.25,14.25,0,0,0-5.55-1.09,13.79,13.79,0,0,0-5.55,1.17,15,15,0,0,0-4.76,3.2,15.64,15.64,0,0,0-3.33,4.92,15.89,15.89,0,0,0-1.19,6.25V118a16.68,16.68,0,0,0,1.19,6.4,15.64,15.64,0,0,0,3.33,4.92,16.93,16.93,0,0,0,4.76,3.2,14.63,14.63,0,0,0,5.55,1.09h0ZM337.8,97.77h6.1v8.12a34.48,34.48,0,0,1,2.77-3.44,17.87,17.87,0,0,1,3.49-2.81,16.27,16.27,0,0,1,4.2-2,16.69,16.69,0,0,1,5.23-.78,19.46,19.46,0,0,1,13.48,5.54,19.56,19.56,0,0,1,4.44,6.56,22,22,0,0,1,1.66,8.83V118a22.3,22.3,0,0,1-1.66,8.83,20.45,20.45,0,0,1-4.44,6.64,19.51,19.51,0,0,1-6.26,4.14A19.13,19.13,0,0,1,359.6,139a18.4,18.4,0,0,1-5.23-.7,17.67,17.67,0,0,1-4.28-1.87,19.58,19.58,0,0,1-3.49-2.73,26.23,26.23,0,0,1-2.7-3.28v20.23h-6.1V97.77Z" transform="translate(0 0)"/><path id="path4837-5-0-8-1-3-8-5-09-0" class="cls-3" d="M420.49,115.58a18.37,18.37,0,0,0-1.19-5.15,14,14,0,0,0-2.62-4.37,11.28,11.28,0,0,0-4-3,12.23,12.23,0,0,0-5.31-1.09,12,12,0,0,0-4.92,1,12.22,12.22,0,0,0-4,2.89,15.92,15.92,0,0,0-2.93,4.3,18,18,0,0,0-1.43,5.39h26.4Zm-26.4,4.84a16,16,0,0,0,1.59,5.7,13.73,13.73,0,0,0,3.25,4.22,14.75,14.75,0,0,0,4.44,2.66,15.5,15.5,0,0,0,5.15.86,15.68,15.68,0,0,0,7.29-1.56,21.43,21.43,0,0,0,5.63-4.14l3.81,3.36a25.64,25.64,0,0,1-7.06,5.54,23.44,23.44,0,0,1-17.76.55,20.4,20.4,0,0,1-6.5-4.3,21.38,21.38,0,0,1-4.44-6.72,22.63,22.63,0,0,1-1.59-8.59,23.28,23.28,0,0,1,1.43-8.2,20.64,20.64,0,0,1,4.12-6.72,18.91,18.91,0,0,1,6.18-4.53,19.1,19.1,0,0,1,7.93-1.64,18.4,18.4,0,0,1,8.09,1.72,17.26,17.26,0,0,1,6,4.53,19.8,19.8,0,0,1,3.73,6.79,26.89,26.89,0,0,1,1.27,8.36v0.94a10.79,10.79,0,0,1-.08,1.17h-32.5Z" transform="translate(0 0)"/><path id="path4839-0-7-1-6-0-1-7-54-6" class="cls-3" d="M437.36,97.77h6.1v10.54a21.45,21.45,0,0,1,2.77-4.61,17.63,17.63,0,0,1,3.81-3.59,15.73,15.73,0,0,1,4.68-2.34,17,17,0,0,1,5.47-.7v6.48h-0.48a17.35,17.35,0,0,0-6.34,1.17,14.37,14.37,0,0,0-5.15,3.51,16.56,16.56,0,0,0-3.49,5.86,23,23,0,0,0-1.27,8v16.09h-6.1V97.77h0Z" transform="translate(0 0)"/><path id="path4841-8-96-0-3-7-8-1-2-8" class="cls-3" d="M483.13,138.85a16.34,16.34,0,0,1-4.6-.62,10.16,10.16,0,0,1-3.73-2,9.78,9.78,0,0,1-2.38-3.59,14.11,14.11,0,0,1-.87-5.23V103.08h-5.71V97.77h5.71V85.59h6.1V97.77h13v5.31h-13v23.59q0,3.75,1.9,5.23a7.89,7.89,0,0,0,5,1.48,13,13,0,0,0,2.93-.31,13.31,13.31,0,0,0,3-1.09v5.15a12.7,12.7,0,0,1-3.41,1.25A15.31,15.31,0,0,1,483.13,138.85Z" transform="translate(0 0)"/><path id="path4843-3-0-0-7-8-7-1-89-7" class="cls-3" d="M502,97.77h6.1v40.38H502V97.77Zm-0.4-15.46h7v6.64h-7V82.31Z" transform="translate(0 0)"/><path id="path4845-6-2-4-0-4-3-5-5-6" class="cls-3" d="M535.92,138.93a27.29,27.29,0,0,1-9-1.56,28.8,28.8,0,0,1-8-4.37l3.09-4.3a27.43,27.43,0,0,0,6.9,3.83,21.2,21.2,0,0,0,7.29,1.33,10.17,10.17,0,0,0,6.1-1.72,5.48,5.48,0,0,0,2.38-4.69v-0.16a4,4,0,0,0-.87-2.58,6.58,6.58,0,0,0-2.22-1.87,16.31,16.31,0,0,0-3.33-1.48q-1.82-.62-3.81-1.17-2.38-.7-4.84-1.48a22.43,22.43,0,0,1-4.36-2.11,11.24,11.24,0,0,1-3.17-3.12,8.59,8.59,0,0,1-1.19-4.69v-0.16a10.53,10.53,0,0,1,1-4.69,10.36,10.36,0,0,1,2.85-3.67,12.89,12.89,0,0,1,4.44-2.34,17.94,17.94,0,0,1,5.63-.86,25,25,0,0,1,7.69,1.25,28,28,0,0,1,7.06,3.2l-2.77,4.53a26.36,26.36,0,0,0-6-2.81,18.23,18.23,0,0,0-6.1-1.09,9,9,0,0,0-5.79,1.72,5,5,0,0,0-2.14,4.14v0.16a3.9,3.9,0,0,0,.87,2.5,8.13,8.13,0,0,0,2.3,1.8,23,23,0,0,0,3.41,1.41q1.9,0.62,4,1.25,2.38,0.7,4.68,1.56a18.3,18.3,0,0,1,4.28,2.19,10.27,10.27,0,0,1,3,3.2,8.43,8.43,0,0,1,1.19,4.61v0.16a10.92,10.92,0,0,1-1.19,5.15,11.16,11.16,0,0,1-3.09,3.75,13.73,13.73,0,0,1-4.6,2.42,19.88,19.88,0,0,1-5.71.78h0Z" transform="translate(0 0)"/><path id="path4847-6-4-10-8-8-3-4-9-93" class="cls-3" d="M591.9,115.58a18.38,18.38,0,0,0-1.19-5.15,14,14,0,0,0-2.62-4.37,11.28,11.28,0,0,0-4-3,12.23,12.23,0,0,0-5.31-1.09,12,12,0,0,0-4.92,1,12.22,12.22,0,0,0-4,2.89,15.93,15.93,0,0,0-2.93,4.3,18,18,0,0,0-1.43,5.39h26.4Zm-26.4,4.84a16,16,0,0,0,1.59,5.7,13.73,13.73,0,0,0,3.25,4.22,14.74,14.74,0,0,0,4.44,2.66,15.5,15.5,0,0,0,5.15.86,15.68,15.68,0,0,0,7.29-1.56,21.43,21.43,0,0,0,5.63-4.14l3.81,3.36a25.64,25.64,0,0,1-7.06,5.54,23.44,23.44,0,0,1-17.76.55,20.4,20.4,0,0,1-6.5-4.3,21.38,21.38,0,0,1-4.44-6.72,22.63,22.63,0,0,1-1.59-8.59,23.28,23.28,0,0,1,1.43-8.2,20.64,20.64,0,0,1,4.12-6.72A18.91,18.91,0,0,1,571,98.55,19.1,19.1,0,0,1,579,96.91a18.4,18.4,0,0,1,8.09,1.72,17.26,17.26,0,0,1,6,4.53,19.8,19.8,0,0,1,3.73,6.79,26.89,26.89,0,0,1,1.27,8.36v0.94a10.75,10.75,0,0,1-.08,1.17H565.5Z" transform="translate(0 0)"/></g><g id="g5522"><path id="path5444" class="cls-4" d="M223.55,168.25a4.31,4.31,0,0,0,1.57-.29,4.49,4.49,0,0,0,1.36-.85,4,4,0,0,0,1-1.3,3.91,3.91,0,0,0,.36-1.7v0a3.78,3.78,0,0,0-.36-1.68,3.73,3.73,0,0,0-1-1.3,4.19,4.19,0,0,0-1.36-.83,4.06,4.06,0,0,0-1.57-.31,4.44,4.44,0,0,0-1.61.29,3.72,3.72,0,0,0-1.32.81,4,4,0,0,0-.89,1.28,4.5,4.5,0,0,0-.32,1.74v0a4.44,4.44,0,0,0,.32,1.72,4,4,0,0,0,.91,1.3A4,4,0,0,0,222,168,4.37,4.37,0,0,0,223.55,168.25Zm-0.32,1.43a5.88,5.88,0,0,1-2.07-.37,5.68,5.68,0,0,1-1.8-1.08,5.48,5.48,0,0,1-1.27-1.74,5.58,5.58,0,0,1-.48-2.36v0a5.53,5.53,0,0,1,.48-2.34,5.19,5.19,0,0,1,1.27-1.74,5.49,5.49,0,0,1,1.8-1.1,5.6,5.6,0,0,1,2.07-.39,5.68,5.68,0,0,1,1.5.19,5.29,5.29,0,0,1,1.23.5,4.92,4.92,0,0,1,1,.72,6.23,6.23,0,0,1,.8.87v-6.46h1.75v15.11h-1.75V167.3a7.88,7.88,0,0,1-.82.91,5.1,5.1,0,0,1-1,.77,4.78,4.78,0,0,1-1.23.52,5.43,5.43,0,0,1-1.48.19h0Z" transform="translate(0 0)"/><path id="path5446" class="cls-4" d="M244.07,163.47a4.56,4.56,0,0,0-.34-1.37,3.67,3.67,0,0,0-.75-1.16,3.22,3.22,0,0,0-1.14-.79,3.75,3.75,0,0,0-1.52-.29,3.69,3.69,0,0,0-1.41.27,3.51,3.51,0,0,0-1.16.77,4.23,4.23,0,0,0-.84,1.14,4.5,4.5,0,0,0-.41,1.43h7.57Zm-7.57,1.28a4,4,0,0,0,.45,1.51,3.69,3.69,0,0,0,.93,1.12,4.31,4.31,0,0,0,1.27.7,5.23,5.23,0,0,0,3.57-.19,6.14,6.14,0,0,0,1.61-1.1l1.09,0.89a7.3,7.3,0,0,1-2,1.47,7.23,7.23,0,0,1-5.09.14,5.91,5.91,0,0,1-1.86-1.14,5.37,5.37,0,0,1-1.73-4.06,5.76,5.76,0,0,1,.41-2.17,5.53,5.53,0,0,1,3-3,5.86,5.86,0,0,1,2.27-.43,5.64,5.64,0,0,1,2.32.46,4.93,4.93,0,0,1,1.73,1.2,5.15,5.15,0,0,1,1.07,1.8,6.64,6.64,0,0,1,.36,2.22v0.25a2.65,2.65,0,0,1,0,.31H236.5Z" transform="translate(0 0)"/><path id="path5448" class="cls-4" d="M249.82,158.75h1.93l4,8.88,4-8.88h1.89l-5.11,10.79h-1.55Z" transform="translate(0 0)"/><path id="path5450" class="cls-4" d="M275,163.47a4.56,4.56,0,0,0-.34-1.37,3.67,3.67,0,0,0-.75-1.16,3.22,3.22,0,0,0-1.14-.79,3.75,3.75,0,0,0-1.52-.29,3.69,3.69,0,0,0-1.41.27,3.51,3.51,0,0,0-1.16.77,4.23,4.23,0,0,0-.84,1.14,4.5,4.5,0,0,0-.41,1.43H275Zm-7.57,1.28a4,4,0,0,0,.45,1.51,3.69,3.69,0,0,0,.93,1.12,4.31,4.31,0,0,0,1.27.7,5.23,5.23,0,0,0,3.57-.19,6.14,6.14,0,0,0,1.61-1.1l1.09,0.89a7.3,7.3,0,0,1-2,1.47,7.23,7.23,0,0,1-5.09.14,5.91,5.91,0,0,1-1.86-1.14,5.37,5.37,0,0,1-1.73-4.06,5.76,5.76,0,0,1,.41-2.17,5.53,5.53,0,0,1,3-3,5.86,5.86,0,0,1,2.27-.43,5.64,5.64,0,0,1,2.32.46,4.93,4.93,0,0,1,1.73,1.2,5.15,5.15,0,0,1,1.07,1.8,6.64,6.64,0,0,1,.36,2.22v0.25a2.65,2.65,0,0,1,0,.31h-9.32Z" transform="translate(0 0)"/><path id="path5452" class="cls-4" d="M282.08,154.34h1.75v15.11h-1.75V154.34Z" transform="translate(0 0)"/><path id="path5454" class="cls-4" d="M295.39,168.27a4.51,4.51,0,0,0,1.75-.33,4.25,4.25,0,0,0,1.36-.89,4,4,0,0,0,1.2-2.9v0a4.17,4.17,0,0,0-1.25-2.94,4.34,4.34,0,0,0-1.39-.91,4.45,4.45,0,0,0-1.73-.33,4.51,4.51,0,0,0-1.75.33,4.25,4.25,0,0,0-1.36.89,4.16,4.16,0,0,0-.86,1.33,4,4,0,0,0-.32,1.59v0a4.22,4.22,0,0,0,.32,1.64,4.35,4.35,0,0,0,.91,1.3,4.53,4.53,0,0,0,1.39.89,4.45,4.45,0,0,0,1.73.33h0Zm0,1.43a6.63,6.63,0,0,1-2.43-.43,6.48,6.48,0,0,1-1.93-1.2,5.56,5.56,0,0,1-1.27-1.76,5.21,5.21,0,0,1-.45-2.15v0a5.21,5.21,0,0,1,.45-2.15,5.49,5.49,0,0,1,1.27-1.78,6,6,0,0,1,1.93-1.2,6.6,6.6,0,0,1,2.48-.46,6.36,6.36,0,0,1,2.43.46,5.91,5.91,0,0,1,2,1.2,5.27,5.27,0,0,1,1.27,1.76,5.07,5.07,0,0,1,.45,2.13v0a5,5,0,0,1-.48,2.15,5.49,5.49,0,0,1-1.27,1.78,6.2,6.2,0,0,1-2,1.22A6.81,6.81,0,0,1,295.34,169.7Z" transform="translate(0 0)"/><path id="path5456" class="cls-4" d="M312.67,168.25a4.67,4.67,0,0,0,1.59-.27,3.86,3.86,0,0,0,1.32-.81,3.76,3.76,0,0,0,.89-1.3,4.24,4.24,0,0,0,.34-1.74v0a4.18,4.18,0,0,0-.34-1.72,3.76,3.76,0,0,0-.89-1.3,4,4,0,0,0-1.32-.83,4.37,4.37,0,0,0-1.59-.29,4.23,4.23,0,0,0-1.59.31,4.33,4.33,0,0,0-1.36.85,4.15,4.15,0,0,0-1,1.3,3.94,3.94,0,0,0-.34,1.66v0a3.89,3.89,0,0,0,1.3,3,4.89,4.89,0,0,0,1.36.85A4.49,4.49,0,0,0,312.67,168.25Zm-5.93-9.5h1.75v2.15a9.32,9.32,0,0,1,.8-0.91,5.08,5.08,0,0,1,1-.75,4.85,4.85,0,0,1,1.2-.52,5.14,5.14,0,0,1,1.5-.21,5.81,5.81,0,0,1,2,.37,5.43,5.43,0,0,1,1.82,1.1,5.19,5.19,0,0,1,1.27,1.74,5.44,5.44,0,0,1,.48,2.34v0a5.53,5.53,0,0,1-.48,2.34,5.42,5.42,0,0,1-1.27,1.76,5.65,5.65,0,0,1-1.8,1.1,5.87,5.87,0,0,1-2.07.37,5.68,5.68,0,0,1-1.5-.19,5.29,5.29,0,0,1-1.23-.5,5.58,5.58,0,0,1-1-.72,7.1,7.1,0,0,1-.77-0.87v5.36h-1.75v-14h0Z" transform="translate(0 0)"/><path id="path5458" class="cls-4" d="M324.06,158.75h1.75v10.7h-1.75v-10.7Zm-0.11-4.1h2v1.76h-2v-1.76Z" transform="translate(0 0)"/><path id="path5460" class="cls-4" d="M332,158.75h1.75v1.86a5.16,5.16,0,0,1,1.55-1.47,4.47,4.47,0,0,1,2.48-.62,5.29,5.29,0,0,1,1.89.31,3.77,3.77,0,0,1,1.41.89,3.54,3.54,0,0,1,.89,1.35,4.6,4.6,0,0,1,.32,1.74v6.65h-1.75V163.2a3.25,3.25,0,0,0-.84-2.36,3.2,3.2,0,0,0-2.41-.87,4,4,0,0,0-1.41.25A3.25,3.25,0,0,0,334,162a3.63,3.63,0,0,0-.25,1.37v6.13H332v-10.7Z" transform="translate(0 0)"/><path id="path5462" class="cls-4" d="M353.19,167.22a5.24,5.24,0,0,0,1.61-.25,4.52,4.52,0,0,0,1.36-.75,3.9,3.9,0,0,0,1-1.16,3,3,0,0,0,.36-1.47v0a3,3,0,0,0-.36-1.49,3.66,3.66,0,0,0-1-1.14,4.2,4.2,0,0,0-1.36-.72,4.87,4.87,0,0,0-1.61-.27,4.67,4.67,0,0,0-1.59.27,4,4,0,0,0-1.3.72,3.29,3.29,0,0,0-.86,1.12,3.4,3.4,0,0,0-.32,1.49v0a3.49,3.49,0,0,0,.32,1.49,3.81,3.81,0,0,0,.89,1.14,4.34,4.34,0,0,0,1.3.75,4.61,4.61,0,0,0,1.57.27h0Zm0,5.59a10.47,10.47,0,0,1-2.82-.37,9.44,9.44,0,0,1-2.52-1.12l0.8-1.24a8.79,8.79,0,0,0,2.14,1,7.87,7.87,0,0,0,2.39.35,4.69,4.69,0,0,0,3.11-1,3.46,3.46,0,0,0,1.16-2.84v-1.26a7.22,7.22,0,0,1-1.89,1.59,5.25,5.25,0,0,1-2.73.66,6.18,6.18,0,0,1-2.07-.35,5.78,5.78,0,0,1-1.75-1,5.28,5.28,0,0,1-1.25-1.57,4.71,4.71,0,0,1-.45-2.09v0a4.76,4.76,0,0,1,.45-2.11,5,5,0,0,1,1.25-1.57,5.5,5.5,0,0,1,1.77-1,6.12,6.12,0,0,1,2-.35,5.68,5.68,0,0,1,1.5.19,5.18,5.18,0,0,1,1.25.46,5.09,5.09,0,0,1,1,.68,7.23,7.23,0,0,1,.82.83v-1.93h1.75v8.84a5.64,5.64,0,0,1-.39,2.17,4.38,4.38,0,0,1-1.11,1.62,5,5,0,0,1-1.93,1.08,8.58,8.58,0,0,1-2.55.35h0Z" transform="translate(0 0)"/><path id="path5464" class="cls-4" d="M378,169.66a8.43,8.43,0,0,1-4.86-1.57l0.89-1.14a8.07,8.07,0,0,0,2,1,6.52,6.52,0,0,0,2.09.35,3.09,3.09,0,0,0,1.75-.46,1.42,1.42,0,0,0,.68-1.24v0a1,1,0,0,0-.25-0.68,1.86,1.86,0,0,0-.64-0.5,4.87,4.87,0,0,0-1-.39q-0.52-.17-1.09-0.31l-1.39-.39a6.66,6.66,0,0,1-1.25-.56,3.12,3.12,0,0,1-.91-0.83,2.15,2.15,0,0,1-.34-1.24v0a2.62,2.62,0,0,1,.3-1.24,2.79,2.79,0,0,1,.82-1,3.8,3.8,0,0,1,1.27-.62,5.53,5.53,0,0,1,1.61-.23,7.7,7.7,0,0,1,2.2.33,8.35,8.35,0,0,1,2,.85l-0.8,1.2a7.86,7.86,0,0,0-1.73-.75,5.6,5.6,0,0,0-1.75-.29,2.72,2.72,0,0,0-1.66.46,1.3,1.3,0,0,0-.61,1.1v0a1,1,0,0,0,.25.66,2.31,2.31,0,0,0,.66.48,6.91,6.91,0,0,0,1,.37l1.14,0.33q0.68,0.19,1.34.41a5.42,5.42,0,0,1,1.23.58,2.82,2.82,0,0,1,.86.85,2.11,2.11,0,0,1,.34,1.22v0a2.72,2.72,0,0,1-.34,1.37,3,3,0,0,1-.89,1,4.05,4.05,0,0,1-1.32.64,6.13,6.13,0,0,1-1.64.21h0Z" transform="translate(0 0)"/><path id="path5466" class="cls-4" d="M387.46,154.34h1.75v10.44l6.34-6h2.18l-4.93,4.6,5.09,6.11H395.8l-4.2-5-2.39,2.19v2.8h-1.75V154.34h0Z" transform="translate(0 0)"/><path id="path5468" class="cls-4" d="M402.6,158.75h1.75v10.7H402.6v-10.7Zm-0.11-4.1h2v1.76h-2v-1.76Z" transform="translate(0 0)"/><path id="path5470" class="cls-4" d="M410.66,154.34h1.75v15.11h-1.75V154.34Z" transform="translate(0 0)"/><path id="path5472" class="cls-4" d="M418.72,154.34h1.75v15.11h-1.75V154.34Z" transform="translate(0 0)"/><path id="path5474" class="cls-4" d="M430.51,169.66a8.43,8.43,0,0,1-4.86-1.57l0.89-1.14a8.07,8.07,0,0,0,2,1,6.52,6.52,0,0,0,2.09.35,3.09,3.09,0,0,0,1.75-.46,1.42,1.42,0,0,0,.68-1.24v0a1,1,0,0,0-.25-0.68,1.86,1.86,0,0,0-.64-0.5,4.87,4.87,0,0,0-1-.39q-0.52-.17-1.09-0.31l-1.39-.39a6.66,6.66,0,0,1-1.25-.56,3.12,3.12,0,0,1-.91-0.83,2.15,2.15,0,0,1-.34-1.24v0a2.62,2.62,0,0,1,.3-1.24,2.79,2.79,0,0,1,.82-1,3.8,3.8,0,0,1,1.27-.62,5.53,5.53,0,0,1,1.61-.23,7.7,7.7,0,0,1,2.2.33,8.35,8.35,0,0,1,2,.85l-0.8,1.2a7.86,7.86,0,0,0-1.73-.75,5.6,5.6,0,0,0-1.75-.29,2.72,2.72,0,0,0-1.66.46,1.3,1.3,0,0,0-.61,1.1v0a1,1,0,0,0,.25.66,2.31,2.31,0,0,0,.66.48,6.91,6.91,0,0,0,1,.37l1.14,0.33q0.68,0.19,1.34.41a5.42,5.42,0,0,1,1.23.58,2.82,2.82,0,0,1,.86.85,2.11,2.11,0,0,1,.34,1.22v0a2.72,2.72,0,0,1-.34,1.37,3,3,0,0,1-.89,1,4.05,4.05,0,0,1-1.32.64,6.13,6.13,0,0,1-1.64.21h0Z" transform="translate(0 0)"/><path id="path5476" class="cls-4" d="M452.75,168.4a5.38,5.38,0,0,0,1.52-.21,4.07,4.07,0,0,0,1.23-.58,2.9,2.9,0,0,0,.84-0.91,2.28,2.28,0,0,0,.32-1.18v-1q-0.66-.17-1.5-0.31a11.49,11.49,0,0,0-1.93-.14,4.59,4.59,0,0,0-2.55.6,1.78,1.78,0,0,0-.89,1.55v0a1.86,1.86,0,0,0,.23.91,2.21,2.21,0,0,0,.66.66,3.28,3.28,0,0,0,.93.41,4.41,4.41,0,0,0,1.14.14h0Zm-0.34,1.28a6.38,6.38,0,0,1-1.61-.21,4.54,4.54,0,0,1-1.41-.62,3.64,3.64,0,0,1-1-1.06,2.82,2.82,0,0,1-.36-1.45v0a3,3,0,0,1,.36-1.51,3.07,3.07,0,0,1,1-1.1A5.36,5.36,0,0,1,451,163a8.61,8.61,0,0,1,2-.23,13.23,13.23,0,0,1,2,.12,15.45,15.45,0,0,1,1.64.33v-0.33a2.59,2.59,0,0,0-.91-2.15,4,4,0,0,0-2.57-.75,8.19,8.19,0,0,0-1.91.21,10.62,10.62,0,0,0-1.66.56l-0.52-1.3a13.24,13.24,0,0,1,2-.66,9.56,9.56,0,0,1,2.3-.25,5.46,5.46,0,0,1,3.8,1.18,4,4,0,0,1,1.23,3.15v6.54h-1.73v-1.59a5.6,5.6,0,0,1-1.66,1.28,5.48,5.48,0,0,1-2.57.54h0Z" transform="translate(0 0)"/><path id="path5478" class="cls-4" d="M464.12,158.75h1.75v1.86a5.16,5.16,0,0,1,1.55-1.47,4.47,4.47,0,0,1,2.48-.62,5.29,5.29,0,0,1,1.89.31,3.77,3.77,0,0,1,1.41.89,3.54,3.54,0,0,1,.89,1.35,4.6,4.6,0,0,1,.32,1.74v6.65h-1.75V163.2a3.25,3.25,0,0,0-.84-2.36,3.2,3.2,0,0,0-2.41-.87,4,4,0,0,0-1.41.25,3.25,3.25,0,0,0-1.86,1.74,3.63,3.63,0,0,0-.25,1.37v6.13h-1.75v-10.7Z" transform="translate(0 0)"/><path id="path5480" class="cls-4" d="M485.42,168.25A4.31,4.31,0,0,0,487,168a4.49,4.49,0,0,0,1.36-.85,4,4,0,0,0,1-1.3,3.91,3.91,0,0,0,.36-1.7v0a3.77,3.77,0,0,0-.36-1.68,3.73,3.73,0,0,0-1-1.3,4.19,4.19,0,0,0-1.36-.83,4.06,4.06,0,0,0-1.57-.31,4.44,4.44,0,0,0-1.61.29,3.72,3.72,0,0,0-1.32.81,4,4,0,0,0-.89,1.28,4.5,4.5,0,0,0-.32,1.74v0a4.44,4.44,0,0,0,.32,1.72,4,4,0,0,0,.91,1.3,4,4,0,0,0,1.32.83A4.37,4.37,0,0,0,485.42,168.25Zm-0.32,1.43a5.88,5.88,0,0,1-2.07-.37,5.68,5.68,0,0,1-1.8-1.08,5.48,5.48,0,0,1-1.27-1.74,5.58,5.58,0,0,1-.48-2.36v0a5.53,5.53,0,0,1,.48-2.34,5.19,5.19,0,0,1,1.27-1.74,5.49,5.49,0,0,1,1.8-1.1,5.6,5.6,0,0,1,2.07-.39,5.68,5.68,0,0,1,1.5.19,5.29,5.29,0,0,1,1.23.5,4.92,4.92,0,0,1,1,.72,6.22,6.22,0,0,1,.8.87v-6.46h1.75v15.11H489.6V167.3a7.87,7.87,0,0,1-.82.91,5.1,5.1,0,0,1-1,.77,4.78,4.78,0,0,1-1.23.52,5.43,5.43,0,0,1-1.48.19h0Z" transform="translate(0 0)"/><path id="path5482" class="cls-4" d="M511.53,169.7a6.18,6.18,0,0,1-4.32-1.64,5.66,5.66,0,0,1-1.25-1.78,5.16,5.16,0,0,1-.45-2.13v0A5.21,5.21,0,0,1,506,162a5.66,5.66,0,0,1,1.25-1.78,6,6,0,0,1,1.91-1.2,6.3,6.3,0,0,1,2.41-.46,7.34,7.34,0,0,1,1.52.14,5.66,5.66,0,0,1,1.25.41,5.41,5.41,0,0,1,1,.6,8.89,8.89,0,0,1,.89.75l-1.16,1.12a8,8,0,0,0-1.55-1.14,4,4,0,0,0-2-.48,4.16,4.16,0,0,0-1.66.33,4,4,0,0,0-1.34.87,4,4,0,0,0-.89,1.33,4.07,4.07,0,0,0-.32,1.62v0a4.22,4.22,0,0,0,.32,1.64,4.16,4.16,0,0,0,2.27,2.22,4.71,4.71,0,0,0,1.73.31,4.22,4.22,0,0,0,2-.46,6.61,6.61,0,0,0,1.59-1.14l1.11,1a7.66,7.66,0,0,1-2,1.49,6,6,0,0,1-2.77.58h0Z" transform="translate(0 0)"/><path id="path5484" class="cls-4" d="M525.1,168.4a5.38,5.38,0,0,0,1.52-.21,4.07,4.07,0,0,0,1.23-.58,2.9,2.9,0,0,0,.84-0.91,2.28,2.28,0,0,0,.32-1.18v-1q-0.66-.17-1.5-0.31a11.49,11.49,0,0,0-1.93-.14,4.59,4.59,0,0,0-2.55.6,1.78,1.78,0,0,0-.89,1.55v0a1.86,1.86,0,0,0,.23.91,2.21,2.21,0,0,0,.66.66,3.28,3.28,0,0,0,.93.41,4.41,4.41,0,0,0,1.14.14h0Zm-0.34,1.28a6.38,6.38,0,0,1-1.61-.21,4.54,4.54,0,0,1-1.41-.62,3.64,3.64,0,0,1-1-1.06,2.82,2.82,0,0,1-.36-1.45v0a3,3,0,0,1,.36-1.51,3.07,3.07,0,0,1,1-1.1,5.36,5.36,0,0,1,1.59-.66,8.61,8.61,0,0,1,2-.23,13.23,13.23,0,0,1,2,.12,15.45,15.45,0,0,1,1.64.33v-0.33a2.59,2.59,0,0,0-.91-2.15,4,4,0,0,0-2.57-.75,8.19,8.19,0,0,0-1.91.21,10.62,10.62,0,0,0-1.66.56l-0.52-1.3a13.25,13.25,0,0,1,2-.66,9.56,9.56,0,0,1,2.3-.25,5.45,5.45,0,0,1,3.8,1.18,4,4,0,0,1,1.23,3.15v6.54H529v-1.59a5.59,5.59,0,0,1-1.66,1.28,5.48,5.48,0,0,1-2.57.54h0Z" transform="translate(0 0)"/><path id="path5486" class="cls-4" d="M536.47,158.75h1.75v2.8a5.62,5.62,0,0,1,.8-1.22,4.91,4.91,0,0,1,1.09-1,4.66,4.66,0,0,1,1.34-.62,5.23,5.23,0,0,1,1.57-.19v1.72h-0.14a5.33,5.33,0,0,0-1.82.31,4.15,4.15,0,0,0-1.48.93,4.34,4.34,0,0,0-1,1.55,5.67,5.67,0,0,0-.36,2.11v4.27h-1.75v-10.7h0Z" transform="translate(0 0)"/><path id="path5488" class="cls-4" d="M556.34,163.47a4.57,4.57,0,0,0-.34-1.37,3.67,3.67,0,0,0-.75-1.16,3.22,3.22,0,0,0-1.14-.79,3.75,3.75,0,0,0-1.52-.29,3.69,3.69,0,0,0-1.41.27,3.51,3.51,0,0,0-1.16.77,4.23,4.23,0,0,0-.84,1.14,4.5,4.5,0,0,0-.41,1.43h7.57Zm-7.57,1.28a4,4,0,0,0,.45,1.51,3.69,3.69,0,0,0,.93,1.12,4.31,4.31,0,0,0,1.27.7,5.23,5.23,0,0,0,3.57-.19,6.14,6.14,0,0,0,1.61-1.1l1.09,0.89a7.3,7.3,0,0,1-2,1.47,7.23,7.23,0,0,1-5.09.14,5.91,5.91,0,0,1-1.86-1.14,5.37,5.37,0,0,1-1.73-4.06,5.76,5.76,0,0,1,.41-2.17,5.53,5.53,0,0,1,3-3,5.86,5.86,0,0,1,2.27-.43A5.64,5.64,0,0,1,555,159a4.93,4.93,0,0,1,1.73,1.2,5.15,5.15,0,0,1,1.07,1.8,6.64,6.64,0,0,1,.36,2.22v0.25a2.65,2.65,0,0,1,0,.31h-9.32Z" transform="translate(0 0)"/><path id="path5490" class="cls-4" d="M571.85,163.47a4.57,4.57,0,0,0-.34-1.37,3.67,3.67,0,0,0-.75-1.16,3.22,3.22,0,0,0-1.14-.79,3.75,3.75,0,0,0-1.52-.29,3.69,3.69,0,0,0-1.41.27,3.51,3.51,0,0,0-1.16.77,4.23,4.23,0,0,0-.84,1.14,4.5,4.5,0,0,0-.41,1.43h7.57Zm-7.57,1.28a4,4,0,0,0,.45,1.51,3.69,3.69,0,0,0,.93,1.12,4.31,4.31,0,0,0,1.27.7,5.23,5.23,0,0,0,3.57-.19,6.14,6.14,0,0,0,1.61-1.1l1.09,0.89a7.3,7.3,0,0,1-2,1.47,7.23,7.23,0,0,1-5.09.14,5.91,5.91,0,0,1-1.86-1.14,5.37,5.37,0,0,1-1.73-4.06,5.76,5.76,0,0,1,.41-2.17,5.53,5.53,0,0,1,3-3,5.86,5.86,0,0,1,2.27-.43,5.64,5.64,0,0,1,2.32.46,4.93,4.93,0,0,1,1.73,1.2,5.15,5.15,0,0,1,1.07,1.8,6.64,6.64,0,0,1,.36,2.22v0.25a2.65,2.65,0,0,1,0,.31h-9.32Z" transform="translate(0 0)"/><path id="path5492" class="cls-4" d="M578.76,158.75h1.75v2.8a5.62,5.62,0,0,1,.8-1.22,4.91,4.91,0,0,1,1.09-1,4.66,4.66,0,0,1,1.34-.62,5.23,5.23,0,0,1,1.57-.19v1.72h-0.14a5.33,5.33,0,0,0-1.82.31,4.15,4.15,0,0,0-1.48.93,4.34,4.34,0,0,0-1,1.55,5.67,5.67,0,0,0-.36,2.11v4.27h-1.75v-10.7h0Z" transform="translate(0 0)"/><path id="path5494" class="cls-4" d="M593.9,169.66a8.43,8.43,0,0,1-4.86-1.57l0.89-1.14a8.07,8.07,0,0,0,2,1,6.52,6.52,0,0,0,2.09.35,3.09,3.09,0,0,0,1.75-.46,1.42,1.42,0,0,0,.68-1.24v0a1,1,0,0,0-.25-0.68,1.86,1.86,0,0,0-.64-0.5,4.87,4.87,0,0,0-1-.39q-0.52-.17-1.09-0.31l-1.39-.39a6.66,6.66,0,0,1-1.25-.56,3.12,3.12,0,0,1-.91-0.83,2.15,2.15,0,0,1-.34-1.24v0a2.62,2.62,0,0,1,.3-1.24,2.79,2.79,0,0,1,.82-1,3.8,3.8,0,0,1,1.27-.62,5.53,5.53,0,0,1,1.61-.23,7.7,7.7,0,0,1,2.2.33,8.35,8.35,0,0,1,2,.85l-0.8,1.2a7.86,7.86,0,0,0-1.73-.75,5.6,5.6,0,0,0-1.75-.29,2.72,2.72,0,0,0-1.66.46,1.3,1.3,0,0,0-.61,1.1v0a1,1,0,0,0,.25.66,2.31,2.31,0,0,0,.66.48,6.91,6.91,0,0,0,1,.37l1.14,0.33q0.68,0.19,1.34.41a5.42,5.42,0,0,1,1.23.58,2.82,2.82,0,0,1,.86.85,2.11,2.11,0,0,1,.34,1.22v0a2.72,2.72,0,0,1-.34,1.37,3,3,0,0,1-.89,1,4.05,4.05,0,0,1-1.32.64,6.13,6.13,0,0,1-1.64.21h0Z" transform="translate(0 0)"/></g></g></g></g></svg>