<svg xmlns="http://www.w3.org/2000/svg" viewBox="0 0 623.62 255.12"><defs><style>.cls-1{fill:#fff;}.cls-2{fill:#2d2d2d;}.cls-3{fill:#76ef72;}.cls-4{fill:#d82785;}.cls-5{fill:#cd718d;}.cls-6{fill:#ef353a;}.cls-7{fill:#c82c31;}</style></defs><g id="BG"><rect class="cls-1" width="623.62" height="255.12"/></g><g id="Logo"><path class="cls-2" d="M371.56,224.44a117.79,117.79,0,0,1-26.67,11.88,112.31,112.31,0,0,1-19.3,3.91,113.89,113.89,0,0,1-19.1.54,128.63,128.63,0,0,1-18.11-2.38l-2.05-.52a111.9,111.9,0,0,1-50-26.32,107.15,107.15,0,0,1-16.45-18.93,114.59,114.59,0,0,1-14.69-30.11,116.08,116.08,0,0,1-5.3-29,107.21,107.21,0,0,1,.07-13.05c.24-3.69.64-7.36,1.23-11a108.55,108.55,0,0,1,9.54-30.13,114.07,114.07,0,0,1,54.25-53.47,110.34,110.34,0,0,1,56.39-10.33l5.35.59a102.18,102.18,0,0,1,13,2.39A109.79,109.79,0,0,1,366.13,29a115.74,115.74,0,0,1,33.62,28.13,113.7,113.7,0,0,1,15.86,25.78,109.82,109.82,0,0,1,9.39,43c.05,2.85-.11,5.71-.22,8.57-.12,3.06-.49,6.1-.91,9.13A112.3,112.3,0,0,1,419.35,163a117,117,0,0,1-9.51,21.48A112.27,112.27,0,0,1,394,206a111.06,111.06,0,0,1-20.59,17.17,3.64,3.64,0,0,0-.56.48h0l-.48.3h0l-.3.18h0ZM374.5,45l-.2-.15a100.8,100.8,0,0,0-49.77-20.06,100.86,100.86,0,0,0-41.21,3.55,94.72,94.72,0,0,0-22.54,9.82l-.37.19h0l-.77.47h0l-.17.14h0a5.21,5.21,0,0,0-.74.3,105.35,105.35,0,0,0-22,17.79,104,104,0,0,0-9.89,12.18A102.47,102.47,0,0,0,211.26,104a99.23,99.23,0,0,0-2.58,18.15c-.14,2.75-.09,5.51-.08,8.26a86,86,0,0,0,.6,8.93,104.53,104.53,0,0,0,2.26,12.92,106.09,106.09,0,0,0,9.7,25.54,102.41,102.41,0,0,0,15.19,21.34,100,100,0,0,0,17,14.64,104.58,104.58,0,0,0,50.88,17.93c3.61.27,7.22.41,10.84.33a103.19,103.19,0,0,0,13.37-1.13c1.1-.16,2.18-.4,3.27-.6l.52-.1a89.56,89.56,0,0,0,17.39-4.91l.27-.12h0l.73-.3h0c.26-.08.54-.14.79-.24a104.32,104.32,0,0,0,11.95-5.78A102.24,102.24,0,0,0,394.26,192a106.38,106.38,0,0,0,16.87-32.34,104.87,104.87,0,0,0,4.9-26.79,105.54,105.54,0,0,0-1.67-24.4,101.19,101.19,0,0,0-15.68-38,106.15,106.15,0,0,0-19.95-22.15,5.83,5.83,0,0,0-.62-.39h0l-.17-.15h0l-1.68-1.38h0l-.76-.62h0l-.61-.48h0l-.18-.14h0l-.28-.21Z"/><path class="cls-3" d="M321.33,15.56a110.34,110.34,0,0,0-56.39,10.33,114.07,114.07,0,0,0-54.25,53.47,108.55,108.55,0,0,0-9.54,30.13c-.59,3.65-1,7.32-1.23,11a107.21,107.21,0,0,0-.07,13.05,116.08,116.08,0,0,0,5.3,29,114.59,114.59,0,0,0,14.69,30.11,107.15,107.15,0,0,0,16.45,18.93,111.9,111.9,0,0,0,50,26.32l2.05.52c-.72-.11-1.45-.2-2.16-.34a112.43,112.43,0,0,1-39.5-16A111.29,111.29,0,0,1,230.27,209a109.87,109.87,0,0,1-19.45-25.12A115.06,115.06,0,0,1,198.7,152.6a116.78,116.78,0,0,1-2.26-13.53,96.75,96.75,0,0,1-.61-10.76c0-3,0-6,.23-9a107.27,107.27,0,0,1,4.54-24.73A112.28,112.28,0,0,1,225.05,51.9a114.22,114.22,0,0,1,62.89-35.21,96,96,0,0,1,11.95-1.58c2.5-.16,5-.25,7.5-.37l4.51,0C315.05,14.93,318.2,15.12,321.33,15.56Z"/><path class="cls-4" d="M321.33,15.56c-3.13-.44-6.28-.63-9.43-.77l-.17-.27a90.52,90.52,0,0,1,11.53.1q6.08.39,12.06,1.38a105.64,105.64,0,0,1,26.36,8,114.35,114.35,0,0,1,61.77,69.25,108.17,108.17,0,0,1,4.05,18.51,112.1,112.1,0,0,1-3.83,46.85,114.18,114.18,0,0,1-22.95,42,109.47,109.47,0,0,1-27.24,22.8,5,5,0,0,1-.67.29,3.64,3.64,0,0,1,.56-.48A111.06,111.06,0,0,0,394,206a112.27,112.27,0,0,0,15.88-21.51A117,117,0,0,0,419.35,163a112.3,112.3,0,0,0,4.52-19.41c.42-3,.79-6.07.91-9.13.11-2.86.27-5.72.22-8.57a109.82,109.82,0,0,0-9.39-43,115.2,115.2,0,0,0-25-35.74A115.48,115.48,0,0,0,366.13,29a109.79,109.79,0,0,0-26.47-10.46,102.18,102.18,0,0,0-13-2.39Z"/><path class="cls-5" d="M311.73,14.52l.17.27-4.51,0,3.52-.23C311.18,14.49,311.46,14.52,311.73,14.52Z"/><path class="cls-4" d="M372.34,224l.48-.3Z"/><path class="cls-4" d="M371.56,224.44l.5-.32Z"/><path class="cls-4" d="M372.05,224.13l.3-.18Z"/><path class="cls-4" d="M259.5,39a9,9,0,0,1-.75.6,105.08,105.08,0,0,0-36.94,42.62,102.1,102.1,0,0,0-9.8,47.56,106.09,106.09,0,0,0,21.65,60.9,100.62,100.62,0,0,0,33.11,28.16,104.49,104.49,0,0,0,29.94,10.58,109,109,0,0,0,27.36,1.67c2.27-.16,4.53-.45,6.79-.68.28,0,.56,0,.83-.05-1.09.2-2.17.44-3.27.6a103.19,103.19,0,0,1-13.37,1.13c-3.62.08-7.23-.06-10.84-.33a104.58,104.58,0,0,1-50.88-17.93,100,100,0,0,1-17-14.64,102.41,102.41,0,0,1-15.19-21.34,106.09,106.09,0,0,1-9.7-25.54,104.53,104.53,0,0,1-2.26-12.92,86,86,0,0,1-.6-8.93c0-2.75-.06-5.51.08-8.26A99.23,99.23,0,0,1,211.26,104a102.47,102.47,0,0,1,15.59-34.78,104,104,0,0,1,9.89-12.18,105.35,105.35,0,0,1,22-17.79A5.21,5.21,0,0,1,259.5,39Z"/><path class="cls-3" d="M350.64,224.88c.66-.32,1.31-.65,2-1A104.73,104.73,0,0,0,385,200.59a105.22,105.22,0,0,0,14.67-19.86,109.2,109.2,0,0,0,9.36-21.3,106.11,106.11,0,0,0,3.92-17,114.94,114.94,0,0,0,1.1-13.23c.08-3.27,0-6.53-.26-9.78a102.88,102.88,0,0,0-6.68-29.88,105.6,105.6,0,0,0-14-25.13,106.85,106.85,0,0,0-14.32-15.67,6.14,6.14,0,0,1-.68-.83,5.83,5.83,0,0,1,.62.39,106.15,106.15,0,0,1,19.95,22.15,101.19,101.19,0,0,1,15.68,38,105.54,105.54,0,0,1,1.67,24.4,104.87,104.87,0,0,1-4.9,26.79A106.38,106.38,0,0,1,394.26,192a102.24,102.24,0,0,1-30.88,26.89,104.32,104.32,0,0,1-11.95,5.78C351.18,224.74,350.9,224.8,350.64,224.88Z"/><path class="cls-3" d="M378,47.8a3.6,3.6,0,0,1-1.68-1.38Z"/><path class="cls-3" d="M376.28,46.43l-.76-.62Z"/><path class="cls-4" d="M260.43,38.36l-.77.47Z"/><path class="cls-3" d="M375.53,45.82l-.61-.48Z"/><path class="cls-3" d="M349.91,225.18l.73-.3Z"/><path class="cls-3" d="M374.76,45.22l-.28-.21Z"/><path class="cls-4" d="M260.78,38.18l-.37.19Z"/><path class="cls-3" d="M349.6,225.31l.27-.12Z"/><path class="cls-3" d="M374.93,45.35l-.17-.14Z"/><path class="cls-3" d="M374.5,45l-.2-.15Z"/><path class="cls-4" d="M259.67,38.83l-.17.14Z"/><path class="cls-3" d="M378.11,47.94l-.17-.15Z"/><path class="cls-6" d="M268.59,151.59l-3.41,0-4.18,0v-7.25c0-.79,0-1.59,0-2.36h-2.14l-.44,0-6.6,0-.45,0v-9.68h-9.27l-.43,0c0-.33,0-.66,0-1V94.6c0-.3,0-.61,0-.91l5,0,2.5,0h2.14V84l3.25,0,4.31,0A8.11,8.11,0,0,0,261,84V74.38l.83,0h38.44v9.57H310a20.29,20.29,0,0,1,.06,2.45c0,.79,0,1.57,0,2.36v4.83l4.29.08c0,.38,0,.76,0,1.14V198.83c0,.38,0,.76,0,1.14a.1.1,0,0,0,0,.09h-4.85c0-3.19,0-6.38,0-9.58h-2.62l-6.63,0-.4,0c0-3.21,0-6.42,0-9.64h-2.12c-.31,0-.61-.05-.91-.05l-6.65,0c-.05-3.21,0-6.43,0-9.63h-2.14l-6.36,0c-.38,0-.75,0-1.13,0,0-3.23,0-6.46,0-9.72h-2.13l-5.06,0-2.49,0c0-3.21,0-6.41,0-9.64Z"/><path class="cls-7" d="M314.35,200c0-.38,0-.76,0-1.14V94.77c0-.38,0-.76,0-1.14l2.34,0c.28,0,.56,0,.83,0a9.7,9.7,0,0,0,2.16,0V84.05c.27,0,.55-.06.82-.06h6c.27,0,.55,0,.82,0a9.44,9.44,0,0,0,2.13,0V74.37c1.11,0,2.22,0,3.34,0q17.1,0,34.22,0c.23,0,.45,0,.68,0,0,3.15,0,6.3,0,9.5h3.05l5.83,0c.28,0,.55,0,.83,0,0,3.21,0,6.42,0,9.68h3l5.71,0c.27,0,.55,0,.82,0v18.87q0,9.74,0,19.48l-4.91,0-1.59,0-1.51,0-1.56,0v9.69l-4.91,0-1.75,0-1.51,0-1.55,0v9.65l-5,.05H361.1a28.31,28.31,0,0,0-3.05,0v9.63l-4.65,0h-2c-1,0-2-.06-3,0v9.62l-4.17,0-2.5,0c-1,0-2,0-3,0v9.65l-6.57,0h-1.51l-1.64,0v9.62l-2.16,0,0-.05,0,.05h-4.19l0-.05,0,.05-.16.06-1.51,0-1.56,0V200l-4.76,0A.09.09,0,0,0,314.35,200ZM363.41,98.8v16.06h13.88v6.82H363.43a23.5,23.5,0,0,0,.07,4.71h18.76V110.31H368.72V103.5h13.55V98.8Zm-8.86,0v19c0,1.25,0,2.5,0,3.76h-8.66v-7.09h-5.24v11.84h18.82c.16-1,.11-27-.05-27.56Z"/><path class="cls-4" d="M386.93,132q0-9.74,0-19.48V93.67H390V132Z"/><path class="cls-3" d="M241.62,93.69c0,.3,0,.61,0,.91v36.54c0,.33,0,.66,0,1h-2c-.18-.57-.26-36.81-.08-38.42A11.9,11.9,0,0,1,241.62,93.69Z"/><path class="cls-4" d="M328.9,190.31v-9.62l1.64,0h1.51a5.74,5.74,0,0,0-.1.82c0,2.63,0,5.26,0,7.89v.93C330.9,190.35,329.9,190.37,328.9,190.31Z"/><path class="cls-4" d="M338.62,180.64V171c1.05-.09,2.05,0,3,0v9.69l-1.53,0Z"/><path class="cls-4" d="M367.64,151.47v-9.65l1.55,0,1.51,0v9.66C369.64,151.51,368.64,151.52,367.64,151.47Z"/><path class="cls-4" d="M319.19,200V190.4l1.56,0,1.51,0V200Z"/><path class="cls-4" d="M380.41,93.61h-3c0-3.26,0-6.47,0-9.68h3C380.38,87.18,380.4,90.4,380.41,93.61Z"/><path class="cls-4" d="M358.05,161.18v-9.63a28.31,28.31,0,0,1,3.05,0l0,8.79v.86Z"/><path class="cls-4" d="M348.33,170.89v-9.62c1.05-.09,2,0,3,0,0,.83,0,1.66,0,2.5,0,2.09,0,4.18,0,6.28v.87Z"/><path class="cls-4" d="M377.36,141.77v-9.69l1.56,0,1.51,0v9.68Z"/><path class="cls-4" d="M370.69,83.87h-3.05c0-3.2,0-6.35,0-9.5h3V83C370.64,83.27,370.67,83.57,370.69,83.87Z"/><path class="cls-3" d="M287.93,171.07h2.14c.07,3.2,0,6.42,0,9.63a7.57,7.57,0,0,1-2.18,0Z"/><path class="cls-3" d="M242.08,132.15h9.27v9.68a7,7,0,0,1-2.14,0v-9.59c-.32,0-.59-.05-.85-.05Z"/><path class="cls-3" d="M278.28,161.29h2.13c0,3.26,0,6.49,0,9.72H278.3C278.29,167.75,278.28,164.52,278.28,161.29Z"/><path class="cls-3" d="M297.67,180.78h2.12c0,3.22,0,6.43,0,9.64a6.54,6.54,0,0,1-2.16,0Z"/><path class="cls-3" d="M258.84,141.9H261c0,.77,0,1.57,0,2.36v7.25h-2.12Z"/><path class="cls-3" d="M251.27,84v9.64h-2.14q0-4.32,0-8.62V84A9.43,9.43,0,0,1,251.27,84Z"/><path class="cls-3" d="M268.59,151.59h2.13c0,3.23,0,6.43,0,9.64h-2.14Z"/><path class="cls-3" d="M329.38,74.37V84a9.44,9.44,0,0,1-2.13,0V74.41A10.18,10.18,0,0,1,329.38,74.37Z"/><path class="cls-3" d="M307.35,190.48h2.13c0,3.2,0,6.39,0,9.58h-2.14Z"/><path class="cls-3" d="M261,74.38V84a8.11,8.11,0,0,1-2.15,0l0-8.54v-1A13.66,13.66,0,0,1,261,74.38Z"/><path class="cls-3" d="M319.65,84.05v9.52a9.7,9.7,0,0,1-2.16,0l0-8.53v-1A7.24,7.24,0,0,1,319.65,84.05Z"/><path class="cls-3" d="M251.8,141.86l6.6,0Z"/><path class="cls-3" d="M300.23,190.44l6.63,0Z"/><polygon class="cls-4" points="326.68 190.34 326.71 190.29 326.74 190.34 326.71 190.36 326.68 190.34"/><polygon class="cls-4" points="322.42 190.34 322.45 190.29 322.49 190.34 322.45 190.36 322.42 190.34"/><path class="cls-4" d="M314.35,200a.09.09,0,0,1,.08.09l0,0,0,0A.1.1,0,0,1,314.35,200Z"/></g></svg>