<svg id="Layer_1" data-name="Layer 1" xmlns="http://www.w3.org/2000/svg" viewBox="0 0 623.62 255.12"><defs><style>.cls-1{fill:#fff;}.cls-2{fill:#ec3f35;}.cls-3{fill:#086cb3;}.cls-4{fill:#f1f0f0;}.cls-5{fill:#fefefe;}</style></defs><title>frontenders-ticino</title><rect class="cls-1" width="623.62" height="255.12"/><path class="cls-2" d="M311.81,28.25q42.68,0,85.35,0c1.9,0,2.6.2,2.38,2.42-1.86,19.56-3.58,39.12-5.33,58.69-1.52,17.08-3,34.17-4.53,51.25q-2.54,28.27-5.14,56.53c-.25,2.73-.49,5.46-.64,8.19a2.18,2.18,0,0,1-1.8,2.38q-34.55,9.48-69.07,19.08a4.59,4.59,0,0,1-2.58,0q-34.19-9.43-68.41-18.75a2.91,2.91,0,0,1-2.52-3.09c-1-11.79-2-23.58-3.08-35.37q-2.06-23.34-4.14-46.67-1.81-20.45-3.6-40.91t-3.65-41.14c-.33-3.69-.57-7.39-1-11.06-.19-1.59.65-1.47,1.67-1.47,5.16,0,10.32,0,15.48,0Zm-.37,102.95a.51.51,0,0,0,.23.14q0,2.78,0,5.56.06,14.86.13,29.72-.49,11.55,0,23.1-.06,9.54-.12,19.08c0,3,0,3,2.81,2.2L365,196.44c4.53-1.3,4.53-1.29,5.11-6,.1-.8.2-1.6.27-2.4q2-22.84,4-45.68c1.53-17.07,3.11-34.13,4.64-51.2,1.39-15.47,2.7-30.94,4.17-46.4.18-1.88-.36-2.11-2-2.11q-33.71.06-67.42,0c-1.65,0-2.21.4-2.19,2.13.09,6.85,0,13.69,0,20.54a.59.59,0,0,0-.26.17q-26.35,0-52.7-.11c-1.51,0-1.74.59-1.58,1.88.24,2,.35,4,.51,6q2,24.06,4,48.13c1.54,18,3.17,36.08,4.64,54.13.14,1.76.85,2.28,2.33,2.66,6,1.56,12,3.2,17.94,4.82,2.72.74,2.67.75,2.43-2-1.4-15.79-2.74-31.59-4.21-47.38-.2-2.15.5-2.49,2.44-2.46C295.33,131.3,303.38,131.22,311.44,131.19Z"/><path class="cls-3" d="M311.83,166.6q-.06-14.86-.13-29.72,0-2.78,0-5.56c.88,0,1.77-.07,2.65-.07h44.41c1.19,0,2.36.29,2.45-1.65.27-6.1.65-12.2,1.11-18.29.13-1.76-.46-2.18-2.11-2.12-3.38.12-6.76,0-10.14,0l-38.37-.1q0-10.85,0-21.7c1,0,1.93-.09,2.89-.09,15.79,0,31.58-.05,47.37.05,2.18,0,2.83-.62,3-2.72.41-5.7,1-11.39,1.64-17.06.22-1.91-.42-2.26-2.18-2.23-5.88.11-11.76,0-17.64,0l-35-.09c0-6.85.06-13.69,0-20.54,0-1.73.54-2.14,2.19-2.13q33.71.07,67.42,0c1.62,0,2.16.23,2,2.11-1.47,15.46-2.78,30.93-4.17,46.4-1.53,17.07-3.11,34.13-4.64,51.2q-2,22.84-4,45.68c-.07.8-.17,1.6-.27,2.4-.58,4.7-.59,4.69-5.11,6L314.52,211c-2.81.81-2.83.81-2.81-2.2q0-9.54.12-19.08l6.74-1.88q18.35-5.12,36.7-10.26c.91-.26,2-.25,2.07-1.82.37-6.67.9-13.33,1.4-20,.11-1.44-.29-1.84-1.76-1.43-5.34,1.49-10.72,2.86-16.08,4.3C331.19,161.22,321.61,164.3,311.83,166.6Z"/><path class="cls-4" d="M311.44,131.19c-8.06,0-16.12.1-24.17,0-1.94,0-2.64.31-2.44,2.46,1.47,15.79,2.81,31.59,4.21,47.38.24,2.71.3,2.7-2.43,2-6-1.62-11.94-3.27-17.94-4.82-1.48-.39-2.19-.91-2.33-2.66-1.47-18-3.09-36.09-4.64-54.13q-2.06-24.06-4-48.13c-.17-2-.28-4-.51-6-.15-1.29.07-1.88,1.58-1.88q26.35.11,52.7.11,0,10.88,0,21.75c-9.18,0-18.37.1-27.55,0-1.95,0-2.82.15-2.56,2.54.59,5.6.88,11.23,1.14,16.86.09,2,.72,2.7,2.86,2.67,8.7-.11,17.4,0,26.1,0Z"/><path class="cls-5" d="M311.43,87.24q0-10.87,0-21.75a.59.59,0,0,1,.26-.17l35,.09c5.88,0,11.76.07,17.64,0,1.76,0,2.4.32,2.18,2.23-.66,5.67-1.23,11.36-1.64,17.06-.15,2.11-.8,2.74-3,2.72-15.79-.11-31.58-.06-47.37-.05-1,0-1.93.06-2.89.09A.66.66,0,0,1,311.43,87.24Z"/><path class="cls-5" d="M311.44,131.19q0-10.9,0-21.8a1.92,1.92,0,0,1,.26-.26l38.37.1c3.38,0,6.76.08,10.14,0,1.65-.06,2.25.37,2.11,2.12-.46,6.09-.84,12.19-1.11,18.29-.09,1.94-1.26,1.65-2.45,1.65H314.33c-.88,0-1.77,0-2.65.07A.51.51,0,0,1,311.44,131.19Z"/><path class="cls-5" d="M311.83,166.6c9.79-2.3,19.36-5.38,29.06-8,5.36-1.44,10.74-2.81,16.08-4.3,1.48-.41,1.87,0,1.76,1.43-.51,6.66-1,13.32-1.4,20-.09,1.57-1.16,1.57-2.07,1.82q-18.34,5.16-36.7,10.26l-6.74,1.88Q311.35,178.16,311.83,166.6Z"/><path class="cls-2" d="M311.68,109.13a1.92,1.92,0,0,0-.26.26c-8.7,0-17.4-.14-26.1,0-2.14,0-2.77-.64-2.86-2.67-.26-5.63-.55-11.26-1.14-16.86-.25-2.39.62-2.55,2.56-2.54,9.18.06,18.37,0,27.55,0a.66.66,0,0,0,.24.18Q311.68,98.28,311.68,109.13Z"/></svg>