<svg xmlns="http://www.w3.org/2000/svg" viewBox="0 0 623.62 255.12"><defs><style>.cls-1{fill:#fff;}.cls-2{fill:#23211c;}.cls-3{fill:#24221d;}.cls-4{fill:#fdd03d;}.cls-5{fill:#63bda6;}.cls-6{fill:#f7d42f;}.cls-7{fill:#65bda6;}.cls-8{fill:#35b3a4;}.cls-9{fill:#ceb801;}.cls-10{fill:#195298;}.cls-11{fill:#eb6a0e;}.cls-12{fill:#4ca635;}.cls-13{fill:#e6db07;}.cls-14{fill:#53baac;}.cls-15{fill:#cdd504;}.cls-16{fill:#49b8ae;}.cls-17{fill:#5abba9;}.cls-18{fill:#c2d106;}.cls-19{fill:#dbd904;}.cls-20{fill:#01a4bb;}.cls-21{fill:#029abe;}.cls-22{fill:#b9cd09;}.cls-23{fill:#0394bf;}.cls-24{fill:#05aaba;}.cls-25{fill:#ecda11;}.cls-26{fill:#3eb6b0;}.cls-27{fill:#0c86bc;}.cls-28{fill:#2db3b3;}.cls-29{fill:#16b0b6;}</style></defs><g id="BG"><rect class="cls-1" width="623.62" height="255.12"/></g><g id="Logo"><path class="cls-2" d="M282.84,186.53h7.91l-10.41,36.9h-8.9c-2.65-10-5.75-19.8-7.86-29.84l-.2-.07s0,0-.06,0l-.09.13,0,.07s0,.1,0,.15c-2,9.87-5.08,19.43-7.75,29.11,0,.1-.08.2-.11.3l-.05.11h-8.72l-10.32-36.8a60.05,60.05,0,0,1,8.06-.09c2.36,9.85,5.47,19.56,7,29.78.11-.17.19-.24.2-.32a89.82,89.82,0,0,1,2.9-12.65c1.63-5.51,3.2-11,4.79-16.54,0-.07.05-.15.07-.21a81.7,81.7,0,0,1,8.66-.09c.1.3.2.62.29.95,1.87,6.65,3.75,13.3,5.58,20a54.6,54.6,0,0,1,1.72,8.51c0,.07.06.13.16.2.34-1.2.44-2.44.71-3.66s.51-2.5.78-3.74.58-2.49.89-3.73.64-2.46,1-3.7l.95-3.62,1-3.7c.32-1.24.64-2.47,1-3.7S282.49,187.82,282.84,186.53Z"/><path class="cls-2" d="M319.63,192.1c-.11-1-.24-2-.33-3s-.18-1.91-.18-2.87c0-4.36,0-8.73,0-13.09,0-.23,0-.46,0-.73H327v52h-6.12l-1.4-4.86a3,3,0,0,0-.47.3,5.12,5.12,0,0,0-.34.44,12.21,12.21,0,0,1-8.94,4.77,15.82,15.82,0,0,1-6.16-.55,12.92,12.92,0,0,1-8-7.1,21.44,21.44,0,0,1-1.91-6.64,36.27,36.27,0,0,1-.15-8.2,21.61,21.61,0,0,1,2.73-9.17,12.83,12.83,0,0,1,10.67-6.57,16.55,16.55,0,0,1,5.3.42,12,12,0,0,1,6.74,4.42C319.09,191.89,319.18,192.26,319.63,192.1Zm-.14,13.71c0-.63-.06-1.8-.17-3a15.59,15.59,0,0,0-1.26-5.24,7.08,7.08,0,0,0-4.35-3.84,11.52,11.52,0,0,0-3.78-.52,7.2,7.2,0,0,0-6.41,3.64,12.61,12.61,0,0,0-1.58,4.15,27,27,0,0,0-.28,8.65,14.38,14.38,0,0,0,1.26,4.59,7.42,7.42,0,0,0,3.33,3.64,7.91,7.91,0,0,0,3.05.82,11.81,11.81,0,0,0,4.8-.56,7.12,7.12,0,0,0,4.6-5.12A24.88,24.88,0,0,0,319.49,205.81Z"/><path class="cls-2" d="M386.29,217c.49-1.79.86-3.42,1.39-5,1.82-5.47,3.69-10.93,5.54-16.39q1.29-3.76,2.6-7.53l.21-.56h8.48c-.09.27-.16.49-.24.71l-15.6,41.31a23.14,23.14,0,0,1-3.11,5.82,13.12,13.12,0,0,1-9.12,5.45,19.72,19.72,0,0,1-7.21-.45v-6.18c.57.08,1.1.16,1.64.22a14.16,14.16,0,0,0,4.06,0,7,7,0,0,0,4.22-2.51,11.65,11.65,0,0,0,1.87-3.24c.46-1.18.91-2.38,1.4-3.55a1.44,1.44,0,0,0,0-1.22L368.79,190c-.31-.79-.63-1.58-1-2.44h8.56c.08.21.2.47.29.74q3.76,10.47,7.52,20.93a39.17,39.17,0,0,1,1.93,7.31A4.26,4.26,0,0,0,386.29,217Z"/><path class="cls-2" d="M356.91,201.84a18.55,18.55,0,0,0-.3-4.67A5.31,5.31,0,0,0,351.8,193a16.45,16.45,0,0,0-7.62.9c-1.5.52-3,1.13-4.54,1.73q-1.23-2.75-2.51-5.56a22.52,22.52,0,0,1,4.4-1.83,30.07,30.07,0,0,1,11.58-1.29,16.59,16.59,0,0,1,6,1.59,9.69,9.69,0,0,1,5.28,7.27,20.2,20.2,0,0,1,.35,3.72c0,8.12,0,16.24,0,24.36v.58h-5.65l-1.6-5.21c-.23.23-.38.36-.52.51-.62.66-1.21,1.35-1.86,2a11.19,11.19,0,0,1-6,3.08,19.9,19.9,0,0,1-7.84,0,9.66,9.66,0,0,1-7.72-8.33,14.63,14.63,0,0,1,.08-5.32A9.33,9.33,0,0,1,338,205a18,18,0,0,1,6.18-2.25,39.27,39.27,0,0,1,6.67-.67C352.82,202,354.81,201.91,356.91,201.84Zm0,5.07a1.41,1.41,0,0,0-.29-.07,76.92,76.92,0,0,0-8,.5,12.25,12.25,0,0,0-4,1.25,5.29,5.29,0,0,0-2.51,2.68,6.62,6.62,0,0,0-.4,3.83,4.31,4.31,0,0,0,3.53,3.74,10.55,10.55,0,0,0,7.36-.9,7.64,7.64,0,0,0,4-5A24.7,24.7,0,0,0,356.87,206.91Z"/><path class="cls-3" d="M432.1,189.53c-.83,1.94-1.66,3.86-2.5,5.83l-1.52-.57a28.69,28.69,0,0,0-6.61-1.76,14,14,0,0,0-5.31.25,5.71,5.71,0,0,0-1.19.45,3.06,3.06,0,0,0-1.22,4.37,4,4,0,0,0,1.66,1.57c1.39.72,2.79,1.42,4.23,2.05,1.92.85,3.9,1.55,5.8,2.44a21.18,21.18,0,0,1,3.58,2.06,8.77,8.77,0,0,1,3.72,7.41,11.57,11.57,0,0,1-.87,4.83,9.65,9.65,0,0,1-4.5,4.68,15.89,15.89,0,0,1-5.53,1.71,33.83,33.83,0,0,1-12.6-.62c-1.23-.31-2.41-.8-3.62-1.21v-6.87c.28.1.54.19.79.3a30.75,30.75,0,0,0,8.39,2.45,17.32,17.32,0,0,0,6.73-.23,6.85,6.85,0,0,0,1.41-.54,3.76,3.76,0,0,0,1.83-4.69,3.14,3.14,0,0,0-1.22-1.64,18,18,0,0,0-2.49-1.57c-1.7-.81-3.46-1.49-5.18-2.27s-3.2-1.43-4.75-2.24a15.4,15.4,0,0,1-2.45-1.64,8.16,8.16,0,0,1-3.08-6,14.61,14.61,0,0,1,.11-3.17,7.91,7.91,0,0,1,3.38-5.31,13.45,13.45,0,0,1,5.7-2.36,29.3,29.3,0,0,1,17,2l.21.12Z"/><path class="cls-2" d="M231.9,186.5v5.95h-9v31H215v-31h-6.07v-3.72l6.05-2.41v-1.78a23.15,23.15,0,0,1,.51-5.38,9.55,9.55,0,0,1,7.8-7.7,23.61,23.61,0,0,1,12.36.94l-2,5.88c-1.43-.26-2.78-.58-4.14-.74a11.83,11.83,0,0,0-2.85.07,3.71,3.71,0,0,0-3,2.28,7.1,7.1,0,0,0-.67,2.62c-.07,1.29-.09,2.59-.13,4Z"/><path class="cls-4" d="M209,52.56c.89-.92,1.77-1.84,2.67-2.74L238,23.45l2.56-2.51c.05.18.11.35.15.53a5.7,5.7,0,0,0,2.79,3.85,13.8,13.8,0,0,0,2.19.85,7.45,7.45,0,0,1-.52.6L218.94,53c-.17.17-.36.31-.54.46,0-.89,0-.91-.86-.92H209Z"/><path class="cls-5" d="M244.6,82.56c-.18.2-.35.41-.54.59q-8.33,8.34-16.66,16.65c-.2.21-.44.38-.66.57-.06-.57-.48-.53-.89-.53-2.46,0-4.93,0-7.4,0a9.86,9.86,0,0,1-1.33-.16l1.77-1.92c.22-.19.45-.37.65-.58L238.7,78.05c.2-.21.43-.38.65-.57a1.39,1.39,0,0,1,.29.36,7.34,7.34,0,0,0,3.32,4C243.48,82.11,244.05,82.31,244.6,82.56Z"/><path class="cls-6" d="M209,52.56h8.57c.83,0,.85,0,.86.92-.48.49-1,1-1.45,1.47q-9.44,9.45-18.88,18.88c-.23.22-.47.42-.71.63a2.57,2.57,0,0,1-.19-.41,6,6,0,0,0-4.41-4.46,3.58,3.58,0,0,1-.56-.27c.14-.16.26-.33.41-.48q8-8,15.94-15.92A4.71,4.71,0,0,1,209,52.56Z"/><path class="cls-7" d="M253.76,77.42c.45.41.91.81,1.34,1.24l17.53,17.5c.14.15.27.32.41.48a12.35,12.35,0,0,1-1.33.16c-2.47,0-4.94,0-7.4,0h-.56a.43.43,0,0,0-.45.45,5,5,0,0,1-.43-.35L249,83c-.13-.13-.23-.28-.35-.42a3.65,3.65,0,0,1,.34-.18,7.43,7.43,0,0,0,4.44-4.12Z"/><path class="cls-8" d="M423.82,77.32a8.3,8.3,0,0,1,0-3.71,7.38,7.38,0,1,1,5.82,9c-.23,0-.47,0-.71,0s-.22-.13-.33-.18A7.88,7.88,0,0,1,425,79.7,10.28,10.28,0,0,1,423.82,77.32Z"/><path class="cls-8" d="M253.76,77.42l-.38.86a7.43,7.43,0,0,1-4.44,4.12,3.65,3.65,0,0,0-.34.18,9.66,9.66,0,0,1-1.41.16c-.87,0-1.73-.12-2.59-.18-.55-.25-1.12-.45-1.64-.75a7.34,7.34,0,0,1-3.32-4,1.39,1.39,0,0,0-.29-.36c0-.34,0-.69-.07-1a7.38,7.38,0,0,1,14.52-2.64,4.68,4.68,0,0,1-.06,3A1.7,1.7,0,0,0,253.76,77.42Z"/><path class="cls-7" d="M423.82,77.32A10.28,10.28,0,0,0,425,79.7a7.88,7.88,0,0,0,3.61,2.71c.11,0,.22.12.33.18a5,5,0,0,1-.35.43L417.85,93.73c-.15.14-.33.25-.49.38H407.07a5,5,0,0,1,.35-.43l16.1-16.08A3.85,3.85,0,0,1,423.82,77.32Z"/><path class="cls-9" d="M192.2,69.32a3.58,3.58,0,0,0,.56.27,6,6,0,0,1,4.41,4.46,2.57,2.57,0,0,0,.19.41c0,.58-.05,1.16-.08,1.75-.09.27-.18.54-.25.82a5.91,5.91,0,0,1-5,4.31,6,6,0,1,1-.76-11.94C191.58,69.39,191.89,69.35,192.2,69.32Z"/><path class="cls-10" d="M197.35,129.71c0,.61-.08,1.22-.16,1.82a6,6,0,0,1-11.88-.25,6,6,0,0,1,6.08-6.66c.26,0,.53,0,.79-.05a3.58,3.58,0,0,0,.56.27,5.94,5.94,0,0,1,4.44,4.54A1.48,1.48,0,0,0,197.35,129.71Z"/><path class="cls-10" d="M381.65,129.85a13.93,13.93,0,0,1-.17,2.14,6,6,0,0,1-11.82-1.34c0-.29,0-.58,0-.87s.21-.66.32-1a6,6,0,0,1,4-3.89l.88-.31h1.73l.43.16A6.07,6.07,0,0,1,381.65,129.85Z"/><path class="cls-11" d="M245.73,26.17a13.8,13.8,0,0,1-2.19-.85,5.7,5.7,0,0,1-2.79-3.85c0-.18-.1-.35-.15-.53a17,17,0,0,1,.16-2.14,5.91,5.91,0,0,1,6.39-4.6A6,6,0,0,1,248,26,15.72,15.72,0,0,1,245.73,26.17Z"/><path class="cls-12" d="M245.75,124.62a15.8,15.8,0,0,1,2.59.3,6,6,0,1,1-7.74,5.64c0-.24,0-.48,0-.72a6.08,6.08,0,0,1,2.89-4.33A15.39,15.39,0,0,1,245.75,124.62Z"/><path class="cls-10" d="M307.87,129.87a13.43,13.43,0,0,1-.18,2.29,6,6,0,0,1-6.66,4.41,6,6,0,0,1-5.14-5.9c0-.32,0-.64-.06-.95.06-.08.16-.16.17-.25a5.67,5.67,0,0,1,3.14-4.13,3.93,3.93,0,0,0,.57-.41l1.3-.35,1.73,0,1.44.45a7,7,0,0,1,2.26,1.7A5.37,5.37,0,0,1,307.87,129.87Z"/><path class="cls-8" d="M339.64,99.83l-1.75,0a2.5,2.5,0,0,0-.41-.19,6,6,0,0,1-4.54-4.49,2.48,2.48,0,0,0-.22-.47,19.76,19.76,0,0,1,.19-2,6,6,0,0,1,11.86,1.12c0,.29,0,.59,0,.88a3.17,3.17,0,0,0-.2.51,5.89,5.89,0,0,1-3.34,4.08A14.67,14.67,0,0,1,339.64,99.83Z"/><path class="cls-13" d="M203.91,93.18c-.12-.1-.25-.18-.36-.29-2.86-2.85-5.7-5.7-8.55-8.56-.11-.11-.21-.24-.31-.36.24-.37.61-.26.94-.26l9.11,0c.12.1.25.19.36.3L214,92.83a2.55,2.55,0,0,1,.24.31c-1.11-.06-2.21-.15-3.32-.16-1.81,0-3.62,0-5.42,0A14.34,14.34,0,0,0,203.91,93.18Z"/><path class="cls-14" d="M263.3,97.26a.43.43,0,0,1,.45-.45h.56c2.46,0,4.93,0,7.4,0a12.35,12.35,0,0,0,1.33-.16,1.48,1.48,0,0,1,.13.08l8.42,8.41s.05.09.08.13c-.79.06-1.57.15-2.36.16-1.88,0-3.77,0-5.65,0h-1.19c-.31,0-.52.11-.55.44-.21-.19-.44-.37-.65-.58l-6.88-6.88C264,98,263.66,97.64,263.3,97.26Z"/><path class="cls-15" d="M224.2,103l9.1,9.11c.58.58,1.13,1.17,1.7,1.76-.42,0-.83.14-1.25.15-2.57,0-5.15,0-7.72,0-.33,0-.71-.09-.91.31-.55-.53-1.11-1-1.66-1.59-1.51-1.5-3-3-4.51-4.51l.14-.26,4.35-4.28C223.69,103.48,224,103.26,224.2,103Z"/><path class="cls-16" d="M224.2,103c-.25.23-.51.45-.76.69L219.09,108a11.3,11.3,0,0,0-1.41-.17c-2.52,0-5.05,0-7.57,0-.31,0-.66.11-.85-.27a5.68,5.68,0,0,1,.5-.6l3.38-3.39a7.22,7.22,0,0,0,.5-.6c.22-.18.45-.36.66-.55l2.82-2.74a9.86,9.86,0,0,0,1.33.16c2.47,0,4.94,0,7.4,0,.41,0,.83,0,.89.53-.36.34-.74.66-1.08,1C225.16,101.92,224.69,102.48,224.2,103Z"/><path class="cls-17" d="M407.07,94.1h10.29c-.19.18-.38.35-.56.54-1.05,1.08-2.08,2.17-3.14,3.25s-2,2.07-3.08,3.09c-.33.33-.7.63-1.05,1l-10.3,0c.17-.2.34-.41.52-.59q2.91-2.91,5.83-5.81C406.06,95,406.57,94.57,407.07,94.1Z"/><path class="cls-18" d="M225.12,114.36c.2-.4.58-.31.91-.31,2.57,0,5.15,0,7.72,0,.42,0,.83-.1,1.25-.15.5.47,1,.93,1.49,1.42l5.85,5.83a2.4,2.4,0,0,1,.18.26c-.17.37-.51.31-.82.31h-9.22a4.58,4.58,0,0,1-.42-.35q-3.36-3.35-6.69-6.69A1.89,1.89,0,0,1,225.12,114.36Z"/><path class="cls-19" d="M217.12,99.67l-2.82,2.74c-.21.19-.44.37-.66.55l-9.37-9.36a5,5,0,0,1-.36-.42,14.34,14.34,0,0,1,1.57-.2c1.8,0,3.61,0,5.42,0,1.11,0,2.21.1,3.32.16.12.1.25.19.36.3l4.31,4.31Z"/><path class="cls-14" d="M332.72,94.71a2.48,2.48,0,0,1,.22.47,6,6,0,0,0,4.54,4.49,2.5,2.5,0,0,1,.41.19c-.93.94-1.84,1.89-2.77,2.82s-1.88,1.84-2.83,2.77c-.09-.11-.17-.28-.29-.32a2.61,2.61,0,0,0-.63,0l-9,0c.12-.14.23-.28.36-.41q4.8-4.82,9.61-9.6C332.43,94.94,332.58,94.83,332.72,94.71Z"/><path class="cls-20" d="M290.58,114.21l5.86,5.79c-.23.38-.6.28-.93.28h-7.74a1.7,1.7,0,0,0-1.14.26c-.42-.4-.86-.79-1.27-1.2l-4.53-4.58c.06-.47.43-.39.73-.39,2.25,0,4.5,0,6.74,0C289.06,114.36,289.82,114.27,290.58,114.21Z"/><path class="cls-16" d="M399.23,101.92l10.3,0c-.28.3-.56.62-.86.91-.7.71-1.42,1.41-2.13,2.11l-2.92,2.88a7.86,7.86,0,0,0-1.17-.17c-3,0-6,0-9,0,.23-.25.45-.52.69-.76l4.75-4.75A3.65,3.65,0,0,1,399.23,101.92Z"/><path class="cls-21" d="M393.16,118.21l-5.2,5.37a2.65,2.65,0,0,1-.4.24,3.93,3.93,0,0,0-.81-.18h-8c-.34,0-.71.1-.91-.31,1.18-1.2,2.36-2.41,3.56-3.61.66-.68,1.35-1.33,2-2,.1.48.49.32.77.32h8A6.72,6.72,0,0,1,393.16,118.21Z"/><path class="cls-21" d="M368.57,118.51l5.41,5.28c-.19.41-.57.32-.9.32h-7.81a9.33,9.33,0,0,0-1.17.14l-3.24-3.16L358.79,119c.08-.49.47-.34.76-.34h7.7A11.92,11.92,0,0,0,368.57,118.51Z"/><path class="cls-14" d="M339.64,99.83a14.67,14.67,0,0,0,1.61-.58,5.89,5.89,0,0,0,3.34-4.08,3.17,3.17,0,0,1,.2-.51c.14.11.3.22.43.34l7.53,7.51c.11.11.19.24.29.36a8.71,8.71,0,0,1-1.25.15c-1.19,0-2.38,0-3.57,0h-4.45c-.25,0-.56-.08-.62.31Z"/><path class="cls-20" d="M307.73,119.65l4.94-5h9.06c.42,0,.84,0,1.26,0l-4.53,4.58a7.31,7.31,0,0,1-.59.52l-1.27,0C313.64,119.72,310.68,120,307.73,119.65Z"/><path class="cls-21" d="M193.92,122.82c1-1.06,2.08-2.13,3.13-3.18.77-.77,1.55-1.52,2.33-2.29.26.4.67.38,1.07.38h8.75c-1.7,1.77-3.4,3.54-5.12,5.31a1.17,1.17,0,0,1-.34.15c-.27-.39-.68-.36-1.07-.36Z"/><path class="cls-22" d="M232.48,121.71h9.22c.31,0,.65.06.82-.31l3.23,3.21a15.39,15.39,0,0,0-2.26.89,6.08,6.08,0,0,0-2.89,4.33c-1.87-1.85-3.75-3.7-5.61-5.56C234.14,123.43,233.32,122.57,232.48,121.71Z"/><path class="cls-16" d="M343.15,103.34c.06-.39.37-.3.62-.31h4.45c1.19,0,2.38,0,3.57,0a8.71,8.71,0,0,0,1.25-.15c1.23,1.21,2.47,2.41,3.69,3.63.49.48.95,1,1.42,1.49h-8.66a2.35,2.35,0,0,0-.7.07c-.21.06-.51,0-.52.38-.34-.3-.68-.59-1-.91q-1.78-1.75-3.55-3.53C343.51,103.8,343.34,103.56,343.15,103.34Z"/><path class="cls-23" d="M307.73,119.65c2.95.32,5.91.07,8.87.15l1.27,0c-1.51,1.54-3,3.07-4.53,4.6a4.76,4.76,0,0,1-.68.5,2.09,2.09,0,0,0-.49-.18c-.4,0-.8,0-1.19,0h-6.1c-.27,0-.62-.13-.7.3l-1.44-.45Z"/><path class="cls-24" d="M368.57,118.51a11.92,11.92,0,0,1-1.32.17h-7.7c-.29,0-.68-.15-.76.34l-4.74-4.75c-.05,0-.09-.12-.14-.18a5.85,5.85,0,0,1,1.08-.2c2.55,0,5.11,0,7.66,0a10.39,10.39,0,0,0,1.25-.14c1.45,1.41,2.9,2.83,4.33,4.25A2.59,2.59,0,0,1,368.57,118.51Z"/><path class="cls-24" d="M393.16,118.21a6.72,6.72,0,0,0-1-.16h-8c-.28,0-.67.16-.77-.32l4.33-4.3c.76,0,1.52.13,2.28.15,1,0,2,0,3,0h4c.25,0,.56-.09.62.3-1.2,1.22-2.39,2.45-3.6,3.66A8.09,8.09,0,0,1,393.16,118.21Z"/><path class="cls-23" d="M286.63,120.54a1.7,1.7,0,0,1,1.14-.26h7.74c.33,0,.7.1.93-.28.25.26.49.54.75.79s.56.47.82.73l3,3.06-1.3.35a2.5,2.5,0,0,0-.65-.17q-3.6,0-7.2,0a4.2,4.2,0,0,0-.84.18Z"/><path class="cls-25" d="M204.74,83.68l-9.11,0c-.33,0-.7-.11-.94.26L192,81.34A5.91,5.91,0,0,0,197,77c.07-.28.16-.55.25-.82Z"/><path class="cls-26" d="M322.33,105.08l9,0a2.61,2.61,0,0,1,.63,0c.12,0,.2.21.29.32-.38.35-.77.69-1.14,1.06-.76.79-1.5,1.61-2.26,2.41a7.31,7.31,0,0,1-.59.52c-.06-.44-.4-.34-.68-.34h-9.35Z"/><path class="cls-24" d="M209.2,117.74h-8.75c-.4,0-.81,0-1.07-.38l3.83-3.79a6.8,6.8,0,0,0,1,.16c2.64,0,5.29,0,7.93,0,.34,0,.7,0,.87.37-1.09,1.11-2.17,2.22-3.27,3.32A2.34,2.34,0,0,1,209.2,117.74Z"/><path class="cls-27" d="M193.92,122.82l8.75,0c.39,0,.8,0,1.07.36a89.21,89.21,0,0,1-6.39,6.51,1.48,1.48,0,0,1-.17-.33,5.94,5.94,0,0,0-4.44-4.54,3.58,3.58,0,0,1-.56-.27Z"/><path class="cls-26" d="M271.92,105.87c0-.33.24-.44.55-.44h1.19c1.88,0,3.77,0,5.65,0,.79,0,1.57-.1,2.36-.16l3.4,3.41c-.2.37-.55.27-.85.27H276c-.31,0-.52.12-.54.45Z"/><path class="cls-28" d="M209.26,107.55c.19.38.54.27.85.27,2.52,0,5,0,7.57,0a11.3,11.3,0,0,1,1.41.17l-.14.26-2.53,2.48-.87.8c-.07-.48-.45-.36-.74-.36-2.58,0-5.15,0-7.72,0a12.06,12.06,0,0,1-1.33-.16Z"/><path class="cls-28" d="M348.27,108.44c0-.33.31-.32.52-.38a2.35,2.35,0,0,1,.7-.07h8.66l3,3c-.79,0-1.57.14-2.36.15-2.14,0-4.28,0-6.43,0a4.17,4.17,0,0,0-.79,0c-.11,0-.21.18-.31.28Z"/><path class="cls-27" d="M377.81,123.32c.2.41.57.31.91.31h8a3.93,3.93,0,0,1,.81.18,5.89,5.89,0,0,1-.41.57l-5.5,5.46a6.07,6.07,0,0,0-4.7-5.08l-.43-.16Z"/><path class="cls-28" d="M393.48,107.67c3,0,6,0,9,0a7.86,7.86,0,0,1,1.17.17l-3,3a12.59,12.59,0,0,0-1.49-.17c-2.88,0-5.77,0-8.65,0Z"/><path class="cls-28" d="M318.27,109.11h9.35c.28,0,.62-.1.68.34l-2.87,2.88c-.06-.44-.41-.34-.68-.34h-9.36Z"/><path class="cls-29" d="M390.45,110.7c2.88,0,5.77,0,8.65,0a12.59,12.59,0,0,1,1.49.17l-3,3c-.06-.39-.37-.3-.62-.3h-4c-1,0-2,0-3,0-.76,0-1.52-.1-2.28-.15Z"/><path class="cls-29" d="M290.58,114.21c-.76.06-1.52.15-2.28.15-2.24,0-4.49,0-6.74,0-.3,0-.67-.08-.73.39L278.12,112c0-.54.33-.55.74-.55,2.63,0,5.25,0,7.88,0a6.93,6.93,0,0,0,1-.16Z"/><path class="cls-29" d="M351.3,111.48c.1-.1.2-.26.31-.28a4.17,4.17,0,0,1,.79,0c2.15,0,4.29,0,6.43,0,.79,0,1.57-.1,2.36-.15l2.71,2.72a10.39,10.39,0,0,1-1.25.14c-2.55,0-5.11,0-7.66,0a5.85,5.85,0,0,0-1.08.2Z"/><path class="cls-29" d="M315.39,112h9.36c.27,0,.62-.1.68.34L323,114.74c-.42,0-.84,0-1.26,0h-9.06Z"/><path class="cls-27" d="M364.1,124.26a9.33,9.33,0,0,1,1.17-.14h7.81c.33,0,.71.09.9-.32l.81.81-.88.31a6,6,0,0,0-4,3.89c-.11.32-.21.65-.32,1-.74-.73-1.49-1.44-2.22-2.17C366.29,126.5,365.2,125.38,364.1,124.26Z"/><path class="cls-28" d="M287.74,111.33a6.93,6.93,0,0,1-1,.16c-2.63,0-5.25,0-7.88,0-.41,0-.76,0-.74.55l-2.68-2.65c0-.33.23-.45.54-.45h8.24c.3,0,.65.1.85-.27Z"/><path class="cls-29" d="M205.76,111a12.06,12.06,0,0,0,1.33.16c2.57,0,5.14,0,7.72,0,.29,0,.67-.12.74.36-.33.36-.66.72-1,1.07-.5.5-1,1-1.54,1.48-.17-.41-.53-.36-.87-.36-2.64,0-5.29,0-7.93,0a6.8,6.8,0,0,1-1-.16Z"/><path class="cls-27" d="M304.18,125.06c.08-.43.43-.3.7-.3H311c.39,0,.79,0,1.19,0a2.09,2.09,0,0,1,.49.18,2.69,2.69,0,0,1-.28.46l-4.51,4.47a5.37,5.37,0,0,0-1.43-3.11A7,7,0,0,0,304.18,125.06Z"/><path class="cls-27" d="M291,124.94a4.2,4.2,0,0,1,.84-.18q3.6,0,7.2,0a2.5,2.5,0,0,1,.65.17,3.93,3.93,0,0,1-.57.41,5.67,5.67,0,0,0-3.14,4.13c0,.09-.11.17-.17.25-.88-.86-1.78-1.72-2.65-2.59C292.45,126.41,291.74,125.67,291,124.94Z"/></g></svg>