<svg xmlns="http://www.w3.org/2000/svg" viewBox="0 0 623.62 255.12"><defs><style>.cls-1{fill:#fff;}.cls-2{fill:#3b4043;}</style></defs><g id="BG"><rect class="cls-1" width="623.62" height="255.12"/></g><g id="Logo"><g id="LOGO-2" data-name="LOGO"><g id="ICON"><path class="cls-2" d="M75.44,136a12.73,12.73,0,0,1-5.69,1.15A14.73,14.73,0,0,1,64,136a8.21,8.21,0,0,1-4-3.41,10.59,10.59,0,0,1-1.38-5.52A12.3,12.3,0,0,1,60,121.36a9.75,9.75,0,0,1,3.89-4.1,11,11,0,0,1,5.55-1.43A10.38,10.38,0,0,1,74.25,117a7.82,7.82,0,0,1,3.31,3,7.91,7.91,0,0,1,1.11,4.07,8.2,8.2,0,0,1-.86,3.63,7.27,7.27,0,0,1-2.35,2.8,3.45,3.45,0,0,1-1.8.8.89.89,0,0,1-.64-.25.82.82,0,0,1-.27-.61c0-.13.13-.81.39-2L75,119.64H72.69l-.44,2a5,5,0,0,0-1.77-1.81,4.17,4.17,0,0,0-2.15-.59,5.58,5.58,0,0,0-3,1,8,8,0,0,0-2.62,3.13,9.08,9.08,0,0,0-1.06,4.16,7.08,7.08,0,0,0,.68,3.1,4.87,4.87,0,0,0,1.77,2.09,4,4,0,0,0,4.34.09,7.4,7.4,0,0,0,1.89-1.58,3.37,3.37,0,0,0,.24,1.12,1.82,1.82,0,0,0,.81.79,3.32,3.32,0,0,0,1.45.27,6.86,6.86,0,0,0,5.16-2.64,9.79,9.79,0,0,0,2.65-6.73,9.92,9.92,0,0,0-1.26-4.91,9.67,9.67,0,0,0-4-4,12.31,12.31,0,0,0-5.78-1.33,12.78,12.78,0,0,0-7.06,1.88A12.13,12.13,0,0,0,58,121.23a14.56,14.56,0,0,0-1.3,6.07,13,13,0,0,0,1.09,5.33,10,10,0,0,0,2.58,3.45,11.31,11.31,0,0,0,4.14,2.24,18.34,18.34,0,0,0,5.32.74,15.13,15.13,0,0,0,5.34-.83A12,12,0,0,0,79,136a9.08,9.08,0,0,0,2.27-2.8H78.88A8.94,8.94,0,0,1,75.44,136ZM71,127.61a6.92,6.92,0,0,1-1.2,2.19,5.53,5.53,0,0,1-1.54,1.3,3.19,3.19,0,0,1-1.52.44,2.48,2.48,0,0,1-1.94-1,4.18,4.18,0,0,1-.84-2.78,8.36,8.36,0,0,1,.42-2.47,7.5,7.5,0,0,1,1.1-2.29,4.73,4.73,0,0,1,1.42-1.36,3.11,3.11,0,0,1,1.56-.43,2.75,2.75,0,0,1,2.13,1,4,4,0,0,1,.88,2.76A8,8,0,0,1,71,127.61Z"/><path class="cls-2" d="M123.07,135.06H89.36a1.76,1.76,0,1,0,0,3.51h33.71a1.76,1.76,0,1,0,0-3.51Z"/><path class="cls-2" d="M129,104H53.66a7.21,7.21,0,0,0-7.21,7.22v32.76a7.22,7.22,0,0,0,7.22,7.22H129a7.22,7.22,0,0,0,7.22-7.22V111.18A7.22,7.22,0,0,0,129,104Zm3.7,40a3.7,3.7,0,0,1-3.7,3.7H53.66a3.7,3.7,0,0,1-3.69-3.7V111.18a3.7,3.7,0,0,1,3.7-3.7H129a3.7,3.7,0,0,1,3.7,3.7Z"/><path class="cls-2" d="M90.73,50.88a76.68,76.68,0,1,0,76.56,76.68A76.63,76.63,0,0,0,90.73,50.88Zm0,149.84a73.16,73.16,0,1,1,73-73.16A73.19,73.19,0,0,1,90.73,200.72Z"/><path class="cls-2" d="M123.07,116.33H89.36a1.76,1.76,0,0,0,0,3.52h33.71a1.76,1.76,0,0,0,0-3.52Z"/><path class="cls-2" d="M123.07,125.61H89.36a1.76,1.76,0,0,0,0,3.52h33.71a1.76,1.76,0,0,0,0-3.52Z"/></g><g id="GAMEDEV.JS_WEEKLY" data-name="GAMEDEV.JS WEEKLY"><polygon class="cls-2" points="335.09 82.33 335.09 113.58 330.32 113.58 330.32 119.05 346.14 119.05 346.14 113.58 341.37 113.58 341.37 80.08 346.14 80.08 346.14 74.61 332.23 74.61 319.33 106.95 306.43 74.61 292.52 74.61 292.52 80.08 297.29 80.08 297.29 113.58 292.52 113.58 292.52 119.05 308.35 119.05 308.35 113.58 303.57 113.58 303.57 82.33 316.33 113.58 322.33 113.58 335.09 82.33"/><path class="cls-2" d="M274.3,119.05h14.46v-5.47h-3.68l-11.54-33.5h2.94V74.61H258.26v5.47h2.87l-11.53,33.5H246v5.47h14.47v-5.47h-4.58l2.94-8.48h17.06l2.93,8.48h-4.5ZM260.65,99.63l6.69-19.35L274,99.63Z"/><polygon class="cls-2" points="278.12 148.38 282.89 148.38 282.89 181.88 278.12 181.88 278.12 187.35 310.6 187.35 310.6 173.95 305.14 173.95 305.14 181.88 289.17 181.88 289.17 167.86 305.14 167.86 305.14 162.39 289.17 162.39 289.17 148.38 305.14 148.38 305.14 156.31 310.6 156.31 310.6 142.91 278.12 142.91 278.12 148.38"/><polygon class="cls-2" points="474.56 105.65 469.1 105.65 469.1 113.58 453.13 113.58 453.13 99.56 469.1 99.56 469.1 94.09 453.13 94.09 453.13 80.08 469.1 80.08 469.1 88.01 474.56 88.01 474.56 74.61 442.08 74.61 442.08 80.08 446.85 80.08 446.85 113.58 442.08 113.58 442.08 119.05 474.56 119.05 474.56 105.65"/><polygon class="cls-2" points="234.45 119.05 241.54 111.53 241.54 92.72 226.67 92.72 226.67 98.19 236.09 98.19 236.09 108.72 231.72 113.17 219.23 113.17 215.75 109.55 215.75 77.27 219.3 73.65 231.79 73.65 236.09 78.09 236.09 83.91 241.54 83.91 241.54 75.29 234.45 67.77 216.57 67.77 209.47 75.29 209.47 111.53 216.57 119.05 234.45 119.05"/><polygon class="cls-2" points="258.19 141.54 263.18 141.54 253.28 179.83 243.39 141.54 246.39 141.54 246.39 136.07 231.65 136.07 231.65 141.54 234.59 141.54 224.69 179.83 214.8 141.54 219.85 141.54 219.85 136.07 205.38 136.07 205.38 141.54 208.52 141.54 220.4 187.35 228.79 187.35 239.02 147.76 249.26 187.35 257.65 187.35 269.45 141.54 272.66 141.54 272.66 136.07 258.19 136.07 258.19 141.54"/><path class="cls-2" d="M432.53,111.53V82.13l-7.1-7.52H396.36v5.47h4.78v33.5h-4.78v5.47h29.07Zm-25.11,1.64V80.49h15.35l3.48,3.62v25.43l-3.55,3.63Z"/><polygon class="cls-2" points="320.15 148.38 324.93 148.38 324.93 181.88 320.15 181.88 320.15 187.35 352.63 187.35 352.63 173.95 347.17 173.95 347.17 181.88 331.2 181.88 331.2 167.86 347.17 167.86 347.17 162.39 331.2 162.39 331.2 148.38 347.17 148.38 347.17 156.31 352.63 156.31 352.63 142.91 320.15 142.91 320.15 148.38"/><rect class="cls-2" x="524.84" y="110.84" width="6.82" height="8.21"/><polygon class="cls-2" points="602.56 94.23 588.37 94.23 585.02 90.81 585.02 84.11 588.57 80.49 599.01 80.49 603.11 84.73 603.11 90.74 608.77 90.74 608.77 82.13 601.67 74.61 585.84 74.61 578.74 82.13 578.74 92.79 585.7 100.11 599.9 100.11 603.17 103.46 603.17 109.55 599.69 113.17 587.89 113.17 583.73 108.93 583.73 102.91 578.06 102.91 578.06 111.53 585.16 119.05 602.35 119.05 609.45 111.53 609.45 101.48 602.56 94.23"/><polygon class="cls-2" points="525.52 74.61 511.06 74.61 511.06 80.08 515.5 80.08 503.42 113.65 491.41 80.08 495.85 80.08 495.85 74.61 481.38 74.61 481.38 80.08 485.13 80.08 499.12 119.05 507.78 119.05 521.77 80.08 525.52 80.08 525.52 74.61"/><polygon class="cls-2" points="556.77 80.08 561.55 80.08 561.55 109.55 558 113.17 550.29 113.17 546 108.72 546 99.49 540.54 99.49 540.54 111.53 547.63 119.05 560.73 119.05 567.83 111.53 567.83 80.08 571.92 80.08 571.92 74.61 556.77 74.61 556.77 80.08"/><polygon class="cls-2" points="384.69 164.65 396.36 148.38 400.32 148.38 400.32 142.91 385.86 142.91 385.86 148.38 389.33 148.38 379.24 162.39 373.23 162.39 373.23 148.38 378.01 148.38 378.01 142.91 362.18 142.91 362.18 148.38 366.95 148.38 366.95 181.88 362.18 181.88 362.18 187.35 378.01 187.35 378.01 181.88 373.23 181.88 373.23 167.86 379.99 167.86 390.02 181.88 386.54 181.88 386.54 187.35 401 187.35 401 181.88 397.04 181.88 384.69 164.65"/><polygon class="cls-2" points="461.8 148.38 465.89 148.38 456.88 167.31 447.94 148.38 452.04 148.38 452.04 142.91 437.57 142.91 437.57 148.38 441.94 148.38 453.81 173.4 453.81 181.88 447.67 181.88 447.67 187.35 466.23 187.35 466.23 181.88 460.09 181.88 460.09 173.26 471.89 148.38 476.26 148.38 476.26 142.91 461.8 142.91 461.8 148.38"/><polygon class="cls-2" points="386.81 105.65 381.35 105.65 381.35 113.58 365.38 113.58 365.38 99.56 381.35 99.56 381.35 94.09 365.38 94.09 365.38 80.08 381.35 80.08 381.35 88.01 386.81 88.01 386.81 74.61 354.33 74.61 354.33 80.08 359.11 80.08 359.11 113.58 354.33 113.58 354.33 119.05 386.81 119.05 386.81 105.65"/><polygon class="cls-2" points="433.75 181.88 418.88 181.88 418.88 148.38 424.34 148.38 424.34 142.91 407.82 142.91 407.82 148.38 412.6 148.38 412.6 181.88 407.82 181.88 407.82 187.35 438.94 187.35 438.94 173.95 433.75 173.95 433.75 181.88"/></g></g></g></svg>