<svg xmlns="http://www.w3.org/2000/svg" viewBox="0 0 623.62 255.12"><defs><style>.cls-1{fill:#fff;}.cls-2{fill:#fcf302;}.cls-3{fill:#31312f;}.cls-4{fill:#e6cc00;}</style></defs><g id="BG"><rect class="cls-1" width="623.62" height="255.12"/></g><g id="Logo"><path class="cls-2" d="M150.23,215.39h-130V14.18H221.71V215.43H179.12v25.51Zm50.46-97.8a18.09,18.09,0,0,0-10-11.65c-6.26-3.15-12.92-3.66-19.88-3-10.18.91-19.71,8-21.91,18.31-2.32,10.9,1.06,19.46,11.34,26.06,5,3.2,10.49,5.62,15.64,8.6a54.84,54.84,0,0,1,8.91,6.06A10.39,10.39,0,0,1,188,174a11.84,11.84,0,0,1-10.28,8.34c-9.67,1.34-15.2-1.71-20.69-11.62l-11,5c1.82,9.17,6.8,15,14.92,18.12a36,36,0,0,0,25.61.25c10.63-3.72,15.91-11.7,17.06-22.49,1-9.68-2.41-17.6-10.92-22.77-5.07-3.08-10.52-5.56-15.63-8.59A75.63,75.63,0,0,1,166.69,133c-3.28-2.8-3.44-6.82-2.2-10.62s4.34-6,8.5-6.75c7.14-1.26,12.4,1.68,16.77,7.43ZM75.24,189.51c9.53,6.33,19.51,7.15,29.69,4.63a37.74,37.74,0,0,0,28.81-36.76c.15-16.35,0-32.71,0-49.07a34.27,34.27,0,0,0-.38-3.48H118.83v6.34c0,15.3.17,30.59-.06,45.88-.2,12.89-8.69,22.15-21.54,23.33-4.08.38-8.3-.85-13-1.41Zm-3.41-64.2H57.47v16c5.05-.17,9.66,1,14.36-1Zm-1,21.62H57.42v17.46l15.34-4.23C72,155.37,71.44,151.28,70.79,146.93ZM59.52,170.36c2.48,6.22,5.36,11.71,9.39,14.29l11.17-8.5-6.3-9.07A24.5,24.5,0,0,0,59.52,170.36Zm33.12-66.77H77.91v14.33H92.64Zm5.76-.13v14.47h14.5V103.46Zm-26.63,1.31H57.35v14.47H71.77Zm31.33,51.9c-6.08,5.94-8.7,5.93-15,0l-5.83,2c2.78,6.5,7.17,9.89,13.94,9.59,6.34-.28,10.57-3.51,12.86-9.82ZM92.44,138.73c-.18-3-3.5-6-6.48-5.83a6.63,6.63,0,0,0-5.83,6.49,6.16,6.16,0,0,0,12.31-.66Zm12.25-5.83a6.64,6.64,0,0,0-6.42,5.88,6.16,6.16,0,0,0,12.3.56A6.63,6.63,0,0,0,104.69,132.9Z"/><path class="cls-3" d="M249.89,194.34V104.66h14.26l41.3,59.81,1-.4V104.74h14.24v89.6H307.12c-13.68-19.61-27.83-39.91-42.89-61.52v61.52Z"/><path class="cls-3" d="M505.4,195.05c-19.27,0-31.27-12.11-31.24-31.55,0-20.19,12.38-32.49,32.62-32.5,19.47,0,30.73,11.62,30.78,31.78C537.6,182.55,525.15,195.05,505.4,195.05Zm18-32.14a93.39,93.39,0,0,0-1.69-9.47c-2-6.86-6.71-10.78-13.81-11.35-6.83-.55-12.76,1.48-16.22,7.86a26.74,26.74,0,0,0-.45,25.69c3.3,6.65,9.53,9,16.56,8.52s12-4.32,13.89-11.25A94.46,94.46,0,0,0,523.42,162.91Z"/><path class="cls-3" d="M338.85,148.36V136.7c11-6.1,22.67-8,34.68-3.46,7.57,2.83,10.77,9.56,10.93,17.26.3,14.18.08,28.37.08,42.92h-13c-.29-2.36-.58-4.75-1.07-8.82-2.18,2.67-3.3,4.51-4.84,5.86-6.5,5.7-18.84,6.35-25.65,1.52-10.6-7.51-9.61-25.87,2.34-31.45,6.16-2.89,13.44-3.43,20.25-4.93,2.66-.58,5.38-.89,8-1.31.07-9.28-3.28-12.58-12-12.89C351.4,141.15,345.43,144.17,338.85,148.36Zm31.56,15.51c-2.88.31-5.81.57-8.73,1a68.46,68.46,0,0,0-7.55,1.31c-6,1.53-8.53,5.05-7.9,10.53.58,5,4.52,8,10.56,7.93C366.79,184.51,372.88,175.42,370.41,163.87Z"/><path class="cls-3" d="M562.48,193.54h-13.8v-60.9h13.55c.13,2.7.27,5.4.44,8.88,1.42-1.45,2.5-2.52,3.53-3.62,6.34-6.83,14.35-8.14,22.9-6.22a15.92,15.92,0,0,1,12,11.3,38.59,38.59,0,0,1,2.18,10.53c.26,13.15.1,26.32.1,39.87H589.68c-.11-1.48-.32-3.1-.32-4.72,0-9.78,0-19.57-.05-29.35a42.72,42.72,0,0,0-.79-7.56c-.86-4.4-2.8-8.12-7.66-9.18-5.33-1.17-10.18-.33-14,4-3.27,3.71-4.42,8.12-4.4,13,0,9.14,0,18.29,0,27.43Z"/><path class="cls-3" d="M420.43,143.06c0,11.55-.16,21.94.06,32.32.14,6.81,3.63,9.41,10.46,8.43,1.25-.18,2.47-.54,4-.88.08,1.78.22,3.44.21,5.09s-.18,3.35-.27,5c-5.21,2.71-10.57,2.53-15.8,1.68-8.17-1.32-12.48-6.72-12.7-15.83-.23-9.55-.06-19.12-.06-28.68v-6.51l-10-.55V132.48H406v-14.2l14.5-4.11v18h14.21v10.88Z"/><path class="cls-3" d="M462.35,193.59H449v-61h13.37Z"/><path class="cls-3" d="M464.13,111.31c.13,4.34-3.31,7.89-8,8.21a8.3,8.3,0,0,1-8.8-8c.06-4.12,4.12-8,8.35-8A8.45,8.45,0,0,1,464.13,111.31Z"/><path class="cls-3" d="M200.69,117.59l-10.93,5.5c-4.37-5.75-9.63-8.69-16.77-7.43-4.16.74-7.21,2.82-8.5,6.75s-1.08,7.82,2.2,10.62a75.63,75.63,0,0,0,10.38,7.25c5.11,3,10.56,5.51,15.63,8.59,8.51,5.17,12,13.09,10.92,22.77-1.15,10.79-6.43,18.77-17.06,22.49a36,36,0,0,1-25.61-.25c-8.12-3.13-13.1-8.95-14.92-18.12l11-5c5.49,9.91,11,13,20.69,11.62A11.84,11.84,0,0,0,188,174a10.39,10.39,0,0,0-3.16-12.1,54.84,54.84,0,0,0-8.91-6.06c-5.15-3-10.64-5.4-15.64-8.6-10.28-6.6-13.66-15.16-11.34-26.06,2.2-10.35,11.73-17.4,21.91-18.31,7-.62,13.62-.11,19.88,3A18.09,18.09,0,0,1,200.69,117.59Z"/><path class="cls-3" d="M75.24,189.51l9-10.54c4.7.56,8.92,1.79,13,1.41,12.85-1.18,21.34-10.44,21.54-23.33.23-15.29.06-30.58.06-45.88v-6.34h14.56a34.27,34.27,0,0,1,.38,3.48c0,16.36.12,32.72,0,49.07a37.74,37.74,0,0,1-28.81,36.76C94.75,196.66,84.77,195.84,75.24,189.51Z"/><path class="cls-4" d="M71.83,125.31v15c-4.7,2.05-9.31.86-14.36,1v-16Z"/><path class="cls-4" d="M70.79,146.93c.65,4.35,1.25,8.44,2,13.23l-15.34,4.23V146.93Z"/><path class="cls-4" d="M59.52,170.36a24.5,24.5,0,0,1,14.26-3.28l6.3,9.07-11.17,8.5C64.88,182.07,62,176.58,59.52,170.36Z"/><path class="cls-4" d="M92.64,103.59v14.33H77.91V103.59Z"/><path class="cls-4" d="M98.4,103.46h14.5v14.47H98.4Z"/><path class="cls-4" d="M71.77,104.77v14.47H57.35V104.77Z"/><path class="cls-3" d="M103.1,156.67l6,1.77c-2.29,6.31-6.52,9.54-12.86,9.82-6.77.3-11.16-3.09-13.94-9.59l5.83-2C94.4,162.6,97,162.61,103.1,156.67Z"/><path class="cls-3" d="M92.44,138.73a6.16,6.16,0,0,1-12.31.66A6.63,6.63,0,0,1,86,132.9C88.94,132.69,92.26,135.68,92.44,138.73Z"/><path class="cls-3" d="M104.69,132.9a6.63,6.63,0,0,1,5.88,6.44,6.16,6.16,0,0,1-12.3-.56A6.64,6.64,0,0,1,104.69,132.9Z"/></g></svg>