<svg xmlns="http://www.w3.org/2000/svg" viewBox="0 0 623.62 255.12"><defs><style>.cls-1{fill:#fff;}.cls-2{fill:#0068a5;}.cls-3{fill:#231f20;}</style></defs><title>manning</title><g id="BG"><rect class="cls-1" width="623.62" height="255.12"/></g><g id="Logo"><polygon class="cls-2" points="13.62 156.81 24.46 98.36 57.9 98.31 58.16 134.28 64.19 98.39 97.46 98.39 97.46 156.81 66.08 156.81 65.5 107.56 57.78 156.81 26.46 156.81 26.46 105.2 16.22 156.81 13.62 156.81"/><path class="cls-3" d="M121,113.45c.11-.59.31-.89.59-.89s.48.17.92,1.06l9.35,19.31,9.31-19.55c.24-.55.45-.82.75-.82s.52.34.62,1.06l3.12,21.16c.31,2.15.65,3.15,1.67,3.45a6.91,6.91,0,0,0,2.13.35c.31,0,.55,0,.55.24s-.42.37-.9.37c-.85,0-5.58-.1-7-.2-.78-.07-1-.17-1-.38s.14-.27.38-.38.31-.51.17-1.47l-2.06-15.06h-.13l-7.47,15.54c-.78,1.61-.95,1.92-1.26,1.92s-.65-.69-1.2-1.71c-.82-1.58-3.53-6.82-3.94-7.78-.31-.71-2.36-5-3.56-7.6H122l-1.78,13.63a13.23,13.23,0,0,0-.1,1.61c0,.65.45,1,1,1.1a7,7,0,0,0,1.44.17c.27,0,.51.07.51.24s-.31.37-.82.37c-1.44,0-3-.1-3.6-.1s-2.29.1-3.39.1c-.34,0-.61-.06-.61-.37s.2-.24.54-.24a4.1,4.1,0,0,0,1-.11c1-.2,1.23-1.54,1.41-2.7Z"/><path class="cls-3" d="M157.15,130.26c-.17,0-.24.07-.3.27l-1.85,4.9a6.68,6.68,0,0,0-.52,2.09c0,.61.31,1.06,1.37,1.06h.52c.41,0,.51.07.51.27s-.2.34-.58.34c-1.1,0-2.57-.1-3.63-.1-.38,0-2.26.1-4,.1-.45,0-.65-.06-.65-.34s.14-.27.41-.27.79,0,1.06-.07c1.58-.21,2.23-1.37,2.91-3.08l8.6-21.5c.41-1,.61-1.37.95-1.37s.52.3.86,1.09c.82,1.88,6.3,15.85,8.49,21.06,1.3,3.08,2.3,3.56,3,3.73a7.84,7.84,0,0,0,1.44.14c.28,0,.45,0,.45.27s-.31.34-1.58.34-3.73,0-6.47-.06c-.62,0-1,0-1-.28s.14-.27.48-.31a.55.55,0,0,0,.31-.78l-2.74-7.26a.33.33,0,0,0-.34-.24Zm7-1.71c.17,0,.2-.11.17-.21l-3.08-8.46c0-.13-.07-.31-.17-.31s-.17.18-.21.31l-3.15,8.43c0,.13,0,.24.14.24Z"/><path class="cls-3" d="M181.67,134.54c.07,2.67.51,3.56,1.2,3.8a5.57,5.57,0,0,0,1.78.24c.38,0,.58.07.58.27s-.31.34-.79.34c-2.22,0-3.59-.1-4.24-.1-.31,0-1.92.1-3.7.1-.44,0-.75,0-.75-.34s.2-.27.55-.27a6.43,6.43,0,0,0,1.54-.17c.89-.28,1-1.27,1.06-4.25l.31-20.27c0-.68.1-1.16.44-1.16s.69.44,1.27,1.06c.41.44,5.61,6,10.61,11,2.33,2.33,6.95,7.26,7.53,7.8h.18l-.35-15.37c0-2.09-.34-2.74-1.16-3.08a5.75,5.75,0,0,0-1.82-.2c-.41,0-.54-.11-.54-.31s.37-.31.89-.31c1.78,0,3.42.1,4.14.1.38,0,1.68-.1,3.36-.1.44,0,.78,0,.78.31s-.2.31-.61.31a3.82,3.82,0,0,0-1,.1c-1,.27-1.23,1-1.27,2.91l-.37,21.6c0,.76-.14,1.06-.45,1.06s-.79-.37-1.16-.75c-2.16-2-6.54-6.54-10.1-10.07-3.74-3.69-7.54-8-8.15-8.62h-.11Z"/><path class="cls-3" d="M214.1,134.54c.06,2.67.51,3.56,1.2,3.8a5.57,5.57,0,0,0,1.78.24c.37,0,.58.07.58.27s-.31.34-.79.34c-2.23,0-3.6-.1-4.25-.1-.3,0-1.91.1-3.69.1-.45,0-.76,0-.76-.34s.21-.27.55-.27a6.38,6.38,0,0,0,1.54-.17c.89-.28,1-1.27,1.06-4.25l.31-20.27c0-.68.1-1.16.45-1.16s.68.44,1.26,1.06c.41.44,5.62,6,10.62,11,2.33,2.33,6.95,7.26,7.53,7.8h.17l-.34-15.37c0-2.09-.34-2.74-1.17-3.08a5.69,5.69,0,0,0-1.81-.2c-.41,0-.55-.11-.55-.31s.38-.31.89-.31c1.78,0,3.43.1,4.15.1.37,0,1.67-.1,3.35-.1.45,0,.79,0,.79.31s-.21.31-.62.31a3.78,3.78,0,0,0-1,.1c-1,.27-1.24,1-1.27,2.91l-.38,21.6c0,.76-.14,1.06-.44,1.06s-.79-.37-1.17-.75c-2.16-2-6.54-6.54-10.1-10.07-3.73-3.69-7.53-8-8.15-8.62h-.1Z"/><path class="cls-3" d="M244.6,123.24c0-5.21,0-6.17-.06-7.26s-.41-1.75-1.17-1.92a4.94,4.94,0,0,0-1.23-.13c-.34,0-.55-.07-.55-.35s.28-.27.82-.27c1.3,0,3.46.1,4.45.1s2.88-.1,4.18-.1c.45,0,.72.07.72.27s-.2.35-.55.35a5.57,5.57,0,0,0-1,.1c-.93.17-1.2.75-1.27,2s-.07,2-.07,7.26v6c0,3.32,0,6,.14,7.5.1.93.34,1.54,1.37,1.68a14.08,14.08,0,0,0,1.74.14c.38,0,.55.1.55.27s-.27.34-.65.34c-2.26,0-4.42-.1-5.34-.1s-2.95.1-4.32.1c-.44,0-.68-.1-.68-.34s.14-.27.55-.27a5.49,5.49,0,0,0,1.23-.14c.69-.14.89-.72,1-1.71.17-1.44.17-4.15.17-7.47Z"/><path class="cls-3" d="M262,134.54c.07,2.67.51,3.56,1.2,3.8a5.57,5.57,0,0,0,1.78.24c.37,0,.58.07.58.27s-.31.34-.79.34c-2.22,0-3.59-.1-4.24-.1-.31,0-1.92.1-3.7.1-.45,0-.75,0-.75-.34s.2-.27.54-.27a6.38,6.38,0,0,0,1.54-.17c.89-.28,1-1.27,1.07-4.25l.3-20.27c0-.68.11-1.16.45-1.16s.68.44,1.27,1.06c.41.44,5.61,6,10.61,11,2.33,2.33,6.95,7.26,7.53,7.8h.17l-.34-15.37c0-2.09-.34-2.74-1.16-3.08a5.78,5.78,0,0,0-1.82-.2c-.41,0-.55-.11-.55-.31s.38-.31.89-.31c1.78,0,3.43.1,4.15.1.37,0,1.68-.1,3.35-.1.45,0,.79,0,.79.31s-.2.31-.62.31a3.78,3.78,0,0,0-1,.1c-1,.27-1.24,1-1.27,2.91l-.38,21.6c0,.76-.13,1.06-.44,1.06s-.79-.37-1.17-.75c-2.15-2-6.54-6.54-10.1-10.07-3.73-3.69-7.53-8-8.14-8.62h-.11Z"/><path class="cls-3" d="M313.12,136.9c0,.92,0,1-.44,1.23-2.23,1.17-5.58,1.54-8.25,1.54-8.39,0-15.82-4-15.82-13.42a12.81,12.81,0,0,1,6-11.2,16.61,16.61,0,0,1,9.21-2.22,40.8,40.8,0,0,1,6.06.55,22.82,22.82,0,0,0,2.7.37c.41,0,.48.18.48.41a46.33,46.33,0,0,0-.24,5.62c0,.55-.1.72-.38.72s-.3-.17-.34-.45a4.8,4.8,0,0,0-1.16-2.84,11,11,0,0,0-7.64-2.67,9.9,9.9,0,0,0-6.78,2.12c-1.91,1.61-3.15,4.18-3.15,8.39,0,7.36,4.69,12.88,11.92,12.88a7.51,7.51,0,0,0,2.91-.38,1.23,1.23,0,0,0,.65-1.27v-3.22c0-1.71,0-3,0-4s-.34-1.71-1.47-2A6.86,6.86,0,0,0,306,127c-.31,0-.52-.07-.52-.27s.24-.35.72-.35c1.78,0,3.94.11,5,.11s2.87-.11,4-.11c.45,0,.69.07.69.35s-.21.27-.45.27a5.18,5.18,0,0,0-.92.1c-.93.17-1.27.76-1.3,2,0,1,0,2.4,0,4.11Z"/><path class="cls-3" d="M333,123.24c0-5.21,0-6.17-.07-7.26s-.34-1.71-1.47-2a7,7,0,0,0-1.34-.1c-.37,0-.58-.07-.58-.31s.24-.31.75-.31c1.82,0,4,.1,4.93.1,1.41,0,3.39-.1,5-.1,4.28,0,5.82,1.44,6.37,2a6,6,0,0,1,1.71,4.07,8.05,8.05,0,0,1-8.42,8.29,5.7,5.7,0,0,1-.72,0c-.17,0-.41-.07-.41-.31s.24-.38.95-.38c1.92,0,4.59-2.16,4.59-5.65a6.57,6.57,0,0,0-2-5.13,5.08,5.08,0,0,0-3.42-1.34,4.62,4.62,0,0,0-1.34.14c-.17.07-.27.27-.27.65v13.69c0,3.15,0,5.86.17,7.33.1,1,.31,1.71,1.34,1.85a13.93,13.93,0,0,0,1.74.14c.38,0,.55.1.55.27s-.27.34-.65.34c-2.26,0-4.42-.1-5.31-.1s-2.94.1-4.31.1c-.45,0-.69-.1-.69-.34s.14-.27.55-.27a5.34,5.34,0,0,0,1.23-.14c.69-.14.86-.89,1-1.88.17-1.44.17-4.15.17-7.3Z"/><path class="cls-3" d="M353.9,123.24c0-5.21,0-6.17-.06-7.26s-.35-1.71-1.48-2a6.86,6.86,0,0,0-1.33-.1c-.38,0-.59-.07-.59-.31s.25-.31.76-.31c1.81,0,4,.1,5,.1.82,0,3-.1,4.21-.1.51,0,.75.07.75.31s-.2.31-.55.31a5,5,0,0,0-1,.1c-.92.17-1.2.75-1.27,2s-.06,2-.06,7.26V128c0,5,1,7.05,2.67,8.42a6.32,6.32,0,0,0,4.28,1.41A6.7,6.7,0,0,0,370,136c1.89-1.88,2-5,2-8.49v-4.28c0-5.21,0-6.17-.07-7.26s-.34-1.71-1.47-2a6.62,6.62,0,0,0-1.24-.1c-.37,0-.58-.07-.58-.31s.24-.31.72-.31c1.75,0,3.9.1,3.94.1.41,0,2.57-.1,3.9-.1.48,0,.72.07.72.31s-.2.31-.62.31a5,5,0,0,0-1,.1c-.92.17-1.2.75-1.27,2s-.06,2-.06,7.26v3.66c0,3.8-.38,7.84-3.26,10.31a10.19,10.19,0,0,1-7.12,2.46c-1.81,0-5.1-.1-7.6-2.36-1.75-1.57-3.05-4.11-3.05-9.07Z"/><path class="cls-3" d="M384.55,123.24c0-5.21,0-6.17-.07-7.26s-.34-1.71-1.47-2a7,7,0,0,0-1.34-.1c-.38,0-.58-.07-.58-.31s.24-.31.75-.31c1.82,0,4,.1,4.66.1,1.68,0,3-.1,4.18-.1,6.19,0,7.29,3.32,7.29,5.13,0,2.81-1.61,4.49-3.49,6,2.8,1,6.23,3.39,6.23,7.39,0,3.67-2.84,7.47-9.14,7.47-.82,0-3.94-.21-5-.21-.78,0-2.94.1-4.31.1-.45,0-.69-.1-.69-.34s.14-.27.55-.27a5.34,5.34,0,0,0,1.23-.14c.69-.14.86-.89,1-1.88.17-1.44.17-4.15.17-7.3Zm4.11.58c0,.27.1.34.24.38a8.23,8.23,0,0,0,1.61.1,3.48,3.48,0,0,0,2.46-.65,4.46,4.46,0,0,0,1.4-3.63c0-2.3-1.33-5.31-4.27-5.31a5.41,5.41,0,0,0-1.13.07c-.25.07-.31.21-.31.58Zm4.52,2.74a5,5,0,0,0-2.85-.82c-.61,0-.95,0-1.47,0-.14,0-.2.07-.2.24v8.12c0,2.26.1,2.84,1.19,3.28a6.16,6.16,0,0,0,2.5.42c1.55,0,4.15-.83,4.15-4.39A8.15,8.15,0,0,0,393.18,126.56Z"/><path class="cls-3" d="M413,129.26c0,4.39,0,6.75.72,7.37s1.47.75,4.14.75c1.81,0,3.15,0,4-1a4.19,4.19,0,0,0,.89-2c0-.31.11-.52.38-.52s.27.17.27.58a27.4,27.4,0,0,1-.51,3.94c-.2.76-.38.93-2.16.93-4.93,0-7.19-.21-10-.21-.79,0-2.94.1-4.31.1-.45,0-.69-.1-.69-.34s.14-.27.55-.27a5.49,5.49,0,0,0,1.23-.14c.69-.14.86-.89,1-1.88.18-1.44.18-4.15.18-7.3v-6c0-5.21,0-6.17-.07-7.26s-.35-1.71-1.47-2a5.08,5.08,0,0,0-1.13-.1c-.38,0-.59-.07-.59-.31s.24-.31.76-.31c1.61,0,3.76.1,4.69.1s3.32-.1,4.65-.1c.48,0,.72.07.72.31s-.2.31-.61.31a8.92,8.92,0,0,0-1.34.1c-.92.17-1.2.75-1.27,2s-.06,2-.06,7.26Z"/><path class="cls-3" d="M429.47,123.24c0-5.21,0-6.17-.07-7.26s-.41-1.75-1.16-1.92a5,5,0,0,0-1.23-.13c-.35,0-.55-.07-.55-.35s.27-.27.82-.27c1.3,0,3.46.1,4.45.1s2.88-.1,4.18-.1c.44,0,.72.07.72.27s-.21.35-.55.35a5.67,5.67,0,0,0-1,.1c-.92.17-1.2.75-1.26,2s-.07,2-.07,7.26v6c0,3.32,0,6,.13,7.5.11.93.35,1.54,1.37,1.68a14.25,14.25,0,0,0,1.75.14c.38,0,.55.1.55.27s-.28.34-.65.34c-2.26,0-4.42-.1-5.34-.1s-2.95.1-4.32.1c-.44,0-.68-.1-.68-.34s.13-.27.54-.27a5.51,5.51,0,0,0,1.24-.14c.68-.14.89-.72,1-1.71.17-1.44.17-4.15.17-7.47Z"/><path class="cls-3" d="M445.13,135.94a13.55,13.55,0,0,1-.24-19.48c2.46-2.26,5.72-3.63,10.82-3.63a34.56,34.56,0,0,1,5,.34c1.3.17,2.4.48,3.43.58.37,0,.51.21.51.41s-.1.69-.17,1.89,0,3-.1,3.7c0,.51-.11.78-.42.78s-.34-.27-.34-.75a4.89,4.89,0,0,0-1.33-3.15c-1.13-1.2-3.8-2.12-6.95-2.12-3,0-4.93.75-6.44,2.12-2.5,2.29-3.15,5.55-3.15,8.87,0,8.15,6.2,12.19,10.78,12.19,3.05,0,4.9-.35,6.27-1.92a5.61,5.61,0,0,0,1.16-2.26c.11-.55.18-.69.45-.69s.31.24.31.52a31.51,31.51,0,0,1-.76,4.55,1.21,1.21,0,0,1-.88,1,20.15,20.15,0,0,1-6.17.78C452.18,139.67,448.24,138.65,445.13,135.94Z"/><path class="cls-3" d="M474.4,130.26c-.18,0-.24.07-.31.27l-1.85,4.9a6.68,6.68,0,0,0-.52,2.09c0,.61.31,1.06,1.37,1.06h.52c.41,0,.51.07.51.27s-.2.34-.58.34c-1.1,0-2.57-.1-3.63-.1-.38,0-2.26.1-4,.1-.45,0-.65-.06-.65-.34s.14-.27.41-.27.79,0,1.06-.07c1.58-.21,2.23-1.37,2.91-3.08l8.59-21.5c.42-1,.62-1.37,1-1.37s.52.3.86,1.09c.82,1.88,6.3,15.85,8.49,21.06,1.3,3.08,2.3,3.56,3,3.73a7.84,7.84,0,0,0,1.44.14c.28,0,.45,0,.45.27s-.31.34-1.58.34-3.73,0-6.47-.06c-.61,0-1,0-1-.28s.14-.27.48-.31a.55.55,0,0,0,.31-.78l-2.74-7.26a.33.33,0,0,0-.34-.24Zm7-1.71c.17,0,.21-.11.17-.21l-3.08-8.46c0-.13-.07-.31-.17-.31s-.17.18-.21.31l-3.15,8.43c0,.13,0,.24.14.24Z"/><path class="cls-3" d="M499.32,115.23l-5.1.13c-2,.07-2.81.24-3.32,1a4.12,4.12,0,0,0-.58,1.19c-.07.28-.17.42-.38.42s-.31-.18-.31-.55c0-.55.65-3.67.72-3.94.11-.45.21-.65.41-.65a8.3,8.3,0,0,0,1.48.41c1,.1,2.29.17,3.42.17h13.56a15.18,15.18,0,0,0,3.29-.34c.24,0,.27.2.27.72,0,.72-.1,3.08-.1,4,0,.34-.11.55-.31.55s-.34-.17-.38-.69l0-.37c-.07-.89-1-1.85-4-1.92l-4.32-.1v14c0,3.15,0,5.86.18,7.33.1,1,.3,1.71,1.33,1.85a14.09,14.09,0,0,0,1.75.14c.37,0,.54.1.54.27s-.27.34-.65.34c-2.26,0-4.41-.1-5.37-.1-.79,0-2.95.1-4.32.1-.44,0-.68-.1-.68-.34s.14-.27.55-.27a5.49,5.49,0,0,0,1.23-.14c.68-.14.89-.89,1-1.88.17-1.44.17-4.15.17-7.3Z"/><path class="cls-3" d="M519.08,123.24c0-5.21,0-6.17-.07-7.26s-.41-1.75-1.16-1.92a5,5,0,0,0-1.23-.13c-.35,0-.55-.07-.55-.35s.27-.27.82-.27c1.3,0,3.46.1,4.45.1s2.88-.1,4.18-.1c.44,0,.72.07.72.27s-.21.35-.55.35a5.67,5.67,0,0,0-1,.1c-.92.17-1.2.75-1.27,2s-.06,2-.06,7.26v6c0,3.32,0,6,.13,7.5.11.93.35,1.54,1.37,1.68a14.25,14.25,0,0,0,1.75.14c.38,0,.55.1.55.27s-.28.34-.65.34c-2.26,0-4.42-.1-5.35-.1s-2.94.1-4.31.1c-.44,0-.68-.1-.68-.34s.13-.27.54-.27a5.51,5.51,0,0,0,1.24-.14c.68-.14.89-.72,1-1.71.17-1.44.17-4.15.17-7.47Z"/><path class="cls-3" d="M530.49,126.25c0-5.85,3.87-13.42,14.14-13.42,8.53,0,13.83,5,13.83,12.81s-5.47,14-14.17,14C534.46,139.67,530.49,132.31,530.49,126.25Zm23.18.65c0-7.67-4.42-12.43-10-12.43-3.94,0-8.42,2.19-8.42,10.72,0,7.12,3.93,12.77,10.51,12.77C548.12,138,553.67,136.8,553.67,126.9Z"/><path class="cls-3" d="M567.71,134.54c.07,2.67.52,3.56,1.2,3.8a5.57,5.57,0,0,0,1.78.24c.38,0,.58.07.58.27s-.3.34-.78.34c-2.23,0-3.6-.1-4.25-.1-.31,0-1.92.1-3.7.1-.44,0-.75,0-.75-.34s.21-.27.55-.27a6.43,6.43,0,0,0,1.54-.17c.89-.28,1-1.27,1.06-4.25l.31-20.27c0-.68.1-1.16.44-1.16s.69.44,1.27,1.06c.41.44,5.62,6,10.61,11,2.33,2.33,6.95,7.26,7.54,7.8h.17l-.34-15.37c0-2.09-.35-2.74-1.17-3.08a5.69,5.69,0,0,0-1.81-.2c-.41,0-.55-.11-.55-.31s.38-.31.89-.31c1.78,0,3.42.1,4.14.1.38,0,1.68-.1,3.36-.1.44,0,.78,0,.78.31s-.2.31-.61.31a3.85,3.85,0,0,0-1,.1c-1,.27-1.23,1-1.27,2.91l-.37,21.6c0,.76-.14,1.06-.45,1.06s-.78-.37-1.16-.75c-2.16-2-6.54-6.54-10.1-10.07-3.73-3.69-7.53-8-8.15-8.62h-.1Z"/><path class="cls-3" d="M596.34,138.78c-.55-.24-.65-.41-.65-1.16,0-1.88.14-3.94.17-4.49s.14-.89.41-.89.34.31.34.58a7.27,7.27,0,0,0,.31,1.75,4.72,4.72,0,0,0,4.9,3.46c3.08,0,4.59-2.09,4.59-3.9s-.52-3.29-3.36-5.48l-1.58-1.23c-3.76-3-5.06-5.35-5.06-8.12,0-3.77,3.15-6.47,7.91-6.47a16.58,16.58,0,0,1,4.55.58c.31.07.48.17.48.41,0,.45-.14,1.44-.14,4.11,0,.75-.1,1-.37,1s-.35-.21-.35-.62a4.13,4.13,0,0,0-.89-2.26,4.32,4.32,0,0,0-3.73-1.68c-2.53,0-4.07,1.48-4.07,3.53,0,1.58.78,2.77,3.63,4.93l1,.72c4.11,3.18,5.62,5.48,5.62,8.73a6.89,6.89,0,0,1-3.22,6,9.93,9.93,0,0,1-5.44,1.4A11.86,11.86,0,0,1,596.34,138.78Z"/></g></svg>