<svg xmlns="http://www.w3.org/2000/svg" viewBox="0 0 623.62 255.12"><defs><style>.cls-1{fill:#fff;}.cls-2{fill:#065da9;}.cls-3{fill:#5887c0;}.cls-4{fill:#8eaed4;}</style></defs><title>mfem</title><g id="BG"><rect class="cls-1" width="623.62" height="255.12"/></g><g id="Logo"><g id="Logotipo"><path class="cls-2" d="M305.24,42.46l5.47-27.25h15.08v66H315.23V49.72c0-7.17.29-13.48.66-20.65-1,7.17-2.07,13.3-3.39,20.55L306,81.2h-8.48L291,49.62c-1.32-7.25-2.36-13.38-3.4-20.55.38,7.17.66,13.48.66,20.65V81.21h-9.05v-66h15.17l5.47,27.25A169.18,169.18,0,0,1,302.52,60C303.08,54.24,304.21,47.83,305.24,42.46Z"/><path class="cls-2" d="M334.1,15.21h10.84v66H334.1Z"/><path class="cls-2" d="M353.05,15.21h10.84V71.78h13.95v9.43H353.05Z"/><path class="cls-2" d="M402.73,71.5H390.1l-1.6,9.71h-9.9l11.41-66h13.86l11.4,66H404.43Zm-11.12-9h9.61l-1.88-11.6c-.94-6-2.08-13.67-2.93-22.92-.84,9.24-2,16.88-2.92,22.92Z"/><path class="cls-2" d="M454.87,15.21v66H442.14L432.43,46.7c-1.13-4.33-2.55-10.56-3.68-15.08.29,4.52.66,11,.66,15.27V81.21h-9.14v-66H434.5l8.31,28.95c1.13,4.52,2.54,10.56,3.58,15.18-.18-4.62-.57-11-.57-15.28V15.21Z"/><path class="cls-2" d="M461.94,31.62c0-12.07,5.84-17.44,16.4-17.44s16.5,5.37,16.5,17.44V64.8c0,12.07-5.94,17.45-16.5,17.45s-16.4-5.38-16.4-17.45Zm16.4,41.2c4,0,5.66-2.17,5.66-6.5V30.11c0-4.33-1.7-6.5-5.66-6.5s-5.56,2.17-5.56,6.5v36.2c0,4.34,1.6,6.51,5.56,6.51Z"/><path class="cls-3" d="M290.16,160.25H279.32v-66h24.8v9.43H290.17v18.77h12.07V132H290.17Z"/><path class="cls-3" d="M319.86,132.24v28H309v-66h16.12c8.48,0,16.4,1.7,16.4,15.27v4.91c0,8.1-3.11,11.59-7.35,13.1,4.33,1.7,7.35,5.37,7.35,13.67v2c0,12,1,14.14,2.55,17.06H332.4c-.66-2-1.7-5.28-1.7-13.48v-4.91c0-7.54-2-9.62-8.2-9.62Zm4.33-9.52c4.81,0,6.5-1.51,6.5-6.31v-6.32c0-4.81-1.7-6.41-6.5-6.41h-4.33v19Z"/><path class="cls-3" d="M348,110.66c0-12.07,5.84-17.45,16.4-17.45s16.49,5.38,16.49,17.45v33.18c0,12.07-5.94,17.44-16.5,17.44S348,155.91,348,143.84Zm16.4,41.2c4,0,5.66-2.17,5.66-6.5V109.15c0-4.33-1.7-6.5-5.66-6.5s-5.56,2.17-5.56,6.5v36.2c0,4.34,1.6,6.5,5.56,6.5Z"/><path class="cls-3" d="M422.44,94.25v66H409.71L400,125.74c-1.13-4.33-2.55-10.56-3.68-15.08.28,4.52.66,11,.66,15.27v34.32h-9.15v-66h14.24l8.3,28.94c1.13,4.53,2.55,10.56,3.58,15.18-.18-4.62-.56-11-.56-15.27V94.25Z"/><path class="cls-3" d="M457.32,103.68h-10v56.57H436.48V103.68h-10V94.25h30.83Z"/><path class="cls-3" d="M483,150.82H498v9.43H472.12v-66h25.45v9.43H483v17.44h12.72v9.52H483Z"/><path class="cls-3" d="M538.77,94.25v66H526.05l-9.71-34.51c-1.14-4.33-2.55-10.56-3.68-15.08.28,4.52.66,11,.66,15.27v34.32h-9.15v-66h14.24l8.3,28.94c1.13,4.53,2.55,10.56,3.58,15.18-.18-4.62-.56-11-.56-15.27V94.25Z"/><path class="cls-3" d="M547,94.25h15.37c8.48,0,17.07,2.83,17.07,16.41v33.18c0,13.58-8.58,16.41-17.07,16.41H547Zm10.85,9.43v47.14h4c4.81,0,6.69-1.79,6.69-6.69V110.38c0-4.9-1.88-6.69-6.69-6.69Z"/><path class="cls-4" d="M305.24,201.17l5.47-27.25h15.08v66H315.23V208.42c0-7.16.29-13.48.66-20.64-1,7.16-2.07,13.29-3.39,20.55L306,239.91h-8.48L291,208.33c-1.32-7.26-2.36-13.39-3.4-20.55.38,7.16.66,13.48.66,20.64v31.49h-9.05v-66h15.17l5.47,27.25a169,169,0,0,1,2.64,17.53C303.08,213,304.21,206.54,305.24,201.17Z"/><path class="cls-4" d="M345,230.49h15.09v9.43H334.19v-66h25.46v9.43H345v17.44h12.72v9.52H345Z"/><path class="cls-4" d="M377.36,230.49h15.09v9.43H366.52v-66H392v9.43H377.36v17.44h12.73v9.52H377.36Z"/><path class="cls-4" d="M428.15,183.35h-10v56.57H407.32V183.35h-10v-9.43h30.83Z"/><path class="cls-4" d="M448.23,231.52c3.87,0,5.56-2,5.56-6.22V173.92h10.09v50.53c0,11.4-5.75,16.49-16,16.49s-16.11-5.08-16.11-16.49V173.93h10.84V225.3C442.58,229.54,444.27,231.52,448.23,231.52Z"/><path class="cls-4" d="M482.36,239.91H471.52v-66H486.7c8.48,0,17.06,2.83,17.06,16.4v10.75c0,13.58-8.58,16.5-17.06,16.5h-4.33Zm0-56.56v24.7h3.87c4.8,0,6.69-1.79,6.69-6.6V190c0-4.9-1.89-6.69-6.69-6.69Z"/></g><g id="Pittogramma"><path class="cls-2" d="M186,29.66h68.43V98.09a14.37,14.37,0,0,0,4,10l10.39,10.76V21.93a6.7,6.7,0,0,0-6.7-6.7H165.27L176,25.61A14.34,14.34,0,0,0,186,29.66Z"/><path class="cls-4" d="M58.64,98.82V29.66H128.1a14.36,14.36,0,0,0,10-4.05l10.76-10.38H51.94A7.75,7.75,0,0,0,44.21,23v95.89l10-9.67A14.36,14.36,0,0,0,58.64,98.82Z"/><path class="cls-2" d="M128.83,225.48H58.63v-70.2a14.39,14.39,0,0,0-4.4-10.35l-10-9.67v96.91a7.77,7.77,0,0,0,7.73,7.74h96.92l-9.67-10A14.36,14.36,0,0,0,128.83,225.48Z"/><path class="cls-4" d="M254.46,156v69.46H185.3a14.36,14.36,0,0,0-10.36,4.41l-9.67,10h96.92a6.7,6.7,0,0,0,6.7-6.7h0v-98L258.5,146A14.4,14.4,0,0,0,254.46,156Z"/><rect class="cls-2" x="148.5" y="51.82" width="18.17" height="150.47"/><rect class="cls-3" x="116.81" y="87.66" width="18.17" height="114.63"/><rect class="cls-3" x="179.16" y="87.66" width="18.17" height="114.63"/><rect class="cls-4" x="210.06" y="127.85" width="18.17" height="74.44"/><rect class="cls-4" x="85.91" y="127.85" width="18.17" height="74.44"/></g></g></svg>