<svg xmlns="http://www.w3.org/2000/svg" viewBox="0 0 623.62 255.12"><defs><style>.cls-1{fill:#fff;}.cls-2{fill:#e46825;}.cls-3{fill:#e16025;}.cls-4{fill:#2956a6;}.cls-5{fill:#2e5dab;}.cls-6{fill:#c32033;}.cls-7{fill:#de1d39;}.cls-8{fill:#fdfaf7;}.cls-9{fill:#fdfafc;}.cls-10{fill:#fdfafb;}</style></defs><g id="BG"><rect class="cls-1" width="623.62" height="255.12"/></g><g id="Logo"><path class="cls-2" d="M312.51,240.25c-1.79,1.71-3-.18-4.26-.83-25.37-13.2-50.69-26.5-76.07-39.68a6.38,6.38,0,0,1-3.93-5.51q-1.84-15.58-4.19-31.11c-.52-3.38,1.85-2.94,3.51-3.21,10.81-1.79,21.63-3.47,32.46-5.13q25.68-3.94,51.39-7.8,0,17.6,0,35.2c-4.53,1.32-9.06,2.67-13.61,3.93-1.92.54-3.24,1.08-1.16,3.09,5,4.87,9.26,10.55,14.78,15,0,10.37,0,20.74,0,31.1,0,1.7-.64,3.62,1.07,5"/><path class="cls-3" d="M311.41,182.18q0-17.6,0-35.2c10.63.72,21,3.27,31.47,5,16.82,2.69,33.56,5.84,50.38,8.55,3.89.63,5,1.82,4.3,6-1.47,8.72-2.23,17.56-3.15,26.36a5.16,5.16,0,0,1-2.93,4.59q-39,21.26-78,42.65a3.57,3.57,0,0,1-.95.22c-1.71-1.37-1.06-3.29-1.07-5-.05-10.36,0-20.73,0-31.1l22.15-26-1-1.09-21.18,5.11"/><path class="cls-4" d="M312.77,42.15c16.81,5.88,33.7,11.54,50.4,17.74a26.48,26.48,0,0,0,17.19.55c19.44-5.51,33.86-18,46.47-33.08,3.32-4,6.35-8.16,10.23-13.18,1.41,21.65-2.47,40.68-14.88,57.49-1.94,2.63-4.19,5-6.39,7.46-7.45,8.25-16.32,12.3-27.88,12.65-23.07.7-46.1,2.82-69.14,4.33-2.45.16-4.9.12-7.35.17,0-16.24,0-32.48,0-48.72,0-1.85-.75-4,1.33-5.41"/><path class="cls-5" d="M312.77,42.15c-2.08,1.4-1.32,3.56-1.33,5.41-.05,16.24,0,32.48,0,48.72q-33.14-2.09-66.26-4.19c-6.55-.41-13.08-1-19.64-1.33a10.12,10.12,0,0,1-5.38-1.85C197.62,74,187.72,52.36,186.5,26.1c-.16-3.49-.69-7.1.93-11.27a190.19,190.19,0,0,0,14,17.74C213.08,45.14,226.16,55.48,243,60.34a25.11,25.11,0,0,0,16.71-.45c15.91-6,32-11.57,48.08-17.19,1.53-.53,3.15-2.16,5-.55"/><path class="cls-6" d="M327.91,107.31c-.09.3-.19.6-.28.9l36.86,22.66c1-7.45,1.84-14.24,2.82-21,.28-1.94-.26-2.58-2.24-2.57-12.39.06-24.77,0-37.16,0m-16.5-6.75c28.42-1.92,56.84-3.81,85.25-5.83,3.17-.23,4.13.18,3.68,3.78q-3.43,27.27-6.19,54.61c-.4,3.88-2.18,3.38-4.91,2.9q-38.89-6.78-77.83-13.38Z"/><path class="cls-7" d="M256.35,130.93l37-22.82c-12.54-.81-24.65-.79-36.75-.82-1.93,0-3.54-.15-3.09,2.75,1,6.77,1.86,13.58,2.83,20.89m55.06-30.37v42.08l-56.19,9c-7.59,1.21-15.2,2.32-22.77,3.63-2.39.42-3.48.17-3.78-2.65q-2.89-27.32-6.2-54.6c-.37-3.07.43-3.53,3.21-3.33q42.85,3,85.73,5.9"/><path class="cls-8" d="M311.41,182.18l21.18-5.11,1,1.09-22.15,26c-5.51-4.41-9.74-10.09-14.78-15-2.08-2-.76-2.55,1.16-3.09,4.55-1.26,9.07-2.61,13.61-3.93"/><path class="cls-9" d="M327.91,107.31c12.39,0,24.77,0,37.16,0,2,0,2.52.63,2.24,2.57-1,6.78-1.83,13.57-2.82,21l-36.86-22.66c.09-.3.19-.6.28-.9"/><path class="cls-10" d="M256.35,130.93c-1-7.31-1.78-14.12-2.83-20.89-.45-2.9,1.16-2.76,3.09-2.75,12.1,0,24.21,0,36.75.82l-37,22.82"/></g></svg>