<svg id="Layer_1" data-name="Layer 1" xmlns="http://www.w3.org/2000/svg" xmlns:xlink="http://www.w3.org/1999/xlink" viewBox="0 0 623.62 255.12"><defs><style>.cls-1{fill:none;}.cls-2{fill:#fff;}.cls-3{clip-path:url(#clip-path);}.cls-4{clip-path:url(#clip-path-2);}.cls-5{fill:#f49c25;}.cls-6{fill:#fcdacc;}.cls-7{fill:#8dc4ef;}.cls-8{fill:#664ca2;}.cls-9{fill:#0080ff;}</style><clipPath id="clip-path"><rect class="cls-1" x="41.34" y="22.14" width="540.95" height="210.83"/></clipPath><clipPath id="clip-path-2"><rect class="cls-1" x="41.34" y="22.14" width="540.95" height="210.83"/></clipPath></defs><title>programmers-in-padua</title><rect class="cls-2" width="623.62" height="255.12"/><g class="cls-3"><g class="cls-4"><path d="M483.89,45.64c-4.36,2.61-18.82,12.46-23.44,17.84S452,74.06,450.27,72.63A31.2,31.2,0,0,0,440,67.42c-4.56-1.3-6.79-.89-5.61-.31s8.95,2.67,10.51,3.67,4.42,2,1.8,2.17S433.27,76.66,431,80.09c0,0,15.88-7.85,18.53-4.89s2,12.86,2.26,16.55-.17,5.86-2.39,5.05-11.41-3.58-11.11,6.07,5.15,13.74,8.58,13.73,7.57-2.16,7.42,1.17.75,17.1-1.31,18.58-16,8.42-20,10.1-5,2.83-2.46,4.88,10.46,5.47,7.68,7.88-6.48,5.17-5,5.52,2.47-.32,6.36,0,7.77-.35,7,2.45-.24,4.55.92,5.53-1.27.64-.11,3.91a7.72,7.72,0,0,0,6.88,5.38c3.24.31,2.68,1.33,2.89,4.12s0,4.16,4.33,4.46,10.14-.35,11.79.5,1.64,1,1.26,2.94-2.39,11.9-9.29,18.51-20.57,17.64-12.71,14.85,33.19-9.33,37-9.71,3-1.83,4.76-5,5.82-8.56,6-4.15-1.35,8.71,3.93,9,12.38.22,15,.57,2.62-.14,2.28-3.43-.1-9.06,2-5.73,2.78,5.74,4.83,9.07,2.59,3.77,7.74,4.78,23.4,5.89,26.89,6.13,4.28.63,2.76-1-12.05-13-14.51-17.49-9.15-16-3.64-15.51,13.85,1.3,15.9,1.2,2-.35,1.52-3.07-1-4.23-1-6.27-1-2.52,1.21-2.2,7.41.2,9.33-2.85,3.5-8,.78-10a21.78,21.78,0,0,0-5-2.8s3.08-.93,5.52-1.9,5.23-1.34,3.18-2.3-4.83-3.28-2.78-4.6,7.56-4.36,5.52-5.48-16.65-7.86-16.65-7.86,3.15-4.26,4.91-7.24,3-15.36,1.11-19.33c0,0,6.94-7,8.14-12.48a79,79,0,0,0,1.75-14.39c-.15-1.4-.53-1.75-2.33-1.63S566.37,92.79,564,92.87s-2.49-.5-3.38-2.93S555,78.45,554.33,75A29.42,29.42,0,0,0,551,67.16s8-3.68,10.42-7.91,4-10.56-1.26-15.67-26.62-13.37-44.55-9-29.21,9.53-31.77,11.06"/><path class="cls-5" d="M557.85,48.15c.91,1.44,3.86,4.72-1.41,10.67-3.45,3.88-6,5.81-19.12,7.54-7.66,1-10.56-.58-10.56-.58s1.43-8.65-7.82-12.95c-8.69-4-7.25,5.47-4.94,8.79,2.82,4,9.36,6,9.36,6S522,73.11,511,73.48s-12-.84-12-.84a9.37,9.37,0,0,0-1.53-9.57c-5.57-6.67-12.43-8.2-14.92-3.58C479.79,64.55,488,72.59,494.37,74c0,0,.44,5.17-14.91,4.42s-17.68-1.79-22.21-3c-4-1.1-2.29-1.47,5.92-10,7.48-7.79,25.14-20.09,40.84-24.12,34.4-8.84,51.19,2.7,53.83,6.88"/><path class="cls-5" d="M524,65.34s-.55-4.79-2.44-7-6.13-5.6-6.72-1.89S519.15,65,524,65.34"/><path class="cls-5" d="M496,71.94s2.5-4.23-.68-7.71c-2.79-3.06-5.83-5.39-9.31-4.49-3.24.84-.4,6.94,2.58,8.58,3.77,2.08,7.41,3.62,7.41,3.62"/><path class="cls-6" d="M552.46,79.58s-2.24-5.87-2.84-8.27c-1-3.82-.6-4.2-4.6-3s-8.33,2.43-12.85,1.79S526,69,526,69a12.07,12.07,0,0,1-6.51,5.66,25.27,25.27,0,0,1-15.61,1.59c-6.11-1.13-5-1.49-7.67.77s-7.13,5.53-19.47,4.75c-13.8-.88-14.8-1.53-18.07-2.82s-4.58-1.69-4.41,1.24c.14,2.37.87,16.62,1.36,16.65s40-.76,99.91-3.58c4.17-.2,1.52-2.14-3-13.67"/><path class="cls-6" d="M538.79,112.78a10.22,10.22,0,0,0,1.77-1.94c.73-1.09.29-.95-4.12-1-8.2-.09-8.56-1.15-9.21,1.09-.37,1.28-2.77,7.25-4.56,8.38-2.33,1.47-1.85,2.88.12,4.47,1.7,1.37,16.45,11.21,14.06,7.3-2.61-4.28-5.25-8.88-4.14-10.67s6.08-7.63,6.08-7.63"/><path class="cls-6" d="M531.79,169.76s-71.35-33-73.7-34.27-1.14-5.41-1.43-12.17c-.25-5.86.61-12.64-1.44-10.87-2.87,2.49-11.48,2.29-13.55-2.18-2.27-4.89-3.8-13.33,5.43-12.34,2.19.24,4.73,3.43,6.87,4.32,1.87.77.86.13,1-.58.36-1.61.92-.64,8.91-.35,5.16.18,5.09,3.59,6.86,8.74,1.44,4.21,6.3,12.62,14.23,16.82,18.61,9.84,28.18-.3,28.18-.3s4.08,8.66,6.75,11.62,6.4,6.18,10.21,7c3.59.8,1.86,1.64,1,2.41-.46.4-1.08,2.91,1.34,1.07,4.61-3.52,4.08-4,2.8-4.21s-5.31-1-7-2.29-1.89-.95,0-4.57,1.52-6.91,5.28-4.69,11.66,4.23,8.87,1.49c-3.41-3.34-7.7-11.85-7.78-13s1,.88,6,3.68,9.08,5.71,19.62,1.22c9-3.83,8.34-1.81,8.52,1.74.25,4.74.42,11.09-10.05,20.77-9.07,8.39-23.06,23.28-26.86,20.89"/><path class="cls-7" d="M570.89,96.94c-4.2.19-11.33.79-15.89,1-9,.43-6.89.33-8.65,3.55-1.59,2.91-10.71,3.41-14.2,2.51,0,0-3.4,3.44,2.79,3.29,7.76-.19,12-.31,11.28.79-4.28,6.3-8.64,8.11-6.72,9.72,7,5.88,29.81,8.7,35-12.3,2.24-9.13,1.35-8.79-3.56-8.57"/><path class="cls-7" d="M521,103.3c1.46-4.46-4.41-2.27-11.8-2.71-11.78-.7-10.19-.06-11.12,2.72-1,3-3.22,5.16-9.7,3.4-9.35-2.54-5.22-5.83-10.49-5.06-3.07.45-3.23.67-1.18,6.28,1.83,5,9.73,18.22,26.8,15.5,14.46-2.3,15.85-15.13,17.48-20.14"/><path class="cls-8" d="M565,167.64s-1.45.55-2.87,1-1.69.78-2.42-1.48-2.84-8.27-3.11-9.11a3,3,0,0,1,1.33-3.82c2.06-1.4,2.75,1.42,5.59,2.84s8.71,6.08,10,6.82,1.31,1.15-.1,1.46-8.37,2.27-8.37,2.27"/><path class="cls-8" d="M574,176.1a18.6,18.6,0,0,0-1.12-2.69c-.44-.68-1.33-2-4.42-2.1s-4.94-.43-7,1-.29,1.77.36,1.9,1,.64,1.55,1.17,2.11.15,3.87.6,2,1.93-1.12,2-3.92.13-3.92.13.5,3.3,1.25,4.25c0,0,11.7,1.72,10.55-6.19"/><path class="cls-8" d="M467.09,169.8s-2.36-.08-3.65,3.17c-2.69,6.79,7.78,5.36,10.8-.46,3.91-7.54-5.71-13.86-8.81-16.2s-12.55-8.22-12.55-8.22-5.07,4.86-7.68,7.21-7.88,6.46-6.5,6.56,12.84.66,14.17,1.49-2.18,2.76-3.64,3.88-1.86,2.42-.66,2.75-.91,2.06.94,2.43,9,.74,9.43-.37c1.55-1.14,1.84.56,4.23-2.2s2.28-3.86,1.74-5.37a3.63,3.63,0,0,0-2.88-2.32c-1.28-.36-2.1.45-2.82.73s-1.29-.2-1.21-.52a7.24,7.24,0,0,1,2.78-1.6,7,7,0,0,1,4,.12c1.21.57,5.17,4.88,5.64,5.67a6,6,0,0,1,.88,2.89,9.31,9.31,0,0,1-1.07,2.81c-.37.63-1.82,1.23-2.37.43-.74-1.09,1.64-2.9,1.66-3.53.06-1.68-1.15-1.94-1.68-1.59s-.76,2.26-.76,2.26"/><path class="cls-8" d="M461.4,177.31s-1.18-1.68-1.53-2.15c-.6-.78-1.26-.58-3.41-.24s-5,.07-6.22.26-1.57.74-.05,2.31,4.81,2.95,9.73,1.61c2.62-.71,1.49-1.8,1.49-1.8"/><path class="cls-2" d="M554,158s4.89,27,5.58,29.75,1.83,5.1-.69,5-65.21-4.91-69.94-4.67c-4,.21-2.67-2.25-3.84-10.71-.66-4.79-1.14-18.63-1.2-21.27s-1.8-5.69,2.45-3.52,47,21.17,47,21.17S543.73,166.14,554,158"/><path class="cls-2" d="M481.68,151s1.65,21.73,1.84,24.92,1.86,12.2,0,12.07c-1.25-.09-15.59-.23-21.28-.46-1.47-.06-1.86-.93-1.91-1.38-.51-4.28-2.09-4.33,7.87-6.84,2.7-.68,7-4.31,8.28-7.14,1.65-3.72-1.9-10.11-3.67-11.95-3-3.15-16.45-12.74-18.86-14-2-1.08-1.92.19-2.69-.19s-3.24-2.43-2.43-1.15,1.51,2.14.54,3.14-6.37,7.87-8.66,6.81-5.6-3.55-7.49-4.41-2.36-1.25,3.15-3.39c4.44-1.73,17.83-9.59,20.33-8,4.41,2.8,25,12,25,12"/><path class="cls-2" d="M528.45,129.84a36.61,36.61,0,0,1-4.07-2.49c-1.08-.89-1.89.19-2.27.94s-3.9,5.55-3,6.6c2.11,2.43,5.57,7.35,6.82,4.29s3.06-6.28,3.35-7.24a1.47,1.47,0,0,0-.85-2.1"/><path class="cls-2" d="M521.37,125s-2-2.5-2.87-2.08c-1.35.67-4.21,2.69-3,4.52,1.76,2.73,2,7.59,4.2,2.85,2-4.37,3.29-3.69,1.7-5.29"/><path class="cls-2" d="M576,155.07s-8.36-3.8-9.86-4.64-3.81-1.57-4.72-.33-1.83,2,.5,3.46,8.36,5.78,9.62,6.44,1.56.42,3.91-1.76,3.08-2,.54-3.17"/></g><g class="cls-4"><path class="cls-9" d="M43.83,36.48H54c4.41,0,8.82,1.13,12.2,4.32s5.63,8.44,5.63,16.32-2.25,13-5.63,16.23A17.44,17.44,0,0,1,54,77.85v27.58H43.83ZM54,67.53c3.1,0,5.07-.56,6.19-2.16s1.41-4,1.41-7.88-.28-6.57-1.41-8.26S57.06,46.8,54,46.8Z"/><path class="cls-9" d="M95,105.43,89.7,76.35H87v29.08H76.85v-69H87c12.1,0,17.26,6.85,17.26,19.89,0,6.85-1.78,13-5.63,15.67l6.47,33.4ZM87,67a7,7,0,0,0,4.78-1.5c1.5-1.31,2.72-3.85,2.72-8.72s-1.22-7.5-2.72-8.82A6.92,6.92,0,0,0,87,46.52Z"/><path class="cls-9" d="M137.07,91.27a18.79,18.79,0,0,1-1.69,7.5,12.91,12.91,0,0,1-4,5.07,12,12,0,0,1-7.79,2.35,12.32,12.32,0,0,1-7.88-2.35,12.64,12.64,0,0,1-3.94-5.07,18.79,18.79,0,0,1-1.69-7.5V50.65a18.7,18.7,0,0,1,1.69-7.41,11.89,11.89,0,0,1,11.82-7.5,12.61,12.61,0,0,1,7.79,2.35,13.17,13.17,0,0,1,4,5.16,18.7,18.7,0,0,1,1.69,7.41ZM126.94,50.65a6.26,6.26,0,0,0-1.31-4.32,2.92,2.92,0,0,0-2.06-.75,3.13,3.13,0,0,0-3,2.53,7.19,7.19,0,0,0-.37,2.53V91.27a6,6,0,0,0,1.41,4.32,2.69,2.69,0,0,0,2,.75,3,3,0,0,0,3-2.53,6.55,6.55,0,0,0,.38-2.53Z"/><path class="cls-9" d="M160.15,61.25V50.65a6.26,6.26,0,0,0-1.31-4.32,2.92,2.92,0,0,0-2.06-.75,3.13,3.13,0,0,0-3,2.53,7.19,7.19,0,0,0-.37,2.53V92.11a6,6,0,0,0,1.41,4.32,2.69,2.69,0,0,0,2,.75,3,3,0,0,0,3-2.53,6.56,6.56,0,0,0,.38-2.53V79.64h-4V71.1h14.17v34.33h-6l-1.22-3.28a10.08,10.08,0,0,1-7.88,4c-3.28,0-5.53-.84-7.22-2.35a12.52,12.52,0,0,1-3.56-5.07,18.86,18.86,0,0,1-1.13-7.5V50.65A18.7,18.7,0,0,1,145,43.24a11.89,11.89,0,0,1,11.82-7.5,12.61,12.61,0,0,1,7.79,2.35,13.17,13.17,0,0,1,4,5.16,18.7,18.7,0,0,1,1.69,7.41v10.6Z"/><path class="cls-9" d="M195.8,105.43l-5.25-29.08h-2.72v29.08H177.69v-69h10.13c12.1,0,17.26,6.85,17.26,19.89,0,6.85-1.78,13-5.63,15.67l6.47,33.4Zm-8-38.46a7,7,0,0,0,4.78-1.5c1.5-1.31,2.72-3.85,2.72-8.72s-1.22-7.5-2.72-8.82a6.92,6.92,0,0,0-4.78-1.41Z"/><path class="cls-9" d="M208.74,105.43l10.41-69h12.38l10.41,69H232.1l-1.88-14.07h-9.76l-1.88,14.07ZM225.91,58.9l-.28-1.78h-.56l-.28,1.78-2.91,21.76h6.94Z"/><path class="cls-9" d="M263.44,105.43,257,62.09l-.38-2.91H256v46.25h-9.38v-69H259L265,68l.47,3.66h.19l.47-3.66,6-31.52h12.38v69h-9.38V59.18h-.56l-.37,2.91-6.47,43.34Z"/><path class="cls-9" d="M308.84,105.43l-6.47-43.34L302,59.18h-.56v46.25H292v-69h12.38l6,31.52.47,3.66h.19l.47-3.66,6-31.52h12.38v69h-9.38V59.18H320l-.38,2.91-6.47,43.34Z"/><path class="cls-9" d="M337.45,36.48h23.17V46.9h-13V65H357V76.07h-9.38V95h13v10.41H337.45Z"/><path class="cls-9" d="M384.36,105.43,379.1,76.35h-2.72v29.08H366.25v-69h10.13c12.1,0,17.26,6.85,17.26,19.89,0,6.85-1.78,13-5.63,15.67l6.47,33.4Zm-8-38.46a7,7,0,0,0,4.78-1.5c1.5-1.31,2.72-3.85,2.72-8.72s-1.22-7.5-2.72-8.82a6.92,6.92,0,0,0-4.78-1.41Z"/><path class="cls-9" d="M416.91,55a22.61,22.61,0,0,0-.75-6.75c-.66-1.88-1.69-3.19-3.28-3.19-2.63.09-3.47,2.81-3.47,6.85,0,2.35,1,4.78,2.53,7.41s3.47,5.35,5.44,8.26A105.81,105.81,0,0,1,423.85,78a23.64,23.64,0,0,1,3,10.79c0,4.6-.75,8.91-2.91,12.1s-5.63,5.25-11.16,5.25c-6.47,0-10.13-2.44-12.2-6.19s-2.53-8.72-2.53-13.88l9.94-.94a26,26,0,0,0,.84,8c.66,2.25,1.78,3.75,3.94,3.75,3,0,4.13-3.19,4.13-7.6,0-2.25-1.13-4.88-2.63-7.6-.84-1.31-1.69-2.72-2.63-4.13-2-2.81-4.13-6-6.38-9.48a39.29,39.29,0,0,1-5-10.69,18.4,18.4,0,0,1-.84-5.53,19.27,19.27,0,0,1,3-10.88,12.3,12.3,0,0,1,10.23-5.25c6.1-.09,9.66,2.44,11.63,6.1s2.53,8.35,2.53,12.2Z"/><path class="cls-9" d="M52.82,190.84c-.44.3-.85.19-1.21-.33a1.17,1.17,0,0,1-.11-1.44A79.82,79.82,0,0,1,59.89,182a69.58,69.58,0,0,1,10.6-6.63q1.77,0,1.77,2-2.87,5.08-5.63,11t-4.86,11.82a113,113,0,0,0-3.42,11.26A39.13,39.13,0,0,0,57,220.44q0,4.64,3.09,4.64a7.06,7.06,0,0,0,4.75-2.1,68.93,68.93,0,0,0,5.41-5.63c.29-.29.66-.22,1.1.22a1.23,1.23,0,0,1,.22,1.55,74.57,74.57,0,0,1-8.5,8.83q-4.53,4-8.5,4-5.75,0-5.74-7.29a43.13,43.13,0,0,1,1.44-10,108,108,0,0,1,3.64-11.82,113.88,113.88,0,0,1,5-11.48,89.06,89.06,0,0,1,5.41-9.5q-2.43,1.77-6.07,4.53A55.48,55.48,0,0,0,52.82,190.84Zm19.88-25c-.44.44-.85.48-1.21.11a3,3,0,0,1-.77-1.55,10.72,10.72,0,0,1-.22-2.32,3.58,3.58,0,0,1,.66-2.21,104.89,104.89,0,0,1,16.12-17,1.34,1.34,0,0,1,1.33.33q.66.55.22,1a63,63,0,0,0-8.83,10A106.94,106.94,0,0,0,72.7,165.88Z"/><path class="cls-9" d="M136.53,217.79a1.11,1.11,0,0,1,1.33,0,1.12,1.12,0,0,1,.44,1.33,53.48,53.48,0,0,1-8.28,8.95q-4.53,3.87-8.5,3.87-6.85,0-6.85-8.83a60.56,60.56,0,0,1,2.65-16.67A109.05,109.05,0,0,1,124.6,188a6.2,6.2,0,0,0,.88-3.09q0-2.43-2.21-2.43-8.17,0-18,11.26T87.05,229.05a3.73,3.73,0,0,1-2.43,2.1,10.34,10.34,0,0,1-3.75.77q-2.43,0-1.77-2,3.75-9.5,7.84-21.42t7.18-23.63q.88-4.19-1.55-4.2a6.37,6.37,0,0,0-4.42,2.21,41.11,41.11,0,0,0-4.64,5.74c-.3.3-.63.22-1-.22a1.33,1.33,0,0,1-.33-1.33,43.19,43.19,0,0,1,6.63-7.73,13,13,0,0,1,9.06-4q5.52,0,3.75,7.51-.89,4.86-2.43,10.27t-3.31,10.71a69.91,69.91,0,0,1,7.29-11.26,60.29,60.29,0,0,1,8.72-9.06,45.63,45.63,0,0,1,9.06-6,19.51,19.51,0,0,1,8.5-2.21,5.81,5.81,0,0,1,4.09,1.33A4.09,4.09,0,0,1,135,179.8a13.59,13.59,0,0,1-1.33,5.74,113.92,113.92,0,0,0-7.84,17.56,51.53,51.53,0,0,0-3.2,16.9q0,5.52,3.53,5.52Q130.78,225.52,136.53,217.79Z"/><path class="cls-9" d="M175.92,128.65h15.17c6.6,0,13.21,1.69,18.27,6.46s8.43,12.65,8.43,24.45-3.37,19.53-8.43,24.31-11.66,6.74-18.27,6.74v41.31H175.92Zm15.17,46.51c4.64,0,7.59-.84,9.27-3.23s2.11-6,2.11-11.8-.42-9.83-2.11-12.36-4.64-3.65-9.27-3.65Z"/><path class="cls-9" d="M221.16,231.92l15.6-103.27H255.3l15.6,103.27H256.14l-2.81-21.08H238.72l-2.81,21.08Zm25.71-69.69-.42-2.67h-.84l-.42,2.67-4.36,32.6h10.4Z"/><path class="cls-9" d="M277.92,231.92V128.65h11.94c14.05,0,21.64,2.81,25.71,10.68s4.5,20.79,4.5,41-.56,33-4.5,40.89-11.66,10.68-25.71,10.68Zm15.17-15.17c5.2,0,8.15-.56,9.69-5.62a45.19,45.19,0,0,0,1.4-11c.14-4.92.14-11.52.14-20s0-15-.14-20a47.37,47.37,0,0,0-1.4-11c-1.55-4.92-4.5-5.48-9.69-5.48Z"/><path class="cls-9" d="M370.51,128.65v82.05A28.13,28.13,0,0,1,368,221.95a19.33,19.33,0,0,1-6,7.59c-2.81,2.25-6.6,3.51-11.66,3.51s-9-1.26-11.8-3.51a18.94,18.94,0,0,1-5.9-7.59A28.13,28.13,0,0,1,330,210.71V128.65h15.17v82.05c0,3,.7,4.92,2.11,6.46a4,4,0,0,0,3,1.12c2.67,0,3.93-1.69,4.5-3.79a9.82,9.82,0,0,0,.56-3.79V128.65Z"/><path class="cls-9" d="M377.4,231.92,393,128.65h18.55l15.6,103.27H412.38l-2.81-21.08H395l-2.81,21.08Zm25.71-69.69-.42-2.67h-.84l-.42,2.67-4.36,32.6h10.4Z"/></g><g class="cls-4"><path d="M43.83,34H54c4.41,0,8.82,1.13,12.2,4.32s5.63,8.44,5.63,16.32-2.25,13-5.63,16.23A17.45,17.45,0,0,1,54,75.41V103H43.83ZM54,65.09c3.1,0,5.07-.56,6.19-2.16s1.41-4,1.41-7.88-.28-6.57-1.41-8.26-3.1-2.44-6.19-2.44Z"/><path d="M95,103,89.7,73.91H87V103H76.85V34H87c12.1,0,17.26,6.85,17.26,19.89,0,6.85-1.78,13-5.63,15.67l6.47,33.4ZM87,64.53A7,7,0,0,0,91.76,63c1.5-1.31,2.72-3.85,2.72-8.72s-1.22-7.5-2.72-8.82A6.92,6.92,0,0,0,87,44.08Z"/><path d="M137.07,88.82a18.79,18.79,0,0,1-1.69,7.5,12.91,12.91,0,0,1-4,5.07,12,12,0,0,1-7.79,2.35,12.32,12.32,0,0,1-7.88-2.35,12.64,12.64,0,0,1-3.94-5.07,18.79,18.79,0,0,1-1.69-7.5V48.2a18.7,18.7,0,0,1,1.69-7.41,11.89,11.89,0,0,1,11.82-7.5,12.61,12.61,0,0,1,7.79,2.35,13.17,13.17,0,0,1,4,5.16,18.7,18.7,0,0,1,1.69,7.41ZM126.94,48.2a6.26,6.26,0,0,0-1.31-4.32,2.92,2.92,0,0,0-2.06-.75,3.13,3.13,0,0,0-3,2.53,7.19,7.19,0,0,0-.37,2.53V88.82a6,6,0,0,0,1.41,4.32,2.69,2.69,0,0,0,2,.75,3,3,0,0,0,3-2.53,6.55,6.55,0,0,0,.38-2.53Z"/><path d="M160.15,58.81V48.2a6.26,6.26,0,0,0-1.31-4.32,2.92,2.92,0,0,0-2.06-.75,3.13,3.13,0,0,0-3,2.53,7.19,7.19,0,0,0-.37,2.53V89.67A6,6,0,0,0,154.8,94a2.69,2.69,0,0,0,2,.75,3,3,0,0,0,3-2.53,6.56,6.56,0,0,0,.38-2.53V77.19h-4V68.66h14.17V103h-6l-1.22-3.28a10.08,10.08,0,0,1-7.88,4c-3.28,0-5.53-.84-7.22-2.35a12.52,12.52,0,0,1-3.56-5.07,18.86,18.86,0,0,1-1.13-7.5V48.2A18.7,18.7,0,0,1,145,40.79a11.89,11.89,0,0,1,11.82-7.5,12.61,12.61,0,0,1,7.79,2.35,13.17,13.17,0,0,1,4,5.16,18.7,18.7,0,0,1,1.69,7.41v10.6Z"/><path d="M195.8,103l-5.25-29.08h-2.72V103H177.69V34h10.13c12.1,0,17.26,6.85,17.26,19.89,0,6.85-1.78,13-5.63,15.67l6.47,33.4Zm-8-38.46a7,7,0,0,0,4.78-1.5c1.5-1.31,2.72-3.85,2.72-8.72s-1.22-7.5-2.72-8.82a6.92,6.92,0,0,0-4.78-1.41Z"/><path d="M208.74,103l10.41-69h12.38L242,103H232.1l-1.88-14.07h-9.76L218.59,103Zm17.17-46.53-.28-1.78h-.56l-.28,1.78-2.91,21.76h6.94Z"/><path d="M263.44,103,257,59.65l-.38-2.91H256V103h-9.38V34H259l6,31.52.47,3.66h.19l.47-3.66,6-31.52h12.38v69h-9.38V56.74h-.56l-.37,2.91L267.75,103Z"/><path d="M308.84,103l-6.47-43.34L302,56.74h-.56V103H292V34h12.38l6,31.52.47,3.66h.19l.47-3.66,6-31.52h12.38v69h-9.38V56.74H320l-.38,2.91L313.15,103Z"/><path d="M337.45,34h23.17V44.45h-13V62.56H357V73.63h-9.38V92.58h13V103H337.45Z"/><path d="M384.36,103,379.1,73.91h-2.72V103H366.25V34h10.13c12.1,0,17.26,6.85,17.26,19.89,0,6.85-1.78,13-5.63,15.67l6.47,33.4Zm-8-38.46a7,7,0,0,0,4.78-1.5c1.5-1.31,2.72-3.85,2.72-8.72s-1.22-7.5-2.72-8.82a6.92,6.92,0,0,0-4.78-1.41Z"/><path d="M416.91,52.52a22.61,22.61,0,0,0-.75-6.75c-.66-1.88-1.69-3.19-3.28-3.19-2.63.09-3.47,2.81-3.47,6.85,0,2.35,1,4.78,2.53,7.41s3.47,5.35,5.44,8.25a105.92,105.92,0,0,1,6.47,10.51,23.64,23.64,0,0,1,3,10.79c0,4.6-.75,8.91-2.91,12.1s-5.63,5.25-11.16,5.25c-6.47,0-10.13-2.44-12.2-6.19s-2.53-8.72-2.53-13.88l9.94-.94a26,26,0,0,0,.84,8c.66,2.25,1.78,3.75,3.94,3.75,3,0,4.13-3.19,4.13-7.6,0-2.25-1.13-4.88-2.63-7.6-.84-1.31-1.69-2.72-2.63-4.13-2-2.81-4.13-6-6.38-9.48a39.29,39.29,0,0,1-5-10.69,18.4,18.4,0,0,1-.84-5.53,19.27,19.27,0,0,1,3-10.88,12.3,12.3,0,0,1,10.23-5.25c6.1-.09,9.66,2.44,11.63,6.1s2.53,8.35,2.53,12.2Z"/><path d="M52.82,188.4c-.44.3-.85.19-1.21-.33a1.17,1.17,0,0,1-.11-1.44,79.82,79.82,0,0,1,8.39-7.07,69.58,69.58,0,0,1,10.6-6.63q1.77,0,1.77,2-2.87,5.08-5.63,11t-4.86,11.82A113,113,0,0,0,58.34,209,39.13,39.13,0,0,0,57,218q0,4.64,3.09,4.64a7.06,7.06,0,0,0,4.75-2.1,68.93,68.93,0,0,0,5.41-5.63c.29-.29.66-.22,1.1.22a1.23,1.23,0,0,1,.22,1.55,74.57,74.57,0,0,1-8.5,8.83q-4.53,4-8.5,4-5.75,0-5.74-7.29a43.13,43.13,0,0,1,1.44-10,108,108,0,0,1,3.64-11.82,113.88,113.88,0,0,1,5-11.48,89.06,89.06,0,0,1,5.41-9.5q-2.43,1.77-6.07,4.53A55.48,55.48,0,0,0,52.82,188.4Zm19.88-25c-.44.44-.85.48-1.21.11a3,3,0,0,1-.77-1.55,10.72,10.72,0,0,1-.22-2.32,3.58,3.58,0,0,1,.66-2.21,104.89,104.89,0,0,1,16.12-17,1.34,1.34,0,0,1,1.33.33q.66.55.22,1a63,63,0,0,0-8.83,10A106.94,106.94,0,0,0,72.7,163.44Z"/><path d="M136.53,215.34a1.11,1.11,0,0,1,1.33,0,1.12,1.12,0,0,1,.44,1.33,53.48,53.48,0,0,1-8.28,8.95q-4.53,3.87-8.5,3.87-6.85,0-6.85-8.83A60.56,60.56,0,0,1,117.31,204a109.05,109.05,0,0,1,7.29-18.44,6.2,6.2,0,0,0,.88-3.09q0-2.43-2.21-2.43-8.17,0-18,11.26T87.05,226.61a3.73,3.73,0,0,1-2.43,2.1,10.34,10.34,0,0,1-3.75.77q-2.43,0-1.77-2,3.75-9.5,7.84-21.42t7.18-23.63q.88-4.19-1.55-4.2a6.37,6.37,0,0,0-4.42,2.21,41.11,41.11,0,0,0-4.64,5.74c-.3.3-.63.22-1-.22a1.33,1.33,0,0,1-.33-1.33,43.19,43.19,0,0,1,6.63-7.73,13,13,0,0,1,9.06-4q5.52,0,3.75,7.51-.89,4.86-2.43,10.27t-3.31,10.71a69.91,69.91,0,0,1,7.29-11.26,60.29,60.29,0,0,1,8.72-9.06,45.63,45.63,0,0,1,9.06-6,19.51,19.51,0,0,1,8.5-2.21,5.81,5.81,0,0,1,4.09,1.33,4.09,4.09,0,0,1,1.44,3.09,13.59,13.59,0,0,1-1.33,5.74,113.92,113.92,0,0,0-7.84,17.56,51.53,51.53,0,0,0-3.2,16.9q0,5.52,3.53,5.52Q130.78,223.07,136.53,215.34Z"/><path d="M175.92,126.21h15.17c6.6,0,13.21,1.69,18.27,6.46s8.43,12.65,8.43,24.45-3.37,19.53-8.43,24.31-11.66,6.74-18.27,6.74v41.31H175.92Zm15.17,46.51c4.64,0,7.59-.84,9.27-3.23s2.11-6,2.11-11.8-.42-9.83-2.11-12.36-4.64-3.65-9.27-3.65Z"/><path d="M221.16,229.48l15.6-103.27H255.3l15.6,103.27H256.14l-2.81-21.08H238.72l-2.81,21.08Zm25.71-69.69-.42-2.67h-.84l-.42,2.67-4.36,32.6h10.4Z"/><path d="M277.92,229.48V126.21h11.94c14.05,0,21.64,2.81,25.71,10.68s4.5,20.79,4.5,41-.56,33-4.5,40.89-11.66,10.68-25.71,10.68Zm15.17-15.17c5.2,0,8.15-.56,9.69-5.62a45.21,45.21,0,0,0,1.4-11c.14-4.92.14-11.52.14-20s0-15-.14-20a47.39,47.39,0,0,0-1.4-11c-1.55-4.92-4.5-5.48-9.69-5.48Z"/><path d="M370.51,126.21v82.05A28.13,28.13,0,0,1,368,219.5a19.33,19.33,0,0,1-6,7.59c-2.81,2.25-6.6,3.51-11.66,3.51s-9-1.26-11.8-3.51a18.94,18.94,0,0,1-5.9-7.59A28.13,28.13,0,0,1,330,208.26V126.21h15.17v82.05c0,3,.7,4.92,2.11,6.46a4,4,0,0,0,3,1.12c2.67,0,3.93-1.69,4.5-3.79a9.81,9.81,0,0,0,.56-3.79V126.21Z"/><path d="M377.4,229.48,393,126.21h18.55l15.6,103.27H412.38l-2.81-21.08H395l-2.81,21.08Zm25.71-69.69-.42-2.67h-.84l-.42,2.67-4.36,32.6h10.4Z"/></g></g></svg>