<svg xmlns="http://www.w3.org/2000/svg" viewBox="0 0 153.75 54.75"><title>logo+type_1</title><path d="M82.16,14.71a3.46,3.46,0,0,1-.73,2.22,3.82,3.82,0,0,1-2.11,1.28l3.28,5h-2.9L77,18.42H75.31v4.76H73.08V11H77.6A5,5,0,0,1,81,12,3.36,3.36,0,0,1,82.16,14.71Zm-4.76,2.22a2.69,2.69,0,0,0,1.85-.56,1.87,1.87,0,0,0,.62-1.47,2,2,0,0,0-.56-1.47,2.32,2.32,0,0,0-1.69-.56h-2.3v4Z" style="fill:#303030"/><path d="M91.54,16.52A5.12,5.12,0,0,1,91.78,18a8.51,8.51,0,0,1-.08,1.19H85.79A3.18,3.18,0,0,0,86.34,21a1.78,1.78,0,0,0,1.54.7,1.47,1.47,0,0,0,1.64-1.21h2.24a3.29,3.29,0,0,1-1.26,2.17,4.16,4.16,0,0,1-2.62.83,4,4,0,0,1-3-1.32,5,5,0,0,1-1.26-3.52,4.94,4.94,0,0,1,1.26-3.54,4,4,0,0,1,3-1.28,3.55,3.55,0,0,1,3,1.34A4.17,4.17,0,0,1,91.54,16.52Zm-3.64-1a1.84,1.84,0,0,0-1.47.61,2.75,2.75,0,0,0-.62,1.57h3.9a2.06,2.06,0,0,0-.94-2A1.83,1.83,0,0,0,87.9,15.56Z" style="fill:#303030"/><path d="M96.69,17.84a10.58,10.58,0,0,1,2.52.36v-.9a2.18,2.18,0,0,0-.39-1.42,1.56,1.56,0,0,0-1.26-.46,2.24,2.24,0,0,0-1.35.35,1.16,1.16,0,0,0-.47,1H93.32a2.47,2.47,0,0,1,1.1-2.26,5.75,5.75,0,0,1,3.08-.7q2.82,0,3.65,2a4.15,4.15,0,0,1,.28,1.6v5.82H99.5L99.33,22a2.94,2.94,0,0,1-2.71,1.49,4,4,0,0,1-2.75-.87,2.72,2.72,0,0,1-.9-2.1,2.24,2.24,0,0,1,1-2A4.75,4.75,0,0,1,96.69,17.84Zm2.52,1.77a8,8,0,0,0-2.07-.3q-1.81,0-1.81,1.21a1.13,1.13,0,0,0,.41.88,2,2,0,0,0,1.33.37,2,2,0,0,0,1.51-.61A2.25,2.25,0,0,0,99.21,19.61Z" style="fill:#303030"/><path d="M107.4,13.79a3.93,3.93,0,0,1,1.55.29,3.61,3.61,0,0,1,1.16.76,3.68,3.68,0,0,1,1.11,2.28l-2.24.06a2.06,2.06,0,0,0-.56-1,1.3,1.3,0,0,0-.93-.4,2.31,2.31,0,0,0-.9.16,1.73,1.73,0,0,0-.66.5,3.38,3.38,0,0,0-.64,2.18,3.16,3.16,0,0,0,.6,2.1,1.85,1.85,0,0,0,1.46.71,1.65,1.65,0,0,0,1.24-.4,1.53,1.53,0,0,0,.39-1.1h2.24a3.4,3.4,0,0,1-1,2.5,3.84,3.84,0,0,1-2.84,1,4,4,0,0,1-3-1.32,5,5,0,0,1-1.3-3.52,4.89,4.89,0,0,1,1.3-3.56A4.08,4.08,0,0,1,107.4,13.79Z" style="fill:#303030"/><path d="M118.3,23a5.77,5.77,0,0,1-2,.49,4.15,4.15,0,0,1-1.25-.17,2.82,2.82,0,0,1-1-.51,2.7,2.7,0,0,1-.87-2.13V15.52H112V14h1.28V11.62h2.22V14H118v1.49H115.5v5q0,1.13,1.07,1.13a4.54,4.54,0,0,0,1.41-.3Z" style="fill:#303030"/><path d="M127.79,11a6.2,6.2,0,0,1,4.5,1.66A5.88,5.88,0,0,1,134,17.08a5.86,5.86,0,0,1-1.73,4.44,6.2,6.2,0,0,1-4.5,1.66h-4V11Zm-1.73,10.2h1.73A3.63,3.63,0,0,0,130.59,20a4.2,4.2,0,0,0,1-2.92,4.25,4.25,0,0,0-1-3A3.63,3.63,0,0,0,127.79,13h-1.73Z" style="fill:#303030"/><path d="M139,17.84a10.58,10.58,0,0,1,2.52.36v-.9a2.18,2.18,0,0,0-.39-1.42,1.56,1.56,0,0,0-1.26-.46,2.24,2.24,0,0,0-1.35.35,1.16,1.16,0,0,0-.47,1h-2.43a2.47,2.47,0,0,1,1.1-2.26,5.75,5.75,0,0,1,3.08-.7q2.82,0,3.65,2a4.15,4.15,0,0,1,.28,1.6v5.82h-1.94L141.65,22a2.94,2.94,0,0,1-2.71,1.49,4,4,0,0,1-2.75-.87,2.72,2.72,0,0,1-.9-2.1,2.24,2.24,0,0,1,1-2A4.75,4.75,0,0,1,139,17.84Zm2.52,1.77a8,8,0,0,0-2.07-.3q-1.81,0-1.81,1.21a1.13,1.13,0,0,0,.41.88,2,2,0,0,0,1.33.37,2,2,0,0,0,1.51-.61A2.25,2.25,0,0,0,141.53,19.61Z" style="fill:#303030"/><path d="M147.37,14l2.2,6.59L151.49,14h2.26l-3.5,10.81a5.55,5.55,0,0,1-1.33,2.35,2.83,2.83,0,0,1-2,.72,5.5,5.5,0,0,1-2.45-.6v-2a3.66,3.66,0,0,0,2,.62,1.33,1.33,0,0,0,1.08-.53,4.15,4.15,0,0,0,.69-1.37l.28-.88L144.85,14Z" style="fill:#303030"/><path d="M73.24,30.61h4.42a4.22,4.22,0,0,1,2.87.88,2.83,2.83,0,0,1,1,2.22A2.9,2.9,0,0,1,81,35.49a2.78,2.78,0,0,1-1.69,1,2.92,2.92,0,0,1,1.78,1,2.6,2.6,0,0,1,.67,1.75,2.92,2.92,0,0,1-2.13,3,5.8,5.8,0,0,1-1.94.28H73.24Zm1.49,5.29h2.9a2.65,2.65,0,0,0,1.74-.54,2,2,0,0,0,0-2.95,2.67,2.67,0,0,0-1.76-.53h-2.9Zm2.92,5.25a2.8,2.8,0,0,0,1.94-.55,1.89,1.89,0,0,0,.58-1.45,1.78,1.78,0,0,0-.64-1.44,2.87,2.87,0,0,0-1.88-.54H74.72v4Z" style="fill:#303030"/><path d="M89.76,36.62a2.47,2.47,0,0,0-.51-1.75,2,2,0,0,0-1.48-.53,2.82,2.82,0,0,0-1.56.39,1.34,1.34,0,0,0-.59,1.21H84a2.45,2.45,0,0,1,2.22-2.56,6.82,6.82,0,0,1,1.47-.15,3.77,3.77,0,0,1,2.62.85,3.3,3.3,0,0,1,.94,2.58v5.8H90l-.15-1.51a3,3,0,0,1-3,1.71,3.29,3.29,0,0,1-2.32-.81,2.63,2.63,0,0,1-.88-2,2.17,2.17,0,0,1,1-1.88A4.12,4.12,0,0,1,87,37.28a7.89,7.89,0,0,1,2.77.49Zm0,2.09a8.78,8.78,0,0,0-2.33-.38,3.22,3.22,0,0,0-1.62.36,1.21,1.21,0,0,0-.62,1.13q0,1.69,1.92,1.69A2.55,2.55,0,0,0,89,40.73,2.74,2.74,0,0,0,89.76,38.71Z" style="fill:#303030"/><path d="M95.41,35.19a3.39,3.39,0,0,1,5.53-.9,4.31,4.31,0,0,1,.89,2.88v5.29h-1.47V37.16a2.79,2.79,0,0,0-.61-2A2.26,2.26,0,0,0,98,34.55a2.18,2.18,0,0,0-1.83.92A4.34,4.34,0,0,0,95.45,38v4.42H94v-9h1.28Z" style="fill:#303030"/><path d="M105,42.17a1.77,1.77,0,0,1-1.13-1.68,1.41,1.41,0,0,1,.44-1,2.22,2.22,0,0,1,1.1-.59,3,3,0,0,1-1-2.37,3,3,0,0,1,1-2.37,3.66,3.66,0,0,1,2.48-.9,4.22,4.22,0,0,1,2.43.68,2.41,2.41,0,0,1,2.56-2.2l-.13,1.47q-1.66,0-1.73,1.39a3,3,0,0,1,.66,1.94,3,3,0,0,1-1,2.38,3.77,3.77,0,0,1-2.61.93,4,4,0,0,1-1.9-.43,1.4,1.4,0,0,0-.68.35,1,1,0,0,0-.3.74q0,1,1.66,1h3.5a3.32,3.32,0,0,1,2,.54,1.75,1.75,0,0,1,.73,1.5,3.09,3.09,0,0,1-1.44,2.5,5.93,5.93,0,0,1-3.64,1.07,6.31,6.31,0,0,1-3.46-.82,2.41,2.41,0,0,1-1.26-2.06,1.84,1.84,0,0,1,.48-1.32A2.61,2.61,0,0,1,105,42.17Zm-.28,2a1.48,1.48,0,0,0,.78,1.23,4.35,4.35,0,0,0,2.37.52,4.8,4.8,0,0,0,2.65-.69,1.94,1.94,0,0,0,1.06-1.61,1,1,0,0,0-.31-.74,1.29,1.29,0,0,0-1-.31h-3.63a2.39,2.39,0,0,0-1.47.46A1.4,1.4,0,0,0,104.67,44.15Zm5.53-7.65a2.2,2.2,0,0,0-.58-1.58,2.42,2.42,0,0,0-3.22,0,2.21,2.21,0,0,0-.58,1.59,2.26,2.26,0,0,0,.59,1.61,2.1,2.1,0,0,0,1.61.63,2.06,2.06,0,0,0,1.6-.64A2.3,2.3,0,0,0,110.21,36.5Z" style="fill:#303030"/><path d="M120,36.62a2.47,2.47,0,0,0-.51-1.75,2,2,0,0,0-1.48-.53,2.82,2.82,0,0,0-1.56.39,1.34,1.34,0,0,0-.59,1.21h-1.64a2.45,2.45,0,0,1,2.22-2.56,6.82,6.82,0,0,1,1.47-.15,3.77,3.77,0,0,1,2.62.85,3.3,3.3,0,0,1,.94,2.58v5.8h-1.28l-.15-1.51a3,3,0,0,1-3,1.71,3.29,3.29,0,0,1-2.32-.81,2.63,2.63,0,0,1-.88-2,2.17,2.17,0,0,1,1-1.88,4.12,4.12,0,0,1,2.42-.68,7.89,7.89,0,0,1,2.77.49Zm0,2.09a8.78,8.78,0,0,0-2.33-.38,3.22,3.22,0,0,0-1.62.36,1.21,1.21,0,0,0-.62,1.13q0,1.69,1.92,1.69a2.55,2.55,0,0,0,1.87-.78A2.74,2.74,0,0,0,120,38.71Z" style="fill:#303030"/><path d="M124.25,29.63h1.49V42.45h-1.49Z" style="fill:#303030"/><path d="M132,33.23a4,4,0,0,1,3,1.22,4.9,4.9,0,0,1,1.16,3.5A4.87,4.87,0,0,1,135,41.44a4.39,4.39,0,0,1-6.08,0A4.87,4.87,0,0,1,127.81,38a4.9,4.9,0,0,1,1.16-3.5A4,4,0,0,1,132,33.23Zm2.69,4.72a4.15,4.15,0,0,0-.68-2.52,2.32,2.32,0,0,0-2-.91,2.37,2.37,0,0,0-2,.91,4.07,4.07,0,0,0-.7,2.52,4.24,4.24,0,0,0,.66,2.52,2.27,2.27,0,0,0,2,.91,2.42,2.42,0,0,0,2-.91A4,4,0,0,0,134.7,37.95Z" style="fill:#303030"/><path d="M142,34.72q-2.13,0-2.2,3.35v4.39h-1.49v-9h1.49v1.73a2.44,2.44,0,0,1,2.39-1.88,3.14,3.14,0,0,1,1,.17l-.08,1.45A3.63,3.63,0,0,0,142,34.72Z" style="fill:#303030"/><path d="M147.82,41.46a1.87,1.87,0,0,0,2.13-1.64h1.52a3.09,3.09,0,0,1-1.2,2.1,4,4,0,0,1-2.46.74,3.72,3.72,0,0,1-2.94-1.29,5,5,0,0,1-1.13-3.44,5,5,0,0,1,1.14-3.43,3.86,3.86,0,0,1,3-1.28,3.12,3.12,0,0,1,2.82,1.47,5.2,5.2,0,0,1,.65,3.58h-6.16a3.68,3.68,0,0,0,.68,2.29A2.25,2.25,0,0,0,147.82,41.46Zm1.09-6.81a2.53,2.53,0,0,0-2.87.56,3.42,3.42,0,0,0-.78,1.95h4.8A2.58,2.58,0,0,0,148.91,34.64Z" style="fill:#303030"/><path d="M53.39,20.47c-1.49-.46-3.1-.86-4.82-1.21-.15.7-.34,1.48-.58,2.33,1.68.34,3.25.73,4.69,1.18,4.88,1.5,7.91,3.54,7.91,5.32s-3,3.71-7.9,5.13a53.82,53.82,0,0,1-6.42,1.41L46,34a16.1,16.1,0,0,0,1.2-9.83A56.34,56.34,0,0,1,44.32,31l-.08.16-.2.4-.11.21-.2.38-.13.25-.19.35-.22.41q-.55,1-1.16,2.05h0l-.75,1.24-.08.12-.33.52-.05.08-.38.6h0c-.9,1.4-1.9,2.84-3,4.32a16,16,0,0,0,5.35-3.54q.55-.55,1-1.13l.93-.12a48,48,0,0,1,1.75,5.53c1.17,4.78.94,8.32-.59,9.25s-4.65-.49-8.34-3.81c-.92-.82-1.85-1.75-2.8-2.76q-.75.92-1.56,1.85Q34.6,48.82,36,50c3.47,3.12,6.48,4.71,8.86,4.71a4.41,4.41,0,0,0,2.33-.63C49,53,50.74,50.06,48.83,42.24a49.49,49.49,0,0,0-1.66-5.33,55.28,55.28,0,0,0,6.2-1.39c6.3-1.83,9.63-4.41,9.63-7.44S59.68,22.4,53.39,20.47Z" style="fill:#303030"/><path d="M37.76,38q.59-.86,1.16-1.73c.76-1.16,1.49-2.34,2.19-3.54a69.69,69.69,0,0,0,3.78-7.44,68,68,0,0,0,2.84-7.88c.39-1.35.74-2.7,1-4.08.15-.69.28-1.38.4-2.08s.22-1.4.29-2.11.13-1.43.13-2.16a14.07,14.07,0,0,0-.13-2.22,7.56,7.56,0,0,0-.67-2.29A4.62,4.62,0,0,0,48,1.37,3.78,3.78,0,0,0,46.93.55a3.94,3.94,0,0,0-1.3-.36,5.05,5.05,0,0,0-1.25,0A8.37,8.37,0,0,0,42.2.89a18.44,18.44,0,0,0-3.62,2.24,36.77,36.77,0,0,0-3.14,2.71c-1,.94-2,1.93-2.88,2.94q-.64.69-1.27,1.41a56.85,56.85,0,0,0-5-5.18C21.44.55,17.48-1,14.89.6S11.79,6.4,13.46,12.8A55.31,55.31,0,0,0,15.52,19a53.27,53.27,0,0,0-5.91,1.43C3.32,22.4,0,25,0,28.08s3.33,5.61,9.63,7.44c1.53.45,3.2.84,5,1.17-.45,1.13-.86,2.28-1.21,3.46a29.43,29.43,0,0,0-1,4.16,19.41,19.41,0,0,0-.2,2.19,12.74,12.74,0,0,0,.12,2.3,8.19,8.19,0,0,0,.72,2.43,6,6,0,0,0,.77,1.2,5.23,5.23,0,0,0,1.13,1,5.13,5.13,0,0,0,1.42.65,5.72,5.72,0,0,0,1.48.21,8.15,8.15,0,0,0,2.62-.43c.39-.13.77-.27,1.14-.43s.72-.33,1.06-.51a21.33,21.33,0,0,0,1.94-1.17,34.24,34.24,0,0,0,3.44-2.68q1.61-1.42,3.08-3a63.7,63.7,0,0,0,5.39-6.45C37,39.14,37.37,38.57,37.76,38ZM33.52,9.67c.93-1,1.88-1.91,2.87-2.8a35.2,35.2,0,0,1,3.11-2.48,16.78,16.78,0,0,1,3.37-1.87,6.34,6.34,0,0,1,1.72-.43A2.44,2.44,0,0,1,46,2.33a2,2,0,0,1,.84,1A5.08,5.08,0,0,1,47.19,5a11.06,11.06,0,0,1-.07,1.84A19,19,0,0,1,46.8,8.7q-.22.94-.5,1.87t-.63,1.85c-.46,1.23-1,2.44-1.54,3.63l-.39.81q-.45-.53-1-1a16,16,0,0,0-10.62-4.68Q32.84,10.4,33.52,9.67Zm-17.39-7a2,2,0,0,1,1-.26c2,0,5.06,2.11,7.54,4.37a53.42,53.42,0,0,1,4.38,4.53,16.07,16.07,0,0,0-11.19,7.24,53.69,53.69,0,0,1-2.12-6.35C14.77,8.3,14.33,3.75,16.13,2.66ZM2.4,28.08c0-1.78,3-3.81,7.91-5.32a51.82,51.82,0,0,1,6.14-1.45l0,0a16.11,16.11,0,0,0-.11,11.33q-.41.86-.8,1.73a51.5,51.5,0,0,1-5.27-1.21C5.43,31.8,2.4,29.83,2.4,28.08ZM24.83,45.74a29.42,29.42,0,0,1-2.72,2.62,17.32,17.32,0,0,1-1.45,1.08c-.24.16-.49.31-.74.45s-.49.26-.73.36a4.45,4.45,0,0,1-1.35.37,1.79,1.79,0,0,1-1-.17,2,2,0,0,1-.77-.78,4.86,4.86,0,0,1-.53-1.42,13.12,13.12,0,0,1-.2-3.6,27.62,27.62,0,0,1,.55-3.83c.26-1.25.6-2.49,1-3.72q1.05.16,2.15.3.49.59,1,1.15a16,16,0,0,0,7.3,4.18l-.06.07C26.53,43.81,25.7,44.8,24.83,45.74Z" style="fill:#303030"/><polygon points="43.16 8.94 40.3 11.65 41.7 12.59 43.16 8.94" style="fill:#303030"/><polygon points="49.32 26.8 49.23 28.48 53.11 27.85 49.32 26.8" style="fill:#303030"/><polygon points="39.47 43.11 42.01 46.12 40.96 42.32 39.47 43.11" style="fill:#303030"/><polygon points="20.63 45.98 23.34 43.13 21.91 42.25 20.63 45.98" style="fill:#303030"/><polygon points="13.6 28.43 13.61 26.75 9.76 27.57 13.6 28.43" style="fill:#303030"/><polygon points="22.64 11.67 19.96 8.79 21.19 12.53 22.64 11.67" style="fill:#303030"/></svg>