<svg xmlns="http://www.w3.org/2000/svg" viewBox="0 0 623.62 255.12"><defs><style>.cls-1{fill:#fff;}.cls-2{fill:#50ee1e;}.cls-3{fill:#181919;}</style></defs><g id="BG"><rect class="cls-1" width="623.62" height="255.12"/></g><g id="Logo"><path class="cls-2" d="M56,92.79c-.78-10-1.74-19.35-2.13-28.72a36.2,36.2,0,0,1,1.57-11.14c4.79-17.09,19-20.35,33.06-15.11C99.73,42,108.84,49.46,117.32,57.1c6.47-4.79,12.54-9.7,19-14,6.88-4.53,14.32-7.69,22.93-7.51,8.11.16,14.31,3.57,17.8,10.59,2.28,4.61,4.13,10,4.22,15,.18,10.33-1,20.69-1.58,31.43,4.29,1.66,9.76,3.25,14.71,5.84,6.13,3.2,12.37,6.57,17.58,11,12.49,10.64,12.29,25.12.09,36.11-8.89,8-19.74,12.34-30.88,16.08l-1.59.54c.68,10.49,1.51,20.58,1.88,30.68a31.9,31.9,0,0,1-1.56,9.62c-3.75,13.21-14.54,19.45-28,16.21-12.24-3-21.95-10.26-31.16-18.37-.84-.75-1.68-1.51-2.54-2.24-.18-.15-.45-.2-.06,0-7.34,5.22-14.22,10.51-21.5,15.18a36.42,36.42,0,0,1-21.41,6.13c-7.66-.28-13.14-3.92-16.9-10.18-5.74-9.58-5.28-20.2-4.28-30.75.49-5.23,1.61-10.39,2.5-15.88-4-1.47-8.1-2.87-12.13-4.51-8.32-3.38-16.23-7.48-22.64-14-10.25-10.35-10.27-23,0-33.31,8.51-8.51,19.32-13,30.42-16.84C53.74,93.5,55.17,93.05,56,92.79Zm42.37,67.33H137l19-32.78c-6.14-10.28-12-20.34-18.2-30.23-.79-1.27-3-2.21-4.66-2.27-7.55-.32-15.11-.28-22.66-.35-3.87,0-7.74,0-11.77,0l-19.1,32.92Zm26.19,30.69c2,1.74,4.22,3.62,6.43,5.46,7.06,5.88,14.48,11.18,23.69,13.16,8.16,1.76,13.92-1.6,16.1-9.64,3.19-11.74.93-23.25-1.7-34.58l-26.95,4.26Zm44.71-101c.74-4,1.68-8,2.2-12.1,1-8,1.73-16-1.13-23.86-2.44-6.68-7.81-10-14.39-8.7-12.77,2.58-22,10.91-31.23,19L142,85.53ZM59.22,153l9.9-25.57c-3.27-8.44-6.56-16.92-9.89-25.54-9.06,2.67-17.6,5.93-25.21,11.21a35.53,35.53,0,0,0-7,6.29c-4.26,5.08-4.18,11,0,16.17a28.13,28.13,0,0,0,4.84,4.73C40,146.47,49.37,150.07,59.22,153Zm117-51.06c-3.49,8.84-6.84,17.3-10.09,25.5,3.31,8.37,6.65,16.81,10,25.25,8-1.36,21.86-7.8,28.18-13.05,9.58-7.95,9.59-16.74-.21-24.49C195.92,108.69,186.36,105,176.26,102ZM66.11,165.28c-.78,4.35-1.85,8.75-2.29,13.2-.77,7.92-1.73,15.91,1.63,23.57,2.69,6.15,7.89,9,14.52,7.62,12.47-2.63,21.48-10.84,30.59-18.79-5.48-6.94-10.67-13.66-16.06-20.21a6.67,6.67,0,0,0-3.91-1.81C82.67,167.61,74.72,166.52,66.11,165.28ZM110.7,64.21c-8.12-7.47-16.48-14.44-27.07-18.07-10.18-3.48-17.52.27-19.3,10.8-1.11,6.58-.71,13.48-.4,20.22.2,4.26,1.46,8.48,2.23,12.63l27.25-4.26Zm18.58,20.57L117.65,71.07,106.21,84.78ZM68.7,155.69l17.55,3L74.86,139C72.72,144.78,70.8,150,68.7,155.69Zm0-56.41L74.87,116c4-7,7.61-13.14,11.47-19.81Zm80.45,59.52,17.57-3.2L160.57,139Zm-31.39,25,11.34-13.52h-22.7Zm31.4-87.62c3.85,6.64,7.45,12.83,11.48,19.8l6.05-16.74C160.58,98.23,155.08,97.26,149.12,96.23Z"/><path class="cls-2" d="M263.52,209.17c-3.44-27.53-6.87-54.93-10.33-82.6h10.18q3.74,29.82,7.48,59.71h.5c2.5-19.85,5-39.7,7.52-59.74H608.68v8.86H287.92c-3.1,24.69-6.16,49.09-9.26,73.77Z"/><path class="cls-3" d="M531,203.46H519.67V170.59l-.66-.33L504.55,192l-14.7-22.14v33.6H478.32V150.93h12.54L504.7,173l13.9-22.21H531Z"/><path class="cls-3" d="M412.38,150.69h12.51l14,22.32,13.86-22.22h12.38v52.68h-11.3V170.55l-.65-.34L438.7,192l-14.85-22.35v33.74H412.38Z"/><path class="cls-3" d="M339.44,84.38c4.16,6.08,8.23,12.05,12.6,18.45h-13.7c-3.61-5.29-7.43-10.85-11.2-16.35h-9v16.43H306.5V49.75c10.49.42,21.05.24,31.45,1.46,7.44.88,11.68,6.74,12.65,14.47.95,7.52-2.2,13.92-8.59,17.42C341.24,83.52,340.45,83.88,339.44,84.38ZM318.38,60.79v15c4.27,0,8.29.09,12.3,0,4.93-.13,7.93-2.85,8.12-7.13.2-4.51-2.59-7.49-7.79-7.81C326.89,60.6,322.74,60.79,318.38,60.79Z"/><path class="cls-3" d="M361.36,50.23h39.8V60.56H373.09V71.15h24.54V81.73H373.05v11h28.46v10.18H361.36Z"/><path class="cls-3" d="M388.68,150.77h11.2c0,12.17.73,24.27-.22,36.24-.81,10.13-8.31,16.25-18.52,17.16a45.43,45.43,0,0,1-9.4-.11c-9.16-1.12-16.3-7.37-16.89-16.6-.79-12.1-.2-24.28-.2-36.63h11.22c0,9.7-.05,19.22,0,28.75a25.5,25.5,0,0,0,.87,7c1.55,5.07,5.47,7.29,11.51,7,5.08-.24,8.56-3,9.71-7.89a29.23,29.23,0,0,0,.66-6.34C388.72,170,388.68,160.54,388.68,150.77Z"/><path class="cls-3" d="M441.54,49.94c7.48,17.51,15,35.09,22.64,53H451.93L447.2,91.59H424.67q-2.26,5.37-4.75,11.32H408l22.58-53ZM429.4,80.76h13.42c-2.32-5.64-4.49-10.91-6.87-16.71-2.2,5.28-4.22,10.08-6.2,14.9A8.3,8.3,0,0,0,429.4,80.76Z"/><path class="cls-3" d="M337.42,165.08c-3.71-1.53-7-3.06-10.41-4.21a13.21,13.21,0,0,0-5.21-.44c-2.5.21-4.75,1.13-5.17,4s1.41,4.36,3.88,5.21c5.34,1.82,10.86,3.24,16,5.52,7,3.1,9.47,8.93,7.9,16.44-1.48,7.07-6.28,10.86-12.9,12.12-10.57,2-20.22-.29-28.78-7.78l6.18-7.47c5.1,1.94,9.64,4,14.37,5.33a11.08,11.08,0,0,0,6.6-.66,4.31,4.31,0,0,0,.55-7.93c-2.48-1.39-5.36-2.07-8.09-3-2.5-.82-5.1-1.39-7.54-2.37-7.39-2.95-10.25-7.25-10-14.65.24-6.69,4.25-12,11.12-14.08,9.86-2.92,18.8-.64,27.27,5.49Z"/><path class="cls-3" d="M509.29,87.26l7.06,7.65c-9.19,11.28-28.69,12.5-39.76,2.55a28,28,0,0,1-1.37-40.15c10.79-11.07,29.59-10.81,40.42.78l-6.74,7.77c-9.94-7.29-18.49-7.65-24.59-1.21-5.88,6.21-6.09,17.1-.45,23.49C490,95.12,498,94.89,509.29,87.26Z"/><path class="cls-3" d="M540.35,60.93H524.28V50.38h43.77V60.77H552.11V103H540.35Z"/><path class="cls-3" d="M609.45,150.85v10.42H593.72v42.21H581.85v-41.9H565.8V150.85Z"/><path class="cls-3" d="M556.09,150.89v52.52H544.68V150.89Z"/><path class="cls-2" d="M593.91,63.58h13.4v6.18H583.56V64c3.25-2.66,7-5.64,10.58-8.71a31.08,31.08,0,0,0,4.32-4.18c1.61-2,2.13-4.45.11-6.48s-4.4-1.51-6.53,0a35.38,35.38,0,0,0-3.31,3l-4.86-3.89c2.61-4.18,6.11-6.46,10.86-6.84,5.12-.42,9.66,1.7,11.53,5.5a11.26,11.26,0,0,1-2.68,13.1C600.76,58.15,597.63,60.49,593.91,63.58Z"/><path class="cls-2" d="M117.55,112.9c7.69-.11,15,6.44,14.75,13.73-.26,9.76-5.78,15.05-14.75,15.54-7.48.42-14.35-6.68-14.5-14.42A14.84,14.84,0,0,1,117.55,112.9Z"/></g></svg>