<svg xmlns="http://www.w3.org/2000/svg" xmlns:xlink="http://www.w3.org/1999/xlink" viewBox="0 0 623.62 255.12"><defs><style>.cls-1{fill:#fff;}.cls-2{fill:url(#linear-gradient);}</style><linearGradient id="linear-gradient" x1="38.01" y1="970.83" x2="123.84" y2="1152.71" gradientTransform="translate(0 -935.25)" gradientUnits="userSpaceOnUse"><stop offset="0" stop-color="#7caae7"/><stop offset="0.08" stop-color="#7498db"/><stop offset="0.28" stop-color="#626dbd"/><stop offset="0.49" stop-color="#544ba6"/><stop offset="0.68" stop-color="#493395"/><stop offset="0.85" stop-color="#43248b"/><stop offset="1" stop-color="#411f88"/></linearGradient></defs><title>rubygarage</title><g id="BG"><rect class="cls-1" width="623.62" height="255.12"/></g><g id="Logo"><g id="Слой_2" data-name="Слой 2"><g id="Слой_1-2" data-name="Слой 1-2"><path class="cls-2" d="M66.66,167A26.06,26.06,0,1,1,68,219.07H66.66A26.06,26.06,0,0,1,65.28,167Zm0-109.1c29.09,0,52.49,23,52.49,51.5s-23.4,51.51-52.49,51.51-52.49-23.2-52.49-51.51S37.56,57.87,66.66,57.87Zm0,19.26A32.24,32.24,0,1,0,98.9,109.37,32.26,32.26,0,0,0,66.66,77.13ZM105,36.05A12.84,12.84,0,0,0,91.82,48.82h0A13.18,13.18,0,1,0,105,36.05Z"/></g></g><path d="M233.36,108.78a4.45,4.45,0,0,0-4.52,4.52v16.32c0,7.47-4.32,13.17-11.79,13.37-6.1,0-10-3.93-10-10.42V113.3a4.45,4.45,0,0,0-4.52-4.52h0A4.45,4.45,0,0,0,198,113.3v22c0,10.23,5.9,16.52,15.73,16.52,6.88,0,12.38-2.76,15.13-8.65v4.12a4.46,4.46,0,0,0,4.52,4.53h0a4.46,4.46,0,0,0,4.53-4.53v-34a4.34,4.34,0,0,0-4.53-4.52Z"/><path d="M270.72,108.39c-6.69,0-11.8,2.75-15,7.67V96.79a5,5,0,0,0-4.12-4.91,4.71,4.71,0,0,0-5.11,4.52v50.72a4.45,4.45,0,0,0,4.52,4.52h0a4.45,4.45,0,0,0,4.52-4.52V144c3.14,4.92,8.25,7.67,15.14,7.67,12.18,0,20.24-8.65,20.24-21.43C291,117.24,282.71,108.39,270.72,108.39Zm-2,35.39c-7.67,0-13-5.71-13-14,0-8.06,5.31-13.76,13-13.76s13,5.89,13,13.76C281.72,138.07,276.42,143.78,268.75,143.78Z"/><path d="M302,108.78h0a4.37,4.37,0,0,1,4.33,4.33V129c0,7.67,5.11,13.17,12.38,13.17s12.19-5.5,12.19-13.17V113.11a4.37,4.37,0,0,1,4.33-4.33h.39a4.36,4.36,0,0,1,4.32,4.33v34.2c0,12.19-8.65,20.06-22.21,20.06a29,29,0,0,1-14.15-3.54,3.76,3.76,0,0,1-1.58-5.31h0a3.8,3.8,0,0,1,5.11-1.38,20.62,20.62,0,0,0,10.42,2.76c8.06,0,13.37-4.72,13.37-12.19V142.4c-2.95,4.72-7.67,7.27-14.15,7.27-11.6,0-19.27-8.25-19.27-20.64V113.3C297.65,110.55,299.42,108.78,302,108.78Z"/><path d="M197.39,159.7l-17.1-27.13c6.88-3.14,10.81-9.24,10.81-17.89,0-12.19-8.26-19.07-22.61-19.07H150.4a4.78,4.78,0,0,0-4.71,4.72v46.59a4.72,4.72,0,1,0,9.43,0V134.73h15.34l18.87,29.88a4.62,4.62,0,0,0,6.49,1.58A5,5,0,0,0,197.39,159.7Zm-42.27-33.22V104.26h13.37c8.65,0,13.57,3.34,13.57,10.81,0,6.49-3.54,10.23-10.23,11.21a25.18,25.18,0,0,1-3.34.2Z"/><path d="M469.07,109.57a14.43,14.43,0,0,0-9.24,8.06V113.7a4.52,4.52,0,0,0-9,0v33.42a4.52,4.52,0,1,0,9,0V129.23a12.39,12.39,0,0,1,11-11.6,4.22,4.22,0,0,0,3.54-4.13C474.38,110.55,472,108.59,469.07,109.57Z"/><path d="M557.14,108.78a4.45,4.45,0,0,0-4.52,4.52v2.56c-3-4.52-7.86-7.27-14.35-7.08-11.21,0-18.68,8.26-18.68,20.06,0,12.18,7.67,20.44,19.07,20.44,6.29,0,11.21-2.56,14-7.08v5.31c0,7.27-5.31,12-13.17,12A21.88,21.88,0,0,1,529.23,157a3.68,3.68,0,0,0-4.92,1.18l-.2.19a3.8,3.8,0,0,0,1.38,5.11A29.29,29.29,0,0,0,539.84,167c13.17,0,21.82-7.66,21.82-19.85V113.3A4.45,4.45,0,0,0,557.14,108.78ZM540.43,142.2c-7.27,0-12.19-5.3-12.38-13,0-7.47,5.11-13,12.38-13,7.08,0,12.19,5.31,12.19,13C552.62,136.7,547.7,142.2,540.43,142.2Z"/><path d="M589.77,108.78c-12.58,0-21.42,8.65-21.42,21.43S577,151.64,590,151.64a23.74,23.74,0,0,0,14.55-4.52,3.45,3.45,0,0,0,.39-5.31,3.84,3.84,0,0,0-4.72-.39,15.84,15.84,0,0,1-9.43,3c-6.69,0-11.6-4.13-13.17-10.62h28.3a3.45,3.45,0,0,0,3.54-3.74C609,117,602.75,108.78,589.77,108.78Zm-12.18,18.29c1-6.69,5.7-11,12.38-11,6.88,0,11.4,4.13,11.8,11Z"/><path d="M426.21,108.78a29,29,0,0,0-14.94,3.54,3.63,3.63,0,0,0-1.37,5.11,3.74,3.74,0,0,0,4.91,1.38,21.31,21.31,0,0,1,9.44-2.56c6.68,0,10,3.15,10,8.46v1.18H421.5c-10.23,0-15.93,4.91-15.93,12.77,0,7.47,5.7,13.18,14.94,13.18,5.9,0,10.62-1.77,13.76-5.31v.78a4.53,4.53,0,1,0,9.05,0V123.72C443.12,114.29,437,108.78,426.21,108.78Zm8.06,27.72c-.39,4.52-5.5,8.06-12,8.06-5.11,0-8.25-2.55-8.25-6.29,0-4.13,2.75-5.7,8.65-5.7h11.4v3.93Z"/><path d="M497,108.78A29,29,0,0,0,482,112.32a3.64,3.64,0,0,0-1.37,5.11,3.74,3.74,0,0,0,4.91,1.38,21.31,21.31,0,0,1,9.44-2.56c6.68,0,10,3.15,10,8.46v1.18H492.27c-10.23,0-15.93,4.91-15.93,12.77,0,7.47,5.7,13.18,14.94,13.18,5.9,0,10.62-1.77,13.77-5.31v.78a4.52,4.52,0,1,0,9,0V123.72C513.89,114.29,507.8,108.78,497,108.78Zm7.86,27.72c-.39,4.52-5.31,8.06-11.8,8.06-5.11,0-8.25-2.55-8.25-6.29,0-4.13,2.75-5.7,8.65-5.7h11.4Z"/><path d="M394,121.56h-9.82a4.13,4.13,0,0,0,0,8.26H390v9.83a25.87,25.87,0,0,1-12.78,3.73c-11.4,0-20.24-8.65-20.24-19.85,0-11,8.84-19.66,20.24-19.66a23.85,23.85,0,0,1,13,3.93,4.54,4.54,0,0,0,5.7-1,4.16,4.16,0,0,0-1.18-6.29,33.46,33.46,0,0,0-17.5-4.92c-16.9,0-29.68,12.19-29.68,28.11s12.78,28.12,29.29,28.12a39.29,39.29,0,0,0,19.46-5.71A4.61,4.61,0,0,0,398.5,142V125.49A4.66,4.66,0,0,0,394,121.56Z"/></g></svg>