<svg xmlns="http://www.w3.org/2000/svg" xmlns:xlink="http://www.w3.org/1999/xlink" viewBox="0 0 623.62 255.12"><defs><style>.cls-1{fill:#fff;}.cls-2{fill:#e60004;}.cls-3{fill:#b70a11;}.cls-4{fill:url(#radial-gradient);}.cls-5{fill:#e40005;opacity:0.6;isolation:isolate;}</style><radialGradient id="radial-gradient" cx="253.66" cy="115.38" r="107.55" gradientTransform="matrix(1, 0.01, 0.01, -1, 6.6, 240.02)" gradientUnits="userSpaceOnUse"><stop offset="0" stop-color="#e7301e"/><stop offset="1" stop-color="#a30004"/></radialGradient></defs><g id="BG"><rect class="cls-1" width="623.62" height="255.12"/></g><g id="Logo"><path class="cls-2" d="M391.19,20.16c4.24-.2,8.7-.33,13.2-.33,10.4,0,15,4.52,15,11.31,0,4.91-2.16,8.37-6.54,10.4v.13c4.78,1.24,8.05,4.84,8.05,10.66,0,9.08-6.8,13.72-17,13.72-5.55,0-9.81-.13-12.74-.32V20.16Zm8,7.39V39.12h5.42c4,0,6.8-2.1,6.8-6.08,0-3.66-2.75-5.69-7.19-5.69C402.37,27.35,400.67,27.42,399.23,27.55Zm0,18.57V58.21a48.86,48.86,0,0,0,5.3.32c5.55,0,8.36-2.22,8.36-6.6,0-3.86-2.94-5.81-8-5.81Z"/><path class="cls-2" d="M463.35,20,447.08,46.7V65.79h-8V46.7L422.89,20H432l11.38,19.16L454.66,20Z"/><path class="cls-2" d="M391.25,102.17c3.81-3.75,10.52-10.06,10.52-15a3.56,3.56,0,0,0-3.3-3.79,4.34,4.34,0,0,0-.51,0,4.22,4.22,0,0,0-4.21,3.75l-2.27-.92a6.51,6.51,0,0,1,6.69-5.5,5.9,5.9,0,0,1,6.3,5.46c0,.16,0,.31,0,.48,0,6.54-8,13.6-9.83,15.24h10.8v2.5H391.19Z"/><path class="cls-2" d="M416,80.66c5.28,0,7.6,5,7.6,12s-2.25,12-7.54,12-7.66-4.92-7.66-12S410.74,80.66,416,80.66Zm0,21.45c3.41,0,4.69-3.41,4.69-9.47s-1.35-9.45-4.76-9.45-4.77,3.47-4.77,9.45,1.6,9.47,4.9,9.47Z"/><path class="cls-2" d="M426.42,102.17c3.81-3.75,10.52-10.06,10.52-15a3.56,3.56,0,0,0-3.3-3.79,4.34,4.34,0,0,0-.51,0,4.22,4.22,0,0,0-4.21,3.75l-2.27-.92a6.49,6.49,0,0,1,6.67-5.5,6,6,0,0,1,6.42,5.94c0,6.54-8,13.6-9.83,15.24h10.74v2.5H426.37Z"/><path class="cls-2" d="M451.17,80.66c5.28,0,7.61,5,7.61,12s-2.24,12-7.61,12-7.64-4.92-7.64-12S445.91,80.66,451.17,80.66Zm0,21.45c3.44,0,4.7-3.41,4.7-9.47s-1.35-9.45-4.76-9.45-4.73,3.47-4.73,9.45S448,102.11,451.17,102.11Z"/><polygon class="cls-3" points="173.42 239.91 160.27 132.45 255.23 19.59 363.36 14.18 403.24 240.51 173.42 239.91"/><polygon class="cls-4" points="173.42 239.9 160.27 132.45 255.23 19.59 363.36 14.18 173.42 239.9"/><polygon class="cls-5" points="255.23 20.34 363.35 14.93 403.24 240.51 255.23 20.34"/><polygon class="cls-5" points="173.42 239.94 160.27 132.49 403.24 240.51 173.42 239.94"/><path class="cls-1" d="M231.75,99.47a15.26,15.26,0,0,0,10.11-15.08c0-9.13-4.68-16.29-19.07-16.29l-9,.1h0l-7,8.37V121H216V101.26h6.48L237,121h11.22ZM222,92.61h-6V76.94c2.5,0,4.59-.15,6.35-.15,7.54,0,9.82,3.54,9.82,7.69C232.13,89.84,227.39,92.61,222,92.61Z"/><path class="cls-1" d="M208.79,187.27c-.53,0-1.08,0-1.61,0a26.56,26.56,0,0,0-25.82,27.22c0,13.24,7.57,22.71,18.62,25.95l17.31.07a26.26,26.26,0,0,0,19.05-26C236.33,198.06,224.49,187.27,208.79,187.27Zm0,45.78-.55,0a17.8,17.8,0,0,1-17.07-18.52,22.38,22.38,0,0,1,.19-3,19.71,19.71,0,0,1,.84-3.66,16.89,16.89,0,0,1,8.6-10.11,16.31,16.31,0,0,1,4.32-1.46,20.84,20.84,0,0,1,3.66-.34c10,0,17.73,7.63,17.73,18.56C226.52,224.91,219.87,233.05,208.79,233.05Z"/><path class="cls-1" d="M276.85,221v19.65l-8.66,0V222.49c0-5.42-2.8-8-7.6-8a10.12,10.12,0,0,0-7.4,3.25v22.81l-8.68-.09V207h8.66v3.38a13.62,13.62,0,0,1,9.74-4C271.19,206.34,276.85,210.34,276.85,221Z"/><path class="cls-1" d="M302.63,238.79a11.66,11.66,0,0,1-3.43,1.91l-9.64,0c-2.57-1.37-3.9-4.36-3.9-9.15V188.13h8.68V228c0,3.83.89,5.51,2.92,5.51a6.12,6.12,0,0,0,3.56-1.38Z"/><path class="cls-1" d="M329.19,240.72v-33.9h8.47v3.39a13.6,13.6,0,0,1,9.81-3.88c8.3,0,13.94,4,13.94,14.64v19.89l-8.75,0V222.5c.09-5.42-2.69-8-7.52-8a10.08,10.08,0,0,0-7.47,3.25v23"/><polyline class="cls-1" points="309.49 240.72 309.49 206.82 318.16 206.82 318.16 240.72"/><path class="cls-1" d="M319,194.69v.07a5.06,5.06,0,0,1-4.7,5.42,1.32,1.32,0,0,1-.28,0,5.19,5.19,0,0,1-5.42-4.95v-.49a5.08,5.08,0,0,1,5.12-5.06,1.51,1.51,0,0,1,.3,0A5,5,0,0,1,319,194.69Z"/><path class="cls-1" d="M284.52,87.11V121h-8.67v-4.24a13.78,13.78,0,0,1-10.87,5c-6.63,0-11.9-4.24-11.9-14V87.11h8.67V106c0,4.53,1.73,7.78,6.48,7.78a9.81,9.81,0,0,0,7.62-4.24V87.11Z"/><path class="cls-1" d="M311.8,86.28a14.73,14.73,0,0,0-9,2.94v-21h-8.67v49.8a30,30,0,0,0,14.41,3.77v0c11.9,0,19.36-7.16,19.36-18.32C327.92,93.52,321.9,86.28,311.8,86.28Zm6.8,18.83a9.14,9.14,0,0,1-9.6,8.68,10.9,10.9,0,0,1-6.19-1.74V97.65a9.44,9.44,0,0,1,6.95-3.24c4.89,0,8.83,3.24,8.83,9.72A6.41,6.41,0,0,1,318.6,105.11Z"/><path class="cls-1" d="M366.81,87.14,353.46,121c-5,12.11-8.14,15.06-13.11,15.06a12.06,12.06,0,0,1-7.31-2.63l2.8-6.57a7.35,7.35,0,0,0,3.53,1.21c2.12,0,3.77-1.74,5.2-5.27l.76-1.8-15.67-33.9h10.4L348,105.7c.68,1.65,1.12,3.24,1.65,4.89a33.49,33.49,0,0,1,1.21-5l6.1-18.47Z"/><path class="cls-1" d="M278.78,176c-3.25,3.54-9.94,5.95-16.8,5.95-16.14,0-27.22-10.78-27.22-27.22,0-15.14,9.57-27.2,27-27.2a24,24,0,0,1,16.05,5.34l-4.24,6.87a19.83,19.83,0,0,0-11.9-3.54c-9.79,0-17.18,7.07-17.18,18.53,0,11,7.46,18.56,18.24,18.56A20.54,20.54,0,0,0,275.24,169Z"/><path class="cls-1" d="M299.73,146.33c-11.23,0-18.46,7.6-18.46,17.79s7.22,17.79,18.46,17.79,18.47-7.62,18.47-17.79S311,146.33,299.73,146.33Zm0,27.52a4.23,4.23,0,0,1-.6,0,9.18,9.18,0,0,1-8.6-9.7c0-.25,0-.49,0-.71a9.07,9.07,0,0,1,9.21-8.92,9.68,9.68,0,0,1,0,19.36Z"/><path class="cls-1" d="M358.09,161.2v19.93H349.4V162.7c0-5.44-2.77-8-7.6-8a10.11,10.11,0,0,0-7.39,3.24v23.15h-8.67V147.2h8.67v3.39a13.58,13.58,0,0,1,9.72-4C352.43,146.59,358.09,150.59,358.09,161.2Z"/><path class="cls-1" d="M376,147.22h9.19v8.13H376v25.74h-8.71V141.68c0-9.43,4.53-14.17,12.08-14.17a15.6,15.6,0,0,1,4.46.57l1.55,8.81a7.28,7.28,0,0,0-4.4-1.21c-2.95,0-5,2.11-5,6.71Z"/><path class="cls-1" d="M387.27,234.49c-5.36,0-9.42-2.8-10.19-7.93h24.13l-2.6-14.78a16.09,16.09,0,0,0-12.54-5.55,14.9,14.9,0,0,0-1.64,0,17.08,17.08,0,0,0-16.3,17.73,16.6,16.6,0,0,0,12.35,16.92l11.95.08a17.46,17.46,0,0,0,6.9-3.44l-2.47-6.11A15.69,15.69,0,0,1,387.27,234.49Zm-1.61-21.11a6.33,6.33,0,0,1,1,0,7.1,7.1,0,0,1,6.8,7.41H376.78A8.48,8.48,0,0,1,385.66,213.38Z"/></g></svg>