<?xml version="1.0" encoding="utf-8"?>
<!-- Generator: Adobe Illustrator 16.0.3, SVG Export Plug-In . SVG Version: 6.00 Build 0)  -->
<!DOCTYPE svg PUBLIC "-//W3C//DTD SVG 1.1//EN" "http://www.w3.org/Graphics/SVG/1.1/DTD/svg11.dtd">
<svg version="1.1" xmlns="http://www.w3.org/2000/svg" xmlns:xlink="http://www.w3.org/1999/xlink" x="0px" y="0px" width="623.6px"
	 height="255.1px" viewBox="0 0 623.6 255.1" style="enable-background:new 0 0 623.6 255.1;" xml:space="preserve">
<style type="text/css">
<![CDATA[
	.st0{fill:#242830;}
	.st1{fill:#FFFFFF;}
]]>
</style>
<g id="BG">
	<rect class="st1" width="623.6" height="255.1"/>
</g>
<g id="Logo">
	<g>
		<path class="st0" d="M191.4,123.4l-16.4-3.1c-6.3-1-9.9-3.4-9.9-8c0-6.1,6.9-9.6,13.9-9.6c5.3,0,12.4,1.7,20.5,8.4l9.3-11.5
			c-10.4-7.4-19.6-10.5-30.1-10.5c-18.9,0-29.8,12-29.8,24.8c0,10.8,6,17.7,27.3,21.7l9.2,1.7c6,1.1,9.9,3.7,9.9,8.8
			c0,4.2-5.7,9.6-15.1,9.6c-8.4,0-18-4.9-23.8-11.2l-11.3,11.3c10.4,8.8,21.3,13.3,34.2,13.3c23,0,32.1-14.3,32.1-25.6
			C211.5,132.4,204.9,125.9,191.4,123.4z"/>
		<path class="st0" d="M259.8,89.2c-26.6,0-41.8,19.9-41.8,39.9s15.4,39.9,41.8,39.9c26.4,0,41.8-19.9,41.8-39.9
			C301.6,109.2,286.3,89.2,259.8,89.2z M259.8,153.8c-13.6,0-24.6-11-24.6-24.6s11-24.6,24.6-24.6c13.6,0,24.6,11,24.6,24.6
			c0.2,13.3-10.4,24.3-23.8,24.6C260.3,153.8,260.1,153.8,259.8,153.8z"/>
		<path class="st0" d="M357.8,68.5c-4.5,0-8.2,3.7-8.2,8.2s3.7,8.2,8.2,8.2c4.5,0,8.2-3.7,8.2-8.2S362.3,68.5,357.8,68.5z"/>
		<rect x="349.6" y="101.2" class="st0" width="16.2" height="67.9"/>
		<path class="st0" d="M441,97.1c-7.5-5.3-16.4-8-25.6-7.8c-26.4,0-41.8,19.9-41.8,39.9s15.4,39.9,41.8,39.9
			c9.1,0.1,18.1-2.6,25.6-7.9v7.8h16.2V68.5H441V97.1z M415.5,153.8c-13.6,0-24.6-11-24.6-24.6s11-24.6,24.6-24.6
			c13.6,0,24.6,11,24.6,24.6c0.2,13.3-10.4,24.3-23.8,24.6C416,153.8,415.7,153.8,415.5,153.8z"/>
		<path class="st0" d="M518.3,133.7c0,11.2-8.2,19.1-18.3,19.1s-18.3-8-18.3-19.1V89.4h-16.4v45.8c0,21.3,16.6,34,34.6,34
			c18,0,34.7-12.7,34.7-34V89.4h-16.4V133.7z"/>
		<path class="st0" d="M583.8,123.6l-16.4-3.1c-6.3-1-9.9-3.4-9.9-8c0-6.1,6.9-9.6,13.9-9.6c5.3,0,12.4,1.7,20.5,8.5l9.3-11.5
			c-10.3-7.4-19.6-10.5-30.1-10.5c-18.9,0-29.8,12-29.8,24.8c0,10.7,6,17.7,27.2,21.6l9.2,1.8c6,1.1,9.9,3.7,9.9,8.8
			c0,4.2-5.6,9.6-15,9.6c-8.5,0-18-4.9-23.8-11.2l-11.1,11.4c10.3,8.8,21.2,13.3,34.1,13.3c23,0,32.1-14.3,32.1-25.6
			C603.9,132.6,597.2,126.1,583.8,123.6z"/>
		<path class="st0" d="M326.1,138V85.3c0-15.9-7.8-21.6-24.6-29.6l-7.2,12.8l8.8,5c4.5,2.6,6.4,5.6,6.6,13.2v52.8
			c0,15.9,7.8,21.6,24.6,29.6l7.2-12.8l-8.8-5.1C328.1,148.6,326.3,145.7,326.1,138z"/>
		<path class="st0" d="M19.8,199.7h89.8V55.4H19.8V199.7z M32.6,68.3h63.9v118.4H32.6V68.3z"/>
		<path class="st0" d="M71,147.5v-40.7c0-12.3-6-16.6-19-22.8l-5.5,9.9l6.8,3.9c3.5,2,4.9,4.3,5.1,10.2v40.7c0,12.3,6,16.6,19,22.8
			l5.5-9.9l-6.8-4C72.6,155.7,71.2,153.4,71,147.5z"/>
	</g>
</g>
</svg>
