<?xml version="1.0" encoding="utf-8"?>
<!-- Generator: Adobe Illustrator 16.0.3, SVG Export Plug-In . SVG Version: 6.00 Build 0)  -->
<!DOCTYPE svg PUBLIC "-//W3C//DTD SVG 1.1//EN" "http://www.w3.org/Graphics/SVG/1.1/DTD/svg11.dtd">
<svg version="1.1" xmlns="http://www.w3.org/2000/svg" xmlns:xlink="http://www.w3.org/1999/xlink" x="0px" y="0px" width="623.6px"
	 height="255.1px" viewBox="0 0 623.6 255.1" style="enable-background:new 0 0 623.6 255.1;" xml:space="preserve">
<style type="text/css">
<![CDATA[
	.st0{clip-path:url(#SVGID_2_);fill:#E7424F;}
	.st1{clip-path:url(#SVGID_4_);fill:#E7424F;}
	.st2{fill:#FFFFFF;}
	.st3{clip-path:url(#SVGID_2_);fill:#FFFFFF;}
	.st4{clip-path:url(#SVGID_4_);fill:#FFFFFF;}
	.st5{fill:#42E7DA;}
]]>
</style>
<g id="BG">
	<rect class="st2" width="623.6" height="255.1"/>
</g>
<g id="Logo">
	<rect x="198.4" y="14.2" class="st5" width="226.8" height="226.8"/>
	<g>
		<defs>
			<rect id="SVGID_1_" x="198.4" y="14.2" width="226.8" height="226.8"/>
		</defs>
		<clipPath id="SVGID_2_">
			<use xlink:href="#SVGID_1_"  style="overflow:visible;"/>
		</clipPath>
		<path class="st0" d="M257.5,71.5l5.3,3.1c1.4,0.8,1.7,1.2,1.7,2c0,1.2-0.5,1.9-2.3,1.9c-2,0-5.9-0.4-7.5-0.6h-0.1
			c-0.4,0-0.7,0.3-0.7,0.7v4.5c0,0.4,0.4,0.6,0.8,0.7c2,0.6,4.4,1,7.4,1c7.6,0,10.4-4.3,10.4-8.4c0-3.1-1.3-5.5-4.9-7.4l-5-2.6
			c-1.6-0.8-1.9-1.2-1.9-1.9c0-0.8,0.5-1.3,1.8-1.3c2.6,0,6.8,0.4,8.4,0.5h0.1c0.4,0,0.7-0.3,0.7-0.7v-4.6c0-0.4-0.3-0.6-0.7-0.7
			c-1.5-0.4-5.4-0.9-8.4-0.9c-7.4,0-9.6,3.3-9.6,7.3C253.2,67,254.1,69.5,257.5,71.5"/>
		<path class="st0" d="M277.7,84.5h5.9c0.4,0,0.7-0.3,0.7-0.7v-8.3c1,0,1.8,0.1,2.6,0.1c5.3,0,11.4-2,11.4-9.3V66
			c0-7.3-6-9.2-11.5-9.2c-2.6,0-5.9,0.2-7.8,0.5c-1.5,0.3-2.1,0.7-2.1,2.4v24.2C277,84.3,277.3,84.5,277.7,84.5 M284.3,63.1
			c0.2,0,2.4,0,2.6,0c2.5,0,3.9,0.8,3.9,3v0.3c0,2.1-1.4,3.1-3.9,3.1c-0.2,0-2.4,0-2.6,0V63.1z"/>
		<path class="st0" d="M311.6,84.9c3.6,0,5.9-0.3,7.3-0.4c0.5-0.1,0.7-0.3,0.7-0.7v-4.5c0-0.4-0.3-0.7-0.7-0.7h-7.4
			c-1.3,0-1.8-0.4-1.8-1.8v-3.1h9.1c0.4,0,0.7-0.3,0.7-0.7v-4.3c0-0.4-0.3-0.7-0.7-0.7h-9.1V65c0-1.4,0.4-1.8,1.8-1.8h7.4
			c0.4,0,0.7-0.3,0.7-0.7V58c0-0.4-0.3-0.7-0.7-0.7c-1.4-0.2-3.7-0.4-7.3-0.4c-4.7,0-9.4,1.1-9.4,8.2v11.6
			C302.2,83.7,306.9,84.9,311.6,84.9"/>
		<path class="st0" d="M336,84.9c2.3,0,4.2-0.3,5.2-0.7c0.6-0.2,0.8-0.3,0.8-0.8v-4.7c0-0.5-0.2-0.7-0.7-0.7h-0.1
			c-1.5,0.1-3.1,0.3-5.2,0.3c-2,0-3.8-0.9-3.8-5.6V69c0-4.7,1.8-5.6,3.8-5.6c2.1,0,3.6,0.2,5.2,0.3h0.1c0.4,0,0.7-0.2,0.7-0.7v-4.7
			c0-0.5-0.2-0.6-0.8-0.8c-1-0.3-2.8-0.7-5.2-0.7c-6.8,0-11.3,3.7-11.3,12.1v3.8C324.7,81.2,329.2,84.9,336,84.9"/>
		<path class="st0" d="M348.3,84.5h6c0.4,0,0.7-0.3,0.7-0.7V72.2l6.5,11.7c0.2,0.3,0.3,0.6,0.8,0.6h7.7c0.3,0,0.5-0.2,0.5-0.4
			c0-0.1,0-0.3-0.1-0.4l-8.1-13.1l8-12.7c0.1-0.1,0.1-0.3,0.1-0.4c0-0.3-0.2-0.4-0.5-0.4h-7.1c-0.4,0-0.6,0.3-0.8,0.6L355,69.5V57.9
			c0-0.4-0.3-0.7-0.7-0.7h-6c-0.4,0-0.8,0.3-0.8,0.7v25.9C347.5,84.2,347.9,84.5,348.3,84.5"/>
		<path class="st0" d="M261.9,121c2.1,0,4-0.5,5.5-1.3l0.7,0.7c0.2,0.2,0.3,0.3,0.5,0.3h5.2c0.2,0,0.4-0.2,0.4-0.4
			c0-0.1-0.1-0.3-0.2-0.4l-3.2-3.4c1.1-1.8,1.7-3.9,1.7-6.2v-0.4c0-0.3-0.2-0.6-0.6-0.6h-3.4c-0.3,0-0.6,0.3-0.6,0.6v0.4
			c0,1-0.2,2-0.4,2.8l-3.1-3.3l1.1-0.8c2.1-1.4,3.5-2.6,3.5-5.3v-0.2c0-3.2-2.3-5.5-7.3-5.5c-5.4,0-7.4,2.5-7.4,5.5v0.2
			c0,1.4,0.5,2.5,2.5,4.8l0.3,0.3c-2.3,1.4-3.9,3-3.9,6v0.2C253.1,119.4,256.7,121,261.9,121 M259.6,103.5c0-0.9,0.6-1.5,2.1-1.5
			c1.3,0,1.9,0.6,1.9,1.5v0.2c0,0.8-0.4,1.2-1.8,2.2l-0.7,0.5l-0.2-0.2c-1.1-1.1-1.2-1.7-1.2-2.4V103.5z M259,114.7
			c0-0.9,0.2-1.8,1.3-2.4l4,4.2c-0.7,0.3-1.5,0.5-2.4,0.5c-1.9,0-2.8-0.8-2.8-2.1V114.7z"/>
		<path class="st0" d="M277,94.1v4.7c0,0.4,0.3,0.7,0.7,0.7h6.2v20.5c0,0.4,0.3,0.7,0.7,0.7h6c0.4,0,0.7-0.3,0.7-0.7V99.6h6.1
			c0.4,0,0.8-0.3,0.8-0.7v-4.7c0-0.4-0.4-0.7-0.8-0.7h-19.7C277.4,93.4,277,93.7,277,94.1"/>
		<path class="st0" d="M302.2,101.3v11.6c0,7.1,4.7,8.2,9.4,8.2c3.6,0,5.9-0.3,7.3-0.4c0.5-0.1,0.7-0.3,0.7-0.7v-4.5
			c0-0.4-0.3-0.7-0.7-0.7h-7.4c-1.3,0-1.8-0.4-1.8-1.8v-3.1h9.1c0.4,0,0.7-0.3,0.7-0.7v-4.3c0-0.4-0.3-0.7-0.7-0.7h-9.1v-2.7
			c0-1.4,0.4-1.8,1.8-1.8h7.4c0.4,0,0.7-0.3,0.7-0.7v-4.5c0-0.4-0.3-0.7-0.7-0.7c-1.4-0.2-3.7-0.4-7.3-0.4
			C306.9,93.1,302.2,94.2,302.2,101.3"/>
		<path class="st0" d="M324.7,105.2v3.8c0,8.4,4.6,12.1,11.3,12.1c2.3,0,4.2-0.3,5.2-0.7c0.6-0.2,0.8-0.3,0.8-0.8v-4.7
			c0-0.5-0.2-0.7-0.7-0.7h-0.1c-1.5,0.1-3.1,0.3-5.2,0.3c-2,0-3.8-0.9-3.8-5.6v-3.8c0-4.7,1.8-5.6,3.8-5.6c2.1,0,3.6,0.2,5.2,0.3
			h0.1c0.4,0,0.7-0.2,0.7-0.7v-4.7c0-0.5-0.2-0.6-0.8-0.8c-1-0.3-2.8-0.7-5.2-0.7C329.2,93.1,324.7,96.8,324.7,105.2"/>
		<path class="st0" d="M362.9,94.1v9.4h-7.7v-9.4c0-0.4-0.3-0.7-0.7-0.7h-6c-0.4,0-0.8,0.3-0.8,0.7v25.9c0,0.4,0.4,0.7,0.8,0.7h6
			c0.4,0,0.7-0.3,0.7-0.7v-10h7.7v10c0,0.4,0.3,0.7,0.7,0.7h6c0.4,0,0.7-0.3,0.7-0.7V94.1c0-0.4-0.3-0.7-0.7-0.7h-6
			C363.2,93.4,362.9,93.7,362.9,94.1"/>
		<path class="st3" d="M364.7,152.3c-1.2-1.3-2.6-2.3-4.3-2.9c0,0-0.1,0-0.1-0.1l-30.9-12.2c-0.3-0.1-0.6-0.2-0.9-0.3
			c-0.1,0-0.2,0-0.2-0.1c-0.2-0.1-0.5-0.1-0.7-0.2l-0.1,0c-0.1,0-0.3-0.1-0.4-0.1c-0.3-0.1-0.6-0.1-0.9-0.1c-0.1,0-0.3,0-0.4,0
			c0,0-0.1,0-0.1,0c-0.3,0-0.6,0-1,0c-0.1,0-0.2,0-0.4,0l-54.1,1.5c-0.4,0-0.8,0-1.1,0.1l-0.3,0c-0.3,0-0.6,0.1-0.9,0.1
			c-0.1,0-0.1,0-0.2,0c-0.3,0.1-0.6,0.1-0.9,0.2c-0.1,0-0.1,0-0.2,0.1c-0.4,0.1-0.8,0.2-1.2,0.4c0,0,0,0-0.1,0
			c-0.4,0.1-0.8,0.3-1.2,0.5c-0.1,0-0.1,0.1-0.2,0.1c-0.2,0.1-0.5,0.2-0.7,0.4c-0.1,0-0.1,0.1-0.2,0.1c-0.3,0.2-0.6,0.4-0.9,0.6
			c0,0-0.1,0.1-0.1,0.1c-0.4,0.3-0.7,0.5-1.1,0.8c-0.1,0.1-0.2,0.1-0.2,0.2c-0.1,0.1-0.1,0.1-0.2,0.2c-0.1,0.1-0.2,0.2-0.3,0.3
			l-0.1,0.1l-0.1,0.1c-0.1,0.1-0.2,0.2-0.3,0.3c-0.1,0.1-0.2,0.2-0.2,0.2c0,0-0.1,0.1-0.1,0.1c-0.3,0.3-0.6,0.7-0.8,1.1
			c-0.1,0.1-0.1,0.1-0.2,0.2c-0.1,0.1-0.2,0.2-0.2,0.4l-0.1,0.1c-0.1,0.1-0.1,0.2-0.2,0.3c-0.1,0.2-0.3,0.5-0.4,0.7
			c0,0.1-0.1,0.1-0.1,0.2c0,0,0,0.1-0.1,0.1c-0.1,0.3-0.3,0.6-0.4,1c0,0.1-0.1,0.2-0.1,0.2c-0.1,0.3-0.2,0.6-0.2,0.9
			c0,0.1-0.1,0.2-0.1,0.3c-0.1,0.4-0.1,0.8-0.2,1.1c0,0.1,0,0.2,0,0.4l0,7.4c-0.3,3.2,0.9,6.4,3.4,8.6c0.6,0.6,1.4,1.1,2.1,1.5
			c0.1,0.3,0.4,0.5,0.7,0.4c0.1,0,0.1,0,0.1,0c0.2,0.1,0.5,0.2,0.7,0.3l31.7,12.2l0,0c1.5,0.6,3.1,0.9,4.8,0.9c0.1,0,0.3,0,0.4,0
			l9.8-0.3l3.6-0.1l40-1.1c7-0.2,13-5.3,13.7-11.7c0-0.1,0-0.2,0-0.4l0-7.4C367.5,157.3,366.6,154.5,364.7,152.3"/>
		<path class="st0" d="M367.8,152c-1.2-1.4-2.8-2.4-4.5-3.1c0,0-0.1,0-0.1-0.1l-32.8-13c-0.3-0.1-0.7-0.2-1-0.3
			c-0.1,0-0.2,0-0.3-0.1c-0.3-0.1-0.5-0.1-0.8-0.2l-0.1,0c-0.2,0-0.3-0.1-0.5-0.1c-0.3-0.1-0.7-0.1-1-0.1c-0.2,0-0.3,0-0.4,0
			c0,0-0.1,0-0.1,0c-0.3,0-0.7,0-1,0c-0.1,0-0.3,0-0.4,0l-57.3,1.6c-0.4,0-0.8,0-1.2,0.1l-0.3,0c-0.3,0-0.7,0.1-1,0.2
			c-0.1,0-0.1,0-0.2,0c-0.3,0.1-0.6,0.1-1,0.2c-0.1,0-0.1,0-0.2,0.1c-0.5,0.1-0.9,0.3-1.2,0.4c0,0,0,0-0.1,0
			c-0.4,0.2-0.8,0.3-1.2,0.5c-0.1,0-0.1,0.1-0.2,0.1c-0.3,0.1-0.5,0.3-0.7,0.4c-0.1,0-0.1,0.1-0.2,0.1c-0.3,0.2-0.6,0.4-0.9,0.6
			c0,0-0.1,0.1-0.1,0.1c-0.4,0.3-0.8,0.6-1.1,0.9c-0.1,0.1-0.2,0.1-0.2,0.2c-0.1,0.1-0.2,0.1-0.2,0.2c-0.1,0.1-0.2,0.2-0.3,0.3
			l-0.1,0.1l-0.1,0.1c-0.1,0.1-0.2,0.2-0.3,0.3c-0.1,0.1-0.2,0.2-0.2,0.3c0,0-0.1,0.1-0.1,0.2c-0.3,0.4-0.6,0.7-0.9,1.1
			c-0.1,0.1-0.1,0.2-0.2,0.2c-0.1,0.1-0.2,0.3-0.2,0.4l-0.1,0.1c-0.1,0.1-0.1,0.2-0.2,0.3c-0.1,0.2-0.3,0.5-0.4,0.8
			c0,0.1-0.1,0.2-0.1,0.2c0,0,0,0.1-0.1,0.1c-0.2,0.3-0.3,0.7-0.4,1c0,0.1-0.1,0.2-0.1,0.3c-0.1,0.3-0.2,0.6-0.3,0.9
			c0,0.1-0.1,0.2-0.1,0.3c-0.1,0.4-0.1,0.8-0.2,1.2c0,0.1,0,0.2,0,0.4l0,7.8c-0.3,3.4,1,6.7,3.6,9.1c0.7,0.6,2,1.6,3.9,2.4l33.6,13
			l0,0c1.6,0.6,3.3,0.9,5.1,0.9c0.1,0,0.3,0,0.4,0l10.4-0.3l3.8-0.1l42.3-1.2c7.4-0.2,13.8-5.6,14.5-12.4c0-0.1,0-0.2,0-0.4l0-7.8
			C370.8,157.2,369.9,154.2,367.8,152 M261.2,142.4C261.3,142.4,261.3,142.4,261.2,142.4c0.3-0.2,0.5-0.3,0.7-0.5c0,0,0.1,0,0.1-0.1
			c0.2-0.1,0.4-0.2,0.6-0.3c0,0,0.1,0,0.1,0c0.3-0.2,0.7-0.3,1-0.4c0,0,0,0,0,0c0.3-0.1,0.7-0.2,1-0.3c0,0,0.1,0,0.1,0
			c0.2-0.1,0.5-0.1,0.7-0.2c0.1,0,0.1,0,0.2,0c0.2,0,0.5-0.1,0.7-0.1c0.1,0,0.2,0,0.2,0c0.3,0,0.6-0.1,0.9-0.1l57.3-1.6
			c0.1,0,0.2,0,0.3,0c0.3,0,0.5,0,0.8,0c0,0,0,0,0,0c0.1,0,0.2,0,0.3,0c0.3,0,0.5,0.1,0.8,0.1c0.1,0,0.3,0.1,0.4,0.1
			c0.2,0,0.4,0.1,0.6,0.2c0,0,0.1,0,0.1,0c0.2,0.1,0.5,0.1,0.7,0.2l22,8.7l-49.9,1.4c-4,0.1-7.7,1.8-10.4,4.3l-30-11
			C260.9,142.6,261.1,142.5,261.2,142.4 M286.6,162.8l0,7.2c-0.1,1.7,0.1,3.3,0.7,4.8l-7.2-2.8c0-0.1,0-0.2,0-0.3
			c0-0.4-0.4-0.6-0.7-0.6c-0.2,0-0.4,0.2-0.5,0.4l-7.8-3c0,0,0-0.1,0-0.1c0-0.4-0.4-0.6-0.7-0.6c-0.2,0-0.3,0.1-0.4,0.2l-7.9-3.1
			c-0.1-0.3-0.4-0.5-0.7-0.5c-0.1,0-0.2,0-0.3,0.1c-0.6-0.3-1.1-0.6-1.5-1c0.1-0.1,0.1-0.3,0.1-0.4c0-0.4-0.4-0.6-0.7-0.6
			c0,0-0.1,0-0.1,0c-0.1,0-0.1,0.1-0.2,0.1c-1.3-1.5-2-3.4-1.8-5.6l0-8c0-0.3,0.1-0.5,0.1-0.8c0-0.1,0-0.1,0.1-0.2
			c0-0.2,0.1-0.4,0.2-0.6c0-0.1,0-0.1,0.1-0.2c0.1-0.2,0.2-0.5,0.3-0.7c0,0,0,0,0,0c0,0,0,0,0-0.1c0.1-0.1,0.1-0.2,0.1-0.3
			c0.1-0.1,0.1-0.3,0.2-0.4c0,0,0.1-0.1,0.1-0.1l5.1,1.9c0,0,0,0,0,0.1c0,0.4,0.4,0.6,0.7,0.6c0.2,0,0.3-0.1,0.4-0.2l7.9,2.9
			c0,0,0,0.1,0,0.1c0,0.4,0.4,0.6,0.7,0.6c0.2,0,0.3-0.1,0.4-0.2l7.9,2.9c0,0,0,0.1,0,0.1c0,0.4,0.4,0.6,0.7,0.6
			c0.2,0,0.3-0.1,0.4-0.2l5.9,2.2c-0.9,1.5-1.5,3.2-1.6,5c0,0,0,0,0,0.1c-0.2,0.1-0.2,0.3-0.2,0.6
			C286.4,162.6,286.5,162.7,286.6,162.8 M367.2,160.1l0,8c-0.5,5-5.5,9.2-11.2,9.3l-56.8,1.6c-2.9,0-5.5-1.1-7.2-3
			c-1.5-1.6-2.1-3.7-1.9-5.9l0-8c0.5-5,5.5-9.2,11.2-9.3l56.8-1.6h0c2.9,0,5.5,1.1,7.2,3C366.7,155.9,367.4,157.9,367.2,160.1"/>
		<path class="st0" d="M324,167.7c-5.3-1.3-16-4.8-28.7-5.2c-0.7,0-2,0.3-2,1.6c0,2.5,0.1,6.9,0,6.9c0,1,0,2.6,1.4,3.3
			c7.2,3.3,20.2-4.1,29.3-5.9C324.6,168.2,324.8,167.9,324,167.7"/>
		<path class="st0" d="M295.1,161.4c15.3,0.1,26,5,33.9,6c9,1.1,18.3-4,20.6-5.6c0.5-0.4,0.5-0.5-0.1-0.5c-15.4,0.9-20,0-27.4-5.8
			c-0.5-0.4-1.5-0.4-2.1-0.4c-4.3-0.1-18,0.5-18,0.5c-7.6,0.5-8.6,5.2-8.3,5.6C293.9,161.4,294.9,161.4,295.1,161.4"/>
		<path class="st0" d="M363.6,161.3c-4.2-0.2-11.6,0.1-15.1,2.2c-12.6,7.4-15.6,2.9-32.7,8.4c-6.3,2-8.4,3-6.6,3.3
			c3.5,0.6,16.3-0.4,26-2.3c11.2-2.2,17,0.8,27-2.6c1.9-0.6,2.3-2.7,2.3-3.4c0-1.6,0-3.4,0-4.9C364.5,161.5,363.8,161.3,363.6,161.3
			"/>
		<path class="st0" d="M324.9,155.8c8.6,7.5,21.7,4,39.5,3.2c0-0.6,0-0.4,0-0.7l0-0.3c-0.2-0.7-0.5-1.3-1-1.8
			c-1.2-1.3-3.1-2.1-5.2-2.1l-0.3,0c0,0-24.4,0.9-32.7,0.9C325.1,154.9,323.8,154.8,324.9,155.8"/>
		<path class="st0" d="M287.2,158c0-0.4-0.4-0.6-0.7-0.6c-0.4,0-0.6,0.4-0.6,0.7c0,0.4,0.4,0.6,0.7,0.6
			C287,158.7,287.3,158.4,287.2,158"/>
		<path class="st0" d="M280,157.3c0.4,0,0.6-0.4,0.6-0.7l0,0c0-0.4-0.4-0.6-0.7-0.6c-0.4,0-0.6,0.4-0.6,0.7l0,0
			C279.3,157.1,279.7,157.4,280,157.3"/>
		<path class="st0" d="M283.6,156.3L283.6,156.3c0,0,0,0.1,0,0.1c0,0.1,0.1,0.2,0.1,0.2c0,0,0.1,0.1,0.1,0.1
			c0.1,0.1,0.2,0.1,0.3,0.1c0,0,0.1,0,0.1,0c0.4,0,0.6-0.4,0.6-0.7v0c0-0.4-0.4-0.6-0.7-0.6c0,0-0.1,0-0.1,0
			c-0.2,0.1-0.4,0.3-0.4,0.6C283.6,156.2,283.6,156.2,283.6,156.3z"/>
		<path class="st0" d="M277.6,155.4c0.4,0,0.6-0.4,0.6-0.7c0-0.4-0.4-0.6-0.7-0.6c-0.4,0-0.6,0.4-0.6,0.7S277.3,155.5,277.6,155.4"
			/>
		<path class="st0" d="M285.2,165.4c0.4,0,0.6-0.4,0.6-0.7v0c0-0.1,0-0.2-0.1-0.2c0-0.1-0.1-0.1-0.2-0.2c-0.1-0.1-0.1-0.1-0.2-0.1
			c0,0-0.1,0-0.1,0c0,0-0.1,0-0.1,0c-0.1,0-0.1,0-0.2,0.1c0,0-0.1,0-0.1,0.1c0,0,0,0,0,0c0,0-0.1,0.1-0.1,0.1c0,0.1-0.1,0.1-0.1,0.2
			c0,0.1,0,0.2,0,0.3l0,0c0,0.1,0,0.2,0.1,0.2c0.1,0.2,0.3,0.3,0.5,0.3C285.2,165.4,285.2,165.4,285.2,165.4"/>
		<path class="st0" d="M281.1,160.9c0-0.4-0.4-0.6-0.7-0.6c-0.4,0-0.6,0.4-0.6,0.7s0.4,0.6,0.7,0.6
			C280.8,161.6,281.1,161.2,281.1,160.9"/>
		<path class="st0" d="M284.5,159.9c-0.2,0.1-0.3,0.2-0.4,0.3c-0.1,0.1-0.1,0.2-0.1,0.4c0,0.1,0.1,0.3,0.1,0.3
			c0.1,0.1,0.3,0.2,0.4,0.2c0,0,0.1,0,0.1,0c0.4,0,0.6-0.4,0.6-0.7c0-0.4-0.4-0.6-0.7-0.6C284.6,159.8,284.5,159.8,284.5,159.9"/>
		<path class="st0" d="M283.4,162.8c0-0.4-0.4-0.6-0.7-0.6s-0.6,0.4-0.6,0.7c0,0.4,0.4,0.6,0.7,0.6
			C283.2,163.5,283.5,163.1,283.4,162.8"/>
		<path class="st0" d="M279.2,163.3c0-0.4-0.4-0.6-0.7-0.6c-0.4,0-0.6,0.4-0.6,0.7c0,0.4,0.4,0.6,0.7,0.6
			C278.9,163.9,279.2,163.6,279.2,163.3"/>
		<path class="st0" d="M282.4,159.2c0.4,0,0.6-0.4,0.6-0.7c0-0.4-0.4-0.6-0.7-0.6c-0.4,0-0.6,0.4-0.6,0.7
			C281.7,159,282,159.3,282.4,159.2"/>
		<path class="st0" d="M277.4,159.1c0,0.4,0.4,0.6,0.7,0.6c0.4,0,0.6-0.4,0.6-0.7c0-0.4-0.4-0.6-0.7-0.6
			C277.6,158.4,277.4,158.8,277.4,159.1"/>
		<path class="st0" d="M285.9,172.7c-0.2,0.1-0.4,0.3-0.4,0.6c0,0,0,0.1,0,0.1c0,0.1,0,0.2,0.1,0.2c0.1,0.2,0.3,0.3,0.5,0.3
			c0,0,0.1,0,0.1,0c0.4,0,0.6-0.4,0.6-0.7c0-0.4-0.4-0.6-0.7-0.6C286,172.7,286,172.7,285.9,172.7"/>
		<path class="st0" d="M281.3,168.9c-0.4,0-0.6,0.4-0.6,0.7c0,0.4,0.4,0.6,0.7,0.6c0.4,0,0.6-0.4,0.6-0.7
			C282,169.1,281.7,168.8,281.3,168.9"/>
		<path class="st0" d="M286.3,169c0-0.4-0.4-0.6-0.7-0.6c0,0-0.1,0-0.1,0c-0.1,0-0.2,0.1-0.2,0.1c-0.2,0.1-0.2,0.3-0.2,0.6
			c0,0.4,0.4,0.6,0.7,0.6C286.1,169.6,286.3,169.3,286.3,169"/>
		<path class="st0" d="M283.7,170.8c-0.4,0-0.6,0.4-0.6,0.7c0,0.4,0.4,0.6,0.7,0.6c0.4,0,0.6-0.4,0.6-0.7
			C284.3,171,284,170.7,283.7,170.8"/>
		<path class="st0" d="M283.9,167.1c0-0.4-0.4-0.6-0.7-0.6c-0.4,0-0.6,0.4-0.6,0.7c0,0.4,0.4,0.6,0.7,0.6
			C283.7,167.7,284,167.4,283.9,167.1"/>
		<path class="st0" d="M278.9,167c-0.4,0-0.6,0.4-0.6,0.7c0,0.4,0.4,0.6,0.7,0.6c0.4,0,0.6-0.4,0.6-0.7
			C279.6,167.2,279.3,166.9,278.9,167"/>
		<path class="st0" d="M281.5,165.2L281.5,165.2L281.5,165.2c0-0.4-0.4-0.6-0.7-0.6c-0.4,0-0.6,0.4-0.6,0.7l0,0
			c0,0.4,0.4,0.6,0.7,0.6C281.3,165.8,281.6,165.5,281.5,165.2"/>
		<path class="st0" d="M271,154c0.4,0,0.6-0.4,0.6-0.7c0-0.4-0.4-0.6-0.7-0.6c-0.4,0-0.6,0.4-0.6,0.7C270.3,153.8,270.6,154,271,154
			"/>
		<path class="st0" d="M274.7,153.3C274.7,153.3,274.7,153.3,274.7,153.3c0.2,0.2,0.3,0.2,0.4,0.2c0,0,0.1,0,0.1,0
			c0.4,0,0.6-0.4,0.6-0.7c0-0.4-0.4-0.6-0.7-0.6c0,0-0.1,0-0.1,0c-0.2,0.1-0.3,0.2-0.4,0.3c-0.1,0.1-0.1,0.2-0.1,0.4
			c0,0,0,0.1,0,0.1C274.6,153.1,274.6,153.2,274.7,153.3"/>
		<path class="st0" d="M273.3,155.9c0.4,0,0.6-0.4,0.6-0.7c0-0.4-0.4-0.6-0.7-0.6c-0.4,0-0.6,0.4-0.6,0.7
			C272.7,155.7,273,155.9,273.3,155.9"/>
		<path class="st0" d="M268.4,155.8c0,0.4,0.4,0.6,0.7,0.6c0.4,0,0.6-0.4,0.6-0.7c0-0.4-0.4-0.6-0.7-0.6
			C268.6,155.1,268.3,155.4,268.4,155.8"/>
		<path class="st0" d="M268.6,152.1c0.4,0,0.6-0.4,0.6-0.7c0-0.4-0.4-0.6-0.7-0.6c-0.4,0-0.6,0.4-0.6,0.7
			C267.9,151.9,268.2,152.1,268.6,152.1"/>
		<path class="st0" d="M272.5,161.8c0-0.4-0.4-0.6-0.7-0.6c-0.4,0-0.6,0.4-0.6,0.7c0,0.4,0.4,0.6,0.7,0.6
			C272.3,162.5,272.5,162.2,272.5,161.8"/>
		<path class="st0" d="M276.2,162.1c0.4,0,0.6-0.4,0.6-0.7c0-0.4-0.4-0.6-0.7-0.6c0,0-0.1,0-0.1,0c-0.2,0.1-0.4,0.3-0.4,0.6
			c0,0,0,0.1,0,0.1c0,0.1,0,0.2,0.1,0.2c0.1,0.2,0.3,0.3,0.5,0.3C276.1,162.1,276.2,162.1,276.2,162.1"/>
		<path class="st0" d="M274.9,163.7c0-0.4-0.4-0.6-0.7-0.6c-0.4,0-0.6,0.4-0.6,0.7c0,0.4,0.4,0.6,0.7,0.6
			C274.7,164.4,274.9,164.1,274.9,163.7"/>
		<path class="st0" d="M269.9,163.6c-0.4,0-0.6,0.4-0.6,0.7c0,0.4,0.4,0.6,0.7,0.6c0.4,0,0.6-0.4,0.6-0.7
			C270.6,163.9,270.2,163.6,269.9,163.6"/>
		<path class="st0" d="M274.4,159.5c0-0.4-0.4-0.6-0.7-0.6s-0.6,0.4-0.6,0.7c0,0.4,0.4,0.6,0.7,0.6
			C274.2,160.1,274.4,159.8,274.4,159.5"/>
		<path class="st0" d="M270.1,159.9c0-0.4-0.4-0.6-0.7-0.6c-0.4,0-0.6,0.4-0.6,0.7c0,0.4,0.4,0.6,0.7,0.6
			C269.9,160.6,270.2,160.3,270.1,159.9"/>
		<path class="st0" d="M272,157.6L272,157.6L272,157.6c0-0.4-0.4-0.6-0.7-0.6c-0.4,0-0.6,0.4-0.6,0.7c0,0.4,0.4,0.6,0.7,0.6
			C271.8,158.2,272.1,157.9,272,157.6"/>
		<path class="st0" d="M275,157c0,0.1,0,0.2,0,0.3v0c0,0.1,0,0.2,0.1,0.2c0.1,0.2,0.3,0.3,0.5,0.3c0,0,0.1,0,0.1,0
			c0.4,0,0.6-0.4,0.6-0.7l0,0c0-0.4-0.4-0.6-0.7-0.6C275.3,156.5,275.1,156.7,275,157"/>
		<path class="st0" d="M277.5,169.5c-0.1-0.1-0.1-0.1-0.2-0.1c0,0-0.1,0-0.1,0c0,0-0.1,0-0.1,0c0,0-0.1,0-0.1,0
			c-0.2,0.1-0.3,0.2-0.4,0.3c-0.1,0.1-0.1,0.2-0.1,0.4c0,0,0,0.1,0,0.1c0,0.1,0.1,0.2,0.1,0.2c0,0,0.1,0.1,0.1,0.1
			c0.1,0.1,0.2,0.1,0.3,0.1c0,0,0.1,0,0.1,0c0,0,0.1,0,0.1,0c0.1,0,0.2-0.1,0.2-0.1c0,0,0.1-0.1,0.1-0.1c0.1-0.1,0.1-0.1,0.1-0.2
			c0-0.1,0-0.2,0-0.3c0-0.1,0-0.2-0.1-0.2C277.6,169.6,277.6,169.5,277.5,169.5"/>
		<path class="st0" d="M274.6,167.4c-0.4,0-0.6,0.4-0.6,0.7c0,0.4,0.4,0.6,0.7,0.6c0.4,0,0.6-0.4,0.6-0.7
			C275.3,167.7,275,167.4,274.6,167.4"/>
		<path class="st0" d="M272.3,165.5c-0.4,0-0.6,0.4-0.6,0.7v0c0,0.4,0.4,0.6,0.7,0.6c0.4,0,0.6-0.4,0.6-0.7l0,0
			C272.9,165.8,272.6,165.5,272.3,165.5"/>
		<path class="st0" d="M276.7,166.4c0,0,0.1,0,0.1,0c0.1,0,0.2-0.1,0.2-0.1c0,0,0.1-0.1,0.1-0.1c0.1-0.1,0.1-0.1,0.1-0.2
			c0-0.1,0-0.2,0-0.3c0-0.4-0.4-0.6-0.7-0.6c0,0-0.1,0-0.1,0c-0.2,0.1-0.3,0.2-0.4,0.3c-0.1,0.1-0.1,0.2-0.1,0.4l0,0
			c0,0,0,0.1,0,0.1c0,0.1,0.1,0.2,0.1,0.2c0,0,0.1,0.1,0.1,0.1c0.1,0.1,0.2,0.1,0.3,0.1C276.6,166.4,276.6,166.4,276.7,166.4"/>
		<path class="st0" d="M261.2,150.1c0,0.4,0.4,0.6,0.7,0.6c0.4,0,0.6-0.4,0.6-0.7l0,0c0-0.4-0.4-0.6-0.7-0.6
			S261.2,149.7,261.2,150.1L261.2,150.1z"/>
		<path class="st0" d="M266.1,150.2c0,0,0.1,0,0.1,0c0.4,0,0.6-0.4,0.6-0.7v0c0-0.4-0.4-0.6-0.7-0.6c-0.1,0-0.1,0-0.2,0.1
			c0,0-0.1,0-0.1,0c-0.1,0.1-0.2,0.2-0.3,0.4c0,0.1,0,0.2,0,0.3l0,0c0,0.1,0.1,0.3,0.1,0.3C265.8,150.1,265.9,150.2,266.1,150.2"/>
		<path class="st0" d="M259.6,148.8c0.4,0,0.6-0.4,0.6-0.7c0-0.4-0.4-0.6-0.7-0.6c-0.4,0-0.6,0.4-0.6,0.7
			C258.9,148.5,259.2,148.8,259.6,148.8"/>
		<path class="st0" d="M263,154.2c0-0.4-0.4-0.6-0.7-0.6c-0.4,0-0.6,0.4-0.6,0.7c0,0.4,0.4,0.6,0.7,0.6
			C262.8,154.9,263,154.6,263,154.2"/>
		<path class="st0" d="M266.4,153.2c-0.2,0.1-0.4,0.3-0.4,0.6c0,0,0,0.1,0,0.1c0,0.1,0,0.2,0.1,0.2c0.1,0.2,0.3,0.3,0.5,0.3
			c0,0,0.1,0,0.1,0c0.4,0,0.6-0.4,0.6-0.7c0-0.4-0.4-0.6-0.7-0.6C266.5,153.2,266.5,153.2,266.4,153.2"/>
		<path class="st0" d="M265.4,156.1c0-0.4-0.4-0.6-0.7-0.6c-0.4,0-0.6,0.4-0.6,0.7c0,0.4,0.4,0.6,0.7,0.6
			C265.1,156.8,265.4,156.5,265.4,156.1"/>
		<path class="st0" d="M261.1,156.6c0-0.4-0.4-0.6-0.7-0.6c-0.4,0-0.6,0.4-0.6,0.7c0,0.4,0.4,0.6,0.7,0.6
			C260.9,157.3,261.1,157,261.1,156.6"/>
		<path class="st0" d="M264.3,152.6c0.4,0,0.6-0.4,0.6-0.7c0-0.4-0.4-0.6-0.7-0.6c-0.4,0-0.6,0.4-0.6,0.7
			C263.6,152.3,264,152.6,264.3,152.6"/>
		<path class="st0" d="M260.6,152.3c0-0.4-0.4-0.6-0.7-0.6c-0.4,0-0.6,0.4-0.6,0.7c0,0.4,0.4,0.6,0.7,0.6
			C260.4,153,260.6,152.7,260.6,152.3"/>
		<path class="st0" d="M258.7,154.7c0-0.4-0.4-0.6-0.7-0.6c-0.4,0-0.6,0.4-0.6,0.7c0,0.4,0.4,0.6,0.7,0.6
			C258.5,155.4,258.7,155.1,258.7,154.7"/>
		<path class="st0" d="M258.2,150.4L258.2,150.4L258.2,150.4c0-0.1,0-0.2-0.1-0.2c0-0.1-0.1-0.1-0.2-0.2c-0.1-0.1-0.1-0.1-0.2-0.1
			c0,0-0.1,0-0.1,0c0,0-0.1,0-0.1,0c0,0-0.1,0-0.1,0c-0.2,0.1-0.3,0.2-0.4,0.3c-0.1,0.1-0.1,0.2-0.1,0.4h0c0,0.4,0.4,0.6,0.7,0.6
			C258,151.1,258.3,150.8,258.2,150.4"/>
		<path class="st0" d="M263.2,162.2c-0.4,0-0.6,0.4-0.6,0.7c0,0.4,0.4,0.6,0.7,0.6c0.4,0,0.6-0.4,0.6-0.7
			C263.9,162.4,263.6,162.2,263.2,162.2"/>
		<path class="st0" d="M267.6,163c0,0,0.1,0,0.1,0c0.1,0,0.2-0.1,0.2-0.1c0,0,0.1-0.1,0.1-0.1c0.1-0.1,0.1-0.1,0.1-0.2
			c0-0.1,0-0.2,0-0.3c0-0.1,0-0.2-0.1-0.2c0-0.1-0.1-0.1-0.2-0.2c-0.1-0.1-0.1-0.1-0.2-0.1c0,0-0.1,0-0.1,0s-0.1,0-0.1,0
			c0,0-0.1,0-0.1,0c-0.2,0.1-0.3,0.2-0.4,0.3c-0.1,0.1-0.1,0.2-0.1,0.4c0,0,0,0.1,0,0.1c0,0.1,0.1,0.2,0.1,0.2c0,0,0.1,0.1,0.1,0.1
			c0.1,0.1,0.2,0.1,0.3,0.1C267.6,163,267.6,163,267.6,163"/>
		<path class="st0" d="M265.6,164.1c-0.4,0-0.6,0.4-0.6,0.7c0,0.4,0.4,0.6,0.7,0.6c0.4,0,0.6-0.4,0.6-0.7
			C266.3,164.3,266,164.1,265.6,164.1"/>
		<path class="st0" d="M265.8,160.4c0-0.4-0.4-0.6-0.7-0.6c-0.4,0-0.6,0.4-0.6,0.7c0,0.4,0.4,0.6,0.7,0.6
			C265.6,161.1,265.9,160.8,265.8,160.4"/>
		<path class="st0" d="M260.8,160.3c-0.4,0-0.6,0.4-0.6,0.7c0,0.4,0.4,0.6,0.7,0.6c0.4,0,0.6-0.4,0.6-0.7
			C261.5,160.5,261.2,160.3,260.8,160.3"/>
		<path class="st0" d="M263.5,158.5L263.5,158.5c0-0.4-0.4-0.6-0.7-0.6c-0.4,0-0.6,0.4-0.6,0.7c0,0.4,0.4,0.6,0.7,0.6
			C263.2,159.2,263.5,158.9,263.5,158.5"/>
		<path class="st0" d="M267.7,158L267.7,158L267.7,158c0-0.4-0.4-0.6-0.7-0.6c0,0-0.1,0-0.1,0c-0.2,0.1-0.3,0.2-0.4,0.3
			c-0.1,0.1-0.1,0.2-0.1,0.4l0,0c0,0.4,0.4,0.6,0.7,0.6C267.5,158.7,267.8,158.4,267.7,158"/>
		<path class="st0" d="M268.7,166.6c0-0.4-0.4-0.6-0.7-0.6c-0.1,0-0.1,0-0.2,0.1c0,0-0.1,0-0.1,0c-0.1,0.1-0.2,0.2-0.3,0.4
			c0,0.1,0,0.2,0,0.3l0,0c0,0.1,0.1,0.3,0.1,0.3c0.1,0.1,0.3,0.2,0.4,0.2c0,0,0.1,0,0.1,0C268.5,167.3,268.7,166.9,268.7,166.6
			L268.7,166.6z"/>
		<path class="st0" d="M259.2,159c0-0.4-0.4-0.6-0.7-0.6c-0.4,0-0.6,0.4-0.6,0.7v0c0,0,0,0.1,0,0.1c0,0.1,0.1,0.2,0.1,0.2
			c0,0,0.1,0.1,0.1,0.1c0.1,0.1,0.2,0.1,0.3,0.1c0,0,0.1,0,0.1,0c0,0,0.1,0,0.1,0c0.1,0,0.2-0.1,0.2-0.1c0,0,0.1-0.1,0.1-0.1
			c0.1-0.1,0.1-0.1,0.1-0.2S259.2,159.1,259.2,159L259.2,159z"/>
	</g>
	<g>
		<defs>
			<rect id="SVGID_3_" x="198.4" y="14.2" width="226.8" height="226.8"/>
		</defs>
		<clipPath id="SVGID_4_">
			<use xlink:href="#SVGID_3_"  style="overflow:visible;"/>
		</clipPath>
		<path class="st4" d="M352.2,206.4c-0.2,0-0.3,0-0.4-0.1c-0.4-0.1-0.7-0.4-0.8-0.7l-6.3-12.5l-7.1,7.6c-0.3,0.3-0.7,0.4-1,0.4
			c-0.2,0-0.4,0-0.5-0.1c-0.5-0.2-0.9-0.7-0.9-1.3l0.1-30.6c0-0.5,0.3-1,0.8-1.3c0.2-0.1,0.4-0.1,0.6-0.1c0.3,0,0.6,0.1,0.9,0.3
			l24.2,18.3c0.5,0.3,0.7,0.9,0.5,1.5c-0.2,0.6-0.6,1-1.2,1l-10.4,1.2l6.3,12.5c0.4,0.7,0.1,1.6-0.6,1.9l-3.5,1.7
			C352.6,206.3,352.4,206.4,352.2,206.4"/>
		<path class="st1" d="M336.6,169.2l24.2,18.3l-12.4,1.4l7.2,14.3l-3.5,1.7l-7.2-14.3l-8.5,9.1L336.6,169.2 M336.6,166.4
			c-0.4,0-0.9,0.1-1.3,0.3c-1,0.5-1.6,1.5-1.6,2.5l-0.1,30.6c0,1.2,0.7,2.2,1.8,2.6c0.3,0.1,0.7,0.2,1,0.2c0.8,0,1.5-0.3,2.1-0.9
			l5.7-6.1l5.4,10.6c0.3,0.7,0.9,1.2,1.6,1.4c0.3,0.1,0.6,0.1,0.9,0.1c0.4,0,0.9-0.1,1.3-0.3l3.5-1.8c1.4-0.7,2-2.4,1.3-3.8
			l-5.4-10.6l8.3-1c1.1-0.1,2.1-1,2.4-2.1c0.3-1.1-0.1-2.3-1-3l-24.2-18.3C337.8,166.6,337.2,166.4,336.6,166.4"/>
	</g>
	<g>
		<defs>
			<rect id="SVGID_5_" x="198.4" y="14.2" width="226.8" height="226.8"/>
		</defs>
		<clipPath id="SVGID_6_">
			<use xlink:href="#SVGID_5_"  style="overflow:visible;"/>
		</clipPath>
	</g>
	<g>
		<defs>
			<rect id="SVGID_7_" x="198.4" y="14.2" width="226.8" height="226.8"/>
		</defs>
		<clipPath id="SVGID_8_">
			<use xlink:href="#SVGID_7_"  style="overflow:visible;"/>
		</clipPath>
	</g>
	<g>
		<defs>
			<rect id="SVGID_9_" x="198.4" y="14.2" width="226.8" height="226.8"/>
		</defs>
		<clipPath id="SVGID_10_">
			<use xlink:href="#SVGID_9_"  style="overflow:visible;"/>
		</clipPath>
	</g>
	<g>
		<defs>
			<rect id="SVGID_11_" x="198.4" y="14.2" width="226.8" height="226.8"/>
		</defs>
		<clipPath id="SVGID_12_">
			<use xlink:href="#SVGID_11_"  style="overflow:visible;"/>
		</clipPath>
	</g>
	<g>
		<defs>
			<rect id="SVGID_13_" x="198.4" y="14.2" width="226.8" height="226.8"/>
		</defs>
		<clipPath id="SVGID_14_">
			<use xlink:href="#SVGID_13_"  style="overflow:visible;"/>
		</clipPath>
	</g>
	<g>
		<defs>
			<rect id="SVGID_15_" x="198.4" y="14.2" width="226.8" height="226.8"/>
		</defs>
		<clipPath id="SVGID_16_">
			<use xlink:href="#SVGID_15_"  style="overflow:visible;"/>
		</clipPath>
	</g>
</g>
</svg>
