<?xml version="1.0" encoding="utf-8"?>
<!-- Generator: Adobe Illustrator 16.0.3, SVG Export Plug-In . SVG Version: 6.00 Build 0)  -->
<!DOCTYPE svg PUBLIC "-//W3C//DTD SVG 1.1//EN" "http://www.w3.org/Graphics/SVG/1.1/DTD/svg11.dtd">
<svg version="1.1" xmlns="http://www.w3.org/2000/svg" xmlns:xlink="http://www.w3.org/1999/xlink" x="0px" y="0px" width="623.6px"
	 height="255.1px" viewBox="0 0 623.6 255.1" style="enable-background:new 0 0 623.6 255.1;" xml:space="preserve">
<style type="text/css">
<![CDATA[
	.st0{fill:#99CC00;}
	.st1{fill:#FFFFFF;}
	.st2{fill:#0066CC;}
]]>
</style>
<g id="BG">
	<rect class="st1" width="623.6" height="255.1"/>
</g>
<g id="Logo">
	<g>
		<path class="st2" d="M31.6,108.9c1-1.7,1.8-3.6,3-5.1c1.9-2.3,4.5-3.3,7.4-3.3c6.6-0.1,13.2-0.1,19.8,0c4.7,0.1,8,2.6,9.7,6.9
			c3.7,9.1,7.4,18.3,11,27.5c1.1,2.7,2.2,5.4,3.2,8.1c0.3,0.9,0.8,1.2,1.7,1.2c13.3,0,26.6,0,39.9,0c1.1,0,1.5-0.5,1.9-1.4
			c4.7-11.9,9.5-23.7,14.3-35.5c1.9-4.6,6.2-7.1,11.3-6.7c4.4,0.3,8.3,3.7,9.4,8.1c0.6,2.3,0.4,4.5-0.5,6.7
			c-5.8,14.5-11.6,29-17.4,43.5c-1.7,4.2-5.5,6.7-10,6.7c-19,0-38,0-57,0c-5.1,0-8.7-2.4-10.7-7.3c-4.6-11.4-9.2-22.9-13.7-34.3
			c-0.6-1.5-1.3-2.1-3-2c-3,0.2-5.9,0.1-8.9,0c-5.4,0-9.2-2.7-11-7.9c-0.1-0.2-0.2-0.3-0.3-0.5V108.9z"/>
		<path class="st0" d="M96.6,75.9v-2.1c0-16.3,0-32.6,0-48.9c0-6.5,4.6-11.1,10.8-11.1c6.3,0,10.9,4.7,10.9,11.1
			c0,16.3,0,32.6,0,48.9v2.2c1.3-1.3,2.4-2.3,3.5-3.3c3.4-3.4,6.8-6.8,10.3-10.1c4.2-3.9,10.9-3.8,15,0.3c4.2,4.1,4.3,10.9,0.1,15.1
			c-6.5,6.6-13.2,13-19.8,19.5c-4.1,4.1-8.2,8.2-12.4,12.2c-3.6,3.5-8.6,4.2-12.9,1.8c-0.6-0.3-1.2-0.8-1.7-1.3
			C89.5,99.5,78.7,88.8,67.8,78.1c-3.3-3.3-4.2-8-2.3-12.2c1.8-4,6.1-6.5,10.6-6.2c2.7,0.2,5.1,1.2,7,3.2c3.7,3.7,7.5,7.4,11.2,11.1
			C95,74.5,95.7,75.1,96.6,75.9"/>
		<path class="st2" d="M307.2,194.6v2.2c0,9.4,0,18.8,0,28.1c0,3.8-1.9,6.7-5.1,7.9c-3.4,1.3-7.2,0.4-9.6-2.1c-1.6-1.7-2-3.8-2-6
			c0-15.9,0-31.7,0-47.6v-42.1c0-19,14.1-34.6,32.6-36.2c19-1.6,35.5,11.1,38.8,29.9c0.3,1.6,0.4,3.3,0.4,5c0,10.9,0,21.8,0,32.7
			c0,16.7-13.1,32-29.6,34.6C323.5,202.6,315,200.9,307.2,194.6 M307.3,150.2c0,0-0.1,0-0.1,0c0,5.1,0,10.3,0,15.4
			c0.1,10.9,8.5,19.2,19.3,19.2c10.7,0,19.1-8.5,19.1-19.4c0-10.3,0-20.7,0-31c-0.1-10-8.2-18.5-17.9-18.8
			c-10.8-0.4-19.6,7-20.3,17.4C307,138.7,307.3,144.5,307.3,150.2 M540.8,154.8c0,4.8-0.6,9.4,0.1,13.9c1.7,9.8,11.8,16.9,22,16.1
			c6.2-0.5,11.5-2.6,15.6-7.6c2.8-3.3,7.4-3.5,11-0.7c3.5,2.7,4.5,7.1,2.1,10.7c-4.1,6.2-10.1,10-17,12.3
			c-18.4,6.1-38.1-1.5-47.1-18.2c-2.6-4.7-3.8-9.8-3.9-15.2c0-10.5,0-21,0-31.5c0-18.5,14-33.9,32.4-35.7
			c18.5-1.8,35.4,10.8,38.8,29c0.4,2.1,0.6,4.3,0.6,6.5c0.1,3.9,0,7.8,0,11.7c0,5-3.6,8.7-8.6,8.7c-14.7,0-29.5,0-44.2,0H540.8z
			 M578.8,138c0.6-8.6-2-15.5-9.6-19.8c-7-4-14.1-3.6-20.7,1c-6.4,4.5-8.6,11.1-7.9,18.8H578.8z M456.5,154.8
			c0.4,5.4-0.7,10.7,0.9,15.8c2.8,8.7,12.2,14.8,21.6,14.2c5.1-0.4,9.7-1.8,13.6-5.4c0.6-0.6,1.1-1.2,1.7-1.9
			c2.9-3.4,7.4-3.9,11.1-1.3c3.8,2.7,4.8,7.1,2.4,10.9c-3.6,5.7-9,9.2-15.1,11.6c-19.5,7.6-41.8-1.1-50-19.6
			c-1.8-4.1-2.8-8.4-2.9-12.8c-0.1-10.9-0.3-21.9,0.1-32.8c0.6-20.3,17.3-35.6,37.6-34.8c19.1,0.8,34.3,16.6,34.3,35.7
			c0,3.9,0,7.7,0,11.6c0,5-3.7,8.7-8.7,8.7c-14.8,0-29.6,0-44.4,0H456.5z M495,138c0.5-8.7-2.2-15.7-9.9-20
			c-6.8-3.9-15.3-3.1-21.3,1.9c-5.7,4.7-7.7,10.9-7,18.2H495z M262.8,197.2c17.4-9.1,18.7-27.4,12.7-38.9c-3.1-5.9-8.1-10-14-12.8
			c-6.1-2.9-12.5-5.3-18.7-8.1c-2.7-1.2-5.4-2.7-7.7-4.5c-4.7-3.9-4.5-10.5,0.2-14.4c6.3-5.3,17.4-4,23,2.6c1,1.1,1.9,2.4,2.9,3.4
			c1.7,1.7,3.7,2.4,6.1,2.1c6.8-1,9.8-8,5.9-13.7c-7.3-10.4-23.7-17.8-40-12c-13.9,5-20.9,17.5-17.6,31.9
			c1.7,7.6,6.6,12.9,13.3,16.3c5.7,2.9,11.7,5.2,17.6,7.8c3.9,1.7,7.9,3.3,11.2,6.2c5.3,4.6,5.7,12,0.7,16.9
			c-6,5.8-13.2,6.2-20.8,4.3c-3.3-0.9-6-2.8-8.2-5.5c-2.8-3.3-6.3-4.2-9.7-2.7c-3.6,1.6-5.8,5-5.4,8.6c0.3,3.3,2.4,5.6,4.7,7.7
			c7.5,6.7,16.5,9.2,24.9,9.3C252.4,201.2,257.4,200,262.8,197.2 M393.6,135.6c0-2.4,0.2-4.8,0.7-7.1c1.3-6.1,4.5-10.9,11-12.4
			c5.8-1.3,11,0,15.6,3.9c1.4,1.2,3.3,2.1,5,2.3c3.6,0.5,7-1.8,8.5-5.2c1.4-3.1,0.7-6.7-2.1-9.3c-5.4-5.2-12-7.9-19.3-8.7
			c-9.9-1.1-18.9,1.2-26.1,8.6c-7.1,7.2-10,16.2-10.1,26c-0.3,19.2-0.1,38.3-0.1,57.5c0,0.6,0,1.1,0.1,1.7c0.3,2.8,1.7,4.9,4.3,6.2
			c5.9,3,12.4-0.9,12.5-7.5c0-9.6,0-19.2,0-28.8C393.5,153.7,393.5,144.6,393.6,135.6"/>
		<path class="st0" d="M107.9,241.4c-14.4-0.2-26.3-4.9-36.2-14.6c-4.1-4-4.2-10.3-0.3-14.3c3.9-4.1,10.3-4.3,14.5-0.3
			c6.9,6.7,15.2,9.6,24.7,8.7c6.9-0.6,12.8-3.4,17.6-8.3c3.5-3.5,8.1-4.3,12.3-2.3c6,3,7.6,11.4,3,16.3c-8.1,8.5-18,13.1-29.6,14.4
			C111.7,241.2,109.5,241.3,107.9,241.4"/>
		<path class="st2" d="M95.3,188.3c0,6.6-5.3,11.8-11.8,11.8c-6.5-0.1-11.7-5.2-11.8-11.7c0-6.5,5.3-11.8,11.8-11.7
			C90.1,176.6,95.3,181.8,95.3,188.3"/>
		<path class="st2" d="M119.7,188.3c0-6.5,5.3-11.7,11.9-11.7c6.5,0,11.7,5.2,11.7,11.7c0,6.4-5.2,11.7-11.7,11.7
			C124.9,200.1,119.7,194.9,119.7,188.3"/>
	</g>
</g>
</svg>
