<svg xmlns="http://www.w3.org/2000/svg" viewBox="0 0 623.62 255.12"><defs><style>.cls-1{fill:#fff;}.cls-2,.cls-3{fill:#4e2817;}.cls-3{fill-rule:evenodd;}.cls-4{fill:#f26922;}</style></defs><title>stickermule</title><g id="BG"><rect class="cls-1" width="623.62" height="255.12"/></g><g id="Logo"><path class="cls-2" d="M140.72,161.47c-8,0-15.37-.89-21.83-7.35l8.35-8.35c4.23,4.23,9.69,4.79,13.7,4.79,4.45,0,9-1.45,9-5.35,0-2.56-1.34-4.34-5.46-4.68l-8-.77c-9.25-.9-14.93-4.91-14.93-14.37,0-10.58,9.36-16.37,19.83-16.37,8,0,14.7,1.33,19.6,6l-7.91,8c-3-2.67-7.46-3.45-11.92-3.45-5.12,0-7.24,2.34-7.24,4.9,0,1.89.78,4,5.35,4.45l8,.78c10.13,1,15.26,6.35,15.26,15C162.55,156.13,152.86,161.47,140.72,161.47Z"/><path class="cls-2" d="M184.82,160.92c-10.47,0-14.81-7.36-14.81-14.71V120.82h-5.46v-9.69H170V96h12.81v15.14h9v9.69h-9v24.61c0,2.9,1.33,4.68,4.45,4.68H192v10.81Z"/><path class="cls-2" d="M197.52,100.89V90.42h13.14v10.47Zm.22,60V109.69h12.81v51.23Z"/><path class="cls-2" d="M239.39,161.47c-10.24,0-22.94-5.45-22.94-26.28S229.15,109,239.39,109c7.13,0,12.36,2.11,16.93,6.9l-8.69,8.69c-2.67-2.9-4.9-4-8.24-4a8.82,8.82,0,0,0-7.24,3.34c-2,2.45-2.89,5.9-2.89,11.36s.89,8.91,2.89,11.47a9,9,0,0,0,7.24,3.34c3.34,0,5.57-1.22,8.24-4l8.69,8.58C251.75,159.24,246.52,161.47,239.39,161.47Z"/><path class="cls-2" d="M291.62,160.92,279,139.53l-5.46,6.13v15.26H260.77V90.86h12.81v39.76l17-20.93H306.1L287.84,130.4,307.55,161H291.62Z"/><path class="cls-2" d="M318.13,139.2c0,6.57,4,11.36,11.25,11.36,5.57,0,8.35-1.56,11.58-4.79l7.8,7.57c-5.24,5.24-10.25,8-19.49,8-12.14,0-23.73-5.46-23.73-26.28,0-16.71,9-26.17,22.39-26.17,14.26,0,22.39,10.46,22.39,24.5v5.68H318.13Zm18.38-14.26a9,9,0,0,0-8.58-5.34,8.81,8.81,0,0,0-8.58,5.34,14.7,14.7,0,0,0-1.22,5.46h19.49A14.45,14.45,0,0,0,336.51,124.94Z"/><path class="cls-2" d="M384.17,123.61c-2-2-3.67-3-6.79-3-3.9,0-8.24,3-8.24,9.47v30.85H356.33V109.69H368.8v4.9c2.45-3,7.35-5.46,12.92-5.46,5,0,8.58,1.22,12.14,4.79Z"/><path class="cls-3" d="M79.46,166.6a10.71,10.71,0,0,1-2.78.33,5,5,0,0,1-2.67-.45c-.34-.22-.34-.78-.34-1.11s.11-.89.11-1.22a2.06,2.06,0,0,0,0-1.45c-.22-.34-1-.23-1.44-.45s-.56-.89-.67-1.56c0-.22-.22-.44-.22-.55a12.08,12.08,0,0,1,.44-3.46c.22-1.11.56-2.11.78-3.23a18.94,18.94,0,0,0,.22-5,7.54,7.54,0,0,1,0-2.23c.11-.66.45-1.22.56-1.89v-.67c0-.22.11-.33.11-.55,0-.45-.11-1-.11-1.56a34,34,0,0,1,.11-4.79c0-.45.22-.89-.11-1.12a27.48,27.48,0,0,0-4.34.45,41.65,41.65,0,0,1-12.37-.22,3.08,3.08,0,0,0-1-.11,17.35,17.35,0,0,1-6.9-3.23,6.86,6.86,0,0,1-1-.78c-.33-.23-.66-.56-1-.78a3.67,3.67,0,0,0-4.12,1.11c-.22.33-.44.89-.67,1.34a6.81,6.81,0,0,0-.55,1.33c-1,2.23-2.12,4.46-3.12,6.69a44.31,44.31,0,0,0-1.67,4.23c-.89,3.12-.11,7.24.67,10.24a8.6,8.6,0,0,1,.33.89,5,5,0,0,0,1.23,2.12c.33.22.77.45,1.11.67a4.71,4.71,0,0,1,1,1.67,6.65,6.65,0,0,1,.45.89c.33.67.55,1.23-.23,1.67a6.34,6.34,0,0,1-2.22.45c-.34.11-.23.55-.45.78a6.71,6.71,0,0,1-.89.44,6.33,6.33,0,0,1-3.56,0,1.48,1.48,0,0,1-1-.78c-.22-.67.34-1.45-.11-1.89-.22-.22-.67-.22-1-.34a3.12,3.12,0,0,1-1.34-1.33c-.55-1.56-.22-3.9-.33-5.79,0-.56-.11-1.12-.11-1.79,0-1.11-.34-2.22-.45-3.34-.11-.55-.22-1-.33-1.44-.22-.78-.34-1.67-.56-2.45a4.61,4.61,0,0,1,0-2.45c.11-.23.34-.45.45-.67a2.87,2.87,0,0,0,.22-1.34c-.11-.22-.67,0-.78-.22-.33-2.45-.67-4.79-.89-7.35a19.93,19.93,0,0,1-.11-2.56c-.11-1.67,0-3.46-.22-5.13l-.34-2.34c-.33-2.22-.89-5-.44-7.35a8.94,8.94,0,0,1,1.67-3.78c.55-.78,1.22-1.45,1.89-2.23A17.54,17.54,0,0,1,32.58,109c.55-.34,1.11-.78,1.67-1.12a13.73,13.73,0,0,1,4.68-1.22,22.41,22.41,0,0,1,5.45.22c1.67.33,3.34.56,5,.89s3.12.78,4.68,1.12c.22,0,.34.22.56.22a10.21,10.21,0,0,1,1.56.33,22.65,22.65,0,0,0,5,.56,18.51,18.51,0,0,0,5.12-.45,1.6,1.6,0,0,1,.67-.22,1.92,1.92,0,0,1,.78-.11c.11,0,.33-.22.45-.33a19,19,0,0,0,2.45-1.45,8.43,8.43,0,0,1,2-1.12c.33-.11.78-.33,1.11-.44A6.77,6.77,0,0,0,76,105a11.83,11.83,0,0,0,2.45-2.23c.78-.67,1.67-1.45,2.56-2.12,1.78-1.44,3.57-2.67,5.24-4A26.09,26.09,0,0,1,89,94.76a15,15,0,0,1,6.68-2.56,16.94,16.94,0,0,1,3.34,0c.34,0,.67.22,1,.11s.55-.56.67-.89c.44-.78.66-1.22,1.11-2.12.22-.55.11-1.11.67-1.11s.44,1.45.44,2a12.07,12.07,0,0,0,0,2,1.24,1.24,0,0,0,1,.78,1.09,1.09,0,0,0,.77-.45c.34-.22.56-.22.78-.44A14.84,14.84,0,0,0,107,90.75c.34-.33,1-1.33,1.56-1.22,1.12.11,0,1.78-.22,2.22a34.31,34.31,0,0,1-1.78,3.35c-.23.44-.89,1.11-.89,1.67,0,.33.33.55.44,1,.11.22.11.33.22.56.34.89.67,2.11,1,3.11a16.4,16.4,0,0,0,.78,2.57c.33.77.78,1.55,1.11,2.45.11.22.11.44.22.66a57.74,57.74,0,0,0,2.23,5.57,5.85,5.85,0,0,1,.78,2.56,4.52,4.52,0,0,1-1.11,2.57c-.23.44-.67,1.11-1.12,1.22a3.05,3.05,0,0,1-1,0,6.23,6.23,0,0,1-1.11.33,2.2,2.2,0,0,1-2.23-1.44c-.11-.23,0-.56-.11-.89a5.26,5.26,0,0,0-1.67-2.68,6.07,6.07,0,0,0-1.67-1.22c-1-.56-2-.78-3.12-1.34a1.75,1.75,0,0,0-1.23-.33c-.55.11-1.11,1-1.56,1.56-2.67,3.56-5.12,7.24-7.68,10.69a63.91,63.91,0,0,0-5,7.24c-.34.67-.56,1.44-.89,2.22s-.45,1.56-.67,2.45c-1,2.9-1.34,6.46-2.23,9.47-.11.33-.11.67-.22,1-.45,1.56-.89,3.34-1.34,5a27,27,0,0,0-.56,4.46c0,1.56-.11,3.67.45,4.57.33.55,1.34.66,1.67,1.22.22.33.45,1.11.78,1.56s.78,1,.67,1.56a1,1,0,0,1-.67.78c-.33.11-.78.11-1.11.22C79.69,165.93,79.8,166.37,79.46,166.6Z"/><path class="cls-4" d="M451.33,109A19.86,19.86,0,0,0,436,115.48c-3.23-4.46-7.91-6.46-13.59-6.46a18.06,18.06,0,0,0-12.81,5.34v-4.67H397.09v51.23H409.9V130c0-7,4.56-9.35,8.57-9.35s8.47,2.34,8.47,9.35v31h12.81v-31.3c0-6.68,4.67-9,8.57-9s8.47,2.34,8.47,9.35v31h12.8V128.17c0-5.57-1.45-10.47-5.57-14.59C461,110.69,456.45,109,451.33,109Z"/><path class="cls-4" d="M506.9,140.65c0,7-4.56,9.35-8.57,9.35s-8.47-2.34-8.47-9.35V109.57H477.05v32.86c0,5.57,1.12,10.47,5.24,14.59,2.89,2.89,7,4.56,12.14,4.56a17.62,17.62,0,0,0,12.81-5.34v4.68h12.47V109.69H506.9Z"/><path class="cls-4" d="M540.65,145.43V90.86H527.84v55.35c0,7.24,4.45,14.71,14.92,14.71H550V150.11h-4.9C541.87,150.11,540.65,148.55,540.65,145.43Z"/><path class="cls-4" d="M597,133.52c0-14-8-24.5-22.39-24.5-13.25,0-22.38,9.46-22.38,26.17,0,20.71,11.58,26.28,23.72,26.28,9.24,0,14.26-2.89,19.49-8l-7.8-7.57c-3.22,3.23-6,4.79-11.58,4.79-7.24,0-11.25-4.79-11.25-11.36h32.08v-5.79Zm-32.07-3a14,14,0,0,1,1.22-5.46,9.55,9.55,0,0,1,17.15,0,14.51,14.51,0,0,1,1.23,5.46Z"/></g></svg>