<?xml version="1.0" encoding="utf-8"?>
<!-- Generator: Adobe Illustrator 16.0.3, SVG Export Plug-In . SVG Version: 6.00 Build 0)  -->
<!DOCTYPE svg PUBLIC "-//W3C//DTD SVG 1.1//EN" "http://www.w3.org/Graphics/SVG/1.1/DTD/svg11.dtd">
<svg version="1.1" xmlns="http://www.w3.org/2000/svg" xmlns:xlink="http://www.w3.org/1999/xlink" x="0px" y="0px" width="623.6px"
	 height="255.1px" viewBox="0 0 623.6 255.1" style="enable-background:new 0 0 623.6 255.1;" xml:space="preserve">
<style type="text/css">
<![CDATA[
	.st0{fill:#FF2222;}
	.st1{fill:#FFFFFF;}
]]>
</style>
<g id="BG">
	<rect class="st1" width="623.6" height="255.1"/>
</g>
<g id="Logo">
	<g>
		<path class="st0" d="M21.6,152.8v-17.1c8.5,3.2,15.1,4.3,24,4.3c9.3,0,13.3-0.6,13.3-2.4c0-6.6-39.6,4-39.6-17.1
			c0-12.1,11.9-17.6,29.7-17.6c6.1,0,16.4,1.1,25.2,2.8V123c-7.2-1.5-14.6-2.6-22.2-2.6c-9.3,0-13.3,0.6-13.3,2.1
			c0,4.7,39.6-5,39.6,16.9c0,12.4-11.9,17.4-29.7,17.4C40.9,156.8,30,155.3,21.6,152.8z"/>
		<path class="st0" d="M104.8,154l-27.2-49.3H101l14.9,28.3l14.8-28.3h23.1l-37.2,70.6h-23L104.8,154z"/>
		<path class="st0" d="M160.2,104.7H182l-2,20.8h1c2.6-16.5,9.4-22.4,25.3-22.4c14.1,0.2,20.3,5,20.3,30.2v21.9h-20.4V135
			c0-13.2-3.3-16.5-11.6-16.5c-8.2,0-14,8.6-14,19.8v17h-20.4V104.7z"/>
		<path class="st0" d="M233.4,129.5c0-15.8,10.2-26.4,25.5-26.4c12.1,0,21.7,7.2,23.9,18h0.4V84.5h20.4v70.6h-20.8l2.2-16.4h-1.2
			c-2.1,10.8-12.2,18.1-25.1,18.1C243.5,156.8,233.4,145.9,233.4,129.5z M281.2,129.7c0-7.6-7.3-10.3-14.3-10.3
			c-7,0-14.1,2.7-14.1,10.3c0,7.7,7.2,10.7,14.1,10.7C273.9,140.4,281.2,137.4,281.2,129.7z"/>
		<path class="st0" d="M309.7,90.2c0-7.6,4.1-10.4,11.8-10.4c7.7,0,12,2.8,12,10.4c0,7.6-4,10.4-12,10.4
			C313.9,100.6,309.7,97.7,309.7,90.2z M311.6,104.7h20.4v50.4h-20.4V104.7z"/>
		<path class="st0" d="M338.7,129.9c0-16.2,10.4-26.8,29.5-26.8c9.1,0,15.8,1.8,23.9,5.4v17.2c-5.8-3.4-12.7-6.3-21.3-6.3
			c-8,0-12.7,4.3-12.7,10.5c0,6.2,5,10.5,13,10.5c8.5,0,15.4-2.7,21-6.2v17.1c-8.2,3.6-14,5.4-24,5.4
			C349.8,156.8,338.7,146.1,338.7,129.9z"/>
		<path class="st0" d="M396.8,129.9c0-16.1,12.9-26.8,32.4-26.8c19.5,0,32.4,10.7,32.4,26.8c0,16.1-12.9,26.8-32.4,26.8
			C409.7,156.8,396.8,146.1,396.8,129.9z M442.2,129.9c0-6.3-5.2-10.5-13-10.5c-7.8,0-13,4.2-13,10.5c0,6.3,5.2,10.5,13,10.5
			C437,140.4,442.2,136.2,442.2,129.9z"/>
		<path class="st0" d="M467.4,129.5c0-15.8,10.2-26.4,25.5-26.4c12.1,0,21.7,7.2,23.9,18h0.4V84.5h20.4v70.6h-20.8l2.2-16.4h-1.2
			c-2.1,10.8-12.2,18.1-25.1,18.1C477.5,156.8,467.4,145.9,467.4,129.5z M515.3,129.7c0-7.6-7.3-10.3-14.3-10.3
			c-7,0-14.1,2.7-14.1,10.3c0,7.7,7.2,10.7,14.1,10.7C508,140.4,515.3,137.4,515.3,129.7z"/>
		<path class="st0" d="M543.5,129.9c0-16.1,12.1-26.8,30.4-26.8c18.1,0,30.1,9.2,30.4,22.9v8.3h-40.6c1.7,4.4,6.7,6.9,15.2,6.9
			c12.3,0,17.4-3.1,23.1-5.5v16.2c-7.9,2.9-14,4.9-28.2,4.9C555.6,156.8,543.5,146.1,543.5,129.9z M584.6,126.7
			c-0.5-5-5.1-7.3-10.7-7.3c-5.1,0-9.6,2.5-10.7,7.8L584.6,126.7z"/>
	</g>
</g>
</svg>
