<svg id="Layer_2" data-name="Layer 2" xmlns="http://www.w3.org/2000/svg" viewBox="0 0 221 89"><defs><style>.cls-1{fill:#fff;}.cls-2{fill:#d92428;}.cls-3{fill:#221f20;}</style></defs><title>toms-hardware</title><rect class="cls-1" width="221" height="89"/><polygon class="cls-2" points="83.69 30.26 83.69 38.26 77.07 38.26 77.07 30.26 73.25 30.26 73.25 49.83 77.07 49.83 77.07 41.64 83.69 41.64 83.69 49.83 87.51 49.83 87.51 30.26 83.69 30.26"/><path class="cls-2" d="M98,36l2.39,7.12H95.48Zm-1.59-5.77L89.24,49.83h4l1.18-3.46h7l1.15,3.46h4L99.36,30.26h-3Z"/><path class="cls-2" d="M135.09,34.88a3.41,3.41,0,0,0-2.86-1.21h-2.89V46.42h2.89a3.42,3.42,0,0,0,2.86-1.21c0.71-.88.82-2.28,0.82-5.25s-0.11-4.2-.82-5.08M137.75,48a7.12,7.12,0,0,1-5.16,1.87h-7.06V30.26h7.06a7.12,7.12,0,0,1,5.16,1.87c2.2,2.2,2,4.89,2,7.83s0.22,5.8-2,8"/><polygon class="cls-2" points="160.62 30.26 157.57 42.6 154 30.26 151.14 30.26 147.56 42.6 144.54 30.26 140.56 30.26 145.78 49.83 148.97 49.83 152.56 37.96 156.17 49.83 159.36 49.83 164.6 30.26 160.62 30.26"/><path class="cls-2" d="M172.49,36l2.39,7.12H170Zm-1.59-5.77-7.12,19.57h4l1.18-3.46h7l1.15,3.46h4l-7.15-19.57h-3Z"/><path class="cls-2" d="M190.19,33.67h-3.6v5.17h3.6a2.59,2.59,0,1,0,0-5.17m3,16.16L189.34,42h-2.75v7.81h-3.82V30.26h7.67c4,0,6.35,2.72,6.35,6a5.27,5.27,0,0,1-3.57,5.14l4.37,8.44h-4.43Z"/><polygon class="cls-2" points="200.06 30.26 200.06 49.83 212.95 49.83 212.95 46.42 203.88 46.42 203.88 41.67 211.6 41.67 211.6 38.26 203.88 38.26 203.88 33.67 212.95 33.67 212.95 30.26 200.06 30.26"/><path class="cls-2" d="M118.68,41.39a5.27,5.27,0,0,0,3.57-5.14,5.76,5.76,0,0,0-4.39-5.74v4.1a2.6,2.6,0,0,1-2.2,4.22h-2.57V42h1.72l3.82,7.81H123Z"/><path class="cls-2" d="M116.47,30.95l0,2.22a0.81,0.81,0,0,1-.83.8l-0.51,0a0.76,0.76,0,0,1-.76-0.46c0.07-.3-0.36-0.62-1-0.61a1.43,1.43,0,0,0-1.65,1.07c0,0.18,0,.85,0,0.85l-3,0V34.26s0-.12,0-0.39a1,1,0,0,0-1-1,6.91,6.91,0,0,0-4.5,1.81l-0.48-.46c2.86-4.63,5.89-4.35,6.9-4.33l2.16,0c0.53,0,1,1,1.81,1.09a1.29,1.29,0,0,0,.88-0.33,0.72,0.72,0,0,1,.76-0.62l0.47,0a0.82,0.82,0,0,1,.8.83M108.68,36l3,0.1,0.43,13.19A1.1,1.1,0,0,1,111,50.4l-1.61-.05a1.1,1.1,0,0,1-1.08-1.12Z"/><polygon points="8.24 54.55 8.24 55.16 9.49 55.16 9.49 59.07 10.18 59.07 10.18 55.16 11.42 55.16 11.42 54.55 8.24 54.55"/><polygon points="15.45 54.55 15.45 56.48 13.61 56.48 13.61 54.55 12.93 54.55 12.93 59.07 13.61 59.07 13.61 57.09 15.45 57.09 15.45 59.07 16.14 59.07 16.14 54.55 15.45 54.55"/><polygon points="18.04 54.55 18.04 59.07 20.93 59.07 20.93 58.46 18.73 58.46 18.73 57.09 20.61 57.09 20.61 56.48 18.73 56.48 18.73 55.16 20.93 55.16 20.93 54.55 18.04 54.55"/><path d="M26.26,55.57l0.69,2H25.55Zm-0.29-1-1.66,4.52H25l0.31-.91h1.78l0.31,0.91h0.73l-1.66-4.52H26Z"/><path d="M31.09,59.11a1.53,1.53,0,0,1-1.62-1.56v-3h0.69v3a0.94,0.94,0,1,0,1.87,0v-3h0.69v3a1.54,1.54,0,0,1-1.63,1.56"/><polygon points="34.15 54.55 34.15 55.16 35.4 55.16 35.4 59.07 36.09 59.07 36.09 55.16 37.33 55.16 37.33 54.55 34.15 54.55"/><polygon points="41.36 54.55 41.36 56.48 39.52 56.48 39.52 54.55 38.84 54.55 38.84 59.07 39.52 59.07 39.52 57.09 41.36 57.09 41.36 59.07 42.05 59.07 42.05 54.55 41.36 54.55"/><path d="M46.09,55.4a0.95,0.95,0,0,0-1.35,0,1.85,1.85,0,0,0-.27,1.4,1.86,1.86,0,0,0,.27,1.41,0.95,0.95,0,0,0,1.35,0,1.86,1.86,0,0,0,.27-1.41,1.85,1.85,0,0,0-.27-1.4m0.52,3.22a1.63,1.63,0,0,1-1.2.48,1.62,1.62,0,0,1-1.19-.48,2.26,2.26,0,0,1-.44-1.82A2.26,2.26,0,0,1,44.22,55a1.71,1.71,0,0,1,2.38,0A2.26,2.26,0,0,1,47,56.81a2.26,2.26,0,0,1-.43,1.82"/><path d="M50.48,55.16h-1v1.42h1a0.71,0.71,0,1,0,0-1.42m0.79,3.91-1-1.91H49.47v1.91H48.78V54.55h1.76a1.29,1.29,0,0,1,1.4,1.32,1.19,1.19,0,0,1-.9,1.2l1,2h-0.8Z"/><rect x="53.67" y="54.55" width="0.69" height="4.52"/><polygon points="55.86 54.55 55.86 55.16 57.1 55.16 57.1 59.07 57.79 59.07 57.79 55.16 59.03 55.16 59.03 54.55 55.86 54.55"/><polygon points="62.63 54.55 61.68 56.53 60.73 54.55 59.98 54.55 61.34 57.21 61.34 59.07 62.02 59.07 62.02 57.21 63.38 54.55 62.63 54.55"/><path d="M69.11,55.4a1,1,0,0,0-1.35,0,1.86,1.86,0,0,0-.27,1.4,1.87,1.87,0,0,0,.27,1.41,1,1,0,0,0,1.35,0,1.86,1.86,0,0,0,.27-1.41,1.85,1.85,0,0,0-.27-1.4m0.52,3.22a1.71,1.71,0,0,1-2.38,0,2.26,2.26,0,0,1-.44-1.82A2.26,2.26,0,0,1,67.24,55a1.71,1.71,0,0,1,2.38,0,2.26,2.26,0,0,1,.43,1.82,2.26,2.26,0,0,1-.43,1.82"/><polygon points="74.52 54.55 74.52 57.72 72.43 54.55 71.8 54.55 71.8 59.07 72.48 59.07 72.48 55.89 74.58 59.07 75.2 59.07 75.2 54.55 74.52 54.55"/><polygon points="78.96 54.55 78.96 55.16 80.2 55.16 80.2 59.07 80.89 59.07 80.89 55.16 82.14 55.16 82.14 54.55 78.96 54.55"/><polygon points="83.64 54.55 83.64 59.07 86.53 59.07 86.53 58.46 84.33 58.46 84.33 57.09 86.21 57.09 86.21 56.48 84.33 56.48 84.33 55.16 86.53 55.16 86.53 54.55 83.64 54.55"/><path d="M89.66,59.11a1.64,1.64,0,0,1-1.19-.48A2.26,2.26,0,0,1,88,56.81,2.26,2.26,0,0,1,88.47,55a1.64,1.64,0,0,1,1.19-.48,1.56,1.56,0,0,1,1.61,1.39h-0.7A0.94,0.94,0,0,0,89,55.4a1.87,1.87,0,0,0-.27,1.41A1.87,1.87,0,0,0,89,58.22a0.94,0.94,0,0,0,1.59-.5h0.69a1.56,1.56,0,0,1-1.62,1.39"/><polygon points="95.44 54.55 95.44 56.48 93.6 56.48 93.6 54.55 92.91 54.55 92.91 59.07 93.6 59.07 93.6 57.09 95.44 57.09 95.44 59.07 96.12 59.07 96.12 54.55 95.44 54.55"/><path class="cls-3" d="M13.72,50.4a3.89,3.89,0,0,1-4.15-4.1v-7.1H8.05V36.49H9.57V32.25h3.57v4.24h2.53v2.72H13.14v6.88a1.12,1.12,0,0,0,1.24,1.29h1.29v3h-2Z"/><path class="cls-3" d="M25.27,39.76a2.27,2.27,0,0,0-1.68-.63,2.21,2.21,0,0,0-1.65.63c-0.74.74-.82,2-0.82,3.47s0.08,2.75.82,3.49a2.2,2.2,0,0,0,1.65.63,2.26,2.26,0,0,0,1.68-.63c0.74-.74.83-2,0.83-3.49S26,40.5,25.27,39.76m2.78,9.05a5.94,5.94,0,0,1-4.46,1.76,5.88,5.88,0,0,1-4.43-1.76c-1.29-1.35-1.62-3-1.62-5.58s0.33-4.21,1.62-5.56a5.88,5.88,0,0,1,4.43-1.76,5.94,5.94,0,0,1,4.46,1.76c1.29,1.35,1.62,3,1.62,5.56s-0.33,4.23-1.62,5.58"/><path class="cls-3" d="M48.51,50.4V41.74a2.39,2.39,0,1,0-4.76-.08V50.4H40.18V41.74a2.39,2.39,0,1,0-4.76,0V50.4H31.84V36.07h3.49v1.32a5,5,0,0,1,3.58-1.49,4.44,4.44,0,0,1,3.79,1.82A5.47,5.47,0,0,1,47,35.91a5,5,0,0,1,3.52,1.27,5.4,5.4,0,0,1,1.57,4.07V50.4H48.51Z"/><polygon class="cls-3" points="54 37.06 54 30.82 57.74 30.82 57.74 34.23 54 37.06"/><path class="cls-3" d="M62.75,50.57c-2.26,0-4.29-.25-6.11-2.06L59,46.17a5.21,5.21,0,0,0,3.82,1.35c1.24,0,2.53-.41,2.53-1.49,0-.71-0.39-1.21-1.51-1.32l-2.26-.22c-2.58-.25-4.18-1.38-4.18-4,0-3,2.61-4.57,5.52-4.57,2.23,0,4.1.39,5.48,1.68l-2.2,2.23a5,5,0,0,0-3.33-1c-1.43,0-2,.66-2,1.38,0,0.52.22,1.13,1.49,1.23l2.26,0.22c2.83,0.28,4.26,1.79,4.26,4.21,0,3.16-2.7,4.67-6.08,4.67"/></svg>