<?xml version="1.0" encoding="utf-8"?>
<!-- Generator: Adobe Illustrator 16.0.3, SVG Export Plug-In . SVG Version: 6.00 Build 0)  -->
<!DOCTYPE svg PUBLIC "-//W3C//DTD SVG 1.1//EN" "http://www.w3.org/Graphics/SVG/1.1/DTD/svg11.dtd">
<svg version="1.1" xmlns="http://www.w3.org/2000/svg" xmlns:xlink="http://www.w3.org/1999/xlink" x="0px" y="0px" width="623.6px"
	 height="255.1px" viewBox="0 0 623.6 255.1" style="enable-background:new 0 0 623.6 255.1;" xml:space="preserve">
<style type="text/css">
<![CDATA[
	.st0{fill:#191919;}
	.st1{fill:url(#SVGID_1_);}
	.st2{fill:#FFFFFF;}
]]>
</style>
<g id="BG">
	<rect class="st2" width="623.6" height="255.1"/>
</g>
<g id="Logo">
	<g>
		<g>
			<g>
				<path class="st0" d="M211.1,119.2l-7.5-26.9c-0.2-0.9-1.5-0.9-1.7,0l-7.5,26.9c-0.1,0.4-0.5,0.6-0.8,0.6h-5.5
					c-0.4,0-0.7-0.3-0.8-0.6l-12.1-39.8c-0.2-0.5,0.2-1.1,0.7-1.1l6.2-0.9c0.4-0.1,0.9,0.2,1,0.7l7.1,27.5c0.2,0.9,1.5,0.9,1.7,0
					l6.8-27c0.1-0.4,0.5-0.7,0.9-0.7h6.6c0.4,0,0.8,0.3,0.9,0.7l6.9,27c0.2,0.9,1.5,0.9,1.7,0l6.8-26.9c0.1-0.4,0.5-0.7,0.9-0.7h6.1
					c0.6,0,1,0.6,0.8,1.1l-12.1,40.2c-0.1,0.4-0.5,0.6-0.8,0.6h-5.5C211.5,119.8,211.2,119.6,211.1,119.2z"/>
				<path class="st0" d="M230,118.6l15.7-40.2c0.1-0.3,0.5-0.6,0.8-0.6h5.6c0.4,0,0.7,0.2,0.8,0.6l15.7,39.8
					c0.2,0.5-0.1,1.1-0.7,1.2l-6.2,0.9c-0.4,0.1-0.8-0.2-0.9-0.6l-3.3-9.2c-0.1-0.3-0.5-0.6-0.8-0.6h-14.7c-0.4,0-0.7,0.2-0.8,0.6
					l-3.3,8.7c-0.1,0.3-0.5,0.6-0.8,0.6h-6.1C230.2,119.8,229.8,119.2,230,118.6z M244.9,103.5h8.5c0.6,0,1-0.6,0.8-1.2L249.9,91
					c-0.3-0.8-1.4-0.8-1.6,0l-4.2,11.3C243.9,102.9,244.3,103.5,244.9,103.5z"/>
				<path class="st0" d="M275.2,119V78.8c0-0.5,0.4-0.9,0.9-0.9h12.3c4.9,0,8.8,1.1,11.9,3.3c3.1,2.2,4.7,5.4,4.7,9.6
					c0,2.5-0.6,4.7-1.9,6.6c-1.1,1.7-2.6,3-4.4,4c-0.4,0.2-0.6,0.8-0.3,1.2l9.1,15.9c0.3,0.6-0.1,1.3-0.8,1.3h-6.5
					c-0.3,0-0.6-0.2-0.8-0.5l-8.4-15c-0.2-0.3-0.4-0.5-0.8-0.5H284c-0.5,0-0.9,0.4-0.9,0.9V119c0,0.5-0.4,0.9-0.9,0.9h-6.2
					C275.6,119.8,275.2,119.4,275.2,119z M296.5,91.2c0-4.4-2.8-6.6-8.4-6.6H284c-0.5,0-0.9,0.4-0.9,0.9v11.1c0,0.5,0.4,0.9,0.9,0.9
					h4.2c2.5,0,4.5-0.5,6-1.5C295.7,94.9,296.5,93.3,296.5,91.2z"/>
				<path class="st0" d="M325,120.6c-1.7,0-3.9-0.4-6.4-1.1c-2.2-0.7-4-1.3-5.3-2.1c-0.4-0.2-0.5-0.6-0.4-1l1.3-4.8
					c0.1-0.5,0.7-0.8,1.2-0.6c1.3,0.6,2.7,1.1,4.2,1.6c1.9,0.6,3.7,0.9,5.3,0.9c2.5,0,4.3-0.4,5.6-1.2c1.3-0.8,1.9-1.9,1.9-3.4
					c0-1-0.5-2-1.5-2.8c-1-0.8-2.6-1.8-4.7-3l-1.8-1.1c-2.8-1.6-4.9-3.1-6.6-4.3c-1.6-1.2-3-2.6-4.2-4.2c-1.2-1.6-1.8-3.4-1.8-5.5
					c0-2.1,0.6-4.1,1.7-5.8c1.2-1.7,2.8-3,5-4c2.2-1,4.7-1.4,7.7-1.4c3.3,0,7,0.9,11.1,2.8c0.4,0.2,0.6,0.7,0.4,1.1l-2,4.8
					c-0.2,0.5-0.7,0.7-1.2,0.5c-1.4-0.6-2.6-1.1-3.8-1.5c-1.4-0.5-2.9-0.7-4.5-0.7c-1.8,0-3.4,0.4-4.5,1.1c-1.2,0.7-1.8,1.8-1.8,3.2
					c0,1.2,0.5,2.2,1.4,3c0.9,0.8,2.4,1.8,4.5,3.1l2,1.1l1.8,1c2.4,1.4,4.4,2.6,5.8,3.7c1.4,1,2.6,2.3,3.6,3.8
					c1,1.5,1.4,3.3,1.4,5.3c0,2.3-0.6,4.3-1.8,6c-1.2,1.7-3,3.1-5.4,4.1C331.1,120.1,328.3,120.6,325,120.6z"/>
				<path class="st0" d="M344.1,118.6l15.7-40.2c0.1-0.3,0.5-0.6,0.8-0.6h5.6c0.4,0,0.7,0.2,0.8,0.6l15.7,39.8
					c0.2,0.5-0.1,1.1-0.7,1.2l-6.2,0.9c-0.4,0.1-0.8-0.2-1-0.6l-3.3-9.2c-0.1-0.3-0.5-0.6-0.8-0.6h-14.7c-0.4,0-0.7,0.2-0.8,0.6
					l-3.3,8.7c-0.1,0.3-0.5,0.6-0.8,0.6h-6.1C344.3,119.8,343.9,119.2,344.1,118.6z M358.9,103.5h8.5c0.6,0,1-0.6,0.8-1.2L364,91
					c-0.3-0.8-1.4-0.8-1.6,0l-4.2,11.3C357.9,102.9,358.3,103.5,358.9,103.5z"/>
				<path class="st0" d="M418.2,119.2l-7.5-26.9c-0.2-0.9-1.5-0.9-1.7,0l-7.5,26.9c-0.1,0.4-0.5,0.6-0.8,0.6h-5.5
					c-0.4,0-0.7-0.3-0.8-0.6l-12.1-39.8c-0.2-0.5,0.2-1.1,0.7-1.1l6.2-0.9c0.4-0.1,0.9,0.2,1,0.7l7.1,27.5c0.2,0.9,1.5,0.9,1.7,0
					l6.8-27c0.1-0.4,0.5-0.7,0.9-0.7h6.6c0.4,0,0.8,0.3,0.9,0.7l6.9,27c0.2,0.9,1.5,0.9,1.7,0l6.8-26.9c0.1-0.4,0.5-0.7,0.9-0.7h6.1
					c0.6,0,1,0.6,0.8,1.1l-12.1,40.2c-0.1,0.4-0.5,0.6-0.8,0.6H419C418.6,119.8,418.3,119.6,418.2,119.2z"/>
			</g>
			<g>
				<path class="st0" d="M460.8,119V78.8c0-0.5,0.4-0.9,0.9-0.9h12.3c4.9,0,8.8,1.1,11.9,3.3c3.1,2.2,4.7,5.4,4.7,9.6
					c0,2.5-0.6,4.7-1.9,6.6c-1.1,1.7-2.6,3-4.4,4c-0.4,0.2-0.6,0.8-0.3,1.2l9.1,15.9c0.3,0.6-0.1,1.3-0.8,1.3h-6.5
					c-0.3,0-0.6-0.2-0.8-0.5l-8.4-15c-0.2-0.3-0.5-0.5-0.8-0.5h-6.1c-0.5,0-0.9,0.4-0.9,0.9V119c0,0.5-0.4,0.9-0.9,0.9h-6.2
					C461.2,119.8,460.8,119.5,460.8,119z M482.1,91.2c0-4.4-2.8-6.6-8.4-6.6h-4.1c-0.5,0-0.9,0.4-0.9,0.9v11.1
					c0,0.5,0.4,0.9,0.9,0.9h4.2c2.5,0,4.5-0.5,6-1.5C481.3,94.9,482.1,93.3,482.1,91.2z"/>
				<path class="st0" d="M498.4,77.9h6.3c0.5,0,0.9,0.4,0.9,0.9V104c0,3.3,0.8,5.8,2.5,7.5s3.9,2.5,6.7,2.5c2.8,0,5-0.9,6.7-2.6
					c1.7-1.7,2.5-4.2,2.5-7.4V78.8c0-0.5,0.4-0.9,0.9-0.9h6.3c0.5,0,0.9,0.4,0.9,0.9v25.8c0,3-0.7,5.8-2.2,8.2
					c-1.4,2.4-3.5,4.3-6.1,5.7c-2.6,1.4-5.7,2.1-9.1,2.1c-3.4,0-6.4-0.7-9-2.1c-2.6-1.4-4.6-3.3-6-5.7c-1.4-2.4-2.1-5.1-2.1-8.1
					l-0.1-25.8C497.6,78.3,498,77.9,498.4,77.9z"/>
				<path class="st0" d="M572.4,107.5c0,3.8-1.3,6.8-4,9c-2.7,2.2-6.3,3.3-10.8,3.3h-16.3c-0.5,0-0.9-0.4-0.9-0.9V78.8
					c0-0.5,0.4-0.9,0.9-0.9h15.4c4.3,0,7.7,0.9,10.1,2.8c2.4,1.9,3.6,4.9,3.6,8.9c0,2.3-1.2,4.6-3.6,6.7c-0.4,0.4-0.4,1.1,0.1,1.4
					C570.6,100,572.4,103.2,572.4,107.5z M561.9,89.7c0-1.9-0.5-3.2-1.6-4c-1.1-0.8-2.7-1.2-4.8-1.2h-6.3c-0.5,0-0.9,0.4-0.9,0.9
					v8.7c0,0.5,0.4,0.9,0.9,0.9h5c2.3,0,4.2-0.4,5.6-1.3C561.2,92.8,561.9,91.5,561.9,89.7z M564,107.6c0-1.9-0.6-3.4-1.8-4.5
					c-1.2-1.1-2.8-1.6-4.8-1.6h-8.3c-0.5,0-0.9,0.4-0.9,0.9v10c0,0.5,0.4,0.9,0.9,0.9h7.8c2.2,0,3.9-0.5,5.2-1.5
					C563.4,110.8,564,109.4,564,107.6z"/>
				<path class="st0" d="M594.7,104V119c0,0.5-0.4,0.9-0.9,0.9h-6.3c-0.5,0-0.9-0.4-0.9-0.9v-15.2c0-0.2,0-0.3-0.1-0.4l-13-23
					c-0.3-0.5,0-1.1,0.5-1.3l6.1-1.8c0.4-0.1,0.8,0.1,1,0.4l8.7,16.3c0.3,0.6,1.2,0.6,1.5,0l9.1-15.7c0.2-0.3,0.4-0.4,0.8-0.4h6.4
					c0.7,0,1.1,0.7,0.8,1.3l-13.7,24.4C594.7,103.7,594.7,103.9,594.7,104z"/>
			</g>
			<g>
				<path class="st0" d="M180.9,135.4h6.3c0.5,0,0.9,0.4,0.9,0.9v25.2c0,3.3,0.8,5.8,2.5,7.5c1.7,1.7,3.9,2.5,6.7,2.5
					c2.8,0,5-0.9,6.7-2.6c1.7-1.7,2.5-4.2,2.5-7.4v-25.2c0-0.5,0.4-0.9,0.9-0.9h6.3c0.5,0,0.9,0.4,0.9,0.9v25.8c0,3-0.7,5.8-2.2,8.2
					c-1.4,2.4-3.5,4.3-6.1,5.7c-2.6,1.4-5.7,2.1-9.1,2.1c-3.4,0-6.4-0.7-9-2.1c-2.6-1.4-4.6-3.3-6-5.7c-1.4-2.4-2.1-5.1-2.1-8.1
					l-0.1-25.8C180.1,135.8,180.5,135.4,180.9,135.4z"/>
				<path class="st0" d="M233.6,178.2c-1.7,0-3.9-0.4-6.4-1.1c-2.2-0.7-4-1.3-5.3-2.1c-0.4-0.2-0.5-0.6-0.4-1l1.3-4.8
					c0.1-0.5,0.7-0.8,1.2-0.6c1.3,0.6,2.7,1.1,4.2,1.6c1.9,0.6,3.7,0.9,5.3,0.9c2.5,0,4.3-0.4,5.6-1.2c1.3-0.8,1.9-1.9,1.9-3.4
					c0-1-0.5-2-1.5-2.8c-1-0.8-2.6-1.8-4.7-3l-1.9-1.1c-2.8-1.6-4.9-3.1-6.6-4.3c-1.6-1.2-3-2.6-4.2-4.2c-1.2-1.6-1.8-3.4-1.8-5.5
					c0-2.1,0.6-4.1,1.7-5.8c1.1-1.7,2.8-3,5-4c2.2-1,4.7-1.4,7.7-1.4c3.3,0,7,0.9,11.1,2.8c0.4,0.2,0.6,0.7,0.4,1.1l-2,4.8
					c-0.2,0.5-0.7,0.7-1.2,0.5c-1.4-0.6-2.6-1.1-3.8-1.5c-1.4-0.5-2.9-0.7-4.5-0.7c-1.9,0-3.4,0.4-4.5,1.1c-1.2,0.7-1.8,1.8-1.8,3.2
					c0,1.2,0.5,2.2,1.4,3c0.9,0.8,2.4,1.8,4.5,3.1l2,1.1l1.8,1c2.4,1.4,4.4,2.6,5.8,3.7c1.4,1,2.6,2.3,3.6,3.8
					c1,1.5,1.4,3.3,1.4,5.3c0,2.3-0.6,4.3-1.8,6c-1.2,1.7-3,3.1-5.4,4.1C239.7,177.7,236.9,178.2,233.6,178.2z"/>
				<path class="st0" d="M283.4,171.8l0.9,4.5c0.1,0.5-0.3,1.1-0.9,1.1h-27.4c-0.5,0-0.9-0.4-0.9-0.9v-40.2c0-0.5,0.4-0.9,0.9-0.9
					h26.5c0.4,0,0.8,0.3,0.9,0.7l0.9,4.5c0.1,0.5-0.3,1.1-0.9,1.1H264c-0.5,0-0.9,0.4-0.9,0.9v9.5c0,0.5,0.4,0.9,0.9,0.9h12.1
					c0.4,0,0.8,0.3,0.9,0.7l0.9,4.6c0.1,0.5-0.3,1.1-0.9,1.1h-13c-0.5,0-0.9,0.4-0.9,0.9v10c0,0.5,0.4,0.9,0.9,0.9h18.5
					C282.9,171.1,283.3,171.4,283.4,171.8z"/>
				<path class="st0" d="M290.1,176.5v-40.2c0-0.5,0.4-0.9,0.9-0.9h12.3c4.9,0,8.8,1.1,11.9,3.3c3.1,2.2,4.7,5.4,4.7,9.6
					c0,2.5-0.6,4.7-1.9,6.6c-1.1,1.7-2.6,3-4.4,4c-0.4,0.2-0.6,0.8-0.4,1.2l9.1,15.9c0.3,0.6-0.1,1.3-0.8,1.3H315
					c-0.3,0-0.6-0.2-0.8-0.5l-8.4-15c-0.2-0.3-0.4-0.5-0.8-0.5H299c-0.5,0-0.9,0.4-0.9,0.9v14.2c0,0.5-0.4,0.9-0.9,0.9H291
					C290.5,177.4,290.1,177,290.1,176.5z M311.4,148.7c0-4.4-2.8-6.6-8.4-6.6H299c-0.5,0-0.9,0.4-0.9,0.9V154c0,0.5,0.4,0.9,0.9,0.9
					h4.2c2.5,0,4.5-0.5,6-1.5C310.7,152.4,311.4,150.8,311.4,148.7z"/>
			</g>
			<g>
				<path class="st0" d="M370.9,160.6h-7c-0.5,0-0.9-0.5-0.9-1l0.5-4.4c0-0.4,0.4-0.8,0.9-0.8h13.6c0.5,0,0.9,0.4,0.9,0.9v19.3
					c0,0.3-0.2,0.6-0.5,0.8c-1.6,0.8-3.4,1.5-5.5,2c-2.3,0.6-4.6,0.9-7.1,0.9c-4.2,0-7.9-1-11.1-2.9s-5.6-4.5-7.2-7.8
					c-1.7-3.3-2.5-6.9-2.5-11c0-6.2,2-11.5,6.1-15.8c0,0,0,0,0.1-0.1c4.3-4.1,9.5-6.1,15.6-6.1c1.5,0,3.4,0.2,5.6,0.7
					c1.9,0.4,3.6,0.9,5.1,1.7c0.4,0.2,0.6,0.7,0.4,1.1l-1.9,4.2c-0.2,0.4-0.6,0.6-1.1,0.5c-0.6-0.2-0.9-0.3-0.9-0.3
					c-1.6-0.5-2.8-0.8-3.7-1c-0.9-0.2-2.1-0.3-3.4-0.3c-2.5,0-4.9,0.6-6.9,1.7c-2.1,1.2-3.7,2.9-4.9,5.1c-1.2,2.3-1.8,5.1-1.8,8.4
					c0,3,0.5,5.6,1.5,7.9c1,2.3,2.5,4,4.3,5.2c1.9,1.2,4,1.8,6.4,1.8c1.7,0,3.5-0.2,5.4-0.5c0.4-0.1,0.7-0.4,0.7-0.9v-8.6
					C371.8,161,371.4,160.6,370.9,160.6z"/>
				<path class="st0" d="M387.6,176.5v-40.2c0-0.5,0.4-0.9,0.9-0.9h12.3c4.9,0,8.8,1.1,11.9,3.3c3.1,2.2,4.7,5.4,4.7,9.6
					c0,2.5-0.6,4.7-1.9,6.6c-1.1,1.7-2.6,3-4.4,4c-0.4,0.2-0.6,0.8-0.3,1.2l9.1,15.9c0.3,0.6-0.1,1.3-0.8,1.3h-6.5
					c-0.3,0-0.6-0.2-0.8-0.5l-8.4-15c-0.2-0.3-0.5-0.5-0.8-0.5h-6.1c-0.5,0-0.9,0.4-0.9,0.9v14.2c0,0.5-0.4,0.9-0.9,0.9h-6.2
					C388,177.4,387.6,177,387.6,176.5z M408.9,148.7c0-4.4-2.8-6.6-8.4-6.6h-4.1c-0.5,0-0.9,0.4-0.9,0.9V154c0,0.5,0.4,0.9,0.9,0.9
					h4.2c2.5,0,4.5-0.5,6-1.5C408.2,152.4,408.9,150.8,408.9,148.7z"/>
				<path class="st0" d="M422.9,156.6c0-4.2,0.9-8,2.6-11.3c1.7-3.3,4.1-5.9,7.2-7.8c3.1-1.9,6.7-2.9,10.7-3c4.2,0,7.9,1,11,2.9
					c3.1,1.9,5.5,4.5,7.1,7.8s2.4,7,2.4,11c0,4.3-0.9,8.1-2.6,11.4c-1.7,3.3-4.1,5.9-7.2,7.8c-3.1,1.9-6.7,2.8-10.8,2.9
					c-4.2,0-7.9-1-11-2.9c-3.1-1.9-5.5-4.5-7.1-7.8C423.7,164.3,422.9,160.6,422.9,156.6z M443.6,141.2c-2.2,0-4.3,0.6-6.1,1.9
					c-1.9,1.3-3.4,3-4.5,5.4c-1.1,2.3-1.7,5-1.7,8c0,2.9,0.5,5.5,1.5,7.8c1,2.3,2.4,4.1,4.2,5.3c1.8,1.3,4,1.9,6.4,1.9
					c2.3,0,4.4-0.6,6.3-1.7c1.9-1.1,3.4-2.9,4.4-5.2c1.1-2.3,1.6-5.2,1.6-8.5c0-2.9-0.5-5.4-1.5-7.7c-1-2.3-2.4-4-4.3-5.3
					C448.1,141.8,446,141.2,443.6,141.2z"/>
				<path class="st0" d="M471.1,135.4h6.3c0.5,0,0.9,0.4,0.9,0.9v25.2c0,3.3,0.8,5.8,2.5,7.5c1.7,1.7,3.9,2.5,6.7,2.5
					c2.8,0,5-0.9,6.7-2.6c1.7-1.7,2.5-4.2,2.5-7.4v-25.2c0-0.5,0.4-0.9,0.9-0.9h6.3c0.5,0,0.9,0.4,0.9,0.9v25.8c0,3-0.7,5.8-2.2,8.2
					c-1.4,2.4-3.5,4.3-6.1,5.7c-2.6,1.4-5.7,2.1-9.1,2.1c-3.4,0-6.4-0.7-9-2.1c-2.6-1.4-4.6-3.3-6-5.7c-1.4-2.4-2.1-5.1-2.1-8.1
					l-0.1-25.8C470.2,135.8,470.6,135.4,471.1,135.4z"/>
				<path class="st0" d="M520.2,163.6v12.9c0,0.5-0.4,0.9-0.9,0.9h-6.2c-0.5,0-0.9-0.4-0.9-0.9v-40.2c0-0.5,0.4-0.9,0.9-0.9h12.3
					c4.9,0,8.9,1.1,12,3.3c3.1,2.2,4.6,5.6,4.6,10.1c0,3-0.8,5.6-2.4,7.7c-1.6,2.1-3.7,3.6-6.3,4.7c-2.6,1-5.4,1.5-8.5,1.5h-3.7
					C520.6,162.7,520.2,163.1,520.2,163.6z M533.6,149.4c0-2.6-0.7-4.5-2.1-5.6c-1.4-1.1-3.5-1.7-6.3-1.7h-4.1
					c-0.5,0-0.9,0.4-0.9,0.9v12.3c0,0.5,0.4,0.9,0.9,0.9h4.2c2.5,0,4.4-0.6,5.9-1.7C532.6,153.3,533.4,151.6,533.6,149.4z"/>
			</g>
		</g>
		<linearGradient id="SVGID_1_" gradientUnits="userSpaceOnUse" x1="44.1284" y1="163.2451" x2="110.7082" y2="78.0268">
			<stop  offset="0" style="stop-color:#E11B49"/>
			<stop  offset="0.1588" style="stop-color:#E81B49"/>
			<stop  offset="0.5332" style="stop-color:#F21B49"/>
			<stop  offset="1" style="stop-color:#F51B49"/>
		</linearGradient>
		<path class="st1" d="M72.8,164.4l58.9-38.2c0.8-0.5,1-1.5,0.5-2.3l-16-24.6c-0.2-0.4-0.6-0.6-1.1-0.7l-56.6-12
			c-0.4-0.1-0.9,0-1.3,0.2l-24.6,16c-0.8,0.5-1,1.5-0.5,2.3l11.5,17.8c0.5,0.8,1.5,1,2.3,0.5l17.8-11.5c0.8-0.5,1.8-0.3,2.3,0.5
			L77.7,130c0.5,0.8,1.5,1,2.3,0.5L97.8,119c0.8-0.5,1.8-0.3,2.3,0.5l4.9,7.5c0.5,0.8,0.3,1.8-0.5,2.3l-28,18.2
			c-0.8,0.5-1.8,0.3-2.3-0.5l-11.5-17.8c-0.5-0.8-1.5-1-2.3-0.5l-17.8,11.5c-0.8,0.5-1.8,0.3-2.3-0.5l-24.9-38.3
			c-0.5-0.8-0.3-1.8,0.5-2.3l39.2-25.4c0.4-0.2,0.8-0.3,1.3-0.2l66.5,14.1c0.4,0.1,0.8,0.4,1.1,0.7l25.4,39.2
			c0.5,0.8,0.3,1.8-0.5,2.3l-79.5,51.6c-0.8,0.5-1.8,0.3-2.3-0.5l-18.2-28c-0.5-0.8-0.3-1.8,0.5-2.3l7.5-4.9
			c0.8-0.5,1.8-0.3,2.3,0.5L70.5,164C71,164.7,72,165,72.8,164.4z"/>
	</g>
</g>
</svg>
