<svg id="Layer_1" data-name="Layer 1" xmlns="http://www.w3.org/2000/svg" viewBox="0 0 623.62 255.12"><defs><style>.cls-1{fill:#fff;}.cls-2{fill-rule:evenodd;}</style></defs><title>webdebs</title><rect class="cls-1" width="623.62" height="255.12"/><path class="cls-2" d="M205.92,68,191.56,186.8H172.05l-4.72-42.37Q166,131.83,163.12,98q-1.31,15.51-4.35,46.42l-5.25,42.34H133.93L121.08,68h16.7l3.55,34.27q1.46,12.45,4.18,48,1.31-16,4.22-48L153.31,68h20l3.88,34.3q1.51,12.45,4.58,48,1.11-16,3.71-48L189,68Z"/><polygon class="cls-2" points="242.37 186.8 211.44 186.8 211.44 67.95 242.37 67.95 242.37 84.45 228.54 84.45 228.54 97.71 242.37 97.71 242.37 114.54 228.54 114.54 228.54 169.66 242.37 169.66 242.37 186.8"/><path class="cls-2" d="M282.26,134.75c0-5-2.75-7.46-8.23-7.46h-6.26v42.37H274c5.49,0,8.23-3.18,8.23-9.57Zm0-41.73c0-5.59-2.75-8.4-8.23-8.4h-6.26v23.29H274q8.23,0,8.23-7.93Zm17.1,68.67c.1,9-.74,15.06-2.58,18.31q-4.07,7.13-17,7.13H250.67V68H283.1c6.83,0,11.44,2.44,13.82,7.3,1.64,3.35,2.44,9,2.44,16.83v4.69c0,6.26-1,10.88-2.91,13.79-2.18,3.45-6.33,5.76-12.38,7,5.79,1,9.94,3.65,12.38,8.1,1.94,3.55,2.91,8.74,2.91,15.53Z"/><path class="cls-2" d="M334.27,169.43v-32.8a8.15,8.15,0,0,0-1.4-4.72,4.57,4.57,0,0,0-4-2.08c-3.51,0-5.25,2.28-5.25,6.79v32.8c0,4,1.74,6.06,5.25,6.06s5.39-2,5.39-6.06M345,187.3H334.27v-7.53c-.77,3.25-2.11,5.42-4,6.53-1.54,1-4,1.51-7.46,1.51-4.25,0-7.09-2.34-8.63-7-.84-2.68-1.27-6.79-1.27-12.32v-32.6c0-6,.57-10.14,1.67-12.55,1.67-4,5-6.06,10-6.06,4.65,0,7.9,2.71,9.77,8.07V94.86H345Z"/><path class="cls-2" d="M372,132.85c0-3.35-1.74-5-5.25-5s-5.25,1.67-5.25,5v12.72H372ZM382.76,172c0,6.46-1.07,10.71-3.25,12.75s-6.43,3.08-12.85,3.08c-6.16,0-10.34-1.1-12.58-3.31s-3.35-6.39-3.35-12.52V134.76c0-6.79,1-11.34,2.91-13.59,2.18-2.61,6.53-3.92,13-3.92s11,1.27,13.19,3.78c1.94,2.27,2.91,6.83,2.91,13.72V157H361.48V171.2q0,5.42,5,5.42c3.65,0,5.49-2.61,5.49-7.8v-2.28h10.78Z"/><path class="cls-2" d="M426,134.75c0-5-2.74-7.46-8.23-7.46h-6.26v42.37h6.26c5.49,0,8.23-3.18,8.23-9.57ZM426,93c0-5.59-2.74-8.4-8.23-8.4h-6.26v23.29h6.26q8.23,0,8.23-7.93Zm17.1,68.67c.1,9-.74,15.06-2.58,18.31q-4.06,7.13-17,7.13H394.44V68h32.4q10.24,0,13.82,7.3c1.64,3.35,2.44,9,2.44,16.83v4.69c0,6.26-1,10.88-2.91,13.79-2.18,3.45-6.33,5.76-12.38,7,5.79,1,9.94,3.65,12.38,8.1,1.94,3.55,2.91,8.74,2.91,15.53Z"/><path class="cls-2" d="M499.76,144.56v20.15q0,13.56-5.69,18.37c-3.38,2.71-9.7,4-19,4q-15,0-19.07-3.58-4.87-4-4.89-18.91V141h17.1v20.68c0,6.06,2.28,9.07,6.86,9.07a7,7,0,0,0,5.86-3.08,12.46,12.46,0,0,0,1.78-6.59v-16c0-3.55-.47-6-1.47-7.26-.64-1-2.95-2.51-6.86-4.65-11.34-6.36-18.07-11.14-20.15-14.42s-3.11-10.74-3.11-22.32V92.62q0-15.76,4.48-20.55t19.78-4.75q15.16,0,19.78,4.52t4.65,19.91v13.39h-17.1V92.22a10.27,10.27,0,0,0-2-6.29,6.44,6.44,0,0,0-5.59-2.74c-4.62,0-6.93,3.31-6.93,10v9.67c0,3.55,2.08,6.73,6.19,9.5,3.48,1.84,7,3.71,10.44,5.66q10.09,5.62,12.52,10.24c1.64,3,2.44,8.5,2.44,16.33"/><path class="cls-2" d="M90.59,115.14a24,24,0,0,0,.87-7.33c0-3.25.17-8.53-1.87-11.18L20.28,127.06c-1.17,2.21-1.31,5.15-1.31,7.8s.13,5.59,1.31,7.8l69.31,30.42c1.61-2.07,1.87-6,1.87-8.53,0-3.38.17-6.89-.87-10.14L44.27,134.86Z"/><path class="cls-2" d="M532.12,162.94c0,2.95,0,7.63,1.87,10.14l69.34-30.42c1.14-2.21,1.3-5.15,1.3-7.8s-.17-5.59-1.3-7.8L534,96.64c-1.57,2-1.87,6.16-1.87,8.67,0,3.25-.13,6.76.87,9.84l46.32,19.71L533,154.4a27.93,27.93,0,0,0-.87,8.53"/></svg>