<svg id="Layer_1" data-name="Layer 1" xmlns="http://www.w3.org/2000/svg" viewBox="0 0 623.6 255.1"><defs><style>.cls-1{fill:#fff;}.cls-2{fill:#bdbdbd;}</style></defs><title>Artboard 1</title><rect class="cls-1" width="623.6" height="255.1"/><g id="Layer_2" data-name="Layer 2"><g id="Layer_1-2" data-name="Layer 1-2"><path d="M450.4,73.7a81.15,81.15,0,0,1,6.8,32.9,79.65,79.65,0,0,1-6.8,33,85.35,85.35,0,0,1-45.9,45.2,83.79,83.79,0,0,1-33.5,6.6H295.1l17.3-35.8H371a49.31,49.31,0,0,0,19.3-3.9,51.92,51.92,0,0,0,16-10.6,48.2,48.2,0,0,0,10.8-53.8,47.62,47.62,0,0,0-10.8-15.5,51.63,51.63,0,0,0-16-10.5A49.31,49.31,0,0,0,371,57.4H327.1L259.3,191.3,223,119l-36.6,72.4L101.1,22h40.6l44.6,88.6,16.2-32L174.1,22h40.6l44.6,88.6,45-88.6H371a83.88,83.88,0,0,1,33.5,6.7,85.66,85.66,0,0,1,45.9,45Zm34-51.7V191.5h36.5V22Z"/><path class="cls-2" d="M109.4,223.7l3.4-11h4.5l3.4,11,3.8-11h4.6l-6.7,19.2h-3.2L115,218.5l-4.2,13.3h-3.2l-6.7-19.2h4.6Zm38.6-11v3.8h-9.6v4H147V224h-8.6v4h9.9v3.8H134.2V212.6Zm15.2,19.2h-8.4V212.7h7.5a10,10,0,0,1,3.4.5,4.65,4.65,0,0,1,2.1,1.3,5.07,5.07,0,0,1,1.3,3.3,3.77,3.77,0,0,1-1.4,3.3,4.23,4.23,0,0,1-.7.5l-.7.3a5,5,0,0,1,2.8,1.6,4.62,4.62,0,0,1,1.1,3,5.88,5.88,0,0,1-1.3,3.6q-1.8,1.65-5.7,1.8Zm-4.1-11.5h2a7.46,7.46,0,0,0,2.6-.4,2.13,2.13,0,0,0,.1-3.4,6.35,6.35,0,0,0-2.7-.4h-2Zm0,7.8H162a6.81,6.81,0,0,0,2.8-.4,1.92,1.92,0,0,0,.9-1.8,1.75,1.75,0,0,0-1-1.8,8.28,8.28,0,0,0-3.1-.4h-2.5Zm38.8-13a9.2,9.2,0,0,1,2.8,7,9.49,9.49,0,0,1-2.7,7c-1.8,1.7-4.5,2.6-8.2,2.6h-6.6V212.6H190c3.5,0,6.1.8,7.9,2.6Zm-3.1,11.4a5.64,5.64,0,0,0,1.6-4.3,6,6,0,0,0-1.6-4.4,6.69,6.69,0,0,0-4.9-1.5h-2.4V228h2.7a6.81,6.81,0,0,0,4.6-1.4Zm26.1-13.9v3.8h-9.6v4h8.6V224h-8.6v4h9.9v3.8H207V212.6Zm13.9,12.2,4.9-12.2h4.6l-7.7,19.2H233l-7.7-19.2h4.6Zm28.4-12.2v3.8h-9.6v4h8.6V224h-8.6v4h9.9v3.8H249.4V212.6Zm6.8,19.2V212.7h4.3V228h8.2v3.8Zm33.9-2.7a10.39,10.39,0,0,1-14.3,0,10,10,0,0,1,0-14.1,10.39,10.39,0,0,1,14.3,0A10,10,0,0,1,303.9,229.2Zm-1.5-7a6.56,6.56,0,0,0-1.7-4.4,5.5,5.5,0,0,0-7.7-.4c-.2.1-.3.3-.4.4a6.69,6.69,0,0,0,0,8.8,5.5,5.5,0,0,0,7.7.4l.4-.4a6,6,0,0,0,1.7-4.4Zm23.9-7.8a6.58,6.58,0,0,1,2,5.3c0,2.4-.7,4.1-2.1,5.2s-3.5,1.6-6.3,1.6h-2.6v5.4H313V212.7h6.8c3-.1,5.2.5,6.5,1.7Zm-3.1,7.5a3.75,3.75,0,0,0,.8-2.5,2.8,2.8,0,0,0-1-2.4,5.47,5.47,0,0,0-3.1-.7h-2.4v6.4h2.9a3.33,3.33,0,0,0,2.8-.8Zm25-9.2v3.8h-9.6v4h8.6V224h-8.6v4h9.9v3.8H334.4V212.6Zm22.4,6.3q0,4.65-3.6,6l4.9,6.9h-5.3l-4.3-6.1h-3v6.1H355V212.7h7.3c3,0,5.1.5,6.4,1.5S370.6,216.8,370.6,219Zm-5.1,2.3a2.74,2.74,0,0,0,.8-2.3,2.35,2.35,0,0,0-.8-2.1,4.92,4.92,0,0,0-2.9-.6h-3.2V222h3.1a5.32,5.32,0,0,0,3-.7Zm20.1-8.7h4.3v19.2h-4.3Zm19.8,3.7v15.5h-4.3V216.3h-5.4v-3.7h15.2v3.7ZM429,231.8l-1.8-4.1h-8l-1.8,4.1h-4.6l8.3-19.2h4.1l8.3,19.2Zm-5.8-13.5-2.4,5.6h4.8Zm15.3,13.5V212.6h4.3V228H451v3.8Zm18.3-19.2H461v19.2h-4.3Zm25.3,19.2-1.8-4.1h-8l-1.8,4.1H466l8.3-19.2h4.1l8.3,19.2Zm-5.8-13.5-2.4,5.6h4.8Zm28.7-5.7h4.3v19.2H505l-9.1-12v12h-4.3V212.6h4L505,225Zm11.8,0h4.3v19.2h-4.3Z"/></g></g></svg>